<?xml version="1.0" encoding="utf-8"?>
<!-- Generator: Adobe Illustrator 16.0.0, SVG Export Plug-In . SVG Version: 6.00 Build 0)  -->
<!DOCTYPE svg PUBLIC "-//W3C//DTD SVG 1.1//EN" "http://www.w3.org/Graphics/SVG/1.1/DTD/svg11.dtd">
<svg version="1.1" id="Layer_1" xmlns="http://www.w3.org/2000/svg" xmlns:xlink="http://www.w3.org/1999/xlink" x="0px" y="0px"
	 width="130px" height="130px" viewBox="0 0 130 130" enable-background="new 0 0 130 130" xml:space="preserve">
<rect fill="none" width="130" height="130"/>
<g>
	<g id="Shape_2_copy_2_2_">
		<path fill="#C1B399" d="M21.535,44.551c0,0-1.741-0.279-2.637-0.188c-0.896,0.094-3.086,0.805-5.469,1.442
			c-2.379,0.637-6.361,2.052-8.413,3.229c-2.048,1.181-1.627,2.874-1.627,2.874l1.32,6.51c0,0,0.85,4.309,2.902,0.499
			c2.048-3.811-3.55-2.299-2.501-4.699c2.164-4.939,10.478-8.378,15.937-8.855c0.278-0.024,0.487-0.254,0.487-0.533V44.551z"/>
	</g>
	<g id="Shape_2_copy_3_2_">
		<path fill="#C1B399" d="M125.244,49.034c-2.048-1.177-6.033-2.592-8.412-3.229c-2.38-0.638-4.57-1.348-5.47-1.442
			c-0.895-0.09-2.637,0.188-2.637,0.188v0.278c0,0.279,0.213,0.509,0.488,0.533c5.462,0.477,13.773,3.916,15.937,8.855
			c1.052,2.4-4.546,0.888-2.498,4.699c2.049,3.811,2.898-0.499,2.898-0.499l1.32-6.51C126.871,51.908,127.296,50.215,125.244,49.034
			z"/>
	</g>
	<g id="Shape_1_copy_2_">
		<path fill="#E0D6C2" d="M128.992,64.017v-9.621c0-2.31-0.282-4.104-3.204-5.661c-2.191-1.167-6.504-2.602-9.936-3.483
			c-1.947-0.502-4.511-1.258-6.469-0.575c2.275-0.313,4.159,0.275,6.315,0.896c3.554,1.024,8.671,2.693,9.782,3.87
			c1.634,1.731,1.003,2.713-2.167,5.117c-3.174,2.403-9.803,2.787-9.803,2.787s-32.591,0.077-36.019,0.077
			c-3.431,0-5.058,0.746-7.367,1.972c-2.167,1.153-3.641,1.717-5.128,1.693c-1.483,0.024-2.957-0.54-5.124-1.693
			c-2.31-1.226-3.939-1.972-7.364-1.972c-3.431,0-36.021-0.077-36.021-0.077s-6.629-0.383-9.803-2.787
			c-3.17-2.404-3.8-3.386-2.167-5.117c1.107-1.177,6.232-2.846,9.782-3.87c2.152-0.62,4.04-1.209,6.312-0.896
			c-1.954-0.683-4.518,0.073-6.465,0.575c-3.432,0.881-7.744,2.316-9.935,3.483c-2.923,1.557-3.205,3.351-3.205,5.661v9.621
			c0,0.568-0.53,5.602,7.385,13.516c7.911,7.914,11.517,8.123,20.88,8.123h19.824c6.047,0,6.656-0.393,9.318-6.9
			c1.696-4.145,2.261-5.649,3.675-6.594c0.742-0.495,1.828-0.735,2.908-0.721c1.084-0.015,2.17,0.226,2.912,0.721
			c1.414,0.944,1.979,2.449,3.675,6.594c2.662,6.508,3.268,6.9,9.322,6.9h19.824c9.359,0,12.965-0.209,20.88-8.123
			C129.525,69.618,128.992,64.584,128.992,64.017z"/>
	</g>
	<g id="Shape_4_copy_4_2_">
		<path fill="#4BA7C4" d="M52.636,61.129c-8.284,0-26.558-0.052-33.386-0.07c-1.132,0-2.163-0.01-3.194-0.066
			c-1.543-0.087-2.828,1.129-2.828,2.679v12.342c0,0.815,0.324,1.519,0.947,2.045c4.644,3.933,7.598,4.155,15.22,4.155h19.827
			c4.319,0,4.372-0.676,6.009-4.678C57.871,71.085,60.612,61.129,52.636,61.129z"/>
	</g>
	<g id="Shape_4_copy_6_2_">
		<path fill="#EB2A2A" d="M113.944,60.993c-1.031,0.056-2.062,0.066-3.194,0.066c-6.831,0.018-25.105,0.07-33.386,0.07
			c-7.977,0-5.235,9.956-2.595,16.407c1.637,4.002,1.689,4.678,6.009,4.678h19.824c7.625,0,10.583-0.223,15.223-4.155
			c0.623-0.526,0.951-1.229,0.951-2.045V63.672C116.776,62.122,115.49,60.906,113.944,60.993z"/>
	</g>
</g>
</svg>
