<?xml version="1.0" encoding="utf-8"?>
<!-- Generator: Adobe Illustrator 16.0.0, SVG Export Plug-In . SVG Version: 6.00 Build 0)  -->
<!DOCTYPE svg PUBLIC "-//W3C//DTD SVG 1.1//EN" "http://www.w3.org/Graphics/SVG/1.1/DTD/svg11.dtd">
<svg version="1.1" id="Layer_1" xmlns="http://www.w3.org/2000/svg" xmlns:xlink="http://www.w3.org/1999/xlink" x="0px" y="0px"
	 width="130px" height="130px" viewBox="0 0 130 130" enable-background="new 0 0 130 130" xml:space="preserve">
<rect fill="none" width="130" height="130"/>
<g id="Shape_26_copy_1_">
	<path fill="#FF7E30" d="M117.108,110.456c-7.262-16.334-17.343-27.005-25.407-33.464c6.045-0.803,12.899-3.217,22.576-8.67
		l3.028-1.6l-1.417-3.434l-7.656-17.543l-1.81-4.021l-3.839,2.211c-0.197,0.198-8.262,4.236-17.527,3.229
		c10.077-2.624,17.527-11.695,17.527-22.576C102.584,11.479,92.108,1,79.011,1C66.099,1,55.622,11.479,55.622,24.589
		c0,5.243,1.809,10.078,4.838,14.104c-12.689,8.67-16.321,22.984-17.334,35.687c-0.404,3.224-0.602,4.236-0.602,4.632
		c-8.062,16.531-25.396,18.952-26.205,19.149l-5.039,0.604l1.812,4.639l8.259,22.366l1.01,3.229l3.435-0.803
		c25.197-5.242,34.257-16.938,41.519-26.405c17.742,8.861,24.188,23.169,24.188,23.169c0.605,0.81,2.02,3.632,2.02,3.632
		l3.424-2.217l18.538-10.881l3.235-1.81L117.108,110.456z"/>
</g>
</svg>
