<?xml version="1.0" encoding="utf-8"?>
<!-- Generator: Adobe Illustrator 16.0.0, SVG Export Plug-In . SVG Version: 6.00 Build 0)  -->
<!DOCTYPE svg PUBLIC "-//W3C//DTD SVG 1.1//EN" "http://www.w3.org/Graphics/SVG/1.1/DTD/svg11.dtd">
<svg version="1.1" id="Layer_1" xmlns="http://www.w3.org/2000/svg" xmlns:xlink="http://www.w3.org/1999/xlink" x="0px" y="0px"
	 width="130px" height="130px" viewBox="0 0 130 130" enable-background="new 0 0 130 130" xml:space="preserve">
<rect fill="none" width="130" height="130"/>
<g>
	<path fill-rule="evenodd" clip-rule="evenodd" fill="#3F91CB" d="M121.465,113.916c-0.755,1.532-1.482,3.076-2.282,4.586
		c-0.265,0.49-0.694,0.894-1.234,1.565c-0.314-0.909-0.546-1.565-0.772-2.216c-0.27-0.938-0.49-1.891-0.826-2.806
		c-0.568-1.56-1.423-2.949-2.982-3.715c-1.107-0.552-2.255-1.021-3.379-1.527c-1.527-1.196-3.208-2.243-4.548-3.627
		c-2.105-2.172-3.208-4.928-3.677-7.916c0.05-1.301,0.066-2.607,0.188-3.896c0.027-0.314,0.32-0.712,0.606-0.882
		c2.972-1.759,5.959-3.489,8.969-5.177c0.275-0.159,0.815-0.071,1.13,0.1c4.211,2.299,7.431,5.518,9.178,10.07
		c0.723,2.266,1.279,4.56,1.257,6.963c-0.027,2.529-0.529,4.961-1.295,7.358C121.674,113.161,121.575,113.541,121.465,113.916z"/>
	<path fill-rule="evenodd" clip-rule="evenodd" fill="#3F91CB" d="M12.179,96.101c0.132-0.392,0.259-0.777,0.425-1.296
		c0.998,0.523,1.94,1.02,2.877,1.516c3.258,1.902,6.516,3.804,9.878,5.767c-0.391,0.353-0.711,0.622-1.014,0.915
		c-2.497,2.397-4.983,4.795-7.475,7.198c-2.734,2.613-5.474,5.231-8.208,7.845c-0.711,0.639-1.428,1.284-2.139,1.929
		c-0.061-0.033-0.122-0.061-0.177-0.094c0.403-1.653,0.799-3.302,1.202-4.955c1.163-4.631,2.326-9.261,3.473-13.891
		C11.429,99.391,11.793,97.748,12.179,96.101z"/>
	<path fill-rule="evenodd" clip-rule="evenodd" fill="#3F91CB" d="M100.54,64.796c1.273,2.266,2.547,4.531,3.897,6.929
		c-4.289,2.47-8.533,4.906-12.938,7.442c-2.822-4.896-5.622-9.752-8.423-14.603c-1.466-2.568-2.927-5.148-4.409-7.706
		c-2.15-3.715-4.322-7.414-6.488-11.124c-0.992-1.758-1.968-3.528-2.982-5.27c-1.863-3.214-3.748-6.422-5.628-9.625
		c-1.818-3.142-3.638-6.284-5.457-9.426c-0.485-0.832-0.97-1.67-1.449-2.508c-0.723-2.574,0.484-4.426,2.381-5.909
		c1.141-0.893,2.459-1.56,3.699-2.332c1.195-0.254,2.387-0.662,3.583-0.728c1.56-0.083,2.8,0.694,3.627,2.045
		c0.457,0.744,0.903,1.494,1.355,2.243c1.847,3.197,3.693,6.395,5.54,9.591c1.824,3.148,3.638,6.29,5.463,9.437
		c1.835,3.225,3.671,6.45,5.518,9.668c0.546,0.959,1.136,1.896,1.709,2.845c1.725,3.026,3.434,6.063,5.182,9.079
		C96.644,58.17,98.6,61.478,100.54,64.796z"/>
	<path fill-rule="evenodd" clip-rule="evenodd" fill="#3F91CB" d="M129,64.758c0,4.2,0,8.4,0,12.717
		c-0.392,0.021-0.7,0.044-1.015,0.044c-5.738,0.006-11.471-0.011-17.215,0.021c-0.716,0-1.08-0.242-1.438-0.854
		c-2.453-4.189-4.95-8.352-7.431-12.514c-0.236-0.457-0.468-0.915-0.749-1.46c9.288,0,18.493,0,27.848,0
		C129,63.413,129,64.085,129,64.758z"/>
	<path fill-rule="evenodd" clip-rule="evenodd" fill="#3F91CB" d="M47.253,64.146c-1.891,3.214-3.798,6.416-5.672,9.642
		c-2.343,4.023-4.646,8.064-6.967,12.099c-0.11,0.199-0.193,0.408-0.287,0.612c-2.271,3.919-4.548,7.838-6.819,11.763
		c-0.397,0.623-0.793,1.24-1.224,1.913c-2.574-1.45-5.088-2.861-7.602-4.277c-1.725-1.025-3.445-2.051-5.253-3.126
		c1.091-1.896,2.15-3.715,3.203-5.545c2.85-4.972,5.694-9.944,8.544-14.916c0.469-0.816,0.959-1.621,1.438-2.426
		c2.971-5.121,5.954-10.236,8.919-15.357c1.643-2.844,3.258-5.7,4.89-8.555c1.047-1.753,2.1-3.506,3.208-5.363
		c3.181,1.803,6.339,3.594,9.497,5.386c1.108,0.667,2.205,1.339,3.374,2.045c-1.053,1.824-2.101,3.622-3.137,5.424
		C51.332,57.024,49.293,60.585,47.253,64.146z"/>
	<path fill-rule="evenodd" clip-rule="evenodd" fill="#3F91CB" d="M25.364,69.267c-1.395,2.426-2.812,4.851-4.173,7.293
		c-0.369,0.661-0.75,0.992-1.582,0.986c-5.827-0.05-11.664-0.021-17.496-0.021c-0.319,0-0.639,0-1.113,0c0-2.68,0-5.275,0-7.866
		c0-2.305,0-4.608,0-6.962c9.387,0,18.626,0,28.019,0C27.784,64.923,26.571,67.095,25.364,69.267z"/>
	<path fill-rule="evenodd" clip-rule="evenodd" fill="#3F91CB" d="M57.798,45.922c-0.303,0.446-0.628,0.545-1.103,0.176
		c-0.413-0.331-0.909-0.557-1.366-0.833c-3.203-1.863-6.406-3.721-9.608-5.583c-0.358-0.204-0.706-0.436-1.146-0.706
		c1.516-2.673,2.999-5.292,4.481-7.916c1.367-1.802,3.23-2.249,5.281-1.631c1.472,0.446,2.839,1.212,4.255,1.835
		c0.833,0.728,1.742,1.378,2.47,2.194c1.428,1.587,1.962,3.544,0.612,5.7C60.29,41.353,59.083,43.662,57.798,45.922z"/>
	<path fill-rule="evenodd" clip-rule="evenodd" fill="#3F91CB" d="M95.739,86.476c-1.069-1.896-2.145-3.798-3.285-5.826
		c4.267-2.458,8.516-4.9,12.893-7.42c2.387,4.14,4.741,8.208,7.111,12.31c-0.381,0.27-0.667,0.474-0.954,0.678
		c-3.478,1.984-6.962,3.969-10.445,5.953c-0.452,0.265-0.904,0.519-1.461,0.832C98.308,90.819,97.023,88.647,95.739,86.476z"/>
	<path fill-rule="evenodd" clip-rule="evenodd" fill="#3F91CB" d="M48.648,64.983c0.066-0.071,0.166-0.132,0.193-0.221
		c0.617-1.896,1.974-2.188,3.831-2.166c8.671,0.104,17.342,0.071,26.013,0.017c1.13-0.006,1.847,0.275,2.26,1.323
		c0.132,0.319,0.375,0.601,0.567,0.903c1.77,3.137,3.539,6.273,5.309,9.415c0.584,1.037,1.174,2.073,1.819,3.203
		c-15.738,0-31.354,0-47.152,0c0.463-0.86,0.86-1.659,1.307-2.431C44.74,71.676,46.697,68.329,48.648,64.983z"/>
</g>
</svg>
