<?xml version="1.0" encoding="utf-8"?>
<!-- Generator: Adobe Illustrator 16.0.0, SVG Export Plug-In . SVG Version: 6.00 Build 0)  -->
<!DOCTYPE svg PUBLIC "-//W3C//DTD SVG 1.1//EN" "http://www.w3.org/Graphics/SVG/1.1/DTD/svg11.dtd">
<svg version="1.1" id="Layer_1" xmlns="http://www.w3.org/2000/svg" xmlns:xlink="http://www.w3.org/1999/xlink" x="0px" y="0px"
	 width="130px" height="130px" viewBox="0 0 130 130" enable-background="new 0 0 130 130" xml:space="preserve">
<rect fill="none" width="130" height="130"/>
<g>
	<path fill="#7C6A51" d="M110.244,54.836c-1.377-0.994-3.309-0.679-4.302,0.7l-41.676,57.777c-0.036,0.061-0.074,0.12-0.116,0.184
		c-0.053,0.069-0.121,0.175-0.205,0.292c-0.191,0.141-0.354,0.305-0.513,0.486c-7.955,9.586-22.092,11.38-32.19,4.085
		c-10.372-7.499-12.965-21.772-5.896-32.491c0.122-0.178,0.222-0.363,0.29-0.557l51.246-71.046
		c5.707-7.715,16.676-9.419,24.457-3.792c7.591,5.481,9.556,15.967,4.472,23.875c-1.241,1.774-32.106,44.571-42.288,58.695
		l-3.257,4.518c-0.2,0.188-0.364,0.405-0.512,0.646l-0.164,0.266l-0.164,0.298c-1.721,2.387-4.26,3.956-7.169,4.422
		c-2.897,0.473-5.816-0.22-8.202-1.94c-4.83-3.511-5.977-10.362-2.55-15.272c0.132-0.189,0.242-0.391,0.321-0.6l35.658-49.557
		c0.992-1.383,0.676-3.311-0.702-4.305c-1.389-0.996-3.31-0.681-4.302,0.701L36.743,81.885c-0.18,0.25-0.312,0.49-0.48,0.813
		c-0.026,0.037-0.042,0.071-0.063,0.11c-5.025,7.613-3.178,18.043,4.244,23.437c3.722,2.69,8.272,3.758,12.79,3.038
		c4.541-0.728,8.511-3.179,11.334-7.111l0.185-0.312c0.059-0.071,0.122-0.144,0.175-0.219l40.905-56.75
		c2.75-3.815,4.275-5.932,5.035-7.256l0.116,0.074c6.874-10.667,4.223-24.828-6.028-32.234c-10.5-7.588-25.322-5.299-33.056,5.159
		L20.647,81.694c-0.433,0.573-0.76,1.02-0.934,1.55c-8.277,13.392-4.899,30.853,7.912,40.115C32.89,127.16,39.023,129,45.109,129
		c8.294,0,16.513-3.416,22.355-9.956c0.153-0.093,0.29-0.202,0.434-0.322c0.011-0.012,0.913-0.861,1.488-1.957l41.56-57.622
		C111.938,57.762,111.627,55.834,110.244,54.836z"/>
</g>
</svg>
