<?xml version="1.0" encoding="utf-8"?>
<!-- Generator: Adobe Illustrator 16.0.0, SVG Export Plug-In . SVG Version: 6.00 Build 0)  -->
<!DOCTYPE svg PUBLIC "-//W3C//DTD SVG 1.1//EN" "http://www.w3.org/Graphics/SVG/1.1/DTD/svg11.dtd">
<svg version="1.1" id="Layer_1" xmlns="http://www.w3.org/2000/svg" xmlns:xlink="http://www.w3.org/1999/xlink" x="0px" y="0px"
	 width="130px" height="130px" viewBox="0 0 130 130" enable-background="new 0 0 130 130" xml:space="preserve">
<rect fill="none" width="130" height="130"/>
<g>
	<g>
		<path fill="#7C6A51" d="M21.422,100.358C4.364,87.502,0.964,53.295,1,47.092c0.074-11.874,3.527-19.804,10.266-23.579
			c11.371-6.361,26.606,2.455,28.306,3.484l-4.89,8.096l2.445-4.048l-2.438,4.05c-3.106-1.858-13.221-6.47-18.813-3.323
			c-4.413,2.483-5.38,9.732-5.416,15.378c-0.041,6.976,4.018,36.129,16.654,45.651L21.422,100.358z"/>
	</g>
	<g>
		<path fill="#7C6A51" d="M108.578,100.358l-5.691-7.556c12.637-9.522,16.695-38.676,16.654-45.654
			c-0.037-5.643-1.004-12.892-5.416-15.375c-5.588-3.147-15.707,1.465-18.814,3.323l-4.883-8.099
			c1.695-1.029,16.93-9.855,28.305-3.484c6.74,3.775,10.193,11.705,10.268,23.576C129.035,53.295,125.635,87.502,108.578,100.358z"
			/>
	</g>
	<g>
		<path fill="#5B6D71" d="M77.242,19.218C73.596,11.42,69.668,7.298,65.884,7.298c-0.01,0-0.021,0-0.028,0
			c-5.523,0.031-10.625,8.599-12.126,11.899l-3.446-1.562c0.26-0.574,6.475-14.063,15.544-14.12c0.021,0,0.038,0,0.056,0
			c5.436,0,10.409,4.742,14.784,14.1L77.242,19.218z"/>
	</g>
	<path fill="#F15A22" d="M81.354,105.851c0,5.355,4.391,9.735,9.756,9.735h20.861c5.365,0,9.486-1.537,9.152-6.876l-4.674-31.818
		c-0.328-5.345-4.984-9.72-10.352-9.72H91.109c-5.365,0-9.756,4.385-9.756,9.74V105.851z"/>
	<path fill="#F15A22" d="M48.314,108.689c0,5.354-4.39,9.734-9.75,9.734H17.701c-5.368,0-9.487-4.375-9.158-9.714l4.681-28.98
		c0.327-5.345,4.985-9.719,10.35-9.719h14.99c5.36,0,9.75,4.385,9.75,9.739V108.689z"/>
	<path fill="#4BA7C4" d="M112.182,83.032l-2.705-22.981c-3.916-29.888-14.191-43.452-34.957-43.452h-9.322h-9.318
		c-20.771,0-31.042,13.563-34.96,43.452l-2.7,22.981c-2.81,23.896-1.455,43.452,31.675,43.452h15.304h15.306
		C113.635,126.484,114.984,106.928,112.182,83.032z"/>
	<path fill="#3594AA" d="M112.182,83.032l-2.705-22.981c-3.916-29.888-14.191-43.452-34.957-43.452h-9.322v109.885h15.306
		C113.635,126.484,114.984,106.928,112.182,83.032z"/>
	<g>
		<path fill="#258DA5" d="M104.777,92.094l-2.273-15.672c-3.299-20.388-11.961-29.638-29.453-29.638h-7.853h-7.851
			c-17.492,0-26.157,9.25-29.455,29.638l-2.271,15.672c-2.364,16.305-1.225,29.638,26.68,29.638h12.897h12.894
			C106.002,121.731,107.145,108.398,104.777,92.094z"/>
		<path fill="#197D8E" d="M104.777,92.094l-2.273-15.672c-3.299-20.388-11.961-29.638-29.453-29.638h-7.853v74.948h12.894
			C106.002,121.731,107.145,108.398,104.777,92.094z"/>
	</g>
</g>
</svg>
