<?xml version="1.0" encoding="utf-8"?>
<!-- Generator: Adobe Illustrator 16.0.0, SVG Export Plug-In . SVG Version: 6.00 Build 0)  -->
<!DOCTYPE svg PUBLIC "-//W3C//DTD SVG 1.1//EN" "http://www.w3.org/Graphics/SVG/1.1/DTD/svg11.dtd">
<svg version="1.1" id="Layer_1" xmlns="http://www.w3.org/2000/svg" xmlns:xlink="http://www.w3.org/1999/xlink" x="0px" y="0px"
	 width="130px" height="130px" viewBox="0 0 130 130" enable-background="new 0 0 130 130" xml:space="preserve">
<rect fill="none" width="130" height="130"/>
<g>
	<g>
		<polygon fill="#FDB813" points="103.782,25.954 26.213,25.954 22.912,129 107.088,129 		"/>
	</g>
	<g>
		<g>
			<path fill="#D1C9B4" d="M65,1c12.224,0,22.175,9.908,22.175,22.098c0,1.754-0.236,3.567-0.69,5.384
				c-0.237,0.952-1.204,1.522-2.156,1.286c-0.947-0.242-1.518-1.203-1.285-2.155c0.387-1.527,0.585-3.05,0.585-4.515
				c0-10.232-8.357-18.555-18.628-18.555s-18.622,8.323-18.622,18.555c0,1.465,0.193,2.987,0.58,4.515
				c0.241,0.952-0.334,1.914-1.286,2.155c-0.952,0.232-1.919-0.333-2.155-1.286c-0.455-1.817-0.687-3.63-0.687-5.384
				C42.83,10.908,52.776,1,65,1z"/>
		</g>
		<path fill="#BC7708" d="M49.239,33.233c0,1.711-1.393,3.103-3.108,3.103c-1.711,0-3.098-1.392-3.098-3.103
			c0-1.716,1.387-3.103,3.098-3.103C47.847,30.13,49.239,31.518,49.239,33.233z"/>
		<path fill="#BC7708" d="M86.648,33.233c0,1.711-1.393,3.103-3.104,3.103c-1.716,0-3.103-1.392-3.103-3.103
			c0-1.716,1.387-3.103,3.103-3.103C85.256,30.13,86.648,31.518,86.648,33.233z"/>
		<g>
			<path fill="#D1C9B4" d="M65.005,6.887c11.668,0,21.165,9.464,21.165,21.098c0,1.677-0.223,3.407-0.657,5.143
				c-0.228,0.909-1.15,1.455-2.055,1.228c-0.908-0.227-1.454-1.15-1.232-2.054c0.372-1.464,0.556-2.919,0.556-4.316
				c0-9.768-7.975-17.709-17.776-17.709c-9.807,0-17.781,7.941-17.781,17.709c0,1.396,0.184,2.852,0.551,4.316
				c0.232,0.904-0.319,1.827-1.228,2.054c-0.904,0.222-1.827-0.319-2.055-1.228c-0.439-1.735-0.662-3.465-0.662-5.143
				C43.83,16.351,53.328,6.887,65.005,6.887z"/>
		</g>
	</g>
</g>
</svg>
