<?xml version="1.0" encoding="utf-8"?>
<!-- Generator: Adobe Illustrator 16.0.0, SVG Export Plug-In . SVG Version: 6.00 Build 0)  -->
<!DOCTYPE svg PUBLIC "-//W3C//DTD SVG 1.1//EN" "http://www.w3.org/Graphics/SVG/1.1/DTD/svg11.dtd">
<svg version="1.1" id="Layer_1" xmlns="http://www.w3.org/2000/svg" xmlns:xlink="http://www.w3.org/1999/xlink" x="0px" y="0px"
	 width="130px" height="130px" viewBox="0 0 130 130" enable-background="new 0 0 130 130" xml:space="preserve">
<rect fill="none" width="130" height="130"/>
<g>
	<g>
		<rect x="14.407" y="1" fill="#BC7708" width="101.396" height="45.663"/>
		<polygon fill="#FDB813" points="24.944,7.428 14.343,1.123 14.343,17.948 22.001,14.164 		"/>
		<polygon fill="#C98A11" points="10.732,20.463 24.944,7.428 24.944,28.887 		"/>
		<polygon fill="#FDB813" points="105.132,7.428 115.738,1.123 115.738,17.948 108.08,14.164 		"/>
		<polygon fill="#C98A11" points="119.269,20.463 105.132,7.428 105.132,28.887 		"/>
		<g>
			<polygon fill="#FDB813" points="10.732,20.463 8.211,128.989 121.789,129 119.269,20.463 			"/>
		</g>
	</g>
	<g>
		<path fill="#BC7708" d="M42.087,36.953c0,2.817-2.28,5.092-5.098,5.092c-2.812,0-5.092-2.275-5.092-5.092
			c0-2.812,2.281-5.092,5.092-5.092C39.807,31.861,42.087,34.142,42.087,36.953z"/>
		<path fill="#BC7708" d="M98.1,36.953c0,2.817-2.28,5.092-5.098,5.092c-2.812,0-5.093-2.275-5.093-5.092
			c0-2.812,2.281-5.092,5.093-5.092C95.819,31.861,98.1,34.142,98.1,36.953z"/>
		<g>
			<path fill="#FFFFFF" d="M64.994,75.372c-17.395,0-31.551-14.109-31.551-31.448c0-2.499,0.333-5.076,0.981-7.664
				c0.341-1.353,1.713-2.169,3.063-1.833c1.353,0.347,2.171,1.716,1.836,3.069c-0.553,2.18-0.833,4.343-0.833,6.428
				c0,14.562,11.889,26.4,26.503,26.4c14.612,0,26.501-11.839,26.501-26.4c0-2.085-0.276-4.248-0.827-6.428
				c-0.344-1.353,0.479-2.722,1.831-3.069c1.355-0.33,2.728,0.486,3.063,1.833c0.653,2.588,0.983,5.165,0.983,7.664
				C96.546,61.263,82.393,75.372,64.994,75.372z"/>
		</g>
	</g>
</g>
</svg>
