<?xml version="1.0" encoding="utf-8"?>
<!-- Generator: Adobe Illustrator 16.0.0, SVG Export Plug-In . SVG Version: 6.00 Build 0)  -->
<!DOCTYPE svg PUBLIC "-//W3C//DTD SVG 1.1//EN" "http://www.w3.org/Graphics/SVG/1.1/DTD/svg11.dtd">
<svg version="1.1" id="Layer_1" xmlns="http://www.w3.org/2000/svg" xmlns:xlink="http://www.w3.org/1999/xlink" x="0px" y="0px"
	 width="130px" height="130px" viewBox="0 0 130 130" enable-background="new 0 0 130 130" xml:space="preserve">
<rect fill="none" width="130" height="130"/>
<g>
	<path fill="#FDB813" d="M65,40.51c13.505,0,24.49,10.985,24.49,24.49c0,13.505-10.985,24.49-24.49,24.49
		c-13.504,0-24.49-10.985-24.49-24.49C40.51,51.496,51.496,40.51,65,40.51 M65,1C29.657,1,1,29.651,1,65c0,35.343,28.657,64,64,64
		c35.343,0,64-28.657,64-64C129,29.651,100.343,1,65,1L65,1z"/>
	<path fill="#C98A11" d="M114.255,80.902c0,1.367-1.107,2.475-2.469,2.475c-1.367,0-2.475-1.107-2.475-2.475
		c0-1.361,1.107-2.47,2.475-2.47C113.147,78.433,114.255,79.541,114.255,80.902z"/>
	<path fill="#C98A11" d="M68.975,105.602c0,1.367-1.108,2.475-2.47,2.475c-1.367,0-2.475-1.107-2.475-2.475
		c0-1.361,1.107-2.47,2.475-2.47C67.866,103.132,68.975,104.24,68.975,105.602z"/>
	<path fill="#C98A11" d="M73.626,119.084c0,1.367-1.107,2.475-2.469,2.475c-1.367,0-2.476-1.107-2.476-2.475
		c0-1.361,1.108-2.47,2.476-2.47C72.519,116.614,73.626,117.723,73.626,119.084z"/>
	<path fill="#C98A11" d="M19.856,60.816c0,1.367-1.102,2.475-2.469,2.475s-2.469-1.108-2.469-2.475c0-1.361,1.102-2.469,2.469-2.469
		S19.856,59.455,19.856,60.816z"/>
	<path fill="#C98A11" d="M28.334,26.917c0,1.367-1.103,2.469-2.469,2.469c-1.367,0-2.469-1.102-2.469-2.469s1.102-2.469,2.469-2.469
		C27.231,24.448,28.334,25.55,28.334,26.917z"/>
	<path fill="#C98A11" d="M32.749,37.269c0,1.367-1.108,2.475-2.469,2.475c-1.367,0-2.475-1.108-2.475-2.475
		c0-1.361,1.108-2.469,2.475-2.469C31.641,34.8,32.749,35.908,32.749,37.269z"/>
	<path fill="#C98A11" d="M13.402,75.55c0,1.367-1.108,2.476-2.469,2.476c-1.367,0-2.475-1.108-2.475-2.476
		c0-1.361,1.108-2.469,2.475-2.469C12.294,73.081,13.402,74.188,13.402,75.55z"/>
	<path fill="#C98A11" d="M33.984,60.734c0,1.367-1.108,2.469-2.469,2.469c-1.367,0-2.475-1.103-2.475-2.469
		c0-1.367,1.108-2.47,2.475-2.47C32.876,58.264,33.984,59.367,33.984,60.734z"/>
	<path fill="#C98A11" d="M17.927,48.387c0,1.367-1.102,2.469-2.469,2.469s-2.469-1.102-2.469-2.469c0-1.367,1.102-2.469,2.469-2.469
		S17.927,47.02,17.927,48.387z"/>
	<path fill="#C98A11" d="M108.49,95.311c0,1.367-1.108,2.475-2.47,2.475c-1.367,0-2.475-1.107-2.475-2.475
		c0-1.361,1.107-2.47,2.475-2.47C107.382,92.841,108.49,93.949,108.49,95.311z"/>
	<path fill="#C98A11" d="M111.373,71.02c0,1.366-1.103,2.475-2.47,2.475s-2.47-1.108-2.47-2.475c0-1.362,1.103-2.47,2.47-2.47
		S111.373,69.657,111.373,71.02z"/>
	<path fill="#C98A11" d="M37.688,76.371c0,1.367-1.103,2.475-2.469,2.475c-1.367,0-2.47-1.107-2.47-2.475
		c0-1.361,1.103-2.469,2.47-2.469C36.585,73.902,37.688,75.01,37.688,76.371z"/>
	<path fill="#C98A11" d="M18.754,40.152c0,1.367-1.108,2.469-2.47,2.469c-1.367,0-2.475-1.102-2.475-2.469s1.108-2.469,2.475-2.469
		C17.646,37.683,18.754,38.785,18.754,40.152z"/>
	<path fill="#C98A11" d="M47.753,103.286c0,1.367-1.108,2.47-2.469,2.47c-1.367,0-2.475-1.103-2.475-2.47
		c0-1.366,1.108-2.469,2.475-2.469C46.645,100.817,47.753,101.92,47.753,103.286z"/>
	<path fill="#C98A11" d="M60.326,115.887c0,1.367-1.103,2.475-2.47,2.475s-2.47-1.107-2.47-2.475c0-1.361,1.103-2.469,2.47-2.469
		S60.326,114.525,60.326,115.887z"/>
	<path fill="#C98A11" d="M32.308,102.664c0,1.366-1.102,2.475-2.469,2.475s-2.469-1.108-2.469-2.475c0-1.362,1.102-2.47,2.469-2.47
		S32.308,101.302,32.308,102.664z"/>
	<path fill="#C98A11" d="M29.866,85.841c0,1.367-1.108,2.47-2.469,2.47c-1.367,0-2.475-1.103-2.475-2.47s1.108-2.47,2.475-2.47
		C28.758,83.371,29.866,84.474,29.866,85.841z"/>
	<path fill="#C98A11" d="M19.024,85.78c0,1.367-1.108,2.47-2.47,2.47c-1.367,0-2.475-1.103-2.475-2.47s1.108-2.47,2.475-2.47
		C17.917,83.311,19.024,84.413,19.024,85.78z"/>
	<path fill="#C98A11" d="M83.156,96.573c0,1.366-1.103,2.475-2.469,2.475c-1.367,0-2.47-1.108-2.47-2.475
		c0-1.362,1.103-2.47,2.47-2.47C82.054,94.104,83.156,95.211,83.156,96.573z"/>
	<path fill="#C98A11" d="M11.754,60.734c0,1.367-1.108,2.469-2.469,2.469c-1.367,0-2.475-1.103-2.475-2.469
		c0-1.367,1.108-2.47,2.475-2.47C10.646,58.264,11.754,59.367,11.754,60.734z"/>
	<path fill="#C98A11" d="M25.749,71.846c0,1.367-1.103,2.476-2.469,2.476c-1.367,0-2.47-1.108-2.47-2.476
		c0-1.361,1.103-2.469,2.47-2.469C24.646,69.377,25.749,70.484,25.749,71.846z"/>
	<path fill="#C98A11" d="M31.515,52.499c0,1.367-1.103,2.475-2.47,2.475c-1.367,0-2.469-1.108-2.469-2.475
		c0-1.361,1.103-2.469,2.469-2.469C30.412,50.029,31.515,51.137,31.515,52.499z"/>
	<path fill="#C98A11" d="M94.814,111.935c0,1.367-1.107,2.47-2.47,2.47c-1.366,0-2.475-1.103-2.475-2.47s1.108-2.469,2.475-2.469
		C93.707,109.466,94.814,110.567,94.814,111.935z"/>
	<path fill="#C98A11" d="M101.082,43.442c0,1.367-1.108,2.475-2.47,2.475c-1.367,0-2.475-1.108-2.475-2.475
		c0-1.361,1.107-2.469,2.475-2.469C99.974,40.973,101.082,42.081,101.082,43.442z"/>
	<path fill="#C98A11" d="M88.763,14.808c0,1.367-1.108,2.475-2.47,2.475c-1.367,0-2.475-1.108-2.475-2.475
		c0-1.361,1.107-2.469,2.475-2.469C87.654,12.338,88.763,13.446,88.763,14.808z"/>
	<path fill="#C98A11" d="M97.378,85.433c0,1.367-1.108,2.47-2.47,2.47c-1.367,0-2.475-1.103-2.475-2.47
		c0-1.366,1.107-2.469,2.475-2.469C96.27,82.964,97.378,84.066,97.378,85.433z"/>
	<path fill="#C98A11" d="M38.449,96.264c-0.039,1.367-1.174,2.437-2.541,2.398c-1.367-0.039-2.437-1.174-2.398-2.541
		c0.039-1.361,1.174-2.437,2.536-2.398C37.412,93.762,38.487,94.897,38.449,96.264z"/>
	<path fill="#C98A11" d="M62.388,32.33c0,1.367-1.103,2.475-2.47,2.475s-2.47-1.108-2.47-2.475c0-1.361,1.103-2.469,2.47-2.469
		S62.388,30.969,62.388,32.33z"/>
	<path fill="#C98A11" d="M49.213,116.306c0,1.367-1.108,2.47-2.469,2.47c-1.367,0-2.475-1.103-2.475-2.47s1.108-2.469,2.475-2.469
		C48.105,113.837,49.213,114.938,49.213,116.306z"/>
	<path fill="#C98A11" d="M59.097,97.372c0,1.367-1.108,2.47-2.47,2.47c-1.366,0-2.475-1.103-2.475-2.47s1.108-2.47,2.475-2.47
		C57.988,94.902,59.097,96.005,59.097,97.372z"/>
	<path fill="#C98A11" d="M43.867,40.973c0,1.367-1.108,2.469-2.469,2.469c-1.367,0-2.475-1.102-2.475-2.469s1.108-2.469,2.475-2.469
		C42.759,38.504,43.867,39.606,43.867,40.973z"/>
	<path fill="#C98A11" d="M97.791,102.311c0,1.367-1.108,2.47-2.47,2.47c-1.366,0-2.475-1.103-2.475-2.47s1.108-2.469,2.475-2.469
		C96.683,99.842,97.791,100.943,97.791,102.311z"/>
	<path fill="#C98A11" d="M82.969,108.484c0,1.367-1.107,2.47-2.469,2.47c-1.367,0-2.476-1.103-2.476-2.47s1.108-2.47,2.476-2.47
		C81.861,106.015,82.969,107.117,82.969,108.484z"/>
	<path fill="#C98A11" d="M97.785,73.081c0,1.366-1.103,2.475-2.469,2.475c-1.367,0-2.47-1.108-2.47-2.475
		c0-1.362,1.103-2.47,2.47-2.47C96.683,70.611,97.785,71.719,97.785,73.081z"/>
	<path fill="#C98A11" d="M111.373,50.443c0,1.367-1.108,2.469-2.47,2.469c-1.367,0-2.475-1.103-2.475-2.469
		c0-1.367,1.107-2.469,2.475-2.469C110.265,47.974,111.373,49.076,111.373,50.443z"/>
	<path fill="#C98A11" d="M124.133,70.203c0,1.367-1.107,2.47-2.47,2.47c-1.366,0-2.475-1.103-2.475-2.47s1.108-2.469,2.475-2.469
		C123.025,67.734,124.133,68.836,124.133,70.203z"/>
	<path fill="#C98A11" d="M120.429,90.785c0,1.367-1.107,2.47-2.47,2.47c-1.366,0-2.475-1.103-2.475-2.47s1.108-2.47,2.475-2.47
		C119.321,88.315,120.429,89.418,120.429,90.785z"/>
	<path fill="#C98A11" d="M107.315,104.979c0,1.367-1.107,2.475-2.469,2.475c-1.367,0-2.476-1.107-2.476-2.475
		c0-1.361,1.108-2.47,2.476-2.47C106.208,102.509,107.315,103.617,107.315,104.979z"/>
	<path fill="#C98A11" d="M37.699,110.348c0,1.366-1.108,2.475-2.47,2.475c-1.367,0-2.475-1.108-2.475-2.475
		c0-1.361,1.108-2.47,2.475-2.47C36.591,107.878,37.699,108.986,37.699,110.348z"/>
	<path fill="#C98A11" d="M59.091,19.983c0,1.367-1.103,2.469-2.469,2.469c-1.367,0-2.47-1.102-2.47-2.469s1.103-2.469,2.47-2.469
		C57.988,17.514,59.091,18.616,59.091,19.983z"/>
	<path fill="#C98A11" d="M22.425,99.224c0,1.367-1.103,2.476-2.469,2.476c-1.367,0-2.47-1.108-2.47-2.476
		c0-1.361,1.103-2.469,2.47-2.469C21.323,96.755,22.425,97.862,22.425,99.224z"/>
	<path fill="#C98A11" d="M46.744,28.626c0,1.367-1.108,2.47-2.469,2.47c-1.367,0-2.475-1.103-2.475-2.47
		c0-1.367,1.108-2.469,2.475-2.469C45.636,26.157,46.744,27.259,46.744,28.626z"/>
	<path fill="#C98A11" d="M37.539,18.512c0,1.367-1.103,2.475-2.469,2.475c-1.367,0-2.469-1.107-2.469-2.475
		c0-1.361,1.102-2.469,2.469-2.469C36.437,16.042,37.539,17.15,37.539,18.512z"/>
	<path fill="#C98A11" d="M58,10.497c0,1.367-1.108,2.47-2.47,2.47c-1.367,0-2.475-1.103-2.475-2.47c0-1.367,1.107-2.469,2.475-2.469
		C56.892,8.028,58,9.13,58,10.497z"/>
	<path fill="#C98A11" d="M71.03,15.453c0,1.367-1.103,2.475-2.47,2.475s-2.469-1.108-2.469-2.475c0-1.362,1.102-2.47,2.469-2.47
		S71.03,14.091,71.03,15.453z"/>
	<path fill="#C98A11" d="M82.969,26.157c0,1.367-1.102,2.469-2.469,2.469s-2.47-1.102-2.47-2.469c0-1.367,1.103-2.469,2.47-2.469
		S82.969,24.79,82.969,26.157z"/>
	<path fill="#C98A11" d="M99.847,26.978c0,1.367-1.107,2.475-2.469,2.475c-1.367,0-2.476-1.108-2.476-2.475
		c0-1.361,1.108-2.469,2.476-2.469C98.739,24.509,99.847,25.617,99.847,26.978z"/>
	<path fill="#C98A11" d="M80.819,37.649c0,1.367-1.103,2.475-2.47,2.475c-1.366,0-2.469-1.108-2.469-2.475
		c0-1.361,1.103-2.469,2.469-2.469C79.717,35.18,80.819,36.288,80.819,37.649z"/>
	<path fill="#C98A11" d="M112.194,37.269c0,1.367-1.103,2.469-2.47,2.469s-2.47-1.102-2.47-2.469s1.103-2.469,2.47-2.469
		S112.194,35.902,112.194,37.269z"/>
	<path fill="#C98A11" d="M98.612,57.438c0,1.367-1.103,2.475-2.47,2.475c-1.366,0-2.469-1.108-2.469-2.475
		c0-1.361,1.103-2.469,2.469-2.469C97.51,54.968,98.612,56.076,98.612,57.438z"/>
	<path fill="#C98A11" d="M122.898,55.795c0,1.367-1.103,2.469-2.47,2.469s-2.47-1.102-2.47-2.469s1.103-2.469,2.47-2.469
		S122.898,54.428,122.898,55.795z"/>
</g>
</svg>
