<?xml version="1.0" encoding="utf-8"?>
<!-- Generator: Adobe Illustrator 16.0.0, SVG Export Plug-In . SVG Version: 6.00 Build 0)  -->
<!DOCTYPE svg PUBLIC "-//W3C//DTD SVG 1.1//EN" "http://www.w3.org/Graphics/SVG/1.1/DTD/svg11.dtd">
<svg version="1.1" id="Layer_1" xmlns="http://www.w3.org/2000/svg" xmlns:xlink="http://www.w3.org/1999/xlink" x="0px" y="0px"
	 width="130px" height="130px" viewBox="0 0 130 130" enable-background="new 0 0 130 130" xml:space="preserve">
<rect fill="none" width="130" height="130"/>
<g>
	<path fill="#F15A22" d="M53.487,127.939c-12.027-2.219-23.352-7.713-32.78-16.886l-2.587-2.632
		C9.927,99.603,4.798,89.296,2.514,78.208l-0.71-3.81c-2.943-19.396,3.053-39.701,17.976-54.626
		c5.032-5.049,10.298-8.908,16.343-11.914l2.896-1.343c11.62-5.181,24.456-6.717,36.793-4.586l1.892,0.363
		c11.603,2.356,22.675,7.978,31.78,16.885l2.42,2.406c18.446,19.875,21.835,48.24,10.475,71.732l-1.592,3.033
		c-0.696,1.542-6.331,9.701-10.534,13.901c-4.771,4.773-10.007,8.583-15.707,11.518l-3.031,1.481
		c-11.383,5.208-23.96,6.876-36.103,5.015L53.487,127.939z"/>
	<path fill="#762317" d="M88.571,38.932c16.85,8.44,35.034,29.708,36.039,49.197c0.313-0.82,0.605-1.641,0.884-2.472
		c-1.61-19.699-19.259-39.745-36.21-48.234c-27.25-13.648-65.023-20.277-83.979,4.553c-0.377,0.969-0.719,1.938-1.038,2.923
		l0.653,0.452C22.634,18.556,61.054,25.151,88.571,38.932z"/>
	<path fill="#762317" d="M63.548,128.969c-8.958-4.427-17.222-12.217-22.934-21.697c-6.554-10.885-10.513-23.987-11.449-37.878
		C27.005,37.032,41.903,8.343,64.172,1.004c-1.709,0.022-3.418,0.116-5.122,0.281C41.526,9.67,25.48,38.662,27.539,69.504
		c0.958,14.171,5.004,27.538,11.697,38.654c5.191,8.616,12.442,15.883,20.441,20.607C60.966,128.881,62.259,128.947,63.548,128.969z
		"/>
	<path fill="#762317" d="M102.324,116.994C67.201,78.307,53.335,49.381,61.153,30.998c6.657-15.663,27.894-19.269,37.895-20.089
		c-0.81-0.518-1.632-1.019-2.464-1.503c-10.978,1.156-30.315,5.401-36.917,20.916c-8.087,19.016,5.816,48.499,41.3,87.631
		C101.427,117.639,101.878,117.319,102.324,116.994z"/>
	<path fill="#762317" d="M4.377,85.194C6.263,47.168,16.792,26.06,23.333,16.453c-1.195,1.046-2.381,2.147-3.554,3.32
		c-0.504,0.506-0.997,1.024-1.487,1.547C12.234,32.204,5.08,50.917,3.031,80.481C3.417,82.073,3.868,83.642,4.377,85.194z"/>
</g>
</svg>
