<?xml version="1.0" encoding="utf-8"?>
<!-- Generator: Adobe Illustrator 16.0.0, SVG Export Plug-In . SVG Version: 6.00 Build 0)  -->
<!DOCTYPE svg PUBLIC "-//W3C//DTD SVG 1.1//EN" "http://www.w3.org/Graphics/SVG/1.1/DTD/svg11.dtd">
<svg version="1.1" id="Layer_1" xmlns="http://www.w3.org/2000/svg" xmlns:xlink="http://www.w3.org/1999/xlink" x="0px" y="0px"
	 width="130px" height="130px" viewBox="0 0 130 130" enable-background="new 0 0 130 130" xml:space="preserve">
<rect fill="none" width="130" height="130"/>
<g>
	<g>
		
			<linearGradient id="SVGID_1_" gradientUnits="userSpaceOnUse" x1="374.1533" y1="-558.0015" x2="318.3756" y2="-480.3391" gradientTransform="matrix(0.6008 0.3647 0.4315 -0.5561 80.987 -350.0305)">
			<stop  offset="0" style="stop-color:#6B3A24"/>
			<stop  offset="1" style="stop-color:#995625"/>
		</linearGradient>
		<path fill="url(#SVGID_1_)" d="M2.968,65.438c0,0,16.402-28.812,56.654-31.999c0,0,44.882-4.057,69.378,27.842
			c0,0-18.21,34.777-64.569,35.442c0,0-39.449,1.062-63.431-28.026L2.968,65.438z"/>
		<path fill="#FFF6E4" d="M23.46,86.656c2.552,1.327,5.101,2.47,7.621,3.472c1.263-1.487,14.807-18.425,2.406-50.199
			c-3.851,1.708-7.276,3.628-10.347,5.628C24.687,51.744,28.187,69.362,23.46,86.656z"/>
		<path fill="#FFF6E4" d="M100.882,87.699c4.361-2.313,8.174-4.888,11.457-7.505c2.676-7.509,6.545-23.151-1.813-35.19
			c-3.241-1.924-6.549-3.524-9.849-4.879C101.179,41.433,108.89,62.399,100.882,87.699z"/>
		<path fill="#651E0D" d="M127.256,59.14c-0.312-0.369-0.621-0.741-0.943-1.106c-19.104-9.204-38.388-13.911-57.336-13.911
			C36.064,44.135,12.969,57.809,3.447,64.665c-0.289,0.452-0.479,0.773-0.479,0.773l-0.363,0.597
			c8.625-6.458,32.191-21.299,66.371-21.307C88.231,44.728,107.837,49.587,127.256,59.14z"/>
		<path fill="#A36445" d="M2.503,66.195v0.012c8.627-6.462,32.231-21.335,66.473-21.347c19.31,0,38.963,4.879,58.434,14.468
			c-0.148-0.176-0.292-0.361-0.442-0.537C107.645,49.362,88.14,44.56,68.977,44.56C34.648,44.572,10.978,59.485,2.503,66.195z"/>
		<path fill="#A36445" d="M126.224,65.634c0.309-0.437,0.594-0.846,0.851-1.227L127,64.307
			c-8.487,6.426-31.905,21.359-65.902,21.367c-19.139,0-38.622-4.874-57.919-14.468c0.377,0.413,0.77,0.81,1.157,1.211
			c18.916,9.172,38,13.862,56.762,13.862C93.906,86.268,116.871,72.457,126.224,65.634z"/>
		<path fill="#651E0D" d="M127.092,64.147c-8.499,6.43-31.949,21.387-65.994,21.395c-19.195,0-38.736-4.895-58.089-14.532
			c0.183,0.196,0.355,0.393,0.535,0.585c19.175,9.438,38.534,14.248,57.554,14.248C95.231,85.839,118.751,70.837,127.092,64.147z"/>
		<path fill="#592E28" d="M99.14,47.907c-0.331-1.194-1.55-2.417-2.706-2.734c-1.076-0.312-2.141-0.565-3.209-0.834l-0.515-1.832
			c-0.243-0.858-1.041-1.551-1.778-1.551h-0.272c-0.738,0-1.173,0.693-0.965,1.551l0.259,1.075c-0.984-0.208-1.968-0.417-2.94-0.589
			l-0.252-1.227c-0.177-0.854-0.916-1.547-1.654-1.547h-0.265c-0.731,0-1.213,0.694-1.07,1.547l0.129,0.766
			c-0.952-0.137-1.898-0.261-2.829-0.361l-0.152-1.143c-0.112-0.854-0.798-1.552-1.515-1.552h-0.272
			c-0.722,0-1.249,0.698-1.165,1.552l0.074,0.858c-0.94-0.072-1.856-0.112-2.767-0.161l-0.08-1.379
			c-0.046-0.858-0.671-1.556-1.391-1.556h-0.265c-0.72,0-1.287,0.698-1.279,1.556l0.024,1.279c-0.93-0.016-1.851-0.024-2.75-0.016
			l0.02-1.207c0.015-0.858-0.559-1.556-1.274-1.556h-0.269c-0.714,0-1.341,0.698-1.389,1.556l-0.07,1.283
			c-0.95,0.04-1.868,0.084-2.771,0.145l0.076-0.802c0.08-0.854-0.447-1.552-1.169-1.552h-0.271c-0.724,0-1.405,0.698-1.517,1.552
			l-0.137,1.034c-0.966,0.092-1.918,0.192-2.816,0.297l0.101-0.594c0.142-0.854-0.341-1.547-1.07-1.547h-0.267
			c-0.736,0-1.474,0.694-1.654,1.547l-0.208,1.019c-1.05,0.16-2.011,0.325-2.909,0.489l0.185-0.766
			c0.205-0.858-0.227-1.551-0.964-1.551h-0.272c-0.742,0-1.535,0.693-1.778,1.551l-0.397,1.416
			c-2.024,0.449-3.303,0.806-3.542,0.866c-1.158,0.276-2.363,1.359-2.672,2.409c-0.247,0.886,0.247,1.476,1.137,1.491
			c0.176,0,0.371-0.02,0.569-0.064c0.06-0.012,1.303-0.329,3.397-0.733l-0.275,0.966c-0.24,0.858,0.241,1.552,1.071,1.552h0.307
			c0.832,0,1.678-0.694,1.886-1.552l0.377-1.56c0.936-0.148,1.944-0.3,3.045-0.441l-0.263,1.263
			c-0.174,0.854,0.349,1.551,1.179,1.551h0.301c0.819,0,1.611-0.698,1.758-1.551l0.272-1.644c0.94-0.096,1.938-0.18,2.959-0.26
			l-0.154,1.163c-0.112,0.854,0.467,1.551,1.278,1.551h0.297c0.817,0,1.547-0.698,1.628-1.551l0.128-1.367
			c0.944-0.048,1.92-0.08,2.914-0.108l-0.048,0.85c-0.048,0.854,0.571,1.551,1.385,1.551h0.291c0.815,0,1.487-0.697,1.499-1.551
			l0.022-0.902c0.948,0,1.916,0.008,2.904,0.032l0.014,0.814c0.017,0.854,0.688,1.551,1.498,1.551h0.296
			c0.812,0,1.432-0.697,1.384-1.551l-0.04-0.686c0.97,0.052,1.934,0.104,2.926,0.18l0.11,1.187c0.08,0.854,0.806,1.551,1.624,1.551
			h0.299c0.813,0,1.391-0.698,1.28-1.551l-0.118-0.89c0.986,0.108,1.982,0.245,2.989,0.385l0.206,1.247
			c0.146,0.854,0.934,1.551,1.758,1.551h0.305c0.824,0,1.347-0.698,1.175-1.551l-0.158-0.762c1.026,0.172,2.061,0.381,3.101,0.593
			l0.219,0.906c0.206,0.858,1.048,1.552,1.884,1.552h0.303c0.834,0,1.312-0.694,1.072-1.552l-0.034-0.128
			c1.009,0.249,2.011,0.473,3.027,0.757C98.705,49.799,99.456,49.098,99.14,47.907z"/>
		<g>
			<g>
				<path fill="#FFF6E4" d="M50.814,40.522H50.54c-0.738,0-1.534,0.698-1.774,1.552l-1.782,6.354
					c-0.24,0.854,0.239,1.547,1.07,1.547h0.303c0.836,0,1.678-0.693,1.886-1.547l1.538-6.354
					C51.985,41.22,51.554,40.522,50.814,40.522z"/>
				<path fill="#FFF6E4" d="M90.587,40.522h-0.272c-0.742,0-1.173,0.698-0.965,1.552l1.534,6.354
					c0.208,0.854,1.05,1.547,1.886,1.547h0.303c0.834,0,1.312-0.693,1.07-1.547l-1.78-6.354
					C92.122,41.22,91.324,40.522,90.587,40.522z"/>
				<path fill="#FFF6E4" d="M56.632,39.781h-0.269c-0.732,0-1.472,0.702-1.648,1.556l-1.309,6.35
					c-0.174,0.858,0.349,1.551,1.175,1.551h0.301c0.823,0,1.611-0.693,1.76-1.551l1.062-6.35
					C57.844,40.482,57.363,39.781,56.632,39.781z"/>
				<path fill="#FFF6E4" d="M84.762,39.781h-0.265c-0.731,0-1.213,0.702-1.07,1.556l1.061,6.35c0.145,0.858,0.934,1.551,1.758,1.551
					h0.303c0.824,0,1.347-0.693,1.173-1.551l-1.31-6.35C86.233,40.482,85.495,39.781,84.762,39.781z"/>
				<path fill="#FFF6E4" d="M62.34,39.043h-0.269c-0.722,0-1.405,0.697-1.52,1.551l-0.831,6.35
					c-0.112,0.858,0.463,1.551,1.278,1.551h0.297c0.817,0,1.547-0.693,1.628-1.551l0.589-6.35
					C63.589,39.741,63.062,39.043,62.34,39.043z"/>
				<path fill="#FFF6E4" d="M79.056,39.043h-0.271c-0.719,0-1.248,0.697-1.168,1.551l0.591,6.35c0.08,0.858,0.806,1.551,1.624,1.551
					h0.299c0.81,0,1.391-0.693,1.276-1.551l-0.834-6.35C80.458,39.741,79.774,39.043,79.056,39.043z"/>
				<path fill="#FFF6E4" d="M67.935,38.418h-0.269c-0.714,0-1.341,0.693-1.39,1.547l-0.362,6.358
					c-0.048,0.85,0.571,1.548,1.387,1.548h0.293c0.812,0,1.487-0.698,1.499-1.548l0.116-6.358
					C69.224,39.111,68.65,38.418,67.935,38.418z"/>
				<path fill="#FFF6E4" d="M73.455,38.362h-0.261c-0.72,0-1.291,0.693-1.279,1.547l0.116,6.354c0.019,0.854,0.689,1.552,1.5,1.552
					h0.296c0.809,0,1.428-0.698,1.384-1.552l-0.363-6.354C74.8,39.055,74.175,38.362,73.455,38.362z"/>
			</g>
			<g>
				<path fill="#FFF6E4" d="M43.29,48.256c-0.892-0.016-1.381-0.605-1.135-1.487c0.307-1.059,1.509-2.133,2.67-2.414
					c1.157-0.289,25.065-7.284,51.264,0.389c1.156,0.312,2.373,1.535,2.706,2.73c0.311,1.187-0.435,1.892-1.659,1.58
					c-27.281-7.637-52.986-0.926-53.274-0.858C43.659,48.236,43.468,48.26,43.29,48.256L43.29,48.256z"/>
			</g>
		</g>
	</g>
</g>
</svg>
