<?xml version="1.0" encoding="utf-8"?>
<!-- Generator: Adobe Illustrator 16.0.0, SVG Export Plug-In . SVG Version: 6.00 Build 0)  -->
<!DOCTYPE svg PUBLIC "-//W3C//DTD SVG 1.1//EN" "http://www.w3.org/Graphics/SVG/1.1/DTD/svg11.dtd">
<svg version="1.1" id="Layer_1" xmlns="http://www.w3.org/2000/svg" xmlns:xlink="http://www.w3.org/1999/xlink" x="0px" y="0px"
	 width="130px" height="130px" viewBox="0 0 130 130" enable-background="new 0 0 130 130" xml:space="preserve">
<rect fill="none" width="130" height="130"/>
<g>
	<path fill="#A4C553" d="M90.395,6.26c32.472,14.005,47.438,51.673,33.41,84.109c-14.021,32.437-51.736,47.385-84.199,33.369
		C7.128,109.728-7.835,72.065,6.201,39.634C20.22,7.192,57.923-7.751,90.395,6.26z"/>
	<path fill="#FFF6E4" d="M105.691,114.362c1.994-1.639,3.876-3.416,5.675-5.303c-10.459-11.489,4.391-40.421,14.03-65.149
		c-1.217-3.465-2.709-6.81-4.506-10.026C111.229,62.43,92.552,98.476,105.691,114.362z"/>
	<path fill="#FFF6E4" d="M18.639,20.938c2.886,30.411,49.697,93.303,3.789,91.824c2.971,2.643,6.23,5.016,9.737,7.102
		c40.205-8.967-4.067-72.29-7.221-104.775C22.714,16.872,20.631,18.847,18.639,20.938z"/>
</g>
</svg>
