<?xml version="1.0" encoding="utf-8"?>
<!-- Generator: Adobe Illustrator 16.0.0, SVG Export Plug-In . SVG Version: 6.00 Build 0)  -->
<!DOCTYPE svg PUBLIC "-//W3C//DTD SVG 1.1//EN" "http://www.w3.org/Graphics/SVG/1.1/DTD/svg11.dtd">
<svg version="1.1" id="Layer_1" xmlns="http://www.w3.org/2000/svg" xmlns:xlink="http://www.w3.org/1999/xlink" x="0px" y="0px"
	 width="130px" height="130px" viewBox="0 0 130 130" enable-background="new 0 0 130 130" xml:space="preserve">
<rect fill="none" width="130" height="130"/>
<g>
	<g>
		<path fill="#D1C9B4" d="M128.946,65.003C128.946,29.661,100.317,1,64.998,1S1.054,29.661,1.054,65.003S29.679,129,64.998,129
			S128.946,100.345,128.946,65.003z"/>
		<g>
			<path fill="#EC1C24" d="M52.199,78.805c0.201,0.755-0.761,0.799-1.554,0.617c-0.807-0.183-2.641-1.02-3.32-1.239
				c-0.702-0.227-2.784-1.074-2.63-1.89c0.173-0.81,0.173-0.81,0.173-0.81s2.129,0.529,3.855,0.964
				C50.47,76.871,51.959,77.901,52.199,78.805z"/>
			<path fill="#B01117" d="M37.767,78.634c-0.584-0.484,0.259-0.876,1.027-1.245c0.776-0.374,2.63-0.737,3.34-1.002
				c0.711-0.27,2.734-1.619,3.052-0.837c0.316,0.766-0.012,1.311-0.012,1.311s-1.448,1.179-3.396,1.592
				C39.937,78.843,38.477,79.234,37.767,78.634z"/>
			<path fill="#EC1C24" d="M51.835,85.552c0.163,0.76-0.807,0.748-1.594,0.522c-0.776-0.231-2.553-1.184-3.233-1.448
				c-0.672-0.265-2.707-1.239-2.494-2.043c0.209-0.799,0.209-0.799,0.209-0.799s2.093,0.655,3.803,1.195
				C50.232,83.508,51.651,84.632,51.835,85.552z"/>
			<path fill="#B01117" d="M37.499,84.62c-0.556-0.528,0.306-0.864,1.102-1.184c0.808-0.325,2.669-0.578,3.398-0.799
				c0.727-0.226,2.831-1.448,3.098-0.655c0.271,0.799-0.094,1.306-0.094,1.306s-1.528,1.102-3.483,1.393
				C39.637,84.962,38.169,85.254,37.499,84.62z"/>
			<path fill="#EC1C24" d="M51.257,92.656c0.116,0.766-0.843,0.716-1.61,0.451c-0.776-0.27-2.504-1.305-3.178-1.597
				c-0.658-0.292-2.646-1.366-2.388-2.153c0.231-0.788,0.231-0.788,0.231-0.788s2.07,0.755,3.75,1.366
				C49.742,90.558,51.122,91.73,51.257,92.656z"/>
			<path fill="#B01117" d="M37.653,89.963c-0.443-0.639,0.402-0.805,1.179-0.964c0.788-0.154,2.533-0.027,3.235-0.104
				c0.7-0.072,2.801-0.87,2.944-0.011c0.146,0.848-0.268,1.288-0.268,1.288s-1.547,0.782-3.406,0.678
				C39.581,90.745,38.18,90.739,37.653,89.963z"/>
			<path fill="#EC1C24" d="M50.026,99.358c0.077,0.766-0.826,0.622-1.531,0.275c-0.716-0.341-2.294-1.531-2.902-1.895
				c-0.611-0.353-2.418-1.608-2.153-2.357c0.264-0.754,0.264-0.76,0.264-0.76s1.914,0.947,3.456,1.729
				C48.707,97.128,49.943,98.434,50.026,99.358z"/>
			<path fill="#B01117" d="M37.193,95.267c-0.385-0.683,0.419-0.749,1.157-0.832c0.74-0.077,2.373,0.227,3.034,0.221
				s2.669-0.578,2.765,0.275c0.086,0.864-0.319,1.25-0.319,1.25s-1.476,0.617-3.225,0.325C38.967,96.23,37.653,96.087,37.193,95.267
				z"/>
			<path fill="#EC1C24" d="M48.592,105.351c0.065,0.771-0.838,0.617-1.545,0.281c-0.711-0.336-2.286-1.525-2.897-1.89
				c-0.605-0.357-2.42-1.613-2.15-2.368c0.268-0.754,0.268-0.754,0.268-0.754s1.899,0.947,3.455,1.724
				C47.267,103.12,48.495,104.426,48.592,105.351z"/>
			<path fill="#B01117" d="M35.665,101.265c-0.394-0.678,0.413-0.755,1.154-0.832c0.738-0.077,2.388,0.221,3.048,0.221
				c0.653-0.006,2.66-0.584,2.757,0.28c0.086,0.854-0.316,1.245-0.316,1.245s-1.49,0.622-3.225,0.324
				C37.441,102.233,36.128,102.079,35.665,101.265z"/>
			<path fill="#EC1C24" d="M44.968,110.401c0.035,0.776-0.862,0.572-1.554,0.182c-0.688-0.386-2.184-1.675-2.768-2.071
				c-0.581-0.401-2.312-1.768-1.993-2.506c0.309-0.732,0.309-0.732,0.309-0.732s1.842,1.068,3.335,1.944
				C43.789,108.094,44.94,109.476,44.968,110.401z"/>
			<path fill="#B01117" d="M33.622,104.954c-0.336-0.722,0.328-0.678,0.931-0.649c0.614,0.021,1.967,0.556,2.515,0.649
				c0.545,0.083,2.187-0.198,2.282,0.655c0.097,0.854-0.229,1.173-0.229,1.173s-1.209,0.408-2.641-0.126
				C35.109,106.155,34.016,105.824,33.622,104.954z"/>
			<path fill="#EC1C24" d="M42.22,113.629c0.03,0.716-0.771,0.518-1.402,0.148c-0.628-0.363-1.99-1.575-2.522-1.95
				c-0.531-0.374-2.106-1.657-1.828-2.34c0.27-0.678,0.27-0.678,0.27-0.678s1.675,1.002,3.032,1.84
				C41.132,111.476,42.181,112.764,42.22,113.629z"/>
			<path fill="#B01117" d="M31.95,108.435c-0.306-0.666,0.289-0.622,0.838-0.589c0.545,0.033,1.784,0.528,2.274,0.622
				c0.498,0.083,1.977-0.159,2.07,0.639c0.097,0.794-0.189,1.085-0.189,1.085s-1.088,0.358-2.401-0.153
				C33.316,109.564,32.325,109.25,31.95,108.435z"/>
			<path fill="#EC1C24" d="M37.891,116.729c-0.036,0.572-0.653,0.325-1.102-0.033c-0.452-0.363-1.401-1.481-1.776-1.834
				c-0.383-0.358-1.487-1.559-1.209-2.071c0.259-0.512,0.259-0.512,0.259-0.512s1.209,0.985,2.197,1.795
				C37.237,114.884,37.94,116.03,37.891,116.729z"/>
			<path fill="#B01117" d="M30.243,111.398c-0.182-0.567,0.278-0.469,0.702-0.386c0.41,0.082,1.322,0.616,1.707,0.743
				c0.364,0.127,1.537,0.083,1.545,0.732c0.009,0.645-0.247,0.849-0.247,0.849s-0.865,0.171-1.834-0.38
				C31.196,112.444,30.464,112.087,30.243,111.398z"/>
			<path fill="#EC1C24" d="M35.019,118.464c0.058,0.551-0.523,0.363-0.983,0.05c-0.451-0.303-1.468-1.311-1.856-1.619
				c-0.388-0.313-1.561-1.377-1.396-1.884c0.165-0.512,0.165-0.512,0.165-0.512s1.217,0.854,2.214,1.553
				C34.153,116.757,34.955,117.804,35.019,118.464z"/>
			<path fill="#EC1C24" d="M31.405,119.064c0.085,0.402-0.251,0.286-0.548,0.071c-0.286-0.215-0.95-0.914-1.198-1.134
				c-0.25-0.221-1.019-0.959-0.969-1.339c0.027-0.386,0.027-0.386,0.027-0.386s0.769,0.595,1.401,1.08
				C30.753,117.831,31.309,118.58,31.405,119.064z"/>
			<path fill="#B01117" d="M27.374,113.921c-0.237-0.535,0.182-0.474,0.567-0.419c0.385,0.05,1.277,0.495,1.622,0.589
				c0.354,0.083,1.382-0.032,1.479,0.584c0.104,0.617-0.088,0.832-0.088,0.832s-0.738,0.226-1.681-0.231
				C28.385,114.852,27.683,114.56,27.374,113.921z"/>
			<path fill="#B01117" d="M26.35,115.468c-0.358-0.468-0.077-0.396,0.171-0.336c0.25,0.056,0.949,0.474,1.2,0.567
				c0.239,0.088,0.804,0.039,1.112,0.573c0.298,0.534,0.259,0.705,0.259,0.705s-0.354,0.165-1.093-0.265
				C27.308,116.306,26.771,116.03,26.35,115.468z"/>
			<path fill="#EC1C24" d="M51.307,71.271c0.201,0.754-0.769,0.804-1.556,0.628c-0.796-0.188-2.639-1.02-3.329-1.245
				c-0.691-0.231-2.773-1.074-2.619-1.884c0.165-0.814,0.165-0.814,0.165-0.814s2.129,0.522,3.875,0.958
				C49.58,69.343,51.064,70.373,51.307,71.271z"/>
			<path fill="#B01117" d="M36.874,71.193c-0.584-0.484,0.259-0.876,1.038-1.25c0.766-0.369,2.619-0.738,3.338-1.003
				c0.711-0.275,2.724-1.613,3.04-0.848c0.328,0.782-0.017,1.311-0.017,1.311s-1.451,1.189-3.39,1.597
				C39.041,71.397,37.585,71.794,36.874,71.193z"/>
			<path fill="#EC1C24" d="M50.635,63.433c0.298,0.727-0.664,0.898-1.468,0.815c-0.807-0.083-2.734-0.683-3.453-0.815
				c-0.711-0.132-2.892-0.71-2.842-1.537c0.058-0.826,0.058-0.826,0.058-0.826s2.189,0.248,3.963,0.463
				C48.677,61.748,50.288,62.574,50.635,63.433z"/>
			<path fill="#B01117" d="M36.279,65.146c-0.652-0.418,0.135-0.908,0.854-1.371c0.73-0.468,2.525-1.068,3.187-1.421
				c0.672-0.353,2.503-1.95,2.927-1.211c0.413,0.727,0.144,1.294,0.144,1.294s-1.275,1.355-3.167,2.01
				C38.446,65.08,37.056,65.636,36.279,65.146z"/>
			<path fill="#EC1C24" d="M49.512,55.304c0.347,0.688-0.576,0.936-1.399,0.925c-0.817-0.006-2.773-0.458-3.503-0.529
				c-0.71-0.077-2.946-0.474-2.954-1.294c-0.022-0.826-0.022-0.826-0.022-0.826s2.208,0.072,4.001,0.127
				C47.41,53.768,49.09,54.467,49.512,55.304z"/>
			<path fill="#EC1C24" d="M47.754,48.425c0.433,0.65-0.476,1.002-1.285,1.074c-0.812,0.072-2.82-0.154-3.55-0.154
				c-0.719,0-2.963-0.165-3.07-0.986c-0.094-0.815-0.094-0.815-0.094-0.815s2.187-0.165,3.971-0.287
				C45.51,47.125,47.256,47.643,47.754,48.425z"/>
			<path fill="#EC1C24" d="M45.673,41.602c0.481,0.622-0.402,1.03-1.206,1.162c-0.799,0.126-2.823,0.044-3.542,0.093
				c-0.722,0.055-2.977,0.055-3.137-0.76c-0.165-0.815-0.165-0.815-0.165-0.815s2.179-0.319,3.943-0.562
				C43.352,40.472,45.119,40.858,45.673,41.602z"/>
			<path fill="#EC1C24" d="M43.016,35.35c0.528,0.545-0.278,1.036-1.036,1.25c-0.757,0.22-2.695,0.363-3.387,0.496
				s-2.861,0.391-3.101-0.369c-0.237-0.76-0.237-0.76-0.237-0.76s2.041-0.551,3.721-0.997C40.646,34.524,42.393,34.7,43.016,35.35z"
				/>
			<path fill="#EC1C24" d="M39.091,30.036c0.49,0.396-0.115,0.892-0.729,1.157c-0.604,0.253-2.206,0.578-2.762,0.76
				c-0.567,0.182-2.341,0.617-2.619,0c-0.289-0.606-0.289-0.606-0.289-0.606s1.649-0.666,3.004-1.211
				C37.048,29.589,38.505,29.562,39.091,30.036z"/>
			<path fill="#EC1C24" d="M36.225,25.988c0.448,0.319-0.165,0.787-0.771,1.035c-0.611,0.253-2.194,0.617-2.762,0.804
				c-0.548,0.187-2.313,0.655-2.562,0.138c-0.239-0.518-0.239-0.518-0.239-0.518s1.649-0.667,2.993-1.212
				C34.228,25.701,35.665,25.597,36.225,25.988z"/>
			<path fill="#EC1C24" d="M33.286,22.419c0.394,0.204-0.135,0.617-0.652,0.87c-0.537,0.259-1.9,0.683-2.38,0.875
				c-0.481,0.193-1.988,0.727-2.217,0.347c-0.203-0.375-0.203-0.375-0.203-0.375s1.424-0.672,2.574-1.217
				C31.57,22.375,32.815,22.171,33.286,22.419z"/>
			<path fill="#EC1C24" d="M29.822,19.202c0.413,0.154-0.059,0.623-0.537,0.931c-0.482,0.308-1.746,0.892-2.179,1.14
				c-0.44,0.248-1.842,0.937-2.101,0.595c-0.24-0.336-0.24-0.336-0.24-0.336s1.286-0.826,2.341-1.493S29.332,19.015,29.822,19.202z"
				/>
			<path fill="#B01117" d="M20.839,25.916c-0.085,0.645,0.452,0.215,0.953-0.176c0.51-0.386,1.515-1.531,1.947-1.922
				c0.432-0.385,1.889-1.211,1.745-1.79c-0.135-0.579-0.506-0.567-0.506-0.567s-1.124,0.496-2.189,1.691
				C21.781,24.286,20.958,25.156,20.839,25.916z"/>
			<path fill="#B01117" d="M23.959,28.995c-0.047,0.694,0.479,0.209,0.961-0.226c0.487-0.441,1.41-1.719,1.82-2.154
				c0.413-0.435,1.834-1.388,1.633-2.004c-0.2-0.611-0.566-0.589-0.566-0.589s-1.104,0.583-2.102,1.922
				C24.766,27.205,23.986,28.174,23.959,28.995z"/>
			<path fill="#B01117" d="M26.138,32.767c-0.009,0.777,0.518,0.259,1.005-0.22c0.501-0.479,1.424-1.895,1.845-2.368
				c0.413-0.468,1.87-1.503,1.631-2.208c-0.221-0.699-0.604-0.694-0.604-0.694s-1.153,0.617-2.15,2.093
				C26.922,30.768,26.146,31.831,26.138,32.767z"/>
			<path fill="#B01117" d="M28.315,36.402c-0.085,0.782,0.487,0.297,1.017-0.138c0.528-0.435,1.575-1.763,2.035-2.203
				c0.451-0.44,1.996-1.338,1.822-2.054c-0.173-0.722-0.548-0.744-0.548-0.744s-1.197,0.518-2.318,1.9
				C29.266,34.475,28.401,35.466,28.315,36.402z"/>
			<path fill="#B01117" d="M30.323,41.684c-0.088,0.87,0.545,0.331,1.14-0.154c0.595-0.479,1.766-1.966,2.272-2.457
				c0.521-0.49,2.228-1.498,2.035-2.296c-0.193-0.804-0.611-0.832-0.611-0.832s-1.336,0.578-2.592,2.125
				C31.395,39.536,30.425,40.638,30.323,41.684z"/>
			<path fill="#B01117" d="M32.46,47.213c-0.097,0.92,0.567,0.358,1.201-0.154c0.625-0.506,1.869-2.071,2.398-2.588
				c0.536-0.518,2.352-1.575,2.147-2.412c-0.198-0.848-0.649-0.876-0.649-0.876s-1.402,0.611-2.727,2.236
				C33.595,44.966,32.567,46.123,32.46,47.213z"/>
			<path fill="#B01117" d="M34.256,53.184c-0.163,0.914,0.536,0.386,1.197-0.077c0.664-0.462,2.008-1.928,2.583-2.401
				c0.564-0.479,2.457-1.41,2.321-2.258c-0.143-0.854-0.586-0.92-0.586-0.92s-1.448,0.512-2.878,2.038
				C35.541,51.014,34.438,52.099,34.256,53.184z"/>
			<path fill="#B01117" d="M35.175,58.316c-0.294,0.964,0.51,0.557,1.259,0.199c0.749-0.364,2.36-1.664,3.013-2.065
				c0.661-0.386,2.734-0.975,2.724-1.944c-0.009-0.98-0.469-1.157-0.469-1.157s-1.563,0.231-3.263,1.586
				C36.825,56.224,35.541,57.16,35.175,58.316z"/>
			<path fill="#B01117" d="M18.749,23.68c-0.058,0.562,0.43,0.105,0.9-0.308c0.463-0.413,1.374-1.559,1.768-1.961
				c0.392-0.391,1.735-1.338,1.581-1.806c-0.162-0.474-0.507-0.408-0.507-0.408s-1.046,0.6-2.026,1.795
				C19.564,22.127,18.815,22.997,18.749,23.68z"/>
			<path fill="#B01117" d="M18.077,22.303c0.038,0.457,0.421,0.027,0.769-0.364c0.363-0.391,0.997-1.432,1.294-1.806
				c0.289-0.375,1.363-1.316,1.143-1.674c-0.231-0.369-0.539-0.275-0.539-0.275s-0.852,0.622-1.534,1.724
				C18.567,20.943,18.027,21.736,18.077,22.303z"/>
			<path fill="#EC1C24" d="M26.655,17.457c0.327,0.126-0.058,0.496-0.422,0.749c-0.383,0.237-1.393,0.705-1.745,0.897
				c-0.348,0.193-1.46,0.749-1.652,0.479c-0.21-0.27-0.21-0.27-0.21-0.27s1.024-0.65,1.87-1.179
				C25.33,17.6,26.264,17.313,26.655,17.457z"/>
			<path fill="#EC1C24" d="M23.832,16.377c0.271,0.066,0.012,0.413-0.256,0.661c-0.278,0.248-1.038,0.743-1.305,0.947
				c-0.251,0.204-1.085,0.793-1.267,0.589c-0.193-0.198-0.193-0.198-0.193-0.198s0.758-0.655,1.371-1.189
				C22.809,16.647,23.519,16.3,23.832,16.377z"/>
		</g>
		<g>
			<path fill="#EC1C24" d="M101.656,76.558c-0.16,0.578,0.611,0.722,1.244,0.666c0.642-0.061,2.104-0.551,2.646-0.66
				c0.554-0.116,2.22-0.617,2.096-1.316c-0.135-0.7-0.135-0.7-0.135-0.7s-1.699,0.259-3.081,0.452
				C103.038,75.181,101.849,75.863,101.656,76.558z"/>
			<path fill="#B01117" d="M113.167,77.951c0.468-0.375-0.204-0.799-0.821-1.201c-0.622-0.401-2.095-0.897-2.659-1.184
				c-0.565-0.298-2.179-1.614-2.435-0.986c-0.254,0.611,0.008,1.097,0.008,1.097s1.159,1.14,2.71,1.696
				C111.443,77.901,112.603,78.402,113.167,77.951z"/>
			<path fill="#EC1C24" d="M101.948,81.988c-0.133,0.589,0.649,0.727,1.27,0.66c0.622-0.071,2.037-0.595,2.58-0.716
				c0.537-0.127,2.159-0.661,1.991-1.365c-0.166-0.7-0.166-0.7-0.166-0.7s-1.674,0.275-3.031,0.507
				C103.229,80.572,102.097,81.283,101.948,81.988z"/>
			<path fill="#B01117" d="M113.382,83.266c0.446-0.386-0.24-0.804-0.884-1.189c-0.637-0.396-2.126-0.859-2.707-1.141
				c-0.587-0.291-2.256-1.58-2.465-0.947c-0.221,0.628,0.068,1.102,0.068,1.102s1.218,1.141,2.779,1.664
				C111.672,83.26,112.851,83.729,113.382,83.266z"/>
			<path fill="#EC1C24" d="M102.408,87.782c-0.091,0.595,0.677,0.737,1.291,0.672c0.611-0.072,1.994-0.601,2.522-0.728
				c0.537-0.121,2.109-0.678,1.911-1.382c-0.185-0.705-0.185-0.705-0.185-0.705s-1.652,0.286-2.993,0.507
				C103.622,86.361,102.518,87.071,102.408,87.782z"/>
			<path fill="#B01117" d="M113.255,87.958c0.355-0.49-0.316-0.771-0.939-1.047c-0.622-0.259-2.021-0.445-2.583-0.627
				c-0.556-0.177-2.23-1.195-2.338-0.502c-0.121,0.694,0.21,1.135,0.21,1.135s1.233,0.931,2.715,1.173
				C111.721,88.311,112.834,88.553,113.255,87.958z"/>
			<path fill="#EC1C24" d="M103.391,93.449c-0.058,0.601,0.661,0.683,1.221,0.572c0.572-0.121,1.831-0.749,2.315-0.925
				c0.484-0.165,1.931-0.843,1.719-1.537c-0.213-0.688-0.213-0.693-0.213-0.693s-1.522,0.413-2.756,0.738
				C104.448,91.918,103.457,92.711,103.391,93.449z"/>
			<path fill="#B01117" d="M113.618,92.738c0.319-0.534-0.324-0.749-0.92-0.969c-0.586-0.215-1.892-0.275-2.415-0.413
				c-0.528-0.138-2.131-1.02-2.2-0.314c-0.071,0.711,0.245,1.118,0.245,1.118s1.185,0.832,2.575,0.953
				C112.209,93.218,113.255,93.361,113.618,92.738z"/>
			<path fill="#EC1C24" d="M104.539,98.676c-0.052,0.617,0.667,0.727,1.234,0.639c0.564-0.094,1.817-0.683,2.302-0.832
				c0.484-0.159,1.931-0.776,1.716-1.481c-0.21-0.721-0.21-0.721-0.21-0.721s-1.517,0.363-2.756,0.639
				C105.591,97.184,104.611,97.943,104.539,98.676z"/>
			<path fill="#B01117" d="M114.844,98.406c0.314-0.519-0.333-0.771-0.92-1.009c-0.589-0.247-1.908-0.368-2.432-0.528
				c-0.521-0.148-2.117-1.118-2.194-0.396c-0.071,0.705,0.242,1.135,0.242,1.135s1.189,0.897,2.586,1.074
				C113.423,98.835,114.475,99.022,114.844,98.406z"/>
			<path fill="#EC1C24" d="M107.423,103.869c-0.025,0.634,0.688,0.732,1.241,0.605c0.549-0.126,1.743-0.81,2.206-0.985
				c0.466-0.182,1.848-0.909,1.592-1.636c-0.248-0.727-0.248-0.727-0.248-0.727s-1.471,0.44-2.66,0.793
				C108.361,102.256,107.45,103.099,107.423,103.869z"/>
			<path fill="#B01117" d="M116.474,102.239c0.265-0.573-0.264-0.705-0.74-0.832c-0.493-0.138-1.575-0.005-2.008-0.066
				c-0.432-0.071-1.746-0.743-1.82-0.021c-0.079,0.722,0.18,1.091,0.18,1.091s0.966,0.683,2.109,0.595
				C115.284,102.928,116.154,102.916,116.474,102.239z"/>
			<path fill="#EC1C24" d="M109.617,107.422c-0.027,0.611,0.617,0.688,1.112,0.567c0.501-0.121,1.592-0.755,2.016-0.926
				c0.425-0.171,1.683-0.848,1.463-1.536c-0.218-0.672-0.218-0.672-0.218-0.672s-1.341,0.401-2.418,0.732
				C110.481,105.907,109.65,106.706,109.617,107.422z"/>
			<path fill="#B01117" d="M113.674,105.004c-0.08,0.672,0.154,1.014,0.154,1.014s0.055,0.038,0.102,0.071
				c0.33-0.396,0.622-0.815,0.938-1.206C114.367,104.706,113.726,104.503,113.674,105.004z"/>
			<path fill="#EC1C24" d="M102.369,70.604c-0.157,0.595,0.608,0.705,1.245,0.606c0.633-0.094,2.098-0.661,2.646-0.81
				c0.559-0.154,2.217-0.749,2.093-1.438c-0.13-0.699-0.13-0.699-0.13-0.699s-1.699,0.347-3.087,0.622
				C103.746,69.149,102.557,69.899,102.369,70.604z"/>
			<path fill="#B01117" d="M113.88,71.446c0.471-0.401-0.206-0.793-0.826-1.167c-0.611-0.364-2.09-0.788-2.663-1.053
				c-0.564-0.264-2.17-1.492-2.423-0.858c-0.265,0.645,0.011,1.106,0.011,1.106s1.151,1.085,2.704,1.559
				C112.147,71.49,113.312,71.926,113.88,71.446z"/>
			<path fill="#EC1C24" d="M102.9,64.331c-0.23,0.572,0.529,0.732,1.174,0.683c0.646-0.044,2.184-0.507,2.751-0.601
				c0.569-0.104,2.315-0.556,2.269-1.267c-0.044-0.694-0.044-0.694-0.044-0.694s-1.743,0.193-3.164,0.364
				C104.468,62.981,103.182,63.631,102.9,64.331z"/>
			<path fill="#B01117" d="M114.356,66.093c0.521-0.352-0.113-0.81-0.691-1.233s-2.002-0.975-2.533-1.294
				c-0.537-0.309-2.002-1.686-2.338-1.063c-0.325,0.617-0.113,1.102-0.113,1.102s1.024,1.178,2.528,1.785
				C112.621,65.978,113.731,66.512,114.356,66.093z"/>
			<path fill="#EC1C24" d="M103.802,57.728c-0.275,0.583,0.462,0.754,1.115,0.727c0.652-0.027,2.217-0.451,2.795-0.534
				c0.567-0.088,2.352-0.49,2.354-1.195c0.011-0.716,0.011-0.716,0.011-0.716s-1.754,0.149-3.184,0.275
				C105.473,56.4,104.135,57.033,103.802,57.728z"/>
			<path fill="#EC1C24" d="M105.2,52.016c-0.342,0.567,0.38,0.793,1.032,0.798c0.645,0.006,2.245-0.308,2.82-0.358
				c0.575-0.039,2.371-0.331,2.456-1.052c0.08-0.722,0.08-0.722,0.08-0.722s-1.751,0.022-3.181,0.061
				C106.996,50.771,105.597,51.339,105.2,52.016z"/>
			<path fill="#EC1C24" d="M106.863,46.172c-0.383,0.562,0.319,0.815,0.961,0.843c0.64,0.022,2.244-0.259,2.823-0.286
				c0.581-0.028,2.379-0.259,2.503-0.992C113.279,45,113.279,45,113.279,45s-1.734-0.033-3.142-0.044
				C108.717,44.95,107.307,45.484,106.863,46.172z"/>
			<path fill="#EC1C24" d="M108.983,40.555c-0.418,0.535,0.218,0.843,0.821,0.92c0.611,0.088,2.156-0.061,2.704-0.039
				c0.545,0.022,2.28-0.044,2.467-0.754c0.193-0.716,0.193-0.716,0.193-0.716s-1.631-0.193-2.969-0.336
				C110.867,39.492,109.474,39.905,108.983,40.555z"/>
			<path fill="#EC1C24" d="M112.109,35.339c-0.389,0.43,0.097,0.749,0.581,0.875c0.487,0.121,1.763,0.138,2.206,0.209
				c0.451,0.072,1.861,0.176,2.09-0.43c0.226-0.606,0.226-0.606,0.226-0.606s-1.313-0.319-2.393-0.567
				C113.748,34.574,112.575,34.811,112.109,35.339z"/>
			<path fill="#EC1C24" d="M114.4,31.214c-0.36,0.38,0.127,0.666,0.611,0.776c0.49,0.104,1.746,0.132,2.2,0.193
				c0.44,0.061,1.851,0.165,2.041-0.364c0.198-0.523,0.198-0.523,0.198-0.523s-1.313-0.297-2.394-0.529
				C115.989,30.559,114.841,30.757,114.4,31.214z"/>
			<path fill="#B01117" d="M119.274,31.214c-0.088,0.039-0.27,0.165-0.41,0.705c-0.188,0.7,0.975,1.388,1.3,1.751
				c0.336,0.369,1.077,1.542,1.468,1.906c0.097,0.083,0.19,0.176,0.281,0.253C121.104,34.249,120.203,32.723,119.274,31.214z"/>
			<path fill="#B01117" d="M120.704,39.382c0.063,0.727-0.386,0.347-0.81,0.022c-0.425-0.336-1.253-1.41-1.631-1.74
				c-0.354-0.336-1.58-0.903-1.448-1.592c0.141-0.683,0.443-0.766,0.443-0.766s0.953,0.27,1.851,1.366
				C119.943,37.729,120.635,38.517,120.704,39.382z"/>
			<path fill="#B01117" d="M119.109,44.548c0.069,0.799-0.44,0.369-0.917-0.017c-0.474-0.369-1.404-1.592-1.814-1.972
				c-0.408-0.369-1.773-1.052-1.614-1.795c0.144-0.744,0.487-0.826,0.487-0.826s1.066,0.331,2.062,1.57
				C118.247,42.697,119.021,43.601,119.109,44.548z"/>
			<path fill="#B01117" d="M117.394,49.835c0.086,0.826-0.446,0.369-0.952-0.055c-0.499-0.407-1.49-1.702-1.909-2.109
				c-0.432-0.413-1.883-1.162-1.718-1.922c0.159-0.766,0.521-0.843,0.521-0.843s1.12,0.38,2.17,1.702
				C116.493,47.891,117.313,48.844,117.394,49.835z"/>
			<path fill="#B01117" d="M115.97,55.359c0.127,0.821-0.429,0.369-0.958-0.016c-0.528-0.391-1.603-1.62-2.062-2.005
				c-0.451-0.386-1.958-1.074-1.845-1.823c0.107-0.754,0.462-0.837,0.462-0.837s1.162,0.336,2.3,1.586
				C114.943,53.476,115.818,54.39,115.97,55.359z"/>
			<path fill="#B01117" d="M115.232,60.002c0.236,0.865-0.408,0.501-0.997,0.193c-0.605-0.314-1.887-1.427-2.409-1.768
				c-0.526-0.319-2.176-0.771-2.168-1.597c0.009-0.837,0.372-1.013,0.372-1.013s1.25,0.138,2.603,1.261
				C113.919,58.163,114.943,58.972,115.232,60.002z"/>
		</g>
	</g>
</g>
</svg>
