<?xml version="1.0" encoding="utf-8"?>
<!-- Generator: Adobe Illustrator 16.0.0, SVG Export Plug-In . SVG Version: 6.00 Build 0)  -->
<!DOCTYPE svg PUBLIC "-//W3C//DTD SVG 1.1//EN" "http://www.w3.org/Graphics/SVG/1.1/DTD/svg11.dtd">
<svg version="1.1" id="Layer_1" xmlns="http://www.w3.org/2000/svg" xmlns:xlink="http://www.w3.org/1999/xlink" x="0px" y="0px"
	 width="130px" height="130px" viewBox="0 0 130 130" enable-background="new 0 0 130 130" xml:space="preserve">
<rect fill="none" width="130" height="130"/>
<g>
	<g>
		<path fill="#D1C9B4" d="M128.945,65.003C128.945,29.656,100.319,1,64.997,1C29.678,1,1.055,29.656,1.055,65.003
			C1.055,100.345,29.678,129,64.997,129C100.319,129,128.945,100.345,128.945,65.003z"/>
		<path fill="#F15A22" d="M128.945,65.003c0-17.343-6.904-33.067-18.098-44.594L6.499,39.156
			c-3.492,7.909-5.444,16.649-5.444,25.847c0,18.417,7.782,35.006,20.227,46.682l100.95-18.137
			C126.521,84.951,128.945,75.264,128.945,65.003z"/>
		<circle fill="#F2F2F2" cx="68.551" cy="65.242" r="25.741"/>
		<g>
			<path fill="#F15A22" d="M65.265,76.541c0.071,0.38-0.094,0.622-0.471,0.699l-2.87,0.551c-0.38,0.071-0.622-0.094-0.696-0.474
				l-3.285-17.057L54.718,62.1c-0.11,0.05-0.224,0.105-0.342,0.122c-0.206,0.038-0.345-0.05-0.389-0.287l-0.548-2.836
				c-0.033-0.176,0.003-0.303,0.144-0.363l4.47-2.622c0.189-0.127,0.418-0.198,0.652-0.243l1.928-0.375
				c0.38-0.071,0.589,0.072,0.663,0.452L65.265,76.541z"/>
			<path fill="#F15A22" d="M82.188,63.752c1.286,6.669-0.616,10.498-5.705,11.472c-5.089,0.986-8.278-1.861-9.564-8.531
				l-0.415-2.164c-1.292-6.697,0.613-10.52,5.703-11.5c5.089-0.986,8.274,1.862,9.566,8.559L82.188,63.752z M77.706,62.37
				c-0.862-4.472-2.492-6.493-4.863-6.036c-2.371,0.452-3.137,2.936-2.271,7.413l0.415,2.164c0.859,4.473,2.489,6.466,4.86,6.009
				c1.725-0.33,2.586-1.68,2.644-4.059c0.02-0.854-0.102-1.95-0.366-3.327L77.706,62.37z"/>
		</g>
	</g>
</g>
</svg>
