<?xml version="1.0" encoding="utf-8"?>
<!-- Generator: Adobe Illustrator 16.0.0, SVG Export Plug-In . SVG Version: 6.00 Build 0)  -->
<!DOCTYPE svg PUBLIC "-//W3C//DTD SVG 1.1//EN" "http://www.w3.org/Graphics/SVG/1.1/DTD/svg11.dtd">
<svg version="1.1" id="Layer_1" xmlns="http://www.w3.org/2000/svg" xmlns:xlink="http://www.w3.org/1999/xlink" x="0px" y="0px"
	 width="130px" height="130px" viewBox="0 0 130 130" enable-background="new 0 0 130 130" xml:space="preserve">
<rect fill="none" width="130" height="130"/>
<g>
	<g>
		<path fill="#7C6A51" d="M128.901,64.986c0,35.329-28.592,63.992-63.882,63.992c-35.296,0-63.921-28.663-63.921-63.992
			C1.099,29.647,29.707,1,64.997,1C100.282,1,128.901,29.647,128.901,64.986z"/>
		<path fill="#D1C9B4" d="M66.379,30.555c-1.685,0.005-3.666,1.26-4.393,2.785l-9.257,19.412c-0.732,1.53-0.666,3.996,0.132,5.487
			l10.958,20.287c0.804,1.486,2.84,2.675,4.529,2.643l22.836-0.463c1.689-0.027,3.692-1.293,4.458-2.802l9.51-18.85
			c0.76-1.524,0.693-3.952-0.159-5.41l-11.91-20.54c-0.848-1.475-2.923-2.658-4.612-2.647L66.379,30.555z"/>
		<path fill="#3D3328" d="M68.454,81.757c-1.685,0.032-3.655,1.326-4.376,2.851l-8.476,18.085c-0.716,1.524-0.132,3.512,1.305,4.393
			l16.483,10.188c1.441,0.886,3.803,0.908,5.267,0.065l18.124-10.6c1.459-0.854,2.355-2.9,1.998-4.552L94.86,84.184
			c-0.357-1.662-2.03-2.983-3.721-2.939L68.454,81.757z"/>
		<path fill="#D1C9B4" d="M27.588,56.819c-1.69,0.072-3.671,1.371-4.409,2.9L15.04,76.55c-0.732,1.514-0.611,3.94,0.275,5.383
			l12.081,19.571c0.886,1.437,2.994,2.681,4.678,2.758l18.74,0.907c1.684,0.083,3.644-1.105,4.365-2.646l8.421-18.13
			c0.71-1.53,0.633-4.001-0.171-5.487L52.399,58.553c-0.809-1.492-2.846-2.642-4.535-2.576L27.588,56.819z"/>
		<path fill="#3D3328" d="M25.31,29.272c-1.398,0.947-2.471,3.104-2.372,4.794l1.095,19.412c0.099,1.684,1.558,3.005,3.242,2.928
			l20.562-0.958c1.684-0.077,3.666-1.387,4.397-2.906L61.53,33.18c0.737-1.536,0.308-3.698-0.958-4.827L48.31,17.346
			c-1.261-1.123-3.429-1.277-4.833-0.336L25.31,29.272z"/>
		<path fill="#3D3328" d="M93.969,27.654c-1.046,1.327-1.211,3.633-0.374,5.091l11.795,20.705c0.842,1.475,2.905,2.603,4.596,2.526
			l10.583-0.496c1.679-0.077,2.934-1.514,2.779-3.203l-2.157-15.262c-0.226-1.673-0.589-3.369-0.814-3.759
			c-0.22-0.396-1.954-2.229-3.313-3.225l-13.374-9.896c-1.397-0.946-3.385-0.627-4.425,0.705L93.969,27.654z"/>
		<path fill="#3D3328" d="M27.759,107.338c0.429-1.641,0.061-4.155-0.82-5.598L14.974,82.147c-0.886-1.442-2.89-2.939-4.469-3.324
			c-1.574-0.396-8.222-1.685-7.678,0.759c5.102,22.813,22.775,35.709,22.83,35.747c0.055,0.027,0.319-1.111,0.749-2.746
			L27.759,107.338z"/>
		<path fill="#D1C9B4" d="M22.503,59.587c0.715-1.53,1.2-4.167,1.073-5.851l-1.431-19.318c-0.121-1.678-1.354-2.983-2.735-2.895
			c-1.381,0.094-9.07,1.172-10.49,3.016c-3.847,5.009-7.821,18.377-7.821,30.645c0,3.727,0.54,7.887,0.54,7.887
			c0.214,1.674,1.728,3.396,3.363,3.831l5.405,1.414c1.634,0.424,3.555-0.479,4.276-2.009L22.503,59.587z"/>
		<path fill="#D1C9B4" d="M56.538,107.36c-1.442-0.887-4.001-1.674-5.691-1.745l-18.784-0.81c-1.685-0.065-3.352,1.029-3.699,2.444
			c-0.347,1.42-1.156,9.378,0.231,10.342c0,0,16.115,12.322,38.725,11.354c1.965-0.082,3.703-1.222,4.513-2.696l2.378-4.397
			c0.803-1.486,0.286-3.424-1.15-4.315L56.538,107.36z"/>
		<path fill="#D1C9B4" d="M124.686,58.607c-0.507-1.612-2.322-2.851-4.001-2.763l-10.634,0.562
			c-1.689,0.088-3.688,1.393-4.447,2.895l-9.438,18.894c-0.76,1.508-1.084,4.106-0.721,5.752l3.962,18.129
			c0.358,1.646,2.015,2.758,3.677,2.443l11.311-2.053c1.668-0.303,3.677-1.767,4.475-3.258c0,0,6.258-7.893,9.131-23.265
			c0.319-1.695,0.182-4.304-0.193-5.955L124.686,58.607z"/>
		<path fill="#D1C9B4" d="M63.692,4.143c-1.689-0.044-4.166,0.754-5.515,1.772l-9.824,6.924c-1.189,1.2-1.128,3.099,0.132,4.227
			l12.466,11.112c1.26,1.128,3.671,2.02,5.366,2.003l22.263-0.253c1.689-0.022,3.924-1.128,4.976-2.444l5.438-6.852
			c1.051-1.327,0.853-3.302-0.446-4.387L87.222,6.707c-1.294-1.084-3.71-2.212-5.377-2.499L63.692,4.143z"/>
		<path fill="#D1C9B4" d="M115.087,104.68c1.002-1.2,0.649-2.163-1.013-1.844l-11.255,2.284c-1.668,0.27-4.222,1.178-5.691,2.02
			l-18.3,10.513c-1.464,0.842-3.318,2.74-4.111,4.237l-2.289,4.287c-0.787,1.492-0.396,2.351,1.42,2.119
			C73.848,128.296,96.71,126.767,115.087,104.68z"/>
		<path fill="#D1C9B4" d="M121.405,34.925c1.777,9.23,2.548,20.364,2.548,20.364s2.505,5.151,4.585,16.688
			c0.231-2.224,0.363-4.491,0.363-6.792C128.901,54.26,126.232,43.935,121.405,34.925z"/>
		<path fill="#D1C9B4" d="M116.425,29.075c1.375,0.979,1.744,0.583,0.831-0.787c-11.074-16.6-28.934-22.896-28.934-22.896
			c-1.48-0.814-1.822,0.083-0.539,1.189l10.99,9.549c1.271,1.111,3.506,2.729,4.948,3.604L116.425,29.075z"/>
		<path fill="#D1C9B4" d="M43.334,16.669c1.409-0.936,3.489-2.724,4.618-3.979l9.764-6.847c1.337-1.024,1.096-2.229-0.539-2.647
			l-8.839,0.077c-7.733,1.871-23.985,8.239-35.868,25.246c-0.754,1.084-0.143,2.499,1.547,2.449c0,0,4.453-0.148,5.718-0.17
			C21,30.77,23.191,29.988,24.6,29.052L43.334,16.669z"/>
		<path fill="#3D3328" d="M58.574,3.08c1.156,0.418,3.473,0.573,5.141,0.314l17.673,0.644c1.689,0.027,1.756-0.496,0.115-0.881
			c0,0-7.364-2.141-16.583-2.135c-6.621,0-14.084,1.568-14.084,1.568C49.185,2.926,57.413,2.651,58.574,3.08z"/>
	</g>
</g>
</svg>
