<?xml version="1.0" encoding="utf-8"?>
<!-- Generator: Adobe Illustrator 16.0.0, SVG Export Plug-In . SVG Version: 6.00 Build 0)  -->
<!DOCTYPE svg PUBLIC "-//W3C//DTD SVG 1.1//EN" "http://www.w3.org/Graphics/SVG/1.1/DTD/svg11.dtd">
<svg version="1.1" id="Layer_1" xmlns="http://www.w3.org/2000/svg" xmlns:xlink="http://www.w3.org/1999/xlink" x="0px" y="0px"
	 width="130px" height="130px" viewBox="0 0 130 130" enable-background="new 0 0 130 130" xml:space="preserve">
<rect fill="none" width="130" height="130"/>
<g>
	<g>
		<path fill="#7E4D33" d="M65.004,33.559c28.502,0,51.958,9.276,60.347,19.311c2.011,2.41,3.567,4.025,3.649,6.526
			c0,9.405-28.65,41.495-63.996,41.495C29.663,100.891,1,68.828,1,59.191C2.379,51.566,29.667,33.559,65.004,33.559z"/>
		<path fill="#8F583C" d="M65.004,29.109c35.333,0,62.297,20.28,63.996,30.082c-1.709,6.285-28.663,30.078-63.996,30.078
			C29.667,89.27,1.644,66.375,1,59.191C2.502,51.479,29.667,29.109,65.004,29.109z"/>
		<path fill="#FFF6E4" d="M20.389,41.216c-1.773,9.429-1.198,26.658-0.863,35.113c3.271,1.948,5.83,3.323,9.793,5.022
			c-0.065-12.094,0.552-34.992,3.022-45.84C27.998,37.231,23.965,39.163,20.389,41.216z"/>
		<path fill="#FFF6E4" d="M101.616,80.466c4.005-1.848,6.812-3.255,10.074-5.323c0.324-8.571,0.786-25.26-1.188-34.144
			c-3.626-2.064-7.703-4.005-12.157-5.7C100.866,45.533,101.129,68.123,101.616,80.466z"/>
		<path fill="#B36E4D" d="M128.975,59.248c0.002-0.017,0.021-0.045,0.025-0.057c-0.016-0.101-0.071-0.204-0.094-0.305
			c-0.006-0.016-0.01-0.024-0.012-0.04l-0.215-0.061c-1.737,6.391-28.343,29.838-63.676,29.838
			c-35.008,0-63.046-22.802-63.671-29.777l-0.215,0.021c-0.029,0.1-0.098,0.224-0.118,0.324c0,0.445,0.122,0.982,0.245,1.523
			c4.087,8.711,30.271,28.574,63.759,28.574c34.215,0,60.301-21.904,63.918-29.416c0.013-0.148,0.078-0.337,0.078-0.478
			C129,59.344,128.977,59.3,128.975,59.248z"/>
		<path fill="#552A20" d="M128.79,58.795c-1.99,6.554-28.555,29.837-63.786,29.837c-34.819,0-62.737-22.537-63.781-29.745
			c-0.056,0.177-0.156,0.369-0.192,0.529c2.117,7.732,29.699,29.549,63.974,29.549c34.754,0,61.086-22.605,63.929-29.682
			c-0.011-0.027-0.021-0.052-0.026-0.08C128.891,59.06,128.818,58.935,128.79,58.795z"/>
		<path fill="#6C392E" d="M119.243,46.868c-0.52-0.413-1.022-0.821-1.571-1.234c-53.434-17.627-95.543-2.942-106.022,1.387
			c-0.724,0.558-1.451,1.11-2.106,1.656C11.756,47.61,58.278,26.011,119.243,46.868z"/>
		<path fill="#A36445" d="M118.973,46.656C61.079,27.021,16.21,45.533,9.96,48.352c-0.219,0.177-0.457,0.353-0.665,0.529l0.058,0.12
			c0.481-0.244,47.979-23.275,110.456-1.691C119.54,47.093,119.249,46.872,118.973,46.656z"/>
		<g>
			<path fill-rule="evenodd" clip-rule="evenodd" fill="#592E28" d="M31.653,45.461c0,0,3.705,6.358,13.355,3.78
				c3.978-1.066,6.621-2.021,8.868-1.463c2.245,0.565,10.771,3.929,23.346,0.79c2.078-0.521,6.06-0.565,9.429,0.785
				c3.365,1.348,10.832-0.297,12.407-4.001c0,0-5.899-7.111-31.714-6.325C63.418,39.144,39.061,37.5,31.653,45.461z"/>
			<path fill-rule="evenodd" clip-rule="evenodd" fill="#A45E3C" d="M31.653,45.461c0,0,3.705,5.833,13.355,3.26
				c3.978-1.066,6.621-2.024,8.868-1.464c2.245,0.562,10.771,3.929,23.346,0.786c2.078-0.518,6.06-0.562,9.429,0.79
				c3.365,1.347,10.77,0.107,12.343-3.597c0,0-5.835-7.517-31.649-6.73C63.418,38.622,39.061,37.5,31.653,45.461z"/>
			<path fill="#592E28" d="M34.003,39.656c0,0,28.411-10.463,62.394-0.148c1.066,0.321-4.868-4.646-8.389-5.62
				c-3.518-0.97-5.991-0.746-8.761-2.024c-2.772-1.271-16.855-3.816-27.642-0.297c-1.349,0.445-3.068,1.575-6.74,1.575
				C41.197,33.142,34.679,37.556,34.003,39.656z"/>
			<path fill="#A35D3C" d="M39.862,32.869c-2.791,2.013-5.416,5.132-5.859,6.503c0,0,28.411-10.468,62.394-0.148
				c0.706,0.212-1.661-3.348-4.357-6.069c-8.142-2.458-17.248-4.045-27.035-4.045C55.994,29.109,47.522,30.576,39.862,32.869z"/>
		</g>
		<path fill="#592E28" d="M96.868,41.34c-0.365-1.318-1.706-2.67-2.981-3.011c-1.188-0.349-2.365-0.629-3.541-0.926l-0.565-2.017
			c-0.271-0.941-1.148-1.712-1.961-1.712h-0.302c-0.814,0-1.293,0.771-1.062,1.712l0.284,1.187
			c-1.086-0.229-2.173-0.465-3.245-0.649l-0.278-1.354c-0.192-0.942-1.011-1.712-1.82-1.712h-0.293c-0.808,0-1.339,0.77-1.181,1.712
			l0.141,0.842c-1.046-0.145-2.091-0.289-3.119-0.393l-0.164-1.263c-0.128-0.946-0.88-1.712-1.676-1.712h-0.297
			c-0.795,0-1.377,0.766-1.288,1.712l0.086,0.941c-1.036-0.076-2.045-0.12-3.053-0.172l-0.088-1.527
			c-0.053-0.942-0.74-1.708-1.531-1.708h-0.291c-0.794,0-1.423,0.766-1.411,1.708l0.028,1.415c-1.03-0.021-2.045-0.032-3.037-0.021
			l0.024-1.331c0.016-0.941-0.619-1.707-1.405-1.707h-0.297c-0.788,0-1.479,0.766-1.531,1.707l-0.08,1.42
			c-1.046,0.04-2.061,0.092-3.053,0.156l0.082-0.882c0.086-0.946-0.491-1.712-1.289-1.712h-0.296c-0.796,0-1.55,0.766-1.675,1.712
			l-0.15,1.142c-1.068,0.097-2.116,0.209-3.104,0.325l0.11-0.653c0.156-0.942-0.375-1.712-1.183-1.712h-0.291
			c-0.813,0-1.627,0.77-1.821,1.712l-0.23,1.122c-1.159,0.177-2.222,0.357-3.214,0.537l0.207-0.842
			c0.23-0.941-0.247-1.712-1.064-1.712h-0.299c-0.817,0-1.691,0.771-1.96,1.712l-0.438,1.56c-2.236,0.493-3.642,0.89-3.906,0.954
			c-1.279,0.309-2.607,1.499-2.946,2.658c-0.272,0.974,0.271,1.623,1.255,1.64c0.194,0.008,0.406-0.021,0.629-0.064
			c0.064-0.016,1.436-0.36,3.74-0.813l-0.299,1.07c-0.265,0.941,0.263,1.708,1.179,1.708h0.337c0.92,0,1.853-0.767,2.081-1.708
			l0.416-1.724c1.035-0.165,2.144-0.329,3.357-0.485l-0.286,1.391c-0.194,0.946,0.383,1.712,1.295,1.712h0.333
			c0.905,0,1.777-0.766,1.938-1.712l0.303-1.808c1.036-0.108,2.137-0.204,3.262-0.293l-0.169,1.287
			c-0.124,0.942,0.514,1.712,1.412,1.712h0.328c0.9,0,1.704-0.77,1.79-1.712l0.139-1.507c1.048-0.053,2.12-0.093,3.217-0.121
			l-0.052,0.938c-0.055,0.938,0.627,1.708,1.527,1.708h0.324c0.895,0,1.636-0.77,1.649-1.708l0.021-0.998
			c1.048,0,2.116,0.012,3.205,0.036l0.016,0.897c0.019,0.942,0.76,1.708,1.65,1.708h0.328c0.898,0,1.577-0.766,1.525-1.708
			l-0.044-0.753c1.068,0.056,2.135,0.111,3.229,0.2l0.118,1.307c0.09,0.942,0.892,1.712,1.794,1.712h0.328
			c0.895,0,1.531-0.77,1.409-1.712l-0.13-0.982c1.09,0.116,2.187,0.269,3.295,0.417l0.232,1.379
			c0.158,0.946,1.028,1.712,1.937,1.712h0.331c0.914,0,1.489-0.766,1.297-1.712l-0.175-0.838c1.135,0.192,2.275,0.426,3.422,0.658
			l0.242,0.998c0.227,0.941,1.156,1.708,2.079,1.708h0.334c0.918,0,1.445-0.767,1.183-1.708l-0.042-0.141
			c1.114,0.272,2.219,0.518,3.338,0.83C96.393,43.429,97.219,42.651,96.868,41.34z"/>
		<g>
			<g>
				<path fill="#FFF6E4" d="M43.58,33.198h-0.299c-0.817,0-1.693,0.77-1.962,1.708l-1.963,7.007
					c-0.265,0.946,0.263,1.708,1.181,1.708h0.335c0.922,0,1.851-0.762,2.076-1.708l1.696-7.007
					C44.873,33.968,44.396,33.198,43.58,33.198z"/>
				<path fill="#FFF6E4" d="M87.435,33.198h-0.301c-0.813,0-1.288,0.77-1.062,1.708l1.691,7.007c0.23,0.946,1.16,1.708,2.08,1.708
					h0.337c0.916,0,1.443-0.762,1.179-1.708l-1.964-7.007C89.129,33.968,88.251,33.198,87.435,33.198z"/>
				<path fill="#FFF6E4" d="M49.996,32.385h-0.297c-0.808,0-1.621,0.766-1.817,1.711l-1.443,7c-0.192,0.946,0.385,1.712,1.295,1.712
					h0.333c0.907,0,1.777-0.766,1.938-1.712l1.171-7C51.331,33.15,50.8,32.385,49.996,32.385z"/>
				<path fill="#FFF6E4" d="M81.015,32.385H80.72c-0.806,0-1.337,0.766-1.181,1.711l1.171,7c0.16,0.946,1.032,1.712,1.938,1.712
					h0.333c0.909,0,1.487-0.766,1.297-1.712l-1.443-7C82.639,33.15,81.824,32.385,81.015,32.385z"/>
				<path fill="#FFF6E4" d="M56.292,31.566h-0.296c-0.798,0-1.552,0.77-1.677,1.712l-0.92,7.004
					c-0.124,0.941,0.514,1.711,1.409,1.711h0.331c0.9,0,1.702-0.77,1.792-1.711l0.649-7.004
					C57.669,32.336,57.088,31.566,56.292,31.566z"/>
				<path fill="#FFF6E4" d="M74.721,31.566h-0.297c-0.793,0-1.377,0.77-1.286,1.712l0.649,7.004c0.088,0.941,0.89,1.711,1.79,1.711
					h0.328c0.898,0,1.535-0.77,1.407-1.711l-0.916-7.004C76.272,32.336,75.517,31.566,74.721,31.566z"/>
				<path fill="#FFF6E4" d="M62.458,30.877h-0.293c-0.792,0-1.481,0.766-1.533,1.708l-0.398,7.007
					c-0.051,0.942,0.629,1.708,1.527,1.708h0.324c0.896,0,1.636-0.766,1.649-1.708l0.131-7.007
					C63.881,31.643,63.248,30.877,62.458,30.877z"/>
				<path fill="#FFF6E4" d="M68.547,30.812h-0.288c-0.794,0-1.421,0.771-1.411,1.708l0.128,7.008
					c0.021,0.941,0.762,1.712,1.652,1.712h0.328c0.895,0,1.577-0.771,1.525-1.712l-0.398-7.008
					C70.028,31.583,69.343,30.812,68.547,30.812z"/>
			</g>
			<g>
				<path fill="#FFF6E4" d="M35.284,41.725c-0.984-0.016-1.527-0.669-1.253-1.644c0.339-1.158,1.667-2.353,2.944-2.657
					c1.272-0.317,27.641-8.03,56.53,0.429c1.273,0.345,2.612,1.691,2.983,3.011c0.347,1.311-0.479,2.089-1.828,1.743
					c-30.083-8.418-58.432-1.021-58.75-0.954C35.69,41.705,35.479,41.729,35.284,41.725L35.284,41.725z"/>
			</g>
		</g>
	</g>
</g>
</svg>
