<?xml version="1.0" encoding="utf-8"?>
<!-- Generator: Adobe Illustrator 16.0.0, SVG Export Plug-In . SVG Version: 6.00 Build 0)  -->
<!DOCTYPE svg PUBLIC "-//W3C//DTD SVG 1.1//EN" "http://www.w3.org/Graphics/SVG/1.1/DTD/svg11.dtd">
<svg version="1.1" id="Layer_1" xmlns="http://www.w3.org/2000/svg" xmlns:xlink="http://www.w3.org/1999/xlink" x="0px" y="0px"
	 width="130px" height="130px" viewBox="0 0 130 130" enable-background="new 0 0 130 130" xml:space="preserve">
<rect fill="none" width="130" height="130"/>
<path fill="#FAAB18" d="M87.94,105.463c0-10.765,8.772-19.522,19.563-19.522c4.035,0,7.789,1.228,10.908,3.327l4.044-25.759
	c0.298-1.811-0.952-3.284-2.781-3.284H11.33c-1.834,0-3.085,1.474-2.778,3.284l8.293,52.855c0.301,1.811,2.044,3.284,3.878,3.284
	h73.381C90.318,116.085,87.94,111.05,87.94,105.463z"/>
<g>
	<path fill="#5B4D3C" d="M64.441,63.415c-0.659,0-1.323-0.109-1.974-0.337c-3.054-1.095-4.646-4.451-3.557-7.507L75.577,8.91
		c1.087-3.056,4.451-4.638,7.502-3.554c3.054,1.089,4.646,4.451,3.557,7.501L69.97,59.519C69.108,61.92,66.852,63.415,64.441,63.415
		z"/>
</g>
<path fill="#FDB813" d="M129,62.984c0,0.913-0.746,1.66-1.662,1.66H2.666C1.747,64.645,1,63.897,1,62.984V53.36
	c0-0.918,0.747-1.665,1.666-1.665h124.672c0.916,0,1.662,0.747,1.662,1.665V62.984z"/>
<g>
	<polygon fill="#BC7708" points="2.806,51.929 13.263,44.349 116.744,44.349 127.192,51.929 	"/>
	<path fill="#FDB813" d="M116.552,44.94l8.83,6.397H4.619l8.832-6.397H116.552 M116.931,43.763H13.07L1.573,52.095l0.603,0.42
		h126.138l-0.104-0.576L116.931,43.763L116.931,43.763z"/>
</g>
<g>
	<path fill="#BC7708" d="M26.928,97.66c-0.203-1.281-1.401-2.152-2.686-1.955c-1.278,0.202-2.155,1.4-1.953,2.687l2.006,12.778
		c0.181,1.162,1.177,1.987,2.313,1.987c0.122,0,0.244-0.011,0.371-0.026c1.278-0.202,2.155-1.406,1.953-2.688L26.928,97.66z"/>
	<path fill="#BC7708" d="M36.032,97.738c-0.155-1.286-1.339-2.194-2.614-2.044c-1.287,0.155-2.205,1.328-2.047,2.614l1.562,12.783
		c0.143,1.193,1.156,2.065,2.326,2.065c0.097,0,0.192-0.006,0.288-0.016c1.289-0.156,2.202-1.328,2.044-2.615L36.032,97.738z"/>
	<path fill="#BC7708" d="M32.437,89.354c1.284-0.166,2.203-1.328,2.045-2.62l-1.723-14.096c-0.156-1.286-1.339-2.194-2.609-2.049
		c-1.292,0.16-2.208,1.328-2.05,2.614l1.72,14.102c0.15,1.188,1.157,2.064,2.33,2.064C32.242,89.37,32.338,89.359,32.437,89.354z"/>
	<path fill="#BC7708" d="M41.895,89.359c1.289-0.113,2.246-1.25,2.133-2.542l-1.23-14.101c-0.108-1.287-1.214-2.262-2.542-2.133
		c-1.286,0.109-2.241,1.251-2.132,2.542l1.229,14.102c0.106,1.219,1.131,2.143,2.337,2.143
		C41.757,89.37,41.824,89.365,41.895,89.359z"/>
	<path fill="#BC7708" d="M89.181,89.359c0.072,0.006,0.137,0.011,0.207,0.011c1.204,0,2.226-0.924,2.335-2.143l1.229-14.102
		c0.108-1.291-0.843-2.433-2.135-2.542c-1.308-0.129-2.431,0.846-2.545,2.133l-1.229,14.101
		C86.932,88.109,87.886,89.246,89.181,89.359z"/>
	<path fill="#BC7708" d="M101.295,86.965l1.678-13.761c0.158-1.281-0.758-2.454-2.047-2.614c-1.284-0.146-2.456,0.763-2.612,2.049
		L96.592,86.74c-0.098,0.8,0.222,1.556,0.784,2.051C98.603,88.046,99.911,87.429,101.295,86.965z"/>
	<path fill="#BC7708" d="M42.593,95.684c-1.29,0.114-2.244,1.251-2.133,2.542l1.115,12.789c0.104,1.219,1.131,2.143,2.335,2.143
		c0.067,0,0.135-0.006,0.207-0.011c1.29-0.114,2.249-1.25,2.133-2.542l-1.113-12.783C45.023,96.529,43.913,95.56,42.593,95.684z"/>
	<path fill="#BC7708" d="M22.977,89.339c1.284-0.202,2.155-1.406,1.956-2.682L22.72,72.556c-0.199-1.276-1.405-2.153-2.685-1.95
		c-1.281,0.202-2.153,1.4-1.953,2.682l2.213,14.096c0.179,1.157,1.178,1.987,2.316,1.987C22.73,89.37,22.854,89.359,22.977,89.339z"
		/>
	<path fill="#BC7708" d="M107.504,85.94c1.18,0,2.329,0.122,3.452,0.323l2.034-12.977c0.202-1.281-0.672-2.479-1.953-2.682
		c-1.273-0.197-2.482,0.674-2.685,1.95l-2.107,13.448C106.663,85.978,107.079,85.94,107.504,85.94z"/>
	<path fill="#BC7708" d="M79.303,95.679c-1.32-0.062-2.397,0.929-2.467,2.226l-0.667,12.783c-0.067,1.292,0.926,2.396,2.221,2.464
		c0.041,0.006,0.085,0.006,0.127,0.006c1.237,0,2.272-0.971,2.342-2.226l0.667-12.783C81.593,96.856,80.597,95.746,79.303,95.679z"
		/>
	<path fill="#BC7708" d="M51.226,89.37c0.041,0,0.085,0,0.127-0.005c1.294-0.067,2.29-1.173,2.22-2.47l-0.739-14.091
		c-0.064-1.302-1.198-2.293-2.464-2.226c-1.297,0.062-2.29,1.173-2.221,2.464l0.734,14.102C48.947,88.395,49.988,89.37,51.226,89.37
		z"/>
	<path fill="#BC7708" d="M80.706,70.579c-1.334-0.067-2.402,0.924-2.467,2.226l-0.737,14.091c-0.067,1.297,0.929,2.402,2.224,2.47
		c0.038,0.005,0.08,0.005,0.124,0.005c1.237,0,2.272-0.976,2.34-2.226l0.736-14.102C82.994,71.752,82,70.642,80.706,70.579z"/>
	<path fill="#BC7708" d="M87.94,105.463c0-3.205,0.792-6.225,2.17-8.896c-0.388-0.487-0.963-0.823-1.633-0.883
		c-1.32-0.124-2.426,0.846-2.542,2.138l-1.113,12.783c-0.111,1.292,0.843,2.428,2.135,2.542c0.07,0.005,0.143,0.011,0.208,0.011
		c0.814,0,1.537-0.427,1.958-1.075C88.371,110.011,87.94,107.789,87.94,105.463z"/>
	<path fill="#BC7708" d="M70.592,70.574c-1.305-0.058-2.365,1.012-2.387,2.309l-0.249,14.096c-0.023,1.297,1.012,2.365,2.322,2.392
		c0,0,0.018,0,0.028,0c1.278,0,2.324-1.027,2.348-2.309L72.9,72.966C72.921,71.669,71.889,70.6,70.592,70.574z"/>
	<path fill="#BC7708" d="M51.772,95.679c-1.297,0.067-2.29,1.178-2.223,2.47l0.669,12.783c0.067,1.255,1.103,2.226,2.34,2.226
		c0.041,0,0.088,0,0.127-0.006c1.297-0.067,2.29-1.172,2.221-2.464l-0.67-12.783C54.169,96.607,53.06,95.611,51.772,95.679z"/>
	<path fill="#BC7708" d="M70.125,95.679c-0.013,0-0.026,0-0.042,0c-1.273,0-2.324,1.022-2.345,2.309l-0.223,12.783
		c-0.021,1.292,1.009,2.36,2.306,2.387h0.044c1.276,0,2.322-1.027,2.348-2.309l0.218-12.783
		C72.454,96.769,71.422,95.699,70.125,95.679z"/>
	<path fill="#BC7708" d="M60.769,89.37h0.039c1.297-0.026,2.329-1.095,2.311-2.392l-0.249-14.096
		c-0.023-1.297-1.097-2.351-2.392-2.309c-1.294,0.025-2.326,1.095-2.303,2.392l0.246,14.096
		C58.441,88.343,59.492,89.37,60.769,89.37z"/>
	<path fill="#BC7708" d="M60.979,95.679c0,0-0.019,0-0.031,0c-1.297,0.021-2.326,1.09-2.306,2.387l0.226,12.783
		c0.021,1.281,1.066,2.309,2.342,2.309c0.016,0,0.029,0,0.045,0c1.294-0.026,2.329-1.095,2.309-2.387l-0.226-12.783
		C63.313,96.701,62.266,95.679,60.979,95.679z"/>
</g>
<g>
	<path fill="#7C6A51" d="M65.975,62.128c-0.526,0-1.056-0.088-1.582-0.275c-2.441-0.872-3.715-3.564-2.841-6.002L78.218,9.185
		c0.869-2.438,3.552-3.709,6-2.838c2.443,0.872,3.712,3.554,2.843,6.002L70.397,59.01C69.71,60.93,67.899,62.128,65.975,62.128z"/>
</g>
<g>
	<g>
		<path fill="#7C6A51" d="M107.504,91.051c-7.963,0-14.443,6.465-14.443,14.412c0,7.943,6.48,14.412,14.443,14.412
			c7.959,0,14.434-6.469,14.434-14.412C121.938,97.516,115.463,91.051,107.504,91.051z"/>
	</g>
	<g>
		<path fill="#FFFFFF" d="M112.993,104.202h-4.503v-4.498c0-0.575-0.556-1.125-1.126-1.125c-0.571,0-1.126,0.55-1.126,1.125v4.498
			h-4.498c-0.57,0-1.126,0.556-1.126,1.126c0,0.571,0.556,1.126,1.126,1.126h4.498v4.503c0,0.571,0.555,1.115,1.126,1.115
			c0.57,0,1.126-0.544,1.126-1.115v-4.503h4.503c0.57,0,1.12-0.555,1.12-1.126C114.113,104.758,113.563,104.202,112.993,104.202z"/>
	</g>
</g>
</svg>
