<?xml version="1.0" encoding="utf-8"?>
<!-- Generator: Adobe Illustrator 16.0.0, SVG Export Plug-In . SVG Version: 6.00 Build 0)  -->
<!DOCTYPE svg PUBLIC "-//W3C//DTD SVG 1.1//EN" "http://www.w3.org/Graphics/SVG/1.1/DTD/svg11.dtd">
<svg version="1.1" id="Layer_1" xmlns="http://www.w3.org/2000/svg" xmlns:xlink="http://www.w3.org/1999/xlink" x="0px" y="0px"
	 width="130px" height="130px" viewBox="0 0 130 130" enable-background="new 0 0 130 130" xml:space="preserve">
<rect fill="none" width="130" height="130"/>
<g>
	<path fill="#FAAB18" d="M114.157,119.033c-0.301,1.811-2.044,3.284-3.87,3.284H20.72c-1.831,0-3.574-1.474-3.875-3.284
		L8.549,66.177c-0.307-1.81,0.944-3.283,2.78-3.283h108.348c1.826,0,3.077,1.473,2.781,3.283L114.157,119.033z"/>
	<g>
		<path fill="#5B4D3C" d="M64.439,66.084c-0.658,0-1.322-0.109-1.972-0.337c-3.056-1.094-4.648-4.451-3.559-7.507l16.669-46.662
			c1.085-3.056,4.452-4.638,7.502-3.554c3.051,1.089,4.644,4.451,3.554,7.502L69.97,62.188
			C69.109,64.59,66.853,66.084,64.439,66.084z"/>
	</g>
	<path fill="#FDB813" d="M129,65.653c0,0.913-0.747,1.66-1.66,1.66H2.666C1.747,67.313,1,66.566,1,65.653V56.03
		c0-0.918,0.747-1.666,1.666-1.666H127.34c0.913,0,1.66,0.747,1.66,1.666V65.653z"/>
	<g>
		<polygon fill="#BC7708" points="2.806,54.598 13.26,47.018 116.746,47.018 127.194,54.598 		"/>
		<path fill="#FDB813" d="M116.554,47.609l8.83,6.397H4.616l8.835-6.397H116.554 M116.933,46.432H13.067L1.571,54.764l0.602,0.42
			h126.143l-0.104-0.576L116.933,46.432L116.933,46.432z"/>
	</g>
	<g>
		<g>
			<g>
				<path fill="#BC7708" d="M22.608,92.04c-1.137,0-2.138-0.83-2.314-1.987l-2.215-14.096c-0.197-1.282,0.675-2.48,1.956-2.683
					c1.276-0.202,2.485,0.675,2.682,1.951l2.216,14.101c0.197,1.276-0.675,2.48-1.956,2.683
					C22.853,92.029,22.728,92.04,22.608,92.04z"/>
			</g>
			<g>
				<path fill="#BC7708" d="M32.149,92.04c-1.173,0-2.18-0.877-2.33-2.065l-1.722-14.101c-0.156-1.287,0.757-2.454,2.049-2.615
					c1.271-0.146,2.454,0.763,2.609,2.05l1.723,14.096c0.161,1.292-0.758,2.454-2.044,2.62C32.336,92.029,32.242,92.04,32.149,92.04
					z"/>
			</g>
			<g>
				<path fill="#BC7708" d="M41.69,92.04c-1.209,0-2.231-0.924-2.34-2.143l-1.229-14.102c-0.109-1.292,0.845-2.434,2.132-2.542
					c1.328-0.13,2.434,0.846,2.542,2.132l1.229,14.102c0.114,1.292-0.84,2.428-2.132,2.542C41.825,92.035,41.758,92.04,41.69,92.04z
					"/>
			</g>
			<g>
				<path fill="#BC7708" d="M51.226,92.04c-1.24,0-2.277-0.976-2.345-2.226l-0.731-14.102c-0.073-1.292,0.923-2.402,2.22-2.465
					c1.267-0.067,2.397,0.924,2.465,2.227l0.736,14.091c0.073,1.297-0.923,2.401-2.22,2.47C51.309,92.04,51.268,92.04,51.226,92.04z
					"/>
			</g>
			<g>
				<path fill="#BC7708" d="M60.767,92.04c-1.276,0-2.324-1.027-2.345-2.309l-0.249-14.097c-0.021-1.297,1.012-2.365,2.303-2.392
					c1.298-0.041,2.371,1.012,2.392,2.309l0.25,14.097c0.021,1.297-1.012,2.365-2.31,2.392C60.792,92.04,60.777,92.04,60.767,92.04z
					"/>
			</g>
			<g>
				<path fill="#BC7708" d="M70.308,92.04c-0.011,0-0.031,0-0.047,0c-1.292-0.026-2.329-1.095-2.304-2.392l0.249-14.097
					c0.021-1.297,1.079-2.365,2.387-2.309c1.297,0.026,2.329,1.095,2.309,2.392l-0.249,14.097
					C72.632,91.013,71.584,92.04,70.308,92.04z"/>
			</g>
			<g>
				<path fill="#BC7708" d="M79.849,92.04c-0.042,0-0.083,0-0.125-0.005c-1.292-0.068-2.288-1.173-2.221-2.47l0.737-14.091
					c0.062-1.303,1.131-2.294,2.464-2.227c1.297,0.062,2.288,1.173,2.221,2.465l-0.736,14.102
					C82.121,91.064,81.088,92.04,79.849,92.04z"/>
			</g>
			<g>
				<path fill="#BC7708" d="M89.389,92.04c-0.072,0-0.135-0.005-0.207-0.011c-1.297-0.114-2.252-1.25-2.138-2.542l1.229-14.102
					c0.114-1.286,1.235-2.262,2.542-2.132c1.292,0.108,2.247,1.25,2.138,2.542l-1.229,14.102
					C91.615,91.116,90.593,92.04,89.389,92.04z"/>
			</g>
			<g>
				<path fill="#BC7708" d="M98.925,92.04c-0.099,0-0.192-0.011-0.291-0.016c-1.281-0.155-2.199-1.328-2.044-2.615l1.723-14.101
					c0.155-1.287,1.328-2.195,2.615-2.05c1.286,0.161,2.204,1.333,2.044,2.615l-1.718,14.101
					C101.109,91.163,100.098,92.04,98.925,92.04z"/>
			</g>
			<g>
				<path fill="#BC7708" d="M108.466,92.04c-0.125,0-0.244-0.011-0.368-0.031c-1.282-0.202-2.158-1.406-1.956-2.683l2.21-14.101
					c0.202-1.276,1.411-2.148,2.688-1.951c1.281,0.202,2.153,1.4,1.95,2.683l-2.21,14.096
					C110.604,91.21,109.602,92.04,108.466,92.04z"/>
			</g>
		</g>
	</g>
	<g>
		<g>
			<g>
				<path fill="#BC7708" d="M26.608,115.827c-1.137,0-2.133-0.825-2.314-1.987l-2.007-12.778c-0.203-1.286,0.674-2.484,1.955-2.687
					c1.282-0.197,2.48,0.674,2.683,1.955l2.008,12.784c0.202,1.281-0.675,2.484-1.956,2.687
					C26.853,115.816,26.728,115.827,26.608,115.827z"/>
			</g>
			<g>
				<path fill="#BC7708" d="M35.257,115.827c-1.167,0-2.185-0.871-2.324-2.064l-1.562-12.784c-0.161-1.286,0.757-2.459,2.044-2.614
					c1.276-0.15,2.459,0.758,2.615,2.044l1.562,12.789c0.155,1.286-0.758,2.459-2.045,2.614
					C35.449,115.822,35.355,115.827,35.257,115.827z"/>
			</g>
			<g>
				<path fill="#BC7708" d="M43.91,115.827c-1.203,0-2.23-0.924-2.334-2.143l-1.116-12.789c-0.113-1.291,0.841-2.428,2.133-2.542
					c1.317-0.124,2.428,0.846,2.542,2.138l1.115,12.783c0.114,1.292-0.846,2.429-2.132,2.542
					C44.045,115.822,43.978,115.827,43.91,115.827z"/>
			</g>
			<g>
				<path fill="#BC7708" d="M52.559,115.827c-1.239,0-2.271-0.97-2.34-2.226l-0.669-12.783c-0.067-1.292,0.924-2.402,2.221-2.47
					c1.286-0.067,2.396,0.929,2.464,2.226l0.67,12.783c0.072,1.292-0.924,2.397-2.221,2.465
					C52.647,115.827,52.601,115.827,52.559,115.827z"/>
			</g>
			<g>
				<path fill="#BC7708" d="M61.207,115.827c-1.275,0-2.318-1.027-2.34-2.309l-0.228-12.783c-0.021-1.297,1.012-2.366,2.309-2.387
					c0.01,0,0.031,0,0.041,0c1.276,0,2.324,1.022,2.346,2.309l0.228,12.783c0.021,1.292-1.017,2.36-2.309,2.387
					C61.238,115.827,61.223,115.827,61.207,115.827z"/>
			</g>
			<g>
				<path fill="#BC7708" d="M69.866,115.827c-0.016,0-0.031,0-0.047,0c-1.297-0.026-2.324-1.095-2.303-2.387l0.223-12.783
					c0.021-1.286,1.068-2.309,2.345-2.309c0.016,0,0.026,0,0.042,0c1.297,0.021,2.329,1.09,2.304,2.387l-0.219,12.783
					C72.186,114.8,71.143,115.827,69.866,115.827z"/>
			</g>
			<g>
				<path fill="#BC7708" d="M78.515,115.827c-0.041,0-0.083,0-0.124-0.005c-1.297-0.067-2.288-1.173-2.221-2.465l0.664-12.783
					c0.072-1.297,1.146-2.288,2.47-2.226c1.292,0.067,2.288,1.178,2.221,2.47l-0.664,12.783
					C80.787,114.857,79.755,115.827,78.515,115.827z"/>
			</g>
			<g>
				<path fill="#BC7708" d="M87.163,115.827c-0.062,0-0.135-0.005-0.207-0.011c-1.292-0.113-2.247-1.25-2.133-2.542l1.11-12.783
					c0.119-1.292,1.225-2.262,2.542-2.138c1.298,0.114,2.252,1.251,2.138,2.542l-1.115,12.789
					C89.395,114.903,88.372,115.827,87.163,115.827z"/>
			</g>
			<g>
				<path fill="#BC7708" d="M95.817,115.827c-0.099,0-0.197-0.005-0.291-0.016c-1.286-0.155-2.199-1.328-2.044-2.614l1.562-12.789
					c0.156-1.286,1.339-2.194,2.615-2.044c1.286,0.155,2.199,1.328,2.044,2.614l-1.562,12.784
					C97.996,114.956,96.984,115.827,95.817,115.827z"/>
			</g>
			<g>
				<path fill="#BC7708" d="M104.466,115.827c-0.119,0-0.244-0.011-0.368-0.026c-1.282-0.202-2.158-1.405-1.951-2.687l2.003-12.784
					c0.197-1.281,1.405-2.158,2.682-1.955c1.282,0.202,2.158,1.4,1.956,2.687l-2.002,12.778
					C106.598,115.002,105.602,115.827,104.466,115.827z"/>
			</g>
		</g>
	</g>
	<g>
		<path fill="#7C6A51" d="M65.976,64.797c-0.529,0-1.059-0.088-1.583-0.275c-2.443-0.872-3.714-3.564-2.843-6.002l16.669-46.667
			c0.867-2.438,3.549-3.709,5.998-2.838c2.443,0.872,3.715,3.554,2.843,6.003L70.396,61.679
			C69.711,63.599,67.9,64.797,65.976,64.797z"/>
	</g>
</g>
</svg>
