<?xml version="1.0" encoding="utf-8"?>
<!-- Generator: Adobe Illustrator 16.0.0, SVG Export Plug-In . SVG Version: 6.00 Build 0)  -->
<!DOCTYPE svg PUBLIC "-//W3C//DTD SVG 1.1//EN" "http://www.w3.org/Graphics/SVG/1.1/DTD/svg11.dtd">
<svg version="1.1" id="Layer_1" xmlns="http://www.w3.org/2000/svg" xmlns:xlink="http://www.w3.org/1999/xlink" x="0px" y="0px"
	 width="130px" height="130px" viewBox="0 0 130 130" enable-background="new 0 0 130 130" xml:space="preserve">
<rect fill="none" width="130" height="130"/>
<g id="Shape_153_2_">
	<path fill="#EE3849" d="M84.199,33.002H58.6c-7.068,0-12.8,5.724-12.8,12.804c0,7.057,5.732,12.796,12.8,12.796h25.599
		C90.121,58.602,97,68.378,97,81.005c0,12.35-11.482,22.396-25.6,22.396H58.6C44.486,103.4,33,91.913,33,77.8V13.804
		C33,6.724,27.268,1,20.2,1C13.132,1,7.4,6.724,7.4,13.804V77.8c0,28.228,22.969,51.2,51.2,51.2h12.8
		c28.23,0,51.199-21.532,51.199-47.995C122.6,54.526,105.375,33.002,84.199,33.002z"/>
</g>
</svg>
