<?xml version="1.0" encoding="utf-8"?>
<!-- Generator: Adobe Illustrator 16.0.0, SVG Export Plug-In . SVG Version: 6.00 Build 0)  -->
<!DOCTYPE svg PUBLIC "-//W3C//DTD SVG 1.1//EN" "http://www.w3.org/Graphics/SVG/1.1/DTD/svg11.dtd">
<svg version="1.1" id="Layer_1" xmlns="http://www.w3.org/2000/svg" xmlns:xlink="http://www.w3.org/1999/xlink" x="0px" y="0px"
	 width="130px" height="130px" viewBox="0 0 130 130" enable-background="new 0 0 130 130" xml:space="preserve">
<rect fill="none" width="130" height="130"/>
<g id="Shape_21_copy_2_">
	<path fill="#1879FD" d="M53.99,62.085c2.673-1.366,4.695-2.874,6.064-4.536c2.457-2.95,3.681-6.847,3.681-11.714
		c0-4.713-1.206-8.763-3.646-12.151c-4.054-5.511-10.928-8.319-20.625-8.474H1v79.58h35.869c4.036,0,7.785-0.355,11.241-1.076
		c3.454-0.716,6.458-2.04,8.991-3.992c2.253-1.685,4.131-3.778,5.633-6.25c2.371-3.743,3.539-7.977,3.539-12.701
		c0-4.565-1.029-8.456-3.099-11.655C61.119,65.898,58.044,63.563,53.99,62.085z M19.366,39.029H34.19
		c3.808,0,6.948,0.42,9.399,1.241c2.859,1.189,4.281,3.637,4.281,7.345c0,3.347-1.076,5.677-3.229,6.995
		c-2.158,1.312-4.964,1.969-8.417,1.969H19.366V39.029z M44.26,89.569c-1.928,0.946-4.606,1.401-8.06,1.401H19.366V69.76h17.098
		c3.412,0.036,6.073,0.479,7.962,1.349c3.371,1.531,5.07,4.388,5.07,8.526C49.496,84.537,47.743,87.837,44.26,89.569z
		 M128.493,66.686c-0.697-4.471-2.205-8.392-4.544-11.791c-2.593-3.85-5.875-6.658-9.852-8.438
		c-3.982-1.78-8.453-2.667-13.414-2.667c-8.364,0-15.155,2.632-20.406,7.9c-5.236,5.274-7.855,12.844-7.855,22.73
		c0,10.549,2.906,18.153,8.704,22.836c5.807,4.678,12.497,7.02,20.096,7.02c9.192,0,16.35-2.785,21.456-8.32
		c3.294-3.488,5.127-6.924,5.522-10.307h-15.22c-0.885,1.662-1.907,2.98-3.066,3.909c-2.123,1.762-4.89,2.619-8.281,2.619
		c-3.211,0-5.961-0.703-8.22-2.141c-3.749-2.294-5.732-6.297-5.96-12.027h41.531C129.055,73.071,128.89,69.293,128.493,66.686z
		 M87.811,68.17c0.538-3.72,1.86-6.658,3.977-8.823c2.097-2.164,5.062-3.264,8.896-3.264c3.527,0,6.472,1.022,8.84,3.081
		c2.381,2.046,3.708,5.05,3.983,9.006H87.811z M116.596,28.51H84.523v7.959h32.072V28.51z"/>
</g>
</svg>
