<?xml version="1.0" encoding="utf-8"?>
<!-- Generator: Adobe Illustrator 16.0.0, SVG Export Plug-In . SVG Version: 6.00 Build 0)  -->
<!DOCTYPE svg PUBLIC "-//W3C//DTD SVG 1.1//EN" "http://www.w3.org/Graphics/SVG/1.1/DTD/svg11.dtd">
<svg version="1.1" id="Layer_1" xmlns="http://www.w3.org/2000/svg" xmlns:xlink="http://www.w3.org/1999/xlink" x="0px" y="0px"
	 width="130px" height="130px" viewBox="0 0 130 130" enable-background="new 0 0 130 130" xml:space="preserve">
<rect fill="none" width="130" height="130"/>
<g>
	<g>
		<path fill="#7C6A51" d="M108.41,98.183c-10.635,0-19.288-8.653-19.288-19.29s8.653-19.289,19.288-19.289
			c10.637,0,19.29,8.652,19.29,19.289S119.047,98.183,108.41,98.183z M108.41,63.487c-8.493,0-15.404,6.91-15.404,15.405
			c0,8.496,6.911,15.406,15.404,15.406c8.496,0,15.406-6.91,15.406-15.406C123.816,70.397,116.906,63.487,108.41,63.487z"/>
	</g>
	<g>
		
			<rect x="26.159" y="56.243" transform="matrix(0.4845 0.8748 -0.8748 0.4845 75.1701 -12.2863)" fill="#F15A22" width="43.701" height="2.783"/>
	</g>
	<g>
		<path fill="#F15A22" d="M58.299,80.852H21.632c-0.523,0-1.001-0.292-1.238-0.758c-0.239-0.465-0.193-1.026,0.112-1.449
			l22.387-30.851c0.193-0.265,0.474-0.453,0.792-0.532c1.117-0.275,27.554-6.687,46.745,0.008c0.727,0.252,1.109,1.045,0.855,1.769
			c-0.252,0.727-1.055,1.111-1.77,0.855c-17.045-5.938-40.975-0.89-44.676-0.045L24.359,78.072h33.94c0.768,0,1.39,0.621,1.39,1.39
			C59.689,80.229,59.067,80.852,58.299,80.852z"/>
	</g>
	<path fill="#D1C9B4" d="M98.415,47.049c0.26,0.159,0.252,0.398-0.018,0.539l-6.799,3.508c-0.267,0.137-0.468,0.004-0.445-0.296
		l0.059-0.728c0.025-0.304,0.264-0.664,0.533-0.805l5.08-2.62c0.268-0.141,0.702-0.126,0.962,0.03L98.415,47.049z"/>
	<g>
		<path fill="#F15A22" d="M109.114,83.767c-0.493,0-0.971-0.264-1.224-0.727l-19.58-35.925c-4.178-7.661-1.756-12.867-1.649-13.085
			c0.33-0.69,1.156-0.99,1.856-0.646c0.688,0.332,0.979,1.155,0.652,1.845c-0.084,0.183-1.862,4.237,1.583,10.556l19.58,35.925
			c0.368,0.675,0.12,1.52-0.556,1.887C109.567,83.712,109.338,83.765,109.114,83.767z"/>
	</g>
	<g>
		
			<rect x="78.415" y="47.525" transform="matrix(0.6458 0.7635 -0.7635 0.6458 78.173 -37.7832)" fill="#F15A22" width="2.782" height="35.665"/>
	</g>
	<g>
		<path fill="#7C6A51" d="M46.936,40.624H28.974c-1.608,0-2.913-1.305-2.913-2.913c0-1.607,1.305-2.912,2.913-2.912h17.962
			c1.608,0,2.913,1.305,2.913,2.912C49.849,39.319,48.544,40.624,46.936,40.624z"/>
	</g>
	<g>
		<path fill="#7C6A51" d="M87.616,35.701h-10.68c-1.073,0-1.942-0.868-1.942-1.942c0-1.073,0.869-1.941,1.942-1.941h10.68
			c1.074,0,1.942,0.868,1.942,1.941C89.559,34.833,88.69,35.701,87.616,35.701z"/>
	</g>
	<g>
		<path fill="#7C6A51" d="M70.252,79.701c0,3.773-3.054,6.826-6.827,6.826c-3.772,0-6.825-3.053-6.825-6.826
			c0-3.774,3.053-6.827,6.825-6.827C67.198,72.874,70.252,75.927,70.252,79.701z"/>
		<path fill="#7C6A51" d="M63.425,87.673c-4.396,0-7.971-3.576-7.971-7.972c0-4.396,3.574-7.973,7.971-7.973
			c4.395,0,7.971,3.576,7.971,7.973C71.396,84.097,67.82,87.673,63.425,87.673z M63.425,74.02c-3.131,0-5.68,2.549-5.68,5.682
			s2.549,5.682,5.68,5.682c3.132,0,5.681-2.549,5.681-5.682S66.558,74.02,63.425,74.02z"/>
	</g>
	<circle fill="#FFFFFF" cx="63.426" cy="79.701" r="3.954"/>
	<g>
		<path fill="#7C6A51" d="M21.451,98.183c-10.635,0-19.288-8.653-19.288-19.29s8.653-19.289,19.288-19.289
			c10.637,0,19.29,8.652,19.29,19.289S32.087,98.183,21.451,98.183z M21.451,63.487c-8.494,0-15.404,6.91-15.404,15.405
			c0,8.496,6.91,15.406,15.404,15.406c8.496,0,15.406-6.91,15.406-15.406C36.856,70.397,29.946,63.487,21.451,63.487z"/>
	</g>
	<circle fill="#F15A22" cx="21.449" cy="78.893" r="4.328"/>
	<g>
		<path fill="#F15A22" d="M40.426,73.138c-0.648,0-1.244-0.431-1.424-1.085c-1.966-7.149-9.184-12.141-17.551-12.141
			c-8.365,0-15.583,4.991-17.549,12.141c-0.216,0.785-1.013,1.252-1.817,1.031c-0.785-0.216-1.248-1.029-1.031-1.816
			c2.319-8.426,10.707-14.31,20.397-14.31c9.69,0,18.08,5.884,20.399,14.31c0.216,0.787-0.247,1.601-1.032,1.816
			C40.686,73.12,40.555,73.138,40.426,73.138z"/>
	</g>
	<g>
		<path fill="#F15A22" d="M89.573,73.138c-0.129,0-0.26-0.018-0.392-0.054c-0.785-0.216-1.248-1.029-1.032-1.816
			c2.319-8.426,10.707-14.31,20.397-14.31c9.694,0,18.082,5.884,20.399,14.312c0.217,0.785-0.246,1.599-1.033,1.814
			c-0.783,0.219-1.599-0.246-1.815-1.033c-1.964-7.147-9.182-12.139-17.551-12.139c-8.365,0-15.582,4.991-17.549,12.141
			C90.817,72.707,90.223,73.138,89.573,73.138z"/>
	</g>
	<g>
		<path fill="#D1C9B4" d="M63.194,80.551c-0.114,0-0.228-0.029-0.334-0.088c-0.326-0.184-0.441-0.599-0.258-0.925l5.666-10.051
			c0.185-0.33,0.598-0.44,0.926-0.259c0.326,0.185,0.441,0.6,0.258,0.926l-5.666,10.051C63.66,80.427,63.431,80.551,63.194,80.551z"
			/>
	</g>
	<path fill="#D1C9B4" d="M73.216,69.896c0.159,0.258,0.041,0.467-0.26,0.467h-7.652c-0.302,0-0.419-0.209-0.26-0.467l0.387-0.622
		c0.159-0.258,0.539-0.467,0.839-0.467h5.718c0.302,0,0.681,0.209,0.841,0.467L73.216,69.896z"/>
	<path fill="#FDB813" d="M109.378,42.915c0.009-0.443-0.159-0.872-0.471-1.191c-0.311-0.318-0.737-0.496-1.182-0.496h-14.13
		c-0.548,0-1.058,0.269-1.365,0.721c-0.309,0.451-0.373,1.027-0.173,1.536l5.953,11.203c0.165,0.417,0.491,0.751,0.904,0.922
		c0.203,0.087,0.417,0.129,0.636,0.129c0.222,0,0.445-0.046,0.654-0.137c0,0,2.036-0.88,4.073-1.774
		c1.188-0.523,2.136-0.948,2.818-1.26c1.561-0.713,2.145-0.979,2.235-1.983c0.014-0.163,0.004-0.326-0.028-0.481
		C109.266,49.382,109.31,45.961,109.378,42.915z"/>
</g>
</svg>
