<?xml version="1.0" encoding="utf-8"?>
<!-- Generator: Adobe Illustrator 16.0.0, SVG Export Plug-In . SVG Version: 6.00 Build 0)  -->
<!DOCTYPE svg PUBLIC "-//W3C//DTD SVG 1.1//EN" "http://www.w3.org/Graphics/SVG/1.1/DTD/svg11.dtd">
<svg version="1.1" id="Layer_1" xmlns="http://www.w3.org/2000/svg" xmlns:xlink="http://www.w3.org/1999/xlink" x="0px" y="0px"
	 width="130px" height="130px" viewBox="0 0 130 130" enable-background="new 0 0 130 130" xml:space="preserve">
<rect fill="none" width="130" height="130"/>
<g id="Shape_9_2_">
	<path fill="#FF8E2E" d="M128.39,54.163l-1.075-2.223l-1.797-1.412c-2.352-1.838-14.24,0.12-17.441-2.792
		c-2.275-2.086-2.624-5.85-3.311-10.938c-1.275-9.887-2.09-10.4-3.627-13.738C95.537,11.175,80.351,2.236,69.911,1H41.648
		C19.408,1,1.232,19.208,1.232,41.452v47.176C1.232,110.824,19.408,129,41.648,129h46.438c22.24,0,40.303-18.176,40.428-40.372
		l0.253-32.676L128.39,54.163z M42.162,34.045h22.413c4.276,0,7.739,3.475,7.739,7.719c0,4.221-3.463,7.736-7.739,7.736H42.162
		c-4.277,0-7.74-3.515-7.74-7.736C34.422,37.52,37.885,34.045,42.162,34.045z M87.701,95.73H42.162c-4.277,0-7.74-3.515-7.74-7.704
		c0-4.237,3.463-7.688,7.74-7.688h45.539c4.249,0,7.7,3.45,7.7,7.688C95.401,92.216,91.95,95.73,87.701,95.73z"/>
</g>
</svg>
