<?xml version="1.0" encoding="utf-8"?>
<!-- Generator: Adobe Illustrator 16.0.0, SVG Export Plug-In . SVG Version: 6.00 Build 0)  -->
<!DOCTYPE svg PUBLIC "-//W3C//DTD SVG 1.1//EN" "http://www.w3.org/Graphics/SVG/1.1/DTD/svg11.dtd">
<svg version="1.1" id="Layer_1" xmlns="http://www.w3.org/2000/svg" xmlns:xlink="http://www.w3.org/1999/xlink" x="0px" y="0px"
	 width="130px" height="130px" viewBox="0 0 130 130" enable-background="new 0 0 130 130" xml:space="preserve">
<rect fill="none" width="130" height="130"/>
<path fill="#7C6A51" d="M70.592,65l23.574-23.561c0.697-0.701,1.094-1.652,1.094-2.646c0-0.992-0.396-1.946-1.094-2.645
	l-24.904-24.9V4.741c0-2.067-1.674-3.741-3.74-3.741c-2.07,0-3.743,1.674-3.743,3.741v52.324L41.125,36.417
	c-1.458-1.462-3.825-1.462-5.289,0c-1.461,1.462-1.461,3.832,0,5.292l23.31,23.304l-23.31,23.276c-1.461,1.461-1.461,3.827,0,5.292
	c0.724,0.733,1.682,1.096,2.643,1.096c0.959,0,1.911-0.362,2.646-1.093L61.779,72.96v52.298c0,2.066,1.673,3.742,3.743,3.742
	c2.066,0,3.74-1.676,3.74-3.742v-6.508l24.904-24.893c0.697-0.702,1.094-1.655,1.094-2.647c0-0.99-0.396-1.94-1.094-2.645L70.592,65
	z M69.262,21.83l16.965,16.964L69.262,55.753V21.83z M69.262,108.17V74.248L86.227,91.21L69.262,108.17z"/>
</svg>
