<?xml version="1.0" encoding="utf-8"?>
<!-- Generator: Adobe Illustrator 16.0.0, SVG Export Plug-In . SVG Version: 6.00 Build 0)  -->
<!DOCTYPE svg PUBLIC "-//W3C//DTD SVG 1.1//EN" "http://www.w3.org/Graphics/SVG/1.1/DTD/svg11.dtd">
<svg version="1.1" id="Layer_1" xmlns="http://www.w3.org/2000/svg" xmlns:xlink="http://www.w3.org/1999/xlink" x="0px" y="0px"
	 width="130px" height="130px" viewBox="0 0 130 130" enable-background="new 0 0 130 130" xml:space="preserve">
<rect fill="none" width="130" height="130"/>
<g>
	<g>
		<path fill="#FAAB18" d="M1.018,39.861v77.082c0,1.6,1.296,2.899,2.893,2.899H126.09c1.597,0,2.893-1.3,2.893-2.899V39.861
			C128.982,39.503,1.018,39.503,1.018,39.861z"/>
	</g>
	<g>
		<path fill="#FDB813" d="M118.155,11.979c-0.438-1.094-1.515-1.822-2.708-1.822H14.553c-1.194,0-2.27,0.729-2.708,1.822L1,39.861
			c-0.129,0.329,128.126,0.329,128,0L118.155,11.979z"/>
	</g>
	<g>
		<polygon fill="#EDE3D0" points="83.279,39.861 49.007,39.861 49.01,71.853 66.144,63.586 83.283,71.853 		"/>
	</g>
	<g>
		<polygon fill="#FFF6E4" points="76.127,10.163 56.157,10.163 49.007,39.861 83.279,39.861 		"/>
	</g>
</g>
</svg>
