<?xml version="1.0" encoding="utf-8"?>
<!-- Generator: Adobe Illustrator 16.0.0, SVG Export Plug-In . SVG Version: 6.00 Build 0)  -->
<!DOCTYPE svg PUBLIC "-//W3C//DTD SVG 1.1//EN" "http://www.w3.org/Graphics/SVG/1.1/DTD/svg11.dtd">
<svg version="1.1" id="Layer_1" xmlns="http://www.w3.org/2000/svg" xmlns:xlink="http://www.w3.org/1999/xlink" x="0px" y="0px"
	 width="130px" height="130px" viewBox="0 0 130 130" enable-background="new 0 0 130 130" xml:space="preserve">
<rect fill="none" width="130" height="130"/>
<g>
	<path fill="#FAAB18" d="M114.383,65.334H15.628c-0.941,0-1.708,0.761-1.708,1.703v60.079c0,0.941,0.767,1.703,1.708,1.703h98.755
		c0.947,0,1.703-0.762,1.703-1.703V67.037C116.086,66.095,115.33,65.334,114.383,65.334z"/>
	<path fill="#E8940F" d="M114.383,65.334H15.628c-0.941,0-1.708,0.761-1.708,1.703v4.256h102.166v-4.256
		C116.086,66.095,115.33,65.334,114.383,65.334z"/>
	<g>
		<path fill="#FDB813" d="M122.904,40.628H7.101c-0.952,0-1.714,0.761-1.714,1.704v22.755c0,0.942,0.762,1.698,1.714,1.698h115.804
			c0.941,0,1.709-0.756,1.709-1.698V42.332C124.613,41.39,123.846,40.628,122.904,40.628z"/>
	</g>
	<g>
		<path fill="#F15A22" d="M87.361,7.994c-1.627-1.041-3.313-1.566-4.995-1.566c-8.998,0-14.496,15.121-17.213,25.449
			C60.389,20.316,50.728,1,39.407,1c-2.207,0-4.343,0.712-6.347,2.103c-4.853,3.379-6.566,8.28-4.842,13.812
			c2.919,9.316,15.586,19.41,26.666,23.96h14.951c0.356-0.263,0.739-0.537,1.14-0.838c10.361-7.629,21.392-16.451,21.112-24.59
			C92.011,13.372,91.135,10.393,87.361,7.994z M33.115,15.376c-1.058-3.39-0.153-5.948,2.869-8.045
			c1.15-0.805,2.268-1.188,3.423-1.188c7.958,0,17.476,18.105,22.592,31.693C51.817,35.662,36.028,24.676,33.115,15.376z
			 M69.792,34.528c2.81-10.931,7.722-22.958,12.574-22.958c0.707,0,1.44,0.247,2.245,0.761c2.038,1.298,2.312,2.503,2.344,3.297
			C87.147,21.143,76.155,29.785,69.792,34.528z"/>
	</g>
	<g>
		<rect x="54.358" y="40.656" fill="#F15A22" width="19.157" height="88.344"/>
	</g>
</g>
</svg>
