<?xml version="1.0" encoding="utf-8"?>
<!-- Generator: Adobe Illustrator 16.0.0, SVG Export Plug-In . SVG Version: 6.00 Build 0)  -->
<!DOCTYPE svg PUBLIC "-//W3C//DTD SVG 1.1//EN" "http://www.w3.org/Graphics/SVG/1.1/DTD/svg11.dtd">
<svg version="1.1" id="Layer_1" xmlns="http://www.w3.org/2000/svg" xmlns:xlink="http://www.w3.org/1999/xlink" x="0px" y="0px"
	 width="130px" height="130px" viewBox="0 0 130 130" enable-background="new 0 0 130 130" xml:space="preserve">
<rect fill="none" width="130" height="130"/>
<g>
	<path fill="#FDB813" d="M107.292,27.623c-0.648,0-1.285,0.035-1.914,0.098c0.849-2.069,1.323-4.323,1.323-6.697
		c0-9.752-7.91-17.666-17.669-17.666c-7.703,0-14.233,4.939-16.654,11.81C69.348,6.908,61.436,1,52.128,1
		c-11.924,0-21.596,9.671-21.596,21.597c0,0.893,0.072,1.764,0.173,2.628c-1.695-0.421-3.458-0.668-5.276-0.668
		c-12.796,0-23.167,10.997-23.167,24.559c0,13.567,10.372,24.564,23.167,24.564c0.792,0,1.579-0.046,2.351-0.126v11.712h76.239
		V70.152c1.068,0.179,2.155,0.295,3.273,0.295c11.285,0,20.447-9.586,20.447-21.413C127.739,37.208,118.577,27.623,107.292,27.623z
		 M73.036,28.493h-0.15c0.017-0.069,0.034-0.138,0.052-0.208C72.97,28.354,73.004,28.418,73.036,28.493z"/>
	<polygon fill="#D1C9B4" points="98.848,129 25.82,129 14.042,70.101 110.626,70.101 	"/>
	<polygon fill="#B7AA8D" points="110.626,70.101 14.042,70.101 25.82,129 109.618,70.805 	"/>
	<path fill="#B7AA8D" d="M31.635,70.101L42.292,129h-7.484L24.145,70.101H31.635z M41.414,70.101L46.742,129h7.4l-5.329-58.899
		H41.414z M75.862,70.101L70.534,129h7.397l5.328-58.899H75.862z M93.038,70.101L82.381,129h7.493l10.654-58.899H93.038z
		 M58.655,129h7.367V70.101h-7.367V129z"/>
	<g>
		<polygon fill="#A09173" points="81.425,90.384 83.26,70.101 75.862,70.101 73.531,95.864 		"/>
		<polygon fill="#A09173" points="99.079,78.124 100.528,70.101 93.038,70.101 90.511,84.072 		"/>
		<polygon fill="#A09173" points="40.453,118.833 31.635,70.101 24.145,70.101 33.803,123.455 		"/>
		<polygon fill="#A09173" points="52.468,110.493 48.813,70.101 41.414,70.101 45.505,115.328 		"/>
		<polygon fill="#A09173" points="66.021,101.081 66.021,70.101 58.655,70.101 58.655,106.192 		"/>
	</g>
	<circle fill="#F15A22" cx="48.831" cy="32.009" r="7.392"/>
	<path fill="#F15A22" d="M96.226,22.441c0,3.118-2.532,5.654-5.653,5.654c-3.122,0-5.655-2.536-5.655-5.654
		c0-3.124,2.533-5.654,5.655-5.654C93.693,16.787,96.226,19.317,96.226,22.441z"/>
	<path fill="#F15A22" d="M114.485,58.527c0,2.888-2.334,5.222-5.217,5.222c-2.882,0-5.216-2.334-5.216-5.222
		c0-2.882,2.334-5.216,5.216-5.216C112.151,53.311,114.485,55.646,114.485,58.527z"/>
	<path fill="#F15A22" d="M77.093,50.706c0,3.838-3.115,6.951-6.957,6.951c-3.844,0-6.957-3.112-6.957-6.951
		c0-3.844,3.113-6.962,6.957-6.962C73.978,43.744,77.093,46.862,77.093,50.706z"/>
	<path fill="#F15A22" d="M23.177,55.484c0,3.124-2.53,5.654-5.655,5.654c-3.118,0-5.651-2.53-5.651-5.654
		c0-3.124,2.533-5.648,5.651-5.648C20.647,49.836,23.177,52.36,23.177,55.484z"/>
</g>
</svg>
