<?xml version="1.0" encoding="utf-8"?>
<!-- Generator: Adobe Illustrator 16.0.0, SVG Export Plug-In . SVG Version: 6.00 Build 0)  -->
<!DOCTYPE svg PUBLIC "-//W3C//DTD SVG 1.1//EN" "http://www.w3.org/Graphics/SVG/1.1/DTD/svg11.dtd">
<svg version="1.1" id="Layer_1" xmlns="http://www.w3.org/2000/svg" xmlns:xlink="http://www.w3.org/1999/xlink" x="0px" y="0px"
	 width="130px" height="130px" viewBox="0 0 130 130" enable-background="new 0 0 130 130" xml:space="preserve">
<rect fill="none" width="130" height="130"/>
<g>
	<g>
		<rect x="17.351" y="1.485" fill="#FFF6E4" width="95.298" height="127.03"/>
		<path fill="#E0D3BF" d="M113.134,129H16.866V1h96.268V129z M17.836,128.03h94.328V1.97H17.836V128.03z"/>
	</g>
	<g>
		<g>
			<rect x="27.721" y="45.564" fill="#7C6A51" width="13.433" height="13.431"/>
			<rect x="48.093" y="45.564" fill="#7C6A51" width="13.436" height="13.431"/>
			<rect x="68.476" y="45.564" fill="#7C6A51" width="13.436" height="13.431"/>
			<rect x="88.846" y="45.564" fill="#F15A22" width="13.436" height="13.431"/>
			<rect x="88.846" y="65.924" fill="#F15A22" width="13.436" height="13.431"/>
		</g>
		<g>
			<rect x="27.721" y="86.284" fill="#7C6A51" width="13.433" height="13.431"/>
			<rect x="48.093" y="86.284" fill="#7C6A51" width="13.436" height="13.431"/>
			<rect x="68.476" y="86.284" fill="#7C6A51" width="13.436" height="13.431"/>
		</g>
		<g>
			<rect x="27.721" y="65.919" fill="#7C6A51" width="13.433" height="13.436"/>
			<g>
				<rect x="27.721" y="106.514" fill="#7C6A51" width="13.433" height="13.43"/>
				<rect x="48.093" y="106.514" fill="#7C6A51" width="13.436" height="13.43"/>
				<rect x="68.476" y="106.514" fill="#7C6A51" width="13.436" height="13.43"/>
			</g>
			<rect x="48.093" y="65.919" fill="#7C6A51" width="13.436" height="13.436"/>
			<rect x="68.476" y="65.919" fill="#7C6A51" width="13.436" height="13.436"/>
			<rect x="88.846" y="86.153" fill="#A4C553" width="13.436" height="33.79"/>
		</g>
	</g>
	<rect x="27.728" y="11.743" fill="#E0D3BF" width="74.544" height="23.644"/>
</g>
</svg>
