<?xml version="1.0" encoding="utf-8"?>
<!-- Generator: Adobe Illustrator 16.0.0, SVG Export Plug-In . SVG Version: 6.00 Build 0)  -->
<!DOCTYPE svg PUBLIC "-//W3C//DTD SVG 1.1//EN" "http://www.w3.org/Graphics/SVG/1.1/DTD/svg11.dtd">
<svg version="1.1" id="Layer_1" xmlns="http://www.w3.org/2000/svg" xmlns:xlink="http://www.w3.org/1999/xlink" x="0px" y="0px"
	 width="130px" height="130px" viewBox="0 0 130 130" enable-background="new 0 0 130 130" xml:space="preserve">
<rect fill="none" width="130" height="130"/>
<g>
	<path fill="#FDB813" d="M104.506,8.882v8.972c0.79,1.134,1.917,2.19,1.917,3.635c0,3.719-3.048,6.754-6.819,6.754
		c-3.764,0-6.821-3.035-6.821-6.754c0-1.617-0.364-3.035,0.645-4.202V8.96L82.376,8.894v8.755c0.803,1.095,1.031,2.396,1.031,3.841
		c0,3.719-3.044,6.754-6.807,6.754c-3.771,0-6.832-3.035-6.832-6.754c0-1.617,0.6-3.074,1.539-4.235V8.933L58.679,8.861v8.788
		c0.807,1.101,1.721,2.396,1.721,3.83c0,3.73-3.049,6.765-6.821,6.765c-3.764,0-6.821-3.035-6.821-6.765
		c0-1.606-0.137-3.024,0.859-4.191V8.888L36.549,8.871v8.789c0.75,1.101,0.839,2.385,0.839,3.83c0,3.719-3.055,6.754-6.826,6.754
		c-3.772,0-6.826-3.035-6.826-6.754c0-1.617,0.605-3.074,1.548-4.235V8.855h-0.211C14.883,8.844,6.631,16.977,6.608,27.004
		l-0.072,83.677c-0.022,10.09,8.23,18.189,18.406,18.201L104.945,129c10.167,0.016,18.43-8.151,18.443-18.234l0.075-83.5
		C123.486,17.232,115.007,8.966,104.506,8.882z"/>
	<path fill="#FDB813" d="M30.868,1l-0.089,0.006h0.034c-2.094,0.145-3.733,1.445-3.733,3.057v15.932c0,1.607,1.64,2.902,3.733,3.041
		l-0.289,0.033l0.345,0.022c2.273,0,4.108-1.374,4.108-3.074V4.063C34.976,2.379,33.141,1,30.868,1z M52.986,1l-0.085,0.006h0.047
		c-2.096,0.145-3.747,1.445-3.747,3.057v15.932c0,1.607,1.65,2.902,3.747,3.041l-0.292,0.033l0.331,0.022
		c2.282,0,4.111-1.374,4.111-3.074V4.063C57.097,2.379,55.268,1,52.986,1z M76.689,1l-0.101,0.006h0.062
		c-2.102,0.145-3.741,1.445-3.741,3.057v15.932c0,1.607,1.64,2.902,3.741,3.041l-0.298,0.033l0.337,0.022
		c2.276,0,4.11-1.374,4.11-3.074V4.063C80.8,2.379,78.966,1,76.689,1z M98.819,1l-0.101,0.006h0.061
		c-2.105,0.145-3.745,1.445-3.745,3.057v15.932c0,1.607,1.64,2.902,3.745,3.041l-0.305,0.033l0.345,0.022
		c2.268,0,4.11-1.374,4.11-3.074V4.063C102.93,2.379,101.087,1,98.819,1z"/>
	<path fill="#FFFFFF" d="M109.188,42.836c-0.672-0.678-2.114-1.795-4.321-1.812l-79.652-0.111c-3.358,0-6.098,2.746-6.113,6.098
		l-0.075,63.549c0,2.207,1.121,3.657,1.779,4.325c0.672,0.673,2.112,1.807,4.328,1.807l79.661,0.122c3.36,0,6.098-2.741,6.104-6.109
		l0.075-63.554C110.981,44.959,109.861,43.492,109.188,42.836z"/>
	<path fill="#F15A22" d="M78.555,80.637c-1.657-2.058-3.877-3.391-6.641-3.976c4.637-2.523,6.946-5.908,6.946-10.15
		c0-2.985-1.126-5.664-3.383-8.021c-2.74-2.908-6.39-4.358-10.939-4.358c-2.646,0-5.05,0.511-7.197,1.506
		c-2.131,1-3.796,2.368-5,4.108c-1.194,1.756-2.09,4.08-2.682,6.999l8.53,1.445c0.244-2.107,0.917-3.714,2.043-4.803
		c1.109-1.101,2.465-1.646,4.041-1.646c1.609,0,2.893,0.478,3.849,1.451c0.965,0.967,1.453,2.262,1.453,3.885
		c0,1.907-0.658,3.436-1.971,4.592c-1.322,1.151-3.224,1.695-5.728,1.629l-1.029,7.537c1.646-0.45,3.071-0.683,4.252-0.683
		c1.793,0,3.321,0.678,4.572,2.033c1.248,1.369,1.88,3.214,1.88,5.532c0,2.457-0.65,4.413-1.963,5.864
		c-1.304,1.445-2.913,2.168-4.82,2.168c-1.772,0-3.293-0.601-4.538-1.807c-1.265-1.223-2.024-2.957-2.307-5.236l-8.958,1.078
		c0.461,4.069,2.126,7.354,5.003,9.861c2.88,2.519,6.495,3.774,10.859,3.774c4.62,0,8.477-1.495,11.56-4.469
		c3.096-3.002,4.644-6.599,4.644-10.84C81.033,85.195,80.203,82.704,78.555,80.637z"/>
</g>
</svg>
