<?xml version="1.0" encoding="utf-8"?>
<!-- Generator: Adobe Illustrator 16.0.0, SVG Export Plug-In . SVG Version: 6.00 Build 0)  -->
<!DOCTYPE svg PUBLIC "-//W3C//DTD SVG 1.1//EN" "http://www.w3.org/Graphics/SVG/1.1/DTD/svg11.dtd">
<svg version="1.1" id="Layer_1" xmlns="http://www.w3.org/2000/svg" xmlns:xlink="http://www.w3.org/1999/xlink" x="0px" y="0px"
	 width="130px" height="130px" viewBox="0 0 130 130" enable-background="new 0 0 130 130" xml:space="preserve">
<rect fill="none" width="130" height="130"/>
<g>
	<path fill="#4BA7C4" d="M104.479,8.882v8.972c0.789,1.134,1.918,2.19,1.918,3.636c0,3.719-3.046,6.754-6.821,6.754
		c-3.763,0-6.814-3.035-6.814-6.754c0-1.618-0.367-3.035,0.645-4.203V8.959L82.35,8.893v8.75c0.801,1.095,1.034,2.401,1.034,3.847
		c0,3.719-3.041,6.754-6.811,6.754c-3.769,0-6.831-3.035-6.831-6.754c0-1.618,0.6-3.074,1.539-4.236V8.932l-12.63-0.072v8.783
		c0.807,1.106,1.718,2.401,1.718,3.835c0,3.73-3.046,6.765-6.815,6.765c-3.769,0-6.82-3.035-6.82-6.765
		c0-1.606-0.139-3.024,0.856-4.191V8.887L36.521,8.871v8.789c0.751,1.101,0.84,2.385,0.84,3.83c0,3.719-3.052,6.754-6.827,6.754
		c-3.769,0-6.826-3.035-6.826-6.754c0-1.618,0.606-3.074,1.551-4.236V8.854h-0.211C14.858,8.843,6.604,16.976,6.581,27.004
		L6.52,96.118l116.86,0.317l0.062-69.17C123.458,17.231,114.98,8.965,104.479,8.882z"/>
	<path fill="#4698B3" d="M95.363,96.357l10.578,0.027c8.478-9.672,15.31-18.056,17.455-20.712l0.011-10.163l-3.802,4.542
		L95.886,95.79L95.363,96.357z"/>
	<g>
		<path fill="#4BA7C4" d="M30.841,0.999l-0.09,0.005h0.034c-2.091,0.145-3.73,1.445-3.73,3.052v15.938
			c0,1.606,1.64,2.896,3.73,3.041l-0.289,0.033l0.345,0.017c2.273,0,4.107-1.367,4.107-3.068V4.062
			C34.948,2.377,33.114,0.999,30.841,0.999z"/>
		<path fill="#4BA7C4" d="M52.965,0.999l-0.089,0.005h0.045c-2.097,0.145-3.747,1.445-3.747,3.052v15.938
			c0,1.606,1.65,2.896,3.747,3.041l-0.289,0.033l0.333,0.017c2.279,0,4.108-1.367,4.108-3.068V4.062
			C57.073,2.377,55.244,0.999,52.965,0.999z"/>
		<path fill="#4BA7C4" d="M98.793,0.999l-0.101,0.005h0.062c-2.106,0.145-3.747,1.445-3.747,3.052v15.938
			c0,1.606,1.641,2.896,3.747,3.041l-0.306,0.033l0.345,0.017c2.268,0,4.107-1.367,4.107-3.068V4.062
			C102.9,2.377,101.061,0.999,98.793,0.999z"/>
		<path fill="#4BA7C4" d="M76.668,0.999l-0.105,0.005h0.062c-2.096,0.145-3.741,1.445-3.741,3.052v15.938
			c0,1.606,1.646,2.896,3.741,3.041l-0.295,0.033l0.339,0.017c2.273,0,4.108-1.367,4.108-3.068V4.062
			C80.776,2.377,78.941,0.999,76.668,0.999z"/>
	</g>
	<path fill="#FDB813" d="M6.52,95.802l-0.011,14.881c-0.017,10.084,8.233,18.19,18.405,18.201l80.005,0.117
		c10.167,0.017,18.434-8.151,18.444-18.234l0.017-14.965H6.52z"/>
	<path fill="#F4A60C" d="M95.874,95.802L77.508,115.83l-8.306,11.03l-2.162,2.085l6.754,0.011
		c9.729-7.745,22.441-21.459,32.665-33.154H95.874z"/>
	<path fill="#FFFFFF" d="M78.53,61.669c-1.656-2.057-3.88-3.391-6.643-3.975c4.636-2.524,6.948-5.904,6.948-10.151
		c0-2.979-1.128-5.659-3.38-8.027c-2.746-2.902-6.393-4.347-10.945-4.347c-2.646,0-5.048,0.506-7.199,1.501
		c-2.129,1-3.791,2.368-4.997,4.113c-1.195,1.751-2.09,4.075-2.68,6.999l8.527,1.439c0.245-2.107,0.918-3.713,2.046-4.797
		c1.106-1.106,2.463-1.646,4.042-1.646c1.606,0,2.891,0.478,3.847,1.451c0.967,0.961,1.456,2.257,1.456,3.88
		c0,1.907-0.661,3.436-1.968,4.597c-1.323,1.151-3.229,1.69-5.731,1.624l-1.028,7.538c1.646-0.45,3.068-0.684,4.253-0.684
		c1.79,0,3.318,0.678,4.569,2.04c1.251,1.362,1.879,3.208,1.879,5.531c0,2.457-0.65,4.408-1.963,5.859
		c-1.301,1.445-2.912,2.174-4.819,2.174c-1.773,0-3.296-0.611-4.536-1.812c-1.262-1.223-2.023-2.957-2.307-5.23l-8.961,1.072
		c0.461,4.069,2.123,7.354,5.003,9.861c2.88,2.524,6.493,3.774,10.862,3.774c4.619,0,8.478-1.495,11.557-4.475
		c3.097-2.99,4.647-6.593,4.647-10.834C81.01,66.228,80.182,63.737,78.53,61.669z"/>
	<g>
		<rect x="123.396" y="66.277" fill="#823A55" width="0.006" height="10.084"/>
	</g>
	
		<linearGradient id="SVGID_1_" gradientUnits="userSpaceOnUse" x1="-81.3032" y1="227.0029" x2="-79.1367" y2="227.0029" gradientTransform="matrix(7.7086 9.5273 9.5273 -7.7086 -1451.4921 2608.1118)">
		<stop  offset="0" style="stop-color:#F7F7F7"/>
		<stop  offset="0.2039" style="stop-color:#F7F7F7"/>
		<stop  offset="0.3235" style="stop-color:#F3F3F3"/>
		<stop  offset="0.4538" style="stop-color:#E8E5E7"/>
		<stop  offset="0.589" style="stop-color:#D4D0D3"/>
		<stop  offset="0.7268" style="stop-color:#BAB2B8"/>
		<stop  offset="0.8116" style="stop-color:#A69BA3"/>
		<stop  offset="1" style="stop-color:#A69BA3"/>
	</linearGradient>
	<path fill="url(#SVGID_1_)" d="M89.893,107.025c13.147-13.73,27.806-30.686,33.599-42.299c-1.474,2.002-9.689,12.719-20.529,17.688
		C90.604,88.08,83.2,89.403,83.2,89.403s-0.906,25.21-16.354,39.459l0.973-0.689C74.789,123.131,81.999,115.269,89.893,107.025z"/>
</g>
</svg>
