<?xml version="1.0" encoding="utf-8"?>
<!-- Generator: Adobe Illustrator 16.0.0, SVG Export Plug-In . SVG Version: 6.00 Build 0)  -->
<!DOCTYPE svg PUBLIC "-//W3C//DTD SVG 1.1//EN" "http://www.w3.org/Graphics/SVG/1.1/DTD/svg11.dtd">
<svg version="1.1" id="Layer_1" xmlns="http://www.w3.org/2000/svg" xmlns:xlink="http://www.w3.org/1999/xlink" x="0px" y="0px"
	 width="130px" height="130px" viewBox="0 0 130 130" enable-background="new 0 0 130 130" xml:space="preserve">
<rect fill="none" width="130" height="130"/>
<g>
	<path fill="#7C6A51" d="M89.791,53.44H4.509C2.579,53.44,1,55.024,1,56.962v53.806c0,1.938,1.579,3.526,3.509,3.526h85.282
		c1.931,0,3.512-1.588,3.512-3.526V56.962C93.303,55.024,91.722,53.44,89.791,53.44z"/>
	<path fill="#FDB813" d="M27.46,15.706c-8.535,0-15.375,6.791-15.375,15.22c0,8.341,6.839,15.133,15.375,15.133
		c8.462,0,15.343-6.792,15.343-15.133C42.803,22.497,35.922,15.706,27.46,15.706z M123.194,55.185l-15.876,3.972
		c-3.187,0.813-5.842,4.171-5.842,7.401v16.77c0,3.274,2.655,6.588,5.842,7.406l15.876,4.006c3.189,0.78,5.806-1.226,5.806-4.456
		V59.646C129,56.371,126.384,54.37,123.194,55.185z M67.168,15.706c-8.453,0-15.331,6.791-15.331,15.22
		c0,8.341,6.878,15.133,15.331,15.133c8.539,0,15.379-6.792,15.379-15.133C82.547,22.497,75.707,15.706,67.168,15.706z"/>
</g>
</svg>
