<?xml version="1.0" encoding="utf-8"?>
<!-- Generator: Adobe Illustrator 16.0.0, SVG Export Plug-In . SVG Version: 6.00 Build 0)  -->
<!DOCTYPE svg PUBLIC "-//W3C//DTD SVG 1.1//EN" "http://www.w3.org/Graphics/SVG/1.1/DTD/svg11.dtd">
<svg version="1.1" id="Layer_1" xmlns="http://www.w3.org/2000/svg" xmlns:xlink="http://www.w3.org/1999/xlink" x="0px" y="0px"
	 width="130px" height="130px" viewBox="0 0 130 130" enable-background="new 0 0 130 130" xml:space="preserve">
<rect fill="none" width="130" height="130"/>
<g>
	<path fill="#FDB813" d="M125.15,28.545H4.844c-2.111,0-3.833,1.717-3.833,3.816v78.959c0,2.106,1.723,3.828,3.833,3.828H125.15
		c2.111,0,3.833-1.722,3.833-3.828V32.361C128.983,30.262,127.262,28.545,125.15,28.545z"/>
	<rect x="1" y="49.062" fill="#7C6A51" width="128" height="43.286"/>
	<path fill="#D18909" d="M128.957,85.031v26.289c0,2.106-1.723,3.828-3.834,3.828H56.231L33.042,92.386l60.317-42.951
		L128.957,85.031z"/>
	<polygon fill="#604F3E" points="93.359,49.435 128.968,85.042 128.968,92.348 33.096,92.348 	"/>
	<path fill="#FDB813" d="M110.141,14.852H85.735c-1.738,0-3.163,1.409-3.163,3.143v8.234h30.716v-8.234
		C113.288,16.261,111.868,14.852,110.141,14.852z"/>
	<path fill="#FEFADF" d="M65.003,36.212c-20.199,0-36.58,16.321-36.58,36.461c0,20.134,16.381,36.456,36.58,36.456
		c20.198,0,36.574-16.322,36.574-36.456C101.577,52.533,85.201,36.212,65.003,36.212z"/>
	<ellipse fill="#595959" cx="65.003" cy="72.67" rx="30.479" ry="30.385"/>
	<path fill="#3E3E3E" d="M65.003,51.399c-11.781,0-21.338,9.524-21.338,21.273c0,11.743,9.557,21.263,21.338,21.263
		s21.332-9.52,21.332-21.263C86.335,60.924,76.784,51.399,65.003,51.399z"/>
	<path fill="#2B2B2B" d="M65.003,60.519c-6.733,0-12.191,5.438-12.191,12.154c0,6.706,5.458,12.148,12.191,12.148
		c6.732,0,12.191-5.442,12.191-12.148C77.194,65.956,71.735,60.519,65.003,60.519z"/>
	<path fill="#C7C7C7" d="M72.621,51.399c-3.364,0-6.096,2.722-6.096,6.08c0,3.353,2.731,6.074,6.096,6.074
		c3.363,0,6.096-2.722,6.096-6.074C78.717,54.121,75.984,51.399,72.621,51.399z"/>
	<ellipse fill="#C7C7C7" cx="52.304" cy="85.329" rx="3.051" ry="3.04"/>
</g>
</svg>
