<?xml version="1.0" encoding="utf-8"?>
<!-- Generator: Adobe Illustrator 16.0.0, SVG Export Plug-In . SVG Version: 6.00 Build 0)  -->
<!DOCTYPE svg PUBLIC "-//W3C//DTD SVG 1.1//EN" "http://www.w3.org/Graphics/SVG/1.1/DTD/svg11.dtd">
<svg version="1.1" id="Layer_1" xmlns="http://www.w3.org/2000/svg" xmlns:xlink="http://www.w3.org/1999/xlink" x="0px" y="0px"
	 width="130px" height="130px" viewBox="0 0 130 130" enable-background="new 0 0 130 130" xml:space="preserve">
<rect fill="none" width="130" height="130"/>
<g>
	<g>
		<path fill="#7C6A51" d="M17.206,110.061c1.318,0.843,2.783,1.303,4.349,1.303c1.548,0,3.053-0.46,4.344-1.303
			c2.553-1.603,4.5-4.542,5.299-8.129H11.938C12.723,105.519,14.658,108.458,17.206,110.061z M98.811,101.932
			c0.799,3.587,2.744,6.526,5.292,8.129c1.298,0.843,2.782,1.303,4.348,1.303c1.563,0,3.056-0.46,4.354-1.303
			c2.538-1.603,4.479-4.542,5.272-8.129H98.811z"/>
	</g>
	<g>
		<path fill="#F15A22" d="M119.867,53.978l-10.846-25.591c-2.462-5.923-8.241-9.75-14.717-9.75h-58.61
			c-6.475,0-12.247,3.827-14.697,9.716l-10.885,25.63C4.736,56.413,1,61.778,1,68.045v32.691h128V68.045
			C129,61.773,125.281,56.403,119.867,53.978z"/>
	</g>
	<g>
		<path fill="#FFF6E4" d="M99.773,32.998c-0.953-2.308-3.16-3.783-5.635-3.783H35.861c-2.474,0-4.682,1.475-5.615,3.753
			l-8.56,20.354h86.612L99.773,32.998z"/>
	</g>
	<g>
		<path fill="#FFF6E4" d="M21.294,66.463c-3.547,0-6.445,2.871-6.445,6.428c0,3.567,2.898,6.434,6.445,6.434
			c3.56,0,6.453-2.866,6.453-6.434C27.748,69.334,24.854,66.463,21.294,66.463z M108.698,66.458c-3.569,0-6.455,2.866-6.455,6.433
			c0,3.572,2.886,6.443,6.455,6.443c3.566,0,6.44-2.871,6.44-6.443C115.139,69.324,112.265,66.458,108.698,66.458z"/>
	</g>
</g>
</svg>
