<?xml version="1.0" encoding="utf-8"?>
<!-- Generator: Adobe Illustrator 16.0.0, SVG Export Plug-In . SVG Version: 6.00 Build 0)  -->
<!DOCTYPE svg PUBLIC "-//W3C//DTD SVG 1.1//EN" "http://www.w3.org/Graphics/SVG/1.1/DTD/svg11.dtd">
<svg version="1.1" id="Layer_1" xmlns="http://www.w3.org/2000/svg" xmlns:xlink="http://www.w3.org/1999/xlink" x="0px" y="0px"
	 width="130px" height="130px" viewBox="0 0 130 130" enable-background="new 0 0 130 130" xml:space="preserve">
<rect fill="none" width="130" height="130"/>
<g>
	<g>
		<path fill="#FDB813" d="M118.028,57.891c-8.2,0-14.87-6.66-14.87-14.843c0-1.895,0.371-3.698,1.021-5.366H32.802l-6.279-9.957
			H5.495C3.025,27.725,1,29.76,1,32.235v1.685c0,2.483,2.025,4.511,4.495,4.511h13.713c-0.327,0.489-0.3,1.179,0.149,1.948
			l23.768,39.637c0.88,1.494,3.028,2.709,4.764,2.709h56.149c1.744,0,3.749-1.285,4.495-2.855l10.285-22.019
			C118.557,57.864,118.294,57.891,118.028,57.891z"/>
		<g>
			<path fill="#BC7708" d="M44.058,49.223v-0.689c0-1.735-1.418-3.159-3.143-3.159H39.72c-1.738,0-3.158,1.424-3.158,3.159v0.689
				c0,1.731,1.42,3.155,3.158,3.155h1.195C42.64,52.378,44.058,50.954,44.058,49.223z M49.89,60.312v-0.694
				c0-1.735-1.428-3.154-3.156-3.154h-1.201c-1.734,0-3.158,1.419-3.158,3.154v0.694c0,1.738,1.424,3.162,3.158,3.162h1.201
				C48.462,63.474,49.89,62.05,49.89,60.312z M61.349,60.312v-0.694c0-1.735-1.414-3.154-3.152-3.154h-1.197
				c-1.734,0-3.15,1.419-3.15,3.154v0.694c0,1.738,1.416,3.162,3.15,3.162h1.197C59.935,63.474,61.349,62.05,61.349,60.312z
				 M51.181,52.378h1.191c1.737,0,3.162-1.424,3.162-3.155v-0.689c0-1.735-1.425-3.159-3.162-3.159h-1.191
				c-1.725,0-3.156,1.424-3.156,3.159v0.689C48.024,50.954,49.456,52.378,51.181,52.378z M97.03,52.378h1.201
				c1.745,0,3.156-1.424,3.156-3.155v-0.689c0-1.735-1.411-3.159-3.156-3.159H97.03c-1.734,0-3.143,1.424-3.143,3.159v0.689
				C93.888,50.954,95.296,52.378,97.03,52.378z M85.565,52.378h1.211c1.735,0,3.158-1.424,3.158-3.155v-0.689
				c0-1.735-1.423-3.159-3.158-3.159h-1.211c-1.725,0-3.143,1.424-3.143,3.159v0.689C82.423,50.954,83.841,52.378,85.565,52.378z
				 M74.108,52.378h1.199c1.735,0,3.158-1.424,3.158-3.155v-0.689c0-1.735-1.423-3.159-3.158-3.159h-1.199
				c-1.73,0-3.148,1.424-3.148,3.159v0.689C70.96,50.954,72.378,52.378,74.108,52.378z M62.644,52.378h1.197
				c1.735,0,3.156-1.424,3.156-3.155v-0.689c0-1.735-1.421-3.159-3.156-3.159h-1.197c-1.734,0-3.156,1.424-3.156,3.159v0.689
				C59.487,50.954,60.909,52.378,62.644,52.378z M52.372,68.091h-1.191c-1.725,0-3.156,1.416-3.156,3.155v0.686
				c0,1.739,1.432,3.15,3.156,3.15h1.191c1.737,0,3.162-1.411,3.162-3.15v-0.686C55.534,69.507,54.109,68.091,52.372,68.091z
				 M98.231,68.091H97.03c-1.734,0-3.143,1.416-3.143,3.155v0.686c0,1.739,1.408,3.15,3.143,3.15h1.201
				c1.745,0,3.156-1.411,3.156-3.15v-0.686C101.388,69.507,99.977,68.091,98.231,68.091z M95.747,60.312v-0.694
				c0-1.735-1.418-3.154-3.152-3.154h-1.201c-1.734,0-3.158,1.419-3.158,3.154v0.694c0,1.738,1.424,3.162,3.158,3.162h1.201
				C94.329,63.474,95.747,62.05,95.747,60.312z M104.058,56.463h-1.195c-1.74,0-3.158,1.419-3.158,3.154v0.694
				c0,1.738,1.418,3.162,3.158,3.162h1.195c1.734,0,3.143-1.424,3.143-3.162v-0.694C107.2,57.882,105.792,56.463,104.058,56.463z
				 M86.776,68.091h-1.211c-1.725,0-3.143,1.416-3.143,3.155v0.686c0,1.739,1.418,3.15,3.143,3.15h1.211
				c1.735,0,3.158-1.411,3.158-3.15v-0.686C89.935,69.507,88.512,68.091,86.776,68.091z M75.308,68.091h-1.199
				c-1.73,0-3.148,1.416-3.148,3.155v0.686c0,1.739,1.418,3.15,3.148,3.15h1.199c1.735,0,3.158-1.411,3.158-3.15v-0.686
				C78.466,69.507,77.043,68.091,75.308,68.091z M72.812,60.312v-0.694c0-1.735-1.408-3.154-3.152-3.154h-1.195
				c-1.745,0-3.152,1.419-3.152,3.154v0.694c0,1.738,1.407,3.162,3.152,3.162h1.195C71.403,63.474,72.812,62.05,72.812,60.312z
				 M63.841,68.091h-1.197c-1.734,0-3.156,1.416-3.156,3.155v0.686c0,1.739,1.422,3.15,3.156,3.15h1.197
				c1.735,0,3.156-1.411,3.156-3.15v-0.686C66.997,69.507,65.576,68.091,63.841,68.091z M84.278,60.312v-0.694
				c0-1.735-1.42-3.154-3.154-3.154h-1.199c-1.736,0-3.16,1.419-3.16,3.154v0.694c0,1.738,1.424,3.162,3.16,3.162h1.199
				C82.858,63.474,84.278,62.05,84.278,60.312z"/>
		</g>
		<g>
			<path fill="#7C6A51" d="M56.95,87.973c-3.959,0-7.153,3.206-7.153,7.149c0,3.959,3.194,7.153,7.153,7.153
				c3.951,0,7.152-3.194,7.152-7.153C64.103,91.179,60.901,87.973,56.95,87.973z M98.3,87.973c-3.948,0-7.15,3.206-7.15,7.149
				c0,3.959,3.202,7.153,7.15,7.153c3.951,0,7.155-3.194,7.155-7.153C105.455,91.179,102.251,87.973,98.3,87.973z"/>
		</g>
	</g>
	<g>
		<g>
			<path fill="#7C6A51" d="M118.028,32.098c-6.053,0-10.977,4.913-10.977,10.95c0,6.041,4.924,10.954,10.977,10.954
				c6.049,0,10.972-4.913,10.972-10.954C129,37.011,124.077,32.098,118.028,32.098z"/>
		</g>
		<g>
			<path fill="#FFFFFF" d="M122.2,42.094h-3.421v-3.423c0-0.434-0.422-0.852-0.855-0.852s-0.855,0.418-0.855,0.852v3.423h-3.421
				c-0.434,0-0.856,0.418-0.856,0.852s0.423,0.859,0.856,0.859h3.421v3.419c0,0.434,0.422,0.852,0.855,0.852
				s0.855-0.418,0.855-0.852v-3.419h3.421c0.434,0,0.852-0.426,0.852-0.859S122.634,42.094,122.2,42.094z"/>
		</g>
	</g>
</g>
</svg>
