<?xml version="1.0" encoding="utf-8"?>
<!-- Generator: Adobe Illustrator 16.0.0, SVG Export Plug-In . SVG Version: 6.00 Build 0)  -->
<!DOCTYPE svg PUBLIC "-//W3C//DTD SVG 1.1//EN" "http://www.w3.org/Graphics/SVG/1.1/DTD/svg11.dtd">
<svg version="1.1" id="Layer_1" xmlns="http://www.w3.org/2000/svg" xmlns:xlink="http://www.w3.org/1999/xlink" x="0px" y="0px"
	 width="130px" height="130px" viewBox="0 0 130 130" enable-background="new 0 0 130 130" xml:space="preserve">
<rect fill="none" width="130" height="130"/>
<g>
	<g>
		<path fill="#FDB813" d="M117.903,57.327c-8.294,0-15.04-6.736-15.04-15.011c0-1.735,0.312-3.394,0.857-4.945H33.164L26.815,27.3
			H5.546C3.05,27.3,1,29.358,1,31.862v1.703c0,2.512,2.05,4.562,4.546,4.562h13.871c-0.331,0.494-0.303,1.192,0.152,1.97
			l24.036,40.089c0.89,1.511,3.062,2.739,4.817,2.739h56.792c1.763,0,3.793-1.3,4.546-2.888l10.723-22.95
			C119.642,57.235,118.784,57.327,117.903,57.327z"/>
		<g>
			<path fill="#BC7708" d="M44.551,49.043v-0.698c0-1.754-1.436-3.194-3.179-3.194h-1.208c-1.759,0-3.195,1.44-3.195,3.194v0.698
				c0,1.75,1.437,3.19,3.195,3.19h1.208C43.115,52.234,44.551,50.794,44.551,49.043z M50.449,60.258v-0.702
				c0-1.755-1.443-3.19-3.194-3.19h-1.213c-1.755,0-3.194,1.436-3.194,3.19v0.702c0,1.759,1.439,3.198,3.194,3.198h1.213
				C49.006,63.457,50.449,62.017,50.449,60.258z M62.039,60.258v-0.702c0-1.755-1.432-3.19-3.19-3.19H57.64
				c-1.755,0-3.187,1.436-3.187,3.19v0.702c0,1.759,1.432,3.198,3.187,3.198h1.209C60.607,63.457,62.039,62.017,62.039,60.258z
				 M51.753,52.234h1.205c1.759,0,3.198-1.44,3.198-3.19v-0.698c0-1.754-1.439-3.194-3.198-3.194h-1.205
				c-1.742,0-3.19,1.44-3.19,3.194v0.698C48.562,50.794,50.011,52.234,51.753,52.234z M98.128,52.234h1.212
				c1.767,0,3.194-1.44,3.194-3.19v-0.698c0-1.754-1.428-3.194-3.194-3.194h-1.212c-1.755,0-3.179,1.44-3.179,3.194v0.698
				C94.949,50.794,96.373,52.234,98.128,52.234z M86.53,52.234h1.225c1.754,0,3.194-1.44,3.194-3.19v-0.698
				c0-1.754-1.44-3.194-3.194-3.194H86.53c-1.743,0-3.179,1.44-3.179,3.194v0.698C83.352,50.794,84.787,52.234,86.53,52.234z
				 M74.944,52.234h1.213c1.755,0,3.194-1.44,3.194-3.19v-0.698c0-1.754-1.439-3.194-3.194-3.194h-1.213
				c-1.751,0-3.187,1.44-3.187,3.194v0.698C71.758,50.794,73.193,52.234,74.944,52.234z M63.347,52.234h1.213
				c1.755,0,3.19-1.44,3.19-3.19v-0.698c0-1.754-1.436-3.194-3.19-3.194h-1.213c-1.755,0-3.19,1.44-3.19,3.194v0.698
				C60.156,50.794,61.592,52.234,63.347,52.234z M52.958,68.127h-1.205c-1.742,0-3.19,1.432-3.19,3.19v0.694
				c0,1.758,1.448,3.186,3.19,3.186h1.205c1.759,0,3.198-1.428,3.198-3.186v-0.694C56.156,69.559,54.717,68.127,52.958,68.127z
				 M99.34,68.127h-1.212c-1.755,0-3.179,1.432-3.179,3.19v0.694c0,1.758,1.424,3.186,3.179,3.186h1.212
				c1.767,0,3.194-1.428,3.194-3.186v-0.694C102.534,69.559,101.106,68.127,99.34,68.127z M96.827,60.258v-0.702
				c0-1.755-1.432-3.19-3.187-3.19h-1.216c-1.755,0-3.194,1.436-3.194,3.19v0.702c0,1.759,1.439,3.198,3.194,3.198h1.216
				C95.396,63.457,96.827,62.017,96.827,60.258z M105.234,56.366h-1.208c-1.763,0-3.194,1.436-3.194,3.19v0.702
				c0,1.759,1.432,3.198,3.194,3.198h1.208c1.755,0,3.179-1.439,3.179-3.198v-0.702C108.413,57.801,106.989,56.366,105.234,56.366z
				 M87.755,68.127H86.53c-1.743,0-3.179,1.432-3.179,3.19v0.694c0,1.758,1.436,3.186,3.179,3.186h1.225
				c1.754,0,3.194-1.428,3.194-3.186v-0.694C90.949,69.559,89.509,68.127,87.755,68.127z M76.157,68.127h-1.213
				c-1.751,0-3.187,1.432-3.187,3.19v0.694c0,1.758,1.436,3.186,3.187,3.186h1.213c1.755,0,3.194-1.428,3.194-3.186v-0.694
				C79.352,69.559,77.912,68.127,76.157,68.127z M73.633,60.258v-0.702c0-1.755-1.424-3.19-3.191-3.19h-1.208
				c-1.763,0-3.187,1.436-3.187,3.19v0.702c0,1.759,1.424,3.198,3.187,3.198h1.208C72.209,63.457,73.633,62.017,73.633,60.258z
				 M64.56,68.127h-1.213c-1.755,0-3.19,1.432-3.19,3.19v0.694c0,1.758,1.436,3.186,3.19,3.186h1.213c1.755,0,3.19-1.428,3.19-3.186
				v-0.694C67.75,69.559,66.314,68.127,64.56,68.127z M85.229,60.258v-0.702c0-1.755-1.436-3.19-3.19-3.19h-1.212
				c-1.759,0-3.198,1.436-3.198,3.19v0.702c0,1.759,1.439,3.198,3.198,3.198h1.212C83.794,63.457,85.229,62.017,85.229,60.258z"/>
		</g>
		<g>
			<path fill="#7C6A51" d="M57.588,88.235c-4.004,0-7.234,3.242-7.234,7.23c0,4.004,3.23,7.234,7.234,7.234
				c3.996,0,7.234-3.23,7.234-7.234C64.822,91.478,61.584,88.235,57.588,88.235z M99.412,88.235c-3.996,0-7.234,3.242-7.234,7.23
				c0,4.004,3.238,7.234,7.234,7.234s7.234-3.23,7.234-7.234C106.646,91.478,103.408,88.235,99.412,88.235z"/>
		</g>
	</g>
	<g>
		<g>
			<path fill="#F15A22" d="M117.903,31.24c-6.122,0-11.102,4.969-11.102,11.075c0,6.11,4.979,11.079,11.102,11.079
				c6.117,0,11.097-4.969,11.097-11.079C129,36.209,124.021,31.24,117.903,31.24z"/>
		</g>
		<g>
			<path fill="#FFFFFF" d="M113.472,41.35c-0.438,0-0.865,0.423-0.865,0.861c0,0.439,0.427,0.87,0.865,0.87h8.65
				c0.439,0,0.861-0.431,0.861-0.87c0-0.438-0.422-0.861-0.861-0.861H113.472z"/>
		</g>
	</g>
</g>
</svg>
