<?xml version="1.0" encoding="utf-8"?>
<!-- Generator: Adobe Illustrator 16.0.0, SVG Export Plug-In . SVG Version: 6.00 Build 0)  -->
<!DOCTYPE svg PUBLIC "-//W3C//DTD SVG 1.1//EN" "http://www.w3.org/Graphics/SVG/1.1/DTD/svg11.dtd">
<svg version="1.1" id="Layer_1" xmlns="http://www.w3.org/2000/svg" xmlns:xlink="http://www.w3.org/1999/xlink" x="0px" y="0px"
	 width="130px" height="130px" viewBox="0 0 130 130" enable-background="new 0 0 130 130" xml:space="preserve">
<rect fill="none" width="130" height="130"/>
<g>
	<g>
		<path fill="#FDB813" d="M126.888,37.287H33.261l-6.372-10.101H5.56c-2.508,0-4.56,2.064-4.56,4.576v1.708
			c0,2.521,2.052,4.576,4.56,4.576h13.909c-0.332,0.496-0.304,1.196,0.152,1.977l24.112,40.209c0.892,1.516,3.072,2.748,4.832,2.748
			h56.957c1.772,0,3.805-1.304,4.561-2.896l18.641-39.901C129.472,38.587,128.651,37.287,126.888,37.287z"/>
	</g>
	<g>
		<path fill="#BC7708" d="M44.678,48.995v-0.7c0-1.76-1.437-3.204-3.188-3.204h-1.212c-1.765,0-3.204,1.444-3.204,3.204v0.7
			c0,1.756,1.439,3.2,3.204,3.2h1.212C43.241,52.195,44.678,50.751,44.678,48.995z M50.594,60.243V59.54c0-1.761-1.448-3.2-3.2-3.2
			h-1.22c-1.761,0-3.204,1.439-3.204,3.2v0.703c0,1.765,1.443,3.209,3.204,3.209h1.22C49.146,63.452,50.594,62.008,50.594,60.243z
			 M62.218,60.243V59.54c0-1.761-1.432-3.2-3.196-3.2h-1.216c-1.76,0-3.196,1.439-3.196,3.2v0.703c0,1.765,1.437,3.209,3.196,3.209
			h1.216C60.786,63.452,62.218,62.008,62.218,60.243z M51.905,52.195h1.208c1.761,0,3.208-1.444,3.208-3.2v-0.7
			c0-1.76-1.447-3.204-3.208-3.204h-1.208c-1.752,0-3.204,1.444-3.204,3.204v0.7C48.701,50.751,50.153,52.195,51.905,52.195z
			 M98.415,52.195h1.22c1.769,0,3.2-1.444,3.2-3.2v-0.7c0-1.76-1.432-3.204-3.2-3.204h-1.22c-1.761,0-3.188,1.444-3.188,3.204v0.7
			C95.227,50.751,96.654,52.195,98.415,52.195z M86.786,52.195h1.229c1.76,0,3.204-1.444,3.204-3.2v-0.7
			c0-1.76-1.444-3.204-3.204-3.204h-1.229c-1.752,0-3.188,1.444-3.188,3.204v0.7C83.599,50.751,85.034,52.195,86.786,52.195z
			 M75.162,52.195h1.216c1.761,0,3.204-1.444,3.204-3.2v-0.7c0-1.76-1.443-3.204-3.204-3.204h-1.216
			c-1.756,0-3.192,1.444-3.192,3.204v0.7C71.97,50.751,73.406,52.195,75.162,52.195z M63.534,52.195h1.212
			c1.76,0,3.204-1.444,3.204-3.2v-0.7c0-1.76-1.444-3.204-3.204-3.204h-1.212c-1.761,0-3.204,1.444-3.204,3.204v0.7
			C60.33,50.751,61.773,52.195,63.534,52.195z M53.113,68.136h-1.208c-1.752,0-3.204,1.437-3.204,3.2v0.696
			c0,1.764,1.452,3.196,3.204,3.196h1.208c1.761,0,3.208-1.433,3.208-3.196v-0.696C56.321,69.572,54.874,68.136,53.113,68.136z
			 M99.635,68.136h-1.22c-1.761,0-3.188,1.437-3.188,3.2v0.696c0,1.764,1.428,3.196,3.188,3.196h1.22c1.769,0,3.2-1.433,3.2-3.196
			v-0.696C102.835,69.572,101.403,68.136,99.635,68.136z M97.114,60.243V59.54c0-1.761-1.439-3.2-3.199-3.2h-1.217
			c-1.76,0-3.204,1.439-3.204,3.2v0.703c0,1.765,1.444,3.209,3.204,3.209h1.217C95.675,63.452,97.114,62.008,97.114,60.243z
			 M105.543,56.34h-1.212c-1.765,0-3.204,1.439-3.204,3.2v0.703c0,1.765,1.439,3.209,3.204,3.209h1.212
			c1.76,0,3.188-1.444,3.188-3.209V59.54C108.731,57.779,107.303,56.34,105.543,56.34z M111.268,45.091h-1.213
			c-1.764,0-3.204,1.444-3.204,3.204v0.7c0,1.756,1.44,3.2,3.204,3.2h1.213c1.76,0,3.203-1.444,3.203-3.2v-0.7
			C114.471,46.535,113.027,45.091,111.268,45.091z M88.015,68.136h-1.229c-1.752,0-3.188,1.437-3.188,3.2v0.696
			c0,1.764,1.436,3.196,3.188,3.196h1.229c1.76,0,3.204-1.433,3.204-3.196v-0.696C91.219,69.572,89.774,68.136,88.015,68.136z
			 M76.378,68.136h-1.216c-1.756,0-3.192,1.437-3.192,3.2v0.696c0,1.764,1.437,3.196,3.192,3.196h1.216
			c1.761,0,3.204-1.433,3.204-3.196v-0.696C79.582,69.572,78.139,68.136,76.378,68.136z M73.846,60.243V59.54
			c0-1.761-1.428-3.2-3.195-3.2h-1.213c-1.771,0-3.199,1.439-3.199,3.2v0.703c0,1.765,1.428,3.209,3.199,3.209h1.213
			C72.418,63.452,73.846,62.008,73.846,60.243z M64.746,68.136h-1.212c-1.761,0-3.204,1.437-3.204,3.2v0.696
			c0,1.764,1.443,3.196,3.204,3.196h1.212c1.76,0,3.204-1.433,3.204-3.196v-0.696C67.95,69.572,66.506,68.136,64.746,68.136z
			 M85.479,60.243V59.54c0-1.761-1.44-3.2-3.2-3.2h-1.216c-1.761,0-3.204,1.439-3.204,3.2v0.703c0,1.765,1.443,3.209,3.204,3.209
			h1.216C84.038,63.452,85.479,62.008,85.479,60.243z"/>
	</g>
	<g>
		<path fill="#7C6A51" d="M57.758,88.305c-4.017,0-7.257,3.252-7.257,7.252c0,4.017,3.24,7.257,7.257,7.257
			c4.008,0,7.256-3.24,7.256-7.257C65.014,91.557,61.766,88.305,57.758,88.305z M99.703,88.305c-4.005,0-7.253,3.252-7.253,7.252
			c0,4.017,3.248,7.257,7.253,7.257c4.008,0,7.26-3.24,7.26-7.257C106.963,91.557,103.711,88.305,99.703,88.305z"/>
	</g>
</g>
</svg>
