<?xml version="1.0" encoding="utf-8"?>
<!-- Generator: Adobe Illustrator 16.0.0, SVG Export Plug-In . SVG Version: 6.00 Build 0)  -->
<!DOCTYPE svg PUBLIC "-//W3C//DTD SVG 1.1//EN" "http://www.w3.org/Graphics/SVG/1.1/DTD/svg11.dtd">
<svg version="1.1" id="Layer_1" xmlns="http://www.w3.org/2000/svg" xmlns:xlink="http://www.w3.org/1999/xlink" x="0px" y="0px"
	 width="130px" height="130px" viewBox="0 0 130 130" enable-background="new 0 0 130 130" xml:space="preserve">
<rect fill="none" width="130" height="130"/>
<g>
	<polygon fill="#FFF6E4" points="1.123,111.697 1.123,102.645 22.505,44.296 109.64,44.296 128.792,103.087 128.792,111.697 	"/>
	<g>
		<path fill="#4BA7C4" d="M94.196,32.813c0,0.519-0.426,0.939-0.942,0.939H39.497c-0.514,0-0.94-0.421-0.94-0.939V7.624
			c0-0.52,0.426-0.94,0.94-0.94h53.757c0.517,0,0.942,0.421,0.942,0.94V32.813z"/>
		<g>
			<path fill="#E0D3BF" d="M93.254,35.413H39.497c-1.434,0-2.6-1.166-2.6-2.6V7.624c0-1.435,1.166-2.601,2.6-2.601h53.757
				c1.435,0,2.604,1.166,2.604,2.601v25.189C95.857,34.247,94.688,35.413,93.254,35.413z M40.218,32.092h52.318V8.345H40.218V32.092
				z"/>
		</g>
	</g>
	<rect x="61.154" y="33.54" fill="#E0D3BF" width="10.87" height="10.45"/>
	<g>
		<path fill="#4BA7C4" d="M51.171,78.357c-0.101,1.026-1.027,1.873-2.062,1.873H20.874c-1.038,0-1.636-0.813-1.333-1.803
			l6.987-22.835c0.303-0.988,1.398-1.803,2.431-1.803h22.723c1.035,0,1.8,0.848,1.699,1.88L51.171,78.357z"/>
		<path fill="#D1C9B4" d="M108.812,68.168c0.3,0.995-0.298,1.804-1.333,1.804H61.643c-1.038,0-1.847-0.847-1.803-1.879l0.546-12.652
			c0.044-1.033,0.926-1.88,1.964-1.88H102.5c1.035,0,2.128,0.809,2.428,1.804L108.812,68.168z"/>
		<path fill="#D1C9B4" d="M67.308,79.586c0.009,0.519-0.415,0.939-0.932,0.939h-6.128c-0.516,0-0.923-0.421-0.899-0.939l0.2-4.726
			c0.025-0.52,0.467-0.939,0.983-0.939h5.788c0.517,0,0.942,0.42,0.95,0.939L67.308,79.586z"/>
		<path fill="#D1C9B4" d="M82.302,79.592c0.054,0.513-0.323,0.934-0.84,0.934h-6.134c-0.517,0-0.965-0.421-0.992-0.939l-0.259-4.726
			c-0.03-0.52,0.371-0.939,0.888-0.939h5.787c0.517,0,0.986,0.42,1.041,0.934L82.302,79.592z"/>
		<path fill="#D1C9B4" d="M112.292,79.624c0.147,0.497-0.153,0.901-0.669,0.901h-6.135c-0.514,0-1.043-0.409-1.17-0.906
			l-1.198-4.791c-0.129-0.498,0.193-0.907,0.71-0.907h5.791c0.514,0,1.062,0.404,1.213,0.901L112.292,79.624z"/>
		<path fill="#D1C9B4" d="M67.431,92.806c0.008,0.514-0.414,0.94-0.928,0.94h-6.827c-0.516,0-0.92-0.422-0.898-0.94l0.202-4.725
			c0.022-0.52,0.464-0.94,0.98-0.94h6.479c0.517,0,0.942,0.421,0.951,0.94L67.431,92.806z"/>
		<path fill="#D1C9B4" d="M83.718,92.812c0.056,0.513-0.324,0.935-0.838,0.935h-6.825c-0.517,0-0.965-0.422-0.992-0.94l-0.259-4.725
			c-0.03-0.52,0.371-0.94,0.888-0.94h6.479c0.513,0,0.986,0.421,1.04,0.935L83.718,92.812z"/>
		<path fill="#D1C9B4" d="M97.291,79.608c0.109,0.502-0.232,0.917-0.749,0.917h-6.134c-0.517,0-1.006-0.415-1.082-0.929L88.6,74.849
			c-0.08-0.513,0.281-0.928,0.798-0.928h5.788c0.516,0,1.023,0.415,1.128,0.918L97.291,79.608z"/>
		<path fill="#D1C9B4" d="M100.009,92.828c0.104,0.502-0.237,0.918-0.751,0.918h-6.823c-0.517,0-1.005-0.416-1.082-0.93
			l-0.726-4.747c-0.08-0.513,0.28-0.929,0.797-0.929h6.479c0.514,0,1.024,0.416,1.128,0.918L100.009,92.828z"/>
		<path fill="#D1C9B4" d="M116.308,92.844c0.147,0.497-0.153,0.902-0.669,0.902h-6.826c-0.517,0-1.044-0.41-1.169-0.913
			l-1.202-4.779c-0.126-0.503,0.196-0.913,0.71-0.913h6.479c0.516,0,1.065,0.404,1.212,0.901L116.308,92.844z"/>
	</g>
	<path fill="#E0D3BF" d="M1,102.858v17.41c0,2.589,2.117,4.708,4.703,4.708h118.594c2.586,0,4.703-2.119,4.703-4.708l-0.035-17.41H1
		z"/>
	<g>
		<path fill="#B7AC95" d="M74.139,115.969H51.315c-0.917,0-1.657-0.737-1.657-1.655s0.74-1.661,1.657-1.661h22.823
			c0.918,0,1.661,0.743,1.661,1.661S75.057,115.969,74.139,115.969z"/>
	</g>
</g>
</svg>
