<?xml version="1.0" encoding="utf-8"?>
<!-- Generator: Adobe Illustrator 16.0.0, SVG Export Plug-In . SVG Version: 6.00 Build 0)  -->
<!DOCTYPE svg PUBLIC "-//W3C//DTD SVG 1.1//EN" "http://www.w3.org/Graphics/SVG/1.1/DTD/svg11.dtd">
<svg version="1.1" id="Layer_1" xmlns="http://www.w3.org/2000/svg" xmlns:xlink="http://www.w3.org/1999/xlink" x="0px" y="0px"
	 width="130px" height="130px" viewBox="0 0 130 130" enable-background="new 0 0 130 130" xml:space="preserve">
<rect fill="none" width="130" height="130"/>
<g>
	<path fill="#7C6A51" d="M12.036,30.977H2.902C1.849,30.977,1,31.697,1,32.582c0,0.887,0.849,1.609,1.902,1.609h9.134
		c1.047,0,1.896-0.723,1.896-1.609C13.932,31.697,13.083,30.977,12.036,30.977z M12.036,56.877H2.902
		C1.849,56.877,1,57.606,1,58.506s0.849,1.629,1.902,1.629h9.134c1.047,0,1.896-0.729,1.896-1.629S13.083,56.877,12.036,56.877z
		 M12.036,81.2H2.902C1.849,81.2,1,81.932,1,82.831c0,0.9,0.849,1.631,1.902,1.631h9.134c1.047,0,1.896-0.73,1.896-1.631
		C13.932,81.932,13.083,81.2,12.036,81.2z M12.036,5.023H2.902C1.849,5.023,1,5.754,1,6.656c0,0.899,0.849,1.629,1.902,1.629h9.134
		c1.047,0,1.896-0.729,1.896-1.629C13.932,5.754,13.083,5.023,12.036,5.023z M12.036,105.529H2.902
		c-1.053,0-1.902,0.723-1.902,1.608c0,0.888,0.849,1.609,1.902,1.609h9.134c1.047,0,1.896-0.722,1.896-1.609
		C13.932,106.252,13.083,105.529,12.036,105.529z M120.925,116.865c-0.894,0-1.604,0.75-1.604,1.675v8.021
		c0,0.923,0.711,1.67,1.604,1.67c0.882,0,1.604-0.747,1.604-1.67v-8.021C122.528,117.615,121.807,116.865,120.925,116.865z
		 M20.425,116.865c-0.893,0-1.609,0.75-1.609,1.675v8.021c0,0.923,0.717,1.67,1.609,1.67c0.883,0,1.604-0.747,1.604-1.67v-8.021
		C22.029,117.615,21.308,116.865,20.425,116.865z M123.879,103.889H25.568L25.314,6.917c0-2.842-1.808-5.147-4.636-5.147
		c-2.833,0-5.109,2.293-5.109,5.121v101.613c0,2.829,2.276,5.12,5.109,5.12h103.217c2.816,0,5.104-2.291,5.104-5.12
		C129,105.676,126.707,103.889,123.879,103.889z M96.599,116.865c-0.893,0-1.604,0.75-1.604,1.675v8.021
		c0,0.923,0.711,1.67,1.604,1.67c0.888,0,1.61-0.747,1.61-1.67v-8.021C98.209,117.615,97.486,116.865,96.599,116.865z
		 M70.669,116.865c-0.898,0-1.626,0.75-1.626,1.675v8.021c0,0.923,0.728,1.67,1.626,1.67s1.632-0.747,1.632-1.67v-8.021
		C72.301,117.615,71.567,116.865,70.669,116.865z M46.344,116.865c-0.904,0-1.626,0.75-1.626,1.675v8.021
		c0,0.923,0.722,1.67,1.626,1.67c0.898,0,1.632-0.747,1.632-1.67v-8.021C47.976,117.615,47.242,116.865,46.344,116.865z"/>
	<polyline fill="none" stroke="#7C6A51" stroke-width="7.5446" stroke-miterlimit="10" points="41.829,86.078 70.466,55.343 
		107.86,54.082 119.051,11.782 	"/>
	<path fill="#4A8CAE" d="M49.883,83.971c1.295,4.539-1.334,9.282-5.871,10.58c-4.542,1.298-9.282-1.334-10.577-5.876
		c-1.296-4.542,1.333-9.277,5.87-10.574C43.853,76.801,48.587,79.431,49.883,83.971z"/>
	<path fill="#8DA552" d="M78.85,53.12c1.295,4.541-1.334,9.277-5.871,10.573c-4.542,1.295-9.276-1.33-10.577-5.875
		c-1.29-4.535,1.334-9.271,5.876-10.568S77.549,48.581,78.85,53.12z"/>
	<path fill="#FDB813" d="M115.875,51.423c1.301,4.54-1.328,9.275-5.87,10.573c-4.537,1.297-9.277-1.334-10.572-5.871
		c-1.301-4.545,1.334-9.276,5.876-10.577C109.845,44.25,114.58,46.882,115.875,51.423z"/>
	<path fill="#F15A22" d="M127.341,9.428c1.295,4.54-1.34,9.271-5.876,10.572c-4.542,1.296-9.271-1.33-10.572-5.873
		c-1.296-4.541,1.328-9.276,5.87-10.574C121.305,2.258,126.034,4.884,127.341,9.428z"/>
</g>
</svg>
