<?xml version="1.0" encoding="utf-8"?>
<!-- Generator: Adobe Illustrator 16.0.0, SVG Export Plug-In . SVG Version: 6.00 Build 0)  -->
<!DOCTYPE svg PUBLIC "-//W3C//DTD SVG 1.1//EN" "http://www.w3.org/Graphics/SVG/1.1/DTD/svg11.dtd">
<svg version="1.1" id="Layer_1" xmlns="http://www.w3.org/2000/svg" xmlns:xlink="http://www.w3.org/1999/xlink" x="0px" y="0px"
	 width="130px" height="130px" viewBox="0 0 130 130" enable-background="new 0 0 130 130" xml:space="preserve">
<rect fill="none" width="130" height="130"/>
<g>
	<path fill="#FDB813" d="M124.588,35.165c-2.264-0.223-4.263,1.859-4.283,4.207l-0.041,3.51L88.469,7.738
		c-0.775-0.858-1.863-1.36-3.013-1.392c-1.126-0.022-2.264,0.406-3.088,1.213L44.986,44.33L8.091,10.448
		c-1.718-1.586-4.406-1.47-5.981,0.267c-1.582,1.731-1.457,4.422,0.27,6.008l39.849,36.606c1.66,1.525,4.214,1.476,5.828-0.1
		l37.098-36.503L113.989,48.6l-3.48-0.296c-2.315-0.2-4.382,1.54-4.577,3.88c-0.194,2.339,1.53,4.398,3.866,4.597l14.225,1.209
		l0.354,0.013c1.057,0,2.067-0.389,2.856-1.103c0.865-0.795,1.373-1.921,1.385-3.103l0.159-14.331
		C128.8,37.117,126.925,35.194,124.588,35.165z"/>
	<path fill="#7C6A51" d="M54.001,121.479c0,1.196-0.981,2.176-2.177,2.176h-9.21c-1.195,0-2.177-0.979-2.177-2.176V73.447
		c0-1.196,0.981-2.176,2.177-2.176h9.21c1.195,0,2.177,0.979,2.177,2.176V121.479z"/>
	<path fill="#7C6A51" d="M91.502,121.479c0,1.196-0.981,2.176-2.177,2.176h-9.209c-1.196,0-2.177-0.979-2.177-2.176V43.853
		c0-1.197,0.98-2.177,2.177-2.177h9.209c1.195,0,2.177,0.979,2.177,2.177V121.479z"/>
	<path fill="#7C6A51" d="M16.499,121.479c0,1.196-0.978,2.176-2.177,2.176H5.116c-1.198,0-2.177-0.979-2.177-2.176V47.691
		c0-1.197,0.979-2.177,2.177-2.177h9.206c1.199,0,2.177,0.979,2.177,2.177V121.479z"/>
	<path fill="#7C6A51" d="M129,121.479c0,1.196-0.979,2.176-2.177,2.176h-9.209c-1.196,0-2.174-0.979-2.174-2.176V77.999
		c0-1.197,0.978-2.175,2.174-2.175h9.209c1.198,0,2.177,0.978,2.177,2.175V121.479z"/>
	<path fill="#7C6A51" d="M110.251,121.479c0,1.196-0.981,2.176-2.177,2.176h-9.209c-1.196,0-2.177-0.979-2.177-2.176V73.651
		c0-1.197,0.98-2.177,2.177-2.177h9.209c1.195,0,2.177,0.979,2.177,2.177V121.479z"/>
	<path fill="#7C6A51" d="M35.248,121.479c0,1.196-0.978,2.176-2.174,2.176h-9.209c-1.198,0-2.177-0.979-2.177-2.176v-56.27
		c0-1.197,0.979-2.177,2.177-2.177h9.209c1.196,0,2.174,0.979,2.174,2.177V121.479z"/>
	<path fill="#7C6A51" d="M72.75,121.479c0,1.196-0.979,2.176-2.177,2.176h-9.21c-1.192,0-2.174-0.979-2.174-2.176V60.814
		c0-1.196,0.981-2.175,2.174-2.175h9.21c1.198,0,2.177,0.979,2.177,2.175V121.479z"/>
</g>
</svg>
