<?xml version="1.0" encoding="utf-8"?>
<!-- Generator: Adobe Illustrator 16.0.0, SVG Export Plug-In . SVG Version: 6.00 Build 0)  -->
<!DOCTYPE svg PUBLIC "-//W3C//DTD SVG 1.1//EN" "http://www.w3.org/Graphics/SVG/1.1/DTD/svg11.dtd">
<svg version="1.1" id="Layer_1" xmlns="http://www.w3.org/2000/svg" xmlns:xlink="http://www.w3.org/1999/xlink" x="0px" y="0px"
	 width="130px" height="130px" viewBox="0 0 130 130" enable-background="new 0 0 130 130" xml:space="preserve">
<rect fill="none" width="130" height="130"/>
<g>
	<g>
		<rect x="14.03" y="14.035" fill="#FFF6E4" width="101.94" height="68.048"/>
		<path fill="#7C6A51" d="M113.798,16.207v63.704H16.202V16.207H113.798 M118.143,11.862h-4.345H16.202h-4.345v4.345v63.704v4.345
			h4.345h97.596h4.345v-4.345V16.207V11.862L118.143,11.862z"/>
	</g>
	<path fill="#7C6A51" d="M4.922,17.539l120.123,0.02c2.168,0,3.927-1.812,3.927-4.048c0-2.233-1.759-4.047-3.924-4.047L4.925,9.443
		C2.752,9.443,1,11.256,1,13.49C0.998,15.725,2.752,17.539,4.922,17.539z M125.075,79.92L4.955,79.899
		c-2.175,0-3.927,1.82-3.927,4.068c0,2.246,1.752,4.069,3.927,4.069l120.12,0.022c2.165,0,3.925-1.824,3.925-4.071
		C129.002,81.742,127.245,79.92,125.075,79.92z"/>
	<g>
		<path fill="#7C6A51" d="M48.825,93.267l-20.68,20.536c-1.536,1.53-1.555,4.025-0.03,5.573c0.773,0.777,1.78,1.167,2.795,1.167
			c0.995,0.003,1.998-0.376,2.762-1.137l20.68-20.536c1.543-1.53,1.558-4.028,0.03-5.573C52.856,91.753,50.364,91.731,48.825,93.267
			z"/>
		<path fill="#7C6A51" d="M99.085,120.557c1.02,0,2.026-0.39,2.795-1.169c1.527-1.544,1.513-4.041-0.025-5.573L81.19,93.273
			c-1.545-1.537-4.033-1.517-5.565,0.025c-1.527,1.546-1.506,4.043,0.03,5.575"/>
	</g>
	<path fill="#7C6A51" d="M88.119,34.766c-1.04,0.104-1.959-0.854-1.966-1.935l-0.019-1.614l-14.622,16.16
		c-0.355,0.395-0.856,0.625-1.388,0.641c-0.518,0.011-1.04-0.187-1.418-0.559L51.516,30.551l-16.964,15.58
		c-0.789,0.729-2.024,0.676-2.751-0.122c-0.724-0.796-0.67-2.034,0.123-2.764L50.25,26.414c0.764-0.702,1.938-0.68,2.679,0.045
		L69.99,43.244l13.26-14.655l-1.604,0.136c-1.062,0.092-2.015-0.709-2.103-1.783c-0.091-1.077,0.701-2.023,1.778-2.116l6.54-0.555
		l0.162-0.007c0.485,0,0.949,0.179,1.314,0.507c0.396,0.366,0.629,0.885,0.636,1.428l0.071,6.589
		C90.06,33.868,89.196,34.752,88.119,34.766z"/>
	<rect x="31.075" y="57.133" fill="#EDE3D0" width="0.777" height="0.26"/>
	<path fill="#CB5A7C" d="M37.831,72.292c0,0.55-0.45,1-1,1h-4.236c-0.55,0-1-0.45-1-1V58.394c0-0.551,0.45-1.001,1-1.001h4.236
		c0.55,0,1,0.45,1,1.001V72.292z"/>
	<path fill="#79769D" d="M46.925,72.292c0,0.55-0.453,1-1.003,1h-4.233c-0.553,0-1.003-0.45-1.003-1V51.638
		c0-0.551,0.45-1.001,1.003-1.001h4.233c0.55,0,1.003,0.45,1.003,1.001V72.292z"/>
	<path fill="#4A8CAE" d="M56.014,72.292c0,0.55-0.45,1-0.998,1h-4.238c-0.548,0-0.998-0.45-0.998-1V43.323c0-0.55,0.45-1,0.998-1
		h4.238c0.548,0,0.998,0.45,0.998,1V72.292z"/>
	<path fill="#3FAA96" d="M65.109,72.292c0,0.55-0.453,1-1.003,1h-4.233c-0.553,0-1.003-0.45-1.003-1V52.417
		c0-0.551,0.45-1.001,1.003-1.001h4.233c0.55,0,1.003,0.45,1.003,1.001V72.292z"/>
	<path fill="#8DA552" d="M74.2,72.292c0,0.55-0.45,1-1,1h-4.236c-0.55,0-1-0.45-1-1V58.394c0-0.551,0.45-1.001,1-1.001H73.2
		c0.55,0,1,0.45,1,1.001V72.292z"/>
	<path fill="#FDB813" d="M83.294,72.292c0,0.55-0.453,1-1.003,1h-4.233c-0.55,0-1-0.45-1-1V51.379c0-0.55,0.45-1.001,1-1.001h4.233
		c0.55,0,1.003,0.451,1.003,1.001V72.292z"/>
	<path fill="#F15A22" d="M92.383,72.292c0,0.55-0.448,1-0.998,1h-4.236c-0.548,0-0.998-0.45-0.998-1V46.183c0-0.55,0.45-1,0.998-1
		h4.236c0.55,0,0.998,0.45,0.998,1V72.292z"/>
</g>
</svg>
