<?xml version="1.0" encoding="utf-8"?>
<!-- Generator: Adobe Illustrator 16.0.0, SVG Export Plug-In . SVG Version: 6.00 Build 0)  -->
<!DOCTYPE svg PUBLIC "-//W3C//DTD SVG 1.1//EN" "http://www.w3.org/Graphics/SVG/1.1/DTD/svg11.dtd">
<svg version="1.1" id="Layer_1" xmlns="http://www.w3.org/2000/svg" xmlns:xlink="http://www.w3.org/1999/xlink" x="0px" y="0px"
	 width="130px" height="130px" viewBox="0 0 130 130" enable-background="new 0 0 130 130" xml:space="preserve">
<rect fill="none" width="130" height="130"/>
<g>
	<path fill="#FDB813" d="M120.065,29.049c-2.179,0.215-4.109-1.792-4.118-4.054l-0.044-3.383L85.272,55.471
		c-0.746,0.826-1.798,1.312-2.911,1.344c-1.08,0.019-2.176-0.393-2.968-1.171L43.372,20.217L7.831,52.859
		c-1.654,1.529-4.24,1.419-5.762-0.255c-1.519-1.669-1.406-4.264,0.26-5.788l38.392-35.269c1.6-1.47,4.064-1.424,5.611,0.098
		l35.747,35.166l27.784-30.706l-3.358,0.284c-2.23,0.191-4.222-1.484-4.412-3.736c-0.185-2.257,1.476-4.24,3.729-4.433l13.701-1.163
		l0.34-0.014c1.018,0,1.992,0.374,2.756,1.063c0.83,0.763,1.32,1.851,1.331,2.987l0.15,13.808
		C124.126,27.166,122.319,29.019,120.065,29.049z"/>
	<path fill="#CB5A7C" d="M14.701,120.859c0,1.154-0.945,2.097-2.101,2.097H3.732c-1.156,0-2.101-0.942-2.101-2.097V75.599
		c0-1.15,0.945-2.096,2.101-2.096H12.6c1.156,0,2.101,0.945,2.101,2.096V120.859z"/>
	<path fill="#79769D" d="M33.749,120.859c0,1.154-0.948,2.097-2.095,2.097H22.78c-1.156,0-2.096-0.942-2.096-2.097V61.445
		c0-1.151,0.939-2.097,2.096-2.097h8.874c1.146,0,2.095,0.945,2.095,2.097V120.859z"/>
	<path fill="#4A8CAE" d="M52.794,120.859c0,1.154-0.939,2.097-2.089,2.097h-8.88c-1.15,0-2.093-0.942-2.093-2.097V44.024
		c0-1.151,0.942-2.097,2.093-2.097h8.88c1.149,0,2.089,0.945,2.089,2.097V120.859z"/>
	<path fill="#3FAA96" d="M71.854,120.859c0,1.154-0.945,2.097-2.098,2.097h-8.874c-1.153,0-2.096-0.942-2.096-2.097V63.077
		c0-1.148,0.942-2.096,2.096-2.096h8.874c1.152,0,2.098,0.947,2.098,2.096V120.859z"/>
	<path fill="#8DA552" d="M90.904,120.859c0,1.154-0.939,2.097-2.099,2.097H79.93c-1.153,0-2.093-0.942-2.093-2.097V75.599
		c0-1.15,0.939-2.096,2.093-2.096h8.876c1.159,0,2.099,0.945,2.099,2.096V120.859z"/>
	<path fill="#FDB813" d="M109.955,120.859c0,1.154-0.948,2.097-2.102,2.097h-8.868c-1.152,0-2.095-0.942-2.095-2.097V60.902
		c0-1.151,0.942-2.097,2.095-2.097h8.868c1.153,0,2.102,0.945,2.102,2.097V120.859z"/>
	<path fill="#F15A22" d="M129,120.859c0,1.154-0.945,2.097-2.099,2.097h-8.865c-1.152,0-2.098-0.942-2.098-2.097V50.016
		c0-1.15,0.945-2.095,2.098-2.095h8.865c1.153,0,2.099,0.944,2.099,2.095V120.859z"/>
</g>
</svg>
