<?xml version="1.0" encoding="utf-8"?>
<!-- Generator: Adobe Illustrator 16.0.0, SVG Export Plug-In . SVG Version: 6.00 Build 0)  -->
<!DOCTYPE svg PUBLIC "-//W3C//DTD SVG 1.1//EN" "http://www.w3.org/Graphics/SVG/1.1/DTD/svg11.dtd">
<svg version="1.1" id="Layer_1" xmlns="http://www.w3.org/2000/svg" xmlns:xlink="http://www.w3.org/1999/xlink" x="0px" y="0px"
	 width="130px" height="130px" viewBox="0 0 130 130" enable-background="new 0 0 130 130" xml:space="preserve">
<rect fill="none" width="130" height="130"/>
<g>
	<path fill="#7C6A51" d="M122.793,44.016h-7.551v-5.446c0-6.771-5.573-12.306-12.393-12.306H13.408C6.589,26.264,1,31.799,1,38.569
		v52.862c0,6.775,5.589,12.305,12.408,12.305h89.441c6.819,0,12.393-5.529,12.393-12.305v-5.445h7.551
		c3.401,0,6.207-2.768,6.207-6.151V50.168C129,46.791,126.194,44.016,122.793,44.016z"/>
	<path fill="#28BB9C" d="M95.397,35.696H17.669c-3.379,0-6.146,2.806-6.146,6.231v46.155c0,3.42,2.767,6.227,6.146,6.227h77.728
		c3.391,0,6.168-2.807,6.168-6.227V41.928C101.565,38.502,98.788,35.696,95.397,35.696z"/>
	<path fill="#FFF6E4" d="M95.397,35.696H17.669c-3.379,0-6.146,2.806-6.146,6.231v46.155c0,3.42,2.767,6.227,6.146,6.227h77.728
		c3.391,0,6.168-2.807,6.168-6.227V41.928C101.565,38.502,98.788,35.696,95.397,35.696z"/>
	<path fill="#C1BAA7" d="M56.277,46.189H45.715c-2.045,0-3.709,1.656-3.709,3.694V80.12c0,2.034,1.665,3.698,3.709,3.698h10.562
		c2.051,0,3.726-1.664,3.726-3.698V49.884C60.003,47.846,58.328,46.189,56.277,46.189z"/>
	<path fill="#C1BAA7" d="M78.216,46.189H67.654c-2.045,0-3.71,1.656-3.71,3.694V80.12c0,2.034,1.665,3.698,3.71,3.698h10.562
		c2.05,0,3.726-1.664,3.726-3.698V49.884C81.941,47.846,80.266,46.189,78.216,46.189z"/>
	<path fill="#E2574C" d="M34.338,46.189H23.771c-2.045,0-3.705,1.656-3.705,3.694V80.12c0,2.034,1.66,3.698,3.705,3.698h10.566
		c2.05,0,3.727-1.664,3.727-3.698V49.884C38.064,47.846,36.388,46.189,34.338,46.189z"/>
</g>
</svg>
