<?xml version="1.0" encoding="utf-8"?>
<!-- Generator: Adobe Illustrator 16.0.0, SVG Export Plug-In . SVG Version: 6.00 Build 0)  -->
<!DOCTYPE svg PUBLIC "-//W3C//DTD SVG 1.1//EN" "http://www.w3.org/Graphics/SVG/1.1/DTD/svg11.dtd">
<svg version="1.1" id="Layer_1" xmlns="http://www.w3.org/2000/svg" xmlns:xlink="http://www.w3.org/1999/xlink" x="0px" y="0px"
	 width="130px" height="130px" viewBox="0 0 130 130" enable-background="new 0 0 130 130" xml:space="preserve">
<rect fill="none" width="130" height="130"/>
<g>
	<path fill="#FDB813" d="M104.823,44.085c-1.472,0.146-2.781-1.214-2.786-2.743l-0.03-2.292L81.268,61.974
		c-0.505,0.56-1.219,0.889-1.971,0.909c-0.733,0.014-1.472-0.265-2.01-0.791L52.899,38.104L28.833,60.207
		c-1.116,1.033-2.869,0.959-3.899-0.174c-1.028-1.13-0.951-2.887,0.176-3.919l25.995-23.879c1.083-0.995,2.751-0.963,3.798,0.066
		l24.204,23.81l18.811-20.79l-2.274,0.192c-1.51,0.13-2.857-1.004-2.984-2.529c-0.127-1.528,0.997-2.871,2.521-3.002l9.277-0.787
		l0.231-0.008c0.688,0,1.348,0.252,1.865,0.72c0.56,0.517,0.894,1.252,0.901,2.022l0.103,9.348
		C107.574,42.811,106.351,44.064,104.823,44.085z"/>
	<path fill="#CB5A7C" d="M33.488,110.242c0,0.781-0.64,1.419-1.423,1.419h-6.005c-0.783,0-1.422-0.638-1.422-1.419V77.601
		c0-0.78,0.639-1.42,1.422-1.42h6.005c0.783,0,1.423,0.64,1.423,1.42V110.242z"/>
	<path fill="#79769D" d="M46.384,110.242c0,0.781-0.643,1.419-1.42,1.419h-6.005c-0.786,0-1.42-0.638-1.42-1.419V68.018
		c0-0.78,0.634-1.419,1.42-1.419h6.005c0.777,0,1.42,0.639,1.42,1.419V110.242z"/>
	<path fill="#4A8CAE" d="M59.276,110.242c0,0.781-0.634,1.419-1.411,1.419h-6.014c-0.777,0-1.416-0.638-1.416-1.419V56.222
		c0-0.778,0.639-1.419,1.416-1.419h6.014c0.777,0,1.411,0.641,1.411,1.419V110.242z"/>
	<path fill="#3FAA96" d="M72.184,110.242c0,0.781-0.643,1.419-1.423,1.419h-6.008c-0.78,0-1.42-0.638-1.42-1.419V69.121
		c0-0.776,0.64-1.418,1.42-1.418h6.008c0.78,0,1.423,0.642,1.423,1.418V110.242z"/>
	<path fill="#8DA552" d="M85.079,110.242c0,0.781-0.634,1.419-1.42,1.419h-6.008c-0.78,0-1.417-0.638-1.417-1.419V77.601
		c0-0.78,0.637-1.42,1.417-1.42h6.008c0.786,0,1.42,0.64,1.42,1.42V110.242z"/>
	<path fill="#FDB813" d="M97.98,110.242c0,0.781-0.643,1.419-1.423,1.419h-6.005c-0.78,0-1.42-0.638-1.42-1.419V67.649
		c0-0.778,0.64-1.419,1.42-1.419h6.005c0.78,0,1.423,0.641,1.423,1.419V110.242z"/>
	<path fill="#F15A22" d="M110.873,110.242c0,0.781-0.64,1.419-1.42,1.419h-6.002c-0.783,0-1.42-0.638-1.42-1.419V60.278
		c0-0.778,0.637-1.418,1.42-1.418h6.002c0.78,0,1.42,0.64,1.42,1.418V110.242z"/>
	<path fill="#7C6A51" d="M9.668,110.397v-95.13c0-2.392-1.94-4.331-4.333-4.331C2.94,10.937,1,12.876,1,15.268v99.463
		c0,2.395,1.94,4.333,4.335,4.333h119.332c2.395,0,4.333-1.938,4.333-4.333c0-2.39-1.938-4.333-4.333-4.333H9.668z"/>
</g>
</svg>
