<?xml version="1.0" encoding="utf-8"?>
<!-- Generator: Adobe Illustrator 16.0.0, SVG Export Plug-In . SVG Version: 6.00 Build 0)  -->
<!DOCTYPE svg PUBLIC "-//W3C//DTD SVG 1.1//EN" "http://www.w3.org/Graphics/SVG/1.1/DTD/svg11.dtd">
<svg version="1.1" id="Layer_1" xmlns="http://www.w3.org/2000/svg" xmlns:xlink="http://www.w3.org/1999/xlink" x="0px" y="0px"
	 width="130px" height="130px" viewBox="0 0 130 130" enable-background="new 0 0 130 130" xml:space="preserve">
<rect fill="none" width="130" height="130"/>
<g>
	<g>
		<rect x="14.032" y="14.035" fill="#FFF6E4" width="101.936" height="68.048"/>
		<path fill="#7C6A51" d="M113.796,16.207v63.704H16.204V16.207H113.796 M118.141,11.862h-4.345H16.204h-4.345v4.345v63.704v4.345
			h4.345h97.592h4.345v-4.345V16.207V11.862L118.141,11.862z"/>
	</g>
	<path fill="#7C6A51" d="M4.925,17.539l120.118,0.02c2.17,0,3.927-1.812,3.927-4.048c0-2.232-1.757-4.047-3.925-4.047L4.925,9.443
		C2.752,9.443,1,11.256,1,13.49C0.998,15.725,2.752,17.539,4.925,17.539z M125.075,79.919L4.957,79.899
		C2.78,79.897,1.03,81.72,1.03,83.968c0,2.247,1.75,4.069,3.927,4.069l120.118,0.022c2.163,0,3.925-1.824,3.925-4.071
		C129.002,81.742,127.243,79.919,125.075,79.919z"/>
	<g>
		<path fill="#7C6A51" d="M48.828,93.267l-20.68,20.534c-1.539,1.529-1.558,4.027-0.033,5.575c0.773,0.777,1.783,1.167,2.795,1.167
			c0.998,0,2.001-0.376,2.762-1.137l20.68-20.536c1.543-1.53,1.558-4.028,0.03-5.575C52.856,91.752,50.364,91.731,48.828,93.267z"/>
		<path fill="#7C6A51" d="M81.19,93.274c-1.543-1.538-4.033-1.518-5.565,0.024c-1.524,1.546-1.509,4.043,0.03,5.573l20.659,20.543
			c0.768,0.762,1.772,1.142,2.771,1.142c1.02,0,2.026-0.39,2.795-1.169c1.527-1.544,1.513-4.041-0.028-5.573L81.19,93.274z"/>
	</g>
	<polyline fill="none" stroke="#7C6A51" stroke-width="3.2585" stroke-linejoin="round" stroke-miterlimit="10" points="
		26.242,68.522 50.012,42.366 74.188,46.993 100.515,29.353 	"/>
	<circle fill="#4A8CAE" cx="26.242" cy="68.521" r="4.618"/>
	<circle fill="#8DA552" cx="50.052" cy="42.407" r="4.618"/>
	<circle fill="#FDB813" cx="75.281" cy="45.672" r="4.618"/>
	<circle fill="#F15A22" cx="100.353" cy="29.847" r="4.619"/>
</g>
</svg>
