<?xml version="1.0" encoding="utf-8"?>
<!-- Generator: Adobe Illustrator 16.0.0, SVG Export Plug-In . SVG Version: 6.00 Build 0)  -->
<!DOCTYPE svg PUBLIC "-//W3C//DTD SVG 1.1//EN" "http://www.w3.org/Graphics/SVG/1.1/DTD/svg11.dtd">
<svg version="1.1" id="Layer_1" xmlns="http://www.w3.org/2000/svg" xmlns:xlink="http://www.w3.org/1999/xlink" x="0px" y="0px"
	 width="130px" height="130px" viewBox="0 0 130 130" enable-background="new 0 0 130 130" xml:space="preserve">
<rect fill="none" width="130" height="130"/>
<g>
	<g>
		<path fill="#7C6A51" d="M12.036,56.876H2.899C1.854,56.876,1,57.604,1,58.507c0,0.898,0.854,1.628,1.899,1.628h9.137
			c1.044,0,1.899-0.729,1.899-1.628C13.935,57.604,13.08,56.876,12.036,56.876z M12.036,30.974H2.899
			C1.854,30.974,1,31.694,1,32.582c0,0.886,0.854,1.608,1.899,1.608h9.137c1.044,0,1.899-0.723,1.899-1.608
			C13.935,31.694,13.08,30.974,12.036,30.974z M12.036,81.198H2.899C1.854,81.198,1,81.931,1,82.831s0.854,1.631,1.899,1.631h9.137
			c1.044,0,1.899-0.73,1.899-1.631S13.08,81.198,12.036,81.198z M12.036,105.532H2.899c-1.044,0-1.899,0.719-1.899,1.604
			c0,0.89,0.854,1.611,1.899,1.611h9.137c1.044,0,1.899-0.722,1.899-1.611C13.935,106.251,13.08,105.532,12.036,105.532z
			 M20.423,116.866c-0.888,0-1.602,0.749-1.602,1.674v8.019c0,0.923,0.714,1.673,1.602,1.673c0.885,0,1.606-0.75,1.606-1.673v-8.019
			C22.029,117.615,21.308,116.866,20.423,116.866z M12.036,5.024H2.899C1.854,5.024,1,5.754,1,6.653
			c0,0.901,0.854,1.631,1.899,1.631h9.137c1.044,0,1.899-0.729,1.899-1.631C13.935,5.754,13.08,5.024,12.036,5.024z M46.347,116.866
			c-0.901,0-1.626,0.749-1.626,1.674v8.019c0,0.923,0.725,1.673,1.626,1.673c0.898,0,1.629-0.75,1.629-1.673v-8.019
			C47.976,117.615,47.245,116.866,46.347,116.866z M120.928,116.866c-0.891,0-1.607,0.749-1.607,1.674v8.019
			c0,0.923,0.717,1.673,1.607,1.673c0.884,0,1.604-0.75,1.604-1.673v-8.019C122.531,117.615,121.812,116.866,120.928,116.866z
			 M123.882,103.887H25.565L25.312,6.914c0-2.842-1.805-5.146-4.636-5.146c-2.825,0-5.109,2.291-5.109,5.12v101.614
			c0,2.829,2.284,5.12,5.109,5.12h103.217c2.822,0,5.107-2.291,5.107-5.12S126.712,103.887,123.882,103.887z M70.672,116.866
			c-0.898,0-1.629,0.749-1.629,1.674v8.019c0,0.923,0.73,1.673,1.629,1.673c0.901,0,1.629-0.75,1.629-1.673v-8.019
			C72.301,117.615,71.573,116.866,70.672,116.866z M96.599,116.866c-0.89,0-1.601,0.749-1.601,1.674v8.019
			c0,0.923,0.711,1.673,1.601,1.673c0.888,0,1.61-0.75,1.61-1.673v-8.019C98.209,117.615,97.486,116.866,96.599,116.866z"/>
	</g>
	<path fill="#FDB813" d="M124.337,31.204l-10.735-11.613c-0.954-1.038-2.299-1.626-3.699-1.626
		c-1.581,0.074-2.756,0.597-3.712,1.648L95.526,31.29c-1.901,2.08-1.771,5.322,0.281,7.243c0.976,0.913,2.205,1.364,3.44,1.364
		c1.35,0,2.717-0.555,3.715-1.647l0.824-0.904c-3.288,11.819-12.626,11.92-26.299,12.002c-7.437,0.045-15.126,0.092-21.887,2.39
		c-18.992,4.805-18.992,24.117-18.992,35.654c0,2.83,2.273,5.123,5.068,5.123c2.798,0,5.061-2.293,5.061-5.123
		c0-13.377,0.815-23.051,11.699-25.819c5.593-1.888,12.464-1.933,19.114-1.974c14.927-0.088,33.076-0.266,36.907-24.067l2.472,2.677
		c1.919,2.071,5.124,2.175,7.161,0.243C126.131,36.518,126.238,33.275,124.337,31.204z"/>
</g>
</svg>
