<?xml version="1.0" encoding="utf-8"?>
<!-- Generator: Adobe Illustrator 16.0.0, SVG Export Plug-In . SVG Version: 6.00 Build 0)  -->
<!DOCTYPE svg PUBLIC "-//W3C//DTD SVG 1.1//EN" "http://www.w3.org/Graphics/SVG/1.1/DTD/svg11.dtd">
<svg version="1.1" id="Layer_1" xmlns="http://www.w3.org/2000/svg" xmlns:xlink="http://www.w3.org/1999/xlink" x="0px" y="0px"
	 width="130px" height="130px" viewBox="0 0 130 130" enable-background="new 0 0 130 130" xml:space="preserve">
<rect fill="none" width="130" height="130"/>
<g>
	<path fill="#4C4031" d="M7.576,41.201l120.356-22.942l-2.684-14.634L3.076,26.896L1,27.113l2.393,14.94L3.34,120.5
		c0,3.246,2.631,5.875,5.882,5.875h113.9c3.24,0,5.877-2.629,5.877-5.875V41.201H7.576z"/>
	<path fill="#DBD3BB" d="M127.56,69.723v-0.617h-122v0.617h30.254v17.34H5.554v0.617H127.56v-0.617H73.887v-17.34H127.56z
		 M73.278,87.062H36.425v-17.34h36.854V87.062z M5.554,106.148H127.56v-0.611H5.554V106.148z"/>
	<path fill="#DBD3BB" d="M45.3,41.977l-14.093,13.97h11.598l14.099-13.97H45.3z M22.188,41.977L8.097,55.947h11.598l14.1-13.97
		H22.188z M68.863,41.977l-14.088,13.97H66.37l14.1-13.97H68.863z M92.52,41.977l-14.094,13.97h11.601l14.094-13.97H92.52z
		 M115.988,41.977L101.9,55.947h11.601l14.085-13.97H115.988z M79.446,26.778L63.045,15.454l-11.406,2.082l16.393,11.336
		L79.446,26.778z M102.624,22.533l-16.401-11.33l-11.406,2.093l16.398,11.324L102.624,22.533z M125.363,18.365l-16.41-11.33
		L97.547,9.133l16.398,11.318L125.363,18.365z M56.178,31.035l-16.404-11.33L28.37,21.804l16.396,11.324L56.178,31.035z
		 M33.094,35.263l-16.41-11.318L5.274,26.032l16.41,11.336L33.094,35.263z"/>
</g>
</svg>
