<?xml version="1.0" encoding="utf-8"?>
<!-- Generator: Adobe Illustrator 16.0.0, SVG Export Plug-In . SVG Version: 6.00 Build 0)  -->
<!DOCTYPE svg PUBLIC "-//W3C//DTD SVG 1.1//EN" "http://www.w3.org/Graphics/SVG/1.1/DTD/svg11.dtd">
<svg version="1.1" id="Layer_1" xmlns="http://www.w3.org/2000/svg" xmlns:xlink="http://www.w3.org/1999/xlink" x="0px" y="0px"
	 width="130px" height="130px" viewBox="0 0 130 130" enable-background="new 0 0 130 130" xml:space="preserve">
<rect fill="none" width="130" height="130"/>
<g>
	<path fill="#4BA7C4" d="M75.298,48.21c0,0,0-6.128,0-7.266c-3.545-2.064-4.746-9.714-4.762-9.817v-0.004v-0.012v-7.487h-0.653
		c0,0,0,0,0-1.371C66.547,18.502,65,1,65,1s-1.547,17.502-4.883,21.254c0,1.371,0,1.371,0,1.371h-0.653v7.487v0.012v0.004
		c-0.016,0.103-1.215,7.753-4.762,9.817c0,1.137,0,7.266,0,7.266h-1.968v22.146l0.866,0.863V129h22.799V71.22l0.866-0.863V48.21
		H75.298z"/>
	<polygon fill="#368A9E" points="65,41.932 54.702,41.932 54.702,42.601 65,42.601 75.298,42.601 75.298,41.932 	"/>
	<circle fill="#368A9E" cx="65" cy="59.993" r="5.907"/>
	<g>
		<path fill="#368A9E" d="M59.077,44.273c-0.441,0-0.796,0.356-0.796,0.796v3.098h1.593v-3.098
			C59.874,44.629,59.513,44.273,59.077,44.273z"/>
		<path fill="#368A9E" d="M61.05,44.273c-0.436,0-0.796,0.356-0.796,0.796v3.098h1.591v-3.098
			C61.845,44.629,61.492,44.273,61.05,44.273z"/>
		<path fill="#368A9E" d="M63.027,44.273c-0.44,0-0.795,0.356-0.795,0.796v3.098h1.591v-3.098
			C63.823,44.629,63.465,44.273,63.027,44.273z"/>
		<path fill="#368A9E" d="M65,44.273c-0.441,0-0.794,0.356-0.794,0.796v3.098h1.59v-3.098C65.796,44.629,65.441,44.273,65,44.273z"
			/>
		<path fill="#368A9E" d="M66.973,44.273c-0.436,0-0.79,0.356-0.79,0.796v3.098h1.587v-3.098
			C67.77,44.629,67.415,44.273,66.973,44.273z"/>
		<path fill="#368A9E" d="M68.952,44.273c-0.442,0-0.797,0.356-0.797,0.796v3.098h1.591v-3.098
			C69.746,44.629,69.392,44.273,68.952,44.273z"/>
		<path fill="#368A9E" d="M70.923,44.273c-0.44,0-0.795,0.356-0.795,0.796v3.098h1.591v-3.098
			C71.719,44.629,71.364,44.273,70.923,44.273z"/>
	</g>
	<g>
		<path fill="#368A9E" d="M67.839,25.189c-0.321,0-0.577,0.258-0.577,0.579v4.869h1.149v-4.869
			C68.411,25.447,68.155,25.189,67.839,25.189z"/>
		<path fill="#368A9E" d="M66.416,25.189c-0.314,0-0.57,0.258-0.57,0.579v4.869h1.149v-4.869
			C66.995,25.447,66.739,25.189,66.416,25.189z"/>
		<path fill="#368A9E" d="M65,25.189c-0.315,0-0.576,0.258-0.576,0.579v4.869h1.154v-4.869C65.578,25.447,65.317,25.189,65,25.189z"
			/>
		<path fill="#368A9E" d="M63.584,25.189c-0.317,0-0.579,0.258-0.579,0.579v4.869h1.151v-4.869
			C64.156,25.447,63.9,25.189,63.584,25.189z"/>
		<path fill="#368A9E" d="M62.167,25.189c-0.322,0-0.578,0.258-0.578,0.579v4.869h1.151v-4.869
			C62.74,25.447,62.482,25.189,62.167,25.189z"/>
	</g>
	<polygon fill="#368A9E" points="52.734,70.336 53.606,71.212 76.394,71.212 77.266,70.336 	"/>
	<path fill="#368A9E" d="M70.536,31.128H59.464c-0.016,0.103-1.215,7.753-4.762,9.817h20.596
		C71.753,38.881,70.552,31.231,70.536,31.128z"/>
	<path fill="#368A9E" d="M65,1c0,0-1.547,17.502-4.883,21.254h9.766C66.547,18.502,65,1,65,1z"/>
</g>
</svg>
