<?xml version="1.0" encoding="utf-8"?>
<!-- Generator: Adobe Illustrator 16.0.0, SVG Export Plug-In . SVG Version: 6.00 Build 0)  -->
<!DOCTYPE svg PUBLIC "-//W3C//DTD SVG 1.1//EN" "http://www.w3.org/Graphics/SVG/1.1/DTD/svg11.dtd">
<svg version="1.1" id="Layer_1" xmlns="http://www.w3.org/2000/svg" xmlns:xlink="http://www.w3.org/1999/xlink" x="0px" y="0px"
	 width="130px" height="130px" viewBox="0 0 130 130" enable-background="new 0 0 130 130" xml:space="preserve">
<rect fill="none" width="130" height="130"/>
<g>
	<path fill="#3187B1" d="M65,1C29.707,1,0.994,29.71,0.994,65S29.707,129,65,129s64.006-28.71,64.006-64S100.293,1,65,1z"/>
	<path fill="#FFF6E4" d="M65,8.677c-31.06,0-56.326,25.266-56.326,56.32c0,31.057,25.267,56.322,56.326,56.322
		s56.326-25.266,56.326-56.322C121.326,33.942,96.06,8.677,65,8.677z"/>
	<path fill="#F15A22" d="M58.021,63.37H37.052c-0.889,0-1.611,0.72-1.611,1.613c0,0.888,0.723,1.613,1.611,1.613h20.969
		c0.888,0,1.611-0.726,1.611-1.613C59.632,64.09,58.908,63.37,58.021,63.37z"/>
	<path fill="#F15A22" d="M64.994,23.057c-0.888,0-1.605,0.723-1.605,1.611v37.089c0,0.89,0.718,1.613,1.605,1.613
		c0.894,0,1.617-0.723,1.617-1.613V24.668C66.611,23.78,65.888,23.057,64.994,23.057z"/>
	<path fill="#F15A22" d="M65,55.726c-4.657,0-8.45,3.791-8.45,8.448c0,4.658,3.793,8.447,8.45,8.447s8.45-3.789,8.45-8.447
		C73.45,59.517,69.657,55.726,65,55.726z"/>
	<rect x="63.389" y="8.544" fill="#3187B1" width="3.223" height="9.674"/>
	<rect x="63.389" y="111.746" fill="#3187B1" width="3.223" height="9.673"/>
	<rect x="111.747" y="63.37" fill="#3187B1" width="9.674" height="3.226"/>
	<rect x="8.397" y="63.37" fill="#3187B1" width="9.679" height="3.226"/>
</g>
</svg>
