<?xml version="1.0" encoding="utf-8"?>
<!-- Generator: Adobe Illustrator 16.0.0, SVG Export Plug-In . SVG Version: 6.00 Build 0)  -->
<!DOCTYPE svg PUBLIC "-//W3C//DTD SVG 1.1//EN" "http://www.w3.org/Graphics/SVG/1.1/DTD/svg11.dtd">
<svg version="1.1" id="Layer_1" xmlns="http://www.w3.org/2000/svg" xmlns:xlink="http://www.w3.org/1999/xlink" x="0px" y="0px"
	 width="130px" height="130px" viewBox="0 0 130 130" enable-background="new 0 0 130 130" xml:space="preserve">
<rect fill="none" width="130" height="130"/>
<g>
	<path fill="#F15A22" d="M25.994,122.973c-1.195,1.769-0.732,4.169,1.032,5.362c0.667,0.451,1.424,0.665,2.162,0.665
		c1.24,0,2.46-0.595,3.203-1.696l5.255-7.758c-2.272-1.244-4.408-2.685-6.48-4.222L25.994,122.973z M104.012,122.973l-5.181-7.644
		c-2.062,1.532-4.204,2.973-6.471,4.217l5.25,7.758c0.747,1.102,1.968,1.696,3.203,1.696c0.741,0,1.499-0.214,2.161-0.665
		C104.738,127.142,105.207,124.741,104.012,122.973z"/>
	<path fill="#F15A22" d="M65,13.557c-29.896,0-54.218,24.317-54.218,54.211c0,29.893,24.322,54.214,54.218,54.214
		c29.896,0,54.218-24.321,54.218-54.214C119.218,37.875,94.896,13.557,65,13.557z"/>
	<path fill="#FFF6E4" d="M65,20.059c-26.305,0-47.713,21.402-47.713,47.708S38.695,115.472,65,115.472
		c26.31,0,47.713-21.399,47.713-47.705S91.31,20.059,65,20.059z"/>
	<path fill="#FDB813" d="M88.884,66.386H71.127c-0.758,0-1.37,0.612-1.37,1.366s0.612,1.365,1.37,1.365h17.757
		c0.752,0,1.364-0.611,1.364-1.365S89.636,66.386,88.884,66.386z"/>
	<path fill="#FDB813" d="M65,32.24c-0.757,0-1.365,0.613-1.365,1.365v31.416c0,0.753,0.608,1.365,1.365,1.365
		c0.752,0,1.365-0.612,1.365-1.365V33.604C66.365,32.853,65.752,32.24,65,32.24z"/>
	<path fill="#4A8CAE" d="M65,59.913c-3.944,0-7.158,3.21-7.158,7.156c0,3.946,3.213,7.156,7.158,7.156s7.158-3.21,7.158-7.156
		C72.158,63.123,68.944,59.913,65,59.913z"/>
	<rect x="63.635" y="19.946" fill="#4A8CAE" width="2.73" height="8.195"/>
	<rect x="63.635" y="107.361" fill="#4A8CAE" width="2.73" height="8.197"/>
	<rect x="60.906" y="66.386" fill="#4A8CAE" width="8.194" height="2.731"/>
	<rect x="17.287" y="66.386" fill="#4A8CAE" width="8.193" height="2.731"/>
	<rect x="104.544" y="66.386" fill="#4A8CAE" width="8.193" height="2.731"/>
	<path fill="#C1BAA7" d="M102.965,3.753c-8.129-4.541-18.245-3.27-26.912,2.374l39.021,21.781
		C115.333,17.561,111.108,8.293,102.965,3.753z M27.03,3.753c-8.124,4.54-12.358,13.807-12.099,24.154L53.947,6.127
		C45.271,0.483,35.169-0.787,27.03,3.753z"/>
</g>
</svg>
