<?xml version="1.0" encoding="utf-8"?>
<!-- Generator: Adobe Illustrator 16.0.0, SVG Export Plug-In . SVG Version: 6.00 Build 0)  -->
<!DOCTYPE svg PUBLIC "-//W3C//DTD SVG 1.1//EN" "http://www.w3.org/Graphics/SVG/1.1/DTD/svg11.dtd">
<svg version="1.1" id="Layer_1" xmlns="http://www.w3.org/2000/svg" xmlns:xlink="http://www.w3.org/1999/xlink" x="0px" y="0px"
	 width="130px" height="130px" viewBox="0 0 130 130" enable-background="new 0 0 130 130" xml:space="preserve">
<rect fill="none" width="130" height="130"/>
<g>
	<g>
		<path fill="#A4C553" d="M70.018,34.782c-5.092-5.597-12.561-8.148-19.893-6.789c-8.733,1.596-15.545,8.284-17.358,17.033
			c-0.392,1.899,0.823,3.758,2.707,4.152c0.293,0.061,0.584,0.081,0.874,0.071c1.556-0.071,2.925-1.188,3.253-2.789
			c1.23-5.945,5.854-10.481,11.777-11.562c4.993-0.919,10.024,0.818,13.487,4.622c1.304,1.424,3.511,1.515,4.936,0.222
			C71.228,38.434,71.321,36.217,70.018,34.782z"/>
	</g>
	<g>
		<path fill="#FDB813" d="M80.851,30.014C73.397,19.663,60.528,14.44,48.077,16.729c-15.263,2.788-26.679,16.099-27.161,31.662
			c-0.059,1.935,1.459,3.556,3.384,3.617c0.091,0,0.183,0,0.273-0.005c1.806-0.081,3.271-1.551,3.326-3.395
			c0.384-12.27,9.393-22.777,21.431-24.979c9.88-1.798,19.988,2.329,25.857,10.492c1.137,1.566,3.309,1.924,4.88,0.793
			C81.626,33.777,81.984,31.58,80.851,30.014z"/>
	</g>
	<g>
		<path fill="#F15A22" d="M92.605,28.049C83.435,11.379,64.767,2.448,46.109,5.863C22.693,10.142,7.007,32.049,10.398,55.735
			c0.253,1.803,1.831,3.086,3.604,3.005c0.116-0.005,0.234-0.01,0.344-0.03c1.909-0.272,3.24-2.051,2.965-3.97
			C14.46,34.807,27.659,16.365,47.365,12.763c15.702-2.895,31.412,4.647,39.128,18.675c0.932,1.697,3.061,2.313,4.74,1.379
			C92.924,31.877,93.537,29.746,92.605,28.049z"/>
	</g>
	<g>
		<path fill="#D1C9B4" d="M112.93,76.047c0.07-0.823,0.116-1.651,0.116-2.495c0-17.301-14.028-31.324-31.334-31.324
			c-11.648,0-21.805,6.37-27.199,15.811c-4.052-3.324-9.231-5.329-14.882-5.329c-12.929,0-23.431,10.492-23.431,23.434
			c0,0.07,0.013,0.156,0.013,0.237C7.322,80.013,1,89.11,1,99.774c0,13.855,10.659,25.084,23.8,25.084h80.414
			c13.139,0,23.786-11.229,23.786-25.084C129,88.777,122.282,79.427,112.93,76.047z"/>
	</g>
</g>
</svg>
