<?xml version="1.0" encoding="utf-8"?>
<!-- Generator: Adobe Illustrator 16.0.0, SVG Export Plug-In . SVG Version: 6.00 Build 0)  -->
<!DOCTYPE svg PUBLIC "-//W3C//DTD SVG 1.1//EN" "http://www.w3.org/Graphics/SVG/1.1/DTD/svg11.dtd">
<svg version="1.1" id="Layer_1" xmlns="http://www.w3.org/2000/svg" xmlns:xlink="http://www.w3.org/1999/xlink" x="0px" y="0px"
	 width="130px" height="130px" viewBox="0 0 130 130" enable-background="new 0 0 130 130" xml:space="preserve">
<rect fill="none" width="130" height="130"/>
<g>
	<g>
		<path fill="#D1C9B4" d="M112.932,44.217c0.071-0.823,0.116-1.651,0.116-2.495c0-17.301-14.027-31.328-31.333-31.328
			c-11.648,0-21.802,6.375-27.201,15.815c-4.052-3.324-9.229-5.329-14.881-5.329c-12.932,0-23.429,10.492-23.429,23.428
			c0,0.076,0.016,0.162,0.016,0.237C7.324,48.182,1,57.28,1,67.943c0,13.855,10.663,25.084,23.802,25.084h80.412
			c13.143,0,23.786-11.229,23.786-25.084C129,56.941,122.282,47.596,112.932,44.217z"/>
	</g>
	<g>
		<path fill="#4BA7C4" d="M36.925,80.097c1.116,0.596,2.399,0.728,3.606,0.358c1.213-0.368,2.213-1.182,2.809-2.298
			c0.753-1.415,0.49-5.733,0.313-8.588c-0.04-0.666-0.076-1.282-0.102-1.858c-0.5,0.298-1.03,0.611-1.611,0.944
			c-2.47,1.439-6.208,3.622-6.955,5.031C33.748,75.99,34.621,78.864,36.925,80.097z M62.54,78.207
			c-2.111,1.324-4.597,2.794-7.486,4.476c-7.824,4.557-17.553,10.234-19.907,14.629c-3.935,7.364-1.156,16.562,6.214,20.502
			c3.565,1.904,7.667,2.309,11.537,1.131c3.874-1.166,7.057-3.776,8.961-7.343c2.354-4.405,1.672-15.654,1.121-24.686
			C62.777,83.582,62.61,80.698,62.54,78.207z M83.392,55.643c1.122,0.596,2.399,0.722,3.612,0.359
			c1.212-0.369,2.207-1.192,2.803-2.299c0.753-1.414,0.495-5.728,0.318-8.587c-0.04-0.672-0.081-1.283-0.105-1.864
			c-0.495,0.298-1.031,0.616-1.611,0.949c-2.471,1.445-6.209,3.617-6.961,5.026C80.22,51.536,81.088,54.411,83.392,55.643z
			 M92.09,71.626c-0.07-1.178-0.131-2.269-0.187-3.289c-0.874,0.525-1.818,1.081-2.844,1.672c-4.38,2.557-10.987,6.405-12.32,8.9
			c-2.183,4.082-0.642,9.168,3.439,11.351c1.98,1.051,4.243,1.283,6.386,0.631c2.151-0.646,3.909-2.101,4.965-4.071
			C92.863,84.324,92.394,76.682,92.09,71.626z M67.97,49.799c-0.677,0.404-1.409,0.833-2.187,1.293
			c-3.38,1.965-8.472,4.935-9.502,6.86c-1.682,3.137-0.49,7.066,2.652,8.744c1.525,0.818,3.273,0.99,4.925,0.49
			c1.657-0.5,3.011-1.617,3.824-3.142c1.03-1.919,0.672-7.81,0.434-11.709C68.056,51.425,68.006,50.587,67.97,49.799z
			 M80.185,102.62c-0.49,0.298-1.031,0.611-1.602,0.944c-2.48,1.44-6.208,3.622-6.961,5.031c-1.237,2.299-0.368,5.178,1.939,6.41
			c1.122,0.596,2.399,0.723,3.612,0.354c1.207-0.363,2.207-1.182,2.804-2.293c0.757-1.414,0.494-5.733,0.317-8.587
			C80.255,103.812,80.22,103.196,80.185,102.62z"/>
	</g>
</g>
</svg>
