<?xml version="1.0" encoding="utf-8"?>
<!-- Generator: Adobe Illustrator 16.0.0, SVG Export Plug-In . SVG Version: 6.00 Build 0)  -->
<!DOCTYPE svg PUBLIC "-//W3C//DTD SVG 1.1//EN" "http://www.w3.org/Graphics/SVG/1.1/DTD/svg11.dtd">
<svg version="1.1" id="Layer_1" xmlns="http://www.w3.org/2000/svg" xmlns:xlink="http://www.w3.org/1999/xlink" x="0px" y="0px"
	 width="130px" height="130px" viewBox="0 0 130 130" enable-background="new 0 0 130 130" xml:space="preserve">
<rect fill="none" width="130" height="130"/>
<g>
	<g>
		<path fill="#4BA7C4" d="M127.245,30.596c0-7.94-6.371-14.395-14.19-14.395c-7.826,0-14.189,6.455-14.189,14.395
			c0,1.456,1.166,2.639,2.599,2.639c1.436,0,2.602-1.183,2.602-2.639c0-5.029,4.034-9.118,8.989-9.118s8.992,4.089,8.992,9.118
			c0,9.321-8.186,10.044-8.992,10.094H3.602C2.165,40.69,1,41.868,1,43.328c0,1.456,1.165,2.639,2.602,2.639l109.562-0.005
			C118.037,45.749,127.245,42.259,127.245,30.596z M114.708,53.026H17.627c-1.445,0-2.618,1.183-2.618,2.638
			c0,1.46,1.173,2.639,2.618,2.639h96.965c0.376,0.015,9.173,0.505,9.173,10.089c0,5.029-4.064,9.123-9.057,9.123
			c-4.989,0-9.054-4.094-9.054-9.123c0-1.461-1.173-2.639-2.618-2.639c-1.446,0-2.616,1.178-2.616,2.639
			c0,7.939,6.407,14.4,14.288,14.4c7.876,0,14.292-6.461,14.292-14.4C129,56.724,119.721,53.239,114.708,53.026z"/>
	</g>
	<g>
		<path fill="#4BA7C4" d="M48.977,80.158c0.824,0.312,1.711,0.416,2.564,0.302c0.52-0.069,1.029-0.218,1.503-0.436
			c1.294-0.584,2.276-1.653,2.779-3c0.564-1.529-0.022-4.905-0.73-8.52l-0.074-0.396c-0.087-0.461-0.176-0.901-0.247-1.317
			c-0.062-0.321-0.282-0.589-0.584-0.702c-0.303-0.119-0.646-0.06-0.894,0.139c-0.419,0.336-0.874,0.692-1.356,1.074
			c-2.993,2.341-5.515,4.405-6.079,5.93c-0.5,1.342-0.448,2.802,0.144,4.114C46.591,78.653,47.65,79.653,48.977,80.158z
			 M39.921,81.192c-0.058-0.321-0.28-0.589-0.582-0.703c-0.302-0.118-0.641-0.063-0.896,0.134L37.45,81.41
			c-2.225,1.743-4.101,3.282-4.539,4.461c-0.8,2.158,0.292,4.579,2.436,5.396c0.639,0.242,1.331,0.321,1.997,0.232
			c0.403-0.055,0.802-0.168,1.174-0.342c1.005-0.455,1.774-1.287,2.16-2.336c0.438-1.193,0.003-3.698-0.522-6.381L39.921,81.192z
			 M80.032,75.99c-0.156-0.792-0.297-1.53-0.424-2.218c-0.062-0.322-0.284-0.589-0.586-0.703c-0.3-0.114-0.642-0.055-0.896,0.144
			c-0.534,0.431-1.118,0.896-1.782,1.406c-3.695,2.9-7.068,5.652-7.773,7.559c-1.275,3.45,0.468,7.321,3.891,8.629
			c1.024,0.386,2.128,0.515,3.197,0.376c0.644-0.089,1.272-0.272,1.869-0.545c1.611-0.732,2.836-2.06,3.463-3.737
			C81.695,84.989,80.938,80.653,80.032,75.99z M74.812,98.187c-0.064-0.321-0.285-0.589-0.59-0.702
			c-0.302-0.109-0.644-0.055-0.894,0.148c-0.245,0.203-0.507,0.405-0.789,0.628l-0.195,0.154c-2.226,1.737-4.102,3.276-4.537,4.455
			c-0.8,2.158,0.289,4.579,2.431,5.396c0.639,0.242,1.329,0.321,2,0.232c0.4-0.05,0.797-0.163,1.173-0.337
			c1.01-0.46,1.777-1.292,2.163-2.341c0.438-1.188,0.003-3.698-0.522-6.376L74.812,98.187z M60.699,83.153
			c-0.052-0.332-0.28-0.604-0.584-0.724c-0.312-0.113-0.659-0.059-0.914,0.154c-1.25,1.049-2.695,2.192-4.623,3.703
			c-5.21,4.083-11.118,8.707-12.397,12.167c-2.166,5.852,0.792,12.41,6.588,14.613c1.733,0.658,3.602,0.876,5.411,0.639
			c1.094-0.148,2.163-0.456,3.178-0.926c2.73-1.242,4.814-3.49,5.861-6.326c1.277-3.45-0.161-10.856-1.44-17.43
			C61.303,86.589,60.959,84.757,60.699,83.153z"/>
	</g>
	<g>
		<path fill="#4BA7C4" d="M86.084,24.963H10.596c-1.436,0-2.599,1.183-2.599,2.634c0,1.45,1.163,2.633,2.599,2.633h75.488
			c1.433,0,2.596-1.183,2.596-2.633C88.68,26.146,87.517,24.963,86.084,24.963z"/>
	</g>
</g>
</svg>
