<?xml version="1.0" encoding="utf-8"?>
<!-- Generator: Adobe Illustrator 16.0.0, SVG Export Plug-In . SVG Version: 6.00 Build 0)  -->
<!DOCTYPE svg PUBLIC "-//W3C//DTD SVG 1.1//EN" "http://www.w3.org/Graphics/SVG/1.1/DTD/svg11.dtd">
<svg version="1.1" id="Layer_1" xmlns="http://www.w3.org/2000/svg" xmlns:xlink="http://www.w3.org/1999/xlink" x="0px" y="0px"
	 width="130px" height="130px" viewBox="0 0 130 130" enable-background="new 0 0 130 130" xml:space="preserve">
<rect fill="none" width="130" height="130"/>
<path fill="#4BA7C4" d="M112.931,57.504c0.07-0.822,0.116-1.65,0.116-2.494c0-17.302-14.028-31.327-31.336-31.327
	c-11.647,0-21.804,6.372-27.199,15.814c-4.049-3.326-9.225-5.328-14.881-5.328c-12.931,0-23.427,10.491-23.427,23.428l0.008,0.237
	C7.323,61.468,1,70.571,1,81.233c0,13.854,10.662,25.083,23.8,25.083h80.413c13.138,0,23.787-11.229,23.787-25.083
	C129,70.23,122.284,60.885,112.931,57.504z M60.748,93.369l-7.362,1.869c-1.163,0.293-1.644-0.324-1.06-1.371l1.95-3.574
	c-6.323-4.047-10.165-10.938-10.165-18.585c0-8.669,5.101-16.582,13.005-20.154c0.253-0.117,0.526-0.17,0.783-0.17
	c0.732,0,1.428,0.419,1.747,1.123c0.438,0.963,0.013,2.098-0.957,2.533c-6.529,2.957-10.753,9.5-10.753,16.669
	c0,6.234,3.085,11.87,8.174,15.237l1.941-3.541c0.572-1.048,1.351-0.976,1.723,0.156l2.394,7.217
	C62.545,91.912,61.907,93.078,60.748,93.369z M74.154,92.924c-0.256,0.117-0.525,0.172-0.786,0.172
	c-0.733,0-1.429-0.418-1.747-1.123c-0.436-0.965-0.005-2.098,0.956-2.533c6.534-2.957,10.757-9.499,10.757-16.67
	c0-6.234-3.089-11.87-8.173-15.233l-1.942,3.539c-0.571,1.045-1.35,0.974-1.727-0.156l-2.394-7.218
	c-0.372-1.132,0.266-2.298,1.425-2.592l7.362-1.866c1.159-0.296,1.64,0.323,1.063,1.369l-1.954,3.577
	C83.313,58.231,87.16,65.125,87.16,72.77C87.16,81.439,82.059,89.352,74.154,92.924z"/>
</svg>
