<?xml version="1.0" encoding="utf-8"?>
<!-- Generator: Adobe Illustrator 16.0.0, SVG Export Plug-In . SVG Version: 6.00 Build 0)  -->
<!DOCTYPE svg PUBLIC "-//W3C//DTD SVG 1.1//EN" "http://www.w3.org/Graphics/SVG/1.1/DTD/svg11.dtd">
<svg version="1.1" id="Layer_1" xmlns="http://www.w3.org/2000/svg" xmlns:xlink="http://www.w3.org/1999/xlink" x="0px" y="0px"
	 width="130px" height="130px" viewBox="0 0 130 130" enable-background="new 0 0 130 130" xml:space="preserve">
<rect fill="none" width="130" height="130"/>
<g>
	<g>
		<path fill="#4BA7C4" d="M113.929,41.3v-0.064c0-18.266-14.866-33.129-33.136-33.129c-10.563,0-20.431,5.017-26.672,13.496
			c-3.967-2.354-8.455-3.586-13.092-3.586c-13.356,0-24.416,10.291-25.558,23.589C6.518,46.22,1,55.487,1,66.014
			c0,15.019,11.665,27.238,26.014,27.238h1.34c1.948,0,3.532-1.586,3.532-3.538c0-1.945-1.584-3.531-3.532-3.531h-1.34
			c-10.449,0-18.952-9.048-18.952-20.169c0-8.286,4.888-15.86,12.172-18.84c1.438-0.584,2.195-2.197,2.195-3.495
			c0-10.253,8.342-18.598,18.601-18.598c4.304,0,8.503,1.5,11.822,4.234c0.812,0.653,1.97,0.911,2.873,0.734
			c1.031-0.183,1.913-0.815,2.431-1.721c4.641-8.121,13.309-13.159,22.639-13.159c14.37,0,26.065,11.689,26.065,26.065
			c0,0.702-0.035,1.388-0.089,2.064c-0.134,1.586,0.815,3.07,2.315,3.612c7.684,2.781,12.853,10.457,12.853,19.102
			c0,11.121-8.502,20.169-18.946,20.169h-1.346c-1.948,0-3.532,1.586-3.532,3.531c0,1.952,1.584,3.538,3.532,3.538h1.346
			c14.34,0,26.009-12.22,26.009-27.238C129,55.337,123.112,45.748,113.929,41.3z"/>
	</g>
	<g>
		<polygon fill="#4BA7C4" points="88.515,59.013 59.655,59.013 49.787,89.586 57.084,89.586 45.282,121.894 77.532,84.489 
			70.235,84.489 		"/>
	</g>
</g>
</svg>
