<?xml version="1.0" encoding="utf-8"?>
<!-- Generator: Adobe Illustrator 16.0.0, SVG Export Plug-In . SVG Version: 6.00 Build 0)  -->
<!DOCTYPE svg PUBLIC "-//W3C//DTD SVG 1.1//EN" "http://www.w3.org/Graphics/SVG/1.1/DTD/svg11.dtd">
<svg version="1.1" id="Layer_1" xmlns="http://www.w3.org/2000/svg" xmlns:xlink="http://www.w3.org/1999/xlink" x="0px" y="0px"
	 width="130px" height="130px" viewBox="0 0 130 130" enable-background="new 0 0 130 130" xml:space="preserve">
<rect fill="none" width="130" height="130"/>
<g>
	<g>
		<path fill="#4BA7C4" d="M105.875,57.4v-0.058c0-15.26-12.418-27.676-27.68-27.676c-8.826,0-17.069,4.191-22.284,11.279
			c-3.313-1.965-7.065-2.996-10.936-2.996c-11.161,0-20.398,8.597-21.352,19.707c-7.479,3.851-12.089,11.593-12.089,20.391
			c0,12.547,9.746,22.751,21.732,22.751h1.12c1.627,0,2.948-1.321,2.948-2.951c0-1.625-1.321-2.95-2.948-2.95h-1.12
			c-8.729,0-15.835-7.559-15.835-16.85c0-6.927,4.085-13.253,10.168-15.739c1.204-0.488,1.835-1.84,1.835-2.919
			c0-8.565,6.97-15.537,15.54-15.537c3.593,0,7.104,1.254,9.875,3.537c0.678,0.547,1.643,0.761,2.399,0.614
			c0.862-0.157,1.602-0.681,2.031-1.441c3.876-6.78,11.118-10.993,18.914-10.993c12.004,0,21.774,9.77,21.774,21.774
			c0,0.591-0.029,1.164-0.074,1.724c-0.112,1.33,0.681,2.57,1.935,3.023c6.419,2.323,10.737,8.735,10.737,15.958
			c0,9.291-7.104,16.85-15.828,16.85h-1.125c-1.627,0-2.95,1.325-2.95,2.95c0,1.63,1.323,2.951,2.95,2.951h1.125
			c11.979,0,21.727-10.204,21.727-22.751C118.466,69.126,113.548,61.117,105.875,57.4z"/>
	</g>
	<g>
		<path fill="#4BA7C4" d="M65.796,92.074c1.6-0.009,3.11-0.632,4.242-1.769c1.138-1.129,1.765-2.642,1.765-4.236
			c0-2.037-2.884-6.702-4.791-9.787c-0.44-0.717-0.844-1.393-1.222-2.016c-0.378,0.623-0.786,1.299-1.229,2.016
			c-1.905,3.094-4.775,7.759-4.775,9.787C59.785,89.374,62.485,92.074,65.796,92.074z M52.634,90.359
			c-0.443-0.717-0.853-1.388-1.229-2.011c-0.379,0.623-0.788,1.303-1.225,2.02c-1.908,3.09-4.775,7.755-4.775,9.779
			c0,3.313,2.693,6.009,6.006,6.009c1.608,0,3.116-0.627,4.247-1.764c1.133-1.134,1.757-2.642,1.757-4.245
			C57.416,98.123,54.54,93.458,52.634,90.359z M81.691,90.78c-0.416-0.681-0.801-1.307-1.16-1.894
			c-0.351,0.596-0.733,1.217-1.149,1.894c-1.79,2.911-4.482,7.28-4.482,9.192c0,3.116,2.529,5.642,5.64,5.642
			c1.511,0,2.928-0.591,3.989-1.652c1.068-1.062,1.652-2.484,1.652-3.994C86.181,98.061,83.48,93.687,81.691,90.78z M65.79,102.153
			c-0.748,1.298-1.646,2.771-2.687,4.474c-2.836,4.603-6.37,10.342-6.37,13.319c0,5.006,4.066,9.054,9.063,9.054
			c2.42,0,4.69-0.94,6.403-2.655c1.71-1.71,2.646-3.98,2.646-6.398c0-2.982-3.53-8.726-6.367-13.324
			C67.429,104.916,66.526,103.451,65.79,102.153z"/>
	</g>
	<g>
		<path fill="#FDB813" d="M43.854,16.179c0.285,0.555,0.844,0.877,1.431,0.877c0.242,0,0.492-0.058,0.725-0.179
			c0.792-0.403,1.105-1.375,0.701-2.163l-4.957-9.663c-0.401-0.788-1.368-1.11-2.159-0.698c-0.792,0.403-1.103,1.375-0.698,2.163
			L43.854,16.179z M53.913,15.073h0.042c0.869,0,1.585-0.694,1.605-1.567l0.263-10.863C55.845,1.761,55.142,1.022,54.255,1h-0.038
			c-0.872,0-1.583,0.694-1.605,1.567l-0.264,10.857C52.328,14.312,53.023,15.051,53.913,15.073z M35.517,29.464L24.658,29.2h-0.04
			c-0.871,0-1.585,0.694-1.608,1.567c-0.02,0.887,0.681,1.621,1.57,1.648l10.857,0.264h0.043c0.868,0,1.583-0.693,1.604-1.566
			C37.106,30.221,36.405,29.486,35.517,29.464z M62.49,17.732c0.273,0.175,0.578,0.255,0.875,0.255c0.526,0,1.041-0.255,1.352-0.73
			l5.927-9.098c0.485-0.743,0.275-1.738-0.471-2.226c-0.743-0.484-1.739-0.273-2.223,0.47l-5.929,9.103
			C61.539,16.25,61.747,17.245,62.49,17.732z M39.745,22.528c0.481-0.743,0.273-1.737-0.472-2.221l-9.101-5.933
			c-0.746-0.483-1.737-0.269-2.226,0.47c-0.481,0.743-0.271,1.742,0.472,2.226l9.103,5.928c0.271,0.175,0.576,0.26,0.874,0.26
			C38.921,23.258,39.437,23.003,39.745,22.528z M80.669,17.576c-0.405-0.788-1.368-1.102-2.163-0.694l-9.665,4.961
			c-0.79,0.403-1.102,1.371-0.693,2.163c0.284,0.551,0.844,0.874,1.428,0.874c0.249,0,0.495-0.059,0.732-0.18l9.667-4.961
			C80.76,19.336,81.076,18.368,80.669,17.576z M53.859,17.464c-3.795-0.068-7.312,1.285-10.027,3.873
			c-2.718,2.584-4.263,6.076-4.352,9.824c-0.042,1.778,1.361,3.246,3.136,3.291h0.079c1.737,0,3.166-1.388,3.208-3.134
			c0.051-2.037,0.888-3.927,2.359-5.333c1.476-1.402,3.405-2.181,5.443-2.095c2.862,0.067,5.41,1.728,6.637,4.33
			c0.757,1.607,2.675,2.292,4.274,1.536c1.605-0.757,2.292-2.669,1.534-4.276C63.88,20.666,59.172,17.594,53.859,17.464z"/>
	</g>
</g>
</svg>
