<?xml version="1.0" encoding="utf-8"?>
<!-- Generator: Adobe Illustrator 16.0.0, SVG Export Plug-In . SVG Version: 6.00 Build 0)  -->
<!DOCTYPE svg PUBLIC "-//W3C//DTD SVG 1.1//EN" "http://www.w3.org/Graphics/SVG/1.1/DTD/svg11.dtd">
<svg version="1.1" id="Layer_1" xmlns="http://www.w3.org/2000/svg" xmlns:xlink="http://www.w3.org/1999/xlink" x="0px" y="0px"
	 width="130px" height="130px" viewBox="0 0 130 130" enable-background="new 0 0 130 130" xml:space="preserve">
<rect fill="none" width="130" height="130"/>
<g>
	<g>
		<path fill="#4BA7C4" d="M125.748,107.652H4.252c-1.795,0-3.252,1.365-3.252,3.057s1.457,3.062,3.252,3.062h121.496
			c1.795,0,3.252-1.371,3.252-3.062S127.543,107.652,125.748,107.652z M4.252,89.385h121.496c1.795,0,3.252-1.365,3.252-3.057
			c0-1.692-1.457-3.063-3.252-3.063H4.252C2.457,83.265,1,84.636,1,86.328C1,88.02,2.457,89.385,4.252,89.385z M125.748,95.459
			H4.252C2.457,95.459,1,96.83,1,98.516c0,1.697,1.457,3.062,3.252,3.062h121.496c1.795,0,3.252-1.365,3.252-3.062
			C129,96.83,127.543,95.459,125.748,95.459z"/>
	</g>
	<g>
		<path fill="#4BA7C4" d="M112.487,48.123c-0.471-17.666-15.245-31.895-33.335-31.895c-10.181,0-19.747,4.611-26.022,12.297
			c-3.733-1.921-7.915-2.948-12.165-2.948c-13.375,0-24.438,9.905-25.981,22.822C6.397,53.09,1,62.187,1,72.373
			c0,2.667,2.203,4.829,4.916,4.829c2.718,0,4.921-2.162,4.921-4.829c0-7.227,4.319-13.806,10.737-16.386
			c1.853-0.746,3.052-2.725,3.052-4.686c0-8.856,7.335-16.065,16.34-16.065c3.78,0,7.468,1.296,10.382,3.654
			c1.124,0.906,2.598,1.279,4.009,1.015c1.423-0.258,2.656-1.119,3.373-2.357c4.187-7.187,12.016-11.66,20.424-11.66
			c12.963,0,23.51,10.37,23.51,23.103c0,0.625-0.034,1.228-0.086,1.824c-0.184,2.174,1.136,4.199,3.224,4.938
			c6.779,2.415,11.333,9.097,11.333,16.622c0,2.667,2.209,4.829,4.922,4.829s4.915-2.162,4.915-4.829
			C126.97,62.043,121.269,52.711,112.487,48.123z"/>
	</g>
</g>
</svg>
