<?xml version="1.0" encoding="utf-8"?>
<!-- Generator: Adobe Illustrator 16.0.0, SVG Export Plug-In . SVG Version: 6.00 Build 0)  -->
<!DOCTYPE svg PUBLIC "-//W3C//DTD SVG 1.1//EN" "http://www.w3.org/Graphics/SVG/1.1/DTD/svg11.dtd">
<svg version="1.1" id="Layer_1" xmlns="http://www.w3.org/2000/svg" xmlns:xlink="http://www.w3.org/1999/xlink" x="0px" y="0px"
	 width="130px" height="130px" viewBox="0 0 130 130" enable-background="new 0 0 130 130" xml:space="preserve">
<rect fill="none" width="130" height="130"/>
<g>
	<g>
		<path fill="#D1C9B4" d="M112.932,40.492c0.071-0.824,0.116-1.652,0.116-2.496c0-17.301-14.027-31.328-31.333-31.328
			c-11.648,0-21.802,6.375-27.201,15.816c-4.052-3.324-9.229-5.329-14.881-5.329c-12.932,0-23.429,10.491-23.429,23.428
			c0,0.076,0.016,0.162,0.016,0.237C7.324,44.457,1,53.554,1,64.218c0,13.855,10.663,25.085,23.802,25.085h80.412
			c13.143,0,23.786-11.229,23.786-25.085C129,53.216,122.282,43.871,112.932,40.492z"/>
	</g>
	<g>
		<path fill="#4BA7C4" d="M103.461,85.817l-1.976-0.995l1.232-0.414c0.374-0.122,0.576-0.531,0.45-0.904
			c-0.127-0.375-0.525-0.576-0.904-0.455l-2.571,0.859l-1.081-0.547l2.546-0.843c0.379-0.126,0.576-0.525,0.455-0.909
			c-0.127-0.374-0.531-0.57-0.904-0.449l-3.89,1.293l-2.369-1.203l2.212-1.465l4.011,0.85c0.051,0.01,0.102,0.02,0.146,0.02
			c0.334,0,0.622-0.237,0.697-0.576c0.086-0.383-0.166-0.762-0.556-0.848l-2.616-0.546l1.016-0.672l2.651,0.561
			c0.051,0.011,0.102,0.021,0.146,0.021c0.334,0,0.627-0.238,0.702-0.576c0.081-0.384-0.172-0.763-0.556-0.849l-1.263-0.263
			l1.844-1.217c0.328-0.218,0.419-0.662,0.207-0.996c-0.228-0.322-0.672-0.408-0.995-0.196l-1.849,1.218l0.253-1.273
			c0.075-0.384-0.172-0.763-0.562-0.838c-0.403-0.071-0.763,0.176-0.843,0.564l-0.521,2.652l-1.021,0.667l0.53-2.632
			c0.076-0.384-0.177-0.763-0.565-0.838c-0.409-0.082-0.763,0.176-0.839,0.565l-0.808,4.016l-2.122,1.399v-2.546l2.904-2.884
			c0.278-0.278,0.278-0.732,0.005-1.011c-0.277-0.283-0.727-0.283-1.01-0.005l-1.899,1.889v-1.223l1.92-1.904
			c0.287-0.272,0.287-0.727,0.005-1.005c-0.268-0.288-0.728-0.288-1.011-0.005l-0.914,0.909v-2.212c0-0.395-0.323-0.718-0.717-0.718
			c-0.399,0-0.718,0.323-0.718,0.718v2.212l-0.919-0.909c-0.283-0.283-0.732-0.283-1.011,0.005
			c-0.277,0.278-0.277,0.732,0.005,1.005l1.925,1.904v1.223l-1.914-1.889c-0.273-0.278-0.728-0.278-1.011,0.005
			c-0.268,0.278-0.268,0.732,0.011,1.011l2.914,2.884v2.712l-2.425-1.232l-1.253-3.889c-0.116-0.379-0.515-0.571-0.894-0.46
			c-0.379,0.11-0.581,0.524-0.465,0.894l0.818,2.551l-1.086-0.551L86.186,74.9c-0.116-0.379-0.525-0.575-0.899-0.459
			s-0.581,0.516-0.46,0.895l0.389,1.232l-1.959-0.996c-0.349-0.176-0.783-0.045-0.955,0.314c-0.187,0.354-0.04,0.782,0.308,0.959
			l1.966,0.995l-1.228,0.409c-0.374,0.127-0.576,0.53-0.45,0.899c0.106,0.303,0.379,0.495,0.677,0.495
			c0.076,0,0.152-0.01,0.228-0.041l2.566-0.854l1.086,0.551l-2.546,0.844c-0.374,0.126-0.581,0.535-0.455,0.904
			c0.102,0.303,0.379,0.494,0.683,0.494c0.07,0,0.146-0.01,0.222-0.035l3.885-1.298l2.374,1.197l-2.212,1.46l-4.006-0.844
			c-0.399-0.066-0.773,0.172-0.854,0.551c-0.081,0.389,0.166,0.763,0.55,0.854l2.627,0.545l-1.025,0.678l-2.642-0.561
			c-0.395-0.092-0.763,0.161-0.839,0.545c-0.091,0.389,0.157,0.768,0.546,0.849l1.263,0.268l-1.839,1.223
			c-0.333,0.212-0.424,0.656-0.207,0.985c0.137,0.212,0.363,0.323,0.596,0.323c0.137,0,0.273-0.041,0.395-0.116l1.839-1.213
			l-0.253,1.263c-0.076,0.385,0.177,0.758,0.561,0.834c0.051,0.015,0.096,0.021,0.142,0.021c0.333,0,0.632-0.232,0.697-0.576
			l0.535-2.657l1.016-0.667l-0.525,2.632c-0.081,0.384,0.172,0.763,0.556,0.839c0.051,0.01,0.096,0.015,0.136,0.015
			c0.344,0,0.647-0.231,0.708-0.575l0.808-4.016l2.132-1.404v2.556l-2.914,2.874c-0.278,0.278-0.288,0.728-0.011,1.011
			c0.283,0.282,0.737,0.282,1.011,0.005l1.914-1.879v1.217l-1.925,1.899c-0.277,0.272-0.282,0.723-0.005,1.011
			c0.278,0.282,0.728,0.282,1.011,0.005l0.919-0.909v2.212c0,0.39,0.318,0.713,0.718,0.713c0.394,0,0.717-0.323,0.717-0.713v-2.212
			l0.914,0.909c0.137,0.136,0.323,0.207,0.506,0.207c0.182,0,0.368-0.076,0.505-0.212c0.282-0.288,0.282-0.738-0.005-1.011
			l-1.92-1.899v-1.217l1.899,1.879c0.142,0.136,0.323,0.212,0.5,0.212c0.192,0,0.374-0.076,0.51-0.217
			c0.273-0.283,0.273-0.732-0.005-1.011l-2.904-2.874v-2.718l2.42,1.228l1.242,3.895c0.096,0.309,0.384,0.5,0.682,0.5
			c0.076,0,0.146-0.01,0.218-0.03c0.379-0.126,0.586-0.525,0.47-0.904l-0.823-2.551l1.081,0.546l0.833,2.581
			c0.096,0.303,0.379,0.5,0.677,0.5c0.076,0,0.146-0.015,0.223-0.035c0.379-0.121,0.581-0.525,0.465-0.904l-0.404-1.228l1.975,1
			c0.106,0.046,0.213,0.076,0.329,0.076c0.257,0,0.505-0.142,0.631-0.395C103.956,86.428,103.81,85.999,103.461,85.817z
			 M61.075,66.697l1.298,0.662l-0.682,0.223c-0.374,0.131-0.576,0.535-0.449,0.904c0.105,0.303,0.379,0.494,0.677,0.494
			c0.075,0,0.151-0.01,0.228-0.045l2.021-0.667l0.535,0.269l-1.748,0.575c-0.368,0.132-0.57,0.53-0.449,0.909
			c0.096,0.298,0.379,0.484,0.677,0.484c0.076,0,0.151-0.01,0.228-0.035l3.086-1.025l1.646,0.839l-1.54,1.015l-3.183-0.672
			c-0.399-0.064-0.768,0.172-0.849,0.557c-0.081,0.384,0.172,0.758,0.556,0.844l1.804,0.383l-0.506,0.329l-2.081-0.444
			c-0.374-0.076-0.768,0.166-0.849,0.551c-0.08,0.383,0.167,0.762,0.551,0.848l0.702,0.146l-1.212,0.809
			c-0.334,0.217-0.425,0.656-0.202,0.99c0.136,0.207,0.358,0.323,0.591,0.323c0.142,0,0.272-0.04,0.394-0.121l1.208-0.798
			l-0.142,0.687c-0.076,0.389,0.182,0.768,0.561,0.844c0.046,0.01,0.091,0.015,0.142,0.015c0.338,0,0.631-0.232,0.702-0.57
			l0.424-2.086l0.5-0.328l-0.363,1.803c-0.071,0.384,0.172,0.763,0.565,0.834c0.046,0.015,0.091,0.02,0.137,0.02
			c0.116,0,0.212-0.065,0.308-0.111c0.016,0.156,0.056,0.309,0.172,0.43c0.142,0.142,0.323,0.212,0.506,0.212
			c0.187,0,0.368-0.07,0.51-0.207l1.303-1.288v0.596l-1.52,1.5c-0.278,0.269-0.283,0.723-0.006,1.006
			c0.283,0.283,0.732,0.283,1.011,0.005l0.515-0.5v1.455c0,0.389,0.313,0.712,0.713,0.712c0.389,0,0.712-0.323,0.712-0.712v-1.455
			l0.505,0.5c0.142,0.137,0.323,0.208,0.506,0.208c0.187,0,0.368-0.071,0.505-0.213c0.283-0.283,0.277-0.737-0.005-1.006l-1.511-1.5
			v-0.596l1.313,1.288c0.283,0.283,0.737,0.269,1.011-0.005c0.272-0.288,0.272-0.737-0.011-1.01l-2.313-2.283v-1.926l1.702,0.869
			l1,3.102c0.102,0.299,0.379,0.495,0.678,0.495c0.08,0,0.151-0.015,0.222-0.035c0.374-0.121,0.586-0.525,0.465-0.904l-0.561-1.747
			l0.525,0.268l0.651,2.035c0.102,0.299,0.379,0.495,0.688,0.495c0.065,0,0.141-0.011,0.222-0.03
			c0.369-0.127,0.576-0.525,0.46-0.904l-0.223-0.677l1.299,0.657c0.101,0.05,0.212,0.08,0.323,0.08c0.252,0,0.51-0.146,0.636-0.395
			c0.177-0.348,0.036-0.782-0.317-0.959l-1.294-0.656l0.672-0.232c0.379-0.121,0.586-0.525,0.46-0.899
			c-0.121-0.379-0.541-0.581-0.899-0.46l-2.03,0.672l-0.53-0.268l1.747-0.581c0.369-0.121,0.581-0.53,0.45-0.904
			c-0.121-0.374-0.53-0.575-0.904-0.454l-3.086,1.03l-1.647-0.833l1.536-1.011l3.188,0.661c0.05,0.011,0.101,0.016,0.146,0.016
			c0.333,0,0.631-0.237,0.702-0.57c0.08-0.385-0.162-0.764-0.556-0.85l-1.788-0.373l0.5-0.328l2.076,0.439
			c0.05,0.015,0.101,0.015,0.151,0.015c0.328,0,0.626-0.232,0.697-0.571c0.08-0.383-0.167-0.762-0.551-0.838l-0.702-0.151
			l1.212-0.798c0.334-0.217,0.425-0.667,0.207-0.995c-0.217-0.328-0.667-0.414-0.99-0.202l-1.222,0.798l0.141-0.692
			c0.086-0.384-0.171-0.763-0.555-0.839C74.77,63.753,74.41,64,74.335,64.395l-0.419,2.081l-0.501,0.328l0.364-1.798
			c0.081-0.389-0.172-0.768-0.565-0.843c-0.162-0.03-0.309,0.02-0.445,0.086c-0.015-0.152-0.061-0.308-0.171-0.424
			c-0.273-0.283-0.728-0.278-1.011-0.005l-1.313,1.298v-0.591l1.511-1.505c0.288-0.278,0.288-0.732,0.005-1.01
			c-0.278-0.283-0.723-0.278-1.011-0.005l-0.505,0.5v-1.45c0-0.399-0.323-0.712-0.712-0.712c-0.399,0-0.713,0.313-0.713,0.712v1.45
			l-0.515-0.5c-0.278-0.272-0.728-0.278-1.011,0.005c-0.272,0.278-0.272,0.732,0.006,1.01l1.52,1.505v0.586l-1.303-1.293
			c-0.278-0.272-0.732-0.278-1.016,0.005c-0.272,0.283-0.272,0.732,0.011,1.01l2.308,2.288v1.919l-1.707-0.868l-0.99-3.091
			c-0.121-0.379-0.52-0.581-0.894-0.465c-0.379,0.116-0.591,0.52-0.47,0.899l0.561,1.748l-0.535-0.263l-0.652-2.031
			c-0.116-0.379-0.525-0.576-0.898-0.465c-0.369,0.126-0.576,0.525-0.46,0.899l0.223,0.681l-1.304-0.656
			c-0.344-0.182-0.778-0.04-0.96,0.308C60.585,66.092,60.722,66.521,61.075,66.697z M70.273,67.122l2.021-1.995l-0.561,2.783
			l-1.46,0.97V67.122z M68.849,73.285l-2.015,1.984l0.55-2.773l1.465-0.959V73.285z M52.715,84.635l1.081,0.546l0.834,2.581
			c0.096,0.303,0.384,0.5,0.677,0.5c0.076,0,0.146-0.015,0.223-0.035c0.373-0.121,0.58-0.525,0.459-0.904l-0.394-1.228l1.965,1
			c0.106,0.046,0.217,0.076,0.328,0.076c0.258,0,0.505-0.142,0.632-0.395c0.182-0.349,0.035-0.777-0.313-0.959l-1.97-0.995
			l1.232-0.414c0.374-0.122,0.575-0.531,0.449-0.904c-0.126-0.375-0.53-0.576-0.904-0.455l-2.565,0.859l-1.087-0.547l2.546-0.843
			c0.374-0.126,0.581-0.525,0.455-0.909c-0.126-0.374-0.53-0.57-0.904-0.449l-3.895,1.287l-2.364-1.197l2.223-1.465l3.996,0.85
			c0.056,0.01,0.105,0.02,0.156,0.02c0.328,0,0.626-0.237,0.697-0.576c0.081-0.383-0.167-0.762-0.551-0.848l-2.627-0.546
			l1.021-0.672l2.647,0.561c0.045,0.011,0.096,0.021,0.146,0.021c0.333,0,0.626-0.238,0.691-0.576
			c0.091-0.384-0.161-0.763-0.545-0.844l-1.269-0.268l1.849-1.217c0.329-0.218,0.425-0.662,0.202-0.996
			c-0.217-0.322-0.666-0.408-0.989-0.196l-1.834,1.212l0.247-1.268c0.081-0.384-0.171-0.763-0.561-0.838
			c-0.409-0.071-0.768,0.176-0.838,0.564l-0.531,2.652l-1.02,0.667l0.525-2.632c0.08-0.384-0.172-0.763-0.556-0.838
			c-0.415-0.082-0.769,0.176-0.839,0.565l-0.813,4.011l-2.132,1.404v-2.546l2.915-2.884c0.277-0.278,0.277-0.732,0.01-1.011
			c-0.277-0.283-0.737-0.283-1.01-0.005l-1.915,1.889v-1.223l1.925-1.904c0.283-0.272,0.283-0.727,0.005-1.005
			c-0.277-0.288-0.728-0.288-1.01-0.005l-0.92,0.909v-2.212c0-0.395-0.318-0.718-0.717-0.718c-0.395,0-0.712,0.323-0.712,0.718
			v2.212l-0.92-0.909c-0.283-0.283-0.742-0.283-1.01,0.005c-0.278,0.278-0.278,0.732,0.005,1.005l1.925,1.904v1.223l-1.905-1.889
			c-0.277-0.278-0.732-0.278-1.01,0.005c-0.272,0.278-0.272,0.732,0.005,1.011l2.91,2.884v2.712l-2.42-1.223l-1.258-3.904
			c-0.116-0.373-0.505-0.565-0.904-0.454c-0.369,0.121-0.57,0.524-0.455,0.894l0.824,2.551l-1.081-0.545L40.94,74.9
			c-0.121-0.379-0.51-0.575-0.894-0.459c-0.384,0.121-0.586,0.52-0.465,0.895l0.398,1.237l-1.975-1.001
			c-0.354-0.176-0.783-0.045-0.96,0.314c-0.182,0.354-0.04,0.782,0.313,0.959l1.97,0.995l-1.232,0.409
			c-0.374,0.127-0.576,0.53-0.449,0.899c0.101,0.303,0.379,0.495,0.677,0.495c0.075,0,0.151-0.01,0.228-0.041l2.57-0.854
			l1.081,0.551l-2.546,0.844c-0.379,0.126-0.58,0.535-0.454,0.904c0.101,0.303,0.379,0.494,0.677,0.494
			c0.076,0,0.151-0.01,0.228-0.035l3.895-1.298l2.369,1.197l-2.218,1.46l-4.011-0.844c-0.399-0.066-0.772,0.172-0.854,0.551
			c-0.081,0.389,0.172,0.763,0.556,0.854l2.621,0.545l-1.015,0.672l-2.647-0.555c-0.398-0.092-0.768,0.161-0.838,0.545
			c-0.091,0.389,0.156,0.768,0.55,0.849l1.258,0.268l-1.844,1.223c-0.328,0.212-0.424,0.656-0.207,0.985
			c0.142,0.212,0.364,0.323,0.602,0.323c0.137,0,0.268-0.041,0.394-0.116l1.844-1.218l-0.252,1.268
			c-0.076,0.385,0.166,0.758,0.561,0.834c0.045,0.015,0.096,0.021,0.142,0.021c0.333,0,0.631-0.232,0.702-0.576l0.53-2.657
			l1.015-0.667l-0.53,2.632c-0.075,0.384,0.177,0.763,0.561,0.839c0.051,0.01,0.097,0.015,0.142,0.015
			c0.334,0,0.637-0.231,0.702-0.575l0.809-4.021l2.127-1.398v2.556l-2.91,2.874c-0.277,0.278-0.277,0.728-0.005,1.011
			c0.137,0.141,0.323,0.217,0.51,0.217c0.177,0,0.359-0.076,0.5-0.212l1.905-1.879v1.217l-1.925,1.899
			c-0.283,0.272-0.283,0.723-0.005,1.011c0.268,0.282,0.727,0.282,1.01,0.005l0.92-0.909v2.212c0,0.39,0.317,0.713,0.712,0.713
			c0.398,0,0.717-0.323,0.717-0.713v-2.212l0.92,0.909c0.142,0.136,0.323,0.207,0.505,0.207s0.369-0.076,0.505-0.212
			c0.278-0.288,0.273-0.738-0.005-1.011l-1.925-1.899v-1.217l1.915,1.879c0.272,0.277,0.732,0.277,1.01-0.005
			c0.273-0.283,0.268-0.732-0.01-1.011l-2.915-2.874v-2.723l2.425,1.232l1.248,3.895c0.096,0.309,0.379,0.5,0.687,0.5
			c0.065,0,0.146-0.01,0.212-0.03c0.379-0.126,0.581-0.525,0.46-0.904L52.715,84.635z M86.16,111.927l-3.233-1.646l2.106-0.697
			c0.525-0.172,0.809-0.742,0.632-1.268c-0.172-0.516-0.743-0.813-1.263-0.632l-3.98,1.329l-1.904-0.97l4.121-1.369
			c0.525-0.172,0.809-0.737,0.632-1.268c-0.172-0.521-0.728-0.813-1.268-0.632l-5.991,1.995l-3.823-1.935l3.565-2.349l6.198,1.293
			c0.065,0.021,0.137,0.025,0.207,0.025c0.46,0,0.879-0.323,0.98-0.793c0.105-0.541-0.238-1.071-0.778-1.188l-4.253-0.898
			l1.783-1.167l4.106,0.858c0.07,0.016,0.137,0.021,0.207,0.021c0.465,0,0.879-0.323,0.979-0.793
			c0.116-0.541-0.231-1.076-0.768-1.188l-2.172-0.454l3.016-1.99c0.47-0.304,0.591-0.92,0.283-1.39
			c-0.298-0.46-0.93-0.581-1.379-0.283l-3.026,1.996l0.439-2.173c0.106-0.54-0.242-1.065-0.777-1.182
			c-0.566-0.116-1.076,0.253-1.183,0.783l-0.828,4.122l-1.783,1.182L77.86,95c0.106-0.54-0.247-1.076-0.788-1.177
			c-0.535-0.121-1.061,0.237-1.172,0.783l-1.237,6.203l-3.465,2.277V98.95l4.5-4.455c0.39-0.384,0.39-1.021,0.006-1.409
			c-0.384-0.395-1.021-0.399-1.415-0.016l-3.091,3.062v-2.127l2.99-2.96c0.389-0.389,0.398-1.021,0.005-1.414
			c-0.384-0.395-1.021-0.395-1.414-0.011l-1.581,1.571v-3.627c0-0.551-0.444-0.995-0.995-0.995c-0.556,0-1,0.444-1,0.995v3.622
			l-1.576-1.566c-0.395-0.384-1.025-0.384-1.415,0.011c-0.389,0.394-0.389,1.025,0.006,1.414l2.985,2.96v2.127l-3.087-3.062
			c-0.399-0.384-1.03-0.379-1.414,0.016c-0.395,0.389-0.389,1.025,0.005,1.409l4.496,4.455v4.369l-3.895-1.975l-1.94-6.026
			c-0.166-0.53-0.717-0.823-1.263-0.651c-0.525,0.172-0.813,0.732-0.642,1.268l1.334,4.132l-1.915-0.97l-1.282-3.99
			c-0.167-0.525-0.718-0.823-1.258-0.646c-0.525,0.166-0.818,0.728-0.646,1.258l0.677,2.106l-3.223-1.637
			c-0.495-0.243-1.097-0.056-1.35,0.444c-0.252,0.49-0.055,1.091,0.445,1.344l3.228,1.637l-2.102,0.702
			c-0.525,0.177-0.813,0.737-0.642,1.258c0.142,0.424,0.53,0.691,0.95,0.691c0.105,0,0.217-0.015,0.312-0.045l3.985-1.334l1.91,0.97
			l-4.122,1.364c-0.525,0.177-0.813,0.742-0.642,1.268c0.146,0.414,0.53,0.682,0.949,0.682c0.106,0,0.218-0.01,0.318-0.045
			l6.006-1.995l3.81,1.935l-3.562,2.354l-6.193-1.308c-0.556-0.116-1.07,0.237-1.182,0.782c-0.121,0.536,0.228,1.071,0.768,1.183
			l4.254,0.889l-1.783,1.182l-4.107-0.863c-0.556-0.116-1.07,0.232-1.182,0.772c-0.116,0.541,0.232,1.071,0.768,1.183l2.172,0.459
			l-3.025,1.99c-0.46,0.304-0.586,0.925-0.283,1.385c0.197,0.293,0.511,0.454,0.834,0.454c0.191,0,0.389-0.061,0.551-0.172
			l3.03-1.995l-0.444,2.172c-0.111,0.546,0.237,1.075,0.783,1.181c0.07,0.016,0.131,0.021,0.196,0.021
			c0.476,0,0.885-0.327,0.98-0.802l0.833-4.122l1.773-1.172l-0.844,4.264c-0.111,0.545,0.237,1.065,0.783,1.177
			c0.061,0.016,0.131,0.021,0.197,0.021c0.465,0,0.884-0.329,0.979-0.804l1.237-6.203l3.461-2.283v4.143l-4.496,4.45
			c-0.394,0.394-0.399,1.025-0.005,1.418c0.384,0.395,1.015,0.395,1.414,0.005l3.087-3.055v2.132l-2.985,2.948
			c-0.395,0.39-0.395,1.025-0.006,1.42c0.192,0.197,0.455,0.293,0.713,0.293c0.252,0,0.505-0.096,0.702-0.288l1.576-1.561v3.616
			c0,0.561,0.444,1.006,1,1.006c0.551,0,0.995-0.445,0.995-1.006v-3.616l1.581,1.561c0.394,0.389,1.03,0.389,1.414-0.005
			c0.394-0.395,0.384-1.03-0.005-1.42l-2.99-2.948v-2.132l3.091,3.055c0.192,0.192,0.45,0.288,0.702,0.288
			c0.258,0,0.521-0.096,0.713-0.293c0.384-0.393,0.384-1.024-0.006-1.418l-4.5-4.45v-4.375l3.895,1.98l1.939,6.026
			c0.142,0.424,0.53,0.692,0.955,0.692c0.101,0,0.202-0.011,0.303-0.046c0.525-0.172,0.818-0.732,0.642-1.258l-1.329-4.137
			l1.915,0.965l1.283,4c0.142,0.425,0.53,0.688,0.954,0.688c0.102,0,0.202-0.016,0.309-0.051c0.525-0.161,0.813-0.728,0.646-1.253
			l-0.682-2.106l3.228,1.637c0.146,0.071,0.298,0.106,0.454,0.106c0.359,0,0.713-0.202,0.895-0.546
			C86.847,112.775,86.65,112.175,86.16,111.927z"/>
	</g>
</g>
</svg>
