<?xml version="1.0" encoding="utf-8"?>
<!-- Generator: Adobe Illustrator 16.0.0, SVG Export Plug-In . SVG Version: 6.00 Build 0)  -->
<!DOCTYPE svg PUBLIC "-//W3C//DTD SVG 1.1//EN" "http://www.w3.org/Graphics/SVG/1.1/DTD/svg11.dtd">
<svg version="1.1" id="Layer_1" xmlns="http://www.w3.org/2000/svg" xmlns:xlink="http://www.w3.org/1999/xlink" x="0px" y="0px"
	 width="130px" height="130px" viewBox="0 0 130 130" enable-background="new 0 0 130 130" xml:space="preserve">
<rect fill="none" width="130" height="130"/>
<g>
	<g>
		<path fill="#4BA7C4" d="M127.248,32.078c0-7.94-6.371-14.396-14.193-14.396c-7.826,0-14.192,6.455-14.192,14.396
			c0,1.455,1.169,2.638,2.604,2.638s2.599-1.183,2.599-2.638c0-5.03,4.034-9.119,8.989-9.119c4.956,0,8.99,4.089,8.99,9.119
			c0,9.321-8.183,10.044-8.99,10.094H3.599C2.163,42.172,1,43.35,1,44.81c0,1.456,1.163,2.639,2.599,2.639l109.565-0.005
			C118.04,47.23,127.248,43.74,127.248,32.078z M114.708,54.508H17.623c-1.445,0-2.618,1.183-2.618,2.639
			c0,1.46,1.173,2.638,2.618,2.638h96.972c0.371,0.016,9.168,0.505,9.168,10.089c0,5.029-4.064,9.124-9.055,9.124
			c-4.989,0-9.054-4.095-9.054-9.124c0-1.46-1.173-2.639-2.618-2.639c-1.446,0-2.619,1.179-2.619,2.639
			c0,7.94,6.41,14.4,14.291,14.4c7.876,0,14.292-6.46,14.292-14.4C129,58.205,119.718,54.721,114.708,54.508z"/>
	</g>
	<g>
		<path fill="#4BA7C4" d="M56.771,85.996h-4.619l15.015-15.43c1.267-1.302,1.242-3.386-0.06-4.653
			c-1.302-1.272-3.386-1.232-4.653,0.06L42.009,86.991c-0.926,0.95-1.193,2.356-0.679,3.574c0.52,1.218,1.713,2.01,3.029,2.01h4.471
			l-14.118,14.128c-1.287,1.282-1.287,3.361,0,4.648c0.639,0.644,1.479,0.966,2.316,0.966c0.852,0,1.688-0.322,2.332-0.966
			l19.736-19.736c0.945-0.946,1.218-2.356,0.713-3.584C59.305,86.798,58.106,85.996,56.771,85.996z M45.122,67.26
			c-1.282-1.277-3.366-1.282-4.658,0L24.836,82.858c-1.282,1.281-1.282,3.365,0,4.652c0.644,0.644,1.479,0.966,2.331,0.966
			c0.837,0,1.679-0.322,2.317-0.961l15.628-15.598C46.399,70.631,46.399,68.552,45.122,67.26z M87.486,67.26
			c-1.276-1.277-3.355-1.287-4.653,0L67.226,82.863c-1.287,1.276-1.287,3.36,0,4.647c0.644,0.644,1.479,0.966,2.321,0.966
			c0.837,0,1.688-0.322,2.326-0.966l15.613-15.598C88.769,70.631,88.769,68.547,87.486,67.26z"/>
	</g>
	<g>
		<path fill="#4BA7C4" d="M86.081,26.444H10.594c-1.436,0-2.599,1.183-2.599,2.634c0,1.45,1.164,2.634,2.599,2.634h75.487
			c1.436,0,2.599-1.184,2.599-2.634C88.68,27.627,87.517,26.444,86.081,26.444z"/>
	</g>
</g>
</svg>
