<?xml version="1.0" encoding="utf-8"?>
<!-- Generator: Adobe Illustrator 16.0.0, SVG Export Plug-In . SVG Version: 6.00 Build 0)  -->
<!DOCTYPE svg PUBLIC "-//W3C//DTD SVG 1.1//EN" "http://www.w3.org/Graphics/SVG/1.1/DTD/svg11.dtd">
<svg version="1.1" id="Layer_1" xmlns="http://www.w3.org/2000/svg" xmlns:xlink="http://www.w3.org/1999/xlink" x="0px" y="0px"
	 width="130px" height="130px" viewBox="0 0 130 130" enable-background="new 0 0 130 130" xml:space="preserve">
<rect fill="none" width="130" height="130"/>
<path fill="#4BA7C4" d="M112.936,57.505c0.066-0.822,0.11-1.652,0.11-2.496c0-17.303-14.027-31.329-31.329-31.329
	c-11.654,0-21.816,6.373-27.216,15.816c-4.041-3.326-9.224-5.329-14.874-5.329c-12.936,0-23.424,10.492-23.424,23.431l0.004,0.237
	C7.314,61.469,1,70.571,1,81.234c0,13.856,10.654,25.085,23.791,25.085h80.422c13.142,0,23.787-11.229,23.787-25.085
	C129,70.231,122.281,60.885,112.936,57.505z M85.342,79.366L67.88,96.65c-0.797,0.795-1.843,1.189-2.888,1.189
	c-1.046,0-2.09-0.395-2.893-1.189L44.652,79.366c-1.604-1.595-1.625-4.194-0.029-5.802c1.601-1.613,4.194-1.63,5.81-0.031
	l10.443,10.344V53.613c0-2.267,1.838-4.106,4.107-4.106c2.268,0,4.102,1.839,4.102,4.106v30.293l10.482-10.373
	c1.606-1.599,4.205-1.578,5.803,0.031C86.967,75.173,86.948,77.771,85.342,79.366z"/>
</svg>
