<?xml version="1.0" encoding="utf-8"?>
<!-- Generator: Adobe Illustrator 16.0.0, SVG Export Plug-In . SVG Version: 6.00 Build 0)  -->
<!DOCTYPE svg PUBLIC "-//W3C//DTD SVG 1.1//EN" "http://www.w3.org/Graphics/SVG/1.1/DTD/svg11.dtd">
<svg version="1.1" id="Layer_1" xmlns="http://www.w3.org/2000/svg" xmlns:xlink="http://www.w3.org/1999/xlink" x="0px" y="0px"
	 width="130px" height="130px" viewBox="0 0 130 130" enable-background="new 0 0 130 130" xml:space="preserve">
<rect fill="none" width="130" height="130"/>
<g>
	<g>
		<path fill="#D1C9B4" d="M112.929,77.228c0.073-0.823,0.116-1.651,0.116-2.495c0-17.301-14.028-31.329-31.334-31.329
			c-11.648,0-21.802,6.375-27.197,15.816c-4.051-3.324-9.233-5.329-14.884-5.329c-12.929,0-23.428,10.492-23.428,23.428
			c0,0.076,0.013,0.162,0.013,0.237C7.321,81.193,1,90.29,1,100.954c0,13.855,10.658,25.084,23.799,25.084h80.414
			c13.141,0,23.787-11.229,23.787-25.084C129,89.952,122.281,80.607,112.929,77.228z"/>
	</g>
	<g>
		<path fill="#FDB813" d="M52.372,39.645l-13.608-0.333h-0.053c-1.091,0-1.988,0.869-2.013,1.965
			c-0.028,1.111,0.854,2.031,1.965,2.061l13.61,0.329h0.054c1.091,0,1.985-0.869,2.013-1.96
			C54.365,40.595,53.483,39.67,52.372,39.645z M62.823,22.991c0.356,0.697,1.059,1.096,1.794,1.096c0.303,0,0.616-0.07,0.911-0.222
			c0.99-0.51,1.385-1.722,0.877-2.712L60.191,9.039c-0.505-0.99-1.715-1.389-2.707-0.874c-0.99,0.51-1.384,1.723-0.874,2.708
			L62.823,22.991z M75.432,21.602h0.054c1.088,0,1.987-0.869,2.013-1.965l0.331-13.613c0.025-1.111-0.856-2.031-1.968-2.061h-0.046
			c-1.091,0-1.987,0.869-2.015,1.965l-0.329,13.608C73.444,20.646,74.32,21.571,75.432,21.602z M86.187,24.93
			c0.338,0.222,0.723,0.329,1.094,0.329c0.661,0,1.306-0.324,1.694-0.915l7.428-11.411c0.609-0.929,0.347-2.177-0.586-2.783
			c-0.934-0.611-2.182-0.344-2.79,0.586l-7.429,11.411C84.989,23.076,85.252,24.324,86.187,24.93z M57.674,30.946
			c0.604-0.929,0.341-2.177-0.594-2.788l-11.406-7.431c-0.935-0.606-2.177-0.338-2.791,0.591c-0.604,0.93-0.341,2.177,0.594,2.784
			l11.409,7.436c0.341,0.217,0.722,0.323,1.096,0.323C56.641,31.861,57.287,31.538,57.674,30.946z M108.971,24.738
			c-0.508-0.985-1.715-1.384-2.71-0.869l-12.116,6.218c-0.992,0.505-1.379,1.717-0.871,2.708c0.356,0.697,1.059,1.096,1.793,1.096
			c0.309,0,0.619-0.071,0.917-0.223l12.116-6.218C109.087,26.946,109.479,25.733,108.971,24.738z M75.363,24.602
			c-4.756-0.091-9.165,1.606-12.567,4.849c-3.407,3.243-5.342,7.618-5.458,12.32c-0.051,2.223,1.71,4.066,3.933,4.122h0.101
			c2.175,0,3.968-1.743,4.021-3.93c0.062-2.551,1.111-4.92,2.957-6.683c1.849-1.758,4.267-2.733,6.819-2.627
			c3.592,0.086,6.784,2.167,8.32,5.43c0.949,2.011,3.356,2.869,5.359,1.919c2.013-0.944,2.874-3.344,1.925-5.354
			C87.927,28.613,82.021,24.764,75.363,24.602z"/>
	</g>
</g>
</svg>
