<?xml version="1.0" encoding="utf-8"?>
<!-- Generator: Adobe Illustrator 16.0.0, SVG Export Plug-In . SVG Version: 6.00 Build 0)  -->
<!DOCTYPE svg PUBLIC "-//W3C//DTD SVG 1.1//EN" "http://www.w3.org/Graphics/SVG/1.1/DTD/svg11.dtd">
<svg version="1.1" id="Layer_1" xmlns="http://www.w3.org/2000/svg" xmlns:xlink="http://www.w3.org/1999/xlink" x="0px" y="0px"
	 width="130px" height="130px" viewBox="0 0 130 130" enable-background="new 0 0 130 130" xml:space="preserve">
<rect fill="none" width="130" height="130"/>
<path fill="#4BA7C4" d="M112.935,57.503c0.07-0.822,0.111-1.65,0.111-2.495c0-17.302-14.024-31.326-31.332-31.326
	c-11.647,0-21.801,6.372-27.2,15.815c-4.05-3.327-9.229-5.33-14.882-5.33c-12.931,0-23.432,10.492-23.432,23.43l0.017,0.238
	C7.323,61.469,1,70.57,1,81.233c0,13.855,10.662,25.085,23.801,25.085h80.415c13.139,0,23.784-11.229,23.784-25.085
	C129,70.231,122.288,60.885,112.935,57.503z M67.006,94.104c-11.192,0-20.343-8.46-21.647-19.301l-6.943-1.263L49.388,60.6
	l5.706,15.974l-5.503-1.002c1.577,8.178,8.782,14.377,17.415,14.377c9.784,0,17.751-7.961,17.751-17.747
	c0-9.79-7.967-17.757-17.751-17.757c-1.15,0-2.078-0.927-2.078-2.076c0-1.147,0.928-2.078,2.078-2.078
	c12.078,0,21.904,9.829,21.904,21.911C88.91,84.277,79.084,94.104,67.006,94.104z"/>
</svg>
