<?xml version="1.0" encoding="utf-8"?>
<!-- Generator: Adobe Illustrator 16.0.0, SVG Export Plug-In . SVG Version: 6.00 Build 0)  -->
<!DOCTYPE svg PUBLIC "-//W3C//DTD SVG 1.1//EN" "http://www.w3.org/Graphics/SVG/1.1/DTD/svg11.dtd">
<svg version="1.1" id="Layer_1" xmlns="http://www.w3.org/2000/svg" xmlns:xlink="http://www.w3.org/1999/xlink" x="0px" y="0px"
	 width="130px" height="130px" viewBox="0 0 130 130" enable-background="new 0 0 130 130" xml:space="preserve">
<rect fill="none" width="130" height="130"/>
<g>
	<g>
		<path fill="#FDB813" d="M59.123,31.109h0.039c0.851,0,1.552-0.679,1.573-1.53l0.259-10.632c0.018-0.868-0.666-1.591-1.538-1.608
			h-0.035c-0.851,0-1.552,0.68-1.573,1.53l-0.259,10.632C57.571,30.369,58.255,31.087,59.123,31.109z M49.275,32.196
			c0.28,0.543,0.828,0.854,1.402,0.854c0.236,0,0.481-0.057,0.71-0.175c0.775-0.395,1.082-1.341,0.684-2.112l-4.852-9.462
			c-0.391-0.771-1.337-1.083-2.112-0.679c-0.771,0.395-1.078,1.341-0.684,2.112L49.275,32.196z M41.114,45.2l-10.623-0.259h-0.044
			c-0.851,0-1.552,0.679-1.573,1.534c-0.018,0.868,0.67,1.586,1.538,1.608l10.628,0.258h0.039c0.854,0,1.552-0.679,1.573-1.534
			C42.67,45.94,41.986,45.222,41.114,45.2z M67.52,33.713c0.264,0.171,0.565,0.254,0.855,0.254c0.517,0,1.021-0.254,1.323-0.714
			l5.798-8.91c0.479-0.728,0.272-1.701-0.455-2.174c-0.728-0.478-1.705-0.268-2.179,0.46l-5.803,8.906
			C66.587,32.262,66.793,33.235,67.52,33.713z M45.256,38.411c0.469-0.727,0.268-1.705-0.464-2.178l-8.906-5.803
			c-0.731-0.478-1.7-0.268-2.178,0.46c-0.474,0.728-0.268,1.701,0.46,2.174l8.91,5.803c0.268,0.175,0.565,0.259,0.854,0.259
			C44.449,39.125,44.954,38.871,45.256,38.411z M85.313,33.563c-0.398-0.771-1.341-1.083-2.116-0.679l-9.463,4.852
			c-0.775,0.395-1.078,1.346-0.679,2.117c0.275,0.543,0.823,0.855,1.397,0.855c0.241,0,0.482-0.057,0.719-0.175l9.463-4.852
			C85.401,35.286,85.708,34.339,85.313,33.563z M59.07,33.454c-3.712-0.07-7.157,1.253-9.812,3.787
			c-2.665,2.533-4.173,5.947-4.265,9.62c-0.039,1.74,1.337,3.177,3.072,3.221h0.074c1.701,0,3.104-1.359,3.143-3.068
			c0.048-1.994,0.868-3.848,2.31-5.22c1.446-1.372,3.331-2.134,5.325-2.056c2.805,0.07,5.299,1.696,6.499,4.243
			c0.741,1.569,2.621,2.239,4.182,1.503c1.573-0.745,2.244-2.616,1.503-4.186C68.879,36.588,64.269,33.581,59.07,33.454z"/>
	</g>
	<g>
		<path fill="#B7B19F" d="M118.819,69.856c-1.228-9.629-9.476-17.097-19.438-17.097c-3.063,0-7.67,2.034-10.33,3.348
			c3.979,4.352,6.43,10.128,6.43,16.492c0,0.658-0.035,1.303-0.092,1.946c7.301,2.638,12.547,9.94,12.547,18.53
			c0,5.93-2.507,11.232-6.455,14.822c0.525,0.438,1.113,0.744,1.727,0.744h5.956c10.935,0,19.836-9.282,19.836-20.694
			C129,80.313,125.082,73.48,118.819,69.856z"/>
	</g>
	<g>
		<path fill="#D1C9B4" d="M88.403,74.546c0.053-0.644,0.088-1.288,0.088-1.946c0-13.511-10.952-24.463-24.464-24.463
			c-9.099,0-17.027,4.974-21.243,12.35c-3.16-2.599-7.205-4.159-11.618-4.159c-10.098,0-18.293,8.191-18.293,18.294
			c0,0.057,0.009,0.122,0.009,0.184C5.939,77.645,1,84.748,1,93.076c0,10.816,8.323,19.585,18.587,19.585h62.79
			c10.26,0,18.574-8.769,18.574-19.585C100.951,84.486,95.705,77.184,88.403,74.546z"/>
	</g>
</g>
</svg>
