<?xml version="1.0" encoding="utf-8"?>
<!-- Generator: Adobe Illustrator 16.0.0, SVG Export Plug-In . SVG Version: 6.00 Build 0)  -->
<!DOCTYPE svg PUBLIC "-//W3C//DTD SVG 1.1//EN" "http://www.w3.org/Graphics/SVG/1.1/DTD/svg11.dtd">
<svg version="1.1" id="Layer_1" xmlns="http://www.w3.org/2000/svg" xmlns:xlink="http://www.w3.org/1999/xlink" x="0px" y="0px"
	 width="130px" height="130px" viewBox="0 0 130 130" enable-background="new 0 0 130 130" xml:space="preserve">
<rect fill="none" width="130" height="130"/>
<g>
	<g>
		<path fill="#4BA7C4" d="M113.929,40.419v-0.064c0-18.266-14.862-33.128-33.134-33.128c-10.563,0-20.431,5.017-26.675,13.496
			c-3.961-2.353-8.452-3.586-13.089-3.586c-13.356,0-24.419,10.291-25.561,23.588C6.521,45.339,1,54.606,1,65.132
			C1,80.15,12.668,92.371,27.016,92.371h1.34c1.946,0,3.532-1.588,3.532-3.539c0-1.945-1.586-3.531-3.532-3.531h-1.34
			c-10.451,0-18.952-9.047-18.952-20.168c0-8.286,4.888-15.859,12.172-18.839c1.436-0.584,2.191-2.197,2.191-3.495
			c0-10.253,8.346-18.598,18.604-18.598c4.304,0,8.501,1.501,11.818,4.234c0.814,0.654,1.973,0.911,2.873,0.734
			c1.034-0.182,1.919-0.815,2.433-1.721c4.642-8.12,13.309-13.158,22.64-13.158c14.369,0,26.064,11.689,26.064,26.064
			c0,0.702-0.038,1.388-0.092,2.063c-0.134,1.586,0.815,3.071,2.321,3.612c7.681,2.782,12.847,10.457,12.847,19.102
			c0,11.122-8.5,20.168-18.946,20.168h-1.345c-1.946,0-3.532,1.586-3.532,3.531c0,1.951,1.586,3.539,3.532,3.539h1.345
			C117.332,92.371,129,80.15,129,65.132C129,54.456,123.109,44.867,113.929,40.419z"/>
	</g>
	<g>
		<path fill="#4BA7C4" d="M47.822,84.025c-0.52-0.771-0.997-1.501-1.437-2.176c-0.359-0.562-1.019-0.906-1.721-0.906
			c-0.707,0-1.361,0.344-1.726,0.906c-0.434,0.675-0.922,1.409-1.441,2.187c-3.248,4.878-5.928,9.122-5.928,11.667
			c0,4.652,4.078,8.438,9.101,8.438c0,0,0,0,0.005,0c2.434-0.012,4.717-0.891,6.438-2.477c1.71-1.592,2.658-3.709,2.658-5.961
			C53.771,93.158,51.075,88.908,47.822,84.025z M65.123,88.592c2.375,0,4.615-0.863,6.309-2.422
			c1.688-1.561,2.626-3.646,2.626-5.864c0-2.46-2.621-6.593-5.89-11.534l-1.351-2.025c-0.365-0.547-1.008-0.885-1.71-0.885h-0.017
			c-0.696,0.005-1.351,0.354-1.709,0.916c-0.424,0.654-0.885,1.356-1.394,2.117c-3.179,4.781-5.805,8.936-5.805,11.428
			C56.184,84.883,60.192,88.592,65.123,88.592z M77.14,114.725l-1.902-0.895l1.05-0.32c0.493-0.15,0.756-0.645,0.601-1.094
			c-0.166-0.457-0.686-0.709-1.189-0.553l-2.809,0.863l-0.863-0.408l2.52-0.771c0.493-0.15,0.761-0.643,0.595-1.098
			c-0.161-0.445-0.676-0.709-1.185-0.547l-4.282,1.312l-2.369-1.115l2.214-1.35l4.416,0.857c0.064,0.016,0.129,0.021,0.193,0.021
			c0.434,0,0.825-0.285,0.916-0.691c0.107-0.467-0.22-0.928-0.718-1.029l-2.595-0.504l0.799-0.494l2.905,0.564
			c0.064,0.016,0.128,0.021,0.192,0.021c0.435,0,0.826-0.279,0.922-0.688c0.103-0.471-0.225-0.932-0.729-1.033l-1.083-0.209
			l1.769-1.084c0.439-0.262,0.558-0.799,0.269-1.199c-0.284-0.402-0.857-0.51-1.297-0.248l-1.785,1.088l0.22-1.012
			c0.102-0.467-0.225-0.928-0.734-1.023c-0.504-0.102-0.997,0.213-1.099,0.686l-0.579,2.691l-0.814,0.498l0.525-2.424
			c0.102-0.465-0.23-0.926-0.739-1.018c-0.226-0.049-0.45,0-0.644,0.107c-0.021-0.199-0.075-0.396-0.235-0.547
			c-0.37-0.344-0.96-0.344-1.33-0.012l-1.887,1.738v-0.896l2.106-1.934c0.37-0.344,0.376-0.891,0.006-1.229
			c-0.364-0.342-0.954-0.342-1.324-0.01l-0.788,0.729v-1.973c0-0.482-0.418-0.867-0.938-0.867s-0.933,0.385-0.933,0.867v1.973
			l-0.793-0.729c-0.37-0.332-0.954-0.332-1.329,0.01c-0.359,0.338-0.359,0.885,0.016,1.229l2.106,1.934v0.896l-1.897-1.738
			c-0.364-0.332-0.959-0.332-1.323,0.012c-0.37,0.338-0.359,0.889,0.005,1.223l3.216,2.941v2.541l-2.455-1.152l-1.383-3.977
			c-0.155-0.451-0.675-0.713-1.179-0.562c-0.493,0.145-0.761,0.637-0.605,1.098l0.814,2.338l-0.857-0.408l-0.906-2.609
			c-0.16-0.457-0.681-0.713-1.189-0.562c-0.487,0.148-0.761,0.637-0.601,1.098l0.344,0.977l-1.903-0.896
			c-0.455-0.215-1.019-0.047-1.254,0.381c-0.236,0.43-0.054,0.949,0.407,1.168l1.902,0.891l-1.056,0.326
			c-0.487,0.15-0.756,0.639-0.59,1.094c0.129,0.365,0.499,0.6,0.891,0.6c0.091,0,0.192-0.021,0.294-0.047l2.814-0.863l0.857,0.402
			l-2.524,0.777c-0.488,0.148-0.75,0.637-0.59,1.092c0.129,0.365,0.499,0.602,0.885,0.602c0.097,0,0.198-0.016,0.3-0.043
			l4.288-1.318l2.363,1.109l-2.219,1.355l-4.416-0.857c-0.515-0.107-1.003,0.203-1.115,0.67c-0.102,0.467,0.225,0.928,0.729,1.029
			l2.595,0.51l-0.799,0.486l-2.899-0.568c-0.521-0.096-1.002,0.205-1.109,0.67c-0.107,0.479,0.214,0.934,0.724,1.029l1.077,0.215
			l-1.769,1.082c-0.435,0.264-0.553,0.805-0.269,1.201c0.177,0.252,0.478,0.391,0.783,0.391c0.177,0,0.354-0.047,0.514-0.145
			l1.774-1.088l-0.22,1.014c-0.097,0.471,0.23,0.928,0.734,1.018c0.064,0.018,0.123,0.021,0.183,0.021
			c0.439,0,0.83-0.289,0.922-0.695l0.584-2.697l0.814-0.492l-0.525,2.416c-0.102,0.473,0.226,0.928,0.734,1.02
			c0.059,0.016,0.129,0.021,0.188,0.021c0.161,0,0.306-0.076,0.439-0.15c0.011,0.203,0.086,0.412,0.258,0.574
			c0.182,0.166,0.423,0.25,0.664,0.25s0.478-0.08,0.659-0.246l1.897-1.73v0.895l-2.106,1.93c-0.375,0.336-0.375,0.883-0.016,1.232
			c0.369,0.336,0.959,0.336,1.329,0l0.793-0.719v1.967c0,0.482,0.413,0.867,0.933,0.867s0.938-0.385,0.938-0.867v-1.967l0.788,0.719
			c0.183,0.17,0.418,0.252,0.665,0.252c0.235,0,0.477-0.086,0.659-0.252c0.37-0.35,0.364-0.896-0.006-1.232l-2.106-1.93v-0.895
			l1.887,1.73c0.37,0.338,0.96,0.332,1.33-0.004c0.358-0.344,0.358-0.896-0.012-1.234l-3.205-2.932v-2.551l2.45,1.152l1.383,3.982
			c0.128,0.369,0.487,0.6,0.895,0.6c0.086,0,0.188-0.01,0.284-0.043c0.488-0.145,0.761-0.631,0.601-1.092l-0.81-2.338l0.857,0.402
			l0.906,2.609c0.128,0.375,0.493,0.605,0.895,0.605c0.092,0,0.188-0.01,0.284-0.043c0.493-0.145,0.761-0.631,0.605-1.088
			l-0.337-0.98l1.902,0.9c0.14,0.059,0.278,0.092,0.423,0.092c0.344,0,0.671-0.178,0.842-0.477
			C77.788,115.465,77.601,114.945,77.14,114.725z M64.507,114.162l-2.921,2.67l0.804-3.736l2.117-1.285V114.162z M66.377,106.246
			l2.922-2.68l-0.81,3.736l-2.112,1.291V106.246z M88.84,84.492l-1.361-2.053c-0.364-0.563-1.013-0.906-1.721-0.906
			c-0.707,0-1.355,0.338-1.726,0.9c-0.413,0.643-0.857,1.318-1.351,2.047c-3.061,4.604-5.596,8.613-5.596,11.035
			c0,4.428,3.892,8.029,8.678,8.029c2.315,0,4.491-0.836,6.126-2.354c1.64-1.506,2.54-3.52,2.54-5.68
			C94.43,93.115,91.911,89.133,88.84,84.492z"/>
	</g>
</g>
</svg>
