<?xml version="1.0" encoding="utf-8"?>
<!-- Generator: Adobe Illustrator 16.0.0, SVG Export Plug-In . SVG Version: 6.00 Build 0)  -->
<!DOCTYPE svg PUBLIC "-//W3C//DTD SVG 1.1//EN" "http://www.w3.org/Graphics/SVG/1.1/DTD/svg11.dtd">
<svg version="1.1" id="Layer_1" xmlns="http://www.w3.org/2000/svg" xmlns:xlink="http://www.w3.org/1999/xlink" x="0px" y="0px"
	 width="130px" height="130px" viewBox="0 0 130 130" enable-background="new 0 0 130 130" xml:space="preserve">
<rect fill="none" width="130" height="130"/>
<g>
	<path fill="#4BA7C4" d="M73.627,61.453c0-4.759-3.862-8.627-8.616-8.627c-4.755,0-8.617,3.868-8.617,8.627
		c0,1.134,0.923,2.055,2.06,2.055c1.139,0,2.06-0.921,2.06-2.055c0-2.481,2.019-4.502,4.498-4.502c2.479,0,4.497,2.021,4.497,4.502
		c0,4.536-3.838,4.992-4.497,5.036H3.06c-1.137,0-2.06,0.92-2.06,2.059c0,1.14,0.923,2.061,2.06,2.061h62.038
		C68.049,70.481,73.627,68.402,73.627,61.453z M6.387,62.645h42.776c1.134,0,2.057-0.921,2.057-2.06s-0.923-2.06-2.057-2.06H6.387
		c-1.137,0-2.06,0.921-2.06,2.06S5.25,62.645,6.387,62.645z M115.572,56.044c-0.288-16.545-13.846-29.917-30.469-29.917
		c-9.417,0-18.271,4.4-23.999,11.718c-3.482-1.89-7.405-2.898-11.396-2.898c-7.919,0-15.303,3.92-19.751,10.492
		c-1.277,1.885-0.78,4.449,1.1,5.724c1.891,1.279,4.449,0.785,5.727-1.105c2.915-4.299,7.741-6.872,12.925-6.872
		c3.654,0,7.078,1.226,9.903,3.547c0.94,0.766,2.179,1.09,3.358,0.863c1.192-0.218,2.228-0.955,2.831-2.006
		c3.957-6.925,11.357-11.224,19.303-11.224c12.262,0,22.235,9.974,22.235,22.225c0,0.606-0.031,1.197-0.083,1.779
		c-0.143,1.847,0.967,3.567,2.707,4.197c6.46,2.336,10.795,8.801,10.795,16.085c0,9.363-7.124,16.982-15.889,16.982H37.233
		c-2.275,0-4.122,1.84-4.122,4.119c0,2.271,1.847,4.119,4.122,4.119h67.636c13.306,0,24.131-11.316,24.131-25.221
		C129,68.979,123.715,60.255,115.572,56.044z M43.323,83.789c0-1.139-0.921-2.06-2.06-2.06H20.645c-1.139,0-2.062,0.921-2.062,2.06
		s0.924,2.061,2.062,2.061h20.619C42.402,85.85,43.323,84.928,43.323,83.789z M69.508,82.883c0,2.486-2.019,4.508-4.497,4.508
		c-2.479,0-4.498-2.021-4.498-4.508c0-1.134-0.921-2.06-2.06-2.06c-1.137,0-2.06,0.926-2.06,2.06c0,4.76,3.862,8.627,8.617,8.627
		c4.754,0,8.616-3.867,8.616-8.627c0-6.949-5.578-9.028-8.616-9.154H10.45c-1.139,0-2.06,0.92-2.06,2.06
		c0,1.139,0.921,2.06,2.06,2.06h54.454C65.67,77.891,69.508,78.347,69.508,82.883z"/>
</g>
</svg>
