<?xml version="1.0" encoding="utf-8"?>
<!-- Generator: Adobe Illustrator 16.0.0, SVG Export Plug-In . SVG Version: 6.00 Build 0)  -->
<!DOCTYPE svg PUBLIC "-//W3C//DTD SVG 1.1//EN" "http://www.w3.org/Graphics/SVG/1.1/DTD/svg11.dtd">
<svg version="1.1" id="Layer_1" xmlns="http://www.w3.org/2000/svg" xmlns:xlink="http://www.w3.org/1999/xlink" x="0px" y="0px"
	 width="130px" height="130px" viewBox="0 0 130 130" enable-background="new 0 0 130 130" xml:space="preserve">
<rect fill="none" width="130" height="130"/>
<g>
	<path fill="#4BA7C4" d="M112.93,57.503c0.07-0.822,0.116-1.65,0.116-2.495c0-17.301-14.028-31.325-31.334-31.325
		c-11.649,0-21.807,6.371-27.197,15.815c-4.054-3.327-9.231-5.33-14.886-5.33c-12.929,0-23.43,10.492-23.43,23.429l0.013,0.238
		C7.32,61.469,1,70.57,1,81.232c0,13.855,10.66,25.085,23.798,25.085h80.414c13.14,0,23.788-11.229,23.788-25.085
		C129,70.231,122.281,60.885,112.93,57.503z"/>
</g>
</svg>
