<?xml version="1.0" encoding="utf-8"?>
<!-- Generator: Adobe Illustrator 16.0.0, SVG Export Plug-In . SVG Version: 6.00 Build 0)  -->
<!DOCTYPE svg PUBLIC "-//W3C//DTD SVG 1.1//EN" "http://www.w3.org/Graphics/SVG/1.1/DTD/svg11.dtd">
<svg version="1.1" id="Layer_1" xmlns="http://www.w3.org/2000/svg" xmlns:xlink="http://www.w3.org/1999/xlink" x="0px" y="0px"
	 width="130px" height="130px" viewBox="0 0 130 130" enable-background="new 0 0 130 130" xml:space="preserve">
<rect fill="none" width="130" height="130"/>
<g>
	<path fill="#D1C9B4" d="M112.932,57.506c0.071-0.823,0.114-1.652,0.114-2.495c0-17.301-14.028-31.328-31.334-31.328
		c-11.646,0-21.801,6.375-27.198,15.815c-4.052-3.324-9.229-5.329-14.881-5.329c-12.932,0-23.431,10.492-23.431,23.428
		c0,0.076,0.015,0.162,0.015,0.238C7.324,61.472,1,70.568,1,81.232c0,13.855,10.663,25.084,23.802,25.084h80.412
		c13.141,0,23.786-11.229,23.786-25.084C129,70.23,122.282,60.886,112.932,57.506z"/>
</g>
</svg>
