<?xml version="1.0" encoding="utf-8"?>
<!-- Generator: Adobe Illustrator 16.0.0, SVG Export Plug-In . SVG Version: 6.00 Build 0)  -->
<!DOCTYPE svg PUBLIC "-//W3C//DTD SVG 1.1//EN" "http://www.w3.org/Graphics/SVG/1.1/DTD/svg11.dtd">
<svg version="1.1" id="Layer_1" xmlns="http://www.w3.org/2000/svg" xmlns:xlink="http://www.w3.org/1999/xlink" x="0px" y="0px"
	 width="130px" height="130px" viewBox="0 0 130 130" enable-background="new 0 0 130 130" xml:space="preserve">
<rect fill="none" width="130" height="130"/>
<g>
	<g>
		<path fill="#4BA7C4" d="M96.024,88.398l-1.852-0.938l1.157-0.391c0.352-0.113,0.539-0.499,0.421-0.848
			c-0.118-0.354-0.493-0.541-0.85-0.423l-2.414,0.804l-1.013-0.509l2.388-0.799c0.356-0.117,0.541-0.493,0.429-0.852
			c-0.118-0.35-0.499-0.531-0.85-0.424l-3.653,1.217l-2.221-1.126l2.076-1.378l3.763,0.794c0.048,0.017,0.097,0.021,0.14,0.021
			c0.311,0,0.584-0.226,0.656-0.542c0.078-0.358-0.161-0.718-0.522-0.799l-2.457-0.508l0.951-0.628l2.489,0.521
			c0.049,0.01,0.097,0.021,0.14,0.021c0.313,0,0.587-0.226,0.656-0.542c0.078-0.358-0.158-0.718-0.52-0.793l-1.188-0.247
			l1.731-1.146c0.308-0.198,0.396-0.621,0.198-0.933c-0.217-0.306-0.633-0.386-0.936-0.188l-1.736,1.147l0.238-1.195
			c0.07-0.365-0.16-0.719-0.527-0.789c-0.381-0.068-0.719,0.167-0.791,0.531l-0.49,2.486l-0.96,0.628l0.499-2.466
			c0.075-0.364-0.164-0.719-0.528-0.793c-0.386-0.07-0.715,0.172-0.787,0.53l-0.759,3.773l-1.994,1.313v-2.391l2.729-2.707
			c0.263-0.262,0.263-0.686,0.005-0.948c-0.26-0.269-0.686-0.269-0.948-0.005l-1.785,1.773v-1.146l1.804-1.785
			c0.268-0.263,0.268-0.686,0.006-0.949c-0.255-0.268-0.684-0.268-0.949-0.005l-0.86,0.857v-2.079c0-0.37-0.303-0.67-0.673-0.67
			c-0.372,0-0.675,0.3-0.675,0.67v2.079l-0.86-0.857c-0.266-0.263-0.688-0.263-0.948,0.005c-0.263,0.264-0.263,0.687,0.005,0.949
			l1.804,1.785v1.146l-1.793-1.773c-0.26-0.264-0.686-0.264-0.948,0.005c-0.255,0.263-0.255,0.687,0.005,0.948l2.736,2.707v2.546
			l-2.272-1.152l-1.177-3.655c-0.109-0.354-0.485-0.536-0.841-0.435c-0.356,0.107-0.545,0.493-0.435,0.842l0.767,2.396l-1.019-0.514
			l-0.777-2.424c-0.109-0.354-0.493-0.541-0.844-0.428c-0.352,0.107-0.547,0.482-0.432,0.841l0.364,1.152l-1.838-0.933
			c-0.327-0.166-0.737-0.043-0.9,0.295c-0.172,0.332-0.038,0.734,0.289,0.9l1.847,0.933l-1.152,0.386
			c-0.352,0.118-0.539,0.498-0.421,0.848c0.097,0.283,0.356,0.461,0.635,0.461c0.07,0,0.143-0.012,0.212-0.038l2.409-0.799
			l1.021,0.515l-2.391,0.793c-0.352,0.118-0.547,0.499-0.426,0.848c0.094,0.283,0.355,0.466,0.64,0.466
			c0.064,0,0.137-0.011,0.207-0.038l3.649-1.217l2.225,1.127l-2.077,1.366l-3.76-0.788c-0.375-0.064-0.727,0.16-0.801,0.52
			c-0.073,0.365,0.157,0.713,0.52,0.799l2.463,0.515l-0.96,0.633l-2.481-0.525c-0.372-0.086-0.718,0.149-0.787,0.509
			c-0.083,0.364,0.146,0.724,0.514,0.799l1.183,0.252l-1.727,1.146c-0.311,0.198-0.398,0.617-0.192,0.922
			c0.126,0.198,0.34,0.306,0.56,0.306c0.129,0,0.255-0.037,0.367-0.107l1.729-1.142l-0.238,1.19
			c-0.072,0.359,0.166,0.707,0.528,0.782c0.048,0.011,0.088,0.017,0.131,0.017c0.313,0,0.593-0.22,0.656-0.542l0.502-2.492
			l0.953-0.627l-0.492,2.471c-0.075,0.359,0.16,0.713,0.522,0.788c0.048,0.005,0.088,0.016,0.128,0.016
			c0.322,0,0.604-0.22,0.662-0.541l0.759-3.768l1.999-1.324v2.401l-2.736,2.696c-0.26,0.263-0.268,0.686-0.005,0.954
			c0.263,0.262,0.688,0.262,0.948,0.005l1.793-1.769v1.142l-1.804,1.784c-0.263,0.258-0.268,0.682-0.005,0.949
			c0.26,0.263,0.683,0.263,0.948,0.005l0.86-0.852v2.074c0,0.369,0.303,0.67,0.675,0.67c0.37,0,0.673-0.301,0.673-0.67v-2.074
			l0.86,0.852c0.129,0.129,0.303,0.193,0.475,0.193c0.171,0,0.346-0.069,0.475-0.198c0.262-0.268,0.262-0.691-0.006-0.949
			l-1.804-1.784v-1.142l1.785,1.769c0.131,0.123,0.303,0.193,0.469,0.193c0.18,0,0.352-0.07,0.479-0.198
			c0.258-0.269,0.258-0.691-0.005-0.954L86.91,87.83v-2.551l2.272,1.152l1.169,3.655c0.088,0.289,0.356,0.472,0.641,0.472
			c0.066,0,0.137-0.011,0.2-0.032c0.356-0.118,0.553-0.493,0.439-0.848l-0.771-2.396l1.016,0.515l0.782,2.423
			c0.092,0.284,0.356,0.472,0.636,0.472c0.072,0,0.137-0.017,0.209-0.038c0.354-0.112,0.547-0.493,0.434-0.847l-0.375-1.152
			l1.852,0.938c0.1,0.043,0.201,0.074,0.309,0.074c0.241,0,0.475-0.139,0.592-0.369C96.488,88.972,96.354,88.564,96.024,88.398z
			 M56.237,70.449l1.216,0.615l-0.64,0.215c-0.349,0.118-0.542,0.498-0.421,0.847c0.097,0.284,0.354,0.461,0.635,0.461
			c0.069,0,0.143-0.011,0.215-0.037l1.897-0.628l0.498,0.252L58,72.711c-0.348,0.123-0.538,0.498-0.423,0.852
			c0.091,0.284,0.356,0.461,0.638,0.461c0.069,0,0.142-0.011,0.212-0.037l2.896-0.959l1.544,0.787l-1.442,0.949l-2.99-0.627
			c-0.375-0.06-0.719,0.16-0.796,0.52c-0.078,0.359,0.16,0.713,0.522,0.793l1.69,0.359l-0.474,0.305l-1.954-0.412
			c-0.351-0.07-0.718,0.155-0.796,0.515c-0.075,0.358,0.155,0.718,0.518,0.798l0.659,0.141l-1.139,0.755
			c-0.312,0.204-0.399,0.616-0.19,0.927c0.131,0.199,0.338,0.307,0.558,0.307c0.131,0,0.257-0.038,0.367-0.113l1.136-0.75
			l-0.134,0.648c-0.069,0.364,0.169,0.719,0.525,0.787c0.045,0.012,0.088,0.017,0.134,0.017c0.316,0,0.595-0.22,0.659-0.536
			l0.396-1.956l0.472-0.312l-0.34,1.694c-0.07,0.359,0.16,0.718,0.527,0.782c0.043,0.012,0.089,0.017,0.132,0.017
			c0.106,0,0.195-0.06,0.289-0.103c0.014,0.145,0.048,0.29,0.161,0.402c0.131,0.135,0.303,0.198,0.474,0.198
			c0.175,0,0.344-0.063,0.478-0.192l1.222-1.211v0.562l-1.426,1.404c-0.26,0.257-0.265,0.68-0.005,0.948
			c0.268,0.263,0.688,0.263,0.948,0.005l0.482-0.471v1.366c0,0.364,0.295,0.665,0.67,0.665c0.367,0,0.67-0.301,0.67-0.665v-1.366
			l0.475,0.471c0.131,0.129,0.303,0.193,0.475,0.193c0.174,0,0.346-0.064,0.474-0.198c0.263-0.269,0.258-0.691-0.005-0.948
			l-1.418-1.404v-0.562l1.23,1.211c0.266,0.262,0.694,0.252,0.948-0.006c0.26-0.268,0.26-0.691-0.008-0.949l-2.171-2.143v-1.807
			l1.598,0.814l0.938,2.91c0.094,0.284,0.356,0.467,0.638,0.467c0.075,0,0.14-0.012,0.209-0.032
			c0.352-0.112,0.547-0.493,0.435-0.847l-0.528-1.641l0.493,0.252l0.614,1.908c0.096,0.279,0.356,0.467,0.643,0.467
			c0.064,0,0.137-0.012,0.209-0.033c0.349-0.117,0.544-0.492,0.432-0.846l-0.206-0.639l1.217,0.617
			c0.094,0.048,0.198,0.074,0.303,0.074c0.241,0,0.479-0.134,0.598-0.364c0.166-0.332,0.034-0.734-0.298-0.905l-1.214-0.617
			l0.633-0.214c0.356-0.112,0.546-0.493,0.429-0.842c-0.113-0.358-0.504-0.546-0.845-0.435l-1.905,0.633l-0.498-0.252l1.64-0.547
			c0.349-0.112,0.547-0.498,0.427-0.852c-0.118-0.349-0.499-0.536-0.85-0.424l-2.9,0.965l-1.543-0.777l1.441-0.953l2.991,0.621
			c0.048,0.011,0.094,0.016,0.137,0.016c0.313,0,0.595-0.219,0.659-0.535c0.075-0.359-0.153-0.719-0.522-0.799l-1.678-0.349
			l0.469-0.311l1.951,0.413c0.048,0.016,0.094,0.016,0.142,0.016c0.309,0,0.587-0.22,0.651-0.536
			c0.078-0.358-0.152-0.713-0.515-0.788l-0.659-0.139l1.139-0.75c0.313-0.205,0.396-0.628,0.196-0.938
			c-0.207-0.306-0.63-0.386-0.931-0.188l-1.146,0.751l0.131-0.648c0.078-0.358-0.16-0.718-0.522-0.788
			c-0.38-0.074-0.718,0.156-0.788,0.525l-0.394,1.957l-0.466,0.305l0.337-1.688c0.078-0.365-0.16-0.719-0.527-0.794
			c-0.155-0.026-0.292,0.021-0.418,0.086c-0.017-0.146-0.06-0.29-0.164-0.401c-0.254-0.269-0.683-0.258-0.948-0.006l-1.23,1.217
			v-0.553l1.418-1.409c0.268-0.263,0.268-0.691,0.005-0.948c-0.26-0.269-0.681-0.263-0.948-0.006l-0.475,0.467v-1.362
			c0-0.37-0.303-0.67-0.67-0.67c-0.375,0-0.67,0.3-0.67,0.67v1.362l-0.482-0.467c-0.26-0.257-0.681-0.263-0.948,0.006
			c-0.255,0.257-0.255,0.686,0.005,0.948l1.426,1.409v0.547l-1.222-1.211c-0.263-0.252-0.688-0.263-0.951,0.006
			c-0.26,0.262-0.26,0.69,0.008,0.947l2.165,2.15v1.801l-1.603-0.814l-0.927-2.9c-0.113-0.359-0.488-0.547-0.842-0.439
			c-0.356,0.113-0.552,0.488-0.439,0.842l0.528,1.645l-0.504-0.251l-0.611-1.903c-0.112-0.359-0.493-0.541-0.844-0.434
			c-0.349,0.112-0.544,0.493-0.432,0.842l0.206,0.643l-1.222-0.621c-0.324-0.172-0.729-0.038-0.9,0.295
			C55.776,69.875,55.904,70.277,56.237,70.449z M64.871,70.846l1.897-1.871l-0.527,2.61l-1.37,0.911V70.846z M63.531,76.629
			l-1.889,1.865l0.517-2.605l1.372-0.9V76.629z M48.388,87.283l1.016,0.515l0.782,2.423c0.089,0.284,0.356,0.472,0.636,0.472
			c0.069,0,0.137-0.017,0.209-0.038c0.348-0.112,0.544-0.493,0.432-0.847l-0.373-1.152l1.844,0.938
			c0.1,0.043,0.204,0.074,0.309,0.074c0.243,0,0.474-0.139,0.595-0.369c0.171-0.327,0.034-0.734-0.292-0.9l-1.852-0.938l1.157-0.391
			c0.351-0.113,0.539-0.499,0.421-0.848c-0.118-0.354-0.499-0.541-0.847-0.423l-2.412,0.804l-1.019-0.509l2.391-0.799
			c0.351-0.117,0.547-0.493,0.429-0.852c-0.12-0.35-0.501-0.531-0.85-0.424l-3.655,1.211l-2.219-1.12l2.082-1.378l3.755,0.794
			c0.048,0.017,0.096,0.021,0.145,0.021c0.308,0,0.587-0.226,0.656-0.542c0.072-0.358-0.158-0.718-0.52-0.799l-2.463-0.508
			l0.954-0.628l2.486,0.521c0.043,0.01,0.092,0.021,0.137,0.021c0.313,0,0.587-0.226,0.651-0.542
			c0.086-0.358-0.152-0.718-0.515-0.788l-1.187-0.252l1.733-1.146c0.309-0.198,0.396-0.621,0.19-0.933
			c-0.204-0.306-0.624-0.386-0.927-0.188l-1.727,1.142l0.236-1.189c0.072-0.359-0.164-0.719-0.528-0.789
			c-0.383-0.068-0.718,0.167-0.788,0.531l-0.498,2.486l-0.957,0.628l0.496-2.466c0.075-0.364-0.163-0.719-0.525-0.793
			c-0.386-0.07-0.718,0.172-0.788,0.53l-0.761,3.769l-1.999,1.318v-2.391l2.733-2.707c0.263-0.262,0.263-0.686,0.008-0.948
			c-0.26-0.269-0.688-0.269-0.948-0.005l-1.793,1.773v-1.146l1.804-1.785c0.268-0.263,0.268-0.686,0.005-0.949
			c-0.26-0.268-0.681-0.268-0.948-0.005l-0.86,0.857v-2.079c0-0.37-0.303-0.67-0.676-0.67c-0.369,0-0.67,0.3-0.67,0.67v2.079
			l-0.862-0.857c-0.266-0.263-0.694-0.263-0.949,0.005c-0.26,0.264-0.26,0.687,0.006,0.949l1.806,1.785v1.146l-1.787-1.773
			c-0.26-0.264-0.688-0.264-0.948,0.005c-0.255,0.263-0.255,0.687,0.005,0.948l2.73,2.707v2.546l-2.27-1.147l-1.179-3.666
			c-0.113-0.348-0.475-0.53-0.85-0.429c-0.349,0.118-0.539,0.493-0.427,0.842l0.772,2.396l-1.016-0.509l-0.783-2.429
			c-0.112-0.354-0.479-0.541-0.841-0.428c-0.356,0.112-0.547,0.487-0.435,0.841l0.375,1.157l-1.854-0.938
			c-0.332-0.166-0.734-0.043-0.9,0.295c-0.171,0.332-0.04,0.734,0.292,0.9l1.85,0.933l-1.155,0.386
			c-0.351,0.118-0.541,0.498-0.423,0.848c0.096,0.283,0.356,0.461,0.635,0.461c0.072,0,0.142-0.012,0.214-0.038l2.415-0.799
			l1.016,0.515l-2.394,0.793c-0.356,0.118-0.544,0.499-0.426,0.848c0.094,0.283,0.356,0.466,0.635,0.466
			c0.073,0,0.143-0.011,0.215-0.038l3.655-1.217l2.225,1.127l-2.082,1.366l-3.763-0.788c-0.376-0.064-0.727,0.16-0.802,0.52
			c-0.077,0.365,0.161,0.713,0.521,0.799l2.462,0.515l-0.953,0.627l-2.487-0.52c-0.372-0.086-0.718,0.149-0.788,0.509
			c-0.083,0.364,0.147,0.724,0.518,0.799l1.185,0.252l-1.731,1.146c-0.311,0.198-0.399,0.617-0.195,0.922
			c0.131,0.198,0.343,0.306,0.562,0.306c0.131,0,0.255-0.037,0.37-0.107l1.73-1.146l-0.238,1.195
			c-0.069,0.359,0.161,0.707,0.53,0.782c0.041,0.011,0.089,0.017,0.129,0.017c0.316,0,0.595-0.22,0.659-0.542l0.499-2.492
			l0.954-0.627l-0.496,2.471c-0.072,0.359,0.163,0.713,0.525,0.788c0.048,0.005,0.088,0.016,0.131,0.016
			c0.313,0,0.601-0.22,0.659-0.541l0.762-3.773l1.993-1.318v2.401l-2.73,2.696c-0.26,0.263-0.26,0.686-0.005,0.954
			c0.128,0.128,0.303,0.198,0.479,0.198c0.166,0,0.337-0.07,0.469-0.193l1.787-1.769v1.142l-1.806,1.784
			c-0.266,0.258-0.266,0.682-0.006,0.949c0.255,0.263,0.684,0.263,0.949,0.005l0.862-0.852v2.074c0,0.369,0.301,0.67,0.67,0.67
			c0.373,0,0.676-0.301,0.676-0.67v-2.074l0.86,0.852c0.131,0.129,0.303,0.193,0.474,0.193c0.172,0,0.346-0.069,0.475-0.198
			c0.263-0.268,0.258-0.691-0.005-0.949l-1.804-1.784v-1.142l1.793,1.769c0.26,0.257,0.688,0.257,0.948-0.005
			c0.26-0.269,0.255-0.691-0.008-0.954L44.43,87.83v-2.557l2.272,1.158l1.174,3.655c0.091,0.289,0.356,0.472,0.643,0.472
			c0.064,0,0.137-0.011,0.201-0.032c0.356-0.118,0.544-0.493,0.432-0.848L48.388,87.283z M79.782,112.902l-3.031-1.543l1.976-0.654
			c0.493-0.161,0.761-0.696,0.595-1.189c-0.161-0.482-0.699-0.767-1.188-0.59l-3.738,1.243l-1.787-0.911l3.869-1.286
			c0.493-0.155,0.759-0.691,0.593-1.185c-0.158-0.487-0.681-0.767-1.188-0.595l-5.628,1.87l-3.585-1.816l3.347-2.203l5.815,1.217
			c0.064,0.016,0.129,0.021,0.195,0.021c0.435,0,0.825-0.306,0.919-0.745c0.103-0.509-0.22-1.008-0.729-1.114l-3.993-0.842
			l1.673-1.099l3.855,0.809c0.067,0.017,0.132,0.017,0.196,0.017c0.434,0,0.825-0.3,0.919-0.739c0.11-0.51-0.217-1.014-0.721-1.121
			l-2.037-0.423l2.83-1.871c0.439-0.283,0.552-0.862,0.266-1.302c-0.281-0.435-0.871-0.547-1.297-0.269l-2.838,1.876l0.409-2.042
			c0.103-0.509-0.225-1.002-0.729-1.104c-0.53-0.113-1.011,0.23-1.109,0.734l-0.777,3.864l-1.675,1.109l0.801-4.004
			c0.103-0.509-0.232-1.008-0.736-1.109c-0.504-0.107-1,0.225-1.102,0.739l-1.163,5.826l-3.253,2.139v-3.886l4.226-4.186
			c0.367-0.359,0.367-0.954,0.006-1.324c-0.362-0.364-0.96-0.37-1.329-0.011l-2.902,2.873v-1.994l2.809-2.781
			c0.366-0.365,0.372-0.96,0.005-1.324c-0.361-0.375-0.957-0.375-1.329-0.011l-1.484,1.474v-3.403c0-0.52-0.416-0.938-0.936-0.938
			c-0.518,0-0.938,0.418-0.938,0.938v3.398l-1.479-1.469c-0.367-0.364-0.96-0.364-1.327,0.011c-0.364,0.364-0.364,0.959,0.006,1.324
			l2.8,2.781v1.994l-2.896-2.873c-0.372-0.359-0.968-0.354-1.329,0.011c-0.367,0.37-0.362,0.965,0.005,1.324l4.221,4.186v4.1
			l-3.655-1.854l-1.822-5.659c-0.155-0.493-0.67-0.771-1.182-0.605c-0.493,0.155-0.764,0.686-0.605,1.185l1.254,3.88l-1.798-0.905
			l-1.206-3.752c-0.155-0.488-0.67-0.772-1.179-0.605c-0.493,0.155-0.767,0.686-0.605,1.184l0.635,1.973l-3.025-1.532
			c-0.464-0.23-1.029-0.054-1.265,0.412c-0.239,0.467-0.054,1.029,0.415,1.265l3.03,1.539l-1.975,0.659
			c-0.493,0.16-0.764,0.691-0.601,1.179c0.132,0.396,0.499,0.648,0.89,0.648c0.103,0,0.204-0.016,0.298-0.043l3.738-1.254
			l1.793,0.916l-3.87,1.281c-0.493,0.161-0.764,0.691-0.6,1.185c0.134,0.392,0.498,0.644,0.89,0.644
			c0.102,0,0.203-0.011,0.297-0.043l5.639-1.876l3.577,1.816l-3.341,2.209l-5.815-1.223c-0.521-0.112-1.008,0.22-1.112,0.729
			c-0.11,0.509,0.217,1.007,0.721,1.109l3.996,0.841l-1.675,1.104l-3.856-0.81c-0.522-0.107-1.005,0.22-1.109,0.724
			c-0.107,0.51,0.22,1.008,0.724,1.115l2.036,0.429l-2.838,1.865c-0.432,0.289-0.552,0.868-0.268,1.302
			c0.185,0.279,0.479,0.424,0.785,0.424c0.177,0,0.361-0.054,0.515-0.155l2.843-1.876l-0.415,2.036
			c-0.103,0.515,0.225,1.014,0.736,1.115c0.064,0.011,0.124,0.016,0.183,0.016c0.444,0,0.831-0.311,0.919-0.755l0.783-3.864
			l1.666-1.104l-0.793,4.004c-0.102,0.509,0.226,1.002,0.734,1.104c0.059,0.017,0.126,0.021,0.188,0.021
			c0.437,0,0.831-0.311,0.919-0.756l1.163-5.82l3.245-2.149v3.892l-4.221,4.175c-0.367,0.37-0.372,0.965-0.005,1.335
			c0.361,0.37,0.957,0.37,1.329,0.005l2.896-2.867v1.999l-2.8,2.771c-0.37,0.364-0.37,0.959-0.006,1.329
			c0.183,0.188,0.427,0.278,0.668,0.278c0.238,0,0.477-0.091,0.659-0.273l1.479-1.463v3.396c0,0.521,0.421,0.938,0.938,0.938
			c0.52,0,0.936-0.418,0.936-0.938v-3.396l1.484,1.463c0.372,0.37,0.968,0.37,1.329-0.005c0.367-0.37,0.361-0.965-0.005-1.329
			l-2.809-2.771v-1.999l2.902,2.867c0.182,0.183,0.42,0.269,0.659,0.269c0.243,0,0.487-0.092,0.67-0.273
			c0.361-0.37,0.361-0.965-0.006-1.335l-4.226-4.175v-4.105l3.657,1.854l1.82,5.659c0.131,0.402,0.498,0.654,0.895,0.654
			c0.097,0,0.193-0.016,0.287-0.048c0.49-0.161,0.767-0.687,0.603-1.18l-1.246-3.88l1.796,0.9l1.203,3.757
			c0.131,0.396,0.498,0.648,0.896,0.648c0.096,0,0.189-0.016,0.292-0.048c0.493-0.156,0.764-0.687,0.605-1.18l-0.638-1.972
			l3.028,1.532c0.137,0.07,0.278,0.097,0.429,0.097c0.335,0,0.667-0.188,0.836-0.509C80.431,113.707,80.246,113.139,79.782,112.902z
			"/>
	</g>
	<g>
		<path fill="#4BA7C4" d="M113.926,39.582v-0.064c0-18.266-14.862-33.128-33.134-33.128c-10.561,0-20.431,5.017-26.672,13.496
			c-3.964-2.353-8.455-3.585-13.089-3.585c-13.358,0-24.419,10.291-25.561,23.588C6.518,44.502,1,53.769,1,64.296
			c0,15.018,11.668,27.237,26.014,27.237h1.342c1.946,0,3.529-1.586,3.529-3.537c0-1.945-1.583-3.531-3.529-3.531h-1.342
			c-10.449,0-18.952-9.048-18.952-20.169c0-8.286,4.891-15.859,12.172-18.839c1.438-0.584,2.194-2.198,2.194-3.495
			c0-10.253,8.343-18.598,18.604-18.598c4.302,0,8.501,1.5,11.818,4.234c0.812,0.654,1.97,0.911,2.873,0.734
			c1.031-0.182,1.916-0.814,2.433-1.72c4.64-8.12,13.309-13.158,22.637-13.158c14.372,0,26.067,11.689,26.067,26.064
			c0,0.702-0.038,1.388-0.092,2.063c-0.134,1.586,0.815,3.071,2.318,3.612c7.681,2.782,12.85,10.457,12.85,19.102
			c0,11.121-8.503,20.169-18.946,20.169h-1.345c-1.948,0-3.532,1.586-3.532,3.531c0,1.951,1.584,3.537,3.532,3.537h1.345
			c14.343,0,26.011-12.22,26.011-27.237C129,53.619,123.109,44.031,113.926,39.582z"/>
	</g>
</g>
</svg>
