<?xml version="1.0" encoding="utf-8"?>
<!-- Generator: Adobe Illustrator 16.0.0, SVG Export Plug-In . SVG Version: 6.00 Build 0)  -->
<!DOCTYPE svg PUBLIC "-//W3C//DTD SVG 1.1//EN" "http://www.w3.org/Graphics/SVG/1.1/DTD/svg11.dtd">
<svg version="1.1" id="Layer_1" xmlns="http://www.w3.org/2000/svg" xmlns:xlink="http://www.w3.org/1999/xlink" x="0px" y="0px"
	 width="130px" height="130px" viewBox="0 0 130 130" enable-background="new 0 0 130 130" xml:space="preserve">
<rect fill="none" width="130" height="130"/>
<g>
	<g>
		<g>
			<path fill="#FFF6E4" d="M49.43,16.677v93.573c0,5.159-4.224,9.382-9.383,9.382H10.38c-5.157,0-9.38-4.223-9.38-9.382V16.677
				H49.43z"/>
			<path fill="#A4C553" d="M4.123,16.677v87.943c0,3.45,2.808,6.257,6.257,6.257h29.667c3.447,0,6.254-2.807,6.254-6.257V16.677
				h3.128v93.573c0,5.159-4.224,9.382-9.383,9.382H10.38c-5.157,0-9.38-4.223-9.38-9.382V16.677H4.123z"/>
			<path fill="#FDB813" d="M40.047,109.31c2.587,0,4.691-2.098,4.691-4.689V49.367H5.691v55.253c0,2.592,2.102,4.689,4.689,4.689
				H40.047z"/>
		</g>
		<g>
			<g>
				<path fill="#FAAB18" d="M83.551,34.977c1.02,12.529,12.001,21.862,24.532,20.843c12.528-1.024,21.86-12.004,20.841-24.537
					c-1.019-12.529-12.002-21.857-24.535-20.838C91.861,11.464,82.529,22.449,83.551,34.977z"/>
				<path fill="#FDB813" d="M84.91,34.864c0.958,11.779,11.284,20.554,23.061,19.593c11.778-0.96,20.549-11.284,19.591-23.062
					c-0.958-11.778-11.281-20.549-23.062-19.593C92.726,12.762,83.95,23.09,84.91,34.864z"/>
				<g>
					<path fill="#FFF6E4" d="M104.254,29.778c-0.289,0.024-0.656-0.132-1.068-0.48l-9.424-8.006
						c-1.057-0.896-1.015-2.312,0.093-3.15l7.436-3.812c0.174-0.054,0.348-0.088,0.517-0.103c1.1-0.088,1.997,0.671,2.095,1.867
						l1.002,12.322C104.972,29.264,104.707,29.739,104.254,29.778z"/>
					<path fill="#FFF6E4" d="M101.371,32.576l-12.325,1.004c-1.382,0.112-2.354-0.921-2.161-2.293l2.558-7.952
						c0.36-0.686,0.955-1.073,1.593-1.122c0.502-0.044,1.036,0.123,1.502,0.524l9.424,8.001
						C103.02,31.64,102.752,32.463,101.371,32.576z"/>
					<path fill="#FFF6E4" d="M107.554,13.762c0.167-0.015,0.344-0.01,0.524,0.015l7.952,2.562c1.23,0.646,1.5,2.038,0.603,3.096
						l-8.006,9.422c-0.351,0.407-0.688,0.622-0.978,0.646c-0.453,0.034-0.791-0.392-0.86-1.239l-1.002-12.323
						C105.688,14.742,106.452,13.85,107.554,13.762z"/>
					<path fill="#FFF6E4" d="M103.845,37.407c0.348-0.412,0.687-0.622,0.978-0.647c0.458-0.034,0.792,0.392,0.86,1.24l1.004,12.323
						c0.098,1.195-0.666,2.087-1.766,2.175c-0.17,0.014-0.346,0.014-0.527-0.015l-7.954-2.562c-1.228-0.642-1.497-2.033-0.601-3.092
						L103.845,37.407z"/>
					<path fill="#FFF6E4" d="M110.949,31.797c-1.384,0.113-1.775-0.662-0.882-1.715l8.006-9.422
						c0.395-0.471,0.895-0.725,1.401-0.764c0.637-0.049,1.284,0.235,1.75,0.853l3.812,7.438c0.414,1.323-0.38,2.494-1.762,2.611
						L110.949,31.797z"/>
					<path fill="#FFF6E4" d="M89.197,35.467l12.325-1.004c1.384-0.112,1.78,0.662,0.882,1.72l-8.006,9.422
						c-0.395,0.466-0.895,0.721-1.398,0.76c-0.638,0.054-1.286-0.235-1.752-0.853l-3.81-7.433
						C87.021,36.755,87.818,35.58,89.197,35.467z"/>
					<path fill="#FFF6E4" d="M111.104,33.684l12.325-1.005c1.382-0.112,2.354,0.921,2.16,2.293l-2.562,7.958
						c-0.357,0.681-0.952,1.073-1.587,1.122c-0.504,0.043-1.039-0.127-1.506-0.524l-9.423-8.006
						C109.453,34.624,109.72,33.796,111.104,33.684z"/>
					<path fill="#FFF6E4" d="M108.221,36.486c0.288-0.024,0.653,0.127,1.065,0.476l9.422,8.006c1.056,0.901,1.02,2.317-0.09,3.155
						l-7.434,3.807c-0.176,0.054-0.351,0.088-0.52,0.103c-1.1,0.088-1.994-0.666-2.094-1.866l-1.002-12.323
						C107.498,37,107.76,36.52,108.221,36.486z"/>
				</g>
			</g>
			<g>
				<polygon fill="#4BA7C4" points="65.05,74.075 31.385,33.086 106.236,33.086 72.568,74.075 71.253,113.199 88.002,119.632 
					49.619,119.632 66.365,113.199 				"/>
				<path fill="#FFF6E4" d="M89.597,46.266c0,0-15.669,20.388-20.786,20.388c-5.115,0-20.789-20.388-20.789-20.388H89.597z"/>
			</g>
		</g>
	</g>
</g>
</svg>
