<?xml version="1.0" encoding="utf-8"?>
<!-- Generator: Adobe Illustrator 16.0.0, SVG Export Plug-In . SVG Version: 6.00 Build 0)  -->
<!DOCTYPE svg PUBLIC "-//W3C//DTD SVG 1.1//EN" "http://www.w3.org/Graphics/SVG/1.1/DTD/svg11.dtd">
<svg version="1.1" id="Layer_1" xmlns="http://www.w3.org/2000/svg" xmlns:xlink="http://www.w3.org/1999/xlink" x="0px" y="0px"
	 width="130px" height="130px" viewBox="0 0 130 130" enable-background="new 0 0 130 130" xml:space="preserve">
<rect fill="none" width="130" height="130"/>
<g>
	<g>
		<path fill="#F15A22" d="M64.932,45.442c-0.718,0-1.44-0.244-2.029-0.746c-1.314-1.123-1.466-3.097-0.348-4.409L95.198,2.091
			c1.118-1.307,3.088-1.463,4.404-0.345c1.316,1.123,1.468,3.097,0.348,4.409l-32.64,38.196
			C66.691,45.074,65.815,45.442,64.932,45.442z"/>
	</g>
	<path fill="#E0D3BF" d="M95.146,41.774c0.168-0.649,0.283-1.321,0.283-2.025c0-3.249-1.898-6.029-4.632-7.363
		c-1.316-2.011-3.491-3.373-6.001-3.645c-1.781-2.228-4.489-3.682-7.559-3.682c-1.579,0-3.065,0.377-4.379,1.044
		c-1.486-1.468-3.525-2.375-5.775-2.375c-1.709,0-3.297,0.52-4.609,1.413c-1.649-0.874-3.518-1.376-5.516-1.376
		c-3.391,0-6.447,1.431-8.61,3.719c-0.831-0.286-1.705-0.474-2.63-0.474c-3.442,0-6.383,2.126-7.605,5.131
		c-3.005,1.224-5.129,4.165-5.129,7.607c0,0.386,0.064,0.759,0.115,1.132c-2.188,2.421-3.539,5.702-3.539,9.319
		c0,7.456,5.7,13.498,12.729,13.498c0.433,0,0.865-0.028,1.291-0.074v6.434h41.887v-8.302c0.591,0.097,1.185,0.166,1.802,0.166
		c6.198,0,11.233-5.269,11.233-11.762C98.503,46.873,97.214,43.91,95.146,41.774z"/>
	<g>
		<g>
			<path fill="#FFF6E4" d="M44.695,127.062c-0.976,0-1.799-0.728-1.921-1.696l-7.715-61.432l-3.714-10.671
				c-0.207-0.594-0.113-1.25,0.251-1.76s0.95-0.815,1.579-0.815h62.338c0.628,0,1.215,0.304,1.578,0.817
				c0.363,0.511,0.458,1.167,0.251,1.758l-3.76,10.768l-7.672,61.333c-0.119,0.971-0.943,1.698-1.921,1.698H44.695z"/>
			<path fill="#E0D3BF" d="M95.512,52.625h0.011 M95.512,52.625l-3.827,10.962l-7.696,61.537H44.695l-7.741-61.634l-3.78-10.866
				H95.512 M95.522,48.751h-0.011H33.174c-1.254,0-2.43,0.607-3.157,1.629c-0.727,1.024-0.913,2.333-0.501,3.518l3.647,10.481
				l7.69,61.229c0.242,1.938,1.889,3.392,3.843,3.392h39.293c1.953,0,3.601-1.457,3.845-3.395l7.644-61.13l3.624-10.375
				c0.187-0.456,0.29-0.953,0.29-1.475C99.391,50.486,97.663,48.751,95.522,48.751L95.522,48.751z"/>
		</g>
	</g>
	<polygon fill="#C0956A" points="37.592,68.59 44.695,125.125 83.988,125.125 91.059,68.59 	"/>
</g>
</svg>
