<?xml version="1.0" encoding="utf-8"?>
<!-- Generator: Adobe Illustrator 16.0.0, SVG Export Plug-In . SVG Version: 6.00 Build 0)  -->
<!DOCTYPE svg PUBLIC "-//W3C//DTD SVG 1.1//EN" "http://www.w3.org/Graphics/SVG/1.1/DTD/svg11.dtd">
<svg version="1.1" id="Layer_1" xmlns="http://www.w3.org/2000/svg" xmlns:xlink="http://www.w3.org/1999/xlink" x="0px" y="0px"
	 width="130px" height="130px" viewBox="0 0 130 130" enable-background="new 0 0 130 130" xml:space="preserve">
<rect fill="none" width="130" height="130"/>
<g>
	<path fill="#F15A22" d="M65.327,1.002c35.346,0.182,63.854,28.979,63.672,64.331c-0.182,35.34-28.982,63.847-64.326,63.665
		C29.327,128.822,0.819,100.02,1.001,64.674S29.981,0.82,65.327,1.002z"/>
	<circle fill="#4BA7C4" cx="65" cy="65.001" r="52.192"/>
	<g>
		<g>
			<g>
				<path fill="#FFF6E4" d="M67.407,102.416l-0.218,0.006c-0.141-1.079-1.115-2.205-2.27-2.2c-0.667,0.005-1.344,0.337-1.339,1.074
					c0.005,1.64,4.353,1.686,4.368,4.368c0.008,1.521-1.31,2.485-2.744,2.495c-0.628,0-1.027-0.119-1.59-0.357
					c-0.12-0.047-0.316-0.109-0.446-0.109c-0.283,0.005-0.524,0.239-0.604,0.482h-0.224l-0.013-3.035h0.218
					c0.189,1.298,1.217,2.615,2.612,2.604c0.692-0.005,1.453-0.42,1.45-1.183c-0.013-1.862-4.296-1.759-4.309-4.478
					c-0.011-1.359,1.151-2.313,2.451-2.324c0.581,0,0.957,0.109,1.468,0.363c0.169,0.078,0.351,0.177,0.545,0.177
					c0.33,0,0.354-0.296,0.413-0.55h0.218L67.407,102.416z"/>
			</g>
		</g>
		<g>
			<g>
				<path fill="#FFF6E4" d="M22.002,59.507c0.003,0.555,0.644,0.747,1.242,0.97l7.181,2.698v0.233l-5.432,2.127l5.457,2.282
					l0.003,0.229l-7.11,2.905c-0.674,0.275-1.271,0.482-1.271,1.069h-0.229l-0.021-3.663h0.23c0,0.321,0.058,0.742,0.475,0.742
					c0.205,0,0.548-0.146,0.742-0.224l4.309-1.769l-3.209-1.312l-1.142,0.445c-0.791,0.307-1.186,0.524-1.18,1.318H21.82
					l-0.023-4.094h0.229c0.002,0.374,0.018,0.893,0.451,0.893c0.205-0.005,0.498-0.146,0.675-0.208l4.199-1.629l-3.491-1.307
					c-0.343-0.13-0.905-0.369-1.264-0.363c-0.523,0-0.581,0.425-0.578,0.846h-0.233l-0.008-2.189H22.002z"/>
			</g>
		</g>
		<g>
			<g>
				<path fill="#FFF6E4" d="M66.958,26.485h0.023l-0.021-3.668c-0.003-0.659-0.329-0.976-1.131-0.976l-0.003-0.213l2.698-0.021
					v0.218c-0.805,0.005-1.123,0.332-1.121,0.991l0.042,6.91h-0.194l-5.38-6.547h-0.023l0.028,5.203
					c0.005,0.659,0.329,0.98,1.131,0.976l0.003,0.213l-2.698,0.016v-0.219c0.805-0.005,1.123-0.326,1.121-0.985L61.402,22.6
					c-0.387-0.488-0.579-0.731-1.157-0.727V21.66l2.807-0.016L66.958,26.485z"/>
			</g>
		</g>
		<g>
			<g>
				<path fill="#FFF6E4" d="M104.805,64.663c0.014,1.666,0.968,1.812,2.291,2.034v0.254l-5.074,0.031l-0.003-0.259
					c1.32-0.239,2.275-0.39,2.268-2.055l-2.578,0.01c-1.225,0.011-1.484,0.011-1.479,1.007c0.008,1.364,0.016,3.082,2.516,3.787
					l0.003,0.265l-3.048-0.42l-0.047-8.291l0.265-0.005c0.005,1.364,0.384,1.359,1.557,1.354l5.971-0.037
					c1.176-0.005,1.552-0.005,1.544-1.369h0.262l0.047,8.031l-2.843,0.016v-0.26c2.143-0.431,2.279-1.422,2.27-3.32l-0.005-0.794
					L104.805,64.663z"/>
			</g>
		</g>
		<g>
			<path fill="#FFF6E4" d="M48.928,65.52c-0.047-8.851,7.092-16.062,15.94-16.114l0,0c8.851-0.052,16.066,7.082,16.118,15.933l0,0
				c0.05,8.856-7.084,16.067-15.938,16.119l0,0C56.201,81.509,48.982,74.375,48.928,65.52L48.928,65.52z M49.755,65.515
				c0.06,8.399,6.893,15.154,15.292,15.123l0,0c8.399-0.067,15.148-6.896,15.117-15.295l0,0
				c-0.062-8.399-6.895-15.148-15.291-15.117l0,0C56.479,50.287,49.719,57.115,49.755,65.515L49.755,65.515z"/>
			<path fill="#FFF6E4" d="M64.751,49.416c2.116-0.011,4.138,0.41,5.987,1.162l-5.982-18.832l-5.74,18.812
				C60.787,49.842,62.72,49.432,64.751,49.416z"/>
			<path fill="#FFF6E4" d="M53.973,54.241c0.753-0.763,1.619-1.334,2.553-1.723l-8.854-4.581l4.664,8.752
				C52.712,55.803,53.254,54.967,53.973,54.241z"/>
			<path fill="#FFF6E4" d="M76.422,76.243c-0.75,0.758-1.624,1.328-2.553,1.723l8.854,4.581l-4.664-8.753
				C77.68,74.682,77.138,75.512,76.422,76.243z"/>
			<path fill="#FFF6E4" d="M53.926,76.741c-0.762-0.752-1.336-1.619-1.725-2.547l-4.581,8.845l8.755-4.658
				C55.488,78.002,54.655,77.462,53.926,76.741z"/>
			<path fill="#FFF6E4" d="M75.924,54.293c0.762,0.752,1.335,1.624,1.728,2.552l4.578-8.851l-8.755,4.659
				C74.364,53.032,75.197,53.577,75.924,54.293z"/>
			<path fill="#FFF6E4" d="M65.174,81.431c-2.119,0.011-4.146-0.404-5.992-1.162l5.987,18.838l5.737-18.812
				C69.132,81.011,67.202,81.416,65.174,81.431z"/>
			<path fill="#FFF6E4" d="M49.428,65.639c-0.013-2.116,0.402-4.14,1.155-5.992l-18.83,5.987l18.809,5.743
				C49.849,69.598,49.438,67.673,49.428,65.639z"/>
			<path fill="#FFF6E4" d="M80.616,65.219c0.016,2.122-0.402,4.146-1.157,5.992l18.83-5.982l-18.81-5.742
				C80.193,61.26,80.605,63.19,80.616,65.219z"/>
		</g>
		<polygon fill="#FFF6E4" points="63.27,117.265 65.272,110.276 67.355,117.243 		"/>
		<polygon fill="#FFF6E4" points="66.77,12.737 64.77,19.725 62.684,12.763 		"/>
		<polygon fill="#FFF6E4" points="13.008,63.678 19.997,65.681 13.034,67.761 		"/>
		<polygon fill="#FFF6E4" points="116.991,66.895 110.006,64.892 116.971,62.812 		"/>
	</g>
	<g>
		<polygon opacity="0.2" points="69.954,70.646 102.654,34.049 62.105,61.696 62.107,61.696 29.402,98.287 69.957,70.65 		"/>
		<g>
			<g>
				<polygon fill="#F15A22" points="61,60.43 101.544,32.783 68.85,69.374 				"/>
				<polygon fill="#FFF6E4" points="68.85,69.38 28.298,97.016 61.003,60.43 				"/>
			</g>
			<g>
				<path fill="#FFF6E4" d="M67.817,68.202c-1.821,1.593-4.595,1.411-6.189-0.405c-1.596-1.82-1.414-4.597,0.407-6.189
					c1.818-1.598,4.591-1.416,6.187,0.405C69.814,63.833,69.636,66.604,67.817,68.202z"/>
				<g>
					<path fill="#FFF6E4" d="M67.094,67.377c-1.365,1.193-3.442,1.059-4.639-0.307c-1.201-1.364-1.063-3.439,0.301-4.638
						c1.365-1.198,3.442-1.063,4.641,0.306C68.593,64.098,68.458,66.179,67.094,67.377z"/>
					<path fill="#666666" d="M64.928,68.602c-1.066,0-2.081-0.46-2.781-1.261c-0.651-0.739-0.976-1.689-0.913-2.675
						s0.509-1.889,1.25-2.542c0.678-0.594,1.541-0.918,2.438-0.918c1.066,0,2.081,0.459,2.783,1.263
						c0.651,0.739,0.976,1.688,0.911,2.677c-0.065,0.986-0.509,1.889-1.251,2.54C66.688,68.277,65.825,68.602,64.928,68.602z
						 M64.922,62.025c-0.697,0-1.369,0.254-1.894,0.716c-0.581,0.509-0.926,1.212-0.976,1.977c-0.049,0.766,0.203,1.505,0.711,2.081
						c1.002,1.146,2.905,1.275,4.06,0.27c0.576-0.509,0.921-1.209,0.973-1.977c0.05-0.769-0.202-1.508-0.708-2.081
						C66.541,62.386,65.752,62.025,64.922,62.025z"/>
				</g>
			</g>
		</g>
	</g>
</g>
</svg>
