<?xml version="1.0" encoding="utf-8"?>
<!-- Generator: Adobe Illustrator 16.0.0, SVG Export Plug-In . SVG Version: 6.00 Build 0)  -->
<!DOCTYPE svg PUBLIC "-//W3C//DTD SVG 1.1//EN" "http://www.w3.org/Graphics/SVG/1.1/DTD/svg11.dtd">
<svg version="1.1" id="Layer_1" xmlns="http://www.w3.org/2000/svg" xmlns:xlink="http://www.w3.org/1999/xlink" x="0px" y="0px"
	 width="130px" height="130px" viewBox="0 0 130 130" enable-background="new 0 0 130 130" xml:space="preserve">
<rect fill="none" width="130" height="130"/>
<g>
	<path fill="#4BA7C4" d="M123.791,102.647h-14.946V26.923l6.861-6.896c2.034-2.047,2.034-5.362,0-7.409
		c-2.04-2.047-5.333-2.047-7.373,0l-6.721,6.761H26.958V8.163c0-2.891-2.333-5.235-5.215-5.235s-5.209,2.345-5.209,5.235v11.216
		H6.215C3.34,19.379,1,21.725,1,24.617c0,2.894,2.34,5.241,5.215,5.241h10.319v78.027c0,2.895,2.328,5.244,5.209,5.244h76.675v8.701
		c0,2.895,2.335,5.241,5.217,5.241c2.874,0,5.209-2.347,5.209-5.241v-8.701h14.946c2.874,0,5.209-2.35,5.209-5.244
		C129,104.993,126.665,102.647,123.791,102.647z M26.958,29.858h64.229l-64.229,64.61V29.858z M98.419,102.647H33.556l64.863-65.239
		V102.647z"/>
</g>
</svg>
