<?xml version="1.0" encoding="utf-8"?>
<!-- Generator: Adobe Illustrator 16.0.0, SVG Export Plug-In . SVG Version: 6.00 Build 0)  -->
<!DOCTYPE svg PUBLIC "-//W3C//DTD SVG 1.1//EN" "http://www.w3.org/Graphics/SVG/1.1/DTD/svg11.dtd">
<svg version="1.1" id="Layer_1" xmlns="http://www.w3.org/2000/svg" xmlns:xlink="http://www.w3.org/1999/xlink" x="0px" y="0px"
	 width="130px" height="130px" viewBox="0 0 130 130" enable-background="new 0 0 130 130" xml:space="preserve">
<rect fill="none" width="130" height="130"/>
<g>
	<g>
		<g>
			<path fill="#FFF6E4" d="M64.331,20.181c-25.305,0-45.819,20.517-45.819,45.824c0,25.303,20.514,45.819,45.819,45.819
				c25.31,0,45.824-20.517,45.824-45.819C110.155,40.698,89.641,20.181,64.331,20.181z"/>
			<path fill="#FFF6E4" d="M64.331,38.943c-14.923,0-27.062,12.143-27.062,27.062c0,14.924,12.139,27.062,27.062,27.062
				c14.921,0,27.06-12.138,27.06-27.062C91.391,51.086,79.252,38.943,64.331,38.943z"/>
			<path fill="#E2D4BA" d="M64.331,32.959c-18.224,0-33.045,14.821-33.045,33.045c0,18.224,14.822,33.045,33.045,33.045
				c18.219,0,33.048-14.821,33.048-33.045C97.379,47.781,82.55,32.959,64.331,32.959z M64.331,94.946
				c-15.961,0-28.939-12.982-28.939-28.941c0-15.954,12.979-28.942,28.939-28.942c15.956,0,28.938,12.988,28.938,28.942
				C93.269,81.964,80.287,94.946,64.331,94.946z"/>
			<path fill="#FF8061" d="M64.331,107.011c-22.613,0-41.008-18.396-41.008-41.006s18.396-41.011,41.008-41.011
				c22.612,0,41.013,18.4,41.013,41.011S86.943,107.011,64.331,107.011z M64.331,27.617c-21.165,0-38.39,17.221-38.39,38.388
				s17.226,38.388,38.39,38.388c21.164,0,38.388-17.221,38.388-38.388S85.495,27.617,64.331,27.617z"/>
		</g>
		<path fill="#D1C9B4" d="M9.604,52.636c2.08-2.53,2.639-7.455,2.469-10.959c-0.225-4.721-1.267-13.897-1.267-13.897
			c-0.104-0.928-0.411-1.689-0.678-1.689c-0.267,0-0.487,0.766-0.487,1.699v10.857v1.699c0,0.19-0.079,0.353-0.202,0.464
			c-0.1,0.093-0.223,0.153-0.367,0.153c-0.142,0-0.26-0.06-0.362-0.153c-0.121-0.111-0.202-0.274-0.202-0.464v-1.699V27.789
			c0-0.933-0.313-1.699-0.696-1.699c-0.385,0-0.696,0.766-0.696,1.699v10.857v1.699c0,0.19-0.081,0.353-0.204,0.464
			c-0.098,0.093-0.218,0.153-0.357,0.153H6.552H6.549c-0.139,0-0.265-0.06-0.359-0.153c-0.123-0.111-0.205-0.274-0.205-0.464v-1.699
			V27.789c0-0.933-0.313-1.699-0.698-1.699c-0.378,0-0.689,0.766-0.689,1.699v10.857v1.699c0,0.19-0.086,0.353-0.207,0.464
			c-0.098,0.093-0.223,0.153-0.362,0.153s-0.262-0.06-0.359-0.153c-0.125-0.111-0.207-0.274-0.207-0.464v-1.699V27.789
			c0-0.933-0.221-1.699-0.49-1.699c-0.267,0-0.573,0.761-0.678,1.689c0,0-1.044,9.177-1.268,13.897
			c-0.167,3.505,0.395,8.43,2.472,10.959c3.595,4.382-1.451,40.616-1.451,45.518c0,4.289,2.012,7.766,4.5,7.766h0.002h0.002
			c2.483,0,4.5-3.477,4.5-7.766C11.054,93.252,6.004,57.018,9.604,52.636z"/>
		<path fill="#D1C9B4" d="M124.503,66.293c2.49-4.141,5.06-10.389,4.389-21.459c-0.856-15.685-8.936-29.935-10.246-25.994
			c-1.31,3.945,0.311,12.737,1.009,26.528c0.477,7.357,0.446,11.173,0.553,15.977c0.023,0.961,0.059,1.848,0.111,2.641
			c0.059,0.952,0.151,1.773,0.286,2.456c0.833,11.595-2.704,27.363-2.704,31.532c0,4.423,2.082,8.016,4.644,8.016h0.003h0.004
			c2.565,0,4.645-3.593,4.645-8.016C127.195,93.786,123.631,77.818,124.503,66.293z"/>
	</g>
</g>
</svg>
