<?xml version="1.0" encoding="utf-8"?>
<!-- Generator: Adobe Illustrator 16.0.0, SVG Export Plug-In . SVG Version: 6.00 Build 0)  -->
<!DOCTYPE svg PUBLIC "-//W3C//DTD SVG 1.1//EN" "http://www.w3.org/Graphics/SVG/1.1/DTD/svg11.dtd">
<svg version="1.1" id="Layer_1" xmlns="http://www.w3.org/2000/svg" xmlns:xlink="http://www.w3.org/1999/xlink" x="0px" y="0px"
	 width="130px" height="130px" viewBox="0 0 130 130" enable-background="new 0 0 130 130" xml:space="preserve">
<rect fill="none" width="130" height="130"/>
<g>
	<g>
		<path fill="#D1C9B4" d="M88.295,1.487C87.553,1.178,86.758,1,85.921,1c-3.753,0-6.825,3.402-6.825,7.564v112.872
			c0,4.162,3.072,7.564,6.825,7.564c3.758,0,6.355-3.396,6.355-7.558V78.172c5.103,0.309,13.623-0.439,13.153-8.401
			C102.094,13.599,92.725,2.692,88.295,1.487z M60.403,2.918c-2.01,0-3.657,1.728-3.657,3.829v13.276
			c0,2.102-1.687,3.823-3.755,3.823h-1.44c-2.066,0-3.758-1.722-3.758-3.823V6.747c0-2.102-1.571-3.829-3.491-3.829
			c-1.915,0-3.479,1.728-3.479,3.829v13.276c0,2.102-1.701,3.823-3.767,3.823h-1.437c-2.066,0-3.764-1.722-3.764-3.823V6.747
			c0-2.102-1.642-3.829-3.648-3.829c-2.013,0-3.654,1.728-3.654,3.829v27.638c0,7.944,5.533,14.576,12.89,16.131v68.889
			c0,4.21,3.087,7.653,6.86,7.653c3.776,0,6.86-3.443,6.86-7.653V50.516c7.362-1.556,12.896-8.188,12.896-16.131V6.747
			C64.057,4.646,62.407,2.918,60.403,2.918z"/>
	</g>
</g>
</svg>
