<?xml version="1.0" encoding="utf-8"?>
<!-- Generator: Adobe Illustrator 16.0.0, SVG Export Plug-In . SVG Version: 6.00 Build 0)  -->
<!DOCTYPE svg PUBLIC "-//W3C//DTD SVG 1.1//EN" "http://www.w3.org/Graphics/SVG/1.1/DTD/svg11.dtd">
<svg version="1.1" id="Layer_1" xmlns="http://www.w3.org/2000/svg" xmlns:xlink="http://www.w3.org/1999/xlink" x="0px" y="0px"
	 width="130px" height="130px" viewBox="0 0 130 130" enable-background="new 0 0 130 130" xml:space="preserve">
<rect fill="none" width="130" height="130"/>
<g>
	<path fill="#FDB813" d="M124.96,34.135H23.136c-2.22,0-4.04,1.804-4.04,4.012v73.266c0,2.207,1.82,4.012,4.04,4.012H124.96
		c2.22,0,4.04-1.805,4.04-4.012V38.147C129,35.939,127.18,34.135,124.96,34.135z"/>
	<path fill="#E89E0A" d="M106.859,14.575H5.036C2.816,14.575,1,16.379,1,18.587v73.262c0,2.208,1.816,4.017,4.036,4.017h9.944V35.25
		c0-2.207,1.812-4.012,4.032-4.012h91.887V18.587C110.899,16.379,109.079,14.575,106.859,14.575z"/>
</g>
</svg>
