<?xml version="1.0" encoding="utf-8"?>
<!-- Generator: Adobe Illustrator 16.0.0, SVG Export Plug-In . SVG Version: 6.00 Build 0)  -->
<!DOCTYPE svg PUBLIC "-//W3C//DTD SVG 1.1//EN" "http://www.w3.org/Graphics/SVG/1.1/DTD/svg11.dtd">
<svg version="1.1" id="Layer_1" xmlns="http://www.w3.org/2000/svg" xmlns:xlink="http://www.w3.org/1999/xlink" x="0px" y="0px"
	 width="130px" height="130px" viewBox="0 0 130 130" enable-background="new 0 0 130 130" xml:space="preserve">
<rect fill="none" width="130" height="130"/>
<g>
	<path fill="#FDB813" d="M124.811,30.532H5.194C2.884,30.532,1,32.425,1,34.743v86.747c0,2.32,1.884,4.216,4.194,4.216h119.616
		c2.31,0,4.189-1.896,4.189-4.216V34.743C129,32.425,127.12,30.532,124.811,30.532z"/>
	<path fill="#E89E0A" d="M21.14,12.488h91.012c2.065,0,3.739-1.836,3.739-4.097c0-2.267-1.674-4.098-3.739-4.098H21.14
		c-2.071,0-3.75,1.831-3.75,4.098C17.39,10.652,19.068,12.488,21.14,12.488z M120.382,17.394H11.273
		c-2.047,0-3.707,1.835-3.707,4.093c0,2.266,1.66,4.101,3.707,4.101h109.109c2.042,0,3.697-1.835,3.697-4.101
		C124.079,19.229,122.424,17.394,120.382,17.394z"/>
</g>
</svg>
