<?xml version="1.0" encoding="utf-8"?>
<!-- Generator: Adobe Illustrator 16.0.0, SVG Export Plug-In . SVG Version: 6.00 Build 0)  -->
<!DOCTYPE svg PUBLIC "-//W3C//DTD SVG 1.1//EN" "http://www.w3.org/Graphics/SVG/1.1/DTD/svg11.dtd">
<svg version="1.1" id="Layer_1" xmlns="http://www.w3.org/2000/svg" xmlns:xlink="http://www.w3.org/1999/xlink" x="0px" y="0px"
	 width="130px" height="130px" viewBox="0 0 130 130" enable-background="new 0 0 130 130" xml:space="preserve">
<rect fill="none" width="130" height="130"/>
<g>
	<path fill="#8DA552" d="M107.171,94.801c-9.694,5.95-24.813,9.733-42.127,9.733c-17.171,0-32.173-3.71-41.872-9.572l-0.506,0.005
		c-3.612,2.559-7.712,6.596-7.712,11.742c0,12.084,22.944,22.291,50.09,22.291c27.148,0,50.077-10.207,50.077-22.291
		C115.12,101.509,110.983,97.447,107.171,94.801z"/>
	<path fill="#4A8CAE" d="M107.179,66.992c-9.694,5.954-24.813,9.737-42.135,9.737c-17.164,0-32.163-3.704-41.872-9.564h-0.511
		c-3.607,2.562-7.708,6.596-7.708,11.74c0,12.086,22.944,22.301,50.09,22.301c27.148,0,50.077-10.215,50.077-22.301
		C115.12,73.673,110.91,69.584,107.179,66.992z"/>
	<path fill="#F15A22" d="M107.171,39.197c-9.701,5.955-24.813,9.733-42.127,9.733c-17.318,0-32.437-3.778-42.141-9.733
		c-3.744,2.602-7.949,6.681-7.949,11.908c0,12.084,22.944,22.296,50.09,22.296c27.148,0,50.077-10.212,50.077-22.296
		C115.12,45.905,110.983,41.849,107.171,39.197z"/>
	<path fill="#DD4B1D" d="M65.043,54.957c19.826,0,37.357-5.457,45.395-13.103c-1.049-0.995-2.166-1.892-3.268-2.656
		c-9.701,5.955-24.813,9.733-42.127,9.733c-17.318,0-32.437-3.778-42.141-9.733c-1.089,0.758-2.211,1.656-3.265,2.656
		C27.682,49.5,45.219,54.957,65.043,54.957z"/>
	<path fill="#1E7E9B" d="M65.043,82.775c19.826,0,37.357-5.454,45.395-13.101c-1.049-0.994-2.166-1.892-3.268-2.659
		c-9.701,5.956-24.813,9.733-42.127,9.733c-17.318,0-32.437-3.777-42.141-9.733c-1.089,0.76-2.211,1.657-3.265,2.659
		C27.682,77.321,45.219,82.775,65.043,82.775z"/>
	<path fill="#7A9624" d="M65.043,110.597c19.826,0,37.357-5.454,45.395-13.101c-1.049-0.994-2.166-1.892-3.268-2.658
		c-9.701,5.955-24.813,9.732-42.127,9.732c-17.318,0-32.437-3.777-42.141-9.732c-1.089,0.76-2.211,1.656-3.265,2.658
		C27.682,105.143,45.219,110.597,65.043,110.597z"/>
	<path fill="#FDB813" d="M65.043,1c-27.146,0-50.09,10.21-50.09,22.301c0,12.089,22.944,22.301,50.09,22.301
		c27.148,0,50.077-10.211,50.077-22.301C115.12,11.21,92.191,1,65.043,1z"/>
	<path fill="#424242" d="M12.025,75.872c0.667-2.827,2.263-5.553,4.753-8.079v-5.598c-2.424-2.476-4.073-5.171-4.753-8.038V75.872z
		 M12.025,48.075c0.667-2.83,2.271-5.547,4.753-8.074v-5.604c-2.424-2.478-4.073-5.173-4.753-8.04V48.075z M12.025,103.677
		c0.667-2.832,2.263-5.553,4.753-8.079v-5.599c-2.424-2.479-4.073-5.171-4.753-8.037V103.677z M113.217,67.708
		c2.432,2.451,4.032,5.078,4.758,7.812V54.429c-0.726,2.798-2.365,5.433-4.758,7.851V67.708z M113.217,95.521
		c2.432,2.448,4.032,5.073,4.758,7.811v-21.1c-0.726,2.794-2.365,5.431-4.758,7.85V95.521z M113.217,34.479v5.442
		c2.432,2.451,4.032,5.073,4.758,7.81V26.629C117.249,29.427,115.609,32.059,113.217,34.479z"/>
</g>
</svg>
