<?xml version="1.0" encoding="utf-8"?>
<!-- Generator: Adobe Illustrator 16.0.0, SVG Export Plug-In . SVG Version: 6.00 Build 0)  -->
<!DOCTYPE svg PUBLIC "-//W3C//DTD SVG 1.1//EN" "http://www.w3.org/Graphics/SVG/1.1/DTD/svg11.dtd">
<svg version="1.1" id="Layer_1" xmlns="http://www.w3.org/2000/svg" xmlns:xlink="http://www.w3.org/1999/xlink" x="0px" y="0px"
	 width="130px" height="130px" viewBox="0 0 130 130" enable-background="new 0 0 130 130" xml:space="preserve">
<rect fill="none" width="130" height="130"/>
<g>
	<path fill="#4BA7C4" d="M27.861,1C17.446,1,8.977,9.47,8.977,19.892c0,10.408,8.47,18.885,18.885,18.885
		c10.408,0,18.892-8.477,18.892-18.885C46.753,9.47,38.27,1,27.861,1z M27.861,32.507c-6.959,0-12.622-5.662-12.622-12.615
		c0-6.966,5.663-12.629,12.622-12.629c6.96,0,12.622,5.663,12.622,12.629C40.483,26.845,34.821,32.507,27.861,32.507z
		 M114.754,116.468c-29.176,0-52.902-21.94-52.902-48.901c0-26.955,23.727-48.896,52.902-48.896c3.462,0,6.27-2.807,6.27-6.263
		c0-3.462-2.808-6.27-6.27-6.27c-36.087,0-65.441,27.562-65.441,61.428c0,33.879,29.354,61.434,65.441,61.434
		c3.462,0,6.27-2.807,6.27-6.263C121.023,119.275,118.216,116.468,114.754,116.468z"/>
</g>
</svg>
