<?xml version="1.0" encoding="utf-8"?>
<!-- Generator: Adobe Illustrator 16.0.0, SVG Export Plug-In . SVG Version: 6.00 Build 0)  -->
<!DOCTYPE svg PUBLIC "-//W3C//DTD SVG 1.1//EN" "http://www.w3.org/Graphics/SVG/1.1/DTD/svg11.dtd">
<svg version="1.1" id="Layer_1" xmlns="http://www.w3.org/2000/svg" xmlns:xlink="http://www.w3.org/1999/xlink" x="0px" y="0px"
	 width="130px" height="130px" viewBox="0 0 130 130" enable-background="new 0 0 130 130" xml:space="preserve">
<rect fill="none" width="130" height="130"/>
<g id="Shape_22_copy_2_">
	<path fill="#6A8A7B" d="M74.862,54.076c-5.406-0.999-11.561-1.302-18.11-0.21l13.578,27.6l58.67-16.9
		c0,0-21.278-33.415-84.741-22.612c-0.375,0.054-0.7,0.142-1.069,0.21l-6.16-12.515l-18.264,2.075l7.447,15.231
		c-38.509,15.902-21.447,53.398-21.447,53.398l58.756-16.92L47.375,50.659c28.976-8.325,53.174,8.697,53.174,8.697l-19.945,5.389
		L74.862,54.076z M20.663,80.927c0,0-5.66-12.501,10.812-23.209l8.761,17.928L20.663,80.927z"/>
</g>
</svg>
