<?xml version="1.0" encoding="utf-8"?>
<!-- Generator: Adobe Illustrator 16.0.0, SVG Export Plug-In . SVG Version: 6.00 Build 0)  -->
<!DOCTYPE svg PUBLIC "-//W3C//DTD SVG 1.1//EN" "http://www.w3.org/Graphics/SVG/1.1/DTD/svg11.dtd">
<svg version="1.1" id="Layer_1" xmlns="http://www.w3.org/2000/svg" xmlns:xlink="http://www.w3.org/1999/xlink" x="0px" y="0px"
	 width="130px" height="130px" viewBox="0 0 130 130" enable-background="new 0 0 130 130" xml:space="preserve">
<rect fill="none" width="130" height="130"/>
<g>
	<path fill="#0096BC" d="M64.359,118.699L1,45.784c0,0,14.884-25.467,15.2-24.513l48.273-9.971l48.045,9.971L129,45.151
		L64.359,118.699z"/>
	<path fill="#0089B6" d="M16.2,21.271C15.884,20.317,1,45.784,1,45.784l63.359,72.915L38.57,45.784
		C38.57,45.784,16.522,20.634,16.2,21.271z"/>
	<polygon fill="#3EA2CA" points="65.807,117.061 129,45.151 112.519,21.271 90.47,46.111 	"/>
	<g>
		<path fill="#35A3BC" d="M16.003,21.412c0.036-0.052,0.067-0.083,0.099-0.109C16.071,21.329,16.04,21.36,16.003,21.412z"/>
		<path fill="#46B0D1" d="M16.2,21.271c0.322-0.638,22.37,24.513,22.37,24.513l24.513-34.483L16.2,21.271z"/>
		<path fill="#35A3BC" d="M16.133,21.262c0.037-0.026,0.052-0.026,0.067,0.01C16.185,21.235,16.169,21.235,16.133,21.262z"/>
		<path fill="#35A3BC" d="M15.812,21.713c0.052-0.088,0.099-0.156,0.14-0.218C15.91,21.557,15.863,21.625,15.812,21.713z"/>
		<path fill="#35A3BC" d="M14.52,24.197c0.104-0.212,0.208-0.42,0.306-0.617C14.727,23.777,14.624,23.985,14.52,24.197z"/>
		<path fill="#35A3BC" d="M15.562,22.153c0.067-0.119,0.125-0.228,0.182-0.326C15.687,21.926,15.63,22.034,15.562,22.153z"/>
		<path fill="#35A3BC" d="M14.099,25.069c0.109-0.233,0.218-0.457,0.327-0.675C14.317,24.612,14.208,24.836,14.099,25.069z"/>
		<path fill="#35A3BC" d="M15.178,22.88c-0.083,0.166-0.176,0.343-0.27,0.534C15.002,23.223,15.095,23.046,15.178,22.88z"/>
		<path fill="#35A3BC" d="M15.256,22.725c0.083-0.156,0.161-0.296,0.233-0.436C15.417,22.429,15.339,22.568,15.256,22.725z"/>
	</g>
	<polygon fill="#46B0D1" points="90.833,45.759 112.519,21.271 66.347,11.301 	"/>
	<path opacity="0.2" fill="#6CDCFF" d="M16.2,21.271C15.884,20.317,1,45.784,1,45.784l0.156,0.192h127.124L129,45.151l-16.481-23.88
		l-47.174-9.971L16.2,21.271z"/>
</g>
</svg>
