<?xml version="1.0" encoding="utf-8"?>
<!-- Generator: Adobe Illustrator 16.0.0, SVG Export Plug-In . SVG Version: 6.00 Build 0)  -->
<!DOCTYPE svg PUBLIC "-//W3C//DTD SVG 1.1//EN" "http://www.w3.org/Graphics/SVG/1.1/DTD/svg11.dtd">
<svg version="1.1" id="Layer_1" xmlns="http://www.w3.org/2000/svg" xmlns:xlink="http://www.w3.org/1999/xlink" x="0px" y="0px"
	 width="130px" height="130px" viewBox="0 0 130 130" enable-background="new 0 0 130 130" xml:space="preserve">
<rect fill="none" width="130" height="130"/>
<g id="Digg_icon_2_">
	<path fill="#75788D" d="M20.2,43.32H1v42.064h32c0,0,0-8.624,0-19.231c0-16.964,0-39.008,0-39.008H20.2V43.32z M20.2,71.307h-6.4
		V55.535h6.4V71.307z M38.852,85.379H50.47V44.593H38.852V85.379z M97.247,41.735v41.82H116.3v6.432H97.247v12.868H129v-61.12
		H97.247z M116.2,71.307h-6.4V55.535h6.4V71.307z M59.146,83.555h19.052v6.432H59.146v12.868h31.753v-61.12H59.146V83.555z
		 M71.4,55.535H77.8v15.771H71.4V55.535z M38.852,35.94H50.47v-8.794H38.852V35.94z"/>
</g>
</svg>
