<?xml version="1.0" encoding="utf-8"?>
<!-- Generator: Adobe Illustrator 16.0.0, SVG Export Plug-In . SVG Version: 6.00 Build 0)  -->
<!DOCTYPE svg PUBLIC "-//W3C//DTD SVG 1.1//EN" "http://www.w3.org/Graphics/SVG/1.1/DTD/svg11.dtd">
<svg version="1.1" id="Layer_1" xmlns="http://www.w3.org/2000/svg" xmlns:xlink="http://www.w3.org/1999/xlink" x="0px" y="0px"
	 width="130px" height="130px" viewBox="0 0 130 130" enable-background="new 0 0 130 130" xml:space="preserve">
<rect fill="none" width="130" height="130"/>
<g>
	<path fill="#FDB813" d="M129,65.003c0,35.342-28.654,63.998-64.002,63.998C29.653,129.001,1,100.345,1,65.003
		C1,29.655,29.653,0.999,64.998,0.999C100.346,0.999,129,29.655,129,65.003z"/>
	<g>
		<path fill="#BC7708" d="M64.998,120.03c-30.342,0-55.027-24.686-55.027-55.027c0-30.345,24.686-55.033,55.027-55.033
			s55.03,24.688,55.03,55.033C120.028,95.345,95.34,120.03,64.998,120.03z M64.998,14.114c-28.057,0-50.884,22.829-50.884,50.889
			c0,28.057,22.827,50.884,50.884,50.884c28.06,0,50.887-22.827,50.887-50.884C115.885,36.943,93.058,14.114,64.998,14.114z"/>
	</g>
	<g>
		<path fill="#BC7708" d="M77.542,77.464c0.107,4.334-1.112,7.706-3.653,10.115c-1.527,1.418-3.412,2.328-5.66,2.731v3.533h-6.424
			v-3.694c-3.025-0.778-5.352-2.57-6.985-5.383c-1.392-2.409-2.181-5.217-2.365-8.427l7.265-0.524
			c0.319,2.974,1.083,5.089,2.288,6.346c0.91,0.985,1.954,1.458,3.13,1.4c1.659-0.052,2.982-0.864,3.974-2.443
			c0.507-0.778,0.764-1.891,0.764-3.332c0-2.063-0.937-4.138-2.81-6.225c-1.524-1.418-3.787-3.544-6.784-6.38
			c-2.328-2.225-4.014-4.253-5.058-6.104c-1.313-2.3-1.965-4.801-1.965-7.504c0-2.594,0.614-4.963,1.844-7.106
			c1.499-2.651,3.732-4.334,6.703-5.055v-3.257h6.424v3.257c2.034,0.449,3.718,1.309,5.058,2.564
			c2.354,2.196,3.666,5.072,3.934,8.634l-7.309,1.32c-0.213-2.029-0.801-3.648-1.764-4.854c-0.643-0.801-1.634-1.204-2.971-1.204
			c-1.392,0-2.446,0.616-3.17,1.844c-0.591,0.992-0.882,2.226-0.882,3.695c0,2.299,0.988,4.656,2.968,7.065
			c0.721,0.854,1.833,1.914,3.332,3.17c1.767,1.447,2.945,2.473,3.53,3.089c1.876,1.932,3.308,3.775,4.296,5.539
			C76.724,72.904,77.487,75.297,77.542,77.464z"/>
	</g>
</g>
</svg>
