<?xml version="1.0" encoding="utf-8"?>
<!-- Generator: Adobe Illustrator 16.0.0, SVG Export Plug-In . SVG Version: 6.00 Build 0)  -->
<!DOCTYPE svg PUBLIC "-//W3C//DTD SVG 1.1//EN" "http://www.w3.org/Graphics/SVG/1.1/DTD/svg11.dtd">
<svg version="1.1" id="Layer_1" xmlns="http://www.w3.org/2000/svg" xmlns:xlink="http://www.w3.org/1999/xlink" x="0px" y="0px"
	 width="130px" height="130px" viewBox="0 0 130 130" enable-background="new 0 0 130 130" xml:space="preserve">
<rect fill="none" width="130" height="130"/>
<g>
	<g>
		<g>
			<path fill="#F15A22" d="M89.844,45.167H65c-6.685,0-12.099-5.415-12.099-12.104c0-6.685,5.414-12.1,12.099-12.1
				c5.078,0,9.412,3.124,11.212,7.552c0.213,0.521,0.387,1.066,0.521,1.626c1.572,3.63,5.177,6.174,9.377,6.174
				c5.648,0,10.22-4.577,10.22-10.22c0-1.16-0.232-2.251-0.585-3.292c-0.109-0.303-0.218-0.605-0.332-0.903
				C90.701,9.688,78.875,1,65,1C46.99,1,32.387,15.604,32.387,33.614v11.554v76.286c0,4.165,3.382,7.547,7.552,7.547h50.128
				c4.17,0,7.547-3.382,7.547-7.547V52.938C97.613,48.648,94.133,45.167,89.844,45.167z"/>
			<g>
				<g>
					<path fill="#FFE794" d="M41.401,102.996h3.343c2.112,0,3.153,1.171,3.153,3.327v6.804c0,2.152-1.041,3.327-3.153,3.327h-3.343
						V102.996z M43.514,104.915v9.615h1.19c0.675,0,1.081-0.347,1.081-1.309v-6.992c0-0.967-0.406-1.314-1.081-1.314H43.514z"/>
					<path fill="#FFE794" d="M49.246,102.996h2.112v13.458h-2.112V102.996z"/>
					<path fill="#FFE794" d="M55.747,102.843c2.053,0,3.114,1.229,3.114,3.387v0.422h-1.999v-0.561c0-0.962-0.387-1.329-1.056-1.329
						c-0.675,0-1.062,0.367-1.062,1.329c0,2.767,4.136,3.287,4.136,7.131c0,2.156-1.081,3.382-3.153,3.382
						c-2.073,0-3.154-1.226-3.154-3.382v-0.823h1.998v0.957c0,0.962,0.427,1.309,1.097,1.309c0.674,0,1.096-0.347,1.096-1.309
						c0-2.768-4.131-3.288-4.131-7.126C52.633,104.072,53.689,102.843,55.747,102.843z"/>
					<path fill="#FFE794" d="M59.48,102.996h6.536v1.919h-2.212v11.539h-2.117v-11.539H59.48V102.996z"/>
					<path fill="#FFE794" d="M68.962,102.996v10.379c0,0.962,0.427,1.304,1.096,1.304c0.675,0,1.096-0.342,1.096-1.304v-10.379
						h1.999v10.245c0,2.152-1.076,3.382-3.154,3.382c-2.072,0-3.148-1.229-3.148-3.382v-10.245H68.962z"/>
					<path fill="#FFE794" d="M79.019,116.454c-0.114-0.352-0.188-0.56-0.188-1.656v-2.112c0-1.249-0.427-1.716-1.384-1.716h-0.733
						v5.484h-2.112v-13.458h3.188c2.196,0,3.134,1.017,3.134,3.095v1.061c0,1.379-0.441,2.281-1.384,2.728
						c1.062,0.437,1.403,1.458,1.403,2.861v2.078c0,0.654,0.02,1.135,0.229,1.636H79.019z M76.713,104.915v4.136h0.828
						c0.788,0,1.27-0.347,1.27-1.423v-1.329c0-0.957-0.328-1.384-1.076-1.384H76.713z"/>
					<path fill="#FFE794" d="M88.658,106.091v0.48c0,1.384-0.427,2.267-1.363,2.708c1.13,0.446,1.571,1.463,1.571,2.881v1.101
						c0,2.073-1.091,3.193-3.208,3.193h-3.327v-13.458h3.193C87.711,102.996,88.658,104.013,88.658,106.091z M84.448,104.915v3.561
						h0.828c0.783,0,1.27-0.347,1.27-1.423v-0.754c0-0.957-0.332-1.384-1.081-1.384H84.448z M84.448,110.399v4.131h1.21
						c0.714,0,1.096-0.332,1.096-1.329v-1.17c0-1.25-0.406-1.632-1.363-1.632H84.448z"/>
				</g>
				<g>
					<path fill="#FFE794" d="M45.21,79.913h3.342c2.112,0,3.154,1.171,3.154,3.328v6.803c0,2.152-1.042,3.322-3.154,3.322H45.21
						V79.913z M47.322,81.832v9.615h1.195c0.669,0,1.076-0.347,1.076-1.309v-6.992c0-0.967-0.407-1.314-1.076-1.314H47.322z"/>
					<path fill="#FFE794" d="M52.886,83.146c0-2.157,1.131-3.387,3.208-3.387c2.073,0,3.214,1.229,3.214,3.387v6.992
						c0,2.156-1.141,3.382-3.214,3.382c-2.077,0-3.208-1.226-3.208-3.382V83.146z M54.998,90.277c0,0.957,0.427,1.324,1.096,1.324
						c0.67,0,1.091-0.367,1.091-1.324v-7.27c0-0.962-0.421-1.324-1.091-1.324c-0.669,0-1.096,0.362-1.096,1.324V90.277z"/>
					<path fill="#FFE794" d="M65.54,83.622v9.744h-1.903V79.913h2.652l2.172,8.059v-8.059h1.885v13.453h-2.172L65.54,83.622z"/>
					<path fill="#FFE794" d="M71.699,83.146c0-2.157,1.131-3.387,3.208-3.387c2.073,0,3.209,1.229,3.209,3.387v6.992
						c0,2.156-1.136,3.382-3.209,3.382c-2.077,0-3.208-1.226-3.208-3.382V83.146z M73.812,90.277c0,0.957,0.422,1.324,1.096,1.324
						c0.675,0,1.097-0.367,1.097-1.324v-7.27c0-0.962-0.422-1.324-1.097-1.324c-0.674,0-1.096,0.362-1.096,1.324V90.277z"/>
					<path fill="#FFE794" d="M78.869,79.913h6.536v1.919h-2.212v11.534h-2.112V81.832h-2.212V79.913z"/>
				</g>
				<g>
					<path fill="#FFE794" d="M50.561,60.158v1.746c0,2.157-1.036,3.327-3.154,3.327H46.41v5.053h-2.117V56.831h3.113
						C49.524,56.831,50.561,58.006,50.561,60.158z M46.41,58.75v4.562h0.996c0.675,0,1.037-0.312,1.037-1.27v-2.018
						c0-0.967-0.362-1.274-1.037-1.274H46.41z"/>
					<path fill="#FFE794" d="M51.542,56.831h2.117v11.534h3.481v1.919h-5.599V56.831z"/>
					<path fill="#FFE794" d="M60.18,62.503h2.901v1.918H60.18v3.942h3.65v1.919h-5.763V56.831h5.763v1.919h-3.65V62.503z"/>
					<path fill="#FFE794" d="M71.992,70.283h-2.138l-0.367-2.439h-2.593l-0.367,2.439h-1.938l2.151-13.453h3.1L71.992,70.283z
						 M67.162,66.019H69.2l-1.017-6.808L67.162,66.019z"/>
					<path fill="#FFE794" d="M75.82,56.682c2.058,0,3.108,1.225,3.108,3.377v0.421h-1.993v-0.555c0-0.962-0.382-1.329-1.061-1.329
						c-0.67,0-1.057,0.367-1.057,1.329c0,2.767,4.136,3.288,4.136,7.131c0,2.151-1.076,3.387-3.149,3.387
						c-2.082,0-3.158-1.235-3.158-3.387v-0.828h2.003v0.962c0,0.962,0.422,1.304,1.091,1.304c0.675,0,1.097-0.342,1.097-1.304
						c0-2.768-4.131-3.283-4.131-7.131C72.706,57.907,73.762,56.682,75.82,56.682z"/>
					<path fill="#FFE794" d="M82.286,62.503h2.896v1.918h-2.896v3.942h3.649v1.919h-5.767V56.831h5.767v1.919h-3.649V62.503z"/>
				</g>
			</g>
		</g>
	</g>
</g>
</svg>
