<?xml version="1.0" encoding="utf-8"?>
<!-- Generator: Adobe Illustrator 16.0.0, SVG Export Plug-In . SVG Version: 6.00 Build 0)  -->
<!DOCTYPE svg PUBLIC "-//W3C//DTD SVG 1.1//EN" "http://www.w3.org/Graphics/SVG/1.1/DTD/svg11.dtd">
<svg version="1.1" id="Layer_1" xmlns="http://www.w3.org/2000/svg" xmlns:xlink="http://www.w3.org/1999/xlink" x="0px" y="0px"
	 width="130px" height="130px" viewBox="0 0 130 130" enable-background="new 0 0 130 130" xml:space="preserve">
<rect fill="none" width="130" height="130"/>
<g>
	<path fill="#FDB813" d="M64.999,40.51c13.505,0,24.49,10.985,24.49,24.49s-10.985,24.49-24.49,24.49
		c-13.502,0-24.488-10.985-24.488-24.49S51.497,40.51,64.999,40.51 M64.999,0.999C29.655,0.999,1,29.651,1,65
		c0,35.344,28.655,64.001,63.999,64.001C100.346,129.001,129,100.344,129,65C129,29.651,100.346,0.999,64.999,0.999L64.999,0.999z"
		/>
	<path fill="#7C6A51" d="M64.999,0.999C29.655,0.999,1,29.651,1,65c0,2.299,0.127,4.564,0.364,6.797
		c4.779-1.957,10.07-3.556,14.987-3.771c9.861-0.43,18.457,0.705,24.976,3.136c-0.513-1.973-0.816-4.029-0.816-6.162
		c0-13.505,10.986-24.49,24.488-24.49c13.505,0,24.49,10.985,24.49,24.49c0,0.882-0.052,1.753-0.143,2.612
		c5.481,1.517,11.616,2.988,17.211,1.015c6.593-2.326,14.194-9.409,21.82-12.479C124.064,24.993,97.342,0.999,64.999,0.999z"/>
	<path fill="#C98A11" d="M114.256,80.902c0,1.367-1.105,2.475-2.47,2.475c-1.367,0-2.473-1.107-2.473-2.475
		c0-1.361,1.105-2.47,2.473-2.47C113.15,78.433,114.256,79.541,114.256,80.902z"/>
	<path fill="#C98A11" d="M68.974,105.603c0,1.367-1.105,2.475-2.47,2.475c-1.367,0-2.473-1.107-2.473-2.475
		c0-1.361,1.105-2.47,2.473-2.47C67.868,103.133,68.974,104.241,68.974,105.603z"/>
	<path fill="#C98A11" d="M73.626,119.085c0,1.367-1.105,2.475-2.47,2.475c-1.367,0-2.473-1.107-2.473-2.475
		c0-1.361,1.105-2.47,2.473-2.47C72.521,116.615,73.626,117.724,73.626,119.085z"/>
	<path fill="#FDB813" d="M19.857,60.816c0,1.367-1.105,2.475-2.47,2.475c-1.367,0-2.472-1.107-2.472-2.475
		c0-1.361,1.104-2.47,2.472-2.47C18.752,58.347,19.857,59.455,19.857,60.816z"/>
	<path fill="#F15A22" d="M28.335,26.917c0,1.367-1.105,2.47-2.47,2.47c-1.367,0-2.472-1.103-2.472-2.47s1.104-2.47,2.472-2.47
		C27.229,24.447,28.335,25.55,28.335,26.917z"/>
	<path fill="#FDB813" d="M32.747,37.269c0,1.367-1.104,2.475-2.469,2.475c-1.367,0-2.473-1.107-2.473-2.475
		c0-1.361,1.105-2.47,2.473-2.47C31.643,34.799,32.747,35.907,32.747,37.269z"/>
	<path fill="#C98A11" d="M13.399,75.55c0,1.367-1.104,2.476-2.469,2.476c-1.367,0-2.473-1.108-2.473-2.476
		c0-1.361,1.105-2.469,2.473-2.469C12.295,73.081,13.399,74.188,13.399,75.55z"/>
	<path fill="#4BA7C4" d="M33.982,60.733c0,1.367-1.105,2.47-2.47,2.47c-1.367,0-2.473-1.103-2.473-2.47
		c0-1.366,1.105-2.469,2.473-2.469C32.877,58.265,33.982,59.367,33.982,60.733z"/>
	<path fill="#4BA7C4" d="M17.928,48.387c0,1.367-1.104,2.47-2.469,2.47c-1.367,0-2.473-1.103-2.473-2.47s1.105-2.47,2.473-2.47
		C16.823,45.917,17.928,47.02,17.928,48.387z"/>
	<path fill="#C98A11" d="M108.49,95.312c0,1.366-1.105,2.475-2.47,2.475c-1.367,0-2.473-1.108-2.473-2.475
		c0-1.361,1.105-2.47,2.473-2.47C107.385,92.842,108.49,93.95,108.49,95.312z"/>
	<path fill="#C98A11" d="M111.375,71.02c0,1.367-1.104,2.475-2.469,2.475c-1.367,0-2.473-1.107-2.473-2.475
		c0-1.361,1.105-2.47,2.473-2.47C110.271,68.55,111.375,69.658,111.375,71.02z"/>
	<path fill="#C98A11" d="M37.689,76.371c0,1.367-1.105,2.476-2.47,2.476c-1.367,0-2.473-1.108-2.473-2.476
		c0-1.361,1.105-2.469,2.473-2.469C36.584,73.902,37.689,75.01,37.689,76.371z"/>
	<path fill="#A4C553" d="M18.752,40.151c0,1.367-1.105,2.47-2.47,2.47c-1.366,0-2.472-1.103-2.472-2.47s1.105-2.47,2.472-2.47
		C17.646,37.682,18.752,38.784,18.752,40.151z"/>
	<path fill="#C98A11" d="M47.751,103.287c0,1.367-1.104,2.47-2.469,2.47c-1.367,0-2.473-1.103-2.473-2.47s1.105-2.47,2.473-2.47
		C46.646,100.817,47.751,101.92,47.751,103.287z"/>
	<path fill="#C98A11" d="M60.327,115.888c0,1.367-1.104,2.476-2.469,2.476c-1.367,0-2.473-1.108-2.473-2.476
		c0-1.361,1.105-2.469,2.473-2.469C59.223,113.419,60.327,114.526,60.327,115.888z"/>
	<path fill="#C98A11" d="M32.31,102.664c0,1.367-1.105,2.476-2.47,2.476c-1.367,0-2.473-1.108-2.473-2.476
		c0-1.361,1.105-2.469,2.473-2.469C31.204,100.195,32.31,101.303,32.31,102.664z"/>
	<path fill="#C98A11" d="M29.864,85.842c0,1.366-1.104,2.469-2.469,2.469c-1.367,0-2.473-1.103-2.473-2.469
		c0-1.367,1.105-2.47,2.473-2.47C28.76,83.372,29.864,84.475,29.864,85.842z"/>
	<path fill="#C98A11" d="M19.022,85.78c0,1.367-1.105,2.47-2.47,2.47c-1.367,0-2.473-1.103-2.473-2.47
		c0-1.366,1.105-2.469,2.473-2.469C17.917,83.312,19.022,84.414,19.022,85.78z"/>
	<path fill="#C98A11" d="M83.159,96.573c0,1.367-1.105,2.476-2.47,2.476c-1.367,0-2.473-1.108-2.473-2.476
		c0-1.361,1.105-2.469,2.473-2.469C82.054,94.104,83.159,95.212,83.159,96.573z"/>
	<path fill="#A4C553" d="M11.752,60.733c0,1.367-1.105,2.47-2.47,2.47c-1.367,0-2.473-1.103-2.473-2.47
		c0-1.366,1.105-2.469,2.473-2.469C10.646,58.265,11.752,59.367,11.752,60.733z"/>
	<path fill="#C98A11" d="M25.75,71.846c0,1.367-1.105,2.476-2.47,2.476c-1.367,0-2.472-1.108-2.472-2.476
		c0-1.361,1.104-2.469,2.472-2.469C24.645,69.377,25.75,70.484,25.75,71.846z"/>
	<path fill="#F15A22" d="M31.516,52.499c0,1.367-1.105,2.475-2.47,2.475c-1.367,0-2.472-1.107-2.472-2.475
		c0-1.361,1.104-2.47,2.472-2.47C30.41,50.029,31.516,51.138,31.516,52.499z"/>
	<path fill="#C98A11" d="M94.814,111.936c0,1.367-1.105,2.47-2.47,2.47c-1.367,0-2.472-1.103-2.472-2.47s1.104-2.469,2.472-2.469
		C93.709,109.467,94.814,110.568,94.814,111.936z"/>
	<path fill="#F15A22" d="M101.082,43.442c0,1.367-1.105,2.475-2.47,2.475c-1.367,0-2.473-1.107-2.473-2.475
		c0-1.361,1.105-2.47,2.473-2.47C99.977,40.973,101.082,42.081,101.082,43.442z"/>
	<path fill="#A4C553" d="M88.762,14.807c0,1.367-1.105,2.475-2.469,2.475c-1.367,0-2.473-1.107-2.473-2.475
		c0-1.361,1.105-2.47,2.473-2.47C87.656,12.337,88.762,13.445,88.762,14.807z"/>
	<path fill="#C98A11" d="M97.377,85.434c0,1.367-1.104,2.47-2.469,2.47c-1.367,0-2.473-1.103-2.473-2.47s1.105-2.47,2.473-2.47
		C96.272,82.964,97.377,84.066,97.377,85.434z"/>
	<path fill="#C98A11" d="M38.447,96.265c-0.039,1.367-1.175,2.437-2.539,2.397c-1.366-0.038-2.438-1.174-2.4-2.541
		c0.039-1.361,1.175-2.436,2.539-2.397C37.411,93.763,38.485,94.897,38.447,96.265z"/>
	<path fill="#FDB813" d="M61.708,32.672c0,1.367-1.104,2.469-2.469,2.469c-1.367,0-2.473-1.102-2.473-2.469s1.105-2.47,2.473-2.47
		C60.604,30.202,61.708,31.305,61.708,32.672z"/>
	<path fill="#C98A11" d="M49.212,116.307c0,1.367-1.104,2.47-2.469,2.47c-1.367,0-2.473-1.103-2.473-2.47s1.105-2.469,2.473-2.469
		C48.107,113.838,49.212,114.939,49.212,116.307z"/>
	<path fill="#C98A11" d="M59.096,97.373c0,1.367-1.105,2.469-2.47,2.469c-1.367,0-2.473-1.102-2.473-2.469s1.105-2.47,2.473-2.47
		C57.99,94.903,59.096,96.006,59.096,97.373z"/>
	<path fill="#4BA7C4" d="M43.865,40.973c0,1.367-1.105,2.47-2.47,2.47c-1.366,0-2.472-1.103-2.472-2.47s1.105-2.47,2.472-2.47
		C42.76,38.503,43.865,39.605,43.865,40.973z"/>
	<path fill="#C98A11" d="M97.791,102.312c0,1.367-1.105,2.47-2.47,2.47c-1.367,0-2.472-1.103-2.472-2.47s1.104-2.47,2.472-2.47
		C96.686,99.842,97.791,100.944,97.791,102.312z"/>
	<path fill="#C98A11" d="M82.969,108.485c0,1.367-1.105,2.47-2.47,2.47c-1.367,0-2.472-1.103-2.472-2.47s1.104-2.47,2.472-2.47
		C81.863,106.016,82.969,107.118,82.969,108.485z"/>
	<path fill="#C98A11" d="M97.788,73.081c0,1.367-1.105,2.475-2.47,2.475c-1.367,0-2.472-1.107-2.472-2.475
		c0-1.361,1.104-2.47,2.472-2.47C96.683,70.611,97.788,71.72,97.788,73.081z"/>
	<path fill="#FDB813" d="M111.373,50.442c0,1.367-1.105,2.47-2.47,2.47c-1.367,0-2.473-1.103-2.473-2.47s1.105-2.469,2.473-2.469
		C110.268,47.974,111.373,49.075,111.373,50.442z"/>
	<path fill="#C98A11" d="M124.133,70.203c0,1.367-1.104,2.47-2.469,2.47c-1.367,0-2.473-1.103-2.473-2.47
		c0-1.366,1.105-2.469,2.473-2.469C123.028,67.734,124.133,68.837,124.133,70.203z"/>
	<path fill="#C98A11" d="M120.429,90.786c0,1.366-1.104,2.469-2.469,2.469c-1.367,0-2.473-1.103-2.473-2.469
		c0-1.367,1.105-2.47,2.473-2.47C119.324,88.316,120.429,89.419,120.429,90.786z"/>
	<path fill="#C98A11" d="M107.315,104.979c0,1.367-1.104,2.475-2.469,2.475c-1.367,0-2.473-1.107-2.473-2.475
		c0-1.361,1.105-2.47,2.473-2.47C106.211,102.51,107.315,103.618,107.315,104.979z"/>
	<path fill="#C98A11" d="M37.697,110.349c0,1.366-1.105,2.475-2.47,2.475c-1.367,0-2.472-1.108-2.472-2.475
		c0-1.362,1.104-2.47,2.472-2.47C36.592,107.879,37.697,108.986,37.697,110.349z"/>
	<path fill="#A4C553" d="M59.093,19.982c0,1.367-1.105,2.47-2.47,2.47c-1.366,0-2.472-1.103-2.472-2.47s1.105-2.469,2.472-2.469
		C57.987,17.514,59.093,18.615,59.093,19.982z"/>
	<path fill="#C98A11" d="M22.426,99.225c0,1.367-1.105,2.476-2.47,2.476c-1.366,0-2.472-1.108-2.472-2.476
		c0-1.361,1.105-2.469,2.472-2.469C21.32,96.756,22.426,97.863,22.426,99.225z"/>
	<path fill="#F15A22" d="M46.743,28.626c0,1.366-1.105,2.469-2.47,2.469c-1.367,0-2.473-1.103-2.473-2.469
		c0-1.367,1.105-2.47,2.473-2.47C45.638,26.156,46.743,27.259,46.743,28.626z"/>
	<path fill="#FDB813" d="M37.54,18.511c0,1.367-1.105,2.476-2.47,2.476c-1.366,0-2.472-1.108-2.472-2.476
		c0-1.361,1.105-2.47,2.472-2.47C36.435,16.041,37.54,17.149,37.54,18.511z"/>
	<path fill="#4BA7C4" d="M57.999,10.496c0,1.367-1.105,2.47-2.47,2.47c-1.367,0-2.473-1.103-2.473-2.47s1.105-2.47,2.473-2.47
		C56.894,8.026,57.999,9.129,57.999,10.496z"/>
	<path fill="#F15A22" d="M71.032,15.452c0,1.366-1.105,2.475-2.47,2.475c-1.367,0-2.472-1.108-2.472-2.475
		c0-1.362,1.104-2.47,2.472-2.47C69.927,12.982,71.032,14.09,71.032,15.452z"/>
	<path fill="#F15A22" d="M82.972,26.156c0,1.367-1.105,2.47-2.47,2.47c-1.367,0-2.472-1.103-2.472-2.47s1.104-2.47,2.472-2.47
		C81.866,23.687,82.972,24.789,82.972,26.156z"/>
	<path fill="#FDB813" d="M99.847,26.978c0,1.367-1.105,2.475-2.47,2.475c-1.366,0-2.472-1.107-2.472-2.475
		c0-1.361,1.105-2.47,2.472-2.47C98.741,24.508,99.847,25.616,99.847,26.978z"/>
	<path fill="#4BA7C4" d="M80.813,37.814c0,1.367-1.105,2.475-2.47,2.475c-1.367,0-2.472-1.107-2.472-2.475
		c0-1.361,1.104-2.47,2.472-2.47C79.708,35.345,80.813,36.453,80.813,37.814z"/>
	<path fill="#4BA7C4" d="M112.196,37.269c0,1.367-1.104,2.47-2.469,2.47c-1.367,0-2.473-1.103-2.473-2.47s1.105-2.47,2.473-2.47
		C111.092,34.799,112.196,35.901,112.196,37.269z"/>
	<path fill="#A4C553" d="M98.615,57.438c0,1.367-1.105,2.475-2.47,2.475c-1.367,0-2.473-1.107-2.473-2.475
		c0-1.361,1.105-2.47,2.473-2.47C97.51,54.968,98.615,56.076,98.615,57.438z"/>
	<path fill="#F15A22" d="M122.901,55.795c0,1.367-1.105,2.47-2.47,2.47c-1.367,0-2.472-1.103-2.472-2.47s1.104-2.47,2.472-2.47
		C121.796,53.325,122.901,54.428,122.901,55.795z"/>
</g>
</svg>
