<?xml version="1.0" encoding="utf-8"?>
<!-- Generator: Adobe Illustrator 16.0.0, SVG Export Plug-In . SVG Version: 6.00 Build 0)  -->
<!DOCTYPE svg PUBLIC "-//W3C//DTD SVG 1.1//EN" "http://www.w3.org/Graphics/SVG/1.1/DTD/svg11.dtd">
<svg version="1.1" id="Layer_1" xmlns="http://www.w3.org/2000/svg" xmlns:xlink="http://www.w3.org/1999/xlink" x="0px" y="0px"
	 width="130px" height="130px" viewBox="0 0 130 130" enable-background="new 0 0 130 130" xml:space="preserve">
<rect fill="none" width="130" height="130"/>
<g>
	<path fill="#FDB813" d="M119.166,72.771l0.18-0.004c0-0.717-0.189-1.42-0.552-2.031l-17.322-29.711
		c-0.684-1.164-1.897-1.878-3.211-1.878H51.057H40.514h-8.622c-1.306,0-2.514,0.707-3.201,1.872L11.214,70.723
		c-0.365,0.614-0.555,1.323-0.555,2.045l0.18,0.004h-0.2l0.02,52.271c0,2.189,1.683,3.958,3.753,3.958h101.17
		c2.076,0,3.764-1.769,3.764-3.958l0.015-52.271H119.166z"/>
	<path fill="#D88D09" d="M81.806,76.85l-1.781,7.201c-0.497,2.01-2.52,3.653-4.492,3.653H54.455c-1.97,0-3.993-1.644-4.484-3.653
		l-1.778-7.201c-0.492-2.015-1.837-4.078-3.816-4.078H18.822l15.177-25.8h6.515h10.543H96.15l15.04,25.8H85.621
		C83.646,72.771,82.302,74.835,81.806,76.85z"/>
	<path fill="#7C6A51" d="M90.657,28.928c-2.39-2.401-8.42-1.921-10.842,0.469L69.723,39.487V6.046C69.723,2.71,68.076,1,64.678,1
		c-3.398,0-5.049,1.706-5.049,5.046v33.44L49.92,28.89c-2.415-2.386-6.307-2.366-8.694,0.039c-2.395,2.41-2.382,6.289,0.032,8.673
		l19.489,19.247c1.099,1.69,2.997,2.821,5.167,2.821c2.133,0,4.013-1.085,5.119-2.737l19.581-19.331
		C93.029,35.222,93.047,31.338,90.657,28.928z"/>
</g>
</svg>
