<?xml version="1.0" encoding="utf-8"?>
<!-- Generator: Adobe Illustrator 16.0.0, SVG Export Plug-In . SVG Version: 6.00 Build 0)  -->
<!DOCTYPE svg PUBLIC "-//W3C//DTD SVG 1.1//EN" "http://www.w3.org/Graphics/SVG/1.1/DTD/svg11.dtd">
<svg version="1.1" id="Layer_1" xmlns="http://www.w3.org/2000/svg" xmlns:xlink="http://www.w3.org/1999/xlink" x="0px" y="0px"
	 width="130px" height="130px" viewBox="0 0 130 130" enable-background="new 0 0 130 130" xml:space="preserve">
<rect fill="none" width="130" height="130"/>
<g>
	<path fill="#FDB813" d="M122.271,63.686c-3.719,0-6.741,2.98-6.741,6.654v5.503H14.25v-5.464c0-3.697-2.796-6.693-6.515-6.693
		C4.017,63.686,1,66.666,1,70.34v47.421c0,3.677,3.017,6.659,6.735,6.659h114.535c3.718,0,6.729-2.982,6.729-6.659V70.34
		C129,66.666,125.988,63.686,122.271,63.686z"/>
	<path fill="#7C6A51" d="M86.929,37.672c-2.116-2.12-5.578-2.144-7.73-0.033l-9.71,7.962V10.919c0-2.946-1.524-5.339-4.541-5.339
		c-3.021,0-6.2,2.394-6.2,5.347v34.691l-8.014-7.979c-2.147-2.108-5.604-2.091-7.73,0.033c-2.126,2.125-2.11,5.555,0.037,7.659
		l17.314,16.993c0.979,1.494,2.666,2.489,4.593,2.489c1.896,0,3.567-0.962,4.546-2.415l17.404-17.067
		C89.045,43.227,89.055,39.797,86.929,37.672z"/>
</g>
</svg>
