<?xml version="1.0" encoding="utf-8"?>
<!-- Generator: Adobe Illustrator 16.0.0, SVG Export Plug-In . SVG Version: 6.00 Build 0)  -->
<!DOCTYPE svg PUBLIC "-//W3C//DTD SVG 1.1//EN" "http://www.w3.org/Graphics/SVG/1.1/DTD/svg11.dtd">
<svg version="1.1" id="Layer_1" xmlns="http://www.w3.org/2000/svg" xmlns:xlink="http://www.w3.org/1999/xlink" x="0px" y="0px"
	 width="130px" height="130px" viewBox="0 0 130 130" enable-background="new 0 0 130 130" xml:space="preserve">
<rect fill="none" width="130" height="130"/>
<g id="icon_copy_5_2_">
	<path fill="#CF5C9E" d="M65.268,1C30.125,1,1.531,29.055,1.531,64.198C1.531,99.342,30.125,129,65.268,129
		c35.142,0,63.201-29.658,63.201-64.802C128.469,29.055,100.41,1,65.268,1z M107.938,29.321
		c7.584,9.265,12.174,21.597,12.291,34.448c-1.793-0.381-20.322-4.034-38.436-1.754c-0.385-0.932-0.773-1.869-1.174-2.812
		c-1.131-2.655-2.346-5.292-3.613-7.88C97.137,43.104,106.791,30.876,107.938,29.321z M65.268,9.31
		c13.832,0,27.005,5.189,36.619,13.716c-0.98,1.397-9.707,12.942-29.066,20.199C63.901,26.836,54.013,13.368,52.51,11.36
		C56.604,10.368,60.874,9.31,65.268,9.31z M41.591,14.48c1.433,1.972,11.696,15.984,20.716,32.017
		c-25.467,6.767-47.895,6.665-50.329,6.634C15.507,36.24,26.359,21.665,41.591,14.48z M10.826,64.283
		c0-0.557,0.012-1.112,0.03-1.663c2.379,0.049,28.76,0.387,55.948-7.747c1.559,3.048,3.047,6.145,4.414,9.235
		c-0.721,0.205-1.436,0.417-2.146,0.646c-28.077,9.078-43.018,33.812-44.249,35.924C16.13,91.032,10.826,78.266,10.826,64.283z
		 M65.268,120.315c-12.586,0-24.185-5.891-33.417-13.087c0.979-2.002,12.001-23.296,42.709-33.994
		c0.117-0.043,0.238-0.085,0.355-0.121c7.645,19.86,10.805,36.504,11.615,41.281C79.994,117.177,72.807,120.315,65.268,120.315z
		 M95.686,109.411c-0.561-3.313-3.457-19.25-10.578-38.814c17.057-2.733,32.047,1.736,33.91,2.329
		C116.592,88.069,107.895,101.15,95.686,109.411z"/>
</g>
</svg>
