<?xml version="1.0" encoding="utf-8"?>
<!-- Generator: Adobe Illustrator 16.0.0, SVG Export Plug-In . SVG Version: 6.00 Build 0)  -->
<!DOCTYPE svg PUBLIC "-//W3C//DTD SVG 1.1//EN" "http://www.w3.org/Graphics/SVG/1.1/DTD/svg11.dtd">
<svg version="1.1" id="Layer_1" xmlns="http://www.w3.org/2000/svg" xmlns:xlink="http://www.w3.org/1999/xlink" x="0px" y="0px"
	 width="130px" height="130px" viewBox="0 0 130 130" enable-background="new 0 0 130 130" xml:space="preserve">
<rect fill="none" width="130" height="130"/>
<g>
	<g>
		<polygon fill="#E0D3BF" points="95.017,123.562 34.987,123.562 21.818,18.726 108.185,18.726 		"/>
	</g>
	<path fill="#C9BAA6" d="M21.818,18.726l5.011,39.879l80.535-36.689c0,0,0.182-0.109,0.454-0.271l0.366-2.918H21.818z"/>
	<polygon fill="#B2AA97" points="22.662,25.453 107.338,25.453 108.185,18.726 21.818,18.726 	"/>
	<path fill="#A09785" d="M99.605,25.453l7.759-3.537c0,0,0.182-0.109,0.454-0.271l0.366-2.918H21.818l0.844,6.727H99.605z"/>
	<path fill="#F15A22" d="M112.99,22.015h-3.354H20.364H17.01V11.201c0-1.85,1.511-3.358,3.354-3.358h89.271
		c1.844,0,3.354,1.509,3.354,3.358V22.015z"/>
	<path fill="#F15A22" d="M107.65,11.085h-3.528H25.878H22.35l0.59-7.144C22.939,2.324,24.263,1,25.878,1h78.244
		c1.612,0,2.938,1.324,2.938,2.942L107.65,11.085z"/>
	<g>
		<path fill="#349886" d="M84.729,69.736c0,10.895-8.831,19.731-19.729,19.731s-19.729-8.837-19.729-19.731S54.103,50.011,65,50.011
			S84.729,58.842,84.729,69.736z"/>
		<path fill="#349886" d="M65,92.427c-12.51,0-22.688-10.178-22.688-22.69c0-12.51,10.178-22.685,22.688-22.685
			s22.688,10.175,22.688,22.685C87.688,82.249,77.51,92.427,65,92.427z M65,52.97c-9.247,0-16.77,7.522-16.77,16.767
			c0,9.247,7.522,16.772,16.77,16.772s16.77-7.525,16.77-16.772C81.77,60.492,74.247,52.97,65,52.97z"/>
	</g>
	<path fill="#C9BAA6" d="M94.56,128.174C94.487,128.63,94.048,129,93.589,129H36.414c-0.459,0-0.898-0.37-0.971-0.826l-0.323-3.445
		h0.705h58.353h0.705L94.56,128.174z"/>
</g>
</svg>
