<?xml version="1.0" encoding="utf-8"?>
<!-- Generator: Adobe Illustrator 16.0.0, SVG Export Plug-In . SVG Version: 6.00 Build 0)  -->
<!DOCTYPE svg PUBLIC "-//W3C//DTD SVG 1.1//EN" "http://www.w3.org/Graphics/SVG/1.1/DTD/svg11.dtd">
<svg version="1.1" id="Layer_1" xmlns="http://www.w3.org/2000/svg" xmlns:xlink="http://www.w3.org/1999/xlink" x="0px" y="0px"
	 width="130px" height="130px" viewBox="0 0 130 130" enable-background="new 0 0 130 130" xml:space="preserve">
<rect fill="none" width="130" height="130"/>
<g>
	<g>
		<g>
			<path fill="#4BA7C4" d="M52.444,63.81c-0.307,0-0.62-0.05-0.927-0.155c-1.493-0.514-2.284-2.138-1.772-3.629l14.359-41.772
				L102.026,1.25c1.438-0.643,3.129,0,3.773,1.441c0.646,1.436,0,3.128-1.438,3.771l-35.665,15.99L55.144,61.88
				C54.737,63.066,53.63,63.81,52.444,63.81z"/>
		</g>
		<g>
			<polygon fill="#E0D3BF" points="80.312,125.07 36.939,125.07 27.424,49.323 89.826,49.323 			"/>
			<path fill="#C9BAA6" d="M27.445,49.323l3.621,28.814l58.189-26.508c0,0,0.132-0.08,0.327-0.196l0.266-2.109H27.445z"/>
			<polygon fill="#B2AA97" points="28.055,54.184 89.236,54.184 89.848,49.323 27.445,49.323 			"/>
			<path fill="#A09785" d="M83.648,54.184l5.606-2.556c0,0,0.132-0.08,0.327-0.196l0.266-2.109H27.445l0.61,4.861H83.648z"/>
			<polygon fill="#F15A22" points="83.267,101.561 86.931,72.374 30.32,72.374 33.984,101.561 			"/>
		</g>
		<path fill="#F15A22" d="M93.299,49.277c0,1.332-1.092,2.422-2.424,2.422H26.374c-1.332,0-2.424-1.09-2.424-2.422v-3.466
			c0-1.336,1.092-2.426,2.424-2.426h64.501c1.332,0,2.424,1.09,2.424,2.426V49.277z"/>
	</g>
	<path fill="#C9BAA6" d="M79.961,128.403c-0.052,0.33-0.369,0.597-0.701,0.597H37.95c-0.332,0-0.649-0.267-0.702-0.597l-0.234-2.489
		h0.51h42.162h0.509L79.961,128.403z"/>
</g>
</svg>
