<?xml version="1.0" encoding="utf-8"?>
<!-- Generator: Adobe Illustrator 16.0.0, SVG Export Plug-In . SVG Version: 6.00 Build 0)  -->
<!DOCTYPE svg PUBLIC "-//W3C//DTD SVG 1.1//EN" "http://www.w3.org/Graphics/SVG/1.1/DTD/svg11.dtd">
<svg version="1.1" id="Layer_1" xmlns="http://www.w3.org/2000/svg" xmlns:xlink="http://www.w3.org/1999/xlink" x="0px" y="0px"
	 width="130px" height="130px" viewBox="0 0 130 130" enable-background="new 0 0 130 130" xml:space="preserve">
<rect fill="none" width="130" height="130"/>
<g>
	<path fill="#D1C9B4" d="M67.633,22.222c-0.04-1.587,1.09-2.631,1.09-2.631v-3.29l-0.646-0.87v-1.954l-2.391-2.819l-0.164-7.234
		l0.527-0.47V2.195L64.999,1l-1.052,1.195v0.758l0.529,0.47l-0.164,7.234l-2.385,2.819v1.954l-0.651,0.87v3.29
		c0,0,1.13,1.043,1.09,2.631C62.331,23.813,64.999,98.046,34.075,129h12.37c0,0,3.254-15.408,18.554-15.408
		C80.3,113.592,83.554,129,83.554,129h12.371C64.999,98.046,67.668,23.813,67.633,22.222z M64.999,103.934c0,0-1.445,0-7.453,0
		c1.739-2.531,3.836-19.098,3.836-19.098h7.235c0,0,2.097,16.566,3.836,19.098C66.445,103.934,64.999,103.934,64.999,103.934z"/>
	<g>
		<rect x="47.35" y="101.547" fill="#FFF6E4" width="35.3" height="0.433"/>
		<path fill="#B7AA8D" d="M46.985,105.344c0,0,0.923,0.366,0.879,1.531h34.271c-0.044-1.165,0.879-1.531,0.879-1.531H46.985z"/>
		<g>
			<rect x="47.881" y="101.979" fill="#B7AA8D" width="0.409" height="3.364"/>
			<rect x="51.641" y="101.979" fill="#B7AA8D" width="0.409" height="3.364"/>
			<rect x="55.399" y="101.979" fill="#B7AA8D" width="0.403" height="3.364"/>
			<rect x="59.159" y="101.979" fill="#B7AA8D" width="0.403" height="3.364"/>
			<rect x="62.915" y="101.979" fill="#B7AA8D" width="0.409" height="3.364"/>
			<rect x="66.675" y="101.979" fill="#B7AA8D" width="0.409" height="3.364"/>
			<rect x="70.435" y="101.979" fill="#B7AA8D" width="0.403" height="3.364"/>
			<rect x="74.194" y="101.979" fill="#B7AA8D" width="0.403" height="3.364"/>
			<rect x="77.95" y="101.979" fill="#B7AA8D" width="0.408" height="3.364"/>
			<rect x="81.71" y="101.979" fill="#B7AA8D" width="0.408" height="3.364"/>
		</g>
	</g>
	<g>
		<polygon fill="#FFF6E4" points="73.193,76.861 56.806,76.861 55.178,77.401 55.178,77.779 74.819,77.779 74.819,77.401 		"/>
		<path fill="#B7AA8D" d="M55.178,77.779c0.977,0.066,1.313,1.551,1.313,1.551h17.017c0,0,0.337-1.484,1.312-1.551
			C72.323,77.779,57.676,77.779,55.178,77.779z"/>
		<g>
			<rect x="57.066" y="77.779" fill="#FFF6E4" width="0.324" height="1.551"/>
			<rect x="58.619" y="77.779" fill="#FFF6E4" width="0.329" height="1.551"/>
			<rect x="60.175" y="77.779" fill="#FFF6E4" width="0.324" height="1.551"/>
			<rect x="61.728" y="77.779" fill="#FFF6E4" width="0.327" height="1.551"/>
			<rect x="63.283" y="77.779" fill="#FFF6E4" width="0.324" height="1.551"/>
			<rect x="64.836" y="77.779" fill="#FFF6E4" width="0.327" height="1.551"/>
			<rect x="66.392" y="77.779" fill="#FFF6E4" width="0.324" height="1.551"/>
			<rect x="67.944" y="77.779" fill="#FFF6E4" width="0.327" height="1.551"/>
			<rect x="69.5" y="77.779" fill="#FFF6E4" width="0.324" height="1.551"/>
			<rect x="71.056" y="77.779" fill="#FFF6E4" width="0.324" height="1.551"/>
			<rect x="72.606" y="77.779" fill="#FFF6E4" width="0.329" height="1.551"/>
		</g>
	</g>
</g>
</svg>
