<?xml version="1.0" encoding="utf-8"?>
<!-- Generator: Adobe Illustrator 16.0.0, SVG Export Plug-In . SVG Version: 6.00 Build 0)  -->
<!DOCTYPE svg PUBLIC "-//W3C//DTD SVG 1.1//EN" "http://www.w3.org/Graphics/SVG/1.1/DTD/svg11.dtd">
<svg version="1.1" id="Layer_1" xmlns="http://www.w3.org/2000/svg" xmlns:xlink="http://www.w3.org/1999/xlink" x="0px" y="0px"
	 width="130px" height="130px" viewBox="0 0 130 130" enable-background="new 0 0 130 130" xml:space="preserve">
<rect fill="none" width="130" height="130"/>
<g>
	<path fill="#F15A22" d="M126.129,99.086h-16.288c-1.577,0-2.865,1.276-2.865,2.859v16.219c0,1.583,1.288,2.86,2.865,2.86h16.288
		c1.589,0,2.871-1.277,2.871-2.86v-16.219C129,100.362,127.718,99.086,126.129,99.086z M126.129,68.978h-16.288
		c-1.577,0-2.865,1.283-2.865,2.865v16.259c0,1.583,1.288,2.872,2.865,2.872h16.288c1.589,0,2.871-1.289,2.871-2.872V71.843
		C129,70.261,127.718,68.978,126.129,68.978z M126.129,39.649h-16.288c-1.577,0-2.865,1.242-2.865,2.785v15.768
		c0,1.537,1.288,2.785,2.865,2.785h16.288c1.589,0,2.871-1.248,2.871-2.785V42.435C129,40.892,127.718,39.649,126.129,39.649z"/>
	<path fill="#3FAA96" d="M90.109,98.9H73.863c-1.577,0-2.86,1.3-2.86,2.89v16.345c0,1.601,1.283,2.89,2.86,2.89h16.246
		c1.584,0,2.867-1.289,2.867-2.89V101.79C92.977,100.2,91.693,98.9,90.109,98.9z M90.109,68.983H73.863
		c-1.577,0-2.86,1.282-2.86,2.878v16.293c0,1.583,1.283,2.877,2.86,2.877h16.246c1.584,0,2.867-1.294,2.867-2.877V71.861
		C92.977,70.266,91.693,68.983,90.109,68.983z M90.109,8.976H73.863c-1.577,0-2.86,1.294-2.86,2.889v16.351
		c0,1.596,1.283,2.89,2.86,2.89h16.246c1.584,0,2.867-1.294,2.867-2.89V11.864C92.977,10.27,91.693,8.976,90.109,8.976z
		 M90.109,38.979H73.863c-1.577,0-2.86,1.253-2.86,2.803v15.906c0,1.548,1.283,2.802,2.86,2.802h16.246
		c1.584,0,2.867-1.254,2.867-2.802V41.782C92.977,40.232,91.693,38.979,90.109,38.979z"/>
	<path fill="#8DA552" d="M56.125,68.983H39.849c-1.588,0-2.877,1.277-2.877,2.866v16.258c0,1.584,1.289,2.866,2.877,2.866h16.276
		c1.588,0,2.877-1.282,2.877-2.866V71.85C59.002,70.261,57.714,68.983,56.125,68.983z M56.125,99.021H39.849
		c-1.588,0-2.877,1.283-2.877,2.866v16.264c0,1.596,1.289,2.873,2.877,2.873h16.276c1.588,0,2.877-1.277,2.877-2.873v-16.264
		C59.002,100.305,57.714,99.021,56.125,99.021z"/>
	<path fill="#FDB813" d="M20.118,98.9H3.866C2.282,98.9,1,100.2,1,101.79v16.345c0,1.601,1.282,2.89,2.866,2.89h16.252
		c1.572,0,2.854-1.289,2.854-2.89V101.79C22.973,100.2,21.69,98.9,20.118,98.9z M20.118,8.976H3.866C2.282,8.976,1,10.27,1,11.864
		v16.351c0,1.596,1.282,2.89,2.866,2.89h16.252c1.572,0,2.854-1.294,2.854-2.89V11.864C22.973,10.27,21.69,8.976,20.118,8.976z
		 M20.118,68.983H3.866C2.282,68.983,1,70.266,1,71.861v16.293c0,1.583,1.282,2.877,2.866,2.877h16.252
		c1.572,0,2.854-1.294,2.854-2.877V71.861C22.973,70.266,21.69,68.983,20.118,68.983z M20.118,38.979H3.866
		C2.282,38.979,1,40.262,1,41.851v16.271c0,1.589,1.282,2.872,2.866,2.872h16.252c1.572,0,2.854-1.283,2.854-2.872V41.851
		C22.973,40.262,21.69,38.979,20.118,38.979z"/>
</g>
</svg>
