<?xml version="1.0" encoding="utf-8"?>
<!-- Generator: Adobe Illustrator 16.0.0, SVG Export Plug-In . SVG Version: 6.00 Build 0)  -->
<!DOCTYPE svg PUBLIC "-//W3C//DTD SVG 1.1//EN" "http://www.w3.org/Graphics/SVG/1.1/DTD/svg11.dtd">
<svg version="1.1" id="Layer_1" xmlns="http://www.w3.org/2000/svg" xmlns:xlink="http://www.w3.org/1999/xlink" x="0px" y="0px"
	 width="130px" height="130px" viewBox="0 0 130 130" enable-background="new 0 0 130 130" xml:space="preserve">
<rect fill="none" width="130" height="130"/>
<g>
	<g>
		<path fill="#FDB813" d="M129,65.003c0,35.342-28.653,63.998-64.001,63.998C29.653,129.001,1,100.345,1,65.003
			C1,29.655,29.653,0.999,64.999,0.999C100.347,0.999,129,29.655,129,65.003z"/>
		<g>
			<path fill="#BC7708" d="M64.999,120.03c-30.343,0-55.027-24.686-55.027-55.027c0-30.345,24.685-55.033,55.027-55.033
				s55.03,24.688,55.03,55.033C120.029,95.345,95.342,120.03,64.999,120.03z M64.999,14.114c-28.058,0-50.884,22.829-50.884,50.889
				c0,28.057,22.826,50.884,50.884,50.884c28.06,0,50.887-22.827,50.887-50.884C115.886,36.943,93.059,14.114,64.999,14.114z"/>
		</g>
	</g>
	<g>
		<path fill="#BC7708" d="M77.857,88.282c-2.403,1.631-6.429,3.256-11.538,3.256c-6.277,0-11.854-2.403-15.727-6.893
			c-2.942-3.257-4.879-7.747-5.576-13.326h-4.801v-3.792h4.412c0-0.392,0-0.772,0-1.164c0-1.239,0.077-2.397,0.155-3.487h-4.567
			v-3.867h5.109c0.931-5.423,3.256-9.919,6.354-13.095c3.951-4.104,8.982-6.426,15.337-6.426c4.567,0,8.132,1.319,10.296,2.483
			l-1.547,5.106c-1.934-1.164-5.19-2.167-8.675-2.167c-4.181,0-7.59,1.47-10.225,4.26c-2.322,2.242-3.87,5.729-4.648,9.838h21.614
			v3.867H51.523c-0.077,1.009-0.155,2.173-0.155,3.257c0,0.467,0,0.847,0,1.395h22.464v3.792H51.907
			c0.622,4.496,2.173,7.827,4.259,10.15c2.868,3.02,6.744,4.489,10.925,4.489c4.104,0,7.666-1.544,9.45-2.553L77.857,88.282z"/>
	</g>
</g>
</svg>
