<?xml version="1.0" encoding="utf-8"?>
<!-- Generator: Adobe Illustrator 16.0.0, SVG Export Plug-In . SVG Version: 6.00 Build 0)  -->
<!DOCTYPE svg PUBLIC "-//W3C//DTD SVG 1.1//EN" "http://www.w3.org/Graphics/SVG/1.1/DTD/svg11.dtd">
<svg version="1.1" id="Layer_1" xmlns="http://www.w3.org/2000/svg" xmlns:xlink="http://www.w3.org/1999/xlink" x="0px" y="0px"
	 width="130px" height="130px" viewBox="0 0 130 130" enable-background="new 0 0 130 130" xml:space="preserve">
<rect fill="none" width="130" height="130"/>
<g>
	<path fill="#FFF6E4" d="M64.983,21.542c-23.392,0-41.637,16.57-63.983,43.441c19.275,22.978,35.436,43.476,63.983,43.476
		c28.571,0,49.564-25.947,64.017-42.995C114.211,45.515,93.213,21.542,64.983,21.542z"/>
	<path fill="#F4E9D7" d="M1.592,65.686c19.01,22.689,35.132,42.773,63.391,42.773c28.445,0,49.387-25.722,63.829-42.773H1.592z"/>
	<path fill="#4A8CAE" d="M64.998,39.676c-13.99,0-25.332,11.337-25.332,25.327c0,13.985,11.342,25.322,25.332,25.322
		c13.979,0,25.316-11.337,25.316-25.322C90.314,51.013,78.978,39.676,64.998,39.676z"/>
	<path fill="#42443D" d="M64.993,53.391c-6.422,0-11.607,5.199-11.607,11.611c0,6.408,5.186,11.601,11.607,11.601
		c6.412,0,11.611-5.193,11.611-11.601C76.604,58.59,71.405,53.391,64.993,53.391z"/>
	<path fill="#FFF6E4" d="M56.79,53.367c-1.893,0-3.423,1.531-3.423,3.423c0,1.887,1.53,3.418,3.423,3.418
		c1.887,0,3.423-1.531,3.423-3.418C60.213,54.898,58.677,53.367,56.79,53.367z"/>
</g>
</svg>
