<?xml version="1.0" encoding="utf-8"?>
<!-- Generator: Adobe Illustrator 16.0.0, SVG Export Plug-In . SVG Version: 6.00 Build 0)  -->
<!DOCTYPE svg PUBLIC "-//W3C//DTD SVG 1.1//EN" "http://www.w3.org/Graphics/SVG/1.1/DTD/svg11.dtd">
<svg version="1.1" id="Layer_1" xmlns="http://www.w3.org/2000/svg" xmlns:xlink="http://www.w3.org/1999/xlink" x="0px" y="0px"
	 width="130px" height="130px" viewBox="0 0 130 130" enable-background="new 0 0 130 130" xml:space="preserve">
<rect fill="none" width="130" height="130"/>
<g>
	<path fill="#4BA7C4" d="M101.795,3.786c-22.646,0-41.071,18.42-41.071,41.067v18.938H46.728c-3.481,0-6.307,2.823-6.307,6.301
		c0,3.484,2.825,6.307,6.307,6.307h13.996v46.295c0,3.483,2.822,6.305,6.303,6.305c3.482,0,6.307-2.821,6.307-6.305V76.399h13.988
		c3.48,0,6.307-2.822,6.307-6.307c0-3.478-2.826-6.301-6.307-6.301H73.334V44.854c0-15.691,12.764-28.461,28.461-28.461
		c3.482,0,6.305-2.828,6.305-6.307C108.1,6.608,105.277,3.786,101.795,3.786z M55.158,17.629c0-9.166-7.453-16.628-16.622-16.628
		c-9.173,0-16.635,7.462-16.635,16.628c0,9.173,7.462,16.629,16.635,16.629C47.705,34.258,55.158,26.802,55.158,17.629z
		 M38.536,27.957c-5.698,0-10.328-4.633-10.328-10.328c0-5.688,4.63-10.321,10.328-10.321c5.688,0,10.318,4.633,10.318,10.321
		C48.854,23.324,44.224,27.957,38.536,27.957z"/>
</g>
</svg>
