<?xml version="1.0" encoding="utf-8"?>
<!-- Generator: Adobe Illustrator 16.0.0, SVG Export Plug-In . SVG Version: 6.00 Build 0)  -->
<!DOCTYPE svg PUBLIC "-//W3C//DTD SVG 1.1//EN" "http://www.w3.org/Graphics/SVG/1.1/DTD/svg11.dtd">
<svg version="1.1" id="Layer_1" xmlns="http://www.w3.org/2000/svg" xmlns:xlink="http://www.w3.org/1999/xlink" x="0px" y="0px"
	 width="130px" height="130px" viewBox="0 0 130 130" enable-background="new 0 0 130 130" xml:space="preserve">
<rect fill="none" width="130" height="130"/>
<g>
	<g>
		<path fill="#FDB813" d="M112.062,34.878L85.788,4.716c-0.437-1.724-0.688-3.606-1.097-3.627V1H42.557
			c-2.545,0-4.627,2.074-4.627,4.61v6.125h21.93c1.302,0,2.464,0.595,3.23,1.528l33.316,34.861c1.293,1.033,1.947,2.272,1.947,3.69
			v35.258c0.223-0.006,0.44-0.033,0.665-0.033c7.892,0,14.842,4.072,18.879,10.216c0-16.849,0-60.857,0-61.513
			C117.897,35.179,112.596,32.252,112.062,34.878z"/>
		<g>
			<path fill="#E89E0A" d="M84.714,1.041l0.022,24.946c0,5.637,6.107,9.744,11.692,9.744h21.44L84.714,1.041z"/>
		</g>
	</g>
	<g>
		<g>
			<path fill="#7C6A51" d="M99.019,90.172c-10.73,0-19.454,8.709-19.454,19.413c0,10.706,8.724,19.415,19.454,19.415
				c10.72,0,19.446-8.709,19.446-19.415C118.465,98.881,109.738,90.172,99.019,90.172z"/>
		</g>
		<g>
			<path fill="#FFFFFF" d="M91.253,107.891c-0.769,0-1.517,0.744-1.517,1.513s0.748,1.52,1.517,1.52h15.16
				c0.769,0,1.509-0.751,1.509-1.52s-0.74-1.513-1.509-1.513H91.253z"/>
		</g>
	</g>
	<g>
		<path fill="#FDB813" d="M76.433,109.585c0-10.771,7.612-19.79,17.745-22.01c0-17.565,0-35.339,0-35.761
			c0-0.582-5.479-3.606-6.032-0.893L60.993,19.751c-0.45-1.783-0.711-3.728-1.134-3.748v-0.092H16.318
			c-2.63,0-4.783,2.143-4.783,4.763v101.403c0,2.618,2.153,4.764,4.783,4.764h68.189C79.577,122.701,76.433,116.506,76.433,109.585z
			"/>
		<g>
			<path fill="#E89E0A" d="M59.884,15.954l0.022,25.779c0,5.826,6.312,10.071,12.083,10.071h22.157L59.884,15.954z"/>
		</g>
	</g>
</g>
</svg>
