<?xml version="1.0" encoding="utf-8"?>
<!-- Generator: Adobe Illustrator 16.0.0, SVG Export Plug-In . SVG Version: 6.00 Build 0)  -->
<!DOCTYPE svg PUBLIC "-//W3C//DTD SVG 1.1//EN" "http://www.w3.org/Graphics/SVG/1.1/DTD/svg11.dtd">
<svg version="1.1" id="Layer_1" xmlns="http://www.w3.org/2000/svg" xmlns:xlink="http://www.w3.org/1999/xlink" x="0px" y="0px"
	 width="130px" height="130px" viewBox="0 0 130 130" enable-background="new 0 0 130 130" xml:space="preserve">
<rect fill="none" width="130" height="130"/>
<g>
	<g>
		<path fill="#FDB813" d="M78.733,123.905v-17.309c0-2.986,1.617-5.646,4.136-7.09c1.237-7.705,7.979-15.413,17.06-15.413
			c1.546,0,3.069,0.235,4.539,0.681c0-20.598,0-42.758,0-43.257c0-0.648-2.257-0.891-2.877-1.542L66.983,4.228
			c-0.761-0.978-0.598-3.104-1.067-3.127L17.41,0.999c-2.939,0-5.349,2.396-5.349,5.325v113.382c0,2.926,2.409,5.322,5.349,5.322
			h61.438C78.798,124.659,78.733,124.29,78.733,123.905z"/>
	</g>
	<g>
		<path fill="#AF812F" d="M67.198,106.29H31.152c-0.593,0-1.073,0.543-1.073,1.203v2.689c0,0.664,0.48,1.207,1.073,1.207h36.046
			c0.589,0,1.078-0.543,1.078-1.207v-2.689C68.276,106.833,67.787,106.29,67.198,106.29z M31.182,45.598h23.257
			c0.602,0,1.106-0.543,1.106-1.205v-2.692c0-0.659-0.505-1.202-1.106-1.202H31.182c-0.609,0-1.103,0.543-1.103,1.202v2.692
			C30.079,45.055,30.572,45.598,31.182,45.598z M31.182,24.337h23.257c0.602,0,1.106-0.537,1.106-1.188v-2.647
			c0-0.653-0.505-1.189-1.106-1.189H31.182c-0.609,0-1.103,0.537-1.103,1.189v2.647C30.079,23.8,30.572,24.337,31.182,24.337z
			 M75.688,82.989H31.152c-0.593,0-1.073,0.537-1.073,1.189v2.645c0,0.652,0.48,1.189,1.073,1.189h44.536
			c0.589,0,1.078-0.537,1.078-1.189v-2.645C76.767,83.526,76.277,82.989,75.688,82.989z M86.302,61.745H31.152
			c-0.593,0-1.073,0.543-1.073,1.205v2.692c0,0.661,0.48,1.204,1.073,1.204h55.149c0.589,0,1.078-0.543,1.078-1.204v-2.692
			C87.38,62.288,86.891,61.745,86.302,61.745z"/>
	</g>
	<g>
		<path fill="#E89E0A" d="M65.924,1.085l0.025,28.943c0,6.538,7.087,11.304,13.566,11.304h24.871L65.924,1.085z"/>
	</g>
	<g>
		<g>
			<path fill="#A3998D" d="M109.182,91.212c-2.585-2.537-5.872-3.934-9.253-3.934c-8.001,0-13.926,7.656-14.077,14.404
				c-0.004,0.102,4.662,0.002,4.664-0.037c0.105-4.695,4.156-9.951,9.413-9.951c2.8,0,4.858,1.439,6.09,2.648
				c0.877,0.861,2.299,0.857,3.171-0.01C110.064,93.47,110.062,92.069,109.182,91.212z"/>
		</g>
		<path fill="#7C6A51" d="M113.416,101.573l-22.981-0.078c0,0-4.39,0.062-4.38,0.16c-2.344,0.477-4.137,2.494-4.137,4.941v17.309
			c0,2.801,2.325,5.096,5.171,5.096h25.683c2.84,0,5.167-2.295,5.167-5.096v-17.309C117.938,104.017,115.955,101.89,113.416,101.573
			z M101.153,115.743v4.615c0,0.666-0.549,1.205-1.225,1.205s-1.222-0.539-1.222-1.205v-4.615c-1.258-0.486-2.145-1.676-2.145-3.08
			c0-1.834,1.507-3.322,3.366-3.322c1.861,0,3.366,1.488,3.366,3.322C103.295,114.067,102.407,115.257,101.153,115.743z"/>
	</g>
</g>
</svg>
