<?xml version="1.0" encoding="utf-8"?>
<!-- Generator: Adobe Illustrator 16.0.0, SVG Export Plug-In . SVG Version: 6.00 Build 0)  -->
<!DOCTYPE svg PUBLIC "-//W3C//DTD SVG 1.1//EN" "http://www.w3.org/Graphics/SVG/1.1/DTD/svg11.dtd">
<svg version="1.1" id="Layer_1" xmlns="http://www.w3.org/2000/svg" xmlns:xlink="http://www.w3.org/1999/xlink" x="0px" y="0px"
	 width="130px" height="130px" viewBox="0 0 130 130" enable-background="new 0 0 130 130" xml:space="preserve">
<rect fill="none" width="130" height="130"/>
<g>
	<g>
		<path fill="#FDB813" d="M109.312,38.543L76.226,2.392c-0.609-0.645-0.19-1.263-0.678-1.283L73.067,1H22.825
			c-3.033,0-5.52,2.474-5.52,5.497v117.006c0,3.023,2.486,5.497,5.52,5.497h84.331c3.033,0,5.511-2.474,5.511-5.497
			c0,0,0-82.349,0-83.314C112.667,39.518,109.952,39.214,109.312,38.543z"/>
	</g>
	<g>
		<path fill="#E89E0A" d="M75.684,1.172l0.146,28.047c0,6.272,6.798,10.843,13.012,10.843h23.854L75.684,1.172z"/>
	</g>
</g>
</svg>
