<?xml version="1.0" encoding="utf-8"?>
<!-- Generator: Adobe Illustrator 16.0.0, SVG Export Plug-In . SVG Version: 6.00 Build 0)  -->
<!DOCTYPE svg PUBLIC "-//W3C//DTD SVG 1.1//EN" "http://www.w3.org/Graphics/SVG/1.1/DTD/svg11.dtd">
<svg version="1.1" id="Layer_1" xmlns="http://www.w3.org/2000/svg" xmlns:xlink="http://www.w3.org/1999/xlink" x="0px" y="0px"
	 width="130px" height="130px" viewBox="0 0 130 130" enable-background="new 0 0 130 130" xml:space="preserve">
<rect fill="none" width="130" height="130"/>
<g>
	<path fill="#FDB813" d="M75.484,109.115c0-13.152,10.72-23.852,23.896-23.852c1.517,0,2.993,0.156,4.433,0.428
		c0-20.834,0-43.358,0-43.864c0-0.654-2.274-0.898-2.899-1.554L66.043,4.253c-0.767-0.985-0.602-3.128-1.076-3.151L16.09,1
		c-2.961,0-5.389,2.414-5.389,5.366v114.246c0,2.953,2.427,5.369,5.389,5.369h66.409C78.167,121.66,75.484,115.695,75.484,109.115z"
		/>
	<g>
		<path fill="#E89E0A" d="M64.975,1.086L65,30.25c0,6.587,7.141,11.39,13.67,11.39h25.062L64.975,1.086z"/>
	</g>
	<g>
		<path fill="#7C6A51" d="M99.381,89.23c-10.99,0-19.925,8.92-19.925,19.885c0,10.967,8.935,19.885,19.925,19.885
			c10.98,0,19.918-8.918,19.918-19.885C119.299,98.15,110.361,89.23,99.381,89.23z"/>
	</g>
	<g>
		<path fill="#FFFFFF" d="M106.955,107.379h-6.21v-6.213c0-0.789-0.767-1.547-1.554-1.547s-1.552,0.758-1.552,1.547v6.213h-6.212
			c-0.787,0-1.554,0.762-1.554,1.549c0,0.785,0.767,1.555,1.554,1.555h6.212v6.211c0,0.787,0.765,1.543,1.552,1.543
			s1.554-0.756,1.554-1.543v-6.211h6.21c0.787,0,1.545-0.77,1.545-1.555C108.5,108.141,107.742,107.379,106.955,107.379z"/>
	</g>
</g>
</svg>
