<?xml version="1.0" encoding="utf-8"?>
<!-- Generator: Adobe Illustrator 16.0.0, SVG Export Plug-In . SVG Version: 6.00 Build 0)  -->
<!DOCTYPE svg PUBLIC "-//W3C//DTD SVG 1.1//EN" "http://www.w3.org/Graphics/SVG/1.1/DTD/svg11.dtd">
<svg version="1.1" id="Layer_1" xmlns="http://www.w3.org/2000/svg" xmlns:xlink="http://www.w3.org/1999/xlink" x="0px" y="0px"
	 width="130px" height="130px" viewBox="0 0 130 130" enable-background="new 0 0 130 130" xml:space="preserve">
<rect fill="none" width="130" height="130"/>
<g>
	<path fill="#FDB813" d="M75.476,109.108c0-13.15,10.718-23.851,23.895-23.851c1.517,0,2.993,0.157,4.432,0.429
		c0-20.833,0-43.355,0-43.861c0-0.654-2.274-0.898-2.898-1.554L66.033,4.253c-0.767-0.984-0.602-3.127-1.076-3.15L16.084,1
		c-2.962,0-5.389,2.415-5.389,5.366v114.24c0,2.951,2.427,5.365,5.389,5.365h66.404C78.157,121.652,75.476,115.688,75.476,109.108z"
		/>
	<g>
		<path fill="#E89E0A" d="M64.966,1.087l0.025,29.162c0,6.587,7.141,11.39,13.669,11.39h25.061L64.966,1.087z"/>
	</g>
	<g>
		<path fill="#7C6A51" d="M99.389,89.232c-10.989,0-19.924,8.92-19.924,19.885c0,10.964,8.935,19.883,19.924,19.883
			c10.979,0,19.916-8.919,19.916-19.883C119.305,98.152,110.368,89.232,99.389,89.232z"/>
	</g>
	<path fill="#FFFFFF" d="M95.753,116.132c-0.234-0.702-0.714-0.745-1.067-0.097l-1.205,2.195c-3.151-2.087-5.064-5.58-5.064-9.443
		c0-4.443,2.617-8.498,6.664-10.33c0.602-0.27,0.863-0.973,0.594-1.568c-0.199-0.438-0.629-0.697-1.082-0.697
		c-0.163,0-0.33,0.033-0.486,0.105c-4.898,2.215-8.06,7.118-8.06,12.49c0,4.739,2.381,9.01,6.301,11.517l-1.212,2.216
		c-0.358,0.647-0.062,1.03,0.658,0.848l4.562-1.156c0.719-0.182,1.115-0.904,0.881-1.605L95.753,116.132z M106.423,97.93
		l1.214-2.217c0.354-0.648,0.059-1.031-0.662-0.849l-4.562,1.157c-0.719,0.182-1.113,0.904-0.881,1.605l1.482,4.475
		c0.231,0.699,0.717,0.744,1.071,0.097l1.201-2.194c3.151,2.085,5.064,5.578,5.064,9.44c0,4.443-2.617,8.498-6.664,10.331
		c-0.598,0.27-0.863,0.973-0.594,1.569c0.196,0.437,0.629,0.696,1.082,0.696c0.163,0,0.328-0.033,0.489-0.106
		c4.897-2.215,8.06-7.118,8.06-12.49C112.725,104.707,110.339,100.436,106.423,97.93z"/>
</g>
</svg>
