<?xml version="1.0" encoding="utf-8"?>
<!-- Generator: Adobe Illustrator 16.0.0, SVG Export Plug-In . SVG Version: 6.00 Build 0)  -->
<!DOCTYPE svg PUBLIC "-//W3C//DTD SVG 1.1//EN" "http://www.w3.org/Graphics/SVG/1.1/DTD/svg11.dtd">
<svg version="1.1" id="Layer_1" xmlns="http://www.w3.org/2000/svg" xmlns:xlink="http://www.w3.org/1999/xlink" x="0px" y="0px"
	 width="130px" height="130px" viewBox="0 0 130 130" enable-background="new 0 0 130 130" xml:space="preserve">
<rect fill="none" width="130" height="130"/>
<g>
	<path fill="#FDB813" d="M78.732,123.875v-17.408c0-3.188,1.959-6.023,4.832-7.29c1.211-6.956,7.586-13.941,16.203-13.941
		c1.652,0,3.223,0.262,4.689,0.727c0-20.927,0-43.963,0-44.472c0-0.648-2.256-0.891-2.875-1.541L66.998,4.226
		c-0.76-0.977-0.598-3.102-1.066-3.125L17.459,1c-2.938,0-5.344,2.394-5.344,5.321v113.304c0,2.925,2.406,5.319,5.344,5.319h61.383
		C78.793,124.592,78.732,124.242,78.732,123.875z"/>
	<g>
		<path fill="#AF812F" d="M67.057,106.218H31.035c-0.593,0-1.073,0.544-1.073,1.202v2.688c0,0.663,0.48,1.206,1.073,1.206h36.021
			c0.588,0,1.076-0.543,1.076-1.206v-2.688C68.133,106.762,67.645,106.218,67.057,106.218z M31.064,45.567h23.24
			c0.601,0,1.106-0.542,1.106-1.203v-2.691c0-0.659-0.506-1.201-1.106-1.201h-23.24c-0.609,0-1.103,0.542-1.103,1.201v2.691
			C29.962,45.025,30.455,45.567,31.064,45.567z M31.064,24.321h23.24c0.601,0,1.106-0.536,1.106-1.187v-2.646
			c0-0.652-0.506-1.189-1.106-1.189h-23.24c-0.609,0-1.103,0.537-1.103,1.189v2.646C29.962,23.785,30.455,24.321,31.064,24.321z
			 M75.541,82.934H31.035c-0.593,0-1.073,0.536-1.073,1.188v2.644c0,0.652,0.48,1.188,1.073,1.188h44.506
			c0.588,0,1.076-0.536,1.076-1.188v-2.644C76.617,83.47,76.129,82.934,75.541,82.934z M86.146,61.704H31.035
			c-0.593,0-1.073,0.543-1.073,1.204v2.69c0,0.661,0.48,1.203,1.073,1.203h55.111c0.588,0,1.076-0.542,1.076-1.203v-2.69
			C87.223,62.247,86.734,61.704,86.146,61.704z"/>
	</g>
	<g>
		<path fill="#E89E0A" d="M65.939,1.086l0.025,28.922c0,6.533,7.082,11.296,13.557,11.296h24.854L65.939,1.086z"/>
	</g>
	<g>
		<g>
			<path fill="#A3998D" d="M99.768,88.286c-7.568,0-13.361,6.904-13.504,13.13c-0.002,0.093,4.502,0.035,4.502,0
				c0.1-4.332,4.025-9.055,9.002-9.055s8.902,4.722,9,9.055c0,0.035,4.502,0.092,4.5,0C113.129,95.188,107.34,88.286,99.768,88.286z
				"/>
		</g>
		<path fill="#7C6A51" d="M113.332,101.412l-23.117-0.077c0,0-4.416,0.062-4.408,0.16c-2.357,0.479-4.156,2.51-4.156,4.972v17.408
			c0,2.819,2.338,5.125,5.199,5.125h25.834c2.859,0,5.201-2.306,5.201-5.125v-17.408C117.885,103.87,115.889,101.73,113.332,101.412
			z M101,115.666v4.645c0,0.669-0.555,1.212-1.236,1.212c-0.68,0-1.227-0.543-1.227-1.212v-4.643
			c-1.266-0.488-2.154-1.688-2.154-3.103c0-1.844,1.512-3.337,3.381-3.337c1.871,0,3.389,1.493,3.389,3.337
			C103.152,113.98,102.26,115.18,101,115.666z"/>
	</g>
</g>
</svg>
