<?xml version="1.0" encoding="utf-8"?>
<!-- Generator: Adobe Illustrator 16.0.0, SVG Export Plug-In . SVG Version: 6.00 Build 0)  -->
<!DOCTYPE svg PUBLIC "-//W3C//DTD SVG 1.1//EN" "http://www.w3.org/Graphics/SVG/1.1/DTD/svg11.dtd">
<svg version="1.1" id="Layer_1" xmlns="http://www.w3.org/2000/svg" xmlns:xlink="http://www.w3.org/1999/xlink" x="0px" y="0px"
	 width="130px" height="130px" viewBox="0 0 130 130" enable-background="new 0 0 130 130" xml:space="preserve">
<rect fill="none" width="130" height="130"/>
<g>
	<g>
		<path fill="#FDB813" d="M75.476,109.107c0-13.149,10.718-23.849,23.895-23.849c1.517,0,2.993,0.156,4.432,0.428
			c0-20.833,0-43.355,0-43.861c0-0.654-2.274-0.898-2.898-1.554L66.033,4.253c-0.767-0.984-0.602-3.127-1.075-3.15L16.084,1
			c-2.962,0-5.389,2.415-5.389,5.366v114.241c0,2.949,2.427,5.363,5.389,5.363h66.404C78.157,121.65,75.476,115.686,75.476,109.107z
			"/>
		<g>
			<path fill="#E89E0A" d="M64.966,1.087l0.025,29.162c0,6.587,7.141,11.39,13.669,11.39h25.061L64.966,1.087z"/>
		</g>
		<path fill="#7C6A51" d="M99.389,89.232c-10.989,0-19.924,8.921-19.924,19.883c0,10.965,8.935,19.885,19.924,19.885
			c10.979,0,19.916-8.92,19.916-19.885C119.305,98.153,110.368,89.232,99.389,89.232z M96.354,122.211l-4.562,1.156
			c-0.721,0.185-1.017-0.2-0.658-0.848l1.212-2.216c-3.92-2.509-6.301-6.777-6.301-11.519c0-5.37,3.161-10.274,8.06-12.488
			c0.156-0.071,0.323-0.105,0.486-0.105c0.453,0,0.883,0.261,1.082,0.697c0.27,0.596,0.008,1.299-0.594,1.568
			c-4.047,1.832-6.664,5.888-6.664,10.328c0,3.864,1.913,7.358,5.064,9.444l1.205-2.194c0.354-0.65,0.833-0.604,1.067,0.098
			l1.482,4.474C97.47,121.309,97.073,122.031,96.354,122.211z M104.665,121.935c-0.161,0.073-0.326,0.106-0.489,0.106
			c-0.453,0-0.886-0.261-1.082-0.695c-0.27-0.598-0.004-1.301,0.594-1.57c4.047-1.834,6.664-5.888,6.664-10.33
			c0-3.863-1.913-7.356-5.064-9.441l-1.201,2.194c-0.354,0.647-0.84,0.603-1.071-0.097l-1.482-4.474
			c-0.232-0.702,0.162-1.425,0.881-1.606l4.562-1.157c0.721-0.183,1.017,0.201,0.662,0.848l-1.214,2.219
			c3.916,2.505,6.302,6.777,6.302,11.515C112.725,114.817,109.562,119.721,104.665,121.935z"/>
	</g>
	<g>
		<path fill="#AF812F" d="M66.021,107.089H29.701c-0.597,0-1.082,0.548-1.082,1.212v2.711c0,0.668,0.485,1.216,1.082,1.216h36.319
			c0.594,0,1.086-0.548,1.086-1.216v-2.711C67.106,107.637,66.614,107.089,66.021,107.089z M29.73,45.937h23.434
			c0.605,0,1.115-0.547,1.115-1.214V42.01c0-0.664-0.51-1.211-1.115-1.211H29.73c-0.614,0-1.111,0.547-1.111,1.211v2.713
			C28.619,45.39,29.116,45.937,29.73,45.937z M29.73,24.515h23.434c0.605,0,1.115-0.541,1.115-1.196v-2.667
			c0-0.658-0.51-1.199-1.115-1.199H29.73c-0.614,0-1.111,0.541-1.111,1.199v2.667C28.619,23.974,29.116,24.515,29.73,24.515z
			 M74.575,83.611H29.701c-0.597,0-1.082,0.541-1.082,1.199v2.665c0,0.657,0.485,1.198,1.082,1.198h44.874
			c0.593,0,1.086-0.541,1.086-1.198v-2.665C75.661,84.152,75.168,83.611,74.575,83.611z M85.269,62.207H29.701
			c-0.597,0-1.082,0.547-1.082,1.213v2.713c0,0.666,0.485,1.213,1.082,1.213h55.567c0.593,0,1.086-0.547,1.086-1.213V63.42
			C86.354,62.753,85.861,62.207,85.269,62.207z"/>
	</g>
</g>
</svg>
