<?xml version="1.0" encoding="utf-8"?>
<!-- Generator: Adobe Illustrator 16.0.0, SVG Export Plug-In . SVG Version: 6.00 Build 0)  -->
<!DOCTYPE svg PUBLIC "-//W3C//DTD SVG 1.1//EN" "http://www.w3.org/Graphics/SVG/1.1/DTD/svg11.dtd">
<svg version="1.1" id="Layer_1" xmlns="http://www.w3.org/2000/svg" xmlns:xlink="http://www.w3.org/1999/xlink" x="0px" y="0px"
	 width="130px" height="130px" viewBox="0 0 130 130" enable-background="new 0 0 130 130" xml:space="preserve">
<rect fill="none" width="130" height="130"/>
<g>
	<g>
		<path fill="#FDB813" d="M78.733,123.906V106.6c0-2.988,1.617-5.648,4.136-7.093c1.237-7.704,7.979-15.412,17.06-15.412
			c1.546,0,3.069,0.235,4.539,0.681c0-20.598,0-42.758,0-43.257c0-0.648-2.257-0.891-2.877-1.542L66.982,4.229
			c-0.761-0.978-0.597-3.104-1.067-3.127L17.409,1c-2.938,0-5.348,2.396-5.348,5.325v113.38c0,2.93,2.409,5.326,5.348,5.326h61.438
			C78.798,124.66,78.733,124.291,78.733,123.906z"/>
	</g>
	<g>
		<path fill="#E89E0A" d="M65.924,1.086l0.024,28.943c0,6.538,7.087,11.304,13.567,11.304h24.871L65.924,1.086z"/>
	</g>
	<g>
		<g>
			<path fill="#A3998D" d="M109.182,91.213c-2.585-2.537-5.873-3.935-9.253-3.935c-8.001,0-13.926,7.657-14.077,14.406
				c-0.004,0.101,4.662,0.001,4.664-0.037c0.105-4.697,4.156-9.952,9.413-9.952c2.8,0,4.858,1.439,6.09,2.648
				c0.877,0.861,2.299,0.857,3.171-0.01C110.064,93.471,110.062,92.07,109.182,91.213z"/>
		</g>
		<g>
			<path fill="#7C6A51" d="M113.416,101.574l-22.981-0.077c0,0-4.39,0.062-4.38,0.159c-2.344,0.477-4.137,2.495-4.137,4.943v17.307
				c0,2.801,2.325,5.094,5.172,5.094h25.682c2.84,0,5.167-2.293,5.167-5.094V106.6C117.938,104.018,115.955,101.89,113.416,101.574z
				"/>
		</g>
		<g>
			<path fill="#FFFFFF" d="M99.929,109.344c-1.859,0-3.366,1.486-3.366,3.318c0,1.405,0.887,2.598,2.145,3.082v4.615
				c0,0.666,0.546,1.205,1.222,1.205s1.225-0.539,1.225-1.205v-4.615c1.254-0.484,2.142-1.677,2.142-3.082
				C103.295,110.83,101.79,109.344,99.929,109.344z"/>
		</g>
	</g>
</g>
</svg>
