<?xml version="1.0" encoding="utf-8"?>
<!-- Generator: Adobe Illustrator 16.0.0, SVG Export Plug-In . SVG Version: 6.00 Build 0)  -->
<!DOCTYPE svg PUBLIC "-//W3C//DTD SVG 1.1//EN" "http://www.w3.org/Graphics/SVG/1.1/DTD/svg11.dtd">
<svg version="1.1" id="Layer_1" xmlns="http://www.w3.org/2000/svg" xmlns:xlink="http://www.w3.org/1999/xlink" x="0px" y="0px"
	 width="130px" height="130px" viewBox="0 0 130 130" enable-background="new 0 0 130 130" xml:space="preserve">
<rect fill="none" width="130" height="130"/>
<g>
	<path fill="#FDB813" d="M75.485,109.115c0-13.151,10.719-23.852,23.896-23.852c1.517,0,2.993,0.156,4.433,0.428
		c0-20.833,0-43.358,0-43.863c0-0.654-2.274-0.898-2.899-1.554L66.043,4.253c-0.767-0.985-0.602-3.128-1.076-3.151L16.09,1
		c-2.961,0-5.389,2.415-5.389,5.366v114.247c0,2.951,2.427,5.366,5.389,5.366h66.409C78.167,121.66,75.485,115.694,75.485,109.115z"
		/>
	<g>
		<path fill="#E89E0A" d="M64.975,1.087L65,30.251c0,6.587,7.141,11.39,13.67,11.39h25.062L64.975,1.087z"/>
	</g>
	<g>
		<path fill="#7C6A51" d="M99.381,89.23c-10.99,0-19.925,8.92-19.925,19.885S88.391,129,99.381,129
			c10.98,0,19.918-8.92,19.918-19.885S110.361,89.23,99.381,89.23z"/>
	</g>
	<g>
		<path fill="#FFFFFF" d="M109.653,107.018H87.771c-1.109,0-2.188,0.923-2.188,1.872c0,0.95,1.079,1.879,2.188,1.879h21.883
			c1.109,0,2.179-0.929,2.179-1.879C111.832,107.94,110.763,107.018,109.653,107.018z"/>
	</g>
</g>
</svg>
