<?xml version="1.0" encoding="utf-8"?>
<!-- Generator: Adobe Illustrator 16.0.0, SVG Export Plug-In . SVG Version: 6.00 Build 0)  -->
<!DOCTYPE svg PUBLIC "-//W3C//DTD SVG 1.1//EN" "http://www.w3.org/Graphics/SVG/1.1/DTD/svg11.dtd">
<svg version="1.1" id="Layer_1" xmlns="http://www.w3.org/2000/svg" xmlns:xlink="http://www.w3.org/1999/xlink" x="0px" y="0px"
	 width="130px" height="130px" viewBox="0 0 130 130" enable-background="new 0 0 130 130" xml:space="preserve">
<rect fill="none" width="130" height="130"/>
<g>
	<g>
		<path fill="#FDB813" d="M7.966,40.155l35.979-35.29L45.499,1h1.23h50.243c3.033,0,5.52,2.474,5.52,5.498v117.004
			c0,3.024-2.486,5.498-5.52,5.498H12.64c-3.033,0-5.51-2.474-5.51-5.498c0,0,0-80.38,0-81.346
			C7.13,41.485,7.327,40.826,7.966,40.155z"/>
	</g>
	<g>
		<path fill="#E89E0A" d="M45.567,1l-0.025,28.567c0,6.486-7.027,11.212-13.452,11.212H7.422L45.567,1z"/>
	</g>
	<g>
		<path fill="#AF812F" d="M60.011,46.296h4.244c0.623,0,1.129-0.555,1.129-1.23v-4.054c0-0.673-0.506-1.228-1.129-1.228h-4.244
			c-0.613,0-1.128,0.555-1.128,1.228v4.054C58.883,45.741,59.398,46.296,60.011,46.296z M60.011,24.575h17.255
			c0.622,0,1.129-0.549,1.129-1.213v-4.007c0-0.667-0.507-1.216-1.129-1.216H60.011c-0.613,0-1.128,0.549-1.128,1.216v4.007
			C58.883,24.026,59.398,24.575,60.011,24.575z M27.458,68.005h28.153c0.608,0,1.1-0.555,1.1-1.23v-4.053
			c0-0.675-0.491-1.23-1.1-1.23H27.458c-0.599,0-1.099,0.555-1.099,1.23v4.053C26.359,67.45,26.859,68.005,27.458,68.005z
			 M27.458,89.632h28.153c0.608,0,1.1-0.549,1.1-1.216v-4.005c0-0.667-0.491-1.216-1.1-1.216H27.458
			c-0.599,0-1.099,0.549-1.099,1.216v4.005C26.359,89.083,26.859,89.632,27.458,89.632z M83.802,107.001H27.458
			c-0.599,0-1.099,0.555-1.099,1.229v4.053c0,0.676,0.5,1.23,1.099,1.23h56.344c0.607,0,1.099-0.555,1.099-1.23v-4.053
			C84.9,107.556,84.409,107.001,83.802,107.001z"/>
	</g>
	<g>
		<g>
			<path fill="#ACA08A" d="M105.108,15.938c-6.491-3.773-12.863-5.743-16.955-5.447l-26.78,46.236l30.402,17.218l26.443-46.035
				C116.426,24.21,111.582,19.691,105.108,15.938z"/>
		</g>
		<g>
			<path fill="#CCC2AE" d="M106.357,16.659c-3.511-2.04-6.976-3.533-10.071-4.444L67.285,62.906l13.137,7.585L109.92,18.93
				C108.793,18.154,107.618,17.389,106.357,16.659z"/>
		</g>
		<g>
			<path fill="#F6EBD6" d="M88.153,10.491L61.517,56.479l2.747,1.067l7.113,5.498l28.689-49.688
				C95.433,11.294,91.172,10.271,88.153,10.491z"/>
		</g>
		<g>
			<path fill="#FFF6E4" d="M81.684,68.318c-2.882-6.16-9.826-6.107-9.826-6.107c-1.941-4.448-5.946-6.839-10.335-5.69
				c-0.063,0.529-0.433,32.124,0.12,32.321l30.192-15.006C87.086,67.087,81.684,68.318,81.684,68.318z"/>
		</g>
		<g>
			<path fill="#7C6A51" d="M61.642,88.842l7.257-3.606c-1.538-1.562-4.072-3.491-7.545-4.131
				C61.381,85.522,61.464,88.778,61.642,88.842z"/>
		</g>
		<g>
			<path fill="#7C6A51" d="M110.636,5.93C100.567,0.097,94.935-0.511,91.843,4.81c-0.169,0.302-1.537,2.286-3.073,4.743
				c4.094-0.259,10.435,1.604,16.89,5.351c6.49,3.771,11.349,8.396,13.125,12.111c1.58-2.697,2.696-4.542,2.887-4.872
				C124.987,16.428,121.461,12.213,110.636,5.93z"/>
		</g>
	</g>
</g>
</svg>
