<?xml version="1.0" encoding="utf-8"?>
<!-- Generator: Adobe Illustrator 16.0.0, SVG Export Plug-In . SVG Version: 6.00 Build 0)  -->
<!DOCTYPE svg PUBLIC "-//W3C//DTD SVG 1.1//EN" "http://www.w3.org/Graphics/SVG/1.1/DTD/svg11.dtd">
<svg version="1.1" id="Layer_1" xmlns="http://www.w3.org/2000/svg" xmlns:xlink="http://www.w3.org/1999/xlink" x="0px" y="0px"
	 width="130px" height="130px" viewBox="0 0 130 130" enable-background="new 0 0 130 130" xml:space="preserve">
<rect fill="none" width="130" height="130"/>
<g>
	<g>
		<path fill="#FDB813" d="M75.485,109.114c0-13.15,10.719-23.851,23.896-23.851c1.517,0,2.993,0.157,4.433,0.429
			c0-20.834,0-43.359,0-43.864c0-0.654-2.274-0.898-2.899-1.554L66.042,4.253c-0.767-0.985-0.602-3.128-1.075-3.151L16.09,1
			c-2.961,0-5.389,2.415-5.389,5.366v114.248c0,2.949,2.427,5.363,5.389,5.363h66.409C78.167,121.658,75.485,115.693,75.485,109.114
			z"/>
		<g>
			<path fill="#E89E0A" d="M64.975,1.087L65,30.251c0,6.587,7.141,11.39,13.67,11.39h25.062L64.975,1.087z"/>
		</g>
		<path fill="#7C6A51" d="M99.381,89.23c-10.99,0-19.926,8.92-19.926,19.884c0,10.966,8.936,19.886,19.926,19.886
			c10.98,0,19.918-8.92,19.918-19.886C119.299,98.15,110.361,89.23,99.381,89.23z M106.955,110.484h-6.21v6.21
			c0,0.787-0.767,1.543-1.554,1.543s-1.552-0.756-1.552-1.543v-6.21h-6.212c-0.787,0-1.554-0.769-1.554-1.556
			c0-0.788,0.767-1.55,1.554-1.55h6.212v-6.212c0-0.789,0.765-1.548,1.552-1.548s1.554,0.759,1.554,1.548v6.212h6.21
			c0.787,0,1.545,0.762,1.545,1.55C108.5,109.716,107.742,110.484,106.955,110.484z"/>
	</g>
	<g>
		<path fill="#AF812F" d="M65.576,107.096H29.255c-0.6,0-1.084,0.548-1.084,1.212v2.711c0,0.669,0.484,1.216,1.084,1.216h36.321
			c0.592,0,1.084-0.547,1.084-1.216v-2.711C66.66,107.644,66.168,107.096,65.576,107.096z M29.284,45.94h23.435
			c0.605,0,1.113-0.547,1.113-1.214v-2.713c0-0.665-0.508-1.211-1.113-1.211H29.284c-0.614,0-1.113,0.547-1.113,1.211v2.713
			C28.171,45.393,28.67,45.94,29.284,45.94z M29.284,24.517h23.435c0.605,0,1.113-0.541,1.113-1.197v-2.667
			c0-0.658-0.508-1.199-1.113-1.199H29.284c-0.614,0-1.113,0.541-1.113,1.199v2.667C28.171,23.976,28.67,24.517,29.284,24.517z
			 M74.132,83.617H29.255c-0.6,0-1.084,0.541-1.084,1.198v2.665c0,0.658,0.484,1.199,1.084,1.199h44.877
			c0.591,0,1.084-0.541,1.084-1.199v-2.665C75.216,84.158,74.723,83.617,74.132,83.617z M84.825,62.21h-55.57
			c-0.6,0-1.084,0.547-1.084,1.213v2.713c0,0.666,0.484,1.214,1.084,1.214h55.57c0.592,0,1.084-0.548,1.084-1.214v-2.713
			C85.909,62.757,85.417,62.21,84.825,62.21z"/>
	</g>
</g>
</svg>
