<?xml version="1.0" encoding="utf-8"?>
<!-- Generator: Adobe Illustrator 16.0.0, SVG Export Plug-In . SVG Version: 6.00 Build 0)  -->
<!DOCTYPE svg PUBLIC "-//W3C//DTD SVG 1.1//EN" "http://www.w3.org/Graphics/SVG/1.1/DTD/svg11.dtd">
<svg version="1.1" id="Layer_1" xmlns="http://www.w3.org/2000/svg" xmlns:xlink="http://www.w3.org/1999/xlink" x="0px" y="0px"
	 width="130px" height="130px" viewBox="0 0 130 130" enable-background="new 0 0 130 130" xml:space="preserve">
<rect fill="none" width="130" height="130"/>
<g>
	<path fill="#FDB813" d="M78.731,123.877V106.47c0-3.19,1.96-6.026,4.833-7.292c1.21-6.957,7.585-13.942,16.202-13.942
		c1.653,0,3.224,0.261,4.689,0.728c0-20.928,0-43.964,0-44.473c0-0.648-2.255-0.891-2.875-1.541L66.998,4.225
		c-0.761-0.976-0.597-3.101-1.067-3.124L17.458,1c-2.938,0-5.344,2.395-5.344,5.321v113.304c0,2.927,2.406,5.321,5.344,5.321h61.384
		C78.792,124.592,78.731,124.242,78.731,123.877z"/>
	<g>
		<path fill="#E89E0A" d="M65.939,1.085l0.024,28.923c0,6.533,7.082,11.297,13.558,11.297h24.854L65.939,1.085z"/>
	</g>
	<g>
		<g>
			<path fill="#A3998D" d="M99.767,88.287c-7.568,0-13.36,6.903-13.503,13.13c-0.002,0.092,4.501,0.035,4.501,0
				c0.1-4.333,4.026-9.056,9.002-9.056c4.978,0,8.903,4.723,9.001,9.056c0,0.035,4.503,0.092,4.501,0
				C113.13,95.188,107.34,88.287,99.767,88.287z"/>
		</g>
		<g>
			<path fill="#7C6A51" d="M113.332,101.413l-23.118-0.076c0,0-4.414,0.062-4.408,0.159c-2.357,0.479-4.155,2.509-4.155,4.974
				v17.407c0,2.817,2.337,5.123,5.199,5.123h25.835c2.858,0,5.201-2.306,5.201-5.123V106.47
				C117.886,103.87,115.889,101.73,113.332,101.413z"/>
		</g>
		<g>
			<path fill="#FFFFFF" d="M99.763,109.229c-1.868,0-3.381,1.495-3.381,3.339c0,1.413,0.889,2.612,2.154,3.102v4.642
				c0,0.669,0.547,1.212,1.227,1.212c0.682,0,1.236-0.543,1.236-1.212v-4.645c1.26-0.486,2.152-1.686,2.152-3.099
				C103.151,110.724,101.636,109.229,99.763,109.229z"/>
		</g>
	</g>
</g>
</svg>
