<?xml version="1.0" encoding="utf-8"?>
<!-- Generator: Adobe Illustrator 16.0.0, SVG Export Plug-In . SVG Version: 6.00 Build 0)  -->
<!DOCTYPE svg PUBLIC "-//W3C//DTD SVG 1.1//EN" "http://www.w3.org/Graphics/SVG/1.1/DTD/svg11.dtd">
<svg version="1.1" id="Layer_1" xmlns="http://www.w3.org/2000/svg" xmlns:xlink="http://www.w3.org/1999/xlink" x="0px" y="0px"
	 width="130px" height="130px" viewBox="0 0 130 130" enable-background="new 0 0 130 130" xml:space="preserve">
<rect fill="none" width="130" height="130"/>
<g>
	<path fill="#FDB813" d="M71.288,109.445c0-12.308,10.029-22.319,22.358-22.319c2.764,0,5.402,0.527,7.848,1.448V6.351
		c0-2.944-2.42-5.351-5.372-5.351H47.215h-1.197l-1.514,3.762L9.483,39.112c-0.623,0.654-0.814,1.295-0.814,1.948
		c0,0.94,0,79.183,0,79.183c0,2.943,2.412,5.352,5.364,5.352h64.221C73.975,121.525,71.288,115.799,71.288,109.445z"/>
	<g>
		<path fill="#E89E0A" d="M46.083,1l-0.024,27.807c0,6.314-6.84,10.914-13.094,10.914H8.954L46.083,1z"/>
	</g>
	<g>
		<path fill="#AF812F" d="M60.144,45.09h4.131c0.606,0,1.099-0.54,1.099-1.197v-3.946c0-0.655-0.492-1.195-1.099-1.195h-4.131
			c-0.598,0-1.099,0.54-1.099,1.195v3.946C59.045,44.55,59.546,45.09,60.144,45.09z M60.144,23.947H76.94
			c0.606,0,1.099-0.534,1.099-1.181v-3.9c0-0.649-0.492-1.183-1.099-1.183H60.144c-0.598,0-1.099,0.534-1.099,1.183v3.9
			C59.045,23.413,59.546,23.947,60.144,23.947z M28.456,66.222H55.86c0.592,0,1.069-0.54,1.069-1.198v-3.945
			c0-0.658-0.478-1.198-1.069-1.198H28.456c-0.583,0-1.069,0.54-1.069,1.198v3.945C27.387,65.682,27.873,66.222,28.456,66.222z
			 M28.456,87.272H55.86c0.592,0,1.069-0.534,1.069-1.184v-3.897c0-0.649-0.478-1.184-1.069-1.184H28.456
			c-0.583,0-1.069,0.534-1.069,1.184v3.897C27.387,86.738,27.873,87.272,28.456,87.272z M64.378,104.18H28.456
			c-0.583,0-1.069,0.54-1.069,1.195v3.947c0,0.655,0.486,1.195,1.069,1.195h35.922c0.592,0,1.069-0.54,1.069-1.195v-3.947
			C65.447,104.72,64.97,104.18,64.378,104.18z"/>
	</g>
	<g>
		<g>
			<path fill="#ACA08A" d="M104.042,15.54c-6.318-3.672-12.521-5.59-16.504-5.302L61.469,55.244l29.595,16.76l25.74-44.81
				C115.058,23.592,110.344,19.193,104.042,15.54z"/>
		</g>
		<g>
			<path fill="#CCC2AE" d="M105.258,16.242c-3.418-1.985-6.79-3.438-9.804-4.326L67.226,61.258l12.787,7.384l28.713-50.189
				C107.629,17.697,106.484,16.953,105.258,16.242z"/>
		</g>
		<g>
			<path fill="#F6EBD6" d="M87.538,10.238L61.609,55.002l2.674,1.039l6.925,5.352l27.926-48.366
				C94.623,11.02,90.476,10.024,87.538,10.238z"/>
		</g>
		<g>
			<path fill="#FFF6E4" d="M81.241,66.527c-2.806-5.997-9.565-5.946-9.565-5.946c-1.89-4.33-5.789-6.657-10.062-5.539
				c-0.062,0.515-0.42,31.269,0.118,31.461l29.39-14.606C86.499,65.328,81.241,66.527,81.241,66.527z"/>
		</g>
		<g>
			<path fill="#7C6A51" d="M61.731,86.504l7.064-3.511c-1.496-1.52-3.965-3.398-7.346-4.021
				C61.478,83.273,61.558,86.441,61.731,86.504z"/>
		</g>
		<g>
			<path fill="#7C6A51" d="M109.422,5.799c-9.8-5.678-15.283-6.27-18.293-1.091c-0.165,0.294-1.496,2.226-2.991,4.617
				c3.985-0.252,10.157,1.561,16.44,5.208c6.317,3.67,11.047,8.172,12.776,11.789c1.537-2.625,2.624-4.421,2.81-4.742
				C123.392,16.017,119.96,11.915,109.422,5.799z"/>
		</g>
	</g>
	<path fill="#7C6A51" d="M93.646,89.892c-10.808,0-19.596,8.771-19.596,19.554c0,10.783,8.788,19.555,19.596,19.555
		c10.799,0,19.587-8.771,19.587-19.555C113.233,98.663,104.445,89.892,93.646,89.892z M101.094,110.79h-6.107v6.109
		c0,0.773-0.753,1.518-1.525,1.518c-0.775,0-1.527-0.744-1.527-1.518v-6.109h-6.108c-0.775,0-1.529-0.755-1.529-1.53
		c0-0.772,0.754-1.521,1.529-1.521h6.108v-6.108c0-0.775,0.752-1.522,1.527-1.522c0.772,0,1.525,0.747,1.525,1.522v6.108h6.107
		c0.773,0,1.52,0.749,1.52,1.521C102.613,110.035,101.867,110.79,101.094,110.79z"/>
</g>
</svg>
