<?xml version="1.0" encoding="utf-8"?>
<!-- Generator: Adobe Illustrator 16.0.0, SVG Export Plug-In . SVG Version: 6.00 Build 0)  -->
<!DOCTYPE svg PUBLIC "-//W3C//DTD SVG 1.1//EN" "http://www.w3.org/Graphics/SVG/1.1/DTD/svg11.dtd">
<svg version="1.1" id="Layer_1" xmlns="http://www.w3.org/2000/svg" xmlns:xlink="http://www.w3.org/1999/xlink" x="0px" y="0px"
	 width="130px" height="130px" viewBox="0 0 130 130" enable-background="new 0 0 130 130" xml:space="preserve">
<rect fill="none" width="130" height="130"/>
<g>
	<g>
		<path fill="#FDB813" d="M111.844,40.154L75.866,4.864l-1.555-3.865h-1.23H22.838c-3.032,0-5.519,2.474-5.519,5.498v117.006
			c0,3.023,2.486,5.498,5.519,5.498h84.332c3.033,0,5.511-2.475,5.511-5.498c0,0,0-80.382,0-81.348
			C112.681,41.484,112.483,40.825,111.844,40.154z"/>
	</g>
	<g>
		<path fill="#E89E0A" d="M74.244,0.999l0.025,28.567c0,6.486,7.026,11.212,13.451,11.212h24.668L74.244,0.999z"/>
	</g>
	<g>
		<path fill="#AF812F" d="M92.088,108.571H35.743c-0.607,0-1.099,0.557-1.099,1.229v2.75c0,0.678,0.491,1.232,1.099,1.232h56.345
			c0.6,0,1.1-0.555,1.1-1.232v-2.75C93.188,109.128,92.688,108.571,92.088,108.571z M35.773,46.564h23.761
			c0.614,0,1.129-0.555,1.129-1.23v-2.751c0-0.674-0.515-1.229-1.129-1.229H35.773c-0.623,0-1.129,0.555-1.129,1.229v2.751
			C34.645,46.009,35.15,46.564,35.773,46.564z M35.773,24.843h23.761c0.614,0,1.129-0.549,1.129-1.214v-2.704
			c0-0.667-0.515-1.216-1.129-1.216H35.773c-0.623,0-1.129,0.549-1.129,1.216v2.704C34.645,24.294,35.15,24.843,35.773,24.843z
			 M92.088,84.767H35.743c-0.607,0-1.099,0.547-1.099,1.215v2.703c0,0.666,0.491,1.215,1.099,1.215h56.345
			c0.6,0,1.1-0.549,1.1-1.215v-2.703C93.188,85.313,92.688,84.767,92.088,84.767z M92.088,63.062H35.743
			c-0.607,0-1.099,0.555-1.099,1.23v2.75c0,0.676,0.491,1.23,1.099,1.23h56.345c0.6,0,1.1-0.555,1.1-1.23v-2.75
			C93.188,63.616,92.688,63.062,92.088,63.062z"/>
	</g>
</g>
</svg>
