<?xml version="1.0" encoding="utf-8"?>
<!-- Generator: Adobe Illustrator 16.0.0, SVG Export Plug-In . SVG Version: 6.00 Build 0)  -->
<!DOCTYPE svg PUBLIC "-//W3C//DTD SVG 1.1//EN" "http://www.w3.org/Graphics/SVG/1.1/DTD/svg11.dtd">
<svg version="1.1" id="Layer_1" xmlns="http://www.w3.org/2000/svg" xmlns:xlink="http://www.w3.org/1999/xlink" x="0px" y="0px"
	 width="130px" height="130px" viewBox="0 0 130 130" enable-background="new 0 0 130 130" xml:space="preserve">
<rect fill="none" width="130" height="130"/>
<g>
	<g>
		<path fill="#FDB813" d="M75.485,109.114c0-13.15,10.719-23.851,23.896-23.851c1.517,0,2.993,0.157,4.433,0.429
			c0-20.834,0-43.359,0-43.864c0-0.654-2.274-0.898-2.899-1.554L66.042,4.253c-0.767-0.985-0.602-3.128-1.075-3.151L16.09,1
			c-2.961,0-5.389,2.415-5.389,5.366v114.248c0,2.949,2.427,5.363,5.389,5.363h66.409C78.167,121.658,75.485,115.693,75.485,109.114
			z"/>
		<g>
			<path fill="#E89E0A" d="M64.975,1.087L65,30.251c0,6.587,7.141,11.39,13.67,11.39h25.062L64.975,1.087z"/>
		</g>
		<path fill="#7C6A51" d="M99.381,89.23c-10.99,0-19.926,8.92-19.926,19.884c0,10.966,8.936,19.886,19.926,19.886
			c10.98,0,19.918-8.92,19.918-19.886C119.299,98.15,110.361,89.23,99.381,89.23z M109.653,110.769H87.771
			c-1.109,0-2.188-0.928-2.188-1.88c0-0.948,1.079-1.871,2.188-1.871h21.883c1.109,0,2.179,0.923,2.179,1.871
			C111.832,109.841,110.763,110.769,109.653,110.769z"/>
	</g>
	<g>
		<path fill="#AF812F" d="M65.86,107.096H29.539c-0.598,0-1.082,0.548-1.082,1.212v2.711c0,0.669,0.484,1.216,1.082,1.216H65.86
			c0.594,0,1.086-0.547,1.086-1.216v-2.711C66.946,107.644,66.454,107.096,65.86,107.096z M29.568,45.94h23.435
			c0.605,0,1.115-0.547,1.115-1.214v-2.713c0-0.665-0.51-1.211-1.115-1.211H29.568c-0.614,0-1.111,0.547-1.111,1.211v2.713
			C28.457,45.393,28.954,45.94,29.568,45.94z M29.568,24.517h23.435c0.605,0,1.115-0.541,1.115-1.197v-2.667
			c0-0.658-0.51-1.199-1.115-1.199H29.568c-0.614,0-1.111,0.541-1.111,1.199v2.667C28.457,23.976,28.954,24.517,29.568,24.517z
			 M74.416,83.617H29.539c-0.598,0-1.082,0.541-1.082,1.198v2.665c0,0.658,0.484,1.199,1.082,1.199h44.877
			c0.593,0,1.086-0.541,1.086-1.199v-2.665C75.502,84.158,75.009,83.617,74.416,83.617z M85.109,62.21h-55.57
			c-0.598,0-1.082,0.547-1.082,1.213v2.713c0,0.666,0.484,1.214,1.082,1.214h55.57c0.594,0,1.086-0.548,1.086-1.214v-2.713
			C86.195,62.757,85.703,62.21,85.109,62.21z"/>
	</g>
</g>
</svg>
