<?xml version="1.0" encoding="utf-8"?>
<!-- Generator: Adobe Illustrator 16.0.0, SVG Export Plug-In . SVG Version: 6.00 Build 0)  -->
<!DOCTYPE svg PUBLIC "-//W3C//DTD SVG 1.1//EN" "http://www.w3.org/Graphics/SVG/1.1/DTD/svg11.dtd">
<svg version="1.1" id="Layer_1" xmlns="http://www.w3.org/2000/svg" xmlns:xlink="http://www.w3.org/1999/xlink" x="0px" y="0px"
	 width="130px" height="130px" viewBox="0 0 130 130" enable-background="new 0 0 130 130" xml:space="preserve">
<rect fill="none" width="130" height="130"/>
<g>
	<path fill="#FDB813" d="M75.485,109.108c0-13.15,10.718-23.851,23.895-23.851c1.516,0,2.992,0.157,4.432,0.429
		c0-20.833,0-43.355,0-43.861c0-0.654-2.274-0.898-2.898-1.554L66.043,4.253c-0.767-0.984-0.602-3.127-1.075-3.15L16.094,1
		c-2.961,0-5.388,2.415-5.388,5.366v114.24c0,2.951,2.427,5.365,5.388,5.365h66.404C78.167,121.652,75.485,115.688,75.485,109.108z"
		/>
	<g>
		<path fill="#E89E0A" d="M64.976,1.087l0.025,29.162c0,6.587,7.141,11.39,13.669,11.39h25.061L64.976,1.087z"/>
	</g>
	<g>
		<path fill="#7C6A51" d="M99.378,89.232c-10.99,0-19.925,8.92-19.925,19.885c0,10.964,8.935,19.883,19.925,19.883
			c10.979,0,19.916-8.919,19.916-19.883C119.294,98.152,110.356,89.232,99.378,89.232z"/>
	</g>
	<g>
		<path fill="#FFFFFF" d="M108.199,109.49c-0.631-0.654-1.66-0.654-2.295-0.004l-4.925,5.033l0.006-14.801
			c0-0.918-0.743-1.666-1.642-1.666c-0.896,0-1.604,0.748-1.604,1.666l-0.011,14.759l-4.885-4.999
			c-0.315-0.326-0.731-0.489-1.15-0.489c-0.414,0-0.825,0.163-1.145,0.489c-0.636,0.648-0.636,1.703,0,2.352l7.671,7.861
			c0.633,0.648,1.658,0.65,2.289,0.002l7.686-7.848C108.83,111.193,108.83,110.139,108.199,109.49z"/>
	</g>
</g>
</svg>
