<?xml version="1.0" encoding="utf-8"?>
<!-- Generator: Adobe Illustrator 16.0.0, SVG Export Plug-In . SVG Version: 6.00 Build 0)  -->
<!DOCTYPE svg PUBLIC "-//W3C//DTD SVG 1.1//EN" "http://www.w3.org/Graphics/SVG/1.1/DTD/svg11.dtd">
<svg version="1.1" id="Layer_1" xmlns="http://www.w3.org/2000/svg" xmlns:xlink="http://www.w3.org/1999/xlink" x="0px" y="0px"
	 width="130px" height="130px" viewBox="0 0 130 130" enable-background="new 0 0 130 130" xml:space="preserve">
<rect fill="none" width="130" height="130"/>
<g>
	<g>
		<path fill="#FDB813" d="M75.485,109.107c0-13.149,10.718-23.849,23.895-23.849c1.516,0,2.992,0.156,4.432,0.428
			c0-20.833,0-43.355,0-43.861c0-0.654-2.274-0.898-2.899-1.554L66.043,4.253c-0.767-0.984-0.602-3.127-1.076-3.15L16.094,1
			c-2.962,0-5.388,2.415-5.388,5.366v114.241c0,2.949,2.426,5.363,5.388,5.363h66.404C78.167,121.65,75.485,115.686,75.485,109.107z
			"/>
		<g>
			<path fill="#E89E0A" d="M64.976,1.087l0.025,29.162c0,6.587,7.141,11.39,13.669,11.39h25.061L64.976,1.087z"/>
		</g>
		<path fill="#7C6A51" d="M99.378,89.232c-10.99,0-19.925,8.921-19.925,19.883c0,10.965,8.935,19.885,19.925,19.885
			c10.979,0,19.916-8.92,19.916-19.885C119.294,98.153,110.356,89.232,99.378,89.232z M108.195,111.845l-7.686,7.849
			c-0.631,0.65-1.656,0.646-2.289-0.002l-7.671-7.861c-0.636-0.649-0.636-1.704,0-2.352c0.319-0.325,0.73-0.488,1.145-0.488
			c0.419,0,0.835,0.163,1.15,0.488l4.885,5l0.011-14.76c0-0.919,0.708-1.666,1.604-1.666c0.898,0,1.642,0.747,1.642,1.666
			l-0.006,14.802l4.925-5.033c0.635-0.651,1.664-0.651,2.295,0.004C108.83,110.139,108.83,111.193,108.195,111.845z"/>
	</g>
	<g>
		<path fill="#AF812F" d="M65.757,107.089H29.438c-0.598,0-1.082,0.548-1.082,1.212v2.711c0,0.668,0.484,1.216,1.082,1.216h36.319
			c0.593,0,1.086-0.548,1.086-1.216v-2.711C66.843,107.637,66.35,107.089,65.757,107.089z M29.467,45.937h23.433
			c0.605,0,1.115-0.547,1.115-1.214V42.01c0-0.664-0.51-1.211-1.115-1.211H29.467c-0.614,0-1.111,0.547-1.111,1.211v2.713
			C28.355,45.39,28.853,45.937,29.467,45.937z M29.467,24.515h23.433c0.605,0,1.115-0.541,1.115-1.196v-2.667
			c0-0.658-0.51-1.199-1.115-1.199H29.467c-0.614,0-1.111,0.541-1.111,1.199v2.667C28.355,23.974,28.853,24.515,29.467,24.515z
			 M74.312,83.611H29.438c-0.598,0-1.082,0.541-1.082,1.199v2.665c0,0.657,0.484,1.198,1.082,1.198h44.874
			c0.593,0,1.086-0.541,1.086-1.198v-2.665C75.397,84.152,74.904,83.611,74.312,83.611z M85.004,62.207H29.438
			c-0.598,0-1.082,0.547-1.082,1.213v2.713c0,0.666,0.484,1.213,1.082,1.213h55.566c0.594,0,1.087-0.547,1.087-1.213V63.42
			C86.091,62.753,85.598,62.207,85.004,62.207z"/>
	</g>
</g>
</svg>
