<?xml version="1.0" encoding="utf-8"?>
<!-- Generator: Adobe Illustrator 16.0.0, SVG Export Plug-In . SVG Version: 6.00 Build 0)  -->
<!DOCTYPE svg PUBLIC "-//W3C//DTD SVG 1.1//EN" "http://www.w3.org/Graphics/SVG/1.1/DTD/svg11.dtd">
<svg version="1.1" id="Layer_1" xmlns="http://www.w3.org/2000/svg" xmlns:xlink="http://www.w3.org/1999/xlink" x="0px" y="0px"
	 width="130px" height="130px" viewBox="0 0 130 130" enable-background="new 0 0 130 130" xml:space="preserve">
<rect fill="none" width="130" height="130"/>
<g>
	<path fill="#FDB813" d="M84.146,112.967c-1.372-2.576-2.089-5.43-2.089-8.379c0-9.914,8.065-17.979,17.98-17.979
		c1.265,0,2.496,0.134,3.688,0.384c0-21.12,0-46.58,0-47.105c0-0.623-2.166-0.855-2.761-1.48L67.75,4.099
		c-0.73-0.938-0.574-2.979-1.025-3.001L20.171,1c-2.821,0-5.132,2.3-5.132,5.111v108.817c0,2.811,2.312,5.11,5.132,5.11h56.904
		L84.146,112.967z"/>
	<g>
		<path fill="#E89E0A" d="M66.732,1.083l0.024,27.778c0,6.274,6.802,10.849,13.021,10.849h23.87L66.732,1.083z"/>
	</g>
	<path fill="#7C6A51" d="M100.037,88.896c-8.652,0-15.692,7.039-15.692,15.691c0,3.129,0.926,6.134,2.683,8.732l-11.007,11.009
		c-0.603,0.601-0.935,1.4-0.935,2.252s0.332,1.651,0.931,2.247c0.598,0.605,1.398,0.939,2.253,0.939s1.655-0.333,2.253-0.936
		l11.052-11.049c2.531,1.635,5.443,2.496,8.463,2.496c8.652,0,15.691-7.039,15.691-15.691S108.689,88.896,100.037,88.896z
		 M100.037,113.906c-5.14,0-9.321-4.181-9.321-9.318c0-5.14,4.182-9.32,9.321-9.32c5.138,0,9.318,4.181,9.318,9.32
		C109.355,109.726,105.175,113.906,100.037,113.906z"/>
</g>
</svg>
