<?xml version="1.0" encoding="utf-8"?>
<!-- Generator: Adobe Illustrator 16.0.0, SVG Export Plug-In . SVG Version: 6.00 Build 0)  -->
<!DOCTYPE svg PUBLIC "-//W3C//DTD SVG 1.1//EN" "http://www.w3.org/Graphics/SVG/1.1/DTD/svg11.dtd">
<svg version="1.1" id="Layer_1" xmlns="http://www.w3.org/2000/svg" xmlns:xlink="http://www.w3.org/1999/xlink" x="0px" y="0px"
	 width="130px" height="130px" viewBox="0 0 130 130" enable-background="new 0 0 130 130" xml:space="preserve">
<rect fill="none" width="130" height="130"/>
<g>
	<path fill="#FDB813" d="M84.146,112.966c-1.372-2.576-2.089-5.43-2.089-8.379c0-9.914,8.065-17.979,17.98-17.979
		c1.265,0,2.496,0.133,3.688,0.383c0-21.12,0-46.58,0-47.105c0-0.623-2.166-0.855-2.761-1.48L67.749,4.098
		c-0.729-0.938-0.572-2.979-1.024-3.001L20.172,0.999c-2.821,0-5.133,2.3-5.133,5.111v108.817c0,2.809,2.312,5.109,5.133,5.109
		h56.903L84.146,112.966z"/>
	<g>
		<path fill="#AF812F" d="M67.98,102.052H33.385c-0.568,0-1.03,0.52-1.03,1.152v2.584c0,0.637,0.462,1.158,1.03,1.158H67.98
			c0.564,0,1.034-0.521,1.034-1.158v-2.584C69.015,102.571,68.545,102.052,67.98,102.052z M33.413,43.802h22.32
			c0.577,0,1.062-0.521,1.062-1.156v-2.584c0-0.633-0.485-1.154-1.062-1.154h-22.32c-0.585,0-1.059,0.521-1.059,1.154v2.584
			C32.354,43.281,32.828,43.802,33.413,43.802z M33.413,23.397h22.32c0.577,0,1.062-0.515,1.062-1.14v-2.541
			c0-0.626-0.485-1.142-1.062-1.142h-22.32c-0.585,0-1.059,0.515-1.059,1.142v2.541C32.354,22.882,32.828,23.397,33.413,23.397z
			 M76.129,79.688H33.385c-0.568,0-1.03,0.516-1.03,1.143v2.537c0,0.627,0.462,1.143,1.03,1.143h42.744
			c0.564,0,1.034-0.516,1.034-1.143v-2.537C77.163,80.204,76.693,79.688,76.129,79.688z M86.314,59.299h-52.93
			c-0.568,0-1.03,0.521-1.03,1.156v2.584c0,0.635,0.462,1.156,1.03,1.156h52.93c0.564,0,1.034-0.521,1.034-1.156v-2.584
			C87.349,59.821,86.879,59.299,86.314,59.299z"/>
	</g>
	<g>
		<path fill="#E89E0A" d="M66.732,1.082l0.024,27.778c0,6.274,6.802,10.849,13.021,10.849h23.87L66.732,1.082z"/>
	</g>
	<g>
		<path fill="#7C6A51" stroke="#7C6A51" stroke-width="1.5351" stroke-miterlimit="10" d="M76.562,124.872l11.465-11.467
			c-1.824-2.473-2.915-5.516-2.915-8.818c0-8.229,6.696-14.924,14.925-14.924c8.228,0,14.924,6.695,14.924,14.924
			s-6.696,14.924-14.924,14.924c-3.186,0-6.136-1.01-8.559-2.717l-11.499,11.494c-0.471,0.473-1.092,0.713-1.71,0.713
			c-0.617,0-1.238-0.24-1.707-0.713C75.617,127.345,75.617,125.813,76.562,124.872z M100.037,114.673
			c5.562,0,10.086-4.523,10.086-10.086s-4.524-10.088-10.086-10.088c-5.561,0-10.089,4.525-10.089,10.088
			S94.477,114.673,100.037,114.673z"/>
	</g>
</g>
</svg>
