<?xml version="1.0" encoding="utf-8"?>
<!-- Generator: Adobe Illustrator 16.0.0, SVG Export Plug-In . SVG Version: 6.00 Build 0)  -->
<!DOCTYPE svg PUBLIC "-//W3C//DTD SVG 1.1//EN" "http://www.w3.org/Graphics/SVG/1.1/DTD/svg11.dtd">
<svg version="1.1" id="Layer_1" xmlns="http://www.w3.org/2000/svg" xmlns:xlink="http://www.w3.org/1999/xlink" x="0px" y="0px"
	 width="130px" height="130px" viewBox="0 0 130 130" enable-background="new 0 0 130 130" xml:space="preserve">
<rect fill="none" width="130" height="130"/>
<g>
	<g>
		<path fill="#FDB813" d="M112.062,34.878L85.788,4.715c-0.437-1.724-0.688-3.606-1.097-3.627V1H42.557
			c-2.545,0-4.627,2.074-4.627,4.609v6.125h21.93c1.302,0,2.464,0.595,3.23,1.528l33.316,34.861c1.293,1.033,1.947,2.272,1.947,3.69
			v35.258c0.223-0.006,0.44-0.033,0.665-0.033c7.892,0,14.842,4.072,18.879,10.215c0-16.849,0-60.856,0-61.512
			C117.897,35.179,112.596,32.251,112.062,34.878z"/>
		<g>
			<path fill="#E89E0A" d="M84.714,1.041l0.022,24.946c0,5.637,6.107,9.744,11.692,9.744h21.44L84.714,1.041z"/>
		</g>
	</g>
	<path fill="#F15A22" d="M99.019,90.172c-10.73,0-19.454,8.709-19.454,19.412c0,10.707,8.724,19.416,19.454,19.416
		c10.72,0,19.446-8.709,19.446-19.416C118.465,98.881,109.738,90.172,99.019,90.172z M105.265,105.115l-4.286,4.285l4.286,4.287
		c0.545,0.545,0.538,1.594-0.006,2.139c-0.545,0.545-1.593,0.549-2.138,0.006l-4.288-4.285l-4.286,4.285
		c-0.545,0.545-1.605,0.543-2.147,0c-0.545-0.541-0.54-1.598,0.002-2.143l4.288-4.289l-4.288-4.287
		c-0.542-0.545-0.54-1.596,0.004-2.141c0.543-0.543,1.597-0.547,2.142-0.004l4.288,4.289l4.286-4.287
		c0.545-0.543,1.593-0.541,2.138,0.002C105.801,103.516,105.81,104.57,105.265,105.115z"/>
	<g>
		<path fill="#FDB813" d="M76.433,109.584c0-10.771,7.612-19.789,17.745-22.01c0-17.564,0-35.338,0-35.76
			c0-0.582-5.479-3.606-6.032-0.893L60.993,19.75c-0.45-1.783-0.711-3.728-1.134-3.748v-0.092H16.318
			c-2.631,0-4.783,2.143-4.783,4.763v101.402c0,2.619,2.152,4.764,4.783,4.764h68.189C79.577,122.701,76.433,116.506,76.433,109.584
			z"/>
		<g>
			<g>
				<path fill="#AF812F" d="M69.503,108.957H26.847c-0.53,0-0.954,0.48-0.954,1.066v2.387c0,0.588,0.424,1.068,0.954,1.068h42.656
					c0.521,0,0.954-0.48,0.954-1.068v-2.387C70.457,109.438,70.023,108.957,69.503,108.957z M26.871,55.119h20.631
					c0.532,0,0.981-0.482,0.981-1.067v-2.39c0-0.584-0.449-1.065-0.981-1.065H26.871c-0.542,0-0.979,0.481-0.979,1.065v2.39
					C25.893,54.637,26.329,55.119,26.871,55.119z M26.871,36.26h20.631c0.532,0,0.981-0.476,0.981-1.053v-2.349
					c0-0.578-0.449-1.056-0.981-1.056H26.871c-0.542,0-0.979,0.478-0.979,1.056v2.349C25.893,35.784,26.329,36.26,26.871,36.26z
					 M75.768,88.287H26.847c-0.53,0-0.954,0.477-0.954,1.057v2.346c0,0.578,0.424,1.055,0.954,1.055h48.921
					c0.52,0,0.954-0.477,0.954-1.055v-2.346C76.722,88.764,76.287,88.287,75.768,88.287z M75.768,69.443H26.847
					c-0.53,0-0.954,0.481-0.954,1.066v2.389c0,0.587,0.424,1.069,0.954,1.069h48.921c0.52,0,0.954-0.482,0.954-1.069V70.51
					C76.722,69.925,76.287,69.443,75.768,69.443z"/>
			</g>
		</g>
		<g>
			<path fill="#E89E0A" d="M59.884,15.953l0.022,25.779c0,5.826,6.312,10.071,12.083,10.071h22.157L59.884,15.953z"/>
		</g>
	</g>
</g>
</svg>
