<?xml version="1.0" encoding="utf-8"?>
<!-- Generator: Adobe Illustrator 16.0.0, SVG Export Plug-In . SVG Version: 6.00 Build 0)  -->
<!DOCTYPE svg PUBLIC "-//W3C//DTD SVG 1.1//EN" "http://www.w3.org/Graphics/SVG/1.1/DTD/svg11.dtd">
<svg version="1.1" id="Layer_1" xmlns="http://www.w3.org/2000/svg" xmlns:xlink="http://www.w3.org/1999/xlink" x="0px" y="0px"
	 width="130px" height="130px" viewBox="0 0 130 130" enable-background="new 0 0 130 130" xml:space="preserve">
<rect fill="none" width="130" height="130"/>
<g>
	<path fill="#2F6970" d="M64.998,1.197C29.647,1.197,1,29.761,1,65.002c0,35.236,28.647,63.801,63.998,63.801
		c35.348,0,64.002-28.564,64.002-63.801C129,29.761,100.346,1.197,64.998,1.197z"/>
	<path fill="#42443D" d="M47.724,59.135c1.203-7.655-4.033-14.846-11.712-16.058c-7.67-1.217-14.875,4.021-16.089,11.671
		c-1.237,7.661,4.019,14.834,11.688,16.058C39.296,72.011,46.504,66.79,47.724,59.135z M64.998,48.281
		c7.772,0,14.066-6.285,14.066-14.035c0-7.749-6.294-14.028-14.066-14.028c-7.784,0-14.087,6.279-14.087,14.028
		C50.911,41.996,57.214,48.281,64.998,48.281z M54.215,79.271c-6.503-4.221-15.225-2.375-19.449,4.128
		c-4.254,6.485-2.387,15.187,4.118,19.402c6.532,4.228,15.243,2.363,19.482-4.115C62.597,92.178,60.747,83.499,54.215,79.271z
		 M72.477,64.761c0-4.115-3.349-7.449-7.479-7.449c-4.14,0-7.467,3.334-7.467,7.449c0,4.116,3.327,7.444,7.467,7.444
		C69.128,72.205,72.477,68.877,72.477,64.761z M92.855,80.606c-5.798-5.186-14.682-4.716-19.873,1.035
		c-5.209,5.762-4.739,14.64,1.038,19.831c5.776,5.175,14.666,4.722,19.875-1.052C99.105,94.665,98.632,85.792,92.855,80.606z
		 M109.038,51.238c-3.166-7.085-11.497-10.271-18.582-7.108c-7.111,3.14-10.289,11.447-7.152,18.521
		c3.172,7.073,11.498,10.266,18.588,7.108C108.994,66.602,112.196,58.317,109.038,51.238z"/>
</g>
</svg>
