<?xml version="1.0" encoding="utf-8"?>
<!-- Generator: Adobe Illustrator 16.0.0, SVG Export Plug-In . SVG Version: 6.00 Build 0)  -->
<!DOCTYPE svg PUBLIC "-//W3C//DTD SVG 1.1//EN" "http://www.w3.org/Graphics/SVG/1.1/DTD/svg11.dtd">
<svg version="1.1" id="Layer_1" xmlns="http://www.w3.org/2000/svg" xmlns:xlink="http://www.w3.org/1999/xlink" x="0px" y="0px"
	 width="130px" height="130px" viewBox="0 0 130 130" enable-background="new 0 0 130 130" xml:space="preserve">
<rect fill="none" width="130" height="130"/>
<g>
	<path fill="#4BA7C4" d="M125.452,21.662H38.566c-1.945,0-3.553,1.598-3.553,3.538v13.641H8.737l-0.049-0.083l-0.157,0.083H3.026
		c-0.458,0-0.897,0.098-1.316,0.26l4.116,6.619l11.968,20.182L6.417,85.108l-0.243-0.044l-4.966,7.869c0.549,0.328-0.674,0,0,0
		l33.805,0.568v11.289c0,1.95,1.607,3.547,3.553,3.547h86.886c1.95,0,3.548-1.597,3.548-3.547V25.2
		C129,23.26,127.402,21.662,125.452,21.662z"/>
	<path fill="#FFF6E4" d="M65.263,92.395h-2.661c-1.955,0-3.562,1.593-3.562,3.543v3.42c0,1.945,1.606,3.547,3.562,3.547h2.661
		c1.947,0,3.545-1.602,3.545-3.547v-3.42C68.808,93.987,67.21,92.395,65.263,92.395z M65.924,27.758H63.03
		c-2.121,0-3.878,1.739-3.878,3.86v3.744c0,2.121,1.757,3.865,3.878,3.865h2.894c2.141,0,3.888-1.744,3.888-3.865v-3.744
		C69.812,29.497,68.064,27.758,65.924,27.758z M48.138,92.395h-2.66c-1.955,0-3.56,1.593-3.56,3.543v3.42
		c0,1.945,1.604,3.547,3.56,3.547h2.66c1.955,0,3.564-1.602,3.564-3.547v-3.42C51.702,93.987,50.093,92.395,48.138,92.395z
		 M24.668,65.73l0.147,0.093l-0.054,0.078l0.054,0.074l-0.152,0.088L13.247,85.334h21.767v-38.14H13.686L24.668,65.73z
		 M49.304,27.758H46.41c-2.134,0-3.893,1.739-3.893,3.86v3.744c0,2.121,1.759,3.865,3.893,3.865h2.894
		c2.142,0,3.893-1.744,3.893-3.865v-3.744C53.196,29.497,51.445,27.758,49.304,27.758z M82.377,92.395h-2.648
		c-1.962,0-3.557,1.593-3.557,3.543v3.42c0,1.945,1.595,3.547,3.557,3.547h2.648c1.952,0,3.557-1.602,3.557-3.547v-3.42
		C85.934,93.987,84.329,92.395,82.377,92.395z M115.884,92.395h-2.663c-1.948,0-3.553,1.593-3.553,3.543v3.42
		c0,1.945,1.604,3.547,3.553,3.547h2.663c1.962,0,3.56-1.602,3.56-3.547v-3.42C119.443,93.987,117.846,92.395,115.884,92.395z
		 M115.57,27.758h-2.918c-2.124,0-3.871,1.739-3.871,3.86v3.744c0,2.121,1.747,3.865,3.871,3.865h2.918
		c2.121,0,3.873-1.744,3.873-3.865v-3.744C119.443,29.497,117.691,27.758,115.57,27.758z M99.188,27.758h-2.915
		c-2.124,0-3.876,1.739-3.876,3.86v3.744c0,2.121,1.752,3.865,3.876,3.865h2.915c2.127,0,3.871-1.744,3.871-3.865v-3.744
		C103.059,29.497,101.314,27.758,99.188,27.758z M82.544,27.758h-2.887c-2.141,0-3.88,1.739-3.88,3.86v3.744
		c0,2.121,1.739,3.865,3.88,3.865h2.887c2.144,0,3.895-1.744,3.895-3.865v-3.744C86.438,29.497,84.688,27.758,82.544,27.758z
		 M99.501,92.395h-2.665c-1.945,0-3.553,1.593-3.553,3.543v3.42c0,1.945,1.607,3.547,3.553,3.547h2.665
		c1.963,0,3.558-1.602,3.558-3.547v-3.42C103.059,93.987,101.464,92.395,99.501,92.395z"/>
</g>
</svg>
