<?xml version="1.0" encoding="utf-8"?>
<!-- Generator: Adobe Illustrator 16.0.0, SVG Export Plug-In . SVG Version: 6.00 Build 0)  -->
<!DOCTYPE svg PUBLIC "-//W3C//DTD SVG 1.1//EN" "http://www.w3.org/Graphics/SVG/1.1/DTD/svg11.dtd">
<svg version="1.1" id="Layer_1" xmlns="http://www.w3.org/2000/svg" xmlns:xlink="http://www.w3.org/1999/xlink" x="0px" y="0px"
	 width="130px" height="130px" viewBox="0 0 130 130" enable-background="new 0 0 130 130" xml:space="preserve">
<rect fill="none" width="130" height="130"/>
<g>
	<g>
		<path fill="#FDB813" d="M47.52,25.599c1.974,1.563,2.666,5.326,2.319,7.439c-0.923,4.863-6.127,9.176-9.357,13.211
			c-3.349,4.317-5.888,8.728-5.426,13.775c0.346,4.408,2.465,8.05,6.117,11.568c5.534,5.318,14.196,7.801,22.163,8.626
			c-6.92-1.424-14.054-4.166-18.209-8.204c-6.155-6.122-6.087-13.972-2.279-21.43c2.577-5.047,9.018-9.704,11.889-15.516l0,0
			c0.128-3.744-2.829-8.182-7.331-9.561L47.52,25.599z"/>
		<path fill="#FDB813" d="M78.399,43.974c8.33,6.78,14.002,17.595,5.769,26.989c-3.59,4.095-8.479,7.621-14.909,9.256
			c7.117-0.915,14.158-3.488,19.236-7.711c5.247-4.358,9.234-12.205,4.158-19.641c-1.629-2.388-2.772-3.676-5.312-6.43
			c-1.601-1.732-3.925-4.128-4.616-6.426c-0.572-1.887-0.576-4.132,0.691-5.782C82.265,35.057,76.915,38.561,78.399,43.974
			L78.399,43.974z"/>
		<path fill="#F15A22" d="M69.259,80.219c6.771-1.835,17.07-6.366,19.081-16.706c2.005-10.28-6.817-16.533-11.387-23.031
			c-3.685-5.24,0.615-10.137-0.308-14.665c-0.617-2.938-2.576-5.631-5.543-6.856c1.927,2.875,1.541,7.466-1.844,9.791
			c2.152-2.693,1.55-5.172,0.164-7.372c-2.464-4.042-9.09-6.886-10.781-11.354c-1.219-3.217,0.2-6.547,4.46-9.025
			c-5.643,2.109-9.694,6.946-9.54,11.474c0.154,6.121,5.803,11.809,3.65,18.175c-1.231,3.548-10.159,12.729-14.079,18.635
			c-3.982,6.004-4.615,11.538-2.076,17.165c3.232,7.161,11.657,11.568,22.277,13.769H69.259z"/>
		<path fill="#FDB813" d="M62.643,57.271c-3.695-0.365-6.812-6.611-4.849-8.815c-2.537,1.443-4.271,4.223-3.808,6.886
			c0.461,2.573,3.04,4.354,4.848,6.426c1.85,2.128,1.29,5.002-1.503,5.691c-2.458,0.606-4.136-0.806-4.645-2.523
			c-0.505-1.714,0.143-3.729,1.53-4.822c-3.236,2.208-4.304,5.492-3.896,9.089c0.697,6.129,8.943,11.015,15.091,10.834
			c9.163,0.686,19.663-9.734,14.661-19.136c-1.884-3.53-5.888-8.314-8.661-11.342c-3.921-4.407-6.693-9.365-2.191-14.228
			c-6.118,2.886-10.039,9.587-10.154,13.769C58.982,52.035,59.871,54.698,62.643,57.271z"/>
	</g>
	<g>
		<path fill="#CE7F4E" d="M95.857,90.871l-49.033,36.34c-4.036,2.991-9.736,2.144-12.727-1.891
			c-2.995-4.038-2.147-9.737,1.891-12.732c0.354-0.26,0.77-0.516,1.147-0.723l53.892-28.641c2.211-1.175,4.959-0.335,6.134,1.876
			C98.229,87.112,97.634,89.561,95.857,90.871z"/>
		<polygon fill="#B67044" points="63.896,114.543 79.209,103.449 66.202,96.458 50.865,104.534 		"/>
		<path fill="#934032" d="M42.613,119.214c2.006,3.312,1.812,7.097-0.431,8.457c-2.247,1.359-5.692-0.223-7.698-3.533
			c-2.006-3.312-1.81-7.094,0.431-8.457C37.163,114.321,40.607,115.903,42.613,119.214z"/>
	</g>
	<g>
		<path fill="#CE7F4E" d="M34.14,90.871l49.034,36.34c4.038,2.991,9.737,2.144,12.729-1.891c2.991-4.038,2.144-9.737-1.891-12.732
			c-0.358-0.26-0.772-0.516-1.149-0.723L38.969,83.225c-2.211-1.175-4.957-0.335-6.129,1.876
			C31.77,87.112,32.365,89.561,34.14,90.871z"/>
		<path fill="#934032" d="M86.749,118.992c-1.971,3.251-1.778,6.965,0.429,8.302c2.2,1.338,5.583-0.218,7.553-3.469
			c1.971-3.247,1.782-6.966-0.425-8.303C92.102,114.189,88.719,115.741,86.749,118.992z"/>
	</g>
</g>
</svg>
