<?xml version="1.0" encoding="utf-8"?>
<!-- Generator: Adobe Illustrator 16.0.0, SVG Export Plug-In . SVG Version: 6.00 Build 0)  -->
<!DOCTYPE svg PUBLIC "-//W3C//DTD SVG 1.1//EN" "http://www.w3.org/Graphics/SVG/1.1/DTD/svg11.dtd">
<svg version="1.1" id="Layer_1" xmlns="http://www.w3.org/2000/svg" xmlns:xlink="http://www.w3.org/1999/xlink" x="0px" y="0px"
	 width="130px" height="130px" viewBox="0 0 130 130" enable-background="new 0 0 130 130" xml:space="preserve">
<rect fill="none" width="130" height="130"/>
<g>
	<g>
		<path fill="#7C6A51" d="M18.954,1.001c-1.852,0-3.353,1.496-3.353,3.349V125.65c0,1.853,1.501,3.349,3.353,3.349
			c1.848,0,3.349-1.496,3.349-3.349V4.35C22.303,2.497,20.802,1.001,18.954,1.001z"/>
	</g>
	<g>
		<path fill="#FDB813" d="M76.82,16.745c0,0,5.601-24.432-50.398-1.842v58.942c0,0,50.398-27.913,50.398,1.985
			c0,0,31.109-10.494,37.578-9.027V8.739C114.398,8.739,85.908,12.063,76.82,16.745z"/>
	</g>
	<g>
		<path fill="#FAAB18" d="M76.82,16.745v59.086c0,0,31.109-10.494,37.578-9.027V8.739C114.398,8.739,85.908,12.063,76.82,16.745z
			 M76.82,13.278v3.467C76.82,16.745,77.171,15.214,76.82,13.278z"/>
	</g>
</g>
</svg>
