<?xml version="1.0" encoding="utf-8"?>
<!-- Generator: Adobe Illustrator 16.0.0, SVG Export Plug-In . SVG Version: 6.00 Build 0)  -->
<!DOCTYPE svg PUBLIC "-//W3C//DTD SVG 1.1//EN" "http://www.w3.org/Graphics/SVG/1.1/DTD/svg11.dtd">
<svg version="1.1" id="Layer_1" xmlns="http://www.w3.org/2000/svg" xmlns:xlink="http://www.w3.org/1999/xlink" x="0px" y="0px"
	 width="130px" height="130px" viewBox="0 0 130 130" enable-background="new 0 0 130 130" xml:space="preserve">
<rect fill="none" width="130" height="130"/>
<g>
	<path fill="#3187B1" d="M107.931,28.584c0,0-46.36,0-59.268,0c-4.657,0-2.568-10.649-8.807-10.649c-5.171,0-22.703,0-22.703,0
		c-2.158,0-3.928,1.734-3.993,3.916v19.075h98.768v-8.313C111.928,30.394,110.132,28.584,107.931,28.584z"/>
	<path fill="#4BA7C4" d="M87.126,93.291c0-12.723,10.367-23.074,23.118-23.074c4.295,0,8.306,1.197,11.755,3.244l3.443-28.47H1
		l6.973,57.665c0.371,2.374,2.014,4.577,4.474,4.577h79.418C88.905,103.355,87.126,98.532,87.126,93.291z"/>
	<path fill="#F15A22" d="M110.205,74.535c-10.371,0-18.803,8.418-18.803,18.765c0,10.348,8.432,18.765,18.803,18.765
		c10.361,0,18.795-8.417,18.795-18.765C129,82.953,120.566,74.535,110.205,74.535z M118.528,95.875l-7.253,7.406
		c-0.595,0.612-1.562,0.61-2.16-0.003l-7.239-7.417c-0.599-0.613-0.599-1.607,0-2.22c0.302-0.309,0.689-0.462,1.08-0.462
		c0.396,0,0.788,0.153,1.086,0.462l4.61,4.718l0.01-13.928c0-0.867,0.668-1.572,1.514-1.572c0.848,0,1.549,0.705,1.549,1.572
		l-0.006,13.967l4.647-4.75c0.6-0.612,1.571-0.612,2.166,0.004C119.128,94.265,119.128,95.26,118.528,95.875z"/>
</g>
</svg>
