<?xml version="1.0" encoding="utf-8"?>
<!-- Generator: Adobe Illustrator 16.0.0, SVG Export Plug-In . SVG Version: 6.00 Build 0)  -->
<!DOCTYPE svg PUBLIC "-//W3C//DTD SVG 1.1//EN" "http://www.w3.org/Graphics/SVG/1.1/DTD/svg11.dtd">
<svg version="1.1" id="Layer_1" xmlns="http://www.w3.org/2000/svg" xmlns:xlink="http://www.w3.org/1999/xlink" x="0px" y="0px"
	 width="130px" height="130px" viewBox="0 0 130 130" enable-background="new 0 0 130 130" xml:space="preserve">
<rect fill="none" width="130" height="130"/>
<g>
	<path fill="#3187B1" d="M107.931,28.584c0,0-46.36,0-59.27,0c-4.655,0-2.566-10.649-8.807-10.649c-5.171,0-22.701,0-22.701,0
		c-2.16,0-3.93,1.734-3.993,3.916v19.075h98.768v-8.313C111.928,30.394,110.13,28.584,107.931,28.584z"/>
	<path fill="#4BA7C4" d="M87.126,93.291c0-12.723,10.367-23.074,23.119-23.074c4.292,0,8.305,1.197,11.754,3.244l3.441-28.47H1
		l6.973,57.665c0.371,2.374,2.014,4.577,4.474,4.577h79.416C88.903,103.355,87.126,98.532,87.126,93.291z"/>
	<path fill="#F15A22" d="M110.205,74.535c-10.371,0-18.803,8.418-18.803,18.765c0,10.348,8.432,18.765,18.803,18.765
		c10.359,0,18.795-8.417,18.795-18.765C129,82.953,120.564,74.535,110.205,74.535z M118.526,93.438
		c-0.3,0.31-0.689,0.464-1.08,0.464c-0.395,0-0.788-0.154-1.084-0.464l-4.612-4.716l-0.008,13.926c0,0.868-0.67,1.573-1.514,1.573
		c-0.847,0-1.549-0.705-1.549-1.573l0.004-13.966l-4.647,4.75c-0.599,0.613-1.568,0.613-2.164-0.004
		c-0.595-0.612-0.595-1.608,0.004-2.223l7.253-7.407c0.596-0.611,1.562-0.609,2.16,0.004l7.237,7.417
		C119.126,91.832,119.126,92.828,118.526,93.438z"/>
</g>
</svg>
