<?xml version="1.0" encoding="utf-8"?>
<!-- Generator: Adobe Illustrator 16.0.0, SVG Export Plug-In . SVG Version: 6.00 Build 0)  -->
<!DOCTYPE svg PUBLIC "-//W3C//DTD SVG 1.1//EN" "http://www.w3.org/Graphics/SVG/1.1/DTD/svg11.dtd">
<svg version="1.1" id="Layer_1" xmlns="http://www.w3.org/2000/svg" xmlns:xlink="http://www.w3.org/1999/xlink" x="0px" y="0px"
	 width="130px" height="130px" viewBox="0 0 130 130" enable-background="new 0 0 130 130" xml:space="preserve">
<rect fill="none" width="130" height="130"/>
<g>
	<path fill="#4BA7C4" d="M1,46.903l7.173,59.313c0.381,2.441,2.072,4.71,4.602,4.71h104.455c2.57,0,4.006-1.758,4.598-4.71
		L129,46.903H1z"/>
	<path fill="#3187B1" d="M110.989,30.027c0,0-47.687,0-60.965,0c-4.789,0-2.64-10.954-9.059-10.954c-5.319,0-23.35,0-23.35,0
		c-2.223,0-4.043,1.784-4.107,4.028v19.621h101.592v-8.551C115.101,31.888,113.252,30.027,110.989,30.027z"/>
</g>
</svg>
