<?xml version="1.0" encoding="utf-8"?>
<!-- Generator: Adobe Illustrator 16.0.0, SVG Export Plug-In . SVG Version: 6.00 Build 0)  -->
<!DOCTYPE svg PUBLIC "-//W3C//DTD SVG 1.1//EN" "http://www.w3.org/Graphics/SVG/1.1/DTD/svg11.dtd">
<svg version="1.1" id="Layer_1" xmlns="http://www.w3.org/2000/svg" xmlns:xlink="http://www.w3.org/1999/xlink" x="0px" y="0px"
	 width="130px" height="130px" viewBox="0 0 130 130" enable-background="new 0 0 130 130" xml:space="preserve">
<rect fill="none" width="130" height="130"/>
<g>
	<path fill="#3187B1" d="M107.897,28.601c0,0-46.346,0-59.251,0c-4.654,0-2.565-10.646-8.804-10.646c-5.17,0-22.694,0-22.694,0
		c-2.159,0-3.929,1.733-3.991,3.915v19.068h98.736v-8.311C111.894,30.409,110.097,28.601,107.897,28.601z"/>
	<path fill="#4BA7C4" d="M87.1,93.287c0-12.719,10.363-23.066,23.111-23.066c4.291,0,8.303,1.197,11.751,3.242l3.44-28.46H1
		l6.971,57.646c0.37,2.373,2.014,4.577,4.473,4.577h79.392C88.876,103.349,87.1,98.527,87.1,93.287z"/>
	<path fill="#F15A22" d="M110.211,74.528c-10.368,0-18.797,8.416-18.797,18.759c0,10.344,8.429,18.758,18.797,18.758
		c10.356,0,18.789-8.414,18.789-18.758C129,82.944,120.567,74.528,110.211,74.528z M117.355,94.577h-5.859v5.859
		c0,0.742-0.722,1.456-1.467,1.456c-0.74,0-1.462-0.714-1.462-1.456v-5.859h-5.859c-0.745,0-1.466-0.725-1.466-1.467
		s0.721-1.462,1.466-1.462h5.859v-5.859c0-0.744,0.722-1.46,1.462-1.46c0.745,0,1.467,0.716,1.467,1.46v5.859h5.859
		c0.741,0,1.458,0.72,1.458,1.462S118.097,94.577,117.355,94.577z"/>
</g>
</svg>
