<?xml version="1.0" encoding="utf-8"?>
<!-- Generator: Adobe Illustrator 16.0.0, SVG Export Plug-In . SVG Version: 6.00 Build 0)  -->
<!DOCTYPE svg PUBLIC "-//W3C//DTD SVG 1.1//EN" "http://www.w3.org/Graphics/SVG/1.1/DTD/svg11.dtd">
<svg version="1.1" id="Layer_1" xmlns="http://www.w3.org/2000/svg" xmlns:xlink="http://www.w3.org/1999/xlink" x="0px" y="0px"
	 width="130px" height="130px" viewBox="0 0 130 130" enable-background="new 0 0 130 130" xml:space="preserve">
<rect fill="none" width="130" height="130"/>
<g>
	<path fill="#FDB813" d="M58.526,51.228L52.131,1L42.008,2.172l6.537,48.114C51.715,50.707,55.044,51.031,58.526,51.228z"/>
	<path fill="#FDB813" d="M39.205,48.726c1.987,0.399,4.057,0.782,6.22,1.117l-2.71-19.184L39.205,48.726z"/>
	<polygon fill="#FDB813" points="58.329,23.716 61.581,51.321 69.017,15.651 69.52,7.012 59.336,6.628 	"/>
	<path fill="#FDB813" d="M75.536,4.554l-7.73,31.716l-3.159,15.16c0.46,0.005,0.914,0.016,1.38,0.016
		c3.06,0,6.027-0.114,8.896-0.306L85.452,6.913L75.536,4.554z"/>
	<path fill="#FDB813" d="M78.603,50.844c3.57-0.339,6.959-0.798,10.146-1.346l-5.562-18.133L78.603,50.844z"/>
	<path fill="#FDB813" d="M87.751,11.759l-3.147,13.994l6.805,23.203c3.613-0.663,5.646-1.117,8.678-1.906L87.751,11.759z"/>
	<path fill="#FDB813" d="M102.905,35.421l-1.702,5.595l1.796,5.212l0.115-0.016c2.896-0.827,5.447-1.669,7.621-2.453l9.888-27.325
		l-9.593-3.471L102.905,35.421z"/>
	<path fill="#FDB813" d="M36.243,48.091l5.075-26.094l-9.023-1.95l-5.507,25.53C29.58,46.431,32.75,47.296,36.243,48.091z"/>
	<path fill="#FDB813" d="M23.311,44.521l2.983-13.436L20.305,9.558l-9.822,2.732l8.519,30.61
		C19.861,43.228,23.311,44.521,23.311,44.521z"/>
	<polygon fill="#FDB813" points="100.984,31.348 103.333,5.008 93.183,4.088 92.219,14.917 99.527,36.139 	"/>
	<path fill="#F15A22" d="M9.377,41.893L23.573,129h82.283l14.197-86.352c-2.151,1.051-23.783,11.322-54.026,11.322
		C35.783,53.971,11.534,42.95,9.377,41.893z"/>
</g>
</svg>
