<?xml version="1.0" encoding="utf-8"?>
<!-- Generator: Adobe Illustrator 16.0.0, SVG Export Plug-In . SVG Version: 6.00 Build 0)  -->
<!DOCTYPE svg PUBLIC "-//W3C//DTD SVG 1.1//EN" "http://www.w3.org/Graphics/SVG/1.1/DTD/svg11.dtd">
<svg version="1.1" id="Layer_1" xmlns="http://www.w3.org/2000/svg" xmlns:xlink="http://www.w3.org/1999/xlink" x="0px" y="0px"
	 width="130px" height="130px" viewBox="0 0 130 130" enable-background="new 0 0 130 130" xml:space="preserve">
<rect fill="none" width="130" height="130"/>
<g id="Shape_6_copy_1_">
	<path fill="#0481D9" d="M109.969,25.388H129V3.173h-19.031c-16.699,0-30.275,15.126-30.275,33.725v11.236H68.449H57.205H45.969
		V36.897c0-6.632,4.103-11.51,7.795-11.51h19.031V3.173H53.764c-16.699,0-30.283,15.126-30.283,33.725v11.236H1v22.473h22.48v56.221
		h22.488V70.606h11.236h11.244h11.244v56.221h22.48V70.606h22.48V48.134h-22.48V36.897
		C102.174,30.265,106.276,25.388,109.969,25.388z"/>
</g>
</svg>
