<?xml version="1.0" encoding="utf-8"?>
<!-- Generator: Adobe Illustrator 16.0.0, SVG Export Plug-In . SVG Version: 6.00 Build 0)  -->
<!DOCTYPE svg PUBLIC "-//W3C//DTD SVG 1.1//EN" "http://www.w3.org/Graphics/SVG/1.1/DTD/svg11.dtd">
<svg version="1.1" id="Layer_1" xmlns="http://www.w3.org/2000/svg" xmlns:xlink="http://www.w3.org/1999/xlink" x="0px" y="0px"
	 width="130px" height="130px" viewBox="0 0 130 130" enable-background="new 0 0 130 130" xml:space="preserve">
<rect fill="none" width="130" height="130"/>
<g id="GitHub_icon_1_">
	<path fill="#3F91CB" d="M65,1.927c-35.345,0-64,28.655-64,64C1,96,21.748,121.215,49.705,128.073
		c-0.011-7.912-0.033-22.966-0.041-23.514c-0.117-0.071-12.131,6.966-18.262-5.343c-0.739-1.521-2.228-6.603-5.953-9.45
		c-0.134-0.114-2.886-1.516-3.138-2.896c-0.027-0.195,0.179-0.598,0.448-0.695c0.282-0.108,4.812-1.967,9.86,4.44
		c1.522,2.14,4.957,10.368,16.982,5.281c0.322-1.267,0.556-3.331,3.155-5.684c-17.909-2.136-24.454-8.271-26.992-23.58
		c-1.584-10.439,1.462-19.118,6.037-23.4c-0.693-0.913-2.978-8.537,0.574-16.607c3.848-0.772,10.907,1.994,17.11,6.461
		c8.75-3.163,25.177-2.342,31.054,0c2.793-2.31,12.771-7.706,17.051-6.45c1.258,3.206,3.072,10.966,0.564,16.623
		c5.576,5.739,7.146,13.146,6.142,22.249c-1.231,13.792-8.212,23.08-27.186,24.705c3.162,2.233,6.065,5.293,6.065,10.488
		c0,5.581-0.003,18.943-0.006,26.59C109.662,119.46,129,94.962,129,65.927C129,30.582,100.348,1.927,65,1.927z"/>
</g>
</svg>
