<?xml version="1.0" encoding="utf-8"?>
<!-- Generator: Adobe Illustrator 16.0.0, SVG Export Plug-In . SVG Version: 6.00 Build 0)  -->
<!DOCTYPE svg PUBLIC "-//W3C//DTD SVG 1.1//EN" "http://www.w3.org/Graphics/SVG/1.1/DTD/svg11.dtd">
<svg version="1.1" id="Layer_1" xmlns="http://www.w3.org/2000/svg" xmlns:xlink="http://www.w3.org/1999/xlink" x="0px" y="0px"
	 width="130px" height="130px" viewBox="0 0 130 130" enable-background="new 0 0 130 130" xml:space="preserve">
<rect fill="none" width="130" height="130"/>
<g>
	<g>
		<g>
			<path fill="#FFF6E4" d="M116.396,1v108.087c0,10.952-8.965,19.913-19.916,19.913H33.513c-10.948,0-19.909-8.961-19.909-19.913V1
				H116.396z"/>
			<path fill="#4BA7C4" d="M20.231,1v103.055c0,7.321,5.956,13.277,13.281,13.277H96.48c7.313,0,13.277-5.956,13.277-13.277V1h6.639
				v108.087c0,10.952-8.965,19.913-19.916,19.913H33.513c-10.948,0-19.909-8.961-19.909-19.913V1H20.231z"/>
			<path fill="#4BA7C4" d="M96.48,113.479c5.49,0,9.96-4.451,9.96-9.953V34.168H23.56v69.357c0,5.502,4.462,9.953,9.953,9.953H96.48
				z"/>
		</g>
	</g>
	<path fill="#77CDE0" d="M67.195,84.022c0.761,2.907-0.991,5.904-3.902,6.672L42.787,96.07c-2.9,0.753-5.908-0.999-6.669-3.899
		l-5.371-20.517c-0.761-2.894,0.991-5.905,3.906-6.665l20.502-5.375c2.896-0.761,5.901,0.991,6.661,3.899L67.195,84.022z"/>
	<path fill="#71D9EA" d="M89.159,103.905c-0.615,2.938-3.516,4.839-6.468,4.234l-20.752-4.309c-2.934-0.619-4.85-3.52-4.234-6.456
		l4.316-20.756c0.607-2.945,3.516-4.854,6.464-4.234l20.752,4.302c2.938,0.611,4.838,3.519,4.23,6.463L89.159,103.905z"/>
	<path fill="#87EEF9" d="M63.293,90.694c2.911-0.768,4.663-3.765,3.902-6.672l-2.837-10.84c-1.162,0.775-2.035,1.976-2.337,3.437
		l-3.168,15.238L63.293,90.694z"/>
</g>
</svg>
