<?xml version="1.0" encoding="utf-8"?>
<!-- Generator: Adobe Illustrator 16.0.0, SVG Export Plug-In . SVG Version: 6.00 Build 0)  -->
<!DOCTYPE svg PUBLIC "-//W3C//DTD SVG 1.1//EN" "http://www.w3.org/Graphics/SVG/1.1/DTD/svg11.dtd">
<svg version="1.1" id="Layer_1" xmlns="http://www.w3.org/2000/svg" xmlns:xlink="http://www.w3.org/1999/xlink" x="0px" y="0px"
	 width="130px" height="130px" viewBox="0 0 130 130" enable-background="new 0 0 130 130" xml:space="preserve">
<rect fill="none" width="130" height="130"/>
<g>
	<g>
		<path fill="#7C6A51" d="M102.632,90.821l-4.039-5.837l-4.754,3.344l2.337,3.368c-22.623,14.169-52.756,8.336-68.367-13.723
			c-15.534-21.968-11.113-52.132,9.533-68.8l1.986,3.623l4.737-3.45l-3.253-5.915C40.416,2.706,39.727,2.188,38.925,2
			c-0.81-0.178-1.655-0.015-2.328,0.457c-25.478,18.018-31.548,53.396-13.53,78.87c8.795,12.43,21.732,20.224,35.63,22.866
			c0,2.335-0.005,6.592-0.02,6.89c0,1.178-0.792,1.682-5.29,3.388l-2.138,0.826c-1.958,0.768-3.983,1.556-5.876,2.599
			c-0.37,0.197-0.74,0.408-1.166,0.653l-0.787,0.495c-1.521,1.1-1.841,2.325-1.841,3.166c0,3.354,4.767,4.646,6.34,5.064
			c2.081,0.562,4.711,1.019,7.587,1.307c2.29,0.226,4.709,0.365,7.2,0.404l1.391,0.014l1.384-0.014
			c2.501-0.039,4.93-0.179,7.21-0.404c2.95-0.308,5.501-0.744,7.604-1.307c1.562-0.418,6.32-1.711,6.32-5.064
			c0-0.841-0.314-2.066-1.562-2.936c-0.125-0.125-0.262-0.23-0.408-0.327l-1.807-1.047c-1.927-1.062-3.964-1.841-5.924-2.613
			c-0.661-0.264-1.336-0.509-1.989-0.754c-3.265-1.196-5.405-2.08-5.405-3.383v-0.178c-0.005-0.394-0.005-3.464-0.01-5.771
			c11.229-0.038,22.565-3.392,32.413-10.359C103.223,93.926,103.54,92.128,102.632,90.821z"/>
	</g>
	<g>
		<circle fill="#4BA7C4" cx="70.12" cy="48.182" r="47.181"/>
	</g>
	<g>
		<path fill="#A4C553" d="M91.775,64.549c-1.473-1.7-4.024-1.446-5.963-2.277c-2.086-0.898-2.713-2.34-3.938-4.064
			c-2.578-3.604-7.313-3.835-11.176-5.017c-2.064-0.639-3.522,0.678-5.305,1.576c-0.702,0.346-1.769,0.735-2.57,0.485
			c-1.389-0.447-0.829-1.413-0.837-2.455c-0.026-1.418-0.423-1.418-1.588-1.821c-0.886-0.308-1.953-0.745-1.3-1.912
			c0.418-0.755,1.596-0.875,0.363-1.869c-0.941-0.76-1.612-0.067-2.465,0.485c-1.693,1.1-4.105,1.273-3.753-1.519
			c0.222-1.764,2.364-4.123,3.875-4.882c1.762-0.874,4.327-0.793,5.677,0.605c0.567,0.586,1.146,1.907,1.879,2.272
			c1.435,0.726,0.872-0.864,0.36-1.662c-0.517-0.793-1.506-1.489-1.035-2.552c0.344-0.778,1.542-1.162,2.218-1.537
			c1.179-0.653,1.809-1.221,2.212-2.575c0.23-0.803-0.053-2.066,0.538-2.695c0.512-0.548,2.109-0.808,2.82-1.308
			c0.942-0.648,1.456-1.571,2.295-2.302c1.201-1.037,1.456,0.097,2.791,0c1.492-0.096,1.209-1.143,0.464-2.032
			c-0.055-0.067-0.607-0.058-0.689-0.043c0.008-0.543,1.045-1.413,0.574-2.014c-0.418-0.533-1.857,0.116-2.391,0.082
			c0.125-1.259,1.632-1.211,2.525-1.047c1.353,0.254,1.67,0.355,2.945-0.27c0.61-0.298,0.543-0.38,1.305-0.466
			c0.545-0.053,0.867,0.495,1.362-0.13c0.951-1.226-0.738-1.802-1.596-1.725c0.036-0.592,0.324-1.456-0.043-2.023
			c-0.421-0.634-1.148-0.446-1.432-1.35c-0.104-0.332,0.094-0.755,0-1.091c-0.077-0.322-0.375-0.476-0.447-0.755
			c-0.204-0.797,0-1.451-0.053-2.253c-2.093-0.711-1.994,1.109-2.734,2.272c-0.814-1.744,0.024-4.3-2.455-5.05
			c-2.608-0.798-2.695,3.719-2.996,5.328c-0.191,1.015,0.111,1.744-0.667,2.729c-0.205,0.25-0.562,0.438-0.73,0.721
			c-0.27,0.466-0.13,0.976-0.355,1.394c-0.186,0.351-0.73,1.038-1.192,1.038c-0.93,0-0.742-1.245-0.97-1.927
			c-0.26-0.783-1.166-2.566-1.91-3.027c-0.685-0.428-1.267-0.015-2.066-0.005c-0.185-1.038,0.438-2.498,0.584-3.584
			c0.202-1.441,0.976-2.571,2.187-3.34c1.004-0.629,2.044-1.014,2.426-2.263c0.173-0.553-0.221-2.148-0.668-3.806
			C57.108,5.233,47.359,9.429,39.914,16.16c0.271,2.248,0.526,4.482,0.618,5.035c0.084,0.514,0.405,0.846,0.487,1.302
			c0.142,0.707-0.151,0.99-0.247,1.591c-0.582,3.686-2.554,7.678-0.875,11.263c0.435,0.917,1.06,1.522,1.634,2.272
			c0.617,0.803,0.714,1.797,1.093,2.782c0.567,1.479,1.226,4.67,2.979,5.348c0.112-1.235-0.959-2.144-1.199-3.258
			c-0.209-1.004-0.485-2.499-0.339-3.498c0.049,0.01,0.271,0.015,0.324,0.005c0.613,1.687,1.526,3.498,2.41,5.074
			c0.425,0.749,1.101,1.402,1.456,2.181c0.374,0.846-0.104,1.788,0.423,2.509c0.891,1.215,3.992,1.643,5.297,1.96
			c1.698,0.428,3.421,0.956,5.096,1.586c0.754,0.283,0.584,0.028,1.117,0.721c0.283,0.374,0.454,0.956,0.665,1.364
			c0.439,0.841,0.697,1.609,1.581,1.932c0.901,0.341,2.052-0.226,2.926-0.02c1.199,0.274,1.096,1.346,0.733,2.422
			c-0.579,1.744-2.389,2.801-2.297,4.723c0.105,2.412,2.729,4.209,3.726,6.3c0.418,0.879,0.431,1.984,1.105,2.786
			c0.793,0.918,1.578,0.808,1.828,2.052c0.612,3.104-0.495,6.559-0.49,9.658c0.008,2.225-0.504,5.434-0.617,8.23
			c2.15,0,4.245-0.212,6.313-0.515c1.247-2.407,3.854-4.041,5.355-6.707c1.244-2.196,1.802-4.464,3.857-6.054
			c1.413-1.105,3.289-1.846,4.38-3.368c1.175-1.615,0.778-3.772,1.886-5.507C92.123,68.792,93.166,66.158,91.775,64.549z"/>
	</g>
</g>
</svg>
