<?xml version="1.0" encoding="utf-8"?>
<!-- Generator: Adobe Illustrator 16.0.0, SVG Export Plug-In . SVG Version: 6.00 Build 0)  -->
<!DOCTYPE svg PUBLIC "-//W3C//DTD SVG 1.1//EN" "http://www.w3.org/Graphics/SVG/1.1/DTD/svg11.dtd">
<svg version="1.1" id="Layer_1" xmlns="http://www.w3.org/2000/svg" xmlns:xlink="http://www.w3.org/1999/xlink" x="0px" y="0px"
	 width="130px" height="130px" viewBox="0 0 130 130" enable-background="new 0 0 130 130" xml:space="preserve">
<rect fill="none" width="130" height="130"/>
<g>
	<path fill="#E8AB3C" d="M48.29,112.873c0,8.91,7.218,16.127,16.125,16.127c8.902,0,16.123-7.217,16.123-16.127H48.29z"/>
	<path fill="#FDB813" d="M105.344,89.584V51.817c0-19.637-14.334-35.937-33.205-39.28l-14.257-0.021
		c-18.919,3.312-33.303,19.628-33.303,39.301v37.767L7.995,102.943l-0.005,7.611h114.02v-7.611L105.344,89.584z"/>
	<path fill="#FDB813" d="M105.461,51.613c0-19.535-14.451-35.733-33.322-39.076l-6.411-0.01v98.027h56.282v-7.611l-16.549-13.76
		V51.613z"/>
	<path fill="#FDB813" d="M68.25,1h-5.37c-2.964,0-5.369,2.519-5.369,5.606v3.583l16.12,0.022V6.605C73.631,3.519,71.223,1,68.25,1z"
		/>
</g>
</svg>
