<?xml version="1.0" encoding="utf-8"?>
<!-- Generator: Adobe Illustrator 16.0.0, SVG Export Plug-In . SVG Version: 6.00 Build 0)  -->
<!DOCTYPE svg PUBLIC "-//W3C//DTD SVG 1.1//EN" "http://www.w3.org/Graphics/SVG/1.1/DTD/svg11.dtd">
<svg version="1.1" id="Layer_1" xmlns="http://www.w3.org/2000/svg" xmlns:xlink="http://www.w3.org/1999/xlink" x="0px" y="0px"
	 width="130px" height="130px" viewBox="0 0 130 130" enable-background="new 0 0 130 130" xml:space="preserve">
<rect fill="none" width="130" height="130"/>
<g>
	<path id="path16" inkscape:connector-curvature="0" fill="#F5B459" d="M93.457,84.76c15.151-8.287,26.72-14.62,27.774-15.197
		c3.139-1.719,6.427-6.104,0-9.609c-2.068-1.129-13.327-7.27-27.79-15.16L73.545,64.835L93.457,84.76z"/>
	<path id="path23" inkscape:connector-curvature="0" fill="#E2574C" d="M73.545,64.835L9.916,128.957
		c1.434,0.18,3.164-0.198,5.149-1.291c4.119-2.251,48.316-26.442,78.392-42.906L73.545,64.835L73.545,64.835z"/>
	<path id="path30" inkscape:connector-curvature="0" fill="#3DB39E" d="M73.545,64.835l19.894-20.042
		c0,0-73.945-40.345-78.374-42.758c-1.7-0.93-3.555-1.253-5.198-0.887L73.545,64.835z"/>
	<path id="path37" inkscape:connector-curvature="0" fill="#349886" d="M73.545,64.835L9.867,1.148
		C7.236,1.73,5.081,4.007,5.081,8.585c0,7.432,0,106.49,0,112.729c0,4.306,1.696,7.339,4.829,7.643L73.545,64.835z"/>
</g>
</svg>
