<?xml version="1.0" encoding="utf-8"?>
<!-- Generator: Adobe Illustrator 16.0.0, SVG Export Plug-In . SVG Version: 6.00 Build 0)  -->
<!DOCTYPE svg PUBLIC "-//W3C//DTD SVG 1.1//EN" "http://www.w3.org/Graphics/SVG/1.1/DTD/svg11.dtd">
<svg version="1.1" id="Layer_1" xmlns="http://www.w3.org/2000/svg" xmlns:xlink="http://www.w3.org/1999/xlink" x="0px" y="0px"
	 width="130px" height="130px" viewBox="0 0 130 130" enable-background="new 0 0 130 130" xml:space="preserve">
<rect fill="none" width="130" height="130"/>
<g id="g_1_">
	<path fill="#D0422B" d="M74.874,10.034H44.489c-4.03,0-8.352,0.446-12.958,1.332c-4.659,1.034-9.145,3.24-13.466,6.616
		c-6.288,5.774-9.43,12.199-9.43,19.28c0,5.867,2.222,11.003,6.67,15.414c4.243,4.74,10.421,7.156,18.524,7.249
		c1.53,0,3.159-0.093,4.888-0.278c-0.285,0.762-0.595,1.592-0.93,2.496c-0.381,0.861-0.572,1.934-0.572,3.222
		c0,2.15,0.501,3.99,1.505,5.515c0.858,1.579,1.837,3.054,2.937,4.441c-3.556,0.093-8.025,0.508-13.406,1.258
		c-5.431,0.893-10.616,2.664-15.551,5.328c-4.396,2.479-7.432,5.353-9.11,8.624C1.864,93.796,1,96.764,1,99.428
		c0,5.471,2.652,10.167,7.952,14.089c5.254,4.206,13.202,6.356,23.855,6.449c12.722-0.187,22.458-3.073,29.205-8.661
		c6.505-5.396,9.761-11.598,9.761-18.587c-0.096-4.931-1.273-8.921-3.537-11.976c-2.404-3.005-5.201-5.749-8.389-8.233l-5.133-4.015
		c-0.74-0.706-1.503-1.524-2.289-2.466c-0.927-0.985-1.385-2.23-1.385-3.735c0-1.549,0.445-2.906,1.348-4.083
		c0.762-1.128,1.595-2.132,2.493-3.03c1.573-1.313,3.055-2.602,4.451-3.872c1.258-1.264,2.45-2.651,3.575-4.15
		c2.289-3.098,3.479-7.23,3.571-12.397c0-2.812-0.334-5.278-1-7.391c-0.809-2.113-1.741-3.946-2.788-5.495
		c-1.097-1.643-2.218-3.023-3.358-4.151c-1.192-1.078-2.265-1.902-3.215-2.466h9.333L74.874,10.034z M58.159,88.846
		c2.516,2.72,3.773,5.911,3.773,9.572c0,4.504-1.841,8.19-5.518,11.053c-3.772,2.905-9.24,4.411-16.402,4.504
		c-7.982-0.093-14.274-1.784-18.871-5.067c-4.839-3.284-7.258-7.46-7.258-12.527c0-2.584,0.558-4.789,1.67-6.617
		c0.966-1.734,2.152-3.19,3.556-4.361c1.453-1.128,2.881-1.995,4.284-2.602c1.4-0.564,2.49-0.985,3.265-1.271
		c3.29-0.936,6.509-1.617,9.656-2.038c3.19-0.285,5.173-0.378,5.947-0.285c1.307,0,2.444,0.05,3.413,0.143
		C51.335,83.103,55.498,86.269,58.159,88.846z M53.296,46.302c-0.356,1.934-1.155,3.816-2.4,5.65
		c-2.674,2.59-6.017,3.953-10.024,4.096c-3.182,0-6.004-0.917-8.476-2.751c-2.472-1.84-4.492-4.07-6.053-6.71
		c-3.231-5.65-4.845-11.083-4.845-16.312c-0.1-3.952,1.003-7.527,3.305-10.73c2.729-3.061,6.155-4.641,10.275-4.733
		c3.113,0.093,5.867,0.967,8.262,2.615c2.348,1.74,4.24,4.002,5.678,6.777c3.064,5.793,4.598,11.536,4.598,17.229
		C53.615,42.752,53.51,44.375,53.296,46.302z M109.048,31.854V11.446h-6.304v20.408h-20.15v6.48h20.15v20.779h6.304V38.335H129
		v-6.48H109.048z"/>
</g>
</svg>
