<?xml version="1.0" encoding="utf-8"?>
<!-- Generator: Adobe Illustrator 16.0.0, SVG Export Plug-In . SVG Version: 6.00 Build 0)  -->
<!DOCTYPE svg PUBLIC "-//W3C//DTD SVG 1.1//EN" "http://www.w3.org/Graphics/SVG/1.1/DTD/svg11.dtd">
<svg version="1.1" id="Layer_1" xmlns="http://www.w3.org/2000/svg" xmlns:xlink="http://www.w3.org/1999/xlink" x="0px" y="0px"
	 width="130px" height="130px" viewBox="0 0 130 130" enable-background="new 0 0 130 130" xml:space="preserve">
<rect fill="none" width="130" height="130"/>
<g>
	<g>
		<g>
			<path fill="#F15A22" d="M19.074,116.766C9.108,116.766,1,108.664,1,98.697v-67.39c0-9.965,8.108-18.074,18.074-18.074h91.852
				c9.966,0,18.074,8.108,18.074,18.074v67.39c0,9.967-8.108,18.068-18.074,18.068H19.074z"/>
		</g>
	</g>
	<path fill="#4BA7C4" d="M87.506,94.531h17.963c7.403,0,13.455-6.059,13.455-13.461V34.852c0-7.397-6.052-13.455-13.455-13.455
		H24.531c-7.397,0-13.455,6.058-13.455,13.455V81.07c0,7.402,6.058,13.461,13.455,13.461h17.963H87.506z"/>
	<path fill="#A4CB45" d="M105.469,21.397h-0.992l0.022,0.755l-0.033,0.138l-0.347,0.551l-0.006,0.237l0.16,0.242v0.11l-0.37-0.039
		l-0.044,0.039l0.077,0.298l-0.513-0.077l-0.342,0.253l-0.132,0.104l-0.513,0.188l-0.127,0.221l-0.099,0.783l-4.515,1.091
		l-4.09,0.909l-1.378,1.521l-0.287,1.146l-0.821,0.833l-0.132,0.231l0.104,0.237l0.342-0.066l0.171,0.138l0.017,0.209L91.479,31.6
		h-0.182l-0.027,0.121l0.055,0.144l0.275,0.237l0.183,0.43l-0.028,0.336L91,33.166l-0.65,0.75l-0.402,0.22l-0.926,0.209
		l-0.177-0.022l-0.474,0.265l-0.458-0.243l-0.849,0.006l-2.514,1.02l0.723,1.345l-0.508,0.656L84.64,37.68l-0.16,0.149l-0.165,0.061
		l-1.13,1.24l-0.006,0.005l-0.375,0.353l-0.523,0.138l-0.926,0.865l0,0l-0.689,0.226l-2.42,1.857l-0.794,0.116l-0.865,0.419
		l-0.932-0.033l-0.143-0.144l-0.358,0.055l-0.243-0.039l-0.38-0.259l-0.755-0.187l0.732-1.103l0,0l0.006-0.005l-0.044-0.568
		l0.16-0.584l0.226-0.297l-0.044-0.331l0.061-0.27l0.254-0.325l0.578-0.072v-1.736l-0.11-0.182l-0.182-0.292l-0.38-1.533
		l-0.96-1.361l-1.124,0.524l-0.066,0.088l-0.22,0.794l-0.585,0.413l-0.336-0.077l-0.138-0.187l0.248-0.932l0.59-0.612l0.144-0.479
		l0.242-0.353l0.077-0.297l-0.381-1.433l-0.182-0.298l-0.066-0.358l0.11-0.215l0.077-0.028l-0.374-0.579l-0.337-0.243l-0.738-0.193
		l-0.303-0.193l-0.232-0.055l-0.634-0.408l-0.27-0.072l-0.298,0.088l-0.1-0.083l-0.54-0.1l-0.518,0.11l-0.221,0.325l0.11,0.496
		l0.253,0.276l-0.071,0.148l-0.998,0.447l0.006,1.163l-0.215,0.104l-0.144,0.298l-0.071-0.138l-0.116-0.618l-0.138-0.237
		l-0.204,0.16l-0.231,0.314l-0.578,0.441l-0.05,0.43l-0.221,0.342l-0.011,1.395l0.071,0.166l-0.242,0.226l-0.193,1.951l0.959,1.951
		l0.072,1.665l-0.844,2.789l-0.601,0.474l-0.033,0.033l-0.606,0.479h-0.419l-0.546-0.171l-0.017-0.005l-0.909-1.957l-0.05-0.689
		v-0.011l-0.402-2.679l0.662-2.955l0.061-1.835l0.859-2.276l-0.148-0.413l-0.579,0.783l-0.082,0.799l-0.331,0.088l-1.003,1.058
		l-0.017-0.226l0.38-0.992l0.287-0.298l0.275-0.573l1.312-2.425l0.138,0.017l0.348-0.193l0.303-0.303l0.05,0.882l0.248-0.049
		l0.733-0.926l1.328-0.414l0.271-0.402l0.54-0.171l1.207,0.342l0.215,0.231l0.369-0.039l0.011-0.336l0.089-0.204l0.242,0.11
		l0.221,0.226l1.113-0.353l0.017-0.027l-0.061-0.127l-0.242-0.11l-0.188-0.231l-0.298-0.138l-0.088-0.507l-0.139-0.215l-0.049-0.215
		l-0.122-0.138l-0.077,0.005l-0.937,0.182l-0.771-0.215l-0.056-0.49l-0.126-0.248l-0.397,0.033l-0.408,0.281l-1.769,0.231
		l-0.816,0.485l-0.27,0.375l-0.237,0.105l-1.113-0.127l-0.413,0.116l-0.86-0.876l-0.865-0.408l-0.694,0.193l-0.227-0.055
		l-0.33,0.375l-0.017-0.717l0.188-0.32l0.297-0.171l1.059-1.251l0.006-0.215l-0.596,0.044l-3.07,2.359l-1.218,0.396l-0.844,0.673
		l-0.578,0.088l-0.91-0.061l-0.182,0.198l-0.061-0.11l0.115-0.519l-0.044-0.418l-0.286-0.259l-1.632,1.113l-0.573,0.138
		l-0.386-0.028l-0.198-0.292l3.792-3.522l0.849-0.364l0.971-0.948l0,0l-0.221,0.011l-0.177-0.072H24.531
		c-7.397,0-13.455,6.058-13.455,13.455V81.07c0,0.32,0.011,0.634,0.033,0.953l0.926,0.888l0.513,2.911l0.717,1.152l2.287,2.066
		l1.29,0.357l1.78-2.744l0.65-0.188l0.623,0.209l2.546,0.094l2.232,2.629l0.971,2.729l0.887,1.059l0.464,1.102l0.319,0.244h9.133
		l0.254-0.459l-0.038-0.154l-0.337,0.09l0.028-0.271l0.573-0.318l0.203,0.037l0.342-0.379l0.066-0.205l0.127-0.148l0.562-0.033
		l0.226-0.121l0.044-0.26l-0.33-0.281l0.005-0.27l0.094-0.17l0.292,0.127l0.177,0.176l0.05-0.033l0.005-0.254l0.072-0.109
		l0.132,0.043l0.154,0.275l0.083,0.012l0.182-0.088l0.094-0.26l0.094-0.055l0.104,0.502l0.932-0.299l0.133,0.023l-0.056,0.104
		l-1.295,0.562l-0.116,0.148l0.121,0.061l3.021-1.676l0.49-1.174l0.071-1.846l0.166-0.172l0.182-0.088l0.138,0.006l0.044,0.678
		l0.408,0.023l-0.11,0.236l-0.348,0.148l0.116,0.061l1.802-0.832l0.998-0.049l1.747-0.299l3.258,0.701l0.348-0.342l-0.028-0.32
		l0.166-0.188h0.546l0.92,0.418l0.392,0.398l0.363,0.066l0.679,0.93l0.65,0.012l0.182,0.16l0.485,0.127l0.457-0.26l0.314,0.193
		l0.281-0.166l0.865,0.094l0.38-0.496l0.066-0.188l-0.05-0.215l0.094-0.082l0.298-0.016l0.436,0.363l0.678,0.27l0.646,0.762
		l0.634-0.314l0.077-0.266l-0.287-0.348l-0.965-0.406l-0.446-0.525v-0.148l0.221-0.457l0.628-0.518l0.1-0.816l-0.132-0.115
		l-0.133-0.027l-0.645,0.336l-0.325,0.303l-0.227-0.021l-0.171-0.645l-0.143-0.029l-0.231,0.039l-0.425,0.354l-0.562,0.061
		l-0.484-0.375l0.138-0.623l0.711-0.264l1.736,0.467l0.684-0.396l0.479,0.111l0.639-0.43l1.88-0.012l0.496,0.033l0.21-0.139
		l0.353-1.896l0.363,1.829l-0.115,0.387l0.094,0.176l1.67-0.551l0.436-0.502l0.298-0.076l0.27-0.26l0.077,0.006l0.022,0.139
		l-0.133,0.43l2.255-0.496l0.265,0.066l-0.011,0.197l-0.183,0.1l0.05,0.088l2.568,1.037l0.634,0.781l0.26,0.172l1.582-0.484
		l0.755-0.508l0.342-0.055l0.044-0.033l0.011-0.303l0.281-0.248l0.8-0.084l0.578,0.154l1.081,0.926l0.313,0.111l0.094,0.539
		l0.309,0.111l0.673,0.65l1.113,0.396l0.171,0.199L81.883,92l0.039,0.051l0.265-0.023l-0.022-0.545l0.265,0.055l0.271,0.182
		l-0.193,1.297l0.166,0.611l0.766,0.904h4.068h3.456l-0.077-0.523l-2.343-3.996l-0.231-1.484l-1.797-2.205l-2.101-4.707l0.094-0.352
		l-0.11-0.894l1.142-4.001l0.165-0.066l-0.1-0.287l0.05-0.121l0.458-0.342l0.275-0.044l0.132-0.276l-0.49-0.645l-0.05-0.143
		l0.044-0.111l1.715-0.253l0.242-0.121l1.063-1.24l0.122-0.017l0.215-0.227l0.061-0.391l0.474-0.254l0.275-0.325l0.094-0.374
		l-0.176-0.287l0.286-0.303l0.535-1.152l0.672-0.48l0.039-0.258l1.19-0.436l0.915-0.656l0.039-0.336l0.54-1.059l1.251-1.053
		l1.091-0.27l0.7-0.667l0.033-0.336l-0.088-0.37h-0.463l-0.248,0.166l-0.022,0.121l-0.055-0.132l-0.027-0.297l0.198-0.281
		l0.05-0.243l0.203-0.292l-0.231-0.171l-0.898-0.204l0.656-0.116l0.286-0.358l0.188,0.325l0.215-0.022l0.216,0.204l0.523-0.116
		l0.275-0.231l0.358-0.744l0.254-0.253l-0.232-0.783l-0.286-0.298l-0.193,0.347l-0.148,0.596l-0.05,0.005L97.736,60.5l-0.199-0.65
		l-1.245,0.474l-0.342-0.006l-0.304-1.168l0.083-0.16l0.303,0.689l0.21,0.116l0.275-0.055l0.661-0.606l0.21-0.017l-0.022-0.209
		l0.342,0.061l0.298-0.05l0.254,0.364v-0.05l-0.171-0.364l-0.243-0.27L97.67,58.14l-0.127-0.126l-0.011-0.893l-0.199-0.684
		l-0.926-0.039l-0.121,0.05l-0.088,0.16l-0.32-0.044l-0.313-0.138l-0.006-0.271l0.507-0.11l0.204-0.144l-0.115-0.204l-0.287-0.083
		l-0.148-0.287l-0.033-0.204l0.182-0.143l0.193-0.027l-0.276-0.403l-0.27-0.11L95.35,53.99l0.187-0.083l0.033-0.667l-0.11-0.314
		l-0.336-0.309l-1.251-0.237l-0.567-0.358l-0.91-0.259L92.29,51.63l-0.044-0.143l0.088-0.347l0.171-0.127l-0.038,0.485l0.138,0.093
		l0.391,0.022l0.612,0.198l0.298-0.072l0.22,0.171l0.381,0.028l0.319,0.231L95.2,52.27l-0.358-0.771l-0.43-0.265l0.248-0.077v-0.055
		l-0.358-0.871l-0.127-1.373l-0.22-0.364l0.887-0.932l0.227-0.645l0.115-0.011l0.144,0.088l0.061,0.104l-0.038,0.314l-0.083,0.204
		l-0.231,0.177l-0.138,0.309l0.044,0.275l0.16,0.248l0.005,0.209l-0.281,0.479l0.116,0.132l0.281-0.044l0.082,0.072l0.183,0.755
		L95.3,50.44l-0.089,0.209l0.012,0.27l0.132,0.298l0.397,0.309l0.413-0.072l0.221,0.061l0.353,0.491l0.094,0.347l0.144,0.099
		l0.253,0.044l-0.027,0.32l-0.198,0.126l-0.325,1.488l0.303,0.948l0.133,0.104l0.259-0.077l0.138-0.171l0.706-3.302l-0.122-0.458
		l0.32-0.661l0.011-0.458l0.1-0.336l-2.228-2.954l0.017-0.37l0.821,0.65l0.431,0.039l0.374,0.237l0.508-0.083l0.132,0.667
		l0.094,0.144l1.015-2.254l-0.056-0.199l0.231-0.176l0.066-0.16l-0.044-1.014l0.061-0.144l0.121,0.017l0.083-0.066l0.017-1.031
		l-0.122-0.221l-0.33-0.275l-0.386-0.105l-0.072-0.088l-0.049-0.215l0.109-0.446l0.11-0.182l0.006-0.022l0.281-0.711l0.275-0.066
		l0.177-0.54l0.005,0.005l1.527-0.92l0.138-0.364l0.314-0.253l0.699-0.027l1.792-0.673l1.014-0.59l0.21-0.242l0.083-0.816
		l0.082-0.138l0.243,0.088l0.187,0.425l0.188-0.022l0.354-0.176l0.567-0.573l0.177-0.011l0.192,0.303l0.265-0.028l0.523-0.369
		l0.292-0.044l0.458-0.479l0.05-0.143l-0.254-0.634l-0.077-0.077l-0.138,0.049l0.16,0.551l-0.033,0.209l-0.32,0.188l-1.03-0.122
		l-0.336-0.479l-0.243-0.104l-0.204-0.501l-0.259-0.171l-0.49-0.1l-0.083-0.071l-0.021-0.27l0.065-0.204l0.138-0.11l0.061-0.446
		l0.204-0.182l-0.749-0.849v-0.755l0.551-0.766l0.452-1.246l-0.017-0.54l0.237-0.458l0.336-0.292h0.177l0.242,0.298l0.094,0.011
		l0.1-0.237V27.62l0.104-0.055l0.188,0.188l0.121-0.039l0.182-0.132l0.077-0.375l0.138-0.215l0.331,0.022l0.077-0.072l0.11-0.469
		l-0.056-0.331l0.089-0.353L109.41,25.3l0.177-0.253l0.138-0.1l0.099,0.006l0.122,0.314l0.171,0.215h0.231l0.198-0.16l0.523,0.204
		l0.177-0.132l0.061-0.259l0.253-0.38l0.216-0.066l0.248-0.215l0.055-0.314l0.684-0.336l0.099-0.193
		C110.738,22.218,108.197,21.397,105.469,21.397z"/>
	<g>
		<g>
			<path fill="#FFFFFF" d="M71.272,105.5c0,3.449-2.794,6.244-6.245,6.244c-3.444,0-6.239-2.795-6.239-6.244
				c0-3.445,2.795-6.246,6.239-6.246C68.479,99.254,71.272,102.055,71.272,105.5z"/>
		</g>
	</g>
	<g>
		<rect x="11.374" y="34.133" fill="#55D5F2" width="107.374" height="0.424"/>
	</g>
	<g>
		<rect x="11.374" y="49.903" fill="#55D5F2" width="107.374" height="0.424"/>
	</g>
	<g>
		<rect x="11.374" y="65.672" fill="#55D5F2" width="107.374" height="0.424"/>
	</g>
	<g>
		<rect x="11.374" y="81.442" fill="#55D5F2" width="107.374" height="0.425"/>
	</g>
	<g>
		<rect x="22.411" y="21.772" fill="#55D5F2" width="0.425" height="72.345"/>
	</g>
	<g>
		<rect x="38.837" y="21.772" fill="#55D5F2" width="0.425" height="72.345"/>
	</g>
	<g>
		<rect x="55.263" y="21.772" fill="#55D5F2" width="0.425" height="72.345"/>
	</g>
	<g>
		<rect x="71.688" y="21.772" fill="#55D5F2" width="0.425" height="72.345"/>
	</g>
	<g>
		<rect x="88.114" y="21.772" fill="#55D5F2" width="0.425" height="72.345"/>
	</g>
	<g>
		<rect x="104.54" y="21.772" fill="#55D5F2" width="0.425" height="72.345"/>
	</g>
</g>
</svg>
