<?xml version="1.0" encoding="utf-8"?>
<!-- Generator: Adobe Illustrator 16.0.0, SVG Export Plug-In . SVG Version: 6.00 Build 0)  -->
<!DOCTYPE svg PUBLIC "-//W3C//DTD SVG 1.1//EN" "http://www.w3.org/Graphics/SVG/1.1/DTD/svg11.dtd">
<svg version="1.1" id="Layer_1" xmlns="http://www.w3.org/2000/svg" xmlns:xlink="http://www.w3.org/1999/xlink" x="0px" y="0px"
	 width="130px" height="130px" viewBox="0 0 130 130" enable-background="new 0 0 130 130" xml:space="preserve">
<rect fill="none" width="130" height="130"/>
<g id="Grooveshark_icon_2_">
	<path fill="#FA7100" d="M65,0.997C29.654,0.997,1,29.654,1,65c0,35.346,28.654,64.003,64,64.003c35.347,0,64-28.657,64-64.003
		C129,29.654,100.347,0.997,65,0.997z M65,13.128c28.475,0,51.569,22.93,51.845,51.316c-0.011,0.176-0.033,0.336-0.033,0.556
		c0,9.144-5.985,15.238-12.081,15.238c-12.301,0-8.896-14.05-24.39-29.542C59.897,30.253,43.666,31.475,43.666,31.475
		c6.381,27.144-6.095,48.764-18.286,48.764c-9.144,0-12.191-9.049-12.191-15.238l-0.061-0.033c0-0.005,0-0.011,0-0.017
		C13.128,36.333,36.352,13.128,65,13.128z"/>
</g>
</svg>
