<?xml version="1.0" encoding="utf-8"?>
<!-- Generator: Adobe Illustrator 16.0.0, SVG Export Plug-In . SVG Version: 6.00 Build 0)  -->
<!DOCTYPE svg PUBLIC "-//W3C//DTD SVG 1.1//EN" "http://www.w3.org/Graphics/SVG/1.1/DTD/svg11.dtd">
<svg version="1.1" id="Layer_1" xmlns="http://www.w3.org/2000/svg" xmlns:xlink="http://www.w3.org/1999/xlink" x="0px" y="0px"
	 width="130px" height="130px" viewBox="0 0 130 130" enable-background="new 0 0 130 130" xml:space="preserve">
<rect fill="none" width="130" height="130"/>
<g>
	
		<rect x="108.322" y="11.212" transform="matrix(0.4107 0.9118 -0.9118 0.4107 75.8249 -92.4396)" fill="#7C6A51" width="2.204" height="2.454"/>
	<path fill="#F15A22" d="M107.017,12.362c-0.396,0.186-0.889-0.041-1.094-0.5l-0.801-1.761c-0.207-0.456-0.055-0.979,0.346-1.156
		l4.088-1.854c0.395-0.178,0.885,0.044,1.093,0.504l0.799,1.765c0.206,0.456,0.056,0.971-0.343,1.153L107.017,12.362z"/>
	
		<rect x="99.056" y="15.568" transform="matrix(0.4098 0.9122 -0.9122 0.4098 74.4299 -81.4505)" fill="#7C6A51" width="2.207" height="2.452"/>
	<path fill="#F15A22" d="M97.752,16.722c-0.396,0.178-0.884-0.044-1.094-0.5l-0.799-1.768c-0.209-0.46-0.055-0.972,0.346-1.153
		l4.087-1.853c0.396-0.182,0.887,0.044,1.095,0.504l0.797,1.761c0.212,0.459,0.056,0.975-0.343,1.156L97.752,16.722z"/>
	
		<rect x="117.584" y="6.856" transform="matrix(0.4098 0.9122 -0.9122 0.4098 77.4183 -103.4921)" fill="#7C6A51" width="2.207" height="2.453"/>
	<path fill="#F15A22" d="M62.368,72.551c-1.525,2.184-2.504,7.495,0.017,9.835c2.522,2.339,5.625,2.269,7.749,0.193
		c2.508-2.439,4.697-3.207,6.885-1.02c1.48,1.482,1.48,4.059-0.69,6.172c-2.263,2.205-6.515,3.866-9.536,4.882
		c-3.017,1.008-6.718,2.803-8.611,5c-6.024,6.992-0.428,14.527-10.261,23.909c-8.467,8.081-24.755,8.422-36.337-3.448
		c-12.196-12.503-14.02-26.97-4.595-37.294c5.658-6.19,11.991-7.396,15.126-8.522c3.134-1.123,8.498-2.436,13.147-7.379
		c5.382-5.735,5.967-15.396,11.897-20.993c2.452-2.324,5.136-2.083,7.204-0.048c1.898,1.875,1.805,4.303,0.319,6.375
		c-1.018,1.428-1.965,2.209-2.944,5.004c-0.977,2.803,0.225,7.377,4.701,8.945C59.634,65.583,62.368,72.551,62.368,72.551z"/>
	<polyline fill="#7C6A51" points="95.05,27.19 43.038,76.536 52.759,86.271 101.401,33.848 	"/>
	<path fill="#FFF6E4" d="M45.346,65.994c-2.375,4.452-7.401,10.175-14.696,12.615c-6.044,2.02-7.631,6.991-4.428,9.961
		c3.032,2.813,8.643,8.099,9.975,13.571c1.155,4.743,0.439,6.73-1.62,9.369c-2.89,3.699-1.813,7.562,1.514,9.438
		c3.577,2.014,6.509,0.441,7.981-1.204c5.955-6.644,3.97-13.045,6.876-19.241c2.265-4.823,4.53-8.252,9.885-10.116
		c2.659-0.928,3.199-3.633-0.173-4.453c-7.628-1.846-9.897-16.14-10.229-19.131C50.099,63.818,47.077,62.747,45.346,65.994z"/>
	<path fill="#7C6A51" d="M44.504,108.44c-0.803,0.798-2.1,0.798-2.904,0c-0.801-0.801-0.801-2.105,0-2.902
		c0.805-0.804,2.102-0.804,2.904,0C45.307,106.335,45.307,107.64,44.504,108.44z"/>
	<path fill="#7C6A51" d="M41.721,118.139c-1.173,1.174-3.077,1.174-4.248,0c-1.179-1.172-1.179-3.074,0-4.252
		c1.171-1.176,3.075-1.176,4.248,0C42.894,115.064,42.894,116.967,41.721,118.139z"/>
	<path fill="#F15A22" d="M95.05,27.19c0,0,1.261-4.341,1.595-5.786c0.338-1.446,0.812-2.276,2.85-3.27
		c2.26-1.101,19.962-9.319,21.973-10.116c3.037-1.201,5.605,0.493,6.881,3.095c1.202,2.465,0.939,5.464-2.467,7.514
		c-3.152,1.887-5.659,0.916-7.338,2.517c-2.693,2.58-0.688,6.895-6.021,9.349c-4.871,2.231-6.764-0.575-11.121,3.354L95.05,27.19z"
		/>
	<path fill="#7C6A51" d="M122.127,13.378c-0.795,0.793-2.082,0.793-2.881,0c-0.795-0.797-0.791-2.083,0-2.876
		c0.799-0.797,2.086-0.797,2.881,0C122.92,11.295,122.92,12.581,122.127,13.378z"/>
	<path fill="#7C6A51" d="M112.867,18.056c-0.795,0.797-2.081,0.797-2.882,0.007c-0.789-0.797-0.789-2.087,0-2.88
		c0.801-0.794,2.087-0.794,2.882,0C113.66,15.977,113.66,17.267,112.867,18.056z"/>
	<path fill="#7C6A51" d="M104.225,22.011c-0.798,0.793-2.085,0.793-2.877,0c-0.799-0.793-0.799-2.087,0-2.88
		c0.792-0.793,2.079-0.793,2.877,0C105.019,19.924,105.019,21.218,104.225,22.011z"/>
	<path fill="#7C6A51" d="M34.101,106.206c0.404-0.408,0.317-1.156-0.201-1.671l-7.113-10.18c-0.514-0.516-1.262-0.611-1.672-0.204
		L20.972,98.3c-0.406,0.407-0.318,1.156,0.2,1.671l8.645,8.645c0.516,0.522,1.266,0.607,1.67,0.204L34.101,106.206z"/>
	<linearGradient id="SVGID_1_" gradientUnits="userSpaceOnUse" x1="95.1641" y1="27.3975" x2="99.9728" y2="32.3005">
		<stop  offset="0" style="stop-color:#707070"/>
		<stop  offset="1" style="stop-color:#000000"/>
	</linearGradient>
	<line fill="url(#SVGID_1_)" x1="101.401" y1="33.848" x2="95.05" y2="27.19"/>
	<path fill="#F15A22" d="M116.279,8.01c-0.395,0.182-0.886-0.048-1.094-0.504l-0.799-1.761c-0.207-0.463-0.056-0.979,0.343-1.156
		l4.089-1.854c0.395-0.178,0.889,0.044,1.094,0.5L120.711,5c0.205,0.46,0.055,0.975-0.343,1.156L116.279,8.01z"/>
	<polygon fill="#B5AB93" points="23.214,98.6 95.916,28.102 96.416,28.621 23.72,99.119 23.214,98.6 	"/>
	<polygon fill="#B5AB93" points="25.468,100.902 97.378,29.618 97.888,30.126 25.978,101.41 25.468,100.902 	"/>
	<polygon fill="#B5AB93" points="27.933,103.375 98.602,30.916 99.118,31.419 28.449,103.879 27.933,103.375 	"/>
	<polygon fill="#B5AB93" points="30.297,105.786 100.191,32.443 100.716,32.939 30.816,106.283 30.297,105.786 	"/>
	<path fill="#FFF6E4" d="M31.84,107.095c-0.441,0.438-1.151,0.438-1.588,0l-7.733-7.735c-0.441-0.434-0.441-1.145,0-1.586l0,0
		c0.438-0.438,1.147-0.438,1.586,0l7.735,7.735C32.277,105.946,32.277,106.654,31.84,107.095L31.84,107.095z"/>
</g>
</svg>
