<?xml version="1.0" encoding="utf-8"?>
<!-- Generator: Adobe Illustrator 16.0.0, SVG Export Plug-In . SVG Version: 6.00 Build 0)  -->
<!DOCTYPE svg PUBLIC "-//W3C//DTD SVG 1.1//EN" "http://www.w3.org/Graphics/SVG/1.1/DTD/svg11.dtd">
<svg version="1.1" id="Layer_1" xmlns="http://www.w3.org/2000/svg" xmlns:xlink="http://www.w3.org/1999/xlink" x="0px" y="0px"
	 width="130px" height="130px" viewBox="0 0 130 130" enable-background="new 0 0 130 130" xml:space="preserve">
<rect fill="none" width="130" height="130"/>
<g>
	<path fill="#F6C37A" d="M122.957,105.824c0,4.231-3.465,7.695-7.695,7.695H13.992c-4.231,0-7.695-3.464-7.695-7.695v-7.815
		c0-4.23,3.464-7.694,7.695-7.694h101.27c4.23,0,7.695,3.464,7.695,7.694V105.824z"/>
	<rect x="6.302" y="93.273" fill="#BF392C" width="116.661" height="7.982"/>
	<path fill="#BB6F39" d="M129,89.701c0,3.655-3.185,6.649-7.085,6.649H8.085c-3.9,0-7.085-2.994-7.085-6.649v-2.008
		c0-3.66,3.185-6.654,7.085-6.654h113.83c3.9,0,7.085,2.994,7.085,6.654V89.701z"/>
	<path fill="#A4C553" d="M10.425,72.387c6.764-7.664,18.229-11.172,28.051-12.75c13.724-2.2,26.84,2.053,40.207,5.086
		c5.586,1.274,11.08,2.573,16.737,3.547c6.054,1.049,12.21,0.152,18.144,1.103c5.466,0.877,6.676,3.773,8.403,8.222
		c1.411,3.621-2.112,8.976-5.099,12.769c-3.324,4.214-7.063-0.843-9.63-3.327c-3.783-3.664-3.411-5.012-8.702-3.17
		c-4.814,1.676-5.796,7.693-10.62,9.153c-5.24,1.587-8.71-3.425-12.413-6.556c-3.808-3.22-9.271-6.483-14.425-3.788
		c-4.363,2.283-4.11,9.05-10.118,8.295c-7.085-0.896-18.536-16.184-23.948-4.454c-2.239,4.841-4.409,6.252-10.34,5.032
		c-6.105-1.26-6.247-6.835-7.563-11.989C8.658,77.795,7.676,75.503,10.425,72.387z"/>
	<rect x="9.119" y="66.379" fill="#FDB813" width="111.763" height="7.982"/>
	<rect x="9.119" y="60" fill="#EAA213" width="111.763" height="7.982"/>
	<path fill="#F6C37A" d="M125.073,64.753C120.744,37.451,95.54,16.48,65.002,16.48c-30.537,0-55.747,20.971-60.075,48.272H125.073z"
		/>
	<path fill="#C98A11" d="M30.084,40.097c0,0.99-0.796,1.784-1.784,1.784c-0.984,0-1.786-0.794-1.786-1.784
		c0-0.985,0.801-1.783,1.786-1.783C29.289,38.314,30.084,39.112,30.084,40.097z"/>
	<path fill="#C98A11" d="M20.253,50.392c0,0.99-0.799,1.793-1.784,1.793c-0.987,0-1.786-0.804-1.786-1.793
		c0-0.98,0.799-1.779,1.786-1.779C19.455,48.613,20.253,49.412,20.253,50.392z"/>
	<path fill="#C98A11" d="M60.87,36.966c0,0.99-0.801,1.784-1.784,1.784c-0.99,0-1.786-0.794-1.786-1.784
		c0-0.985,0.796-1.783,1.786-1.783C60.068,35.183,60.87,35.981,60.87,36.966z"/>
	<circle fill="#C98A11" cx="41.397" cy="48.937" r="1.785"/>
	<path fill="#C98A11" d="M44.164,30.597c0,0.99-0.796,1.789-1.784,1.789c-0.99,0-1.786-0.799-1.786-1.789
		c0-0.985,0.796-1.783,1.786-1.783C43.368,28.813,44.164,29.612,44.164,30.597z"/>
	<path fill="#C98A11" d="M65.784,55.306c0,0.99-0.801,1.789-1.784,1.789c-0.99,0-1.786-0.798-1.786-1.789
		c0-0.979,0.796-1.783,1.786-1.783C64.983,53.522,65.784,54.326,65.784,55.306z"/>
	<circle fill="#C98A11" cx="31.245" cy="56.947" r="1.785"/>
	<path fill="#C98A11" d="M77.244,42.209c0,0.99-0.799,1.784-1.781,1.784c-0.989,0-1.79-0.794-1.79-1.784
		c0-0.985,0.801-1.783,1.79-1.783C76.445,40.426,77.244,41.224,77.244,42.209z"/>
	<path fill="#C98A11" d="M60.037,21.424c0,0.99-0.799,1.789-1.783,1.789c-0.99,0-1.786-0.799-1.786-1.789
		c0-0.985,0.796-1.778,1.786-1.778C59.238,19.646,60.037,20.439,60.037,21.424z"/>
	<path fill="#C98A11" d="M85.432,28.632c0,0.985-0.799,1.784-1.783,1.784c-0.989,0-1.786-0.799-1.786-1.784s0.797-1.783,1.786-1.783
		C84.633,26.849,85.432,27.647,85.432,28.632z"/>
	<path fill="#C98A11" d="M72.335,26.339c0,0.99-0.799,1.789-1.784,1.789c-0.989,0-1.785-0.799-1.785-1.789
		c0-0.985,0.796-1.784,1.785-1.784C71.536,24.555,72.335,25.354,72.335,26.339z"/>
	<path fill="#C98A11" d="M95.591,44.027c0,0.985-0.798,1.788-1.78,1.788c-0.99,0-1.789-0.803-1.789-1.788s0.799-1.784,1.789-1.784
		C94.793,42.243,95.591,43.042,95.591,44.027z"/>
	<circle fill="#C98A11" cx="96.092" cy="31.582" r="1.785"/>
	<path fill="#C98A11" d="M116.227,50.578c0,0.985-0.799,1.784-1.783,1.784c-0.99,0-1.786-0.799-1.786-1.784
		c0-0.99,0.796-1.788,1.786-1.788C115.428,48.79,116.227,49.588,116.227,50.578z"/>
	<path fill="#C98A11" d="M92.132,56.144c0,0.99-0.796,1.789-1.783,1.789s-1.785-0.799-1.785-1.789c0-0.984,0.798-1.783,1.785-1.783
		S92.132,55.159,92.132,56.144z"/>
	<path fill="#C98A11" d="M105.741,43.375c0,0.99-0.799,1.784-1.783,1.784c-0.99,0-1.787-0.793-1.787-1.784
		c0-0.99,0.797-1.783,1.787-1.783C104.942,41.592,105.741,42.385,105.741,43.375z"/>
</g>
</svg>
