<?xml version="1.0" encoding="utf-8"?>
<!-- Generator: Adobe Illustrator 16.0.0, SVG Export Plug-In . SVG Version: 6.00 Build 0)  -->
<!DOCTYPE svg PUBLIC "-//W3C//DTD SVG 1.1//EN" "http://www.w3.org/Graphics/SVG/1.1/DTD/svg11.dtd">
<svg version="1.1" id="Layer_1" xmlns="http://www.w3.org/2000/svg" xmlns:xlink="http://www.w3.org/1999/xlink" x="0px" y="0px"
	 width="130px" height="130px" viewBox="0 0 130 130" enable-background="new 0 0 130 130" xml:space="preserve">
<rect fill="none" width="130" height="130"/>
<g>
	<path fill="#F15A22" d="M51.897,54.757v-0.024c1.271-1.444-0.705-3.595-2.619-5.495v-0.023L29.525,29.979
		c-1.571-1.486-3.664-1.373-5.127,0.176l-6.62,7.209l26.72,24.583L51.897,54.757z M115.997,110.164v-0.015L95.836,91.456
		c-1.576-1.478-4.158-1.377-5.621,0.166l-6.865,7.215l25.514,24.062l7.046-7.221C117.463,114.04,117.493,111.665,115.997,110.164z
		 M64.804,94.719c-5.78-4.436-12.481-10.439-18.331-17.265c-4.107-4.768-7.768-9.812-4.26-13.54L16.075,39.355
		c-3.56,4.711-11.113,26.929,25.101,61.847c38.154,36.823,61.796,27.999,65.782,23.601l-25.488-23.995
		C78.111,104.365,73.568,101.425,64.804,94.719z"/>
	<path fill="#4BA7C4" d="M40.636,1.065c-1.43-0.323-2.845,0.58-3.173,2.009l-4.887,21.724c-0.318,1.43,0.577,2.85,2.009,3.173
		c0.608,0.133,1.214,0.057,1.736-0.2c0.703-0.337,1.247-0.988,1.435-1.81l4.877-21.719C42.961,2.813,42.066,1.388,40.636,1.065z
		 M77.309,27.196c-0.703-1.292-2.284-1.781-3.598-1.073l-19.57,10.62c-1.296,0.693-1.767,2.308-1.068,3.591
		c0.682,1.253,2.218,1.743,3.483,1.121l0.104-0.047l19.577-10.62C77.518,30.089,77.997,28.483,77.309,27.196z M60.781,11.566
		c-1.191-0.85-2.842-0.579-3.694,0.613L44.134,30.293c-0.854,1.202-0.579,2.85,0.61,3.695c0.814,0.598,1.857,0.646,2.702,0.242
		c0.388-0.19,0.725-0.48,1-0.846l12.949-18.124C62.249,14.074,61.973,12.426,60.781,11.566z"/>
</g>
</svg>
