<?xml version="1.0" encoding="utf-8"?>
<!-- Generator: Adobe Illustrator 16.0.0, SVG Export Plug-In . SVG Version: 6.00 Build 0)  -->
<!DOCTYPE svg PUBLIC "-//W3C//DTD SVG 1.1//EN" "http://www.w3.org/Graphics/SVG/1.1/DTD/svg11.dtd">
<svg version="1.1" id="Layer_1" xmlns="http://www.w3.org/2000/svg" xmlns:xlink="http://www.w3.org/1999/xlink" x="0px" y="0px"
	 width="130px" height="130px" viewBox="0 0 130 130" enable-background="new 0 0 130 130" xml:space="preserve">
<rect fill="none" width="130" height="130"/>
<g>
	<g>
		<g>
			<g>
				<path fill="#4BA7C4" d="M38.779,95.457c-0.871-0.047-1.873-0.068-2.895-0.068c-3.146,0-13.494,0.257-14.615,3.583
					c-0.714,2.092-1.323,10.011,3.104,15.627c2.976,3.771,7.573,5.821,13.674,6.094c0.481,0.021,0.962,0.031,1.431,0.031
					c9.37,0,13.58-4.315,15.463-7.929c2.567-4.938,1.964-11.114,0.309-12.866C51.938,96.43,46.336,95.87,38.779,95.457z"/>
				<path fill="#4BA7C4" d="M94.115,95.389c-1.022,0-2.023,0.021-2.892,0.068c-7.561,0.413-13.164,0.973-16.467,4.467
					c-1.663,1.757-2.265,7.934,0.303,12.871c1.883,3.613,6.091,7.929,15.466,7.929c0.463,0,0.946-0.011,1.428-0.031
					c6.101-0.272,10.703-2.322,13.674-6.094c4.427-5.616,3.815-13.535,3.106-15.627C107.609,95.646,97.262,95.389,94.115,95.389z"/>
				<path fill="#7C6A51" d="M100.878,93.004c-11.224,0-21.553,1.736-28.389,2.882c-3.311,0.555-6.203,0.957-7.489,0.957
					c-1.289,0-4.179-0.402-7.489-0.957c-6.836-1.146-17.163-2.882-28.392-2.882c-5.604,0-10.865,0.445-15.643,1.323
					c-0.076,2.741-0.07,4.101,0.008,4.807c0.063,0.564,0.131,0.591,0.309,0.659l0.073,0.026c2.66,1.077,3.439,3.922,4.341,7.223
					c1.692,6.187,3.794,13.886,18.894,15.527c1.014,0.104,2.034,0.162,3.036,0.162c3.708,0,8.993-0.753,13.112-4.341
					c4.268-3.719,5.309-7.494,6.075-10.256c0.52-1.883,1.239-5.434,5.677-5.434c4.44,0,5.157,3.551,5.68,5.434
					c0.761,2.762,1.805,6.537,6.069,10.256c4.119,3.588,9.404,4.341,13.114,4.341c1.002,0,2.021-0.058,3.034-0.162
					c15.099-1.642,17.206-9.341,18.898-15.527c0.899-3.301,1.679-6.146,4.338-7.218l0.073-0.031
					c0.176-0.068,0.243-0.095,0.309-0.659c0.081-0.706,0.084-2.065,0.006-4.807C111.746,93.449,106.487,93.004,100.878,93.004z
					 M54.94,112.795c-1.883,3.613-6.093,7.929-15.463,7.929c-0.468,0-0.949-0.011-1.431-0.031
					c-6.101-0.272-10.698-2.322-13.674-6.094c-4.427-5.616-3.818-13.535-3.104-15.627c1.122-3.326,11.469-3.583,14.615-3.583
					c1.022,0,2.024,0.021,2.895,0.068c7.557,0.413,13.159,0.973,16.47,4.472C56.904,101.681,57.508,107.857,54.94,112.795z
					 M105.627,114.599c-2.971,3.771-7.573,5.821-13.674,6.094c-0.481,0.021-0.965,0.031-1.428,0.031
					c-9.375,0-13.583-4.315-15.466-7.929c-2.567-4.938-1.966-11.114-0.303-12.871c3.303-3.494,8.906-4.054,16.467-4.467
					c0.868-0.047,1.869-0.068,2.892-0.068c3.146,0,13.494,0.257,14.618,3.583C109.442,101.063,110.054,108.982,105.627,114.599z"/>
				<path fill="#6D5B45" d="M69.712,96.325C67.62,96.639,65.91,96.843,65,96.843s-2.62-0.204-4.712-0.518l2.516,6.747
					c0.606-0.235,1.328-0.371,2.196-0.371c0.865,0,1.59,0.136,2.199,0.371L69.712,96.325z"/>
			</g>
		</g>
		<g>
			<g>
				<path fill="#F15A22" d="M100.161,13.053C98.357,9.805,83.305,7.269,65,7.269c-18.292,0-33.339,2.531-35.156,5.779h-0.003
					c0,0-10.478,15.083-11.647,35.476c0,4.707,20.957,8.524,46.806,8.524s46.807-3.817,46.807-8.524
					C110.643,28.22,100.25,13.184,100.161,13.053z"/>
				<ellipse fill="#E55123" cx="65" cy="13.707" rx="35.342" ry="6.438"/>
				<path fill="#D84821" d="M100.188,13.09c0.097,0.209,0.154,0.418,0.154,0.617c0,3.556-15.823,6.438-35.342,6.438
					s-35.342-2.882-35.342-6.438c0-0.199,0.055-0.408,0.157-0.623c-0.128,0.188-0.693,1.036-1.512,2.438
					c1.3,1.982,4.938,3.446,11.362,4.618C46.452,21.374,55.45,22.054,65,22.054c9.553,0,18.549-0.68,25.334-1.914
					c6.423-1.172,10.062-2.636,11.362-4.618C100.87,14.104,100.303,13.262,100.188,13.09z"/>
				<path fill="#F15A22" d="M111.807,48.523H18.194c0,0-16.875,12.98-17.194,23.807c0,6.438,28.655,11.657,64,11.657
					s64-5.219,64-11.657C128.681,61.504,111.807,48.523,111.807,48.523z"/>
			</g>
			<path fill="#FDB813" d="M65,49.726c-23.282,0-42.581-3.096-46.192-7.154c-0.282,1.925-0.497,3.912-0.614,5.952
				c0,4.707,20.957,8.524,46.806,8.524s46.807-3.817,46.807-8.524c-0.118-2.04-0.332-4.027-0.615-5.952
				C107.583,46.63,88.281,49.726,65,49.726z"/>
			<path fill="#D84821" d="M65,81.76c-33.901,0-61.641-4.802-63.854-10.873C1.073,71.367,1.016,71.854,1,72.33
				c0,6.438,28.655,11.657,64,11.657s64-5.219,64-11.657c-0.016-0.477-0.073-0.963-0.149-1.443
				C126.642,76.958,98.901,81.76,65,81.76z"/>
		</g>
	</g>
</g>
</svg>
