<?xml version="1.0" encoding="utf-8"?>
<!-- Generator: Adobe Illustrator 16.0.0, SVG Export Plug-In . SVG Version: 6.00 Build 0)  -->
<!DOCTYPE svg PUBLIC "-//W3C//DTD SVG 1.1//EN" "http://www.w3.org/Graphics/SVG/1.1/DTD/svg11.dtd">
<svg version="1.1" id="Layer_1" xmlns="http://www.w3.org/2000/svg" xmlns:xlink="http://www.w3.org/1999/xlink" x="0px" y="0px"
	 width="130px" height="130px" viewBox="0 0 130 130" enable-background="new 0 0 130 130" xml:space="preserve">
<rect fill="none" width="130" height="130"/>
<g>
	<path fill="#C1BAA7" d="M120.59,49.469c-0.011-0.184-0.032-0.362-0.048-0.546c-0.058-0.783-0.126-1.56-0.221-2.332
		c-0.005-0.047-0.005-0.1-0.01-0.147c0,0.026,0,0.063,0.005,0.101C117.181,20.921,93.538,1.001,64.827,1.001
		c-30.839,0-55.842,22.986-55.842,51.341c0,3.917,0.2,7.715,0.62,11.38c-0.042-0.31-0.095-0.619-0.131-0.935
		c0.063,0.594,0.147,1.171,0.226,1.754c0.052,0.457,0.105,0.909,0.168,1.36c0.189,1.287,0.399,2.568,0.656,3.812h3.325
		c-0.468-2.247-0.783-4.59-1.003-6.984c-0.105-1.087-0.178-2.185-0.236-3.293c-0.031-0.446-0.063-0.877-0.084-1.323
		c-0.058-1.555-0.094-3.12-0.094-4.716c0-25.781,23.459-45.176,52.396-45.176c0.877,0,1.743,0.021,2.609,0.053
		c0.289,0.016,0.578,0.037,0.867,0.053c0.572,0.031,1.14,0.062,1.706,0.11c0.342,0.026,0.678,0.062,1.014,0.094
		c0.515,0.053,1.02,0.101,1.528,0.163c0.362,0.048,0.715,0.1,1.071,0.152c0.479,0.063,0.956,0.132,1.424,0.205
		c0.373,0.062,0.735,0.131,1.098,0.194c0.457,0.089,0.913,0.173,1.365,0.268c0.362,0.073,0.735,0.157,1.103,0.241
		c0.437,0.095,0.872,0.2,1.303,0.305c0.373,0.095,0.74,0.194,1.103,0.289c0.426,0.121,0.846,0.236,1.266,0.362
		c0.362,0.105,0.725,0.216,1.087,0.331c0.41,0.131,0.819,0.268,1.224,0.404c0.363,0.126,0.72,0.247,1.077,0.373
		c0.399,0.146,0.788,0.299,1.187,0.457c0.353,0.131,0.704,0.268,1.051,0.415c0.389,0.157,0.767,0.325,1.145,0.488
		c0.353,0.157,0.698,0.305,1.045,0.462c0.368,0.173,0.73,0.357,1.093,0.536c0.341,0.168,0.683,0.33,1.024,0.504
		c0.356,0.184,0.709,0.378,1.061,0.572c0.331,0.184,0.667,0.357,0.992,0.546c0.342,0.194,0.678,0.404,1.02,0.609
		c0.32,0.199,0.646,0.389,0.966,0.588c0.252,0.158,0.494,0.331,0.74,0.494c0.725,0.478,1.434,0.972,2.127,1.48
		c0.273,0.2,0.547,0.389,0.81,0.594c0.336,0.258,0.661,0.525,0.987,0.793c0.257,0.205,0.52,0.404,0.767,0.62
		c0.325,0.272,0.635,0.551,0.955,0.835c0.242,0.215,0.489,0.425,0.726,0.651c0.31,0.283,0.608,0.577,0.908,0.871
		c0.231,0.227,0.462,0.446,0.688,0.678c0.295,0.3,0.583,0.609,0.872,0.914c0.21,0.23,0.431,0.467,0.641,0.698
		c0.278,0.315,0.557,0.636,0.83,0.956c0.194,0.241,0.399,0.478,0.594,0.725c0.262,0.325,0.53,0.662,0.782,1.003
		c0.184,0.236,0.367,0.478,0.546,0.725c0.252,0.353,0.504,0.698,0.746,1.056c0.168,0.236,0.331,0.488,0.488,0.735
		c0.236,0.362,0.478,0.73,0.704,1.103c0.146,0.242,0.294,0.488,0.436,0.735c0.226,0.384,0.446,0.767,0.661,1.155
		c0.127,0.236,0.247,0.479,0.373,0.72c0.216,0.41,0.426,0.819,0.625,1.234c0.1,0.221,0.194,0.431,0.294,0.651
		c0.205,0.451,0.41,0.897,0.599,1.354c0.063,0.163,0.121,0.32,0.189,0.483c0.94,2.379,1.67,4.857,2.158,7.421
		c0.026,0.131,0.058,0.257,0.079,0.389c0.089,0.524,0.168,1.056,0.247,1.586c0.257,1.875,0.409,3.786,0.409,5.74
		c0,5.739-0.314,11.238-1.323,16.316h3.592c0.909-5.43,1.177-11.275,1.177-17.372C120.679,51.375,120.647,50.425,120.59,49.469z"/>
	<path fill="#C65954" d="M8.712,63.916c-0.273-1.843-0.699-5.961-0.604-8.051c0.084-1.843,0.935-2.138,1.896-2.326
		c0.83-0.158,1.775-0.32,2.353-0.347c1.324-0.068,1.459,0.84,1.333,1.644c-0.341,2.2-0.504,5.588-0.031,8.335L8.712,63.916z"/>
	<path fill="#C65954" d="M120.679,63.916c0.273-1.843,0.698-5.961,0.604-8.051c-0.089-1.843-0.935-2.138-1.896-2.326
		c-0.83-0.158-1.775-0.32-2.353-0.347c-1.323-0.068-1.455,0.84-1.334,1.644c0.341,2.2,0.51,5.588,0.037,8.335L120.679,63.916z"/>
	<path fill="#BF3D16" d="M99.173,69.215c-0.819,4.228-6.375,32.692-9.228,47.334c-0.919,4.704,1.901,8.27,6.796,8.249
		c4.107-0.021,7.153-0.084,7.153-0.084l11.055-56.706c0,0-3.298-1.229-7.788-2.952C102.681,63.333,99.992,65.035,99.173,69.215z"/>
	<path fill="#F15A22" d="M125.494,80.569c-0.703-5.257-2.169-10.067-4.27-14.138c-0.01-0.011-0.01-0.016-0.021-0.036
		c0,0-2.904-0.562-3.771-0.73c-0.856-0.173-2.248-0.079-2.537,1.444c-0.268,1.345-11.107,56.964-11.396,58.424
		c-0.283,1.471,0.525,2.494,1.943,2.772c1.429,0.278,3.556,0.693,3.556,0.693c0.011-0.005,0.016-0.016,0.026-0.021
		c3.481-2.988,6.644-6.891,9.274-11.5c2.164-3.797,3.96-8.083,5.278-12.715c0.01-0.016,0.016-0.031,0.021-0.047
		c0.021-0.048,0.026-0.095,0.042-0.142c0.042-0.147,0.073-0.3,0.115-0.447c0.205-0.751,0.404-1.507,0.589-2.278
		c-0.026,0.047-0.058,0.1-0.084,0.146c0.188-0.804,0.409-1.581,0.566-2.405C126.125,92.953,126.287,86.478,125.494,80.569z"/>
	<path fill="#BF3D16" d="M30.822,69.215c0.829,4.228,6.381,32.692,9.232,47.334c0.919,4.704-1.901,8.27-6.796,8.249
		c-4.106-0.021-7.153-0.084-7.153-0.084L15.051,68.008c0,0,3.298-1.229,7.788-2.952C27.319,63.333,30.008,65.035,30.822,69.215z"/>
	<path fill="#F15A22" d="M4.505,80.569c0.704-5.257,2.164-10.067,4.27-14.138c0.01-0.011,0.01-0.016,0.021-0.036
		c0,0,2.909-0.562,3.765-0.73c0.861-0.173,2.253-0.079,2.542,1.444c0.268,1.345,11.107,56.964,11.391,58.424
		c0.289,1.471-0.52,2.494-1.942,2.772c-1.424,0.278-3.551,0.693-3.551,0.693c-0.011-0.005-0.016-0.016-0.026-0.021
		c-3.481-2.988-6.643-6.891-9.269-11.5c-2.169-3.797-3.965-8.083-5.289-12.715c-0.005-0.016-0.01-0.031-0.021-0.047
		c-0.016-0.048-0.021-0.095-0.037-0.142c-0.042-0.147-0.079-0.3-0.115-0.447c-0.205-0.751-0.41-1.507-0.588-2.278
		c0.026,0.047,0.058,0.1,0.084,0.146c-0.189-0.804-0.41-1.581-0.567-2.405C3.875,92.953,3.712,86.478,4.505,80.569z"/>
</g>
</svg>
