<?xml version="1.0" encoding="utf-8"?>
<!-- Generator: Adobe Illustrator 16.0.0, SVG Export Plug-In . SVG Version: 6.00 Build 0)  -->
<!DOCTYPE svg PUBLIC "-//W3C//DTD SVG 1.1//EN" "http://www.w3.org/Graphics/SVG/1.1/DTD/svg11.dtd">
<svg version="1.1" id="Layer_1" xmlns="http://www.w3.org/2000/svg" xmlns:xlink="http://www.w3.org/1999/xlink" x="0px" y="0px"
	 width="130px" height="130px" viewBox="0 0 130 130" enable-background="new 0 0 130 130" xml:space="preserve">
<rect fill="none" width="130" height="130"/>
<g>
	<path fill="#FDB813" d="M64.997,33.183l-41.82,30.177v49.729c0,6.324,5.178,11.508,11.5,11.508h18.69v-30.11h23.272v30.11h18.679
		c6.322,0,11.501-5.184,11.501-11.508v-49.73L64.997,33.183z"/>
	<path fill="#7C6A51" d="M126.628,49.885l-15.401-11.108c-2.564-1.854-23.661-17.075-26.225-18.918L69.82,8.898
		C67.263,7.044,65.124,5.5,65.106,5.46l-0.084-0.057h-0.046L64.895,5.46c-0.027,0.04-2.149,1.584-4.707,3.438L3.38,49.885
		c-2.564,1.851-3.151,5.465-1.295,8.024l2.156,3.009c1.246,1.73,3.28,2.462,5.258,2.27l55.484-40.04l0.007-0.01h0.025v0.01
		l55.495,40.04c1.975,0.192,4.012-0.539,5.243-2.27l2.168-3.009C129.765,55.35,129.189,51.735,126.628,49.885z"/>
	<path fill="#7C6A51" d="M106.558,29.668V11.399c0-3.155-2.578-5.747-5.742-5.747h-5.402c-3.163,0-5.74,2.592-5.74,5.747v6.072
		c0,3.159-2.107,4.229-4.671,2.387l26.225,18.918C108.662,36.922,106.558,32.826,106.558,29.668z"/>
</g>
</svg>
