<?xml version="1.0" encoding="utf-8"?>
<!-- Generator: Adobe Illustrator 16.0.0, SVG Export Plug-In . SVG Version: 6.00 Build 0)  -->
<!DOCTYPE svg PUBLIC "-//W3C//DTD SVG 1.1//EN" "http://www.w3.org/Graphics/SVG/1.1/DTD/svg11.dtd">
<svg version="1.1" id="Layer_1" xmlns="http://www.w3.org/2000/svg" xmlns:xlink="http://www.w3.org/1999/xlink" x="0px" y="0px"
	 width="130px" height="130px" viewBox="0 0 130 130" enable-background="new 0 0 130 130" xml:space="preserve">
<rect fill="none" width="130" height="130"/>
<g>
	<g>
		<path fill="#F6C37A" d="M25.092,81.071c-4.899,0-9.601-2.739-11.88-7.443c-3.175-6.553-0.434-14.445,6.122-17.62l65.29-31.626
			c6.556-3.18,14.443-0.432,17.618,6.122c3.176,6.553,0.437,14.446-6.119,17.621L30.831,79.75
			C28.98,80.645,27.019,81.071,25.092,81.071z"/>
	</g>
	<g>
		<path fill="#F6C37A" d="M38.883,106.941c-4.899,0-9.603-2.739-11.88-7.443c-3.176-6.553-0.434-14.445,6.119-17.621l65.293-31.621
			c6.554-3.184,14.444-0.436,17.619,6.118c3.176,6.553,0.434,14.445-6.122,17.621L44.622,105.62
			C42.77,106.514,40.81,106.941,38.883,106.941z"/>
	</g>
	<g>
		<path fill="#F15A22" d="M14.2,102.447c-4.897,0-9.601-2.74-11.878-7.443c-3.175-6.556-0.436-14.443,6.12-17.619l101.617-49.215
			c6.558-3.178,14.446-0.436,17.619,6.119c3.176,6.556,0.436,14.443-6.12,17.619L19.941,101.123
			C18.089,102.021,16.129,102.447,14.2,102.447z"/>
	</g>
	<g>
		<path fill="#FDB813" d="M31.969,86.067c-0.495,0-0.973-0.281-1.196-0.764c-0.308-0.658-0.02-1.444,0.641-1.751
			c0.623-0.29,0.5-2.283,0.407-3.738c-0.152-2.456-0.326-5.241,1.927-6.29c2.266-1.05,4.343,0.984,6.17,2.788
			c0.967,0.958,2.605,2.539,3.193,2.272c1.61-0.746,2.579-0.89,3.435-1.018c0.775-0.114,1.447-0.211,2.711-0.801
			c0.555-0.258,0.121-3.422-0.042-4.613c-0.425-3.092-0.863-6.289,1.46-7.366c2.193-1.03,4.149,0.621,5.719,1.944
			c1.306,1.104,2.29,1.863,2.906,1.57c0.663-0.309,0.641-1.907,0.621-3.316c-0.03-2.101-0.068-4.717,2.141-5.748
			c2.215-1.028,4.239,0.775,5.862,2.229c1.048,0.938,2.341,2.094,2.987,1.801c1.56-0.725,2.467-0.936,3.267-1.121
			c0.741-0.174,1.442-0.337,2.757-0.949c0.665-0.309,0.76-1.315,0.837-2.933c0.09-1.872,0.2-4.2,2.36-5.206
			c2.264-1.046,4.316,0.96,6.124,2.733c1.02,1,2.565,2.515,3.162,2.222c0.63-0.293,0.53-2.215,0.458-3.621
			c-0.121-2.394-0.26-5.106,1.979-6.148c1.337-0.623,1.94-1.031,2.579-1.46c0.695-0.469,1.416-0.956,2.943-1.667
			c2.246-1.046,4.246,0.841,6.012,2.506c1.04,0.984,2.486,2.314,3.083,2.035c0.658-0.306,1.444-0.024,1.753,0.639
			c0.309,0.661,0.02,1.447-0.639,1.753c-2.255,1.053-4.248-0.841-6.009-2.508c-1.038-0.98-2.465-2.336-3.086-2.032
			c-1.341,0.623-1.944,1.03-2.583,1.462c-0.695,0.469-1.413,0.954-2.939,1.665c-0.63,0.292-0.53,2.215-0.458,3.62
			c0.121,2.394,0.26,5.106-1.979,6.148c-2.272,1.057-4.314-0.956-6.124-2.73c-1.018-1-2.572-2.51-3.164-2.224
			c-0.665,0.311-0.76,1.319-0.84,2.94c-0.088,1.87-0.2,4.195-2.355,5.199c-1.563,0.729-2.474,0.94-3.274,1.125
			c-0.74,0.175-1.44,0.337-2.751,0.945c-2.213,1.037-4.236-0.775-5.859-2.229c-1.046-0.938-2.358-2.103-2.988-1.801
			c-0.661,0.308-0.639,1.907-0.619,3.319c0.031,2.1,0.066,4.718-2.145,5.745c-2.193,1.03-4.148-0.624-5.719-1.944
			c-1.306-1.102-2.286-1.851-2.907-1.57c-0.557,0.258-0.124,3.424,0.042,4.615c0.422,3.092,0.861,6.287-1.46,7.364
			c-1.612,0.75-2.581,0.894-3.44,1.02c-0.775,0.114-1.444,0.213-2.706,0.799c-2.26,1.055-4.336-0.986-6.159-2.785
			c-1.031-1.018-2.585-2.568-3.202-2.275c-0.623,0.289-0.498,2.279-0.407,3.735c0.154,2.457,0.326,5.245-1.931,6.293
			C32.345,86.028,32.156,86.067,31.969,86.067z"/>
	</g>
</g>
</svg>
