<?xml version="1.0" encoding="utf-8"?>
<!-- Generator: Adobe Illustrator 16.0.0, SVG Export Plug-In . SVG Version: 6.00 Build 0)  -->
<!DOCTYPE svg PUBLIC "-//W3C//DTD SVG 1.1//EN" "http://www.w3.org/Graphics/SVG/1.1/DTD/svg11.dtd">
<svg version="1.1" id="Layer_1" xmlns="http://www.w3.org/2000/svg" xmlns:xlink="http://www.w3.org/1999/xlink" x="0px" y="0px"
	 width="130px" height="130px" viewBox="0 0 130 130" enable-background="new 0 0 130 130" xml:space="preserve">
<rect fill="none" width="130" height="130"/>
<g>
	<polygon fill="#E44D26" points="121.56,1 65,1 65,1 8.44,1 19.047,115.978 65,129 65,129 65,129 65,129 65,129 110.953,115.978 	
		"/>
	<polygon fill="#F16529" points="65,10.365 65,119.27 65,119.27 102.218,108.717 111.289,10.365 	"/>
	<polygon fill="#FFFFFF" points="100.581,24.467 29.419,24.467 33.388,67.533 33.478,67.251 82.111,67.251 80.508,85.466 
		65.015,89.944 49.259,85.406 48.305,74.38 34.024,74.38 36.053,96.414 65,104.61 93.946,96.414 97.931,53.18 46.342,53.18 
		45.014,38.766 99.265,38.766 	"/>
	<g>
		<path fill="#EBEBEB" d="M65,24.467H29.419l3.969,43.066l0.09-0.282H65V53.18H46.342l-1.328-14.414H65V24.467z M48.305,74.38
			H34.024l2.029,22.034L65,104.61V89.938l-15.741-4.532L48.305,74.38z"/>
	</g>
</g>
</svg>
