<?xml version="1.0" encoding="utf-8"?>
<!-- Generator: Adobe Illustrator 16.0.0, SVG Export Plug-In . SVG Version: 6.00 Build 0)  -->
<!DOCTYPE svg PUBLIC "-//W3C//DTD SVG 1.1//EN" "http://www.w3.org/Graphics/SVG/1.1/DTD/svg11.dtd">
<svg version="1.1" id="Layer_1" xmlns="http://www.w3.org/2000/svg" xmlns:xlink="http://www.w3.org/1999/xlink" x="0px" y="0px"
	 width="130px" height="130px" viewBox="0 0 130 130" enable-background="new 0 0 130 130" xml:space="preserve">
<rect fill="none" width="130" height="130"/>
<g>
	<path fill="#C0956A" d="M85.425,66.591l-17.043,59.599c-0.588,2.058-2.734,3.248-4.79,2.66c-1.33-0.382-2.3-1.426-2.66-2.66
		L43.889,66.591c-3.28-11.47,3.361-23.43,14.831-26.708c11.467-3.278,23.425,3.361,26.705,14.831
		C86.571,58.717,86.48,62.857,85.425,66.591z"/>
	<path fill="#AF845D" d="M84.888,68.472l0.537-1.881c1.002-3.547,1.1-7.457,0.125-11.274c-3.915-0.94-20.985-3.42-20.985-3.42
		s-12.532,1.034-20.309,1.695c-1.406,4.057-1.636,8.56-0.367,12.999l5.281,18.466L84.888,68.472z"/>
	<path fill="#A4C553" d="M83.606,19.966c0,10.476-8.49,18.966-18.966,18.966c-10.473,0-18.964-8.491-18.964-18.966
		C45.677,9.496,54.168,1,64.641,1C75.116,1,83.606,9.496,83.606,19.966z"/>
	<path fill="#F15A22" d="M67.455,40.241c0,10.471-8.49,18.961-18.966,18.961c-10.471,0-18.961-8.491-18.961-18.961
		c0-10.475,8.49-18.966,18.961-18.966C58.965,21.274,67.455,29.766,67.455,40.241z"/>
	<path fill="#FDB813" d="M100.472,40.241c0,10.471-8.496,18.961-18.967,18.961c-10.473,0-18.964-8.491-18.964-18.961
		c0-10.475,8.491-18.966,18.964-18.966C91.976,21.274,100.472,29.766,100.472,40.241z"/>
	<path fill="#C0956A" d="M100.045,61.687c0,2.7-2.207,4.904-4.904,4.904H35.108c-2.697,0-4.904-2.205-4.904-4.904v-20.24h4.904
		h60.032h4.904V61.687z"/>
</g>
</svg>
