<?xml version="1.0" encoding="utf-8"?>
<!-- Generator: Adobe Illustrator 16.0.0, SVG Export Plug-In . SVG Version: 6.00 Build 0)  -->
<!DOCTYPE svg PUBLIC "-//W3C//DTD SVG 1.1//EN" "http://www.w3.org/Graphics/SVG/1.1/DTD/svg11.dtd">
<svg version="1.1" id="Layer_1" xmlns="http://www.w3.org/2000/svg" xmlns:xlink="http://www.w3.org/1999/xlink" x="0px" y="0px"
	 width="130px" height="130px" viewBox="0 0 130 130" enable-background="new 0 0 130 130" xml:space="preserve">
<rect fill="none" width="130" height="130"/>
<g>
	<g>
		<g>
			<path fill="#C0956A" d="M65.003,129c-4.154,0-7.514-3.361-7.514-7.512V87.265c0-4.15,3.359-7.512,7.514-7.512
				c4.143,0,7.512,3.361,7.512,7.512v34.224C72.516,125.639,69.146,129,65.003,129z"/>
		</g>
	</g>
	<path fill="#FDB813" d="M64.997,1c-18.82,0-34.22,16.771-34.22,37.267V50.84v11.49v28.247c0,5.855,4.792,10.647,10.647,10.647
		h47.15c5.857,0,10.648-4.792,10.648-10.647V62.33V50.84V38.267C99.223,17.771,83.824,1,64.997,1z"/>
	<path fill="#F15A22" d="M30.777,53.858v8.472v28.247c0,5.855,4.792,10.647,10.647,10.647h47.15c5.857,0,10.648-4.792,10.648-10.647
		V62.33v-8.472H30.777z"/>
	<g>
		<g>
			<path fill="#E29B0E" d="M52.691,84.751c-3.111,0-5.635-2.523-5.635-5.635V35.93c0-3.106,2.523-5.635,5.635-5.635
				c3.108,0,5.637,2.528,5.637,5.635v43.186C58.328,82.228,55.799,84.751,52.691,84.751z"/>
		</g>
		<g>
			<path fill="#E29B0E" d="M77.309,84.751c-3.111,0-5.635-2.523-5.635-5.635V35.93c0-3.106,2.523-5.635,5.635-5.635
				s5.635,2.528,5.635,5.635v43.186C82.943,82.228,80.42,84.751,77.309,84.751z"/>
		</g>
	</g>
	<g>
		<path fill="#CC4015" d="M52.691,84.751c3.108,0,5.637-2.523,5.637-5.635V53.858H47.056v25.258
			C47.056,82.228,49.58,84.751,52.691,84.751z"/>
		<path fill="#CC4015" d="M71.674,53.858v25.258c0,3.111,2.523,5.635,5.635,5.635s5.635-2.523,5.635-5.635V53.858H71.674z"/>
	</g>
</g>
</svg>
