<?xml version="1.0" encoding="utf-8"?>
<!-- Generator: Adobe Illustrator 16.0.0, SVG Export Plug-In . SVG Version: 6.00 Build 0)  -->
<!DOCTYPE svg PUBLIC "-//W3C//DTD SVG 1.1//EN" "http://www.w3.org/Graphics/SVG/1.1/DTD/svg11.dtd">
<svg version="1.1" id="Layer_1" xmlns="http://www.w3.org/2000/svg" xmlns:xlink="http://www.w3.org/1999/xlink" x="0px" y="0px"
	 width="130px" height="130px" viewBox="0 0 130 130" enable-background="new 0 0 130 130" xml:space="preserve">
<rect fill="none" width="130" height="130"/>
<g>
	<g>
		<g>
			<path fill="#FFF6E4" d="M124.801,19.652H5.191c-2.1,0-3.816,1.705-3.816,3.79v83.121c0,2.086,1.717,3.785,3.816,3.785h119.609
				c2.1,0,3.823-1.699,3.823-3.785V23.441C128.624,21.357,126.9,19.652,124.801,19.652z"/>
		</g>
		<g>
			<path fill="#EEE3D1" d="M124.801,19.652h-59.8v90.696h59.8c2.1,0,3.823-1.699,3.823-3.785V23.441
				C128.624,21.357,126.9,19.652,124.801,19.652z"/>
		</g>
		<g>
			<path fill="#42443D" d="M111.028,62.764H74.243c-0.696,0-1.267,0.57-1.267,1.267v1.943c0,0.697,0.57,1.272,1.267,1.272h36.785
				c0.691,0,1.267-0.575,1.267-1.272v-1.943C112.295,63.334,111.72,62.764,111.028,62.764z M111.028,78.756H74.243
				c-0.696,0-1.267,0.569-1.267,1.271v1.943c0,0.696,0.57,1.271,1.267,1.271h36.785c0.691,0,1.267-0.575,1.267-1.271v-1.943
				C112.295,79.325,111.72,78.756,111.028,78.756z"/>
		</g>
		<g>
			<path fill="#CB5A7C" d="M111.028,46.763H74.243c-0.696,0-1.267,0.575-1.267,1.271v1.943c0,0.697,0.57,1.267,1.267,1.267h36.785
				c0.691,0,1.267-0.57,1.267-1.267v-1.943C112.295,47.338,111.72,46.763,111.028,46.763z"/>
		</g>
		<g>
			<path fill="#489EBA" d="M33.819,62.487c6.521,0,11.812-5.285,11.812-11.817c0-6.518-5.292-11.807-11.812-11.807
				c-6.526,0-11.807,5.29-11.807,11.807C22.013,57.202,27.293,62.487,33.819,62.487z M51.44,88.098l-0.127-0.643
				c-0.955-4.106-3.828-13.834-5.704-16.195c-2.532-4.638-9.739-4.418-9.739-4.418h-5.73c0,0-5.326-0.186-8.383,4.198
				C20.13,73.383,17.6,82.418,16.54,86.959c-0.189,0.705-0.248,1.129-0.248,1.129c-0.432,1.68,0.641,3.055,2.367,3.055h30.443
				C50.839,91.143,51.886,89.773,51.44,88.098z"/>
		</g>
	</g>
	<g>
		<g>
			<path fill="#CEBBAA" d="M124.801,110.723H5.191c-2.312,0-4.191-1.865-4.191-4.16V23.441c0-2.296,1.88-4.165,4.191-4.165h119.609
				c2.313,0,4.199,1.868,4.199,4.165v83.121C129,108.857,127.114,110.723,124.801,110.723z M5.191,20.027
				c-1.897,0-3.441,1.532-3.441,3.415v83.121c0,1.881,1.544,3.41,3.441,3.41h119.609c1.902,0,3.448-1.529,3.448-3.41V23.441
				c0-1.882-1.546-3.415-3.448-3.415H5.191z"/>
		</g>
	</g>
</g>
</svg>
