<?xml version="1.0" encoding="utf-8"?>
<!-- Generator: Adobe Illustrator 16.0.0, SVG Export Plug-In . SVG Version: 6.00 Build 0)  -->
<!DOCTYPE svg PUBLIC "-//W3C//DTD SVG 1.1//EN" "http://www.w3.org/Graphics/SVG/1.1/DTD/svg11.dtd">
<svg version="1.1" id="Layer_1" xmlns="http://www.w3.org/2000/svg" xmlns:xlink="http://www.w3.org/1999/xlink" x="0px" y="0px"
	 width="130px" height="130px" viewBox="0 0 130 130" enable-background="new 0 0 130 130" xml:space="preserve">
<rect fill="none" width="130" height="130"/>
<g>
	<path fill="#A4C553" d="M112.734,26.126H83.662c-3.49,0-6.311,2.828-6.311,6.321c0,3.485,2.82,6.313,6.311,6.313h22.756v77.617
		H23.572V38.76h22.644c3.49,0,6.31-2.828,6.31-6.313c0-3.493-2.82-6.321-6.31-6.321H17.261c-3.485,0-6.316,2.828-6.316,6.321v90.242
		c0,3.488,2.831,6.311,6.316,6.311h95.473c3.484,0,6.32-2.822,6.32-6.311V32.447C119.055,28.954,116.219,26.126,112.734,26.126z"/>
	<path fill="#7C6A51" d="M85.875,71.826c-1.638-1.649-4.293-1.664-5.953-0.029L69.217,82.406v-66.56C69.217,7.656,62.597,1,54.473,1
		H43.949c-2.325,0-4.209,1.879-4.209,4.208c0,2.325,1.884,4.209,4.209,4.209h10.524c3.485,0,6.321,2.882,6.321,6.43v66.593
		L50.036,71.797c-1.649-1.635-4.31-1.624-5.949,0.032c-1.638,1.645-1.622,4.315,0.027,5.954l16.994,16.812
		c0.627,1.546,2.123,2.645,3.895,2.645c1.778,0,3.283-1.114,3.906-2.675l16.94-16.782C87.503,76.145,87.52,73.474,85.875,71.826z"/>
</g>
</svg>
