<?xml version="1.0" encoding="utf-8"?>
<!-- Generator: Adobe Illustrator 16.0.0, SVG Export Plug-In . SVG Version: 6.00 Build 0)  -->
<!DOCTYPE svg PUBLIC "-//W3C//DTD SVG 1.1//EN" "http://www.w3.org/Graphics/SVG/1.1/DTD/svg11.dtd">
<svg version="1.1" id="Layer_1" xmlns="http://www.w3.org/2000/svg" xmlns:xlink="http://www.w3.org/1999/xlink" x="0px" y="0px"
	 width="130px" height="130px" viewBox="0 0 130 130" enable-background="new 0 0 130 130" xml:space="preserve">
<rect fill="none" width="130" height="130"/>
<g>
	<path fill="#DD4414" d="M115.653,1.009H4.675C2.641,1.009,1,2.649,1,4.678v110.97c0,2.028,1.641,3.668,3.675,3.668h13.87v-7.337
		H8.338V8.347h103.646v10.207h7.338V4.678C119.322,2.649,117.682,1.009,115.653,1.009z"/>
	<rect x="17.88" y="17.889" fill="#F15A22" width="111.12" height="111.102"/>
	<path fill="#FFFFFF" d="M92.84,60.437h-0.012c-2.682,0-4.851,2.167-4.851,4.845L87.948,81.11L57.732,50.9
		c-1.893-1.896-4.974-1.896-6.861,0c-1.893,1.896-1.893,4.966,0,6.868l30.163,30.154h-15.74c-2.681,0-4.857,2.169-4.857,4.859
		c0,2.682,2.176,4.856,4.857,4.856h27.493c2.676,0,4.845-2.169,4.856-4.854l0.047-27.487C97.69,62.616,95.521,60.443,92.84,60.437z"
		/>
</g>
</svg>
