<?xml version="1.0" encoding="utf-8"?>
<!-- Generator: Adobe Illustrator 16.0.0, SVG Export Plug-In . SVG Version: 6.00 Build 0)  -->
<!DOCTYPE svg PUBLIC "-//W3C//DTD SVG 1.1//EN" "http://www.w3.org/Graphics/SVG/1.1/DTD/svg11.dtd">
<svg version="1.1" id="Layer_1" xmlns="http://www.w3.org/2000/svg" xmlns:xlink="http://www.w3.org/1999/xlink" x="0px" y="0px"
	 width="130px" height="130px" viewBox="0 0 130 130" enable-background="new 0 0 130 130" xml:space="preserve">
<rect fill="none" width="130" height="130"/>
<g>
	<path fill="#A4C553" d="M112.732,26.131H83.665c-3.487,0-6.314,2.824-6.314,6.312c0,3.489,2.827,6.316,6.314,6.316h22.755v77.617
		H23.578V38.76h22.641c3.484,0,6.315-2.827,6.315-6.316c0-3.488-2.831-6.312-6.315-6.312H17.266c-3.49,0-6.315,2.824-6.315,6.312
		v90.246c0,3.487,2.825,6.31,6.315,6.31h95.467c3.484,0,6.317-2.822,6.317-6.31V32.443C119.05,28.955,116.217,26.131,112.732,26.131
		z"/>
	<path fill="#7C6A51" d="M85.879,71.826c-1.637-1.65-4.299-1.663-5.954-0.03l-10.712,10.61V15.849c0-8.191-6.61-14.848-14.74-14.848
		H43.952c-2.325,0-4.211,1.879-4.211,4.208c0,2.323,1.886,4.21,4.211,4.21h10.521c3.488,0,6.323,2.882,6.323,6.43v66.591
		L50.039,71.796c-1.649-1.633-4.31-1.622-5.951,0.033c-1.639,1.646-1.617,4.316,0.029,5.949l16.99,16.817
		c0.625,1.544,2.125,2.645,3.895,2.645c1.779,0,3.282-1.115,3.902-2.677l16.942-16.785C87.501,76.146,87.515,73.475,85.879,71.826z"
		/>
</g>
</svg>
