<?xml version="1.0" encoding="utf-8"?>
<!-- Generator: Adobe Illustrator 16.0.0, SVG Export Plug-In . SVG Version: 6.00 Build 0)  -->
<!DOCTYPE svg PUBLIC "-//W3C//DTD SVG 1.1//EN" "http://www.w3.org/Graphics/SVG/1.1/DTD/svg11.dtd">
<svg version="1.1" id="Layer_1" xmlns="http://www.w3.org/2000/svg" xmlns:xlink="http://www.w3.org/1999/xlink" x="0px" y="0px"
	 width="130px" height="130px" viewBox="0 0 130 130" enable-background="new 0 0 130 130" xml:space="preserve">
<rect fill="none" width="130" height="130"/>
<g id="Instagram_icon_2_">
	<path fill="#3B82B9" d="M112.562,1.027H17.444C8.405,1.027,1,8.405,1,17.424v95.159c0,9.02,7.405,16.39,16.444,16.39h95.118
		c9.047,0,16.438-7.37,16.438-16.39V17.424C129,8.405,121.609,1.027,112.562,1.027z M92.45,21.106c0-2.669,2.182-4.851,4.857-4.851
		h11.613c2.669,0,4.857,2.182,4.857,4.851v11.593c0,2.669-2.188,4.852-4.857,4.852H97.308c-2.676,0-4.857-2.183-4.857-4.852V21.106z
		 M65,37.584c15.147,0,27.423,12.256,27.423,27.382c0,15.127-12.275,27.39-27.423,27.39s-27.423-12.263-27.423-27.39
		C37.577,49.84,49.853,37.584,65,37.584z M116.9,111.691c0,2.797-2.284,5.066-5.088,5.066H18.329c-2.804,0-5.087-2.27-5.087-5.066
		V55.812H26.43c-0.689,2.932-1.094,5.972-1.094,9.106c0,21.903,17.782,39.658,39.711,39.658c21.938,0,39.713-17.755,39.713-39.658
		c0-3.142-0.446-6.175-1.143-9.106H116.9V111.691z"/>
</g>
</svg>
