<?xml version="1.0" encoding="utf-8"?>
<!-- Generator: Adobe Illustrator 16.0.0, SVG Export Plug-In . SVG Version: 6.00 Build 0)  -->
<!DOCTYPE svg PUBLIC "-//W3C//DTD SVG 1.1//EN" "http://www.w3.org/Graphics/SVG/1.1/DTD/svg11.dtd">
<svg version="1.1" id="Layer_1" xmlns="http://www.w3.org/2000/svg" xmlns:xlink="http://www.w3.org/1999/xlink" x="0px" y="0px"
	 width="130px" height="130px" viewBox="0 0 130 130" enable-background="new 0 0 130 130" xml:space="preserve">
<rect fill="none" width="130" height="130"/>
<g>
	<path fill="#FA7100" d="M101.418,70.004l-2.036,1.481c-0.188,8.969-2.302,24.945-14.753,44.548l3.303,2.246
		C94.957,105.994,101.663,89.131,101.418,70.004z"/>
	<path fill="#A4C553" d="M104.429,62.398c-0.005-0.017-0.005-0.035-0.005-0.048c7.444-3.893,18.589-6.938,21.141,2.752
		c2.276-5.662,0.244-10.834-3.573-13.329c-4.482-12.093-17.223-11.171-20.805-0.533c1.153-11.896-6.12-21.892-13.272-15.177
		c1.992,1.005,4.221,3.46,6.051,6.754c-6.858-5.129-16.418-2.272-19.196,5.937c10.791-2.796,16.566,3.63,20.507,9.555
		c-17.13-13.456-27.309,3.608-25.217,11.827c5.204-6.707,12.495-8.201,18.686-8.065c-5.539,1.773-9.65,7.951-4.583,22.779
		c2.312-4.076,6.139-14.793,11.888-18.733c0.109,0.502,0.358,0.974,0.769,1.332c0.079,0.07,0.162,0.122,0.249,0.18
		c-0.598,1.018-0.423,2.342,0.49,3.146c0.532,0.476,1.21,0.821,1.883,0.751c1.424-0.157,1.603-1.014,1.979-1.521
		c0.022-0.034,0.074-0.131,0.092-0.17c0.812,0.131,1.704-0.162,2.298-0.826c0.088-0.096,0.162-0.214,0.231-0.318
		c7.379,8.873,6.16,16.999,2.11,23.604c13.451-8.274,10.966-18.266,4.906-24.194c6.588,3.635,12.849,9.663,9.913,18.174
		C133.516,76.111,124.577,57.378,104.429,62.398z M103.546,60.423c-0.062-0.065-0.122-0.126-0.192-0.188
		c-0.127-0.113-0.267-0.209-0.406-0.301c2.149-4.438,7.527-15.937,15.767-9.52C113.952,49.418,107.958,51.931,103.546,60.423z"/>
	<path fill="#A4C553" d="M45.188,47.859c0.586,1.896,1.468,3.325,1.844,4.142c0.861,1.87,2.652,4.806,3.919,13.521
		c1.258,8.703,7.178,12.01,9.878,12.7c0.467-1.687,1-7.471-1.73-19.135c-1.56-6.675-4.425-11.485-7.265-14.989
		c0.013-0.013,0.03-0.026,0.048-0.039c0.8,0.646,1.63,1.197,2.42,1.625c1.201-3.25,0.826-5.963,0.132-8.571
		c1.843,3.25,1.013,7.239,0.664,8.964c0.449,0.21,0.882,0.367,1.267,0.477c0.144,0.039,0.297,0.087,0.445,0.135
		c0.293-1.014,0.782-2.77,0.979-3.783c0.528,2.293,0.018,3.574-0.145,4.207c1.088,0.494,2.622,1.241,3.779,2.102
		c0.826-1.774,1.271-5.116,1.459-7.056c0.538,2.503-0.314,5.728-0.882,7.501c1.236,1.009,2.424,2.207,3.372,3.539
		c2.412,3.408,3.451,4.623,5.902,5.824c3.727-3.316,5.028-11.905-3.928-17.938c-4.984-3.355-9.515-4.684-13.119-5.037
		c-0.179-1.079-0.507-2.146-1.009-3.098c4.723-1.595,10.101-1.123,10.528,1.835c0.69,4.827,8.213,8.903,9.848,6.3
		c7.457-15.929-0.616-23.438-9.913-20.481c3.923-2.499,7.549-6.186,8.895-9.755c-14.569-2.84-22.022,9.384-25.609,18.786
		c-0.175-0.035-0.345-0.061-0.52-0.079c0.69-3.019,0.97-7.222-0.166-12.945C43.93,4.875,38.857,0.567,29.137,1.034
		c1.656,3.98,4.186,9.375,5.514,13.535c0.419,1.293,1.192,3.473,2.123,5.972c-1.556-0.258-3.22-0.17-4.814,0.367
		c-1.358-0.856-2.826-1.616-4.417-2.215c-9.235-3.482-13.661-2.84-14.919-2.246c0.765,3.425,3.818,10.957,10.651,12.573
		c0.594,0.145,1.148,0.293,1.677,0.441c-0.087,0.341-0.17,0.69-0.24,1.057c0.512-0.022,1.162-0.253,1.909-0.542
		c4.334,1.468,6.165,3.146,7.405,4.032c0.441,0.319,1.102,0.922,1.939,1.512c-1.463-0.629-3.146-1.245-4.875-1.761
		c-4.482-1.337-11.616-2.962-18.31,4.386c-6.685,7.353,1.21,14.959,3.216,15.924c-0.682-6.112,5.308-10.651,13.289-11.097
		c0.441-0.026,0.865-0.061,1.276-0.105c-2.416,1.669-4.439,3.854-5.47,6.558c-2.232,5.854-2.407,13.246,5.535,19.297
		c2.49-2.849,3.001-4.491,3.932-11.822c0.463-3.596,0.659-5.658,6.558-10.25c0.341-0.266,0.65-0.524,0.943-0.777L45.188,47.859z"/>
	<path fill="#FA7100" d="M43.877,52.438c0.323-1.49,0.791-2.993,1.293-4.522c-0.528-2.464-3.11-2.04-3.11-2.04
		c0.005,2.271-0.14,4.609-0.625,6.475c-2.201,8.62-5.675,20.953-8.453,33.884c-2.031,9.449-1.892,23.482-1.634,33.679l6.217-1.372
		c-1.643-19.681-2.351-27.881,0.424-39.825C39.177,73.561,41.881,61.542,43.877,52.438z"/>
	<path fill="#F2C62A" d="M128.648,129C112.878,117.262,90.199,109.9,65,109.9S17.127,117.262,1.352,129H128.648z"/>
</g>
</svg>
