<?xml version="1.0" encoding="utf-8"?>
<!-- Generator: Adobe Illustrator 16.0.0, SVG Export Plug-In . SVG Version: 6.00 Build 0)  -->
<!DOCTYPE svg PUBLIC "-//W3C//DTD SVG 1.1//EN" "http://www.w3.org/Graphics/SVG/1.1/DTD/svg11.dtd">
<svg version="1.1" id="Layer_1" xmlns="http://www.w3.org/2000/svg" xmlns:xlink="http://www.w3.org/1999/xlink" x="0px" y="0px"
	 width="130px" height="130px" viewBox="0 0 130 130" enable-background="new 0 0 130 130" xml:space="preserve">
<rect fill="none" width="130" height="130"/>
<g>
	<g>
		<g>
			<path fill="#C93614" d="M81.784,22.682C63.243,27.19,53.438,52.33,59.882,78.827c6.446,26.497,26.698,44.325,45.239,39.816
				c18.538-4.508,28.342-29.643,21.9-56.145C120.574,36.001,100.323,18.178,81.784,22.682z M87.045,44.323
				c-3.881,0.946-7.789-1.436-8.732-5.317c-0.943-3.876,1.436-7.787,5.317-8.733c3.878-0.941,7.789,1.441,8.732,5.317
				C93.306,39.471,90.924,43.382,87.045,44.323z"/>
			<path fill="#F15A22" d="M79.66,23.202c-18.539,4.508-28.342,29.643-21.898,56.14c6.442,26.502,26.696,44.325,45.234,39.816
				c18.539-4.503,28.345-29.643,21.9-56.14C118.452,36.516,98.201,18.693,79.66,23.202z M84.923,44.842
				c-3.878,0.941-7.789-1.436-8.732-5.317c-0.943-3.881,1.436-7.792,5.317-8.732c3.879-0.946,7.789,1.436,8.732,5.312
				C91.184,39.986,88.802,43.896,84.923,44.842z"/>
		</g>
	</g>
	<g>
		<g>
			<path fill="#C1BAA7" d="M22.638,103.619l-3.714,7.62l2.629-1.27c0.223-0.098,0.598-0.578,0.833-1.059l0.546-1.127
				c0.238-0.485,0.387-1.083,0.324-1.309L22.638,103.619z"/>
			<path fill="#C1BAA7" d="M26.502,95.689l-3.712,7.616l3.906-0.652c0.218-0.088,0.598-0.563,0.835-1.054l0.549-1.127
				c0.238-0.485,0.377-1.073,0.314-1.304L26.502,95.689z"/>
			<path fill="#D1C9B4" d="M66.716,38.511c-4.538-13.163-18.895-20.161-32.06-15.623C21.53,27.406,14.52,41.794,19.043,54.922
				c0.461,1.338,1.022,2.627,1.777,4.004c0.235,0.338,0.458,0.691,0.632,1.049c1.561,3.087,1.593,6.616,0.083,9.708L1.918,110.328
				c-2.198,4.513-0.313,9.977,4.2,12.178c2.041,0.994,4.332,1.2,6.483,0.593l0.524-0.167c2.291-0.789,4.133-2.436,5.194-4.606
				l12.158-24.948c1.5-3.078,11.795-20.955,15.155-21.616c0.414-0.068,0.809-0.123,1.379-0.191c1.373-0.221,2.75-0.563,4.085-1.02
				C64.23,66.018,71.241,51.634,66.716,38.511z M49.546,46.92c-2.186,0.76-4.508,0.603-6.589-0.387
				c-2.048-1-3.597-2.754-4.342-4.939c-1.546-4.479,0.838-9.37,5.317-10.914c4.477-1.543,9.387,0.848,10.933,5.327
				C56.404,40.485,54.021,45.376,49.546,46.92z"/>
			<path fill="#C1BAA7" d="M30.753,92.2c0.238-0.479,0.377-1.067,0.321-1.303l-0.803-2.94l-3.712,7.62l2.813-1.186
				c0.218-0.099,0.593-0.569,0.833-1.059L30.753,92.2z"/>
		</g>
		<g>
			<path fill="#B5AA91" d="M25.982,102.697l-3.712,7.615l3.906-0.651c0.218-0.088,0.598-0.563,0.835-1.054l0.549-1.127
				c0.238-0.485,0.377-1.073,0.314-1.304L25.982,102.697z M38.498,57.324L6.782,122.795c1.865,0.734,3.898,0.848,5.819,0.304
				l0.524-0.167c2.291-0.789,4.133-2.436,5.194-4.606l12.158-24.948c1.5-3.078,11.795-20.955,15.155-21.616
				c0.414-0.068,0.809-0.123,1.379-0.191c1.373-0.221,2.75-0.563,4.085-1.02c2.563-0.887,4.883-2.151,6.941-3.704L38.498,57.324z
				 M30.233,99.208c0.238-0.479,0.377-1.068,0.321-1.303l-0.804-2.94l-3.712,7.62l2.813-1.186c0.218-0.099,0.593-0.569,0.833-1.059
				L30.233,99.208z M22.118,110.627l-3.714,7.62l2.629-1.27c0.223-0.098,0.598-0.578,0.833-1.059l0.546-1.127
				c0.238-0.485,0.387-1.083,0.324-1.309L22.118,110.627z"/>
		</g>
		<path fill="#FDB813" d="M54.437,23.089C41.36,16.713,25.593,22.148,19.22,35.223c-6.375,13.079-0.941,28.849,12.136,35.22
			c13.077,6.376,28.846,0.941,35.222-12.139C72.951,45.229,67.515,29.464,54.437,23.089z M48.752,44.631
			c-1.568,0.544-3.237,0.431-4.729-0.279c-1.473-0.715-2.583-1.975-3.119-3.543c-1.107-3.215,0.603-6.729,3.817-7.831
			c3.215-1.112,6.738,0.607,7.848,3.822C53.675,40.01,51.965,43.524,48.752,44.631z"/>
	</g>
	<g>
		<path fill="#DEDEDE" d="M84.509,22.535c0.029,0.083,0.066,0.162,0.096,0.24c0.013,0.04,0.022,0.074,0.034,0.108
			c0.613,1.759,0.953,3.651,0.953,5.616c0,0.725-0.051,1.44-0.14,2.142c-0.002,0.029-0.01,0.054-0.015,0.083
			c-0.007,0.069-0.026,0.137-0.034,0.211c1.526,0.485,2.867,1.47,3.781,2.818c0.107-0.421,0.213-0.838,0.294-1.27
			c0.083-0.426,0.145-0.857,0.2-1.293c0.113-0.882,0.18-1.779,0.18-2.69c0-1.818-0.233-3.587-0.662-5.273
			c-0.026-0.113-0.066-0.221-0.098-0.329c-0.01-0.044-0.029-0.088-0.042-0.132C87.545,22.555,86.025,22.471,84.509,22.535z"/>
		<path fill="#B09E77" d="M87.731,22.682c-0.027-0.108-0.066-0.211-0.096-0.319C85.166,13.268,76.853,6.56,66.99,6.56
			c-8.814,0-16.397,5.356-19.676,12.986c-1.11,2.587-1.725,5.43-1.725,8.419c0,0.245,0.012,0.49,0.022,0.74
			c0.066,1.941,0.387,3.823,0.941,5.602l5.633,2.269c-1.145-1.965-1.917-4.17-2.203-6.528c-0.083-0.681-0.13-1.377-0.13-2.083
			c0-2.656,0.605-5.17,1.686-7.415c2.769-5.748,8.654-9.728,15.452-9.728c7.443,0,13.79,4.773,16.151,11.418
			c0.01,0.034,0.02,0.068,0.032,0.103c0.612,1.764,0.953,3.651,0.953,5.621c0,0.725-0.052,1.436-0.14,2.142
			c-0.003,0.024-0.01,0.049-0.015,0.078c-0.518,3.979-2.406,7.532-5.178,10.174c0.62,1.313,1.622,2.406,2.862,3.141
			c3.215-3.039,5.503-7.037,6.355-11.556c0.081-0.426,0.147-0.857,0.201-1.293c0.112-0.882,0.179-1.779,0.179-2.686
			C88.393,26.142,88.162,24.373,87.731,22.682z"/>
		<path fill="#D9C393" d="M86.391,22.461c-0.017-0.063-0.041-0.123-0.059-0.186C83.833,13.229,75.541,6.56,65.708,6.56
			c-8.779,0-16.338,5.317-19.634,12.893c-1.134,2.612-1.767,5.489-1.767,8.512c0,0.265,0.015,0.529,0.025,0.794
			c0.063,1.715,0.326,3.372,0.771,4.964l5.427,2.186c-1.046-1.99-1.708-4.209-1.899-6.562c-0.037-0.456-0.059-0.917-0.059-1.382
			c0-2.803,0.676-5.444,1.872-7.782c2.842-5.552,8.613-9.36,15.262-9.36c7.461,0,13.819,4.798,16.167,11.462
			c0.022,0.063,0.037,0.132,0.062,0.196c0.583,1.72,0.909,3.563,0.909,5.484c0,0.715-0.049,1.416-0.135,2.107
			c-0.022,0.172-0.062,0.338-0.089,0.51c-0.52,3.367-2.019,6.405-4.199,8.826c0.44,1.441,1.323,2.681,2.484,3.583
			c3.129-3.166,5.293-7.287,5.969-11.894c0.044-0.279,0.066-0.568,0.098-0.853c0.081-0.75,0.135-1.509,0.135-2.279
			C87.108,26.063,86.856,24.216,86.391,22.461z"/>
	</g>
	<g>
		<path fill="#FFF6E4" d="M83.806,96.748l-5.998-30.055l-5.016,1l-0.821-4.112c1.378-0.446,2.617-1.25,3.715-2.411
			c1.098-1.156,1.796-2.436,2.1-3.837l4.112-0.818l7.794,39.062L83.806,96.748z"/>
		<path fill="#FFF6E4" d="M102.403,87.207c2.698-0.539,3.798-2.063,3.298-4.572l-0.46-2.303c-0.797-4.004-3.296-5.587-7.491-4.749
			l-1.004-5.038c2.261-0.455,3.808-1.421,4.633-2.9c0.77-1.338,0.951-3.039,0.542-5.092l-0.182-0.902
			c-0.51-2.548-1.887-3.602-4.129-3.156c-1.244,0.25-2.062,0.906-2.455,1.975c-0.294,0.809-0.323,1.789-0.091,2.945l0.201,1.024
			l-5.761,1.146l-0.181-0.901c-0.557-2.784-0.302-5.185,0.762-7.214c1.203-2.313,3.257-3.759,6.165-4.337
			c2.761-0.554,5.157-0.059,7.191,1.48c1.833,1.382,2.999,3.333,3.501,5.841l0.329,1.651c0.484,2.431,0.174,4.675-0.927,6.729
			c-0.473,0.872-1.073,1.651-1.801,2.333c1.938,0.627,3.587,1.848,4.939,3.646c0.701,0.922,1.198,2.107,1.487,3.558l0.615,3.083
			c0.576,2.891,0.062,5.454-1.541,7.693c-1.534,2.166-3.629,3.514-6.287,4.043c-2.596,0.52-4.979,0.044-7.15-1.426
			c-2.173-1.466-3.511-3.475-4.023-6.027l-0.193-0.966l5.521-1.559l0.399,1.348c0.276,0.961,0.786,1.69,1.521,2.19
			C100.57,87.251,101.428,87.403,102.403,87.207z"/>
	</g>
</g>
</svg>
