<?xml version="1.0" encoding="utf-8"?>
<!-- Generator: Adobe Illustrator 16.0.0, SVG Export Plug-In . SVG Version: 6.00 Build 0)  -->
<!DOCTYPE svg PUBLIC "-//W3C//DTD SVG 1.1//EN" "http://www.w3.org/Graphics/SVG/1.1/DTD/svg11.dtd">
<svg version="1.1" id="Layer_1" xmlns="http://www.w3.org/2000/svg" xmlns:xlink="http://www.w3.org/1999/xlink" x="0px" y="0px"
	 width="130px" height="130px" viewBox="0 0 130 130" enable-background="new 0 0 130 130" xml:space="preserve">
<rect fill="none" width="130" height="130"/>
<g>
	<g>
		<path fill="#C1BAA7" d="M77.541,104.697v11.643l2.482-3.151c0.217-0.256,0.391-1.064,0.391-1.805v-1.724
			c0-0.742-0.174-1.564-0.391-1.806L77.541,104.697z"/>
		<path fill="#C1BAA7" d="M77.541,92.578v11.643l4.432-3.157c0.215-0.242,0.396-1.061,0.396-1.803v-1.727
			c0-0.742-0.182-1.554-0.396-1.799L77.541,92.578z"/>
		<path fill="#D1C9B4" d="M89.445,12.658c-13.523-13.522-35.467-13.522-48.999,0c-13.489,13.488-13.489,35.474,0,48.97
			c1.378,1.374,2.843,2.625,4.608,3.876c0.49,0.274,0.979,0.576,1.412,0.914c3.783,2.873,5.945,7.208,5.945,11.938v38.131
			c0,6.896,5.618,12.512,12.521,12.512c3.117,0,6.072-1.124,8.361-3.168l0.549-0.524c2.355-2.353,3.639-5.491,3.639-8.819V78.357
			c0-4.7,2.195-9.098,5.943-11.938c0.469-0.338,0.924-0.64,1.59-1.068c1.564-1.098,3.055-2.348,4.43-3.722
			C102.938,48.132,102.938,26.146,89.445,12.658z M73.307,33.384c-2.244,2.246-5.207,3.456-8.373,3.484
			c-3.131,0-6.102-1.238-8.338-3.484c-4.604-4.604-4.604-12.077,0-16.682c4.599-4.601,12.105-4.601,16.71,0
			C77.902,21.307,77.902,28.779,73.307,33.384z"/>
		<path fill="#C1BAA7" d="M80.693,85.711c0-0.739-0.18-1.551-0.391-1.806l-2.762-3.147v11.644l2.762-3.157
			c0.211-0.249,0.391-1.058,0.391-1.811V85.711z"/>
	</g>
	<g>
		<path fill="#B5AA91" d="M77.541,92.578v11.643l4.432-3.157c0.215-0.242,0.396-1.061,0.396-1.803v-1.727
			c0-0.742-0.182-1.554-0.396-1.799L77.541,92.578z M65.923,52.879v76.075c2.747-0.214,5.325-1.299,7.372-3.122l0.549-0.524
			c2.355-2.353,3.639-5.491,3.639-8.819V78.357c0-4.7,2.195-9.098,5.943-11.938c0.469-0.338,0.924-0.64,1.59-1.068
			c1.564-1.098,3.055-2.348,4.43-3.722c2.635-2.634,4.736-5.595,6.342-8.749H65.923z M80.693,85.711c0-0.739-0.18-1.551-0.391-1.806
			l-2.762-3.147v11.644l2.762-3.157c0.211-0.249,0.391-1.058,0.391-1.811V85.711z M77.541,104.697v11.643l2.482-3.151
			c0.217-0.256,0.391-1.064,0.391-1.805v-1.724c0-0.742-0.174-1.564-0.391-1.806L77.541,104.697z"/>
	</g>
	<path fill="#FDB813" d="M64.999,1C45.011,1,28.806,17.204,28.806,37.191c0,19.988,16.205,36.193,36.192,36.193
		c19.99,0,36.195-16.205,36.195-36.193C101.193,17.204,84.988,1,64.999,1z M70.947,31.035c-1.609,1.612-3.738,2.48-6.009,2.5
		c-2.248,0-4.38-0.888-5.984-2.5c-3.306-3.305-3.306-8.669,0-11.974c3.3-3.303,8.689-3.303,11.994,0
		C74.248,22.366,74.248,27.729,70.947,31.035z"/>
</g>
</svg>
