<?xml version="1.0" encoding="utf-8"?>
<!-- Generator: Adobe Illustrator 16.0.0, SVG Export Plug-In . SVG Version: 6.00 Build 0)  -->
<!DOCTYPE svg PUBLIC "-//W3C//DTD SVG 1.1//EN" "http://www.w3.org/Graphics/SVG/1.1/DTD/svg11.dtd">
<svg version="1.1" id="Layer_1" xmlns="http://www.w3.org/2000/svg" xmlns:xlink="http://www.w3.org/1999/xlink" x="0px" y="0px"
	 width="130px" height="130px" viewBox="0 0 130 130" enable-background="new 0 0 130 130" xml:space="preserve">
<rect fill="none" width="130" height="130"/>
<g>
	<g>
		<g>
			<path fill="#D1C9B4" d="M119.462,37.351c-1.364-1.338-2.841-2.553-4.412-3.636c-0.223,0.717-0.963,2.973-1.932,6.057
				c0.876,0.685,1.619,1.316,2.298,1.98c4.117,4.05,6.758,9.141,7.408,14.349c0.669,5.298-0.783,10.065-4.098,13.447
				c-2.821,2.866-6.819,4.448-11.244,4.448c-5.836,0-11.891-2.659-16.591-7.294c-8.601-8.435-10.095-20.899-3.332-27.785
				c1.097-1.115,2.376-2.039,3.82-2.755c-0.531-2.368-2.307-4.252-4.656-4.921c-1.526,0.908-2.829,1.932-3.981,3.105
				c-9.109,9.274-7.469,25.714,3.663,36.65c5.943,5.828,13.686,9.179,21.247,9.179c6.052,0,11.555-2.188,15.459-6.169
				C132.226,64.727,130.569,48.286,119.462,37.351z"/>
		</g>
		<g>
			<path fill="#FAAB18" d="M111.4,27.833c-1.542-1.534-15.646-15.628-17.266-17.263c-1.63-1.635-3.804-1.815-5.479-1.194
				C87.144,9.906,47.622,22.11,47.622,22.11L7.59,62.205c-8.002,7.979-8.838,20.125-1.836,27.18l27.164,26.766
				c6.98,7.022,18.593,6.253,26.599-1.693l35.123-35.101c-3.535-1.656-6.861-3.943-9.775-6.795
				c-8.485-8.35-11.767-19.71-9.446-29.233c-1.112-1.635-1.741-3.61-1.741-5.733c0-5.643,4.562-10.229,10.219-10.229
				c5.646,0,10.24,4.586,10.24,10.229c0,5.043-3.66,9.226-8.457,10.065c-0.819,5.675,1.532,12.369,6.745,17.492
				c2.429,2.384,5.234,4.167,8.17,5.298c3.31-10.389,11.477-36.061,11.981-37.526C113.203,31.097,112.935,29.377,111.4,27.833z"/>
		</g>
	</g>
	<g>
		<g>
			<path fill="#C98417" d="M21.018,84.307c-0.778,0-1.553-0.297-2.145-0.892c-1.173-1.188-1.163-3.095,0.021-4.268l31.867-31.533
				c1.184-1.163,3.087-1.157,4.263,0.026c1.173,1.184,1.162,3.09-0.021,4.263L23.136,83.437
				C22.547,84.015,21.782,84.307,21.018,84.307z"/>
		</g>
		<g>
			<path fill="#C98417" d="M30.576,93.862c-0.777,0-1.553-0.297-2.145-0.892c-1.17-1.184-1.16-3.09,0.024-4.263l31.864-31.533
				c1.182-1.168,3.084-1.163,4.266,0.026c1.17,1.184,1.16,3.09-0.024,4.263L32.697,92.997
				C32.107,93.576,31.343,93.862,30.576,93.862z"/>
		</g>
		<g>
			<path fill="#C98417" d="M39.797,103.089c-0.775,0-1.553-0.298-2.145-0.893c-1.17-1.184-1.16-3.095,0.024-4.263l31.87-31.532
				c1.184-1.168,3.087-1.162,4.265,0.021c1.168,1.184,1.16,3.095-0.023,4.268l-31.87,31.527
				C41.328,102.797,40.564,103.089,39.797,103.089z"/>
		</g>
	</g>
</g>
</svg>
