<?xml version="1.0" encoding="utf-8"?>
<!-- Generator: Adobe Illustrator 16.0.0, SVG Export Plug-In . SVG Version: 6.00 Build 0)  -->
<!DOCTYPE svg PUBLIC "-//W3C//DTD SVG 1.1//EN" "http://www.w3.org/Graphics/SVG/1.1/DTD/svg11.dtd">
<svg version="1.1" id="Layer_1" xmlns="http://www.w3.org/2000/svg" xmlns:xlink="http://www.w3.org/1999/xlink" x="0px" y="0px"
	 width="130px" height="130px" viewBox="0 0 130 130" enable-background="new 0 0 130 130" xml:space="preserve">
<rect fill="none" width="130" height="130"/>
<g>
	<g>
		<g>
			<g>
				<path fill-rule="evenodd" clip-rule="evenodd" fill="#363D49" d="M16.031,96.415c-0.662,0-1.286-0.265-1.756-0.733
					c-0.473-0.473-0.733-1.096-0.733-1.752V32.004c0-0.66,0.261-1.283,0.733-1.752c0.471-0.473,1.098-0.733,1.756-0.733h97.938
					c0.662,0,1.285,0.257,1.754,0.733c0.475,0.473,0.735,1.092,0.735,1.752V93.93c0,0.656-0.261,1.279-0.735,1.752
					c-0.469,0.469-1.092,0.733-1.754,0.733H16.031z"/>
			</g>
		</g>
	</g>
	<g>
		<g>
			<rect x="18.032" y="33.964" fill="#576E78" width="94.024" height="55.402"/>
		</g>
	</g>
	<path fill="#E4E7E7" d="M129,94.207c-0.006-0.318-1.219-0.506-1.536-0.506h-4.621h-0.786H2.536C2.218,93.701,1,93.889,1,94.207
		v4.535h0.002c1.667,2.082,3.034,1.638,3.906,1.739h9.4h1.404l0,0l49.303-0.004l50.678,0.004h9.4
		c0.872-0.102,2.238,0.343,3.907-1.743h-0.01c0.006-0.054,0.008-0.106,0.01-0.168V94.207L129,94.207z"/>
	<g>
		<g>
			<path fill="#CFD1D1" d="M5.309,97.234c0,0.094-0.076,0.175-0.175,0.175H5.105c-0.098,0-0.177-0.081-0.177-0.175v-1.549
				c0-0.098,0.08-0.179,0.177-0.179h0.029c0.1,0,0.175,0.081,0.175,0.179V97.234z"/>
		</g>
		<g>
			<path fill="#CFD1D1" d="M6.179,97.234c0,0.094-0.075,0.175-0.175,0.175H5.975c-0.098,0-0.175-0.081-0.175-0.175v-1.549
				c0-0.098,0.078-0.179,0.175-0.179h0.028c0.1,0,0.175,0.081,0.175,0.179V97.234z"/>
		</g>
		<g>
			<path fill="#CFD1D1" d="M7.051,97.234c0,0.094-0.08,0.175-0.177,0.175H6.843c-0.093,0-0.175-0.081-0.175-0.175v-1.549
				c0-0.098,0.082-0.179,0.175-0.179h0.031c0.098,0,0.177,0.081,0.177,0.179V97.234z"/>
		</g>
		<g>
			<path fill="#CFD1D1" d="M7.923,97.234c0,0.094-0.082,0.175-0.177,0.175H7.717c-0.098,0-0.177-0.081-0.177-0.175v-1.549
				c0-0.098,0.08-0.179,0.177-0.179h0.029c0.096,0,0.177,0.081,0.177,0.179V97.234z"/>
		</g>
	</g>
	<g>
		<g>
			<g>
				<path fill="#CFD1D1" d="M119.946,96.469c0,0.077-0.053,0.146-0.124,0.146h-3.77c-0.071,0-0.124-0.069-0.124-0.146
					c0-0.086,0.053-0.155,0.124-0.155h3.77C119.894,96.313,119.946,96.383,119.946,96.469z"/>
			</g>
		</g>
		<g>
			<g>
				<path fill="#CFD1D1" d="M123.744,95.91c0.301,0,0.546,0.24,0.546,0.542s-0.245,0.546-0.546,0.546c-0.3,0-0.54-0.244-0.54-0.546
					S123.444,95.91,123.744,95.91z"/>
			</g>
			<g>
				<path fill="#CFD1D1" d="M122.137,95.91c0.301,0,0.544,0.24,0.544,0.542s-0.243,0.546-0.544,0.546
					c-0.298,0-0.547-0.244-0.547-0.546S121.839,95.91,122.137,95.91z"/>
			</g>
		</g>
	</g>
</g>
</svg>
