<?xml version="1.0" encoding="utf-8"?>
<!-- Generator: Adobe Illustrator 16.0.0, SVG Export Plug-In . SVG Version: 6.00 Build 0)  -->
<!DOCTYPE svg PUBLIC "-//W3C//DTD SVG 1.1//EN" "http://www.w3.org/Graphics/SVG/1.1/DTD/svg11.dtd">
<svg version="1.1" id="Layer_1" xmlns="http://www.w3.org/2000/svg" xmlns:xlink="http://www.w3.org/1999/xlink" x="0px" y="0px"
	 width="130px" height="130px" viewBox="0 0 130 130" enable-background="new 0 0 130 130" xml:space="preserve">
<rect fill="none" width="130" height="130"/>
<g id="Shape_12_copy_1_">
	<path fill="#EE3849" d="M109.595,58.855c-9.837-3.226-16.874-4.414-16.874-12.276c0-5.547,4.278-9.712,10.269-9.712
		c4.307,0,7.697,1.701,10.77,6.002l8.158-4.17c-4.159-7.373-10.161-11.071-18.473-11.071c-12.761,0-20.611,7.697-20.611,19.241
		c0,11.833,7.703,16.771,22.625,21.687c8.301,2.759,13.216,4.46,13.216,11.521c0,7.23-6.445,12.948-15.844,12.624
		c-9.563-0.324-12.511-5.553-15.97-13.438c-5.581-12.738-11.981-27.706-12.477-28.872c-6.52-15.042-19.354-23.53-35.25-23.53
		C18.073,26.86,1,43.939,1,65.006c0,21.072,17.073,38.134,38.134,38.134c11.884,0,22.506-5.427,29.493-13.949l-4.921-11.355
		c-4.631,8.847-13.904,14.877-24.572,14.877c-15.292,0-27.7-12.408-27.7-27.706c0-15.304,12.408-27.712,27.7-27.712
		c11.298,0,21.317,6.634,25.351,16.459L76.66,81.504l1.411,3.135c4.938,11.492,12.043,18.012,25.373,18.063
		C117.918,102.719,129,93.314,129,80.4C129,68.095,122.845,63.168,109.595,58.855z"/>
</g>
</svg>
