<?xml version="1.0" encoding="utf-8"?>
<!-- Generator: Adobe Illustrator 16.0.0, SVG Export Plug-In . SVG Version: 6.00 Build 0)  -->
<!DOCTYPE svg PUBLIC "-//W3C//DTD SVG 1.1//EN" "http://www.w3.org/Graphics/SVG/1.1/DTD/svg11.dtd">
<svg version="1.1" id="Layer_1" xmlns="http://www.w3.org/2000/svg" xmlns:xlink="http://www.w3.org/1999/xlink" x="0px" y="0px"
	 width="130px" height="130px" viewBox="0 0 130 130" enable-background="new 0 0 130 130" xml:space="preserve">
<rect fill="none" width="130" height="130"/>
<g>
	<path fill="#FAAB18" d="M1.219,70.194c2.865,35.221,33.742,61.467,68.971,58.59c35.224-2.87,61.458-33.747,58.593-68.979
		c-2.864-35.221-33.741-61.456-68.979-58.59C24.58,4.08-1.655,34.962,1.219,70.194z"/>
	<path fill="#FDB813" d="M5.039,69.874c2.693,33.118,31.727,57.781,64.833,55.091c33.118-2.702,57.775-31.728,55.082-64.84
		C122.261,27.007,93.236,2.35,60.112,5.035C27.011,7.737,2.34,36.767,5.039,69.874z"/>
	<g>
		<path fill="#FFF6E4" d="M59.425,55.571c-0.815,0.07-1.847-0.367-3.005-1.345L29.923,31.718c-2.967-2.527-2.848-6.511,0.262-8.857
			l20.906-10.715c0.489-0.151,0.979-0.25,1.453-0.291c3.092-0.245,5.611,1.881,5.888,5.241l2.815,34.656
			C61.443,54.127,60.701,55.466,59.425,55.571z"/>
		<path fill="#FFF6E4" d="M51.318,63.444l-34.653,2.818c-3.884,0.32-6.618-2.585-6.074-6.446l7.189-22.351
			c1.013-1.934,2.688-3.017,4.479-3.162c1.412-0.117,2.912,0.349,4.222,1.473l26.497,22.502
			C55.954,60.807,55.203,63.125,51.318,63.444z"/>
		<path fill="#FFF6E4" d="M68.701,10.543c0.469-0.041,0.967-0.023,1.474,0.047l22.356,7.204c3.459,1.811,4.216,5.725,1.694,8.694
			L71.718,52.979c-0.984,1.153-1.934,1.753-2.749,1.817c-1.272,0.099-2.225-1.101-2.416-3.477l-2.819-34.65
			C63.455,13.304,65.604,10.794,68.701,10.543z"/>
		<path fill="#FFF6E4" d="M58.275,77.02c0.976-1.159,1.928-1.747,2.746-1.812c1.289-0.104,2.225,1.101,2.419,3.477l2.824,34.645
			c0.277,3.372-1.872,5.876-4.963,6.126c-0.478,0.041-0.973,0.035-1.485-0.04l-22.362-7.204c-3.45-1.806-4.208-5.725-1.689-8.694
			L58.275,77.02z"/>
		<path fill="#FFF6E4" d="M78.246,61.255c-3.891,0.314-4.991-1.863-2.478-4.828l22.511-26.491c1.106-1.316,2.513-2.033,3.937-2.143
			c1.794-0.146,3.61,0.664,4.921,2.399l10.715,20.9c1.165,3.721-1.065,7.018-4.949,7.344L78.246,61.255z"/>
		<path fill="#FFF6E4" d="M17.094,71.562l34.65-2.812c3.893-0.32,5.008,1.857,2.48,4.827l-22.508,26.497
			c-1.109,1.305-2.516,2.021-3.934,2.132c-1.791,0.151-3.616-0.658-4.924-2.394L12.149,78.906
			C10.976,75.185,13.215,71.883,17.094,71.562z"/>
		<path fill="#FFF6E4" d="M78.683,66.555l34.65-2.825c3.884-0.314,6.621,2.591,6.074,6.453l-7.204,22.362
			c-1.005,1.922-2.679,3.017-4.461,3.156c-1.421,0.122-2.923-0.355-4.236-1.468L77.015,71.72
			C74.041,69.192,74.79,66.875,78.683,66.555z"/>
		<path fill="#FFF6E4" d="M70.576,74.428c0.81-0.07,1.838,0.367,2.993,1.346l26.492,22.508c2.97,2.527,2.864,6.511-0.257,8.863
			L78.91,117.854c-0.495,0.151-0.984,0.251-1.462,0.286c-3.093,0.256-5.605-1.87-5.888-5.241l-2.818-34.645
			C68.544,75.878,69.28,74.532,70.576,74.428z"/>
	</g>
</g>
</svg>
