<?xml version="1.0" encoding="utf-8"?>
<!-- Generator: Adobe Illustrator 16.0.0, SVG Export Plug-In . SVG Version: 6.00 Build 0)  -->
<!DOCTYPE svg PUBLIC "-//W3C//DTD SVG 1.1//EN" "http://www.w3.org/Graphics/SVG/1.1/DTD/svg11.dtd">
<svg version="1.1" id="Layer_1" xmlns="http://www.w3.org/2000/svg" xmlns:xlink="http://www.w3.org/1999/xlink" x="0px" y="0px"
	 width="130px" height="130px" viewBox="0 0 130 130" enable-background="new 0 0 130 130" xml:space="preserve">
<rect fill="none" width="130" height="130"/>
<g>
	<path fill="#D1C9B4" d="M118.034,85.419c14.105-2.87,9.2-15.201,4.678-17.21c-3.614-1.595-7.795-1.473-4.918-2.606
		c2.223-0.883,7.21-2.354,7.21-7.711c0-2.45-0.785-3.999-1.841-4.981c-2.011-1.887-5.055-2.031-5.759-2.031c0,0-13.646,0-19.896,0
		c-1.237,0-3.11-1.016-3.34-2.219c-0.704-3.844-1.431-8.31,2.266-15.614c1.342-2.662,1.418-8.74-0.344-15.324
		c-1.411-5.381-4.025-10.936-7.97-14.97c-0.785-0.595-6.141-4.393-9.917,1.5v15.784c0,0.148-0.008,0.282-0.041,0.406
		c-0.107,1.085-0.759,6.231-2.776,9.732c-1.234,2.145-6.826,11.133-11.744,18.655c-3.151,4.812-6.048,9.027-7.399,10.514
		c-2.667,2.937-7.757,3.297-10.698,3.199l-0.005,55.527c0.915-0.463,6.529,4.989,20.393,5.199
		c18.821,0.261,31.037-2.258,41.225-4.32c1.712-0.356,5.099-1.7,6.818-2.976c1.144-0.84,2.521-1.905,3.24-3.13
		c0.685-1.167,1.1-2.494,1.1-3.936c0-6.327-4.582-5.857-4.286-7.149c0.209-0.949,0.814-0.888,1.723-1.245
		c10.695-4.129,5.743-12.797,2.652-13.568C116.551,86.474,116.778,85.68,118.034,85.419z"/>
	<path fill="#4BA7C4" d="M38.349,54.63c-6.863,0-26.24,0-26.24,0S2.02,53.556,2.671,64.461c0.638,10.897,3.646,53.428,3.646,53.428
		s0,11.109,11.147,11.109c11.158,0,21.949,0,21.949,0s4.091,0.21,4.091-5.131v-5.13l0,0V61.678
		C43.504,61.678,45.218,54.63,38.349,54.63z"/>
</g>
</svg>
