<?xml version="1.0" encoding="utf-8"?>
<!-- Generator: Adobe Illustrator 16.0.0, SVG Export Plug-In . SVG Version: 6.00 Build 0)  -->
<!DOCTYPE svg PUBLIC "-//W3C//DTD SVG 1.1//EN" "http://www.w3.org/Graphics/SVG/1.1/DTD/svg11.dtd">
<svg version="1.1" id="Layer_1" xmlns="http://www.w3.org/2000/svg" xmlns:xlink="http://www.w3.org/1999/xlink" x="0px" y="0px"
	 width="130px" height="130px" viewBox="0 0 130 130" enable-background="new 0 0 130 130" xml:space="preserve">
<rect fill="none" width="130" height="130"/>
<g id="Shape_7_copy_2_">
	<path fill="#0083BD" d="M10.37,129h24.969V41.583H10.37V129z M105.707,46.564c-9.294-5.216-23.017-5.658-32.903-1.146v-3.836
		h-24.97V129h24.97V73.093l10.294-4.953c2.525-1.215,8.059-1.104,10.397,0.214c1.767,0.986,4.284,5.07,4.284,7.575V129h24.977
		V75.929C122.756,64.448,115.587,52.098,105.707,46.564z M22.858,1C14.227,1,7.244,7.989,7.244,16.614
		c0,8.617,6.982,15.606,15.614,15.606s15.606-6.989,15.606-15.606C38.464,7.989,31.489,1,22.858,1z"/>
</g>
</svg>
