<?xml version="1.0" encoding="utf-8"?>
<!-- Generator: Adobe Illustrator 16.0.0, SVG Export Plug-In . SVG Version: 6.00 Build 0)  -->
<!DOCTYPE svg PUBLIC "-//W3C//DTD SVG 1.1//EN" "http://www.w3.org/Graphics/SVG/1.1/DTD/svg11.dtd">
<svg version="1.1" id="Layer_1" xmlns="http://www.w3.org/2000/svg" xmlns:xlink="http://www.w3.org/1999/xlink" x="0px" y="0px"
	 width="130px" height="130px" viewBox="0 0 130 130" enable-background="new 0 0 130 130" xml:space="preserve">
<rect fill="none" width="130" height="130"/>
<g>
	<path fill="#7C6A51" d="M67.232,74.824L56.677,85.382c0.165,0.936-0.061,1.95-0.777,2.672L30.312,113.65
		c-1.157,1.161-3.126,1.161-4.283,0.005l-9.657-9.664c-1.158-1.166-1.158-3.125,0-4.281l25.593-25.619
		c0.717-0.695,1.721-0.932,2.663-0.763l10.556-10.564c-6.885-5.65-17.05-5.35-23.471,1.081L6.124,89.448
		c-6.83,6.841-6.83,17.97-0.011,24.796l9.663,9.667c6.83,6.83,17.959,6.83,24.789,0l25.588-25.61
		C72.585,91.885,72.894,81.701,67.232,74.824z"/>
	<path fill="#FDB813" d="M93.079,36.903c-2.524-2.516-6.614-2.516-9.139,0l-47.02,47.035c-2.52,2.523-2.524,6.627,0,9.146
		c2.519,2.535,6.62,2.535,9.139,0l47.02-47.035C95.593,43.53,95.593,39.422,93.079,36.903z"/>
	<path fill="#7C6A51" d="M123.882,15.744l-9.657-9.655c-6.841-6.831-17.953-6.831-24.789,0l-25.588,25.61
		c-6.427,6.422-6.73,16.598-1.08,23.474l10.556-10.557c-0.159-0.944,0.061-1.95,0.777-2.657l25.588-25.622
		c1.157-1.151,3.12-1.151,4.277,0l9.669,9.67c1.146,1.17,1.152,3.11,0,4.284L88.03,55.896c-0.706,0.722-1.72,0.933-2.662,0.769
		L74.812,67.226c6.885,5.655,17.05,5.353,23.472-1.075l25.599-25.6C130.706,33.708,130.706,22.582,123.882,15.744z"/>
</g>
</svg>
