<?xml version="1.0" encoding="utf-8"?>
<!-- Generator: Adobe Illustrator 16.0.0, SVG Export Plug-In . SVG Version: 6.00 Build 0)  -->
<!DOCTYPE svg PUBLIC "-//W3C//DTD SVG 1.1//EN" "http://www.w3.org/Graphics/SVG/1.1/DTD/svg11.dtd">
<svg version="1.1" id="Layer_1" xmlns="http://www.w3.org/2000/svg" xmlns:xlink="http://www.w3.org/1999/xlink" x="0px" y="0px"
	 width="130px" height="130px" viewBox="0 0 130 130" enable-background="new 0 0 130 130" xml:space="preserve">
<rect fill="none" width="130" height="130"/>
<g>
	<polygon fill="#8DA552" points="49.375,64.31 45.838,69.421 94.295,102.973 97.828,97.863 	"/>
	
		<rect x="46.745" y="28.34" transform="matrix(0.9237 -0.3831 0.3831 0.9237 -6.3774 30.8715)" fill="#FDB813" width="55.144" height="6.213"/>
	<path fill="#FDB813" d="M106.622,1c-9.265,0-16.773,7.512-16.773,16.777s7.509,16.775,16.773,16.775
		c9.26,0,16.771-7.51,16.771-16.775S115.882,1,106.622,1z"/>
	<path fill="#8DA552" d="M106.622,87.991c-11.321,0-20.499,9.181-20.499,20.503c0,11.327,9.178,20.506,20.499,20.506
		c11.32,0,20.496-9.179,20.496-20.506C127.118,97.172,117.942,87.991,106.622,87.991z"/>
	<ellipse fill="#7C6A51" cx="28.349" cy="52.574" rx="25.467" ry="25.476"/>
</g>
</svg>
