<?xml version="1.0" encoding="utf-8"?>
<!-- Generator: Adobe Illustrator 16.0.0, SVG Export Plug-In . SVG Version: 6.00 Build 0)  -->
<!DOCTYPE svg PUBLIC "-//W3C//DTD SVG 1.1//EN" "http://www.w3.org/Graphics/SVG/1.1/DTD/svg11.dtd">
<svg version="1.1" id="Layer_1" xmlns="http://www.w3.org/2000/svg" xmlns:xlink="http://www.w3.org/1999/xlink" x="0px" y="0px"
	 width="130px" height="130px" viewBox="0 0 130 130" enable-background="new 0 0 130 130" xml:space="preserve">
<rect fill="none" width="130" height="130"/>
<path fill="#FDB813" d="M71.476,7.486c-3.037,0-5.507,2.461-5.507,5.501s2.47,5.505,5.507,5.505
	c25.647,0,46.512,20.86,46.512,46.505c0,25.644-20.864,46.504-46.512,46.504c-20.736,0-38.613-13.673-44.478-32.873l9.382,5.842
	c2.58,1.6,5.975,0.818,7.59-1.763c1.604-2.58,0.815-5.971-1.77-7.581L22.12,62.62c-2.569-1.588-5.931-0.832-7.558,1.717
	l-12.7,19.962c-1.632,2.563-0.882,5.968,1.687,7.595c0.92,0.587,1.935,0.863,2.955,0.863c1.813,0,3.599-0.899,4.646-2.552
	l5.325-8.358c7.254,23.754,29.358,40.667,55,40.667c31.717,0,57.524-25.801,57.524-57.516C129,33.286,103.192,7.486,71.476,7.486z"
	/>
</svg>
