<?xml version="1.0" encoding="utf-8"?>
<!-- Generator: Adobe Illustrator 16.0.0, SVG Export Plug-In . SVG Version: 6.00 Build 0)  -->
<!DOCTYPE svg PUBLIC "-//W3C//DTD SVG 1.1//EN" "http://www.w3.org/Graphics/SVG/1.1/DTD/svg11.dtd">
<svg version="1.1" id="Layer_1" xmlns="http://www.w3.org/2000/svg" xmlns:xlink="http://www.w3.org/1999/xlink" x="0px" y="0px"
	 width="130px" height="130px" viewBox="0 0 130 130" enable-background="new 0 0 130 130" xml:space="preserve">
<rect fill="none" width="130" height="130"/>
<g>
	<g>
		<path fill="#D1C9B4" d="M93.387,13.068C85.452,5.284,75.368,0.999,64.995,0.999c-24.547,0-42.718,23.491-43.189,44.193
			c-0.005,0.312,14.31,0.009,14.315-0.114c0.322-14.407,12.746-30.526,28.874-30.526c8.597,0,14.914,4.414,18.688,8.122
			c2.69,2.642,7.051,2.63,9.731-0.024C96.095,19.995,96.088,15.701,93.387,13.068z"/>
	</g>
	<g>
		<path fill="#4BA7C4" d="M106.38,44.855l-70.511-0.231c0,0-13.467,0.188-13.439,0.486c-7.19,1.462-12.686,7.652-12.686,15.168
			v53.091c0,8.596,7.127,15.632,15.863,15.632h78.79c8.719,0,15.858-7.036,15.858-15.632V60.278
			C120.256,52.354,114.17,45.827,106.38,44.855z"/>
	</g>
	<g>
		<path fill="#7C6A51" d="M64.995,68.696c-5.701,0-10.317,4.557-10.317,10.178c0,4.313,2.716,7.971,6.571,9.459v14.158
			c0,2.045,1.675,3.695,3.746,3.695c2.076,0,3.764-1.65,3.764-3.695V88.329c3.843-1.484,6.564-5.142,6.564-9.455
			C75.323,73.253,70.706,68.696,64.995,68.696z"/>
	</g>
</g>
</svg>
