<?xml version="1.0" encoding="utf-8"?>
<!-- Generator: Adobe Illustrator 16.0.0, SVG Export Plug-In . SVG Version: 6.00 Build 0)  -->
<!DOCTYPE svg PUBLIC "-//W3C//DTD SVG 1.1//EN" "http://www.w3.org/Graphics/SVG/1.1/DTD/svg11.dtd">
<svg version="1.1" id="Layer_1" xmlns="http://www.w3.org/2000/svg" xmlns:xlink="http://www.w3.org/1999/xlink" x="0px" y="0px"
	 width="130px" height="130px" viewBox="0 0 130 130" enable-background="new 0 0 130 130" xml:space="preserve">
<rect fill="none" width="130" height="130"/>
<g>
	<g>
		<path fill="#D1C9B4" d="M65.005,0.999c-23.92,0-42.218,21.82-42.675,41.491c-0.006,0.294,14.222,0.114,14.222,0
			c0.32-13.688,12.728-28.614,28.453-28.614c15.727,0,28.134,14.924,28.438,28.614c0,0.114,14.232,0.29,14.227,0
			C107.223,22.815,88.936,0.999,65.005,0.999z"/>
	</g>
	<g>
		<path fill="#4BA7C4" d="M107.87,41.82l-73.055-0.24c0,0-13.953,0.196-13.922,0.505C13.441,43.6,7.751,50.014,7.751,57.799v55.007
			c0,8.905,7.384,16.195,16.436,16.195h81.632c9.031,0,16.431-7.29,16.431-16.195V57.799
			C122.249,49.589,115.943,42.826,107.87,41.82z"/>
	</g>
	<g>
		<path fill="#7C6A51" d="M64.995,66.521c-5.907,0-10.693,4.723-10.693,10.547c0,4.467,2.814,8.256,6.807,9.799v14.668
			c0,2.12,1.74,3.829,3.887,3.829c2.15,0,3.896-1.709,3.896-3.829V86.862c3.981-1.539,6.801-5.328,6.801-9.795
			C75.692,71.243,70.912,66.521,64.995,66.521z"/>
	</g>
</g>
</svg>
