<?xml version="1.0" encoding="utf-8"?>
<!-- Generator: Adobe Illustrator 16.0.0, SVG Export Plug-In . SVG Version: 6.00 Build 0)  -->
<!DOCTYPE svg PUBLIC "-//W3C//DTD SVG 1.1//EN" "http://www.w3.org/Graphics/SVG/1.1/DTD/svg11.dtd">
<svg version="1.1" id="Layer_1" xmlns="http://www.w3.org/2000/svg" xmlns:xlink="http://www.w3.org/1999/xlink" x="0px" y="0px"
	 width="130px" height="130px" viewBox="0 0 130 130" enable-background="new 0 0 130 130" xml:space="preserve">
<rect fill="none" width="130" height="130"/>
<g>
	<path fill="#D1C9B4" d="M57.767,23.557c-0.775,1.719-1.57,3.504-1.968,5.759c-1.005,5.845-1.094,13.878,1.661,18.919
		c0.338,0.618,0.975,0.967,1.633,0.967c0.299,0,0.601-0.077,0.888-0.229c0.902-0.493,1.229-1.623,0.735-2.523
		c-2.298-4.203-2.116-11.518-1.265-16.497c0.316-1.795,0.989-3.289,1.702-4.873c0.754-1.685,1.542-3.428,1.898-5.553
		c1.043-5.917-1.242-11.887-3.866-17.459c-0.44-0.924-1.546-1.331-2.473-0.886c-0.929,0.436-1.325,1.542-0.888,2.465
		c1.592,3.38,4.553,9.666,3.566,15.252C59.114,20.564,58.458,22.02,57.767,23.557z"/>
	<path fill="#D1C9B4" d="M44.379,34.496c0.689,0.9,1.34,1.747,1.628,2.657c0.926,3.011,1.036,7.023-0.804,9.182
		c-0.663,0.78-0.57,1.953,0.213,2.619c0.35,0.292,0.778,0.436,1.204,0.436c0.519,0,1.043-0.22,1.412-0.646
		c2.939-3.461,2.714-8.818,1.518-12.691c-0.488-1.551-1.415-2.752-2.226-3.815c-0.673-0.876-1.305-1.695-1.561-2.542
		c-0.876-2.848,1.771-6.535,3.195-8.512c0.596-0.833,0.404-1.996-0.424-2.59c-0.831-0.599-1.991-0.412-2.587,0.421
		c-1.802,2.503-5.151,7.162-3.734,11.781C42.68,32.279,43.58,33.457,44.379,34.496z"/>
	<path fill="#D1C9B4" d="M70.234,34.026c0.907,0.943,1.758,1.833,2.119,2.762c1.024,2.796,1.335,6.879-1.204,9.196
		c-0.754,0.694-0.807,1.867-0.117,2.624c0.368,0.402,0.866,0.608,1.369,0.608c0.447,0,0.897-0.167,1.249-0.488
		c3.899-3.562,3.687-9.167,2.174-13.251c-0.64-1.652-1.846-2.906-2.908-4.017c-0.853-0.891-1.659-1.738-1.982-2.581
		c-1.067-2.795,2.547-6.63,4.29-8.473c0.706-0.742,0.67-1.92-0.077-2.624c-0.739-0.708-1.917-0.67-2.621,0.077
		c-2.435,2.576-6.958,7.373-5.058,12.341C68.052,31.743,69.165,32.906,70.234,34.026z"/>
	<g>
		<path fill="#D64C21" d="M98.257,104.614c-13.261,0-24.049-9.757-24.049-21.744s10.788-21.738,24.049-21.738
			c13.263,0,24.054,9.751,24.054,21.738S111.52,104.614,98.257,104.614z M98.257,68.04c-9.452,0-17.141,6.653-17.141,14.83
			c0,8.182,7.688,14.836,17.141,14.836c9.455,0,17.146-6.654,17.146-14.836C115.402,74.693,107.712,68.04,98.257,68.04z"/>
	</g>
	<path fill="#F15A22" d="M100.823,56.282v33.056c0,14.361-11.751,26.109-26.11,26.109H45.384c-14.359,0-26.104-11.748-26.104-26.109
		V56.282H100.823z"/>
	<path fill="#7C6A51" d="M7.689,111.345C15.955,121.69,36.272,129,60.045,129c23.776,0,44.096-7.31,52.365-17.655H7.689z"/>
</g>
</svg>
