<?xml version="1.0" encoding="utf-8"?>
<!-- Generator: Adobe Illustrator 16.0.0, SVG Export Plug-In . SVG Version: 6.00 Build 0)  -->
<!DOCTYPE svg PUBLIC "-//W3C//DTD SVG 1.1//EN" "http://www.w3.org/Graphics/SVG/1.1/DTD/svg11.dtd">
<svg version="1.1" id="Layer_1" xmlns="http://www.w3.org/2000/svg" xmlns:xlink="http://www.w3.org/1999/xlink" x="0px" y="0px"
	 width="130px" height="130px" viewBox="0 0 130 130" enable-background="new 0 0 130 130" xml:space="preserve">
<rect fill="none" width="130" height="130"/>
<g>
	<g>
		<path fill="#D1C9B4" d="M72.884,78.761c-0.639-4.299-4.694-7.276-9.056-6.647c-4.363,0.634-7.377,4.63-6.74,8.929l7.023,47.211
			c0.054,0.375,0.351,0.684,0.746,0.737c0.484,0.071,0.933-0.26,1.004-0.737l7.022-47.211
			C72.988,80.314,72.997,79.524,72.884,78.761z"/>
	</g>
	<g>
		<path fill="#E55123" d="M88.579,55.624c-4.191-3.049-9.271-7.696-9.495-14.013l-0.004-0.246
			c0.223-6.317,5.276-10.897,9.468-13.941c6.771-4.919,5.781-8.236,5.781-8.236H35.704c0,0-0.988,3.317,5.779,8.236
			c4.191,3.044,9.247,7.625,9.468,13.941l-0.002,0.246c-0.223,6.316-5.306,10.963-9.497,14.013c-6.77,4.915-5.779,8.232-5.779,8.232
			H94.36C94.36,63.855,95.35,60.539,88.579,55.624z"/>
	</g>
	<g>
		<path fill="#D33F1C" d="M79.091,41.771v-0.004c0-0.022-0.004-0.045-0.004-0.067c0-0.004,0-0.009,0-0.009
			c0-0.027-0.003-0.054-0.003-0.08l-0.004-0.246c0.056-1.625,0.436-3.138,1.035-4.536c-3.393-1.344-9.294-3.678-15.146-6.009v21.415
			c5.863-2.335,11.781-4.679,15.178-6.022C79.549,44.838,79.167,43.356,79.091,41.771z"/>
	</g>
	<g>
		<path fill="#CE3E1D" d="M94.329,19.188H48.668l-1.058,4.553c0,0.223,24.055,9.75,32.51,13.089
			c1.732-4.036,5.316-7.147,8.428-9.406C95.318,22.504,94.329,19.188,94.329,19.188z"/>
	</g>
	<g>
		<path fill="#CE3E1D" d="M88.579,55.624c-3.111-2.263-6.695-5.375-8.428-9.411c-8.455,3.339-32.508,12.866-32.508,13.089
			l1.056,4.554H94.36C94.36,63.855,95.352,60.539,88.579,55.624z"/>
	</g>
	<g>
		<path fill="#C43316" d="M93.937,61.414l-0.005-0.005c-0.004-0.009-0.007-0.018-0.011-0.026c-0.002-0.005-0.002-0.005-0.005-0.009
			c-0.002-0.004-0.007-0.013-0.009-0.022L93.9,61.337c-0.002-0.004-0.004-0.009-0.007-0.013c-0.002-0.004-0.006-0.014-0.006-0.018
			c-0.005-0.004-0.007-0.009-0.007-0.009l-0.007-0.018c-0.005-0.004-0.009-0.013-0.009-0.022l-0.007-0.009
			c-0.002-0.004-0.005-0.009-0.007-0.013c-0.005-0.009-0.007-0.014-0.009-0.022c-0.002,0-0.005-0.009-0.009-0.009
			c-0.003-0.009-0.007-0.018-0.009-0.027l-0.005-0.009c-0.005-0.004-0.007-0.014-0.011-0.018c0-0.004-0.003-0.009-0.007-0.013
			c-0.003-0.009-0.005-0.014-0.007-0.018s-0.005-0.009-0.007-0.009c-0.005-0.009-0.007-0.018-0.011-0.027
			c-0.003-0.004-0.003-0.004-0.007-0.009c-0.003-0.009-0.007-0.018-0.009-0.027c-0.005,0-0.005-0.004-0.005-0.004l-0.016-0.031
			H93.74c-0.003-0.009-0.009-0.018-0.014-0.027c0-0.004-0.002-0.004-0.002-0.004l-0.016-0.031c0,0-0.003,0-0.003-0.004l-0.016-0.031
			h-0.002c-0.011-0.022-0.022-0.041-0.035-0.062v-0.005c-0.007-0.009-0.012-0.022-0.016-0.031h-0.005
			c-0.745-1.348-2.183-3.084-4.91-5.089l-0.009-0.004c-0.021-0.018-0.041-0.031-0.062-0.049h-0.005
			c-0.021-0.018-0.045-0.036-0.067-0.049c-0.016-0.014-0.031-0.022-0.044-0.036c-0.005,0-0.007-0.005-0.007-0.005
			c-2.837-2.066-6.051-4.834-7.897-8.361c-0.172-0.331-0.332-0.666-0.479-1.009h-0.005c-3.396,1.344-9.314,3.688-15.178,6.022v6.758
			h24.62c2.622,0,4.768,2.129,4.794,4.741l0.007-0.031c0.002-0.009,0.002-0.022,0.002-0.031c0.002-0.004,0.002-0.009,0.002-0.009
			v-0.009C94.432,63.306,94.432,62.534,93.937,61.414z"/>
	</g>
	<g>
		<path fill="#C43316" d="M89.589,24.125h-24.62v6.696c5.853,2.331,11.754,4.665,15.146,6.009h0.005
			c1.71-3.986,5.228-7.071,8.312-9.326c0.002,0,0.004-0.004,0.009-0.004c0.007-0.004,0.016-0.013,0.022-0.018
			c0.009-0.005,0.016-0.009,0.021-0.014c0.007-0.009,0.014-0.013,0.022-0.018c0.014-0.009,0.027-0.018,0.04-0.027
			c0.019-0.018,0.034-0.027,0.054-0.041c0.007-0.004,0.014-0.009,0.022-0.018c0.009-0.004,0.016-0.014,0.024-0.018
			c0.019-0.013,0.036-0.027,0.056-0.04c0,0,0-0.004,0.005-0.004c4.651-3.424,5.535-6.053,5.653-7.312c0,0,0-0.004,0-0.009l0,0
			c0.003-0.009,0.003-0.013,0.005-0.018l0,0c0.009-0.147,0.014-0.277,0.009-0.384C94.244,22.103,92.142,24.125,89.589,24.125z"/>
	</g>
	<g>
		<path fill="#F15A22" d="M89.589,1H40.381c-2.634,0-4.792,2.156-4.792,4.794V19.33c0,2.639,2.158,4.794,4.792,4.794h49.208
			c2.638,0,4.794-2.156,4.794-4.794V5.795C94.383,3.157,92.227,1,89.589,1z M89.589,58.994H40.381c-2.634,0-4.792,2.156-4.792,4.794
			v13.535c0,2.639,2.158,4.794,4.792,4.794h49.208c2.638,0,4.794-2.155,4.794-4.794V63.788
			C94.383,61.15,92.227,58.994,89.589,58.994z"/>
	</g>
	<g>
		<path fill="#E55123" d="M89.589,58.994H64.576v23.124h25.013c2.638,0,4.794-2.155,4.794-4.794V63.788
			C94.383,61.15,92.227,58.994,89.589,58.994z"/>
	</g>
	<g>
		<path fill="#E55123" d="M89.589,1H64.576v23.124h25.013c2.638,0,4.794-2.156,4.794-4.794V5.795C94.383,3.157,92.227,1,89.589,1z"
			/>
	</g>
</g>
</svg>
