<?xml version="1.0" encoding="utf-8"?>
<!-- Generator: Adobe Illustrator 16.0.0, SVG Export Plug-In . SVG Version: 6.00 Build 0)  -->
<!DOCTYPE svg PUBLIC "-//W3C//DTD SVG 1.1//EN" "http://www.w3.org/Graphics/SVG/1.1/DTD/svg11.dtd">
<svg version="1.1" id="Layer_1" xmlns="http://www.w3.org/2000/svg" xmlns:xlink="http://www.w3.org/1999/xlink" x="0px" y="0px"
	 width="130px" height="130px" viewBox="0 0 130 130" enable-background="new 0 0 130 130" xml:space="preserve">
<rect fill="none" width="130" height="130"/>
<g>
	<path fill="#F15A22" d="M109.323,46.432c0,41.839-45.432,82.568-45.432,82.568S18.459,87.588,18.459,46.432
		C18.459,21.341,38.795,1,63.892,1C88.982,1,109.323,21.341,109.323,46.432z"/>
	<path fill="#C74D42" d="M85.244,6.326L54.71,40.873l1.855,11.945l6.483,8.197h44.546c1.099-4.803,1.729-9.688,1.729-14.583
		C109.323,29.059,99.566,13.971,85.244,6.326z"/>
	<path fill="#C74D42" d="M82.964,5.198L53.732,38.263l1.864,11.945l6.479,8.193h46.071c0.756-3.957,1.177-7.956,1.177-11.97
		C109.323,28.153,98.525,12.407,82.964,5.198z"/>
	<path fill="#C74D42" d="M81.399,44.66c0,9.814-7.96,17.779-17.779,17.779c-9.824,0-17.779-7.965-17.779-17.779
		c0-9.819,7.955-17.784,17.779-17.784C73.439,26.875,81.399,34.84,81.399,44.66z"/>
	<path fill="#046D89" d="M85.288,3.949L54.71,38.544l1.855,11.945l6.483,8.192h47.403c0.707-3.984,1.09-7.902,1.09-11.731
		C111.541,28.245,100.859,11.996,85.288,3.949z"/>
	<path fill="#025163" d="M81.399,44.66c0-9.369-7.248-17.029-16.438-17.717L54.71,38.544l1.855,11.945l6.483,8.192h11.47
		C78.702,55.428,81.399,50.363,81.399,44.66z"/>
	<g opacity="0.25">
		<path fill="#F9F9F9" d="M103.21,37.569c-0.557,0-1.056-0.398-1.162-0.967c-1.573-8.388-6.253-15.762-13.18-20.764
			c-0.53-0.385-0.648-1.124-0.267-1.656c0.389-0.533,1.131-0.642,1.656-0.267c7.418,5.362,12.435,13.262,14.12,22.251
			c0.12,0.641-0.304,1.261-0.947,1.382C103.357,37.564,103.283,37.569,103.21,37.569z"/>
	</g>
	<path fill="#FDB813" d="M76.17,46.446c0,6.928-5.621,12.545-12.55,12.545s-12.551-5.617-12.551-12.545
		c0-6.934,5.622-12.55,12.551-12.55S76.17,39.513,76.17,46.446z"/>
	<path fill="#FDB813" d="M18.459,45.076c0,1.85,0.039,3.709,0.107,5.559h38.73V39.556H18.59
		C18.513,41.382,18.459,43.217,18.459,45.076z"/>
	<path fill="#FDB813" d="M79.996,44.66c0,9.04-7.336,16.375-16.376,16.375c-9.044,0-16.375-7.336-16.375-16.375
		c0-9.045,7.331-16.375,16.375-16.375C72.66,28.284,79.996,35.614,79.996,44.66z"/>
	<path fill="#8E6A3F" d="M68.055,44.66c0,2.45-1.984,4.435-4.435,4.435l0,0c-2.45,0-4.436-1.985-4.436-4.435l0,0
		c0-2.45,1.985-4.44,4.436-4.44l0,0C66.07,40.219,68.055,42.209,68.055,44.66L68.055,44.66z"/>
</g>
</svg>
