<?xml version="1.0" encoding="utf-8"?>
<!-- Generator: Adobe Illustrator 16.0.0, SVG Export Plug-In . SVG Version: 6.00 Build 0)  -->
<!DOCTYPE svg PUBLIC "-//W3C//DTD SVG 1.1//EN" "http://www.w3.org/Graphics/SVG/1.1/DTD/svg11.dtd">
<svg version="1.1" id="Layer_1" xmlns="http://www.w3.org/2000/svg" xmlns:xlink="http://www.w3.org/1999/xlink" x="0px" y="0px"
	 width="130px" height="130px" viewBox="0 0 130 130" enable-background="new 0 0 130 130" xml:space="preserve">
<rect fill="none" width="130" height="130"/>
<g>
	<g>
		<polygon fill="#EDE3D0" points="112.279,43.011 86.745,35.033 65,41.83 43.255,35.033 17.726,43.011 8.716,129 39.18,120.984 
			65,127.777 90.82,120.984 121.284,129 		"/>
	</g>
	<g>
		<polygon fill="#4BA7C4" points="108.49,46.096 86.745,39.304 65,46.096 43.255,39.304 21.51,46.096 13.359,123.561 39.18,116.764 
			65,123.561 90.82,116.764 116.641,123.561 		"/>
	</g>
	<g>
		<polygon fill="#3594AA" points="86.745,39.304 65,46.096 65,123.561 90.82,116.764 		"/>
	</g>
	<g>
		<polygon fill="#3594AA" points="21.51,46.096 13.359,123.561 39.18,116.764 43.255,39.304 		"/>
	</g>
	<g>
		<g>
			<path fill="#F15A22" d="M65.986,1C50.093,1,37.208,13.938,37.208,29.901c0,15.965,28.778,64.358,28.778,64.358
				s28.777-48.393,28.777-64.358C94.764,13.938,81.879,1,65.986,1z M65.986,36.657c-4.916,0-8.901-3.991-8.901-8.914
				c0-4.927,3.985-8.921,8.901-8.921s8.9,3.994,8.9,8.921C74.887,32.666,70.902,36.657,65.986,36.657z"/>
			<path fill="#E55123" d="M65.986,1c0,5.925,0,11.901,0,17.822c4.916,0,8.9,3.994,8.9,8.921c0,4.923-3.984,8.914-8.9,8.914
				c0,31.611,0,57.603,0,57.603s28.777-48.393,28.777-64.358C94.764,13.938,81.879,1,65.986,1z"/>
		</g>
		<path fill="#CE3E1D" d="M65.986,13.365c-7.799,0-14.121,6.35-14.121,14.183c0,7.831,6.322,14.182,14.121,14.182
			s14.121-6.352,14.121-14.182C80.107,19.715,73.785,13.365,65.986,13.365z M65.986,36.657c-4.916,0-8.901-3.991-8.901-8.914
			c0-4.927,3.985-8.921,8.901-8.921s8.9,3.994,8.9,8.921C74.887,32.666,70.902,36.657,65.986,36.657z"/>
	</g>
</g>
</svg>
