<?xml version="1.0" encoding="utf-8"?>
<!-- Generator: Adobe Illustrator 16.0.0, SVG Export Plug-In . SVG Version: 6.00 Build 0)  -->
<!DOCTYPE svg PUBLIC "-//W3C//DTD SVG 1.1//EN" "http://www.w3.org/Graphics/SVG/1.1/DTD/svg11.dtd">
<svg version="1.1" id="Layer_1" xmlns="http://www.w3.org/2000/svg" xmlns:xlink="http://www.w3.org/1999/xlink" x="0px" y="0px"
	 width="130px" height="130px" viewBox="0 0 130 130" enable-background="new 0 0 130 130" xml:space="preserve">
<rect fill="none" width="130" height="130"/>
<g>
	<g>
		<path fill="#F15A22" d="M87.418,69.208c-1.039-0.175-1.988,0.669-2.129,1.845c-0.14,1.184,0.588,2.262,1.626,2.421
			c22.543,3.454,38.291,12.136,38.291,21.118c0,10.98-24.196,22.74-60.213,22.74c-36.01,0-60.207-11.76-60.207-22.74
			c0-8.994,15.782-17.684,38.387-21.134c1.033-0.158,1.76-1.241,1.619-2.417c-0.138-1.18-1.089-2.022-2.13-1.849
			C17.358,73.053,1,83.029,1,94.592c0,15.164,28.111,27.045,63.993,27.045c35.893,0,64.007-11.881,64.007-27.045
			C129,83.037,112.674,73.075,87.418,69.208z M35.094,92.318c0,7.557,19.2,9.568,30.541,9.568c11.345,0,30.55-2.012,30.55-9.568
			c0-5.332-9.512-7.699-17.489-8.746c-0.946-0.109-1.818,0.66-1.931,1.75c-0.108,1.096,0.58,2.086,1.534,2.209
			c11.27,1.479,14.233,4.193,14.407,4.742c-0.527,1.963-10.289,5.629-27.071,5.629c-16.776,0-26.54-3.666-27.067-5.533
			c0.18-0.648,3.159-3.367,14.51-4.854c0.955-0.123,1.642-1.109,1.535-2.207c-0.107-1.092-0.971-1.857-1.93-1.752
			C44.662,84.604,35.094,86.975,35.094,92.318z"/>
	</g>
	<path fill="#F15A22" d="M65.753,8.363c-15.008,0-27.178,13.129-27.178,29.33c0,26.565,27.178,53.299,27.178,53.299
		s27.178-26.286,27.178-53.299C92.931,21.492,80.768,8.363,65.753,8.363z M65.753,39.522c-4.664,0-8.452-3.786-8.452-8.462
		c0-4.667,3.788-8.461,8.452-8.461c4.67,0,8.46,3.794,8.46,8.461C74.213,35.736,70.423,39.522,65.753,39.522z"/>
	<path fill="#E55123" d="M65.771,8.363v14.238c4.662,0.009,8.442,3.797,8.442,8.459c0,4.67-3.78,8.45-8.442,8.46v51.453
		c0.389-0.379,27.16-26.459,27.16-53.28C92.931,21.5,80.777,8.375,65.771,8.363z"/>
	<path fill="#CE3E1D" d="M65.751,18.453c-6.95,0-12.595,5.65-12.595,12.607c0,6.969,5.645,12.608,12.595,12.608
		c6.959,0,12.605-5.639,12.605-12.608C78.356,24.103,72.71,18.453,65.751,18.453z M65.753,39.522c-4.664,0-8.452-3.786-8.452-8.462
		c0-4.667,3.788-8.461,8.452-8.461c4.67,0,8.46,3.794,8.46,8.461C74.213,35.736,70.423,39.522,65.753,39.522z"/>
</g>
</svg>
