<?xml version="1.0" encoding="utf-8"?>
<!-- Generator: Adobe Illustrator 16.0.0, SVG Export Plug-In . SVG Version: 6.00 Build 0)  -->
<!DOCTYPE svg PUBLIC "-//W3C//DTD SVG 1.1//EN" "http://www.w3.org/Graphics/SVG/1.1/DTD/svg11.dtd">
<svg version="1.1" id="Layer_1" xmlns="http://www.w3.org/2000/svg" xmlns:xlink="http://www.w3.org/1999/xlink" x="0px" y="0px"
	 width="130px" height="130px" viewBox="0 0 130 130" enable-background="new 0 0 130 130" xml:space="preserve">
<rect fill="none" width="130" height="130"/>
<g>
	<g>
		<path fill="#F15A22" d="M65,1.001c-21.813,0-39.499,17.758-39.499,39.668c0,21.911,39.499,88.33,39.499,88.33
			s39.499-66.419,39.499-88.33C104.499,18.759,86.813,1.001,65,1.001z M65,49.942c-6.748,0-12.218-5.479-12.218-12.236
			c0-6.763,5.47-12.246,12.218-12.246c6.746,0,12.215,5.483,12.215,12.246C77.215,44.463,71.746,49.942,65,49.942z"/>
		<path fill="#E55123" d="M65,1.001c0,8.131,0,16.335,0,24.459c6.746,0,12.215,5.483,12.215,12.246
			c0,6.757-5.469,12.236-12.215,12.236c0,43.385,0,79.057,0,79.057s39.499-66.419,39.499-88.33
			C104.499,18.759,86.813,1.001,65,1.001z"/>
	</g>
	<path fill="#CE3E1D" d="M65,17.971c-10.703,0-19.381,8.716-19.381,19.466S54.297,56.902,65,56.902
		c10.705,0,19.381-8.716,19.381-19.466S75.705,17.971,65,17.971z M65,49.942c-6.748,0-12.218-5.479-12.218-12.236
		c0-6.763,5.47-12.246,12.218-12.246c6.746,0,12.215,5.483,12.215,12.246C77.215,44.463,71.746,49.942,65,49.942z"/>
</g>
</svg>
