<?xml version="1.0" encoding="utf-8"?>
<!-- Generator: Adobe Illustrator 16.0.0, SVG Export Plug-In . SVG Version: 6.00 Build 0)  -->
<!DOCTYPE svg PUBLIC "-//W3C//DTD SVG 1.1//EN" "http://www.w3.org/Graphics/SVG/1.1/DTD/svg11.dtd">
<svg version="1.1" id="Layer_1" xmlns="http://www.w3.org/2000/svg" xmlns:xlink="http://www.w3.org/1999/xlink" x="0px" y="0px"
	 width="130px" height="130px" viewBox="0 0 130 130" enable-background="new 0 0 130 130" xml:space="preserve">
<rect fill="none" width="130" height="130"/>
<g>
	<g>
		<polygon fill="#BF392C" points="120.76,1 77.936,58.229 46.354,46.756 82.334,1 		"/>
		<polygon fill="#E2574C" points="9.24,1 52.059,58.229 83.64,46.756 47.661,1 		"/>
	</g>
	<g>
		<path fill="#EFC75E" d="M108.596,85.407c0,24.075-19.518,43.593-43.593,43.593s-43.599-19.518-43.599-43.593
			c0-24.081,19.523-43.599,43.599-43.599S108.596,61.326,108.596,85.407z"/>
		<g>
			<path fill="#D7B354" d="M65.003,113.561c-15.524,0-28.153-12.628-28.153-28.153c0-15.527,12.629-28.159,28.153-28.159
				c15.525,0,28.153,12.632,28.153,28.159C93.156,100.933,80.528,113.561,65.003,113.561z M65.003,62.697
				c-12.52,0-22.703,10.188-22.703,22.71c0,12.52,10.184,22.704,22.703,22.704s22.704-10.185,22.704-22.704
				C87.707,72.885,77.522,62.697,65.003,62.697z"/>
		</g>
	</g>
</g>
</svg>
