<?xml version="1.0" encoding="utf-8"?>
<!-- Generator: Adobe Illustrator 16.0.0, SVG Export Plug-In . SVG Version: 6.00 Build 0)  -->
<!DOCTYPE svg PUBLIC "-//W3C//DTD SVG 1.1//EN" "http://www.w3.org/Graphics/SVG/1.1/DTD/svg11.dtd">
<svg version="1.1" id="Layer_1" xmlns="http://www.w3.org/2000/svg" xmlns:xlink="http://www.w3.org/1999/xlink" x="0px" y="0px"
	 width="130px" height="130px" viewBox="0 0 130 130" enable-background="new 0 0 130 130" xml:space="preserve">
<rect fill="none" width="130" height="130"/>
<g>
	<path fill="#FDB813" d="M108.927,3.038c0-4.882-4.164,0.538-4.164,0.538C89.004,27.908,61.557,31.153,51.249,31.485v43.789
		c39.189,3.137,54.286,28.154,54.286,28.154s3.582,4.425,3.332-0.18L108.927,3.038z"/>
	<path fill="#FDB813" d="M51.738,51.506V75.48c38.782,3.109,53.726,27.904,53.726,27.904s3.539,4.387,3.289-0.175l0.033-51.704
		H51.738z"/>
	<path fill="#FDB813" d="M115.348,39.356l-0.006,27.687c5.066-2.642,8.595-7.801,8.595-13.824
		C123.953,47.185,120.44,42.031,115.348,39.356z"/>
	<rect x="108.927" y="39.4" fill="#575656" width="6.475" height="27.66"/>
	<path fill="#7C6A51" d="M51.945,77.448V30.653c-1.125-0.005-1.767-0.038-1.767-0.038l0.011,0.092l-0.218-0.027l-30.671,2.849
		c0,0-13.237,0.576-13.237,13.313v17.542c0,0-0.283,14.694,12.667,14.711c0,0,15.96-0.022,15.96,5.36v39.57
		c0,2.734,2.24,4.975,4.985,4.975h7.284c2.745,0,4.99-2.24,4.99-4.975l0.012-46.578H51.945z"/>
</g>
</svg>
