<?xml version="1.0" encoding="utf-8"?>
<!-- Generator: Adobe Illustrator 16.0.0, SVG Export Plug-In . SVG Version: 6.00 Build 0)  -->
<!DOCTYPE svg PUBLIC "-//W3C//DTD SVG 1.1//EN" "http://www.w3.org/Graphics/SVG/1.1/DTD/svg11.dtd">
<svg version="1.1" id="Layer_1" xmlns="http://www.w3.org/2000/svg" xmlns:xlink="http://www.w3.org/1999/xlink" x="0px" y="0px"
	 width="130px" height="130px" viewBox="0 0 130 130" enable-background="new 0 0 130 130" xml:space="preserve">
<rect fill="none" width="130" height="130"/>
<g>
	<path fill="#A4CB45" d="M121.104,86.696L98.406,24.592c-0.199-0.539-0.746-0.713-1.215-0.377L17.235,79.018l8.003,21.007
		l19.498-2.486l0.79,4.289c1.137,5.776,3.735,8.629,8.197,8.766l15.81-1.732c6.059-0.861,8.906-3.793,7.984-8.302l-1.311-7.065
		l44.223-5.678C121.006,87.736,121.303,87.239,121.104,86.696z M69.473,104.119l-15.812,1.728c-2.019,0.1-3.127-1.732-3.645-3.892
		l-0.912-4.973l22.736-2.918l1.18,6.37C73.383,102.606,71.406,103.957,69.473,104.119z"/>
	<path fill="#97BF19" d="M109.617,55.271L21.079,89.108l4.159,10.916l19.498-2.486l0.79,4.289c1.137,5.776,3.735,8.629,8.197,8.766
		l15.81-1.732c6.059-0.861,8.906-3.793,7.984-8.302l-1.311-7.065l44.223-5.678c0.576-0.079,0.873-0.576,0.674-1.119L109.617,55.271z
		 M69.473,104.119l-15.812,1.728c-2.019,0.1-3.127-1.732-3.645-3.892l-0.912-4.973l22.736-2.918l1.18,6.37
		C73.383,102.606,71.406,103.957,69.473,104.119z"/>
	<path fill="#4BA7C4" d="M128.84,85.171l-23.416-64.068c-0.486-1.343-1.971-2.031-3.312-1.534c-1.338,0.489-2.027,1.973-1.531,3.312
		l23.416,64.069c0.439,1.197,1.658,1.869,2.867,1.657c0.146-0.021,0.295-0.062,0.439-0.115
		C128.646,88.002,129.334,86.514,128.84,85.171z M3.627,88.346l-0.271,0.273c-0.404-0.27-0.907-0.344-1.378-0.166
		c-0.808,0.312-1.195,1.272-0.854,2.143l4.569,11.828c0.336,0.87,1.262,1.326,2.066,1.003c0.545-0.207,0.893-0.722,0.959-1.302
		l13.37-1.699l-7.475-19.614L3.627,88.346z"/>
</g>
</svg>
