<?xml version="1.0" encoding="utf-8"?>
<!-- Generator: Adobe Illustrator 16.0.0, SVG Export Plug-In . SVG Version: 6.00 Build 0)  -->
<!DOCTYPE svg PUBLIC "-//W3C//DTD SVG 1.1//EN" "http://www.w3.org/Graphics/SVG/1.1/DTD/svg11.dtd">
<svg version="1.1" id="Layer_1" xmlns="http://www.w3.org/2000/svg" xmlns:xlink="http://www.w3.org/1999/xlink" x="0px" y="0px"
	 width="130px" height="130px" viewBox="0 0 130 130" enable-background="new 0 0 130 130" xml:space="preserve">
<rect fill="none" width="130" height="130"/>
<g>
	<path fill="#4BA7C4" d="M47.314,124.727c0,2.36,11.187,4.272,24.979,4.272c13.801,0,24.985-1.912,24.985-4.272
		c0-2.365-11.185-4.278-24.985-4.278C58.501,120.448,47.314,122.361,47.314,124.727z"/>
	<path fill="#4BA7C4" d="M66.671,123.799c0,1.38,9.567,1.38,9.567,0c0-2.239,0-63.875,0-63.875h-9.567
		C66.671,59.924,66.671,122.42,66.671,123.799z"/>
	<path fill="#4BA7C4" d="M32.813,71.202c-3.026,3.678-2.271,6.643-0.093,9.008c2.396,2.584,3.761,3.924,6.095,6.141
		c2.336,2.217,5.327,2.62,8.414,0c3.027-2.575,48.551-41.149,48.551-41.149L74.218,23.634
		C74.218,23.634,35.834,67.529,32.813,71.202z"/>
	<g>
		<path fill="#C1BAA7" d="M96.265,22.733c5.231,5.138,14.705,11.933,18.617,12.309c0.008,0.097-0.013,0.206-0.02,0.309
			c2.189-3.46,3.462-7.558,3.462-11.955c0-12.367-10.029-22.396-22.4-22.396c-4.702,0-9.063,1.452-12.667,3.929
			C86.785,12.436,91.274,17.842,96.265,22.733z"/>
		<path fill="#C1BAA7" d="M92.665,26.397c-5.863-6.061-12.053-13.886-13-18.239c-0.014-0.042-0.015-0.087-0.023-0.13
			c-3.788,4.011-6.115,9.417-6.115,15.368c0,12.367,10.03,22.4,22.397,22.4c6.133,0,11.688-2.468,15.733-6.461
			C106.355,37.563,97.633,31.528,92.665,26.397z"/>
	</g>
	<g>
		<path fill="#B7B19F" d="M114.882,35.042c0.008,0.097-0.013,0.206-0.02,0.309c2.189-3.46,3.462-7.558,3.462-11.955
			c0-4.98-1.648-9.572-4.405-13.294c-2.197,3.906-6.505,10.392-13.487,16.339C105.563,30.656,111.869,34.752,114.882,35.042z"/>
		<path fill="#B7B19F" d="M96.227,29.697c-4.76,3.352-10.497,6.31-17.344,8.212c4.107,4.819,10.213,7.888,17.041,7.888
			c6.133,0,11.688-2.468,15.733-6.461C107.468,37.936,101.147,33.872,96.227,29.697z"/>
	</g>
	<path fill="#489EBA" d="M69.103,27.253c-0.457,0.448-0.566,1.093-0.199,1.626c2.481,6.772,12.416,17.84,21.67,21.71
		c0.464,0.35,0.82,0.301,1.485-0.362c1.129-1.08,2.546-2.45,4.438-4.466c-9.521-4.322-20.082-14.894-22.962-22.96
		C72.065,24.301,70.548,25.842,69.103,27.253z"/>
	<path fill="#4BA7C4" d="M38.949,122.218c1.895-1.576,2.99-3.87,2.981-6.342l0,0c0-2.616-1.183-5.329-3.499-7.722l0,0
		c-2.499-2.584-3.337-3.273-6.068-6.253l0,0c-1.626-1.765-3.023-4.309-3.011-6.889l0,0c0.012-1.863,0.652-3.839,2.632-5.971l0,0
		c1.512-1.617,2.815-3.05,4.508-4.774l0,0l0,0c0.569-0.568,0.578-1.51,0.029-2.101l0,0c-0.549-0.587-1.451-0.601-2.016-0.027l0,0
		c-1.74,1.77-3.07,3.234-4.562,4.824l0,0c-2.419,2.566-3.449,5.406-3.442,8.049l0,0c0.018,3.682,1.846,6.804,3.801,8.945l0,0
		c2.799,3.05,3.695,3.803,6.123,6.311l0,0c1.901,1.97,2.653,3.949,2.653,5.607l0,0c-0.011,1.576-0.641,2.942-1.915,4.031l0,0
		c-1.278,1.07-3.245,1.822-5.862,1.822l0,0c-0.067,0-0.14,0-0.2,0l0,0c-2.689-0.04-5.18-0.054-7.438-0.054l0,0
		c-4.517,0-8.12,0.05-10.563,0.054l0,0c-0.789,0-1.425,0.668-1.425,1.487l0,0c0,0.819,0.636,1.482,1.425,1.482l0,0
		c2.477,0,6.066-0.049,10.563-0.049l0,0c2.251,0,4.724,0.009,7.409,0.049l0,0c0.076,0,0.156,0,0.229,0l0,0
		C34.433,124.699,37.066,123.804,38.949,122.218L38.949,122.218z"/>
</g>
</svg>
