<?xml version="1.0" encoding="utf-8"?>
<!-- Generator: Adobe Illustrator 16.0.0, SVG Export Plug-In . SVG Version: 6.00 Build 0)  -->
<!DOCTYPE svg PUBLIC "-//W3C//DTD SVG 1.1//EN" "http://www.w3.org/Graphics/SVG/1.1/DTD/svg11.dtd">
<svg version="1.1" id="Layer_1" xmlns="http://www.w3.org/2000/svg" xmlns:xlink="http://www.w3.org/1999/xlink" x="0px" y="0px"
	 width="130px" height="130px" viewBox="0 0 130 130" enable-background="new 0 0 130 130" xml:space="preserve">
<rect fill="none" width="130" height="130"/>
<g>
	<path fill="#4BA7C4" d="M103.746,66.184V50.276c0-3.143-2.578-5.706-5.73-5.706c-3.166,0-5.734,2.563-5.734,5.706v15.907
		c-0.02,2.317-5.209,22.844-27.278,22.844c-22.66,0-27.282-21.914-27.282-22.844V50.276c0-3.143-2.568-5.706-5.736-5.706
		c-3.16,0-5.73,2.563-5.73,5.706v15.907c0,10.964,10.553,30.948,33.02,33.871v17.519H36.349c-3.163,0-5.722,2.563-5.722,5.711
		c0,3.156,2.559,5.715,5.722,5.715h57.297c3.162,0,5.73-2.559,5.73-5.715c0-3.147-2.568-5.711-5.73-5.711H70.73v-17.519
		C93.184,97.132,103.746,77.147,103.746,66.184z"/>
	<path fill="#C1BAA7" d="M87.271,34.8H76.1c-0.967,0-1.748-0.776-1.748-1.737c0-0.956,0.781-1.733,1.748-1.733h11.172l0.008-3.286
		H76.1c-0.967,0-1.748-0.776-1.748-1.733c0-0.956,0.781-1.737,1.748-1.737h11.18v-1.374c0-0.646-0.045-1.275-0.094-1.903H76.1
		c-0.967,0-1.748-0.781-1.748-1.738c0-0.96,0.781-1.732,1.748-1.732h10.498C84.186,8.166,75.447,1.001,64.997,1.001
		c-10.466,0-19.223,7.197-21.616,16.899h10.526c0.966,0,1.74,0.772,1.74,1.733c0,0.951-0.774,1.737-1.74,1.737h-11.09
		c-0.047,0.602-0.094,1.203-0.094,1.827v1.45h11.184c0.966,0,1.74,0.777,1.74,1.737c0,0.961-0.774,1.733-1.74,1.733H42.723v3.282
		h11.184c0.966,0,1.74,0.776,1.74,1.737c0,0.956-0.774,1.733-1.74,1.733H42.723v7.524h44.542L87.271,34.8z M87.266,49.801H42.723
		v11.794c0,12.253,9.967,22.198,22.289,22.198c12.296,0,22.267-9.945,22.271-22.198L87.266,49.801z"/>
	<path fill="#B7B19F" d="M87.271,34.8H76.1c-0.967,0-1.748-0.776-1.748-1.737c0-0.956,0.781-1.733,1.748-1.733h11.172l0.008-3.286
		H76.1c-0.967,0-1.748-0.776-1.748-1.733c0-0.956,0.781-1.737,1.748-1.737h11.18v-1.374c0-0.646-0.045-1.275-0.094-1.903H76.1
		c-0.967,0-1.748-0.781-1.748-1.738c0-0.96,0.781-1.732,1.748-1.732h10.498C84.186,8.166,75.447,1.001,64.997,1.001
		c-0.164,0-0.318,0.018-0.479,0.022v41.373h22.748L87.271,34.8z M87.266,49.801H64.518v33.965c0.167,0.005,0.326,0.027,0.494,0.027
		c12.296,0,22.267-9.945,22.271-22.198L87.266,49.801z"/>
</g>
</svg>
