<?xml version="1.0" encoding="utf-8"?>
<!-- Generator: Adobe Illustrator 16.0.0, SVG Export Plug-In . SVG Version: 6.00 Build 0)  -->
<!DOCTYPE svg PUBLIC "-//W3C//DTD SVG 1.1//EN" "http://www.w3.org/Graphics/SVG/1.1/DTD/svg11.dtd">
<svg version="1.1" id="Layer_1" xmlns="http://www.w3.org/2000/svg" xmlns:xlink="http://www.w3.org/1999/xlink" x="0px" y="0px"
	 width="130px" height="130px" viewBox="0 0 130 130" enable-background="new 0 0 130 130" xml:space="preserve">
<rect fill="none" width="130" height="130"/>
<g>
	<path fill="#4BA7C4" d="M66.343,119.334V66.888l24.112-8.918c-6.031-15.75-14.191-29.273-18.442-35.817L6.958,62.347
		c-5.125,3.267-5.388,7.166-3.663,10.892c1.877,4.1,3.003,6.263,4.957,9.881c1.959,3.623,5.437,5.295,10.228,3.338
		c2.191-0.898,18.66-7.635,35.644-14.57v47.546c-9.275,0.52-16.022,1.984-16.212,3.734l-0.016-0.065c-0.009,0.558,0,1.858,0,2.153
		c0,1.845,9.032,3.745,23.411,3.745c14.447,0,23.428-1.9,23.428-3.745v-2.013C84.733,121.332,76.851,119.731,66.343,119.334z"/>
	<path fill="#C1BAA7" d="M86.682,4.408c-6.105,3.37-10.843,9.006-13.136,15.826c4.169,6.371,12.78,20.46,19.091,36.936
		c2.299,0.632,4.693,0.993,7.178,0.993c4.69,0,9.097-1.199,12.971-3.295C107.692,23.856,91.339,8.274,86.682,4.408z M99.814,1
		c-2.925,0-5.733,0.468-8.39,1.339c6.473,5.841,20.416,21.331,25.595,49.691c6.473-5.229,10.644-13.331,10.644-22.445
		C127.663,13.802,115.191,1,99.814,1z"/>
	<path fill="#B7B19F" d="M127.663,29.585c0-5.111-1.323-9.891-3.606-14.042c-4.446,6.033-9.178,10.541-13.814,13.925
		c2.771,6.375,5.186,13.855,6.777,22.562C123.492,46.802,127.663,38.699,127.663,29.585z"/>
	<path fill="#B7B19F" d="M106.243,32.165c-8.867,5.393-16.962,6.918-21.544,7.312c2.729,5.346,5.503,11.337,7.938,17.693
		c2.299,0.632,4.693,0.993,7.178,0.993c4.69,0,9.097-1.199,12.971-3.295C111.342,46.071,108.976,38.563,106.243,32.165z"/>
</g>
</svg>
