<?xml version="1.0" encoding="utf-8"?>
<!-- Generator: Adobe Illustrator 16.0.0, SVG Export Plug-In . SVG Version: 6.00 Build 0)  -->
<!DOCTYPE svg PUBLIC "-//W3C//DTD SVG 1.1//EN" "http://www.w3.org/Graphics/SVG/1.1/DTD/svg11.dtd">
<svg version="1.1" id="Layer_1" xmlns="http://www.w3.org/2000/svg" xmlns:xlink="http://www.w3.org/1999/xlink" x="0px" y="0px"
	 width="130px" height="130px" viewBox="0 0 130 130" enable-background="new 0 0 130 130" xml:space="preserve">
<rect fill="none" width="130" height="130"/>
<g>
	<g>
		<g>
			<path fill="#FDB813" d="M54.334,96.583H3.548C2.151,96.583,1,97.734,1,99.137v12.913c0,1.403,1.151,2.548,2.548,2.548h65.737
				C62.743,110.156,57.526,103.912,54.334,96.583z"/>
			<g>
				<rect x="9.183" y="96.621" fill="#D69A22" width="6.677" height="17.82"/>
				<rect x="23.687" y="96.621" fill="#D69A22" width="6.672" height="17.82"/>
				<rect x="38.186" y="96.621" fill="#D69A22" width="6.677" height="17.82"/>
				<path fill="#D69A22" d="M54.351,96.621h-1.666v17.82h6.676v-9.269C57.371,102.547,55.686,99.679,54.351,96.621z"/>
				<path fill="#D69A22" d="M67.189,113.068v1.373h1.876C68.426,114.002,67.803,113.542,67.189,113.068z"/>
			</g>
		</g>
		<g>
			<path fill="#FDB813" d="M50.855,79.843c0-1.316,0.068-2.616,0.187-3.903H9.103c-1.404,0-2.555,1.146-2.555,2.549v12.918
				c0,1.398,1.151,2.549,2.555,2.549h44.19C51.719,89.544,50.855,84.795,50.855,79.843z"/>
			<g>
				<rect x="14.73" y="75.972" fill="#D69A22" width="6.677" height="17.822"/>
				<rect x="29.235" y="75.972" fill="#D69A22" width="6.671" height="17.822"/>
				<rect x="43.734" y="75.972" fill="#D69A22" width="6.677" height="17.822"/>
			</g>
		</g>
		<g>
			<path fill="#FDB813" d="M58.792,55.291H4.828c-1.402,0-2.548,1.15-2.548,2.548v12.918c0,1.403,1.146,2.549,2.548,2.549h46.537
				C52.405,66.652,55.013,60.521,58.792,55.291z"/>
			<g>
				<rect x="10.462" y="55.328" fill="#D69A22" width="6.672" height="17.821"/>
				<rect x="24.961" y="55.328" fill="#D69A22" width="6.677" height="17.821"/>
				<rect x="39.46" y="55.328" fill="#D69A22" width="6.676" height="17.821"/>
				<path fill="#D69A22" d="M58.764,55.328h-4.8v8.654C55.225,60.896,56.842,57.996,58.764,55.328z"/>
			</g>
		</g>
		<g>
			<path fill="#FDB813" d="M92.835,37.856c3.186,0,6.284,0.366,9.267,1.039v-1.7c0-1.403-1.151-2.548-2.555-2.548H9.103
				c-1.404,0-2.555,1.146-2.555,2.548v12.913c0,1.403,1.151,2.554,2.555,2.554h51.75C68.553,43.607,80.02,37.856,92.835,37.856z"/>
			<g>
				<rect x="14.73" y="34.679" fill="#D69A22" width="6.677" height="17.821"/>
				<rect x="29.235" y="34.679" fill="#D69A22" width="6.671" height="17.821"/>
				<rect x="43.734" y="34.679" fill="#D69A22" width="6.677" height="17.821"/>
				<path fill="#D69A22" d="M64.91,48.504V34.679h-6.671V52.5h2.754C62.209,51.084,63.516,49.747,64.91,48.504z"/>
				<path fill="#D69A22" d="M79.415,40.061v-5.382h-6.678v8.296C74.857,41.816,77.093,40.845,79.415,40.061z"/>
				<path fill="#D69A22" d="M92.835,37.856c0.361,0,0.72,0.018,1.079,0.027v-3.205h-6.677v3.56
					C89.069,37.995,90.936,37.856,92.835,37.856z"/>
			</g>
		</g>
		<g>
			<path fill="#FDB813" d="M97.402,29.464c0,1.403-1.15,2.548-2.553,2.548H4.403c-1.403,0-2.549-1.146-2.549-2.548V16.546
				c0-1.397,1.146-2.548,2.549-2.548H94.85c1.402,0,2.553,1.15,2.553,2.548V29.464z"/>
			<g>
				<rect x="10.032" y="14.03" fill="#D69A22" width="6.677" height="17.827"/>
				<rect x="24.537" y="14.03" fill="#D69A22" width="6.671" height="17.827"/>
				<rect x="39.036" y="14.03" fill="#D69A22" width="6.677" height="17.827"/>
				<rect x="53.54" y="14.03" fill="#D69A22" width="6.671" height="17.827"/>
				<rect x="68.039" y="14.03" fill="#D69A22" width="6.677" height="17.827"/>
				<rect x="82.544" y="14.03" fill="#D69A22" width="6.671" height="17.827"/>
			</g>
		</g>
	</g>
	<g>
		<path fill="#FDB813" d="M129,79.843c0,19.972-16.189,36.159-36.165,36.159c-19.969,0-36.158-16.188-36.158-36.159
			s16.189-36.165,36.158-36.165C112.811,43.678,129,59.871,129,79.843z"/>
		<g>
			<path fill="#BC7708" d="M92.835,110.935c-17.144,0-31.089-13.948-31.089-31.092c0-17.144,13.945-31.092,31.089-31.092
				c17.147,0,31.096,13.948,31.096,31.092C123.931,96.986,109.982,110.935,92.835,110.935z M92.835,51.089
				c-15.853,0-28.75,12.899-28.75,28.753c0,15.854,12.898,28.754,28.75,28.754c15.856,0,28.757-12.9,28.757-28.754
				C121.592,63.989,108.691,51.089,92.835,51.089z"/>
		</g>
		<g>
			<path fill="#BC7708" d="M101.84,88.789c0.075,3.111-0.797,5.531-2.623,7.257c-1.094,1.021-2.448,1.672-4.062,1.962v2.532h-4.61
				v-2.65c-2.169-0.554-3.841-1.844-5.013-3.86c-0.998-1.73-1.566-3.747-1.699-6.047l5.215-0.377c0.231,2.134,0.777,3.65,1.64,4.554
				c0.657,0.709,1.406,1.043,2.247,1.006c1.194-0.038,2.143-0.618,2.855-1.759c0.362-0.553,0.548-1.354,0.548-2.387
				c0-1.483-0.672-2.968-2.019-4.468c-1.095-1.016-2.718-2.542-4.871-4.58c-1.669-1.597-2.876-3.053-3.626-4.381
				c-0.943-1.651-1.413-3.447-1.413-5.387c0-1.866,0.443-3.565,1.322-5.102c1.078-1.898,2.683-3.108,4.813-3.624V59.14h4.61v2.339
				c1.459,0.322,2.669,0.941,3.631,1.838c1.688,1.581,2.632,3.645,2.823,6.198l-5.247,0.947c-0.151-1.457-0.572-2.618-1.263-3.483
				c-0.463-0.576-1.172-0.866-2.133-0.866c-1.002,0-1.758,0.446-2.279,1.323c-0.421,0.715-0.631,1.602-0.631,2.655
				c0,1.65,0.709,3.338,2.131,5.069c0.519,0.613,1.315,1.371,2.391,2.273c1.271,1.038,2.115,1.78,2.535,2.222
				c1.345,1.381,2.372,2.709,3.082,3.973C101.254,85.515,101.8,87.229,101.84,88.789z"/>
		</g>
	</g>
</g>
</svg>
