<?xml version="1.0" encoding="utf-8"?>
<!-- Generator: Adobe Illustrator 16.0.0, SVG Export Plug-In . SVG Version: 6.00 Build 0)  -->
<!DOCTYPE svg PUBLIC "-//W3C//DTD SVG 1.1//EN" "http://www.w3.org/Graphics/SVG/1.1/DTD/svg11.dtd">
<svg version="1.1" id="Layer_1" xmlns="http://www.w3.org/2000/svg" xmlns:xlink="http://www.w3.org/1999/xlink" x="0px" y="0px"
	 width="130px" height="130px" viewBox="0 0 130 130" enable-background="new 0 0 130 130" xml:space="preserve">
<rect fill="none" width="130" height="130"/>
<g>
	<g>
		<g>
			<path fill="#FDB813" d="M54.334,96.583H3.548C2.151,96.583,1,97.734,1,99.137v12.913c0,1.403,1.151,2.548,2.548,2.548h65.737
				C62.743,110.156,57.526,103.912,54.334,96.583z"/>
			<g>
				<rect x="9.183" y="96.621" fill="#D69A22" width="6.677" height="17.82"/>
				<rect x="23.687" y="96.621" fill="#D69A22" width="6.672" height="17.82"/>
				<rect x="38.186" y="96.621" fill="#D69A22" width="6.677" height="17.82"/>
				<path fill="#D69A22" d="M54.351,96.621h-1.666v17.82h6.676v-9.269C57.371,102.547,55.686,99.679,54.351,96.621z"/>
				<path fill="#D69A22" d="M67.189,113.068v1.373h1.876C68.426,114.002,67.803,113.542,67.189,113.068z"/>
			</g>
		</g>
		<g>
			<path fill="#FDB813" d="M50.855,79.843c0-1.316,0.068-2.616,0.187-3.903H9.103c-1.404,0-2.555,1.146-2.555,2.549v12.918
				c0,1.398,1.151,2.549,2.555,2.549h44.19C51.719,89.544,50.855,84.795,50.855,79.843z"/>
			<g>
				<rect x="14.73" y="75.972" fill="#D69A22" width="6.677" height="17.822"/>
				<rect x="29.235" y="75.972" fill="#D69A22" width="6.671" height="17.822"/>
				<rect x="43.734" y="75.972" fill="#D69A22" width="6.677" height="17.822"/>
			</g>
		</g>
		<g>
			<path fill="#FDB813" d="M58.792,55.291H4.828c-1.402,0-2.548,1.15-2.548,2.548v12.918c0,1.403,1.146,2.549,2.548,2.549h46.537
				C52.405,66.652,55.013,60.521,58.792,55.291z"/>
			<g>
				<rect x="10.462" y="55.328" fill="#D69A22" width="6.672" height="17.821"/>
				<rect x="24.961" y="55.328" fill="#D69A22" width="6.677" height="17.821"/>
				<rect x="39.46" y="55.328" fill="#D69A22" width="6.676" height="17.821"/>
				<path fill="#D69A22" d="M58.764,55.328h-4.8v8.654C55.225,60.896,56.842,57.996,58.764,55.328z"/>
			</g>
		</g>
		<g>
			<path fill="#FDB813" d="M92.835,37.856c3.186,0,6.284,0.366,9.267,1.039v-1.7c0-1.403-1.151-2.548-2.555-2.548H9.103
				c-1.404,0-2.555,1.146-2.555,2.548v12.913c0,1.403,1.151,2.554,2.555,2.554h51.75C68.553,43.607,80.02,37.856,92.835,37.856z"/>
			<g>
				<rect x="14.73" y="34.679" fill="#D69A22" width="6.677" height="17.821"/>
				<rect x="29.235" y="34.679" fill="#D69A22" width="6.671" height="17.821"/>
				<rect x="43.734" y="34.679" fill="#D69A22" width="6.677" height="17.821"/>
				<path fill="#D69A22" d="M64.91,48.504V34.679h-6.671V52.5h2.754C62.209,51.084,63.516,49.747,64.91,48.504z"/>
				<path fill="#D69A22" d="M79.415,40.061v-5.382h-6.678v8.296C74.857,41.816,77.093,40.845,79.415,40.061z"/>
				<path fill="#D69A22" d="M92.835,37.856c0.361,0,0.72,0.018,1.079,0.027v-3.205h-6.677v3.56
					C89.069,37.995,90.936,37.856,92.835,37.856z"/>
			</g>
		</g>
		<g>
			<path fill="#FDB813" d="M97.402,29.464c0,1.403-1.15,2.548-2.553,2.548H4.403c-1.403,0-2.549-1.146-2.549-2.548V16.546
				c0-1.397,1.146-2.548,2.549-2.548H94.85c1.402,0,2.553,1.15,2.553,2.548V29.464z"/>
			<g>
				<rect x="10.032" y="14.03" fill="#D69A22" width="6.677" height="17.827"/>
				<rect x="24.537" y="14.03" fill="#D69A22" width="6.671" height="17.827"/>
				<rect x="39.036" y="14.03" fill="#D69A22" width="6.677" height="17.827"/>
				<rect x="53.54" y="14.03" fill="#D69A22" width="6.671" height="17.827"/>
				<rect x="68.039" y="14.03" fill="#D69A22" width="6.677" height="17.827"/>
				<rect x="82.544" y="14.03" fill="#D69A22" width="6.671" height="17.827"/>
			</g>
		</g>
	</g>
	<g>
		<path fill="#FDB813" d="M129,79.843c0,19.972-16.189,36.159-36.165,36.159c-19.969,0-36.158-16.188-36.158-36.159
			s16.189-36.165,36.158-36.165C112.811,43.678,129,59.871,129,79.843z"/>
		<g>
			<path fill="#BC7708" d="M92.835,110.935c-17.144,0-31.089-13.948-31.089-31.092c0-17.144,13.945-31.092,31.089-31.092
				c17.147,0,31.096,13.948,31.096,31.092C123.931,96.986,109.982,110.935,92.835,110.935z M92.835,51.089
				c-15.853,0-28.75,12.899-28.75,28.753c0,15.854,12.898,28.754,28.75,28.754c15.856,0,28.757-12.9,28.757-28.754
				C121.592,63.989,108.691,51.089,92.835,51.089z"/>
		</g>
	</g>
</g>
<g>
	<path fill="#BC7708" d="M103.311,95.447c-1.721,1.162-4.609,2.331-8.275,2.331c-4.506,0-8.506-1.721-11.279-4.943
		c-2.111-2.336-3.498-5.559-3.999-9.559h-3.446v-2.722h3.165c0-0.282,0-0.553,0-0.834c0-0.887,0.057-1.721,0.114-2.498h-3.279
		v-2.779h3.665c0.667-3.891,2.337-7.113,4.558-9.391c2.831-2.946,6.445-4.609,11.003-4.609c3.274,0,5.829,0.943,7.383,1.778
		l-1.111,3.666c-1.386-0.834-3.717-1.554-6.22-1.554c-2.998,0-5.444,1.058-7.331,3.056c-1.669,1.611-2.78,4.109-3.332,7.055h15.497
		v2.779H84.424c-0.058,0.719-0.115,1.555-0.115,2.33c0,0.335,0,0.61,0,1.002h16.113v2.722H84.7c0.443,3.223,1.554,5.611,3.05,7.279
		c2.061,2.164,4.84,3.223,7.838,3.223c2.945,0,5.501-1.11,6.778-1.835L103.311,95.447z"/>
</g>
</svg>
