<?xml version="1.0" encoding="utf-8"?>
<!-- Generator: Adobe Illustrator 16.0.0, SVG Export Plug-In . SVG Version: 6.00 Build 0)  -->
<!DOCTYPE svg PUBLIC "-//W3C//DTD SVG 1.1//EN" "http://www.w3.org/Graphics/SVG/1.1/DTD/svg11.dtd">
<svg version="1.1" id="Layer_1" xmlns="http://www.w3.org/2000/svg" xmlns:xlink="http://www.w3.org/1999/xlink" x="0px" y="0px"
	 width="130px" height="130px" viewBox="0 0 130 130" enable-background="new 0 0 130 130" xml:space="preserve">
<rect fill="none" width="130" height="130"/>
<g>
	<path fill="#7C6A51" d="M128.612,54.447c-2.269-0.575-5.748,8.244-13.923,8.244c-10.496,0-15.445-17.67-31.852-17.67
		c-13.009,0-16.978,10.131-17.842,10.131c-0.855,0-4.829-10.131-17.845-10.131c-16.399,0-21.348,17.67-31.845,17.67
		c-8.175,0-11.65-8.819-13.919-8.244c-2.124,0.532,3.902,30.531,32.623,30.531c18.633,0,29.58-14.462,30.985-14.462
		c1.408,0,12.36,14.462,30.993,14.462C124.712,84.984,130.736,54.979,128.612,54.447z"/>
</g>
</svg>
