<?xml version="1.0" encoding="utf-8"?>
<!-- Generator: Adobe Illustrator 16.0.0, SVG Export Plug-In . SVG Version: 6.00 Build 0)  -->
<!DOCTYPE svg PUBLIC "-//W3C//DTD SVG 1.1//EN" "http://www.w3.org/Graphics/SVG/1.1/DTD/svg11.dtd">
<svg version="1.1" id="Layer_1" xmlns="http://www.w3.org/2000/svg" xmlns:xlink="http://www.w3.org/1999/xlink" x="0px" y="0px"
	 width="130px" height="130px" viewBox="0 0 130 130" enable-background="new 0 0 130 130" xml:space="preserve">
<rect fill="none" width="130" height="130"/>
<g id="Myspace_icon_1_">
	<path fill="#008DDE" d="M17.791,80.338C8.519,80.338,1,87.818,1,97.049c0,2.206,0,4.84,0,7.563h33.571
		c0.008-3.385,0.014-6.274,0.014-7.563C34.585,87.818,27.066,80.338,17.791,80.338z M107.669,68.04
		C119.45,68.04,129,58.492,129,46.717c0-11.781-9.55-21.329-21.331-21.329c-11.784,0-21.335,9.548-21.335,21.329
		C86.334,58.492,95.885,68.04,107.669,68.04z M17.791,40.715C8.519,40.715,1,48.194,1,57.425c0,9.231,7.519,16.711,16.791,16.711
		c9.275,0,16.794-7.479,16.794-16.711C34.585,48.194,27.066,40.715,17.791,40.715z M107.669,74.152
		c-11.784,0-21.335,9.548-21.335,21.323c0,1.545,0,5.097,0,9.137H129c0-3.085,0-6.225,0-9.137
		C129,83.7,119.45,74.152,107.669,74.152z M60.454,77.314c-10.956,0-19.836,8.858-19.836,19.784c0,2.384,0,4.951,0,7.514h39.66
		c0.008-3.284,0.011-6.119,0.011-7.514C80.288,86.173,71.407,77.314,60.454,77.314z M60.454,31.595
		c-10.956,0-19.836,8.864-19.836,19.79c0,10.931,8.88,19.789,19.836,19.789c10.953,0,19.834-8.858,19.834-19.789
		C80.288,40.459,71.407,31.595,60.454,31.595z"/>
</g>
</svg>
