<?xml version="1.0" encoding="utf-8"?>
<!-- Generator: Adobe Illustrator 16.0.0, SVG Export Plug-In . SVG Version: 6.00 Build 0)  -->
<!DOCTYPE svg PUBLIC "-//W3C//DTD SVG 1.1//EN" "http://www.w3.org/Graphics/SVG/1.1/DTD/svg11.dtd">
<svg version="1.1" id="Layer_1" xmlns="http://www.w3.org/2000/svg" xmlns:xlink="http://www.w3.org/1999/xlink" x="0px" y="0px"
	 width="130px" height="130px" viewBox="0 0 130 130" enable-background="new 0 0 130 130" xml:space="preserve">
<rect fill="none" width="130" height="130"/>
<g>
	<path fill="#3187B1" d="M126.309,100.008h-19.748c-1.484,0-2.699,1.215-2.699,2.695v19.749c0,1.479,1.215,2.691,2.699,2.691h19.748
		c1.477,0,2.691-1.212,2.691-2.691v-19.749C129,101.223,127.785,100.008,126.309,100.008z"/>
	<path fill="#8DA552" d="M74.971,100.008H55.213c-1.481,0-2.696,1.215-2.696,2.695v19.749c0,1.479,1.215,2.691,2.696,2.691h19.758
		c1.482,0,2.687-1.212,2.687-2.691v-19.749C77.657,101.223,76.453,100.008,74.971,100.008z"/>
	<path fill="#3FAA96" d="M23.438,100.008H3.694c-1.482,0-2.694,1.215-2.694,2.695v19.749c0,1.479,1.212,2.691,2.694,2.691h19.744
		c1.483,0,2.696-1.212,2.696-2.691v-19.749C26.134,101.223,24.921,100.008,23.438,100.008z"/>
	<path fill="#7C6A51" d="M116.177,68.296H68.313V48.837c0-1.735-1.406-3.147-3.14-3.147c-1.744,0-3.152,1.412-3.152,3.147v19.459
		H13.756c-1.739,0-3.147,1.41-3.147,3.146v19.108c0,1.737,1.409,3.146,3.147,3.146c1.736,0,3.147-1.409,3.147-3.146V74.595h45.118
		v16.272c0,1.737,1.408,3.149,3.152,3.149c1.733,0,3.14-1.412,3.14-3.149V74.595h44.721v15.956c0,1.737,1.406,3.146,3.143,3.146
		c1.743,0,3.152-1.409,3.152-3.146V71.442C119.329,69.706,117.92,68.296,116.177,68.296z"/>
	<path fill="#FDB813" d="M50.332,39.502h29.269c1.481,0,2.696-1.219,2.696-2.699V7.551c0-1.48-1.215-2.694-2.696-2.694H50.332
		c-1.475,0-2.687,1.214-2.687,2.694v29.252C47.646,38.283,48.857,39.502,50.332,39.502z"/>
</g>
</svg>
