<?xml version="1.0" encoding="utf-8"?>
<!-- Generator: Adobe Illustrator 16.0.0, SVG Export Plug-In . SVG Version: 6.00 Build 0)  -->
<!DOCTYPE svg PUBLIC "-//W3C//DTD SVG 1.1//EN" "http://www.w3.org/Graphics/SVG/1.1/DTD/svg11.dtd">
<svg version="1.1" id="Layer_1" xmlns="http://www.w3.org/2000/svg" xmlns:xlink="http://www.w3.org/1999/xlink" x="0px" y="0px"
	 width="130px" height="130px" viewBox="0 0 130 130" enable-background="new 0 0 130 130" xml:space="preserve">
<rect fill="none" width="130" height="130"/>
<g>
	<path fill="#F15A22" d="M123.286,94.792H94.398c-1.467,0-2.659,1.195-2.659,2.661v28.888c0,1.461,1.192,2.659,2.659,2.659h28.888
		c1.465,0,2.665-1.198,2.665-2.659V97.453C125.951,95.987,124.751,94.792,123.286,94.792z"/>
	<path fill="#CB5A7C" d="M35.61,94.792H6.703c-1.453,0-2.654,1.195-2.654,2.661v28.888c0,1.461,1.201,2.659,2.654,2.659H35.61
		c1.456,0,2.657-1.198,2.657-2.659V97.453C38.268,95.987,37.066,94.792,35.61,94.792z"/>
	<path fill="#7C6A51" d="M108.84,63.649H68.232V44.431c0-1.716-1.392-3.106-3.11-3.106c-1.713,0-3.104,1.391-3.104,3.106v19.219
		H21.024c-1.723,0-3.111,1.393-3.111,3.107v18.865c0,1.718,1.389,3.11,3.111,3.11c1.71,0,3.104-1.393,3.104-3.11V69.867h81.601
		v15.755c0,1.718,1.389,3.11,3.11,3.11c1.713,0,3.11-1.393,3.11-3.11V66.757C111.95,65.042,110.553,63.649,108.84,63.649z"/>
	<path fill="#FDB813" d="M50.488,35.21h28.89c1.462,0,2.657-1.195,2.657-2.658V3.661C82.035,2.195,80.84,1,79.378,1h-28.89
		c-1.47,0-2.663,1.195-2.663,2.661v28.891C47.825,34.015,49.019,35.21,50.488,35.21z"/>
</g>
</svg>
