<?xml version="1.0" encoding="utf-8"?>
<!-- Generator: Adobe Illustrator 16.0.0, SVG Export Plug-In . SVG Version: 6.00 Build 0)  -->
<!DOCTYPE svg PUBLIC "-//W3C//DTD SVG 1.1//EN" "http://www.w3.org/Graphics/SVG/1.1/DTD/svg11.dtd">
<svg version="1.1" id="Layer_1" xmlns="http://www.w3.org/2000/svg" xmlns:xlink="http://www.w3.org/1999/xlink" x="0px" y="0px"
	 width="130px" height="130px" viewBox="0 0 130 130" enable-background="new 0 0 130 130" xml:space="preserve">
<rect fill="none" width="130" height="130"/>
<g>
	<path fill="#FDB813" d="M91.118,88.779c0-11.322,9.229-20.537,20.578-20.537c3.23,0,6.278,0.768,9.001,2.1v-44.57
		c0-0.078-0.044-0.14-0.048-0.208c-0.021-0.132-0.049-0.25-0.093-0.373c-0.039-0.11-0.097-0.21-0.166-0.309
		c-0.066-0.101-0.137-0.195-0.225-0.28c-0.094-0.099-0.207-0.182-0.331-0.261c-0.061-0.044-0.104-0.102-0.175-0.137
		c-0.04-0.02-0.084-0.02-0.123-0.042c-0.127-0.055-0.269-0.088-0.41-0.124c-0.14-0.031-0.267-0.06-0.408-0.069
		c-0.048-0.007-0.092-0.024-0.141-0.024H3.115c-0.053,0-0.097,0.018-0.146,0.024c-0.131,0.01-0.255,0.039-0.387,0.067
		c-0.149,0.038-0.286,0.071-0.426,0.126c-0.036,0.021-0.08,0.021-0.123,0.042c-0.066,0.036-0.11,0.093-0.176,0.137
		c-0.124,0.079-0.237,0.162-0.33,0.261c-0.083,0.084-0.154,0.179-0.216,0.28c-0.07,0.099-0.132,0.199-0.176,0.309
		c-0.044,0.123-0.066,0.241-0.088,0.373C1.044,25.631,1,25.693,1,25.771v74.439c0,1.006,0.945,1.824,2.115,1.824h92.889
		C92.963,98.455,91.118,93.832,91.118,88.779z"/>
	<path fill="#E89E0A" d="M100.6,71.51c-3.877-4.822-8.185-9.696-12.864-14.26c15.158-11.309,26.278-25.445,31.964-33.017
		c-0.009-0.01-0.022-0.022-0.039-0.029c-0.04-0.02-0.084-0.02-0.123-0.042c-0.127-0.055-0.269-0.088-0.41-0.124
		c-0.092-0.021-0.18-0.032-0.267-0.046c-8.545,10.657-31.45,35.848-58.014,44.4C34.389,59.872,11.316,34.598,2.896,24.078
		c-0.022-0.031-0.04-0.055-0.066-0.084c-0.079,0.013-0.158,0.024-0.246,0.042c-0.149,0.038-0.286,0.071-0.426,0.126
		c-0.036,0.021-0.08,0.021-0.123,0.042c-0.014,0.007-0.027,0.021-0.04,0.03c5.694,7.583,16.833,21.741,32.021,33.056
		C17.613,73.221,5.736,92.91,1.215,100.986c0.269,0.48,0.77,0.822,1.381,0.959c4.446-7.957,16.344-27.756,32.782-43.654
		c7.427,5.36,15.777,9.998,24.906,12.859l0.562,0.178l0.558-0.178c9.16-2.869,17.523-7.523,24.964-12.902
		c4.679,4.544,8.988,9.408,12.863,14.229C99.677,72.137,100.129,71.812,100.6,71.51z"/>
	<path fill="#7C6A51" d="M111.696,71.502c-9.55,0-17.312,7.75-17.312,17.277s7.762,17.275,17.312,17.275
		c9.538,0,17.304-7.748,17.304-17.275S121.234,71.502,111.696,71.502z M118.275,89.967h-5.396v5.396c0,0.686-0.664,1.342-1.35,1.342
		c-0.682,0-1.346-0.656-1.346-1.342v-5.396h-5.396c-0.687,0-1.354-0.666-1.354-1.35c0-0.686,0.668-1.348,1.354-1.348h5.396v-5.396
		c0-0.684,0.664-1.344,1.346-1.344c0.686,0,1.35,0.66,1.35,1.344v5.396h5.396c0.686,0,1.345,0.662,1.345,1.348
		C119.62,89.301,118.961,89.967,118.275,89.967z"/>
</g>
</svg>
