<?xml version="1.0" encoding="utf-8"?>
<!-- Generator: Adobe Illustrator 16.0.0, SVG Export Plug-In . SVG Version: 6.00 Build 0)  -->
<!DOCTYPE svg PUBLIC "-//W3C//DTD SVG 1.1//EN" "http://www.w3.org/Graphics/SVG/1.1/DTD/svg11.dtd">
<svg version="1.1" id="Layer_1" xmlns="http://www.w3.org/2000/svg" xmlns:xlink="http://www.w3.org/1999/xlink" x="0px" y="0px"
	 width="130px" height="130px" viewBox="0 0 130 130" enable-background="new 0 0 130 130" xml:space="preserve">
<rect fill="none" width="130" height="130"/>
<g>
	<g>
		<path fill="#E89E0A" d="M124.873,52.305c-0.015-0.131-0.039-0.251-0.083-0.374c-0.044-0.111-0.104-0.209-0.167-0.31
			c-0.073-0.101-0.143-0.195-0.23-0.281c-0.094-0.099-0.206-0.182-0.328-0.262c-0.063-0.042-0.108-0.099-0.177-0.138
			c-0.044-0.019-0.088-0.019-0.126-0.039c-0.128-0.058-0.266-0.091-0.412-0.125c-0.138-0.032-0.27-0.059-0.402-0.071
			c-0.053-0.005-0.097-0.023-0.146-0.023H7.062c-0.059,0-0.103,0.018-0.152,0.023c-0.132,0.012-0.255,0.039-0.387,0.068
			c-0.152,0.037-0.29,0.07-0.426,0.127c-0.035,0.021-0.079,0.021-0.123,0.039c-0.068,0.04-0.113,0.096-0.176,0.138
			c-0.123,0.08-0.24,0.164-0.328,0.262c-0.088,0.086-0.157,0.18-0.226,0.281c-0.063,0.1-0.127,0.198-0.171,0.31
			c-0.044,0.123-0.068,0.242-0.088,0.374c-0.005,0.069-0.049,0.131-0.049,0.208v74.621c0,1.009,0.95,1.829,2.125,1.829h115.739
			c1.176,0,2.125-0.82,2.125-1.829V52.513C124.926,52.436,124.882,52.374,124.873,52.305z"/>
	</g>
	<g>
		<path fill="#E89E0A" d="M122.213,48.289C113.897,37.738,91.088,11.106,64.934,2.56C35.905,12.044,11.299,43.202,5.397,51.234
			h119.069C123.883,50.44,123.129,49.445,122.213,48.289z"/>
	</g>
	<g>
		<path fill="#FFF6E4" d="M117.947,36.134L82.63,1.15L18.2,1.12c-3.365,0-6.108,2.749-6.108,6.112v84.828
			c0,3.361,2.743,6.113,6.108,6.113l93.792-0.117c3.336,0,6.073-2.747,6.073-6.105c0,0,0-53.355,0-54.426
			C118.064,36.779,118.124,36.571,117.947,36.134z"/>
	</g>
	<g>
		<path fill="#D8CEBB" d="M82.693,1l0.617,25.439c0,5.512,4.589,9.956,10.231,9.956l24.522-0.143L82.693,1z"/>
	</g>
	<g>
		<path fill="#FDB813" d="M6.225,51.207c-0.304,0.1-0.598,0.212-0.896,0.315c-0.029,0.035-0.059,0.064-0.083,0.101
			c-0.063,0.1-0.127,0.198-0.171,0.31c-0.044,0.123-0.068,0.242-0.088,0.374c-0.005,0.069-0.049,0.131-0.049,0.208v74.621
			c0,1.009,0.95,1.829,2.125,1.829h23.23c20.139-10.091,35.459-29.082,35.459-29.082c-0.583-0.794-1.337-1.788-2.248-2.944
			C55.183,86.387,32.374,59.754,6.225,51.207z"/>
	</g>
	<g>
		<path fill="#FDB813" d="M125.063,127.184V53.026c0-0.078-0.044-0.14-0.049-0.208c-0.02-0.13-0.045-0.246-0.089-0.369
			c-0.044-0.112-0.106-0.211-0.176-0.308c-0.02-0.037-0.054-0.067-0.079-0.101c-0.298-0.102-0.592-0.215-0.891-0.313
			c-26.091,8.495-48.85,34.961-57.147,45.445c-0.911,1.151-1.659,2.138-2.242,2.927c0,0,15.285,18.876,35.376,28.901h23.176
			C124.113,129,125.063,128.188,125.063,127.184z"/>
	</g>
	<g>
		<path fill="#FDB813" d="M122.203,126.029c-8.276-10.495-30.973-36.992-56.991-45.496c-28.886,9.437-53.365,40.438-59.238,48.429
			h118.462C123.854,128.173,123.109,127.184,122.203,126.029z"/>
	</g>
	<g>
		<path fill="#E89E0A" d="M53.841,85.574c-0.426-0.463-0.857-0.928-1.298-1.401C28.318,97.262,9.281,122.014,5.23,127.531
			c-0.068,0.088-0.103,0.186-0.132,0.286c0.235,0.507,0.74,0.879,1.352,1.041c0.103-0.063,0.201-0.13,0.274-0.23
			C10.755,123.143,29.783,98.391,53.841,85.574z"/>
		<path fill="#E89E0A" d="M125.029,127.325c-0.563-0.764-1.259-1.68-2.102-2.753c-7.229-9.17-24.469-29.129-45.093-40.36
			c-0.445,0.475-0.872,0.938-1.304,1.403c20.498,11.006,37.738,30.969,44.942,40.104c0.901,1.146,1.641,2.126,2.219,2.909
			c0.049,0.071,0.117,0.117,0.181,0.167C124.524,128.521,124.966,127.972,125.029,127.325z"/>
	</g>
	
		<line fill="none" stroke="#D8CEBB" stroke-width="3.7615" stroke-linecap="round" stroke-linejoin="round" stroke-miterlimit="10" x1="24.748" y1="23.723" x2="75.022" y2="23.723"/>
	
		<line fill="none" stroke="#D8CEBB" stroke-width="3.7615" stroke-linecap="round" stroke-linejoin="round" stroke-miterlimit="10" x1="24.748" y1="39.135" x2="75.022" y2="39.135"/>
	
		<line fill="none" stroke="#D8CEBB" stroke-width="3.7615" stroke-linecap="round" stroke-linejoin="round" stroke-miterlimit="10" x1="28.431" y1="54.546" x2="101.56" y2="54.546"/>
	
		<line fill="none" stroke="#D8CEBB" stroke-width="3.7615" stroke-linecap="round" stroke-linejoin="round" stroke-miterlimit="10" x1="47.978" y1="69.958" x2="82.012" y2="69.958"/>
</g>
</svg>
