<?xml version="1.0" encoding="utf-8"?>
<!-- Generator: Adobe Illustrator 16.0.0, SVG Export Plug-In . SVG Version: 6.00 Build 0)  -->
<!DOCTYPE svg PUBLIC "-//W3C//DTD SVG 1.1//EN" "http://www.w3.org/Graphics/SVG/1.1/DTD/svg11.dtd">
<svg version="1.1" id="Layer_1" xmlns="http://www.w3.org/2000/svg" xmlns:xlink="http://www.w3.org/1999/xlink" x="0px" y="0px"
	 width="130px" height="130px" viewBox="0 0 130 130" enable-background="new 0 0 130 130" xml:space="preserve">
<rect fill="none" width="130" height="130"/>
<g>
	<g>
		<path fill="#FDB813" d="M128.947,24.977c-0.022-0.141-0.051-0.267-0.099-0.398c-0.042-0.117-0.103-0.225-0.178-0.33
			c-0.071-0.108-0.146-0.21-0.24-0.3c-0.099-0.105-0.221-0.194-0.353-0.279c-0.065-0.047-0.112-0.107-0.188-0.146
			c-0.043-0.021-0.09-0.021-0.133-0.045c-0.141-0.059-0.286-0.094-0.441-0.131c-0.146-0.033-0.282-0.064-0.433-0.074
			c-0.052-0.008-0.099-0.026-0.15-0.026H3.262c-0.056,0-0.103,0.019-0.155,0.026c-0.142,0.01-0.278,0.041-0.414,0.071
			c-0.16,0.04-0.306,0.075-0.456,0.134c-0.038,0.023-0.085,0.023-0.131,0.045c-0.071,0.039-0.118,0.1-0.188,0.146
			c-0.131,0.085-0.254,0.174-0.353,0.279c-0.094,0.09-0.165,0.191-0.23,0.3c-0.075,0.105-0.141,0.213-0.188,0.33
			c-0.047,0.132-0.071,0.258-0.094,0.398C1.047,25.05,1,25.115,1,25.199v79.602c0,1.077,1.011,1.953,2.262,1.953h123.472
			c1.256,0,2.267-0.876,2.267-1.953V25.199C129,25.115,128.953,25.05,128.947,24.977z"/>
	</g>
	<path fill="#E89E0A" d="M93.752,58.861c16.209-12.094,28.101-27.21,34.181-35.307c-0.015-0.011-0.024-0.024-0.042-0.032
		c-0.043-0.021-0.09-0.021-0.133-0.045c-0.141-0.059-0.286-0.094-0.441-0.131c-0.094-0.022-0.188-0.034-0.282-0.05
		c-9.137,11.396-33.631,38.334-62.041,47.482C36.704,61.665,12.032,34.639,3.027,23.389c-0.024-0.033-0.042-0.059-0.071-0.091
		c-0.084,0.015-0.174,0.026-0.263,0.046c-0.16,0.04-0.306,0.075-0.456,0.134c-0.038,0.023-0.085,0.023-0.131,0.045
		c-0.015,0.008-0.029,0.022-0.043,0.033c6.09,8.107,18,23.249,34.242,35.348C18.765,75.941,6.064,96.994,1.23,105.631
		c0.287,0.514,0.823,0.879,1.477,1.026c4.754-8.511,17.478-29.681,35.055-46.683c7.942,5.731,16.872,10.693,26.629,13.75
		l0.602,0.191l0.602-0.191c9.79-3.065,18.738-8.044,26.694-13.796c17.507,17.003,30.207,38.205,34.952,46.737
		c0.653-0.135,1.199-0.49,1.495-0.995C123.917,97.028,111.235,75.912,93.752,58.861z"/>
</g>
</svg>
