<?xml version="1.0" encoding="utf-8"?>
<!-- Generator: Adobe Illustrator 16.0.0, SVG Export Plug-In . SVG Version: 6.00 Build 0)  -->
<!DOCTYPE svg PUBLIC "-//W3C//DTD SVG 1.1//EN" "http://www.w3.org/Graphics/SVG/1.1/DTD/svg11.dtd">
<svg version="1.1" id="Layer_1" xmlns="http://www.w3.org/2000/svg" xmlns:xlink="http://www.w3.org/1999/xlink" x="0px" y="0px"
	 width="130px" height="130px" viewBox="0 0 130 130" enable-background="new 0 0 130 130" xml:space="preserve">
<rect x="4.278" y="4.278" fill="none" width="121.445" height="121.445"/>
<g>
	<g>
		<path fill="#E78F3A" d="M104.55,17.836c-7.396-4.298-14.655-6.545-19.317-6.206L54.715,64.312L89.36,83.932l30.127-52.456
			C117.447,27.261,111.929,22.115,104.55,17.836z"/>
	</g>
	<g>
		<path fill="#FAAB18" d="M105.973,18.661c-3.998-2.327-7.945-4.027-11.477-5.067L61.454,71.355l14.969,8.642l33.608-58.751
			C108.748,20.362,107.411,19.492,105.973,18.661z"/>
	</g>
	<g>
		<path fill="#FDB813" d="M85.232,11.63l-30.351,52.4l3.126,1.217l8.104,6.264l32.691-56.616
			C93.522,12.546,88.67,11.38,85.232,11.63z"/>
	</g>
	<g>
		<path fill="#FFF6E4" d="M77.857,77.522C74.574,70.5,66.663,70.56,66.663,70.56c-2.214-5.067-6.778-7.792-11.781-6.484
			c-0.07,0.604-0.49,36.607,0.141,36.832l34.403-17.099C84.017,76.119,77.857,77.522,77.857,77.522z"/>
	</g>
	<g>
		<path fill="#424242" d="M55.022,100.907l8.27-4.111c-1.751-1.779-4.641-3.98-8.598-4.706
			C54.727,97.124,54.821,100.834,55.022,100.907z"/>
	</g>
	<g>
		<path fill="#F15A22" d="M110.845,6.433c-11.47-6.646-17.887-7.339-21.412-1.275c-0.192,0.341-1.747,2.603-3.499,5.405
			c4.667-0.299,11.889,1.825,19.245,6.094c7.395,4.296,12.928,9.569,14.954,13.801c1.804-3.075,3.072-5.174,3.288-5.552
			C127.202,18.394,123.182,13.592,110.845,6.433z"/>
	</g>
	<g>
		<path fill="#A4C553" d="M108.971,69.703c-3.753,0-6.802,3.048-6.802,6.804v38.89H18.82V31.504h43.656
			c3.763,0,6.804-3.047,6.804-6.805c0-3.756-3.041-6.799-6.804-6.799h-50.46c-3.76,0-6.804,3.043-6.804,6.799v97.499
			c0,3.757,3.044,6.802,6.804,6.802h96.955c3.763,0,6.807-3.045,6.807-6.802V76.507C115.777,72.751,112.733,69.703,108.971,69.703z"
			/>
	</g>
</g>
<rect fill="none" width="130" height="130"/>
</svg>
