<?xml version="1.0" encoding="utf-8"?>
<!-- Generator: Adobe Illustrator 16.0.0, SVG Export Plug-In . SVG Version: 6.00 Build 0)  -->
<!DOCTYPE svg PUBLIC "-//W3C//DTD SVG 1.1//EN" "http://www.w3.org/Graphics/SVG/1.1/DTD/svg11.dtd">
<svg version="1.1" id="Layer_1" xmlns="http://www.w3.org/2000/svg" xmlns:xlink="http://www.w3.org/1999/xlink" x="0px" y="0px"
	 width="130px" height="130px" viewBox="0 0 130 130" enable-background="new 0 0 130 130" xml:space="preserve">
<rect fill="none" width="130" height="130"/>
<g>
	<g id="ribbon_6">
		<g>
			<polygon fill="#F15A22" points="65,0.648 70.708,10.668 78.379,2.05 81.875,13.046 91.176,6.208 92.314,17.694 102.821,12.934 
				101.553,24.401 112.82,21.936 109.188,32.896 120.734,32.824 114.902,42.784 126.205,45.115 118.428,53.638 129,58.275 
				119.622,64.994 129,71.725 118.428,76.356 126.205,84.885 114.902,87.216 120.734,97.176 109.188,97.105 112.82,108.059 
				101.553,105.593 102.821,117.062 92.314,112.3 91.176,123.792 81.875,116.949 78.379,127.944 70.708,119.326 65,129.352 
				59.289,119.326 51.618,127.944 48.117,116.949 38.825,123.792 37.689,112.3 27.175,117.062 28.447,105.593 17.174,108.059 
				20.805,97.105 9.266,97.176 15.092,87.216 3.792,84.885 11.569,76.356 1,71.725 10.372,64.994 1,58.275 11.569,53.638 
				3.792,45.115 15.092,42.784 9.266,32.824 20.805,32.896 17.174,21.936 28.447,24.401 27.175,12.934 37.689,17.694 38.825,6.208 
				48.117,13.046 51.618,2.05 59.289,10.668 			"/>
		</g>
	</g>
	<g>
		<path fill="#FFF6E4" d="M36.58,47.522l6.988,23.487V47.522h5.267v34.949h-5.657l-7.246-22.381v22.381h-5.267V47.522H36.58z"/>
		<path fill="#FFF6E4" d="M53.546,82.472V47.522H68.54v5.294h-9.727v9.534h7.106v5.293h-7.106v9.535h9.727v5.293H53.546z"/>
		<path fill="#FFF6E4" d="M93.811,47.552h5.527l-5.462,34.92h-5.02l-3.001-19.216l-2.804,19.216H78.01l-5.847-34.92h5.518
			l2.76,18.702l2.537-18.702h5.519l2.756,18.685L93.811,47.552z"/>
	</g>
</g>
</svg>
