<?xml version="1.0" encoding="utf-8"?>
<!-- Generator: Adobe Illustrator 16.0.0, SVG Export Plug-In . SVG Version: 6.00 Build 0)  -->
<!DOCTYPE svg PUBLIC "-//W3C//DTD SVG 1.1//EN" "http://www.w3.org/Graphics/SVG/1.1/DTD/svg11.dtd">
<svg version="1.1" id="Layer_1" xmlns="http://www.w3.org/2000/svg" xmlns:xlink="http://www.w3.org/1999/xlink" x="0px" y="0px"
	 width="130px" height="130px" viewBox="0 0 130 130" enable-background="new 0 0 130 130" xml:space="preserve">
<rect fill="none" width="130" height="130"/>
<g>
	<path fill="#E0D3BF" d="M128.958,97.743l-8.063-75.023c-0.229-2.124-1.276-4.027-2.933-5.355c-1.65-1.314-3.729-1.908-5.785-1.677
		l-1.128,0.121c-1.103,0.11-1.897,1.103-1.787,2.199c0.121,1.103,1.082,1.883,2.205,1.782l1.138-0.121
		c1.054-0.131,2.051,0.182,2.854,0.82c0.825,0.665,1.342,1.606,1.45,2.658l8.058,75.023c0.113,1.052-0.184,2.049-0.855,2.879
		c-0.654,0.815-1.583,1.329-2.614,1.435l-99.262,10.65l-0.423,0.03c-2.004,0-3.683-1.5-3.886-3.503l-0.156-1.39
		c-0.118-1.102-1.147-1.897-2.21-1.771c-1.1,0.121-1.895,1.107-1.776,2.21l0.155,1.379c0.418,4.042,3.806,7.087,7.873,7.087
		c0.286,0,0.578-0.025,0.853-0.055l99.252-10.651c2.094-0.222,3.986-1.253,5.315-2.904
		C128.562,101.916,129.172,99.852,128.958,97.743z"/>
	<g>
		<path fill="#E0D3BF" d="M24.27,110.558c-2.204,0-4.009-1.612-4.23-3.752l1.042-0.105c0.166,1.603,1.522,2.811,3.159,2.811
			l0.364-0.024l93.941-9.989c0.838-0.086,1.594-0.496,2.124-1.152c0.547-0.672,0.788-1.473,0.697-2.318l-7.631-70.378
			c-0.085-0.853-0.503-1.61-1.175-2.142c-0.683-0.538-1.473-0.757-2.311-0.661l-1.09,0.113l-0.105-1.042l1.077-0.111
			c1.09-0.131,2.185,0.177,3.078,0.881c0.896,0.705,1.452,1.719,1.567,2.854l7.631,70.375c0.121,1.127-0.198,2.194-0.926,3.088
			c-0.707,0.876-1.712,1.419-2.829,1.535l-94.382,10.019C24.272,110.558,24.272,110.558,24.27,110.558z"/>
	</g>
	<g>
		<path fill="#FFF6E4" d="M109.881,16.056c-0.158-1.45-1.419-2.588-2.871-2.588l-0.322,0.021L4.237,24.477
			c-1.581,0.176-2.738,1.61-2.577,3.195l8.32,77.44c0.166,1.55,1.606,2.732,3.199,2.582l102.445-11.003
			c0.771-0.086,1.465-0.458,1.94-1.058c0.496-0.614,0.705-1.369,0.645-2.134L109.881,16.056z"/>
		<path fill="#E0D3BF" d="M12.904,108.351c-1.809,0-3.375-1.392-3.566-3.171L1.018,27.74c-0.196-1.938,1.215-3.689,3.148-3.903
			L106.97,12.823h0.002c1.814,0,3.354,1.39,3.549,3.161l8.33,77.447c0.075,0.967-0.204,1.888-0.785,2.607
			c-0.576,0.725-1.42,1.186-2.371,1.291L13.247,108.336C13.126,108.346,13.015,108.351,12.904,108.351z M107.01,14.112l-0.282,0.021
			L4.305,25.118c-1.228,0.136-2.129,1.253-2.003,2.488l8.32,77.438c0.131,1.203,1.253,2.145,2.496,2.009l102.438-11.004
			c0.604-0.065,1.137-0.357,1.505-0.815c0.38-0.473,0.556-1.054,0.506-1.684l-8.328-77.427
			C109.116,14.996,108.137,14.112,107.01,14.112z"/>
	</g>
	<path fill="#7C6A51" d="M50.315,75.243c0.078,0.74,0.707,1.294,1.439,1.294l0.156-0.011l47.12-5.059
		c0.796-0.085,1.369-0.8,1.286-1.59c-0.083-0.791-0.777-1.339-1.593-1.289l-47.12,5.059C50.804,73.738,50.232,74.443,50.315,75.243z
		 M49.95,62.901l0.148-0.01l47.134-5.064c0.795-0.085,1.369-0.8,1.283-1.595c-0.081-0.791-0.732-1.334-1.593-1.284l-47.128,5.063
		c-0.796,0.086-1.367,0.801-1.286,1.596C48.587,62.353,49.218,62.901,49.95,62.901z M100.202,82.472l-74.146,7.953
		c-0.798,0.09-1.369,0.8-1.288,1.595c0.08,0.745,0.709,1.299,1.439,1.299l0.156-0.01l74.14-7.958
		c0.795-0.086,1.369-0.796,1.283-1.596C101.707,82.965,101.037,82.381,100.202,82.472z"/>
	<path fill="#F15A22" d="M28.554,66.953c-0.79,0-1.433,0.645-1.433,1.43c0,0.795,0.643,1.435,1.433,1.435s1.43-0.64,1.43-1.435
		C29.983,67.598,29.344,66.953,28.554,66.953z"/>
	<path fill="#A4CB45" d="M33.801,76.693c0,0,3.021-4.873,3.141-4.873c0.121,0,7.047,3.262,7.047,3.262l0.886,6.04l-5.517,1.289
		l-4.309-0.685L33.801,76.693z"/>
	<path fill="#4A8CAE" d="M35.686,32.183l-1.1,0.126c-0.795,0.08-1.369,0.8-1.278,1.595L34.81,47.56L22.865,34.211
		c-0.307-0.353-0.782-0.528-1.232-0.479l-1.39,0.161c-0.795,0.081-1.369,0.801-1.283,1.596l2.154,19.484
		c0.075,0.74,0.704,1.283,1.439,1.283l0.15-0.005l1.107-0.126c0.381-0.035,0.726-0.231,0.972-0.528
		c0.236-0.302,0.353-0.685,0.308-1.067l-1.458-13.228l11.59,12.956c0.31,0.348,0.777,0.498,1.233,0.474l1.698-0.187
		c0.381-0.04,0.726-0.231,0.972-0.533c0.236-0.303,0.35-0.685,0.308-1.067l-2.154-19.484C37.196,32.671,36.464,32.082,35.686,32.183
		z M54.388,49.155c-0.305-0.242-0.683-0.362-1.069-0.312l-7.201,0.79l-0.571-5.209l7.193-0.796c0.798-0.09,1.369-0.805,1.286-1.596
		l-0.121-1.102c-0.038-0.383-0.239-0.73-0.533-0.972c-0.305-0.241-0.697-0.357-1.062-0.307l-7.2,0.795l-0.576-5.21l7.2-0.795
		c0.79-0.086,1.366-0.806,1.278-1.596l-0.123-1.103c-0.038-0.382-0.231-0.734-0.533-0.972c-0.303-0.246-0.703-0.356-1.062-0.312
		l-9.737,1.077c-0.798,0.08-1.369,0.8-1.278,1.596l2.145,19.484c0.048,0.383,0.241,0.725,0.536,0.972
		c0.264,0.206,0.576,0.316,0.905,0.316l0.161-0.01l9.732-1.077c0.798-0.08,1.369-0.801,1.278-1.596l-0.115-1.103
		C54.873,49.744,54.682,49.392,54.388,49.155z M77.735,27.541l-1.12,0.126c-0.649,0.07-1.176,0.574-1.271,1.219l-2.129,13.847
		l-4.19-8.068c-0.279-0.534-0.817-0.836-1.447-0.771l-0.637,0.07c-0.591,0.065-1.087,0.488-1.24,1.067l-2.315,8.783l-5.104-13.047
		c-0.231-0.608-0.856-0.971-1.503-0.911l-1.12,0.126c-0.45,0.046-0.848,0.303-1.079,0.689c-0.231,0.383-0.272,0.851-0.111,1.273
		l7.39,18.906c0.209,0.559,0.757,0.926,1.341,0.926l0.169-0.015l1.1-0.121c0.597-0.07,1.093-0.493,1.238-1.077l2.381-9.161
		l4.326,8.426c0.274,0.534,0.879,0.831,1.444,0.775l1.105-0.121c0.651-0.07,1.178-0.573,1.273-1.218l3.085-20.058
		c0.07-0.448-0.07-0.901-0.385-1.229C78.629,27.652,78.178,27.491,77.735,27.541z M95.905,41.092
		c-0.216-1.979-1.109-3.604-2.66-4.848c-1.361-1.087-2.981-1.832-4.641-2.164c-0.873-0.297-1.55-0.629-2.008-0.986
		c-0.36-0.287-0.539-0.625-0.589-1.088c-0.051-0.463,0.05-0.825,0.334-1.178c0.287-0.357,0.625-0.533,1.299-0.599
		c0.36,0,0.654,0.11,0.944,0.337c0.211,0.177,0.359,0.348,0.45,0.539c0.174,0.342,0.483,0.608,0.855,0.725
		c0.365,0.115,0.763,0.091,1.112-0.091l0.951-0.498c0.68-0.357,0.962-1.188,0.649-1.888c-0.337-0.725-0.843-1.359-1.505-1.878
		c-1.216-0.951-2.609-1.354-4.109-1.192c-1.535,0.171-2.802,0.865-3.772,2.073c-0.957,1.203-1.354,2.577-1.188,4.088
		c0.166,1.535,0.861,2.804,2.064,3.774c1.071,0.856,2.456,1.465,4.004,1.787c1.029,0.292,1.928,0.745,2.66,1.339
		c0.727,0.584,1.112,1.278,1.215,2.185c0.096,0.916-0.12,1.682-0.704,2.411c-0.581,0.72-1.281,1.103-2.2,1.203
		c-0.888,0.105-1.686-0.116-2.41-0.705c-0.612-0.483-0.984-1.062-1.146-1.781c-0.096-0.434-0.378-0.801-0.785-0.992
		c-0.397-0.191-0.866-0.191-1.264,0.005l-0.999,0.488c-0.616,0.308-0.931,0.997-0.758,1.666c0.388,1.476,1.216,2.729,2.462,3.715
		c1.318,1.077,2.821,1.621,4.482,1.621c0.274,0,0.563-0.021,0.853-0.051c1.988-0.216,3.619-1.117,4.86-2.678
		C95.604,44.882,96.125,43.09,95.905,41.092z"/>
	<polygon fill="#A4CB45" points="26.23,82.33 30.982,72.505 39.72,81.484 	"/>
	<path fill="#7C6A51" d="M44.403,61.296c-0.085-0.79-0.739-1.364-1.595-1.284l-20.114,2.149c-0.388,0.046-0.734,0.237-0.972,0.534
		c-0.244,0.297-0.352,0.679-0.314,1.062l2.159,20.113c0.038,0.383,0.232,0.735,0.529,0.977c0.257,0.207,0.584,0.317,0.913,0.317
		l0.146-0.005L45.27,83c0.798-0.086,1.369-0.801,1.288-1.596L44.403,61.296z M26.288,82.124L24.441,64.89l17.234-1.848l1.847,17.229
		L26.288,82.124z"/>
</g>
</svg>
