<?xml version="1.0" encoding="utf-8"?>
<!-- Generator: Adobe Illustrator 16.0.0, SVG Export Plug-In . SVG Version: 6.00 Build 0)  -->
<!DOCTYPE svg PUBLIC "-//W3C//DTD SVG 1.1//EN" "http://www.w3.org/Graphics/SVG/1.1/DTD/svg11.dtd">
<svg version="1.1" id="Layer_1" xmlns="http://www.w3.org/2000/svg" xmlns:xlink="http://www.w3.org/1999/xlink" x="0px" y="0px"
	 width="130px" height="130px" viewBox="0 0 130 130" enable-background="new 0 0 130 130" xml:space="preserve">
<rect fill="none" width="130" height="130"/>
<g id="Shape_15_copy_1_">
	<path fill="#67AF3E" d="M84.747,72.543c1.401,0.887,3.049,1.407,4.833,1.407c4.998,0,9.059-4.061,9.059-9.076
		c0-5.004-4.061-9.064-9.059-9.064c-5.01,0-9.07,4.061-9.07,9.064c0,0.378,0.028,0.749,0.068,1.121l-11.163,8.087V48.855
		l15.446-11.197c1.385,0.84,2.985,1.333,4.719,1.333c4.998,0,9.059-4.061,9.059-9.064c0-5.004-4.061-9.076-9.059-9.076
		c-5.01,0-9.07,4.072-9.07,9.076c0,0.423,0.034,0.846,0.097,1.252l-11.191,8.109V1h-8.83v20.21l-11.249-8.144
		c0.098-0.543,0.16-1.098,0.16-1.676c0-5.004-4.072-9.064-9.076-9.064c-5.004,0-9.059,4.061-9.059,9.064s4.055,9.07,9.059,9.07
		c1.584,0,3.071-0.412,4.363-1.115l15.801,11.432V56.01l-11.231-8.132c0.085-0.492,0.143-1.006,0.143-1.521
		c0-5.021-4.072-9.076-9.076-9.076c-5.004,0-9.059,4.055-9.059,9.076c0,4.998,4.055,9.059,9.059,9.059
		c1.635,0,3.163-0.435,4.478-1.184l15.687,11.352v26.902l-11.227-8.127c0.08-0.492,0.138-0.983,0.138-1.492
		c0-5.005-4.072-9.07-9.076-9.07c-5.004,0-9.059,4.065-9.059,9.07c0,5.004,4.055,9.064,9.059,9.064c1.647,0,3.185-0.446,4.512-1.207
		l15.652,11.329V129h0.727h7.755h0.349v-8.882l15.304-11.071c1.407,0.887,3.065,1.412,4.861,1.412c4.998,0,9.059-4.055,9.059-9.064
		s-4.061-9.064-9.059-9.064c-5.01,0-9.07,4.055-9.07,9.064c0,0.366,0.028,0.721,0.062,1.075l-11.157,8.087V83.655L84.747,72.543z"/>
</g>
</svg>
