<?xml version="1.0" encoding="utf-8"?>
<!-- Generator: Adobe Illustrator 16.0.0, SVG Export Plug-In . SVG Version: 6.00 Build 0)  -->
<!DOCTYPE svg PUBLIC "-//W3C//DTD SVG 1.1//EN" "http://www.w3.org/Graphics/SVG/1.1/DTD/svg11.dtd">
<svg version="1.1" id="Layer_1" xmlns="http://www.w3.org/2000/svg" xmlns:xlink="http://www.w3.org/1999/xlink" x="0px" y="0px"
	 width="130px" height="130px" viewBox="0 0 130 130" enable-background="new 0 0 130 130" xml:space="preserve">
<rect fill="none" width="130" height="130"/>
<path fill="#4BA7C4" d="M118.13,0.999H43.12c-4.11,0-7.217,2.578-7.217,6v97.225c-3.22-1.503-7.093-2.394-11.286-2.394
	c-11.019,0-19.964,6.077-19.964,13.579c0,7.508,8.945,13.592,19.964,13.592s19.946-6.084,19.946-13.592
	c0-0.25-0.083-0.481-0.101-0.73V43.903h72.33v46.397c-3.237-1.532-7.157-2.453-11.398-2.453c-11.024,0-19.952,6.082-19.952,13.585
	c0,7.508,8.928,13.584,19.952,13.584c11.019,0,19.952-6.076,19.952-13.584l-0.035-0.214l0.035-0.137V6.999
	C125.347,3.631,122.175,0.999,118.13,0.999z M116.793,35.386l-72.33-0.006V9.518l72.33,0.006V35.386z"/>
</svg>
