<?xml version="1.0" encoding="utf-8"?>
<!-- Generator: Adobe Illustrator 16.0.0, SVG Export Plug-In . SVG Version: 6.00 Build 0)  -->
<!DOCTYPE svg PUBLIC "-//W3C//DTD SVG 1.1//EN" "http://www.w3.org/Graphics/SVG/1.1/DTD/svg11.dtd">
<svg version="1.1" id="Layer_1" xmlns="http://www.w3.org/2000/svg" xmlns:xlink="http://www.w3.org/1999/xlink" x="0px" y="0px"
	 width="130px" height="130px" viewBox="0 0 130 130" enable-background="new 0 0 130 130" xml:space="preserve">
<rect fill="none" width="130" height="130"/>
<g>
	<path fill="#4BA7C4" d="M111.671,57.211c-0.429-16.713-2.945-28.067-25.595-37.775c-5.812-2.49-8.649-4.732-8.753-8.971
		c-0.07-2.797,0-3.679,0-3.679c0-3.196-2.59-5.786-5.788-5.786c-3.194,0-5.787,2.589-5.787,5.786v80.521
		c-6.676-3.565-16.479-3.492-26.477,0.627c-15.405,6.347-24.781,18.908-19.564,30.744c4.771,10.831,20.471,13.29,34.62,6.659
		C70.484,117.76,77.32,107.963,77.32,96.9c0-11.058,0.003-60.077,0.003-60.077c4.016,11.146,30.147,8.141,32.907,21.581
		C111.818,66.151,111.85,64.221,111.671,57.211z"/>
</g>
</svg>
