<?xml version="1.0" encoding="utf-8"?>
<!-- Generator: Adobe Illustrator 16.0.0, SVG Export Plug-In . SVG Version: 6.00 Build 0)  -->
<!DOCTYPE svg PUBLIC "-//W3C//DTD SVG 1.1//EN" "http://www.w3.org/Graphics/SVG/1.1/DTD/svg11.dtd">
<svg version="1.1" id="Layer_1" xmlns="http://www.w3.org/2000/svg" xmlns:xlink="http://www.w3.org/1999/xlink" x="0px" y="0px"
	 width="130px" height="130px" viewBox="0 0 130 130" enable-background="new 0 0 130 130" xml:space="preserve">
<rect fill="none" width="130" height="130"/>
<g>
	<path fill="#F15A22" d="M88.367,25.127v21.914c10.007,6.612,12.722,16.386,12.722,27.359c0,19.929-16.174,36.05-36.098,36.05
		c-19.931,0-36.076-16.121-36.076-36.05c0-10.974,6.089-20.757,12.762-27.359V25.127C25,33.884,10.363,52.613,10.363,74.4
		c0,30.163,24.425,54.599,54.614,54.599c30.185,0,54.659-24.436,54.659-54.599C119.637,52.613,108.378,33.884,88.367,25.127z"/>
	<path fill="#F15A22" d="M65.516,1.001h-2.844c-5.652,0-9.346,5.082-9.346,10.738v42.836c0,5.651,3.693,9.666,9.346,9.666h2.844
		c5.661,0,11.157-4.015,11.157-9.666V11.739C76.673,6.083,71.177,1.001,65.516,1.001z"/>
</g>
</svg>
