<?xml version="1.0" encoding="utf-8"?>
<!-- Generator: Adobe Illustrator 16.0.0, SVG Export Plug-In . SVG Version: 6.00 Build 0)  -->
<!DOCTYPE svg PUBLIC "-//W3C//DTD SVG 1.1//EN" "http://www.w3.org/Graphics/SVG/1.1/DTD/svg11.dtd">
<svg version="1.1" id="Layer_1" xmlns="http://www.w3.org/2000/svg" xmlns:xlink="http://www.w3.org/1999/xlink" x="0px" y="0px"
	 width="130px" height="130px" viewBox="0 0 130 130" enable-background="new 0 0 130 130" xml:space="preserve">
<rect fill="none" width="130" height="130"/>
<g>
	<g>
		<g>
			<path fill="#D1C9B4" d="M96.971,48.227L57.326,15.982c-0.132-0.107-0.293-0.156-0.435-0.229c0.542-1.314,0.713-2.799,0.41-4.298
				c-0.806-4.005-4.724-6.595-8.714-5.784c-4.016,0.816-6.604,4.729-5.793,8.729c0.322,1.587,1.148,2.941,2.262,3.961
				c-0.093,0.107-0.21,0.201-0.273,0.333l-23.96,45.018c-0.527,0.992-0.151,2.223,0.835,2.745c0.303,0.166,0.64,0.244,0.953,0.244
				c0.728,0,1.436-0.396,1.797-1.079l23.959-45.018c0.074-0.146,0.093-0.298,0.132-0.454c0.972,0.21,1.998,0.234,3.028,0.024
				c1.119-0.225,2.11-0.713,2.97-1.358c0.083,0.107,0.151,0.229,0.264,0.322l39.645,32.239c0.376,0.308,0.83,0.459,1.279,0.459
				c0.592,0,1.183-0.259,1.583-0.752C97.977,50.21,97.84,48.935,96.971,48.227z"/>
		</g>
		<g>
			<path fill="#7C6A51" d="M49.955,5.563c-4.675,0-8.465,3.791-8.465,8.46c0,4.675,3.791,8.465,8.465,8.465s8.46-3.791,8.46-8.465
				C58.415,9.354,54.63,5.563,49.955,5.563z"/>
		</g>
		<g>
			
				<rect x="4.69" y="63.761" transform="matrix(0.98 -0.1991 0.1991 0.98 -16.2898 14.7086)" fill="#4BA7C4" width="120.62" height="49.202"/>
		</g>
	</g>
	<g>
		<path fill="#FFF6E4" d="M35.435,77.354c1.969-0.376,3.771-0.003,5.417,1.123c1.642,1.121,2.648,2.657,3.019,4.611l3.087,16.154
			c0.376,1.971,0,3.775-1.119,5.417c-1.123,1.644-2.662,2.649-4.616,3.023c-1.969,0.376-3.771,0-5.403-1.123
			c-1.636-1.121-2.638-2.663-3.014-4.616L29.725,85.79c-0.376-1.969-0.005-3.773,1.119-5.415
			C31.967,78.731,33.496,77.723,35.435,77.354z M39.201,83.885c-0.137-0.71-0.498-1.268-1.089-1.668
			c-0.591-0.398-1.241-0.535-1.949-0.4c-0.708,0.137-1.265,0.503-1.676,1.092c-0.41,0.594-0.547,1.245-0.41,1.954l3.092,16.202
			c0.137,0.709,0.503,1.263,1.104,1.661c0.596,0.4,1.25,0.535,1.959,0.398c0.708-0.135,1.265-0.499,1.666-1.09
			c0.401-0.591,0.533-1.238,0.396-1.949L39.201,83.885z"/>
		<path fill="#FFF6E4" d="M53.572,74.286c2.174-0.415,4.039-0.065,5.593,1.058c1.441,1.082,2.359,2.636,2.75,4.668l0.821,4.298
			c0.371,1.952,0.01,3.752-1.09,5.398c-1.099,1.644-2.613,2.652-4.553,3.023l-2.574,0.491l2.13,11.149l-4.464,0.852L46.533,75.63
			L53.572,74.286z M57.607,80.908c-0.147-0.772-0.504-1.351-1.056-1.732c-0.557-0.383-1.216-0.503-1.988-0.356l-2.696,0.516
			l1.808,9.472l2.696-0.516c0.708-0.134,1.26-0.501,1.661-1.102c0.4-0.599,0.532-1.25,0.4-1.959L57.607,80.908z"/>
		<path fill="#FFF6E4" d="M69.784,101.863l-5.656-29.618l12.705-2.426l0.86,4.489l-8.246,1.573l1.544,8.076l6.022-1.147l0.855,4.484
			l-6.023,1.15l1.544,8.076l8.24-1.572l0.86,4.489L69.784,101.863z"/>
		<path fill="#FFF6E4" d="M84.918,68.275l9.726,18.775l-3.801-19.905l4.46-0.853l5.656,29.618l-4.792,0.916l-9.765-17.795L90.022,98
			l-4.46,0.852l-5.656-29.618L84.918,68.275z"/>
	</g>
</g>
</svg>
