<?xml version="1.0" encoding="utf-8"?>
<!-- Generator: Adobe Illustrator 16.0.0, SVG Export Plug-In . SVG Version: 6.00 Build 0)  -->
<!DOCTYPE svg PUBLIC "-//W3C//DTD SVG 1.1//EN" "http://www.w3.org/Graphics/SVG/1.1/DTD/svg11.dtd">
<svg version="1.1" id="Layer_1" xmlns="http://www.w3.org/2000/svg" xmlns:xlink="http://www.w3.org/1999/xlink" x="0px" y="0px"
	 width="130px" height="130px" viewBox="0 0 130 130" enable-background="new 0 0 130 130" xml:space="preserve">
<rect fill="none" width="130" height="130"/>
<g>
	<g>
		<path fill="#B7B19F" d="M66.309,52.764H62.32c-0.134,0-0.268,0.005-0.405,0.021H21.16c-3.494,0-6.343-2.832-6.343-6.31V30.144
			c0-3.472,2.849-6.294,6.343-6.294h2.196c1.92,0,3.473-1.546,3.473-3.451s-1.553-3.451-3.473-3.451H21.16
			c-7.318,0-13.276,5.92-13.276,13.196v16.332c0,7.281,5.958,13.212,13.276,13.212h41.16c0.138,0,0.271-0.011,0.399-0.027h3.589
			c0.838,0,1.542,0.704,1.542,1.531V73.55c0,1.909,1.547,3.45,3.467,3.45s3.467-1.541,3.467-3.45V61.191
			C74.784,56.545,70.987,52.764,66.309,52.764z"/>
	</g>
	<g>
		<path fill="#FDB813" d="M108.088,1H43.459c-7.712,0-14.026,6.315-14.026,14.033v13.495c0,7.712,6.314,14.027,14.026,14.027h64.629
			c7.713,0,14.028-6.315,14.028-14.027V15.033C122.116,7.315,115.801,1,108.088,1z"/>
	</g>
	<g>
		<path fill="#EEB23C" d="M29.433,20.383v8.145c0,7.712,6.314,14.027,14.026,14.027h64.629c7.713,0,14.028-6.315,14.028-14.027
			v-8.145H29.433z"/>
	</g>
	<g>
		<path fill="#4BA7C4" d="M75.729,78.504h-8.603c-3.42,0-6.215,2.801-6.215,6.22v38.058c0,3.419,2.795,6.219,6.215,6.219h8.603
			c3.419,0,6.214-2.8,6.214-6.219V84.724C81.942,81.305,79.147,78.504,75.729,78.504z"/>
	</g>
</g>
</svg>
