<?xml version="1.0" encoding="utf-8"?>
<!-- Generator: Adobe Illustrator 16.0.0, SVG Export Plug-In . SVG Version: 6.00 Build 0)  -->
<!DOCTYPE svg PUBLIC "-//W3C//DTD SVG 1.1//EN" "http://www.w3.org/Graphics/SVG/1.1/DTD/svg11.dtd">
<svg version="1.1" id="Layer_1" xmlns="http://www.w3.org/2000/svg" xmlns:xlink="http://www.w3.org/1999/xlink" x="0px" y="0px"
	 width="130px" height="130px" viewBox="0 0 130 130" enable-background="new 0 0 130 130" xml:space="preserve">
<rect fill="none" width="130" height="130"/>
<g>
	<g>
		<path fill="#88A2A8" d="M113.75,129H19.27c-1.655,0.005-3.009-1.297-3.02-2.89c0-1.593,1.349-2.895,3.004-2.905h94.496V129z"/>
		<g>
			<path fill="#5B6D71" d="M16.25,1v125.105h0.005c0-1.593,1.349-2.89,2.999-2.9h94.496V1H16.25z"/>
			<g>
				<path fill="#D9C393" d="M66.151,83.3c3.243,0.12,6.382,0.758,9.261,1.863c0.897-3.284,1.422-6.947,1.515-10.775H66.151V83.3z"/>
				<path fill="#D9C393" d="M56.767,55.239c-0.597,1.183-1.125,2.459-1.582,3.823c2.641,1.043,5.566,1.681,8.664,1.811V49.729
					c-1.137,0.057-2.247,0.192-3.336,0.399C59.148,51.312,57.882,53.029,56.767,55.239z"/>
				<path fill="#D9C393" d="M73.575,51.317c0.607,0.861,1.178,1.826,1.712,2.89c0.612,1.209,1.157,2.521,1.635,3.907
					c1.364-0.701,2.63-1.505,3.767-2.413C78.618,53.844,76.211,52.35,73.575,51.317z"/>
				<path fill="#D9C393" d="M63.849,63.176c-3.273-0.125-6.434-0.768-9.333-1.894c-0.877,3.299-1.38,6.972-1.453,10.801h10.786
					V63.176z"/>
				<path fill="#D9C393" d="M55.268,87.378c0.441,1.266,0.939,2.464,1.499,3.569c1.235,2.454,2.656,4.301,4.192,5.479
					c0.949,0.16,1.909,0.27,2.89,0.321V85.604C60.787,85.729,57.888,86.351,55.268,87.378z"/>
				<path fill="#D9C393" d="M74.815,59.062c-0.456-1.364-0.985-2.641-1.582-3.823c-1.11-2.21-2.387-3.927-3.751-5.11
					c-1.084-0.208-2.2-0.342-3.331-0.399v11.144C69.244,60.743,72.175,60.105,74.815,59.062z"/>
				<path fill="#D9C393" d="M75.484,61.283c-2.899,1.126-6.06,1.769-9.333,1.894v8.908h10.786
					C76.859,68.255,76.361,64.582,75.484,61.283z"/>
				<path fill="#D9C393" d="M63.849,83.3v-8.912h-10.78c0.093,3.828,0.617,7.491,1.515,10.775
					C57.467,84.058,60.601,83.42,63.849,83.3z"/>
				<path fill="#D9C393" d="M73.233,90.947c0.56-1.105,1.058-2.304,1.499-3.569c-2.62-1.027-5.52-1.649-8.581-1.774v11.144
					c0.976-0.052,1.94-0.161,2.885-0.321C70.571,95.248,71.998,93.401,73.233,90.947z"/>
				<path fill="#D9C393" d="M79.235,74.388c-0.104,4.15-0.685,8.135-1.691,11.698c1.728,0.841,3.336,1.868,4.799,3.056
					c3.601-3.922,5.889-9.073,6.163-14.754H79.235z"/>
				<path fill="#D9C393" d="M77.611,60.349c0.986,3.584,1.552,7.58,1.624,11.735h9.271c-0.274-5.676-2.562-10.827-6.163-14.754
					C80.9,58.507,79.313,59.519,77.611,60.349z"/>
				<path fill="#D9C393" d="M53.078,58.113c0.473-1.385,1.018-2.698,1.629-3.907c0.534-1.063,1.105-2.028,1.712-2.89
					c-2.635,1.033-5.037,2.527-7.112,4.384C50.448,56.608,51.714,57.413,53.078,58.113z"/>
				<path fill="#D9C393" d="M76.839,88.316c-0.457,1.303-0.976,2.527-1.552,3.674c-0.617,1.219-1.281,2.313-1.992,3.273
					c2.75-1.032,5.245-2.568,7.394-4.488C79.526,89.853,78.234,89.022,76.839,88.316z"/>
				<path fill="#D9C393" d="M54.707,91.99c-0.575-1.146-1.094-2.371-1.551-3.674c-1.396,0.706-2.682,1.536-3.85,2.459
					c2.148,1.92,4.648,3.456,7.393,4.488C55.994,94.304,55.324,93.209,54.707,91.99z"/>
				<path fill="#D9C393" d="M50.76,72.084c0.077-4.155,0.638-8.15,1.624-11.735c-1.697-0.83-3.284-1.842-4.727-3.02
					c-3.605,3.927-5.889,9.079-6.168,14.754H50.76z"/>
				<path fill="#D9C393" d="M52.456,86.086c-1.012-3.563-1.588-7.548-1.691-11.698h-9.275c0.279,5.681,2.562,10.832,6.168,14.754
					C49.115,87.954,50.729,86.927,52.456,86.086z"/>
			</g>
			<g>
				<path fill="#D9C393" d="M39.196,25.497v1.738c0,2.143-1.033,3.305-3.139,3.305h-0.991v5.032h-2.102V22.187h3.093
					C38.163,22.187,39.196,23.354,39.196,25.497z M35.066,24.102v4.529h0.991c0.674,0,1.037-0.306,1.037-1.26v-2.008
					c0-0.955-0.363-1.261-1.037-1.261H35.066z"/>
				<path fill="#D9C393" d="M47.684,35.572h-2.127l-0.358-2.428h-2.584l-0.362,2.428h-1.931l2.143-13.385h3.077L47.684,35.572z
					 M42.885,31.328h2.022l-1.011-6.77L42.885,31.328z"/>
				<path fill="#D9C393" d="M52.44,22.037c2.049,0,3.097,1.225,3.097,3.367v0.415h-1.986v-0.55c0-0.959-0.384-1.323-1.054-1.323
					c-0.664,0-1.053,0.363-1.053,1.323c0,2.75,4.113,3.263,4.113,7.087c0,2.143-1.068,3.367-3.138,3.367
					c-2.065,0-3.129-1.224-3.129-3.367v-0.82h1.982v0.955c0,0.96,0.42,1.297,1.095,1.297c0.664,0,1.084-0.337,1.084-1.297
					c0-2.755-4.108-3.268-4.108-7.086C49.344,23.261,50.396,22.037,52.44,22.037z"/>
				<path fill="#D9C393" d="M60.544,22.037c2.044,0,3.097,1.225,3.097,3.367v0.415h-1.986v-0.55c0-0.959-0.385-1.323-1.054-1.323
					s-1.048,0.363-1.048,1.323c0,2.75,4.108,3.263,4.108,7.087c0,2.143-1.073,3.367-3.133,3.367c-2.065,0-3.134-1.224-3.134-3.367
					v-0.82h1.981v0.955c0,0.96,0.426,1.297,1.095,1.297c0.67,0,1.085-0.337,1.085-1.297c0-2.755-4.109-3.268-4.109-7.086
					C57.446,23.261,58.5,22.037,60.544,22.037z"/>
				<path fill="#D9C393" d="M72.051,25.497v1.738c0,2.143-1.033,3.305-3.134,3.305h-0.991v5.032h-2.106V22.187h3.098
					C71.018,22.187,72.051,23.354,72.051,25.497z M67.926,24.102v4.529h0.991c0.669,0,1.032-0.306,1.032-1.26v-2.008
					c0-0.955-0.363-1.261-1.032-1.261H67.926z"/>
				<path fill="#D9C393" d="M73.809,25.404c0-2.143,1.132-3.367,3.196-3.367s3.19,1.225,3.19,3.367v6.952
					c0,2.143-1.126,3.367-3.19,3.367s-3.196-1.224-3.196-3.367V25.404z M75.915,32.49c0,0.96,0.415,1.318,1.09,1.318
					c0.669,0,1.089-0.358,1.089-1.318v-7.222c0-0.959-0.42-1.323-1.089-1.323c-0.675,0-1.09,0.363-1.09,1.323V32.49z"/>
				<path fill="#D9C393" d="M86.903,35.572c-0.114-0.348-0.192-0.555-0.192-1.649v-2.096c0-1.245-0.42-1.707-1.375-1.707H84.61
					v5.452h-2.102V22.187h3.175c2.18,0,3.113,1.012,3.113,3.082v1.048c0,1.375-0.441,2.277-1.375,2.713
					c1.048,0.441,1.396,1.453,1.396,2.848v2.07c0,0.643,0.016,1.125,0.223,1.624H86.903z M84.61,24.102v4.109h0.819
					c0.789,0,1.266-0.343,1.266-1.417v-1.318c0-0.959-0.326-1.375-1.073-1.375H84.61z"/>
				<path fill="#D9C393" d="M90.534,22.187h6.501v1.915h-2.2v11.47h-2.101v-11.47h-2.2V22.187z"/>
			</g>
		</g>
	</g>
</g>
</svg>
