<?xml version="1.0" encoding="utf-8"?>
<!-- Generator: Adobe Illustrator 16.0.0, SVG Export Plug-In . SVG Version: 6.00 Build 0)  -->
<!DOCTYPE svg PUBLIC "-//W3C//DTD SVG 1.1//EN" "http://www.w3.org/Graphics/SVG/1.1/DTD/svg11.dtd">
<svg version="1.1" id="Layer_1" xmlns="http://www.w3.org/2000/svg" xmlns:xlink="http://www.w3.org/1999/xlink" x="0px" y="0px"
	 width="130px" height="130px" viewBox="0 0 130 130" enable-background="new 0 0 130 130" xml:space="preserve">
<rect fill="none" width="130" height="130"/>
<path fill="#F15A22" d="M99.081,1H82.487c-1.802,0-3.279,1.541-3.279,3.434v121.132c0,1.893,1.478,3.435,3.279,3.435h16.594
	c1.809,0,3.279-1.542,3.279-3.435V4.434C102.36,2.541,100.89,1,99.081,1z M47.52,1H30.926c-1.809,0-3.286,1.541-3.286,3.434v121.132
	c0,1.893,1.478,3.435,3.286,3.435H47.52c1.802,0,3.272-1.542,3.272-3.435V4.434C50.792,2.541,49.321,1,47.52,1z"/>
</svg>
