<?xml version="1.0" encoding="utf-8"?>
<!-- Generator: Adobe Illustrator 16.0.0, SVG Export Plug-In . SVG Version: 6.00 Build 0)  -->
<!DOCTYPE svg PUBLIC "-//W3C//DTD SVG 1.1//EN" "http://www.w3.org/Graphics/SVG/1.1/DTD/svg11.dtd">
<svg version="1.1" id="Layer_1" xmlns="http://www.w3.org/2000/svg" xmlns:xlink="http://www.w3.org/1999/xlink" x="0px" y="0px"
	 width="130px" height="130px" viewBox="0 0 130 130" enable-background="new 0 0 130 130" xml:space="preserve">
<rect fill="none" width="130" height="130"/>
<g>
	<g>
		<path fill="#D1C9B4" d="M67.489,2l-0.3,52.559c2.594,0.76,3.684,2.418,3.684,5.251c0,3.446-2.792,6.242-6.249,6.242
			c-3.451,0-6.233-2.796-6.233-6.242c0-2.833,1.894-5.192,4.48-5.952V1L17.906,76.279l25.192,26.466v10.951h43.804v-10.951
			l24.445-26.466L67.489,2z"/>
	</g>
	<g>
		<path fill="#C1BAA7" d="M67.189,54.559c2.594,0.76,3.684,2.418,3.684,5.251c0,3.317-2.596,6.003-5.871,6.201v47.686h21.9v-10.951
			l24.445-26.466L67.489,2L67.189,54.559z"/>
	</g>
	<g>
		<polygon fill="#7C6A51" points="112.428,115.894 17.568,115.894 14.647,129 115.353,129 		"/>
	</g>
</g>
</svg>
