<?xml version="1.0" encoding="utf-8"?>
<!-- Generator: Adobe Illustrator 16.0.0, SVG Export Plug-In . SVG Version: 6.00 Build 0)  -->
<!DOCTYPE svg PUBLIC "-//W3C//DTD SVG 1.1//EN" "http://www.w3.org/Graphics/SVG/1.1/DTD/svg11.dtd">
<svg version="1.1" id="Layer_1" xmlns="http://www.w3.org/2000/svg" xmlns:xlink="http://www.w3.org/1999/xlink" x="0px" y="0px"
	 width="130px" height="130px" viewBox="0 0 130 130" enable-background="new 0 0 130 130" xml:space="preserve">
<rect fill="none" width="130" height="130"/>
<g>
	<g>
		<path fill="#CB5A7C" d="M41.567,60.575c15.026,0,27.198-12.156,27.198-27.191c0-15.011-12.172-27.185-27.198-27.185
			c-15.017,0-27.181,12.174-27.181,27.185C14.386,48.419,26.55,60.575,41.567,60.575z M82.138,119.55l-0.283-1.475
			c-2.193-9.454-8.828-31.847-13.14-37.291c-5.82-10.673-22.429-10.166-22.429-10.166H33.109c0,0-12.268-0.435-19.298,9.665
			c-3.748,5.395-9.579,26.187-12.023,36.631c-0.429,1.635-0.57,2.611-0.57,2.611c-0.986,3.864,1.469,7.027,5.459,7.027h70.082
			C80.746,126.553,83.173,123.4,82.138,119.55z"/>
	</g>
	<g>
		<path fill="#F15A22" d="M102.151,83.023c9.883,0,17.896-7.997,17.896-17.886c0-9.883-8.014-17.892-17.896-17.892
			S84.27,55.255,84.27,65.138C84.27,75.026,92.269,83.023,102.151,83.023z M128.842,121.828l-0.18-0.967
			c-1.446-6.22-5.811-20.954-8.648-24.535c-3.828-7.032-14.754-6.694-14.754-6.694h-8.674c0,0-8.076-0.287-12.698,6.36
			c-0.171,0.246-0.369,0.645-0.552,0.986c2.742,8.549,4.88,16.763,5.478,19.342l0.302,1.546c0.75,3.016,0.354,6.022-0.975,8.571
			h37.168C127.934,126.438,129.525,124.362,128.842,121.828z"/>
	</g>
	<g>
		<path fill="#FFF6E4" d="M100.107,3.848c-9.64,0-17.161,6.602-26.371,17.301c7.943,9.15,14.602,17.312,26.371,17.312
			c11.771,0,20.427-10.333,26.38-17.122C120.396,13.395,111.74,3.848,100.107,3.848z"/>
	</g>
	<g>
		<path fill="#EDE3D0" d="M73.979,21.428c7.836,9.035,14.482,17.033,26.129,17.033c11.724,0,20.354-10.245,26.305-17.033H73.979z"/>
	</g>
	<g>
		<path fill="#4A8CAE" d="M100.111,11.068c-5.769,0-10.437,4.515-10.437,10.086c0,5.57,4.668,10.084,10.437,10.084
			c5.762,0,10.436-4.514,10.436-10.084C110.547,15.583,105.873,11.068,100.111,11.068z"/>
	</g>
	<g>
		<path fill="#42443D" d="M100.111,16.53c-2.649,0-4.785,2.072-4.785,4.624c0,2.553,2.136,4.623,4.785,4.623
			c2.644,0,4.784-2.07,4.784-4.623C104.896,18.603,102.755,16.53,100.111,16.53z"/>
	</g>
	<g>
		<g>
			<path fill="#CEBBAA" d="M100.107,38.86c-11.554,0-18.188-7.657-25.868-16.523l-1.03-1.188l0.227-0.262
				c9.267-10.768,16.963-17.44,26.672-17.44c11.669,0,20.398,9.433,26.697,17.648l0.2,0.261l-0.793,0.904
				C120.081,29.267,111.686,38.86,100.107,38.86z M74.265,21.146l0.577,0.668c7.554,8.718,14.079,16.247,25.266,16.247
				c11.215,0,19.473-9.437,25.504-16.327l0.359-0.412c-6.173-8.008-14.664-17.076-25.863-17.076
				C90.78,4.246,83.285,10.705,74.265,21.146z"/>
		</g>
	</g>
</g>
</svg>
