<?xml version="1.0" encoding="utf-8"?>
<!-- Generator: Adobe Illustrator 16.0.0, SVG Export Plug-In . SVG Version: 6.00 Build 0)  -->
<!DOCTYPE svg PUBLIC "-//W3C//DTD SVG 1.1//EN" "http://www.w3.org/Graphics/SVG/1.1/DTD/svg11.dtd">
<svg version="1.1" id="Layer_1" xmlns="http://www.w3.org/2000/svg" xmlns:xlink="http://www.w3.org/1999/xlink" x="0px" y="0px"
	 width="130px" height="130px" viewBox="0 0 130 130" enable-background="new 0 0 130 130" xml:space="preserve">
<rect fill="none" width="130" height="130"/>
<g>
	<g>
		<path fill="#FDB813" d="M42.817,64.862c14.222,0,25.745-11.512,25.745-25.743c0-14.213-11.523-25.737-25.745-25.737
			S17.082,24.906,17.082,39.119C17.082,53.351,28.596,64.862,42.817,64.862z M81.224,120.691l-0.271-1.394
			c-2.073-8.955-8.352-30.15-12.435-35.309c-5.516-10.104-21.239-9.62-21.239-9.62H34.806c0,0-11.617-0.414-18.266,9.149
			c-3.551,5.106-9.071,24.792-11.386,34.681c-0.409,1.542-0.537,2.468-0.537,2.468c-0.94,3.663,1.389,6.652,5.161,6.652h66.353
			C79.909,127.319,82.204,124.336,81.224,120.691z"/>
	</g>
	<g>
		<path fill="#4BA7C4" d="M100.174,87.894c9.352,0,16.94-7.568,16.94-16.93c0-9.359-7.589-16.938-16.94-16.938
			c-9.356,0-16.936,7.579-16.936,16.938C83.238,80.325,90.817,87.894,100.174,87.894z M125.441,124.631l-0.172-0.916
			c-1.369-5.89-5.501-19.836-8.185-23.224c-3.625-6.656-13.972-6.341-13.972-6.341h-8.209c0,0-7.647-0.271-12.025,6.021
			c-0.158,0.236-0.35,0.613-0.522,0.936c2.601,8.091,4.619,15.872,5.19,18.31l0.281,1.468c0.709,2.855,0.335,5.702-0.921,8.115
			h35.186C124.58,128.999,126.087,127.034,125.441,124.631z"/>
	</g>
	<g>
		<path fill="#FDB813" d="M88.286,1.001c-11.607,0-21.59,5.538-26.229,13.524c7.618,4.273,12.794,12.423,12.794,21.771
			c0,2.945-0.542,5.765-1.482,8.39c2.822,1.379,5.959,2.371,9.293,2.905l-7.776,9.369l15.843-9.022
			c14.872-1.007,26.558-11.103,26.558-23.417C117.286,11.53,104.306,1.001,88.286,1.001z"/>
	</g>
</g>
</svg>
