<?xml version="1.0" encoding="utf-8"?>
<!-- Generator: Adobe Illustrator 16.0.0, SVG Export Plug-In . SVG Version: 6.00 Build 0)  -->
<!DOCTYPE svg PUBLIC "-//W3C//DTD SVG 1.1//EN" "http://www.w3.org/Graphics/SVG/1.1/DTD/svg11.dtd">
<svg version="1.1" id="Layer_1" xmlns="http://www.w3.org/2000/svg" xmlns:xlink="http://www.w3.org/1999/xlink" x="0px" y="0px"
	 width="130px" height="130px" viewBox="0 0 130 130" enable-background="new 0 0 130 130" xml:space="preserve">
<rect fill="none" width="130" height="130"/>
<g>
	<g>
		<path fill="#FDB813" d="M29.701,49.58c2.676,0,5.212-0.544,7.533-1.527c-2.066-4.143-3.241-8.804-3.241-13.737
			c0-7.393,2.608-14.189,6.962-19.512c-3.17-2.301-7.039-3.694-11.254-3.694c-10.621,0-19.237,8.611-19.237,19.232
			C10.464,40.978,19.08,49.58,29.701,49.58z M48.915,63.876c-4.124-7.552-15.872-7.194-15.872-7.194h-9.321
			c0,0-8.688-0.305-13.656,6.842c-2.661,3.814-6.78,18.525-8.506,25.92c-0.307,1.15-0.403,1.846-0.403,1.846
			c-0.705,2.729,1.036,4.968,3.86,4.968h21.237c2.368-8.189,5.466-17.598,8.204-21.529c4.301-6.176,10.142-8.986,14.845-10.283
			C49.174,64.245,49.034,64.037,48.915,63.876z"/>
	</g>
	<g>
		<path fill="#A6C55B" d="M128.832,91.306l-0.201-1.045c-1.554-6.687-6.243-22.529-9.292-26.385
			c-4.124-7.552-15.872-7.194-15.872-7.194h-9.321c0,0-8.688-0.305-13.656,6.842c-0.225,0.319-0.46,0.741-0.7,1.204
			c5.442,1.477,11.542,4.476,15.071,10.59c2.92,4.018,6.113,12.87,8.631,20.939h21.534
			C127.845,96.257,129.562,94.027,128.832,91.306z M92.549,48.02c2.325,1.002,4.886,1.561,7.576,1.561
			c10.631,0,19.242-8.603,19.242-19.238c0-10.621-8.611-19.232-19.242-19.232c-4.225,0-8.099,1.404-11.273,3.716
			c4.34,5.32,6.948,12.104,6.948,19.49C95.8,39.244,94.606,43.886,92.549,48.02z"/>
	</g>
	<g>
		<path fill="#4BA7C4" d="M64.892,59.606c13.973,0,25.289-11.307,25.289-25.291c0-13.961-11.316-25.283-25.289-25.283
			c-13.968,0-25.284,11.322-25.284,25.283C39.607,48.3,50.924,59.606,64.892,59.606z M102.623,114.451l-0.264-1.37
			c-2.043-8.793-8.209-29.615-12.218-34.681c-5.418-9.931-20.867-9.456-20.867-9.456H57.023c0,0-11.412-0.402-17.948,8.988
			c-3.49,5.019-8.909,24.358-11.187,34.069c-0.397,1.516-0.527,2.431-0.527,2.431c-0.921,3.591,1.366,6.535,5.078,6.535h65.178
			C101.328,120.968,103.582,118.033,102.623,114.451z"/>
	</g>
</g>
</svg>
