<?xml version="1.0" encoding="utf-8"?>
<!-- Generator: Adobe Illustrator 16.0.0, SVG Export Plug-In . SVG Version: 6.00 Build 0)  -->
<!DOCTYPE svg PUBLIC "-//W3C//DTD SVG 1.1//EN" "http://www.w3.org/Graphics/SVG/1.1/DTD/svg11.dtd">
<svg version="1.1" id="Layer_1" xmlns="http://www.w3.org/2000/svg" xmlns:xlink="http://www.w3.org/1999/xlink" x="0px" y="0px"
	 width="130px" height="130px" viewBox="0 0 130 130" enable-background="new 0 0 130 130" xml:space="preserve">
<rect fill="none" width="130" height="130"/>
<g>
	<g>
		<path fill="#F15A22" d="M64.875,58.834c15.978,0,28.92-12.932,28.92-28.92c0-15.967-12.942-28.913-28.92-28.913
			c-15.974,0-28.911,12.946-28.911,28.913C35.963,45.902,48.901,58.834,64.875,58.834z M108.019,121.554l-0.302-1.565
			c-2.329-10.062-9.385-33.872-13.972-39.667c-6.19-11.35-23.854-10.808-23.854-10.808H55.874c0,0-13.048-0.465-20.519,10.279
			c-3.992,5.736-10.193,27.852-12.791,38.962c-0.456,1.731-0.605,2.771-0.605,2.771c-1.051,4.114,1.562,7.473,5.806,7.473h74.537
			C106.544,128.999,109.122,125.646,108.019,121.554z"/>
	</g>
</g>
</svg>
