<?xml version="1.0" encoding="utf-8"?>
<!-- Generator: Adobe Illustrator 16.0.0, SVG Export Plug-In . SVG Version: 6.00 Build 0)  -->
<!DOCTYPE svg PUBLIC "-//W3C//DTD SVG 1.1//EN" "http://www.w3.org/Graphics/SVG/1.1/DTD/svg11.dtd">
<svg version="1.1" id="Layer_1" xmlns="http://www.w3.org/2000/svg" xmlns:xlink="http://www.w3.org/1999/xlink" x="0px" y="0px"
	 width="130px" height="130px" viewBox="0 0 130 130" enable-background="new 0 0 130 130" xml:space="preserve">
<rect fill="none" width="130" height="130"/>
<g>
	<g>
		<path fill="#A4C553" d="M44.269,67.029c14.111,0,25.544-11.421,25.544-25.542c0-14.101-11.433-25.536-25.544-25.536
			c-14.106,0-25.532,11.435-25.532,25.536C18.737,55.608,30.163,67.029,44.269,67.029z M82.375,122.422l-0.269-1.383
			c-2.057-8.884-8.286-29.914-12.34-35.032c-5.464-10.023-21.066-9.544-21.066-9.544H36.32c0,0-11.524-0.411-18.125,9.078
			c-3.523,5.066-9,24.599-11.294,34.409c-0.403,1.529-0.535,2.447-0.535,2.447c-0.926,3.636,1.38,6.602,5.13,6.602h65.828
			C81.068,128.999,83.348,126.038,82.375,122.422z"/>
	</g>
	<g>
		<path fill="#FDB813" d="M91.188,1.001c-13.068,0-24.301,6.234-29.529,15.224c8.583,4.814,14.409,13.986,14.409,24.515
			c0,3.315-0.608,6.489-1.666,9.445c3.171,1.551,6.699,2.673,10.461,3.269L76.1,64.002l17.844-10.153
			c16.742-1.138,29.896-12.503,29.896-26.368C123.839,12.856,109.222,1.001,91.188,1.001z"/>
	</g>
</g>
</svg>
