<?xml version="1.0" encoding="utf-8"?>
<!-- Generator: Adobe Illustrator 16.0.0, SVG Export Plug-In . SVG Version: 6.00 Build 0)  -->
<!DOCTYPE svg PUBLIC "-//W3C//DTD SVG 1.1//EN" "http://www.w3.org/Graphics/SVG/1.1/DTD/svg11.dtd">
<svg version="1.1" id="Layer_1" xmlns="http://www.w3.org/2000/svg" xmlns:xlink="http://www.w3.org/1999/xlink" x="0px" y="0px"
	 width="130px" height="130px" viewBox="0 0 130 130" enable-background="new 0 0 130 130" xml:space="preserve">
<rect fill="none" width="130" height="130"/>
<g>
	<g>
		<path fill="#FDB813" d="M44.638,65.441c14.471,0,26.198-11.714,26.198-26.196c0-14.462-11.727-26.19-26.198-26.19
			c-14.472,0-26.188,11.728-26.188,26.19C18.45,53.728,30.167,65.441,44.638,65.441z M83.72,122.254l-0.276-1.418
			c-2.109-9.113-8.499-30.682-12.653-35.931c-5.61-10.28-21.609-9.79-21.609-9.79H36.483c0,0-11.819-0.42-18.589,9.312
			c-3.613,5.196-9.231,25.229-11.584,35.292c-0.416,1.568-0.551,2.51-0.551,2.51C4.809,125.957,7.177,129,11.018,129h67.52
			C82.379,129,84.714,125.963,83.72,122.254z"/>
	</g>
	<g>
		<path fill="#A4CB45" d="M85.288,42.182c-3.38,0-6.119,2.212-6.119,4.944c0,2.738,2.739,4.948,6.119,4.948
			c3.383,0,6.124-2.21,6.124-4.948C91.412,44.394,88.671,42.182,85.288,42.182z M101.011,1C88.066,1,77.573,9.487,77.573,19.948
			c0,10.457,10.493,18.956,23.438,18.956c12.946,0,23.44-8.499,23.44-18.956C124.451,9.487,113.957,1,101.011,1z"/>
	</g>
</g>
</svg>
