<?xml version="1.0" encoding="utf-8"?>
<!-- Generator: Adobe Illustrator 16.0.0, SVG Export Plug-In . SVG Version: 6.00 Build 0)  -->
<!DOCTYPE svg PUBLIC "-//W3C//DTD SVG 1.1//EN" "http://www.w3.org/Graphics/SVG/1.1/DTD/svg11.dtd">
<svg version="1.1" id="Layer_1" xmlns="http://www.w3.org/2000/svg" xmlns:xlink="http://www.w3.org/1999/xlink" x="0px" y="0px"
	 width="130px" height="130px" viewBox="0 0 130 130" enable-background="new 0 0 130 130" xml:space="preserve">
<rect fill="none" width="130" height="130"/>
<g>
	<g>
		<g>
			<path fill="#FFF6E4" d="M128.268,87.418l-19.967-74.515c-0.476-1.766-2.295-2.819-4.066-2.343L4.082,37.397
				c-1.771,0.47-2.819,2.29-2.349,4.061L21.7,115.974c0.476,1.772,2.295,2.82,4.066,2.35l100.153-26.839
				C127.69,91.009,128.738,89.189,128.268,87.418z"/>
			<path fill="#E0D3BF" d="M24.91,119.056c0,0,0,0-0.003,0c-1.778,0-3.346-1.203-3.807-2.921L1.134,41.618
				c-0.561-2.101,0.691-4.265,2.788-4.821L104.074,9.96c2.061-0.56,4.275,0.728,4.826,2.78l19.967,74.518
				c0.558,2.099-0.691,4.263-2.788,4.826L25.926,118.92C25.591,119.012,25.25,119.056,24.91,119.056z M105.096,11.066
				c-0.235,0-0.471,0.032-0.701,0.092L4.242,37.996c-1.434,0.383-2.29,1.863-1.909,3.302l19.967,74.516c0.317,1.175,1.39,2,2.61,2
				l0,0c0.232,0,0.468-0.029,0.696-0.092l100.153-26.837c1.435-0.386,2.29-1.867,1.909-3.307l-19.966-74.515
				C107.384,11.889,106.314,11.066,105.096,11.066z"/>
		</g>
	</g>
	<g>
		<path fill="#1489A3" d="M123.188,84.487l-17.822-66.504c-0.476-1.771-2.29-2.819-4.062-2.349L9.162,40.328
			c-1.771,0.476-2.824,2.295-2.348,4.061l17.822,66.505c0.476,1.771,2.295,2.818,4.062,2.348l92.147-24.692
			C122.61,88.078,123.663,86.259,123.188,84.487z"/>
	</g>
	<g>
		<polygon fill="#82CC70" points="120.597,74.808 87.52,63.589 74.607,80.858 76.49,87.884 79.63,99.593 124.046,87.69 		"/>
	</g>
	<g>
		<g>
			<path fill="#FFF6E4" d="M13.635,119.551c-2.171,0-3.94-1.771-3.94-3.941V38.464c0-2.169,1.769-3.935,3.94-3.935h103.686
				c2.171,0,3.939,1.766,3.939,3.935v77.145c0,2.17-1.769,3.941-3.939,3.941H13.635z"/>
			<g>
				<path fill="#E0D3BF" d="M117.321,35.15c1.834,0,3.318,1.479,3.318,3.314v77.145c0,1.835-1.484,3.32-3.318,3.32H13.635
					c-1.834,0-3.319-1.485-3.319-3.32V38.464c0-1.834,1.485-3.314,3.319-3.314H117.321 M117.321,33.908H13.635
					c-2.516,0-4.561,2.042-4.561,4.556v77.145c0,2.515,2.045,4.562,4.561,4.562h103.686c2.516,0,4.561-2.048,4.561-4.562V38.464
					C121.882,35.951,119.837,33.908,117.321,33.908L117.321,33.908z"/>
			</g>
		</g>
	</g>
	<g>
		<path fill="#63CAE1" d="M113.178,39.294H17.779c-1.829,0-3.313,1.485-3.313,3.319v68.848c0,1.834,1.484,3.318,3.313,3.318h95.399
			c1.834,0,3.313-1.484,3.313-3.318V42.613C116.491,40.779,115.012,39.294,113.178,39.294z"/>
	</g>
	<path fill="#7DBF6B" d="M48.319,86.021v28.754h63.252c4.464,0,4.92-1.145,4.92-4.92V95.007L73.434,66.248L48.319,86.021z"/>
	<g>
		<polygon fill="#71B561" points="71.929,67.437 48.319,86.021 48.319,114.774 62.929,114.774 		"/>
	</g>
	<g>
		<ellipse fill="#FDB813" cx="100.731" cy="54.224" rx="8.913" ry="8.918"/>
	</g>
	<path fill="#82CC70" d="M14.465,96.604v14.857c0,1.834,1.484,3.318,3.313,3.318H91.08L43.889,67.495L14.465,96.604z"/>
	<path fill="#71B561" d="M43.889,67.495L14.465,96.808v14.653c0,1.834,1.484,3.318,3.313,3.318H35.3l8.923-46.939L43.889,67.495z"/>
</g>
</svg>
