<?xml version="1.0" encoding="utf-8"?>
<!-- Generator: Adobe Illustrator 16.0.0, SVG Export Plug-In . SVG Version: 6.00 Build 0)  -->
<!DOCTYPE svg PUBLIC "-//W3C//DTD SVG 1.1//EN" "http://www.w3.org/Graphics/SVG/1.1/DTD/svg11.dtd">
<svg version="1.1" id="Layer_1" xmlns="http://www.w3.org/2000/svg" xmlns:xlink="http://www.w3.org/1999/xlink" x="0px" y="0px"
	 width="130px" height="130px" viewBox="0 0 130 130" enable-background="new 0 0 130 130" xml:space="preserve">
<rect fill="none" width="130" height="130"/>
<g>
	<g>
		<g>
			<polygon fill="#FFF6E4" points="32.102,1.837 4.932,103.251 97.893,128.164 125.069,26.743 			"/>
			<path fill="#E0D3BF" d="M98.374,129l-0.657-0.182L4.095,103.733l0.178-0.658L31.62,1l0.658,0.178l93.627,25.082l-0.179,0.658
				L98.374,129z M5.769,102.769l91.642,24.558l26.821-100.101L32.584,2.674L5.769,102.769z"/>
		</g>
	</g>
	<g>
		<polygon fill="#1489A3" points="35.657,7.95 15.596,82.822 98.868,105.133 118.935,30.26 		"/>
	</g>
	<g>
		<g>
			<rect x="16.875" y="15.001" fill="#FFF6E4" width="96.244" height="104.997"/>
			<path fill="#E0D3BF" d="M113.802,120.681H16.193V14.319h97.609V120.681z M17.557,119.314h94.88V15.684h-94.88V119.314z"/>
		</g>
	</g>
	<g>
		<rect x="21.891" y="19.984" fill="#63CAE1" width="86.213" height="77.516"/>
	</g>
	<g>
		<polygon fill="#7DBF6B" points="83.582,69.807 69.261,81.079 69.261,97.479 108.137,97.5 108.137,86.207 		"/>
	</g>
	<g>
		<polygon fill="#71B561" points="82.725,70.479 69.261,81.079 69.261,97.479 77.586,97.479 		"/>
	</g>
	<g>
		<polygon fill="#82CC70" points="46.753,57.506 21.875,82.103 21.891,97.5 86.651,97.5 		"/>
	</g>
	<g>
		<polygon fill="#71B561" points="47.036,57.794 46.753,57.506 21.875,82.103 21.891,97.5 39.494,97.5 		"/>
	</g>
	<g>
		<path fill="#FDB813" d="M85.011,31.252c-5.182,0-9.375,4.194-9.375,9.37c0,5.18,4.193,9.374,9.375,9.374
			c5.175,0,9.369-4.194,9.369-9.374C94.38,35.446,90.186,31.252,85.011,31.252z"/>
	</g>
</g>
</svg>
