<?xml version="1.0" encoding="utf-8"?>
<!-- Generator: Adobe Illustrator 16.0.0, SVG Export Plug-In . SVG Version: 6.00 Build 0)  -->
<!DOCTYPE svg PUBLIC "-//W3C//DTD SVG 1.1//EN" "http://www.w3.org/Graphics/SVG/1.1/DTD/svg11.dtd">
<svg version="1.1" id="Layer_1" xmlns="http://www.w3.org/2000/svg" xmlns:xlink="http://www.w3.org/1999/xlink" x="0px" y="0px"
	 width="130px" height="130px" viewBox="0 0 130 130" enable-background="new 0 0 130 130" xml:space="preserve">
<rect fill="none" width="130" height="130"/>
<g>
	<path fill="#FDB813" d="M129,102.875c0,4.955-4.055,9.01-9.011,9.01H10.01c-4.955,0-9.01-4.055-9.01-9.01v-75.75
		c0-4.955,4.055-9.01,9.01-9.01h109.979c4.956,0,9.011,4.055,9.011,9.01V102.875z"/>
	<g>
		<g>
			<path fill="#D39211" d="M34.289,105.352H14.955c-2.358,0-4.291-1.928-4.291-4.287V34.412c0-2.356,1.933-4.288,4.291-4.288h19.334
				V105.352z"/>
			<rect x="39.016" y="30.124" fill="#D39211" width="23.622" height="75.228"/>
			<rect x="67.359" y="30.124" fill="#D39211" width="23.624" height="75.228"/>
			<path fill="#D39211" d="M95.713,30.124h19.331c2.358,0,4.291,1.932,4.291,4.288v66.652c0,2.359-1.933,4.287-4.291,4.287H95.713
				V30.124z"/>
		</g>
		<g>
			<path fill="#FFF6E4" d="M34.289,102.611H14.955c-2.358,0-4.291-1.928-4.291-4.287V31.672c0-2.356,1.933-4.289,4.291-4.289h19.334
				V102.611z"/>
			<rect x="39.016" y="27.383" fill="#FFF6E4" width="23.622" height="75.228"/>
			<rect x="67.359" y="27.383" fill="#FFF6E4" width="23.624" height="75.228"/>
			<path fill="#FFF6E4" d="M95.713,27.383h19.331c2.358,0,4.291,1.933,4.291,4.289v66.652c0,2.359-1.933,4.287-4.291,4.287H95.713
				V27.383z"/>
		</g>
		<g>
			<path fill="#7C6A51" d="M44.274,27.383v46.441c0,2.312-1.891,4.201-4.203,4.201H33.23c-2.312,0-4.203-1.889-4.203-4.201V27.383
				H44.274z"/>
			<path fill="#7C6A51" d="M72.623,27.383v46.441c0,2.312-1.891,4.201-4.203,4.201h-6.844c-2.31,0-4.2-1.889-4.2-4.201V27.383
				H72.623z"/>
			<path fill="#7C6A51" d="M100.972,27.383v46.441c0,2.312-1.891,4.201-4.203,4.201h-6.844c-2.31,0-4.2-1.889-4.2-4.201V27.383
				H100.972z"/>
		</g>
	</g>
</g>
</svg>
