<?xml version="1.0" encoding="utf-8"?>
<!-- Generator: Adobe Illustrator 16.0.0, SVG Export Plug-In . SVG Version: 6.00 Build 0)  -->
<!DOCTYPE svg PUBLIC "-//W3C//DTD SVG 1.1//EN" "http://www.w3.org/Graphics/SVG/1.1/DTD/svg11.dtd">
<svg version="1.1" id="Layer_1" xmlns="http://www.w3.org/2000/svg" xmlns:xlink="http://www.w3.org/1999/xlink" x="0px" y="0px"
	 width="130px" height="130px" viewBox="0 0 130 130" enable-background="new 0 0 130 130" xml:space="preserve">
<rect fill="none" width="130" height="130"/>
<g>
	<g id="Shape_156_2_">
		<path fill="#2B68AD" d="M5.614,88.803c5.126,12.86,14.491,23.766,26.439,31V64.765C29.914,66.708,6.348,88.126,5.614,88.803z"/>
	</g>
	<g id="Shape_160_2_">
		<path fill="#129346" d="M38.779,92.945c0,1.335,0,29.625,0,30.545c6.504,2.921,13.317,4.723,20.319,5.376h11.734
			c22.112-2.062,41.846-15.69,51.654-35.921C120.181,92.945,40.155,92.945,38.779,92.945z"/>
	</g>
	<g id="Shape_159_2_">
		<path fill="#F48B35" d="M98.134,10.539v75.672h27.235C127.744,79.386,129,72.306,129,65.14
			C129,42.891,117.174,22.132,98.134,10.539z"/>
	</g>
	<g id="Shape_158_2_">
		<path fill="#EE4156" d="M64.994,1.134c-7.629,0-15.128,1.472-22.345,4.177c1.693,1.534,46.554,42.251,48.736,44.235V6.868
			C83.031,3.077,74.161,1.134,64.994,1.134z"/>
	</g>
	<g id="Shape_157_2_">
		<path fill="#8A5A9F" d="M35.836,8.231C14.349,19.262,1,41.004,1,65.14c0,5.489,0.83,11.075,2.33,16.622
			c1.73-1.58,55.612-50.538,56.72-51.549C58.977,29.229,36.566,8.896,35.836,8.231z"/>
	</g>
</g>
</svg>
