<?xml version="1.0" encoding="utf-8"?>
<!-- Generator: Adobe Illustrator 16.0.0, SVG Export Plug-In . SVG Version: 6.00 Build 0)  -->
<!DOCTYPE svg PUBLIC "-//W3C//DTD SVG 1.1//EN" "http://www.w3.org/Graphics/SVG/1.1/DTD/svg11.dtd">
<svg version="1.1" id="Layer_1" xmlns="http://www.w3.org/2000/svg" xmlns:xlink="http://www.w3.org/1999/xlink" x="0px" y="0px"
	 width="130px" height="130px" viewBox="0 0 130 130" enable-background="new 0 0 130 130" xml:space="preserve">
<rect fill="none" width="130" height="130"/>
<g id="Pinterest_Icon_2_">
	<path fill="#E13138" d="M68.042,1C32.595,1,14.726,26.045,14.726,46.926c0,12.653,4.85,23.904,15.277,28.095
		c1.705,0.686,3.239,0.026,3.733-1.845c0.349-1.281,1.914-4.552,2.282-5.895c0.5-1.839,0.311-2.498-1.071-4.108
		c-3.005-3.48-4.869-7.125-4.869-13.534c0-21.28,13.287-36.468,35.911-36.468c20.037,0,31.049,12.443,31.049,28.551
		c0,21.205-9.522,38.428-23.658,38.428c-7.809,0-13.641-5.692-11.771-13.489c2.244-9.312,6.58-19.379,6.58-26.098
		c0-6.016-3.265-10.364-10.054-10.364c-7.98,0-14.396,7.461-14.396,18.364c0,6.941,2.301,10.39,2.301,10.39
		s-8.082,35.333-9.515,41.299c-2.853,11.892-0.431,26.472-0.222,27.936c0.12,0.882,1.261,1.085,1.774,0.425
		c0.729-0.931,10.237-12.499,13.471-24.063c0.913-3.263,5.248-20.201,5.248-20.201c2.594,4.874,10.169,8.018,18.225,8.018
		c23.98,0,40.253-20.41,40.253-49.234C115.274,21.316,96.53,1,68.042,1z"/>
</g>
</svg>
