<?xml version="1.0" encoding="utf-8"?>
<!-- Generator: Adobe Illustrator 16.0.0, SVG Export Plug-In . SVG Version: 6.00 Build 0)  -->
<!DOCTYPE svg PUBLIC "-//W3C//DTD SVG 1.1//EN" "http://www.w3.org/Graphics/SVG/1.1/DTD/svg11.dtd">
<svg version="1.1" id="Layer_1" xmlns="http://www.w3.org/2000/svg" xmlns:xlink="http://www.w3.org/1999/xlink" x="0px" y="0px"
	 width="130px" height="130px" viewBox="0 0 130 130" enable-background="new 0 0 130 130" xml:space="preserve">
<rect fill="none" width="130" height="130"/>
<g>
	<path fill="#F6C37A" d="M66.166,1L24.265,115.913c0,0,43.17,18.41,81.264,0C105.528,115.913,65.532,1,66.166,1z"/>
	<path fill="#F15A22" d="M59.96,18.024l-7.563,20.737c0.854,0.21,1.742,0.337,2.659,0.337c6.136,0,11.11-4.977,11.11-11.115
		C66.166,23.611,63.634,19.839,59.96,18.024z"/>
	<path fill="#F15A22" d="M92.195,90.839c1.532,0,2.993-0.312,4.32-0.874c-2.22-6.401-4.696-13.55-7.256-20.946
		c-4.708,1.293-8.175,5.592-8.175,10.71C81.085,85.861,86.06,90.839,92.195,90.839z"/>
	<path fill="#F15A22" d="M35.058,97.187c6.136,0,11.11-4.977,11.11-11.11c0-4.771-3.01-8.826-7.231-10.402l-7.604,20.859
		C32.499,96.947,33.748,97.187,35.058,97.187z"/>
	<path fill="#F15A22" d="M77.345,57.225c0,6.133-4.975,11.11-11.11,11.11s-11.11-4.977-11.11-11.11c0-6.138,4.975-11.11,11.11-11.11
		S77.345,51.086,77.345,57.225z"/>
	<path fill="#F15A22" d="M76.569,97.841c0,6.133-4.975,11.11-11.11,11.11s-11.11-4.978-11.11-11.11
		c0-6.139,4.975-11.115,11.11-11.115S76.569,91.702,76.569,97.841z"/>
	<circle fill="#825F36" cx="56.664" cy="75.073" r="5.026"/>
	<circle fill="#825F36" cx="73.724" cy="78.357" r="5.026"/>
	<circle fill="#825F36" cx="89.01" cy="100.899" r="5.027"/>
	<ellipse fill="#825F36" cx="43.406" cy="108.116" rx="5.026" ry="5.031"/>
	<path fill="#825F36" d="M75.232,42.274c1.683,0,3.164-0.834,4.076-2.103c-0.907-2.64-1.793-5.221-2.649-7.714
		c-0.456-0.137-0.93-0.234-1.427-0.234c-2.779,0-5.028,2.249-5.028,5.025S72.453,42.274,75.232,42.274z"/>
	<path fill="#825F36" d="M47.015,58.352c2.779,0,5.028-2.25,5.028-5.026c0-2.147-1.354-3.967-3.247-4.684l-3.433,9.412
		C45.883,58.235,46.434,58.352,47.015,58.352z"/>
	<g>
		<path fill="#D69A22" d="M67.433,129c-24.438,0-43.856-8.1-45.073-8.622l3.806-8.934c0.413,0.176,41.667,17.297,77.25,0.098
			l4.226,8.743C94.115,126.824,80.097,129,67.433,129z"/>
	</g>
</g>
</svg>
