<?xml version="1.0" encoding="utf-8"?>
<!-- Generator: Adobe Illustrator 16.0.0, SVG Export Plug-In . SVG Version: 6.00 Build 0)  -->
<!DOCTYPE svg PUBLIC "-//W3C//DTD SVG 1.1//EN" "http://www.w3.org/Graphics/SVG/1.1/DTD/svg11.dtd">
<svg version="1.1" id="Layer_1" xmlns="http://www.w3.org/2000/svg" xmlns:xlink="http://www.w3.org/1999/xlink" x="0px" y="0px"
	 width="130px" height="130px" viewBox="0 0 130 130" enable-background="new 0 0 130 130" xml:space="preserve">
<rect fill="none" width="130" height="130"/>
<g>
	<g>
		<path fill="#FDB813" d="M35.095,35.785c-0.66-1.378-2.368-2.573-2.619-4.486c-0.13-0.994,0.234-1.308,0.351-2.185
			c0.115-0.86-0.194-1.382-0.198-2.28c-0.021-2.995,1.758-1.336,3.431-2.577c1.215-0.898,0.607-3.45,0.679-4.787
			c2.552-0.76,0.998-2.18,2.132-3.738c0.994-1.375,3.049-0.94,4.34-2.088c0.568-0.505,0.85-1.287,1.416-1.754
			c0.988-0.814,0.66-0.267,1.704-0.581c1.006-0.305,0.823,0.259,1.66-0.643c0.57-0.61,0.526-1.504,0.856-2.281
			c0.886-2.076,1.414-1.458,3.575-1.992c1.893-0.468,2.869-2.414,4.648-3.074c0.834-0.309,1.339,0.096,2.204-0.038
			c1.198-0.188,1.233-0.556,2.218-1.174c2.084-1.312,3.153-0.685,5.43-0.342c1.729,0.259,5.201-2.059,6.089,0.313
			c0.838,0.05,1.984-0.192,2.786,0.029c1.7,0.463,0.974,0.806,1.604,1.951c1.13,2.055,2.316,1.382,4.039,2.527
			c1.161,0.777,0.426,0.948,1.161,1.95c0.928,1.266,1.078,0.735,2.678,0.973c2.769,0.418,2.117,1.771,2.844,3.859
			c0.671,0.247,1.548,0.159,2.185,0.422c1.347,0.56,0.693,0.305,1.407,1.558c0.493,0.86-0.062,0.965,1.011,1.566
			c0.759,0.43,2.02-0.021,2.832,0.422c1.752,0.957,0.66,2.502,1.996,3.617c0.37,0.309,1.357,0.221,1.859,0.568
			c1.092,0.769,0.831,1.169,1.169,2.197c0.445,1.361,0.777,2.877,0.451,4.327c-0.148,0.664-0.714,1.316-0.811,1.946
			c-0.129,0.856,0.439,1.504,0.368,2.289c-0.363,4.185-6.023,4.703-9.278,5.304c-6.739,1.245-13.721,1.98-20.343,3.601
			c-2.878,0.702-5.292,2.326-8.053,3.116c-3.517,1.006-6.996,1.04-10.481,0.046c-3.738-1.061-7.159-2.719-10.69-4.231
			c-1.359-0.581-6.451-3.438-7.455-2.577"/>
		<g>
			<g>
				<path fill="#F15A22" d="M80.091,93.314l7.106-54.656c0.437-3.621,4.041-6.579,8-6.579c3.964,0,6.631,2.958,5.936,6.579
					L89.874,93.314H80.091z"/>
			</g>
			<g>
				<path fill="#FFF6E4" d="M70.307,93.314l3.072-58.47c0.182-3.621,3.606-6.578,7.609-6.578c4.004,0,6.915,2.957,6.479,6.578
					l-7.376,58.47H70.307z"/>
			</g>
			<g>
				<path fill="#F96335" d="M60.519,93.314L59.27,31.031c-0.079-3.617,3.164-6.578,7.207-6.578c4.045,0,7.205,2.961,7.023,6.578
					l-3.193,62.283H60.519z"/>
			</g>
			<g>
				<path fill="#FFF6E4" d="M50.732,93.314l-5.521-58.47c-0.338-3.621,2.659-6.578,6.662-6.578c4.005,0,7.345,2.957,7.424,6.578
					l1.222,58.47H50.732z"/>
			</g>
			<g>
				<path fill="#F15A22" d="M40.949,93.314l-9.502-54.656c-0.593-3.621,2.159-6.579,6.123-6.579c3.961,0,7.48,2.958,7.814,6.579
					l5.348,54.656H40.949z"/>
			</g>
		</g>
		<path fill="#F15A22" d="M89.755,96.939l-1.048,4.59c-0.066,0.326-0.395,0.598-0.731,0.598H43.05c-0.334,0-0.662-0.271-0.729-0.598
			l-1.053-4.59H89.755z"/>
		<path fill="#DB9303" d="M44.509,23.943c-1.76-1.453,1.036-2.978,2.268-3.09c1.458-0.134,2.911,1.082,4.183,0.584
			c3.45-1.336,0.263-8.65,5.453-8.83c-0.499,0.814-1.032,1.483-0.942,2.439c2.523-0.464,2.784,2.861,2.68,4.736
			c1.693,0.096,1.441,1.136,0.86,2.259c-0.894,1.733-3.31,2.189-5.014,2.318c-3.406,0.267-6.459-0.322-8.251,2.877
			c-0.762,1.366-3.197,3.96-5.16,2.694c-2.243-1.454,2.729-6.85,3.717-5.99"/>
		<path fill="#DB9303" d="M65.752,12.809c-0.064,0.693,0.702-1.55,1.27-2.113c0.871-0.865,3.028-1.917,4.259-1.207
			c1.411,0.818,0.949,3.283,2.134,4.41c1.354,1.287,2.917,0.656,4.505,0.974c2.324,0.468,6.776,3.42,8.261,5.363
			c0.616,0.806,0.589,1.466,1.028,2.272c0.496,0.915,1.231,1.086,1.244,2.452c0.035,4.611-5.123,0.56-6.463-0.806
			c-0.801-0.814-0.861-1.186-2.208-1.65c-2.088-0.718-2.315-0.259-4.093,0.205c-1.343,0.351-1.272,0.284-3.07-0.055
			c-1.607-0.305-2.66-0.075-3.968-0.965c-1.365-0.931-2.361-2.364-2.748-3.947c-0.192-0.777,0.169-2.376-0.595-2.682
			c-0.128,0.009-0.253,0.013-0.381,0.017L65.752,12.809z"/>
	</g>
	<circle fill="#FDB813" cx="32.395" cy="112.289" r="3.638"/>
	<circle fill="#FDB813" cx="43.837" cy="107.386" r="3.638"/>
	<circle fill="#FDB813" cx="43.018" cy="118.007" r="3.638"/>
	<circle fill="#FDB813" cx="95.768" cy="114.74" r="3.638"/>
	<circle fill="#FDB813" cx="80.241" cy="110.651" r="3.638"/>
	<circle fill="#FDB813" cx="53.642" cy="113.922" r="3.638"/>
	<circle fill="#FDB813" cx="66.349" cy="125.361" r="3.638"/>
	<path fill="#DB9303" d="M63.604,4.79c-2.883-2.782-6.067,5.789-5.112,7.952c1.233,2.794,5.502-4.991,5.384-6.941
		c-0.623-0.134-1.289-0.623-1.861-0.693L63.604,4.79z"/>
	<path fill="#DB9303" d="M91.917,19.742c1.894,1.354,3.979,4.386,4.225,6.608c0.246,2.209,0.484,1.052-1.042,2.623
		c-0.282,0.292-3.195,1.8-3.446,1.846c-1.664-3.174,2.7-5.421,0.623-9.185c0.254-0.242,0.53-0.584,0.754-0.785
		c-0.374,0.372-0.744,0.744-1.113,1.12V19.742z"/>
</g>
</svg>
