<?xml version="1.0" encoding="utf-8"?>
<!-- Generator: Adobe Illustrator 16.0.0, SVG Export Plug-In . SVG Version: 6.00 Build 0)  -->
<!DOCTYPE svg PUBLIC "-//W3C//DTD SVG 1.1//EN" "http://www.w3.org/Graphics/SVG/1.1/DTD/svg11.dtd">
<svg version="1.1" id="Layer_1" xmlns="http://www.w3.org/2000/svg" xmlns:xlink="http://www.w3.org/1999/xlink" x="0px" y="0px"
	 width="130px" height="130px" viewBox="0 0 130 130" enable-background="new 0 0 130 130" xml:space="preserve">
<rect fill="none" width="130" height="130"/>
<g>
	<path fill="#363D49" d="M124.86,28.654H5.125C2.852,28.654,1,30.516,1,32.794v69.864c0,2.272,1.852,4.14,4.125,4.14h17.882
		c2.272,0,4.129-1.867,4.129-4.14V82.042c0-2.277,1.863-4.14,4.13-4.14h67.193c2.271,0,4.13,1.862,4.13,4.14v20.616
		c0,2.272,1.861,4.14,4.14,4.14h18.132c2.272,0,4.14-1.867,4.14-4.14V32.794C129,30.516,127.133,28.654,124.86,28.654z"/>
	<path fill="#E4E7E7" d="M98.957,1.714H34.944c-1.526,0-2.766,1.24-2.766,2.754V21.77c0,1.51,1.24,2.75,2.766,2.75h64.013
		c1.509,0,2.755-1.24,2.755-2.75V4.468C101.712,2.954,100.466,1.714,98.957,1.714z"/>
	<path fill="#E4E7E7" d="M97.743,80.761H35.562c-2.288,0-4.161,1.837-4.161,4.088v39.313c0,2.252,1.874,4.088,4.161,4.088h51.012
		l0.109-0.104v0.104l8.975-8.829l6.236-6.06V84.849C101.894,82.598,100.031,80.761,97.743,80.761z"/>
	<polygon fill="#939393" points="86.683,113.407 86.683,128.286 101.805,113.407 	"/>
	<path fill="#3FAA96" d="M99.029,39.351c-1.898,0-3.444,1.531-3.444,3.445c0,1.898,1.546,3.444,3.444,3.444
		c1.925,0,3.466-1.546,3.466-3.444C102.495,40.882,100.954,39.351,99.029,39.351z M112.86,39.351c-1.909,0-3.45,1.536-3.45,3.445
		c0,1.893,1.541,3.434,3.45,3.434s3.45-1.541,3.45-3.434C116.311,40.887,114.77,39.351,112.86,39.351z"/>
</g>
</svg>
