<?xml version="1.0" encoding="utf-8"?>
<!-- Generator: Adobe Illustrator 16.0.0, SVG Export Plug-In . SVG Version: 6.00 Build 0)  -->
<!DOCTYPE svg PUBLIC "-//W3C//DTD SVG 1.1//EN" "http://www.w3.org/Graphics/SVG/1.1/DTD/svg11.dtd">
<svg version="1.1" id="Layer_1" xmlns="http://www.w3.org/2000/svg" xmlns:xlink="http://www.w3.org/1999/xlink" x="0px" y="0px"
	 width="130px" height="130px" viewBox="0 0 130 130" enable-background="new 0 0 130 130" xml:space="preserve">
<rect fill="none" width="130" height="130"/>
<g id="Quora_icon_1_">
	<path fill="#EA3123" d="M94.454,107.729c15.992-10.162,26.744-28.335,26.744-49.066C121.198,26.817,95.961,1,64.949,1
		C33.939,1,8.802,26.817,8.802,58.663c0,31.852,25.138,56.435,56.147,56.435c4.565,0,9.131,0,13.238-0.396
		c5.329,9.826,13.595,16.782,30.829,13.457v-9.778C109.017,118.381,97.818,115.571,94.454,107.729z M93.777,66.29
		c0,9.629-2.741,18.364-7.651,24.823c-6.171-6.656-14.99-11.653-27.265-10.958v10.862c0,0,7.472,0.336,13.17,10.258
		c-2.505,0-4.767,0.155-7.059,0.155c-15.842,0-28.84-15.272-28.84-35.141c0-2.546,0-12.307,0-14.859
		c0-19.862,13.409-36.536,29.248-36.536c15.842,0,28.396,16.674,28.396,36.536C93.777,53.983,93.777,63.744,93.777,66.29z"/>
</g>
</svg>
