<?xml version="1.0" encoding="utf-8"?>
<!-- Generator: Adobe Illustrator 16.0.0, SVG Export Plug-In . SVG Version: 6.00 Build 0)  -->
<!DOCTYPE svg PUBLIC "-//W3C//DTD SVG 1.1//EN" "http://www.w3.org/Graphics/SVG/1.1/DTD/svg11.dtd">
<svg version="1.1" id="Layer_1" xmlns="http://www.w3.org/2000/svg" xmlns:xlink="http://www.w3.org/1999/xlink" x="0px" y="0px"
	 width="130px" height="130px" viewBox="0 0 130 130" enable-background="new 0 0 130 130" xml:space="preserve">
<rect fill="none" width="130" height="130"/>
<g id="svg_1">
	<path id="svg_2" fill="#7C6A51" d="M12.085,128.122c0.162-0.532,3.557-13.828,7.543-29.54l7.241-28.575l2.425-1.854
		c4.374-3.345,9.856-5.536,14.121-5.636c6.416-0.157,12.457,2.782,23.697,11.533c8.21,6.393,12.498,8.868,17.204,9.923
		c3.589,0.808,3.702,0.808,8.657-0.126c5.541-1.037,7.561-1.93,11.618-5.14l2.092-1.659l7.646-30.203
		c4.202-16.613,7.606-30.433,7.557-30.707c-0.068-0.348-0.749-0.027-2.174,1.023c-4.968,3.651-10.364,5.834-14.504,5.856
		c-6.424,0.036-11.97-2.643-22.862-11.028c-7.312-5.631-11.704-8.453-15.072-9.685c-6.97-2.547-14.652-1.343-21.664,3.391
		c-2.637,1.785-2.714,1.817-2.845,1.101c-0.085-0.442-2.029-0.767-3.391-0.56C39.069,6.282,7.987,127.9,8.113,128.568
		c0.027,0.14,0.537,0.271,1.136,0.288c0.595,0.019,1.416,0.077,1.812,0.136C11.54,129.055,11.892,128.762,12.085,128.122z
		 M86.688,83.703c-1.268-0.171-3.72-0.86-5.455-1.532l-3.152-1.227l0.434-1.718c0.243-0.947,0.919-3.603,1.51-5.897l1.073-4.184
		l2.903,1.208c2.872,1.199,6.988,2.011,8.634,1.704c0.469-0.085,0.893,0.041,0.938,0.28c0.04,0.238-0.519,2.881-1.245,5.87
		C90.836,84.339,90.899,84.276,86.688,83.703z M93.961,72.004c-0.022-0.104,0.608-2.71,1.401-5.789
		c0.794-3.079,1.421-5.717,1.394-5.865c-0.031-0.149-1.23-0.343-2.669-0.434c-2.772-0.171-4.824-0.685-7.732-1.943
		c-0.982-0.419-1.88-0.748-2.002-0.726c-0.117,0.022-0.834,2.476-1.582,5.451c-0.753,2.971-1.524,5.608-1.709,5.856
		c-0.379,0.51-3.075-1.158-8.106-5.018c-1.744-1.339-3.21-2.422-3.264-2.412c-0.05,0.009-0.713,2.497-1.47,5.522
		c-0.763,3.03-1.533,5.537-1.718,5.573c-0.186,0.031-1.47-0.825-2.85-1.907s-3.842-2.796-5.474-3.806l-2.962-1.835l1.267-5.05
		c0.694-2.777,1.339-5.396,1.434-5.825c0.149-0.703,0.401-0.645,2.457,0.519c1.259,0.713,3.823,2.457,5.69,3.878
		c1.866,1.425,3.462,2.574,3.544,2.557c0.081-0.014,0.807-2.697,1.609-5.961c0.807-3.265,1.528-5.889,1.601-5.839
		s2.015,1.497,4.306,3.215c2.295,1.713,4.837,3.48,5.653,3.918l1.479,0.807l1.344-5.604c0.744-3.084,1.483-5.785,1.642-6.001
		c0.157-0.221,1.253,0.05,2.438,0.595c2.381,1.104,6.47,2.047,8.706,2.007c0.808-0.014,1.479,0.085,1.506,0.226
		c0.027,0.14-0.6,2.772-1.393,5.852c-0.794,3.079-1.425,5.681-1.407,5.789c0.077,0.406,4.311-0.622,6.587-1.596
		c1.308-0.56,3.639-1.871,5.186-2.908c1.537-1.037,2.804-1.835,2.817-1.772c0.014,0.063-0.653,2.773-1.483,6.015l-1.501,5.902
		l-2.998,2.011c-1.65,1.104-4.026,2.452-5.289,2.993C98.181,71.359,94.028,72.392,93.961,72.004z M29.231,62.522
		c0.735-2.895,1.51-5.523,1.722-5.848c0.591-0.902,3.724-2.908,6.871-4.405c3.206-1.52,7.705-2.552,7.493-1.722
		c-0.072,0.283-0.753,2.948-1.506,5.924l-1.375,5.406l-2.709,0.505c-2.922,0.536-6.858,2.272-9.752,4.301
		c-0.983,0.69-1.858,1.222-1.939,1.173C27.956,67.811,28.497,65.408,29.231,62.522z M100.448,47.562
		c-0.167-0.238,0.343-2.917,1.123-5.946c0.779-3.034,1.303-5.622,1.163-5.758c-0.14-0.135-0.527-0.193-0.866-0.135
		c-1.425,0.266-5.906-0.636-8.634-1.74c-2.898-1.173-2.939-1.173-3.16-0.267c-0.938,3.904-2.732,10.758-2.863,10.942
		c-0.202,0.284-3.854-2.133-7.912-5.248c-1.735-1.33-3.291-2.321-3.444-2.195c-0.158,0.122-0.897,2.714-1.646,5.757
		c-0.744,3.048-1.506,5.515-1.687,5.487c-0.185-0.031-2.228-1.456-4.531-3.165c-2.309-1.718-4.774-3.431-5.482-3.814l-1.289-0.694
		l-0.239,0.979c-0.126,0.537-0.771,3.17-1.425,5.848c-0.658,2.683-1.249,4.946-1.32,5.036c-0.072,0.09-1.195-0.288-2.503-0.843
		c-2.493-1.064-6.771-2.021-8.034-1.799c-2.101,0.374-2.142-0.086-0.59-6.168c0.825-3.219,1.533-5.901,1.573-5.956
		c0.041-0.054,1.083-0.054,2.318-0.004c2.786,0.121,5.433,0.739,7.926,1.853c1.046,0.469,2.024,0.829,2.169,0.803
		c0.148-0.032,0.893-2.574,1.663-5.658c0.767-3.084,1.452-5.69,1.524-5.798c0.238-0.352,4.671,2.366,7.89,4.837
		c1.74,1.34,3.305,2.408,3.472,2.376c0.171-0.031,0.933-2.547,1.699-5.586c0.763-3.043,1.488-5.617,1.614-5.717
		c0.131-0.104,1.921,1.104,3.985,2.688c3.742,2.872,7.209,5.059,7.439,4.697c0.072-0.104,0.744-2.669,1.501-5.693
		c0.763-3.03,1.425-5.577,1.47-5.658c0.05-0.082,1.258,0.329,2.688,0.915c3.341,1.37,4.4,1.623,7.516,1.785l2.57,0.135l-1.416,5.496
		c-0.78,3.025-1.371,5.735-1.316,6.023c0.076,0.429,0.64,0.379,2.926-0.266c3.16-0.893,6.055-2.277,9.161-4.383
		c1.15-0.779,2.115-1.271,2.15-1.095c0.194,1.068-2.664,11-3.408,11.83C111.773,44.199,101.314,48.825,100.448,47.562z
		 M35.404,38.239l1.506-5.879l2.471-1.731c4.066-2.854,11.677-5.735,11.903-4.509c0.049,0.266-0.546,2.958-1.326,5.982l-1.411,5.501
		l-2.8,0.775c-3.48,0.96-6.542,2.385-9.391,4.364c-1.208,0.839-2.254,1.492-2.331,1.452C33.952,44.154,34.569,41.472,35.404,38.239z
		 M58.117,26.332c-0.933-0.217-2.516-0.451-3.517-0.527c-1-0.072-2.069-0.153-2.366-0.176c-0.361-0.027-0.059-1.938,0.901-5.681
		c0.794-3.103,1.587-5.825,1.763-6.056c0.744-0.965,6.488,0.032,11.042,1.917l1.456,0.604l1.434-5.6
		c0.789-3.074,1.632-5.694,1.875-5.815c0.411-0.203,8.639,5.469,10.365,7.146c0.73,0.708,0.681,1.204-0.6,6.325
		c-0.767,3.058-1.492,5.641-1.618,5.74c-0.122,0.099-1.979-1.146-4.121-2.769c-3.949-2.98-7.083-4.96-7.312-4.612
		c-0.1,0.158-2.024,7.561-2.827,10.906c-0.221,0.92-0.226,0.92-2.502-0.045C60.836,27.157,59.047,26.549,58.117,26.332z
		 M40.196,19.695c-0.018-0.099,0.555-2.524,1.276-5.392c1.483-5.902,1.885-6.475,6.267-9.045c2.755-1.609,9.013-3.989,9.594-3.647
		c0.149,0.086-0.396,2.846-1.208,6.132l-1.479,5.97l-2.624,0.491c-2.741,0.51-8.409,3.143-10.194,4.729
		C40.917,19.745,40.259,20.052,40.196,19.695z"/>
</g>
</svg>
