<?xml version="1.0" encoding="utf-8"?>
<!-- Generator: Adobe Illustrator 16.0.0, SVG Export Plug-In . SVG Version: 6.00 Build 0)  -->
<!DOCTYPE svg PUBLIC "-//W3C//DTD SVG 1.1//EN" "http://www.w3.org/Graphics/SVG/1.1/DTD/svg11.dtd">
<svg version="1.1" id="Layer_1" xmlns="http://www.w3.org/2000/svg" xmlns:xlink="http://www.w3.org/1999/xlink" x="0px" y="0px"
	 width="130px" height="130px" viewBox="0 0 130 130" enable-background="new 0 0 130 130" xml:space="preserve">
<rect fill="none" width="130" height="130"/>
<g>
	<path fill="#FDB813" d="M122.838,39.878H7.156c-2.493,0-4.541,2.038-4.541,4.526v80.069c0,2.493,2.048,4.525,4.541,4.525h115.682
		c2.498,0,4.547-2.032,4.547-4.525V44.404C127.385,41.916,125.336,39.878,122.838,39.878z"/>
	<path fill="#47392F" d="M115.253,108.065H95.485c-1.284,0-2.311,1.031-2.311,2.311c0,1.274,1.026,2.306,2.311,2.306h19.768
		c1.284,0,2.321-1.031,2.321-2.306C117.574,109.097,116.537,108.065,115.253,108.065z"/>
	<path fill="#47392F" d="M105.321,58.088c-3.798,0-6.893,3.085-6.893,6.872c0,3.798,3.095,6.883,6.893,6.883
		c3.812,0,6.893-3.085,6.893-6.883C112.214,61.173,109.134,58.088,105.321,58.088z"/>
	<g>
		<path fill="#47392F" d="M20.795,94.815c-1.901,0-3.434,1.538-3.434,3.429c0,1.901,1.532,3.434,3.434,3.434
			c1.907,0,3.454-1.532,3.454-3.434C24.249,96.354,22.702,94.815,20.795,94.815z M20.795,67.256c-1.901,0-3.434,1.543-3.434,3.444
			c0,1.886,1.532,3.423,3.434,3.423c1.907,0,3.454-1.537,3.454-3.423C24.249,68.799,22.702,67.256,20.795,67.256z M30.08,103.908
			c-1.901,0-3.449,1.548-3.449,3.443c0,1.896,1.548,3.434,3.449,3.434c1.906,0,3.458-1.537,3.458-3.434
			C33.538,105.456,31.986,103.908,30.08,103.908z M19.652,84.435c0-1.896-1.553-3.424-3.449-3.424c-1.901,0-3.454,1.527-3.454,3.424
			c0,1.891,1.553,3.448,3.454,3.448C18.1,87.883,19.652,86.325,19.652,84.435z M59.88,64.966c1.892,0,3.438-1.538,3.438-3.439
			c0-1.896-1.547-3.438-3.438-3.438c-1.917,0-3.454,1.542-3.454,3.438C56.426,63.428,57.963,64.966,59.88,64.966z M32.3,87.883
			c-1.912,0-3.449,1.537-3.449,3.424c0,1.901,1.537,3.438,3.449,3.438c1.891,0,3.448-1.537,3.448-3.438
			C35.748,89.42,34.19,87.883,32.3,87.883z M69.073,74.123c1.901,0,3.443-1.537,3.443-3.423c0-1.901-1.542-3.444-3.443-3.444
			s-3.454,1.543-3.454,3.444C65.619,72.586,67.172,74.123,69.073,74.123z M30.08,64.966c1.906,0,3.458-1.538,3.458-3.439
			c0-1.896-1.552-3.438-3.458-3.438c-1.901,0-3.449,1.542-3.449,3.438C26.631,63.428,28.179,64.966,30.08,64.966z M57.574,81.011
			c1.901,0,3.448-1.547,3.448-3.438c0-1.901-1.547-3.449-3.448-3.449c-1.896,0-3.449,1.548-3.449,3.449
			C54.125,79.464,55.678,81.011,57.574,81.011z M44.957,108.49c-1.901,0-3.449,1.542-3.449,3.438s1.548,3.434,3.449,3.434
			s3.449-1.537,3.449-3.434S46.858,108.49,44.957,108.49z M69.073,94.815c-1.901,0-3.454,1.538-3.454,3.429
			c0,1.901,1.553,3.434,3.454,3.434s3.443-1.532,3.443-3.434C72.517,96.354,70.975,94.815,69.073,94.815z M60.052,103.908
			c-1.911,0-3.448,1.548-3.448,3.443c0,1.896,1.537,3.434,3.448,3.434c1.901,0,3.443-1.537,3.443-3.434
			C63.495,105.456,61.953,103.908,60.052,103.908z M61.022,91.114c0-1.881-1.547-3.429-3.448-3.429
			c-1.896,0-3.449,1.548-3.449,3.429c0,1.901,1.553,3.443,3.449,3.443C59.476,94.558,61.022,93.016,61.022,91.114z M73.665,81.011
			c-1.896,0-3.449,1.527-3.449,3.424c0,1.891,1.553,3.448,3.449,3.448s3.443-1.558,3.443-3.448
			C77.108,82.538,75.562,81.011,73.665,81.011z M44.947,81.011c-1.892,0-3.439,1.527-3.439,3.424c0,1.891,1.548,3.448,3.439,3.448
			c1.911,0,3.459-1.558,3.459-3.448C48.406,82.538,46.858,81.011,44.947,81.011z M44.957,53.512c-1.901,0-3.449,1.537-3.449,3.434
			s1.548,3.434,3.449,3.434s3.449-1.537,3.449-3.434S46.858,53.512,44.957,53.512z M44.957,94.815c-1.901,0-3.449,1.538-3.449,3.429
			c0,1.901,1.548,3.434,3.449,3.434s3.449-1.532,3.449-3.434C48.406,96.354,46.858,94.815,44.957,94.815z M32.3,74.123
			c-1.912,0-3.449,1.548-3.449,3.449c0,1.892,1.537,3.438,3.449,3.438c1.891,0,3.448-1.547,3.448-3.438
			C35.748,75.671,34.19,74.123,32.3,74.123z M44.957,67.256c-1.901,0-3.449,1.543-3.449,3.444c0,1.886,1.548,3.423,3.449,3.423
			s3.449-1.537,3.449-3.423C48.406,68.799,46.858,67.256,44.957,67.256z"/>
	</g>
	<path fill="#C1BAA7" d="M31.151,5.39c0.122-0.444-2.695,3.348-1.81,2.671L95.046,39.55h7.397L31.151,5.39z"/>
	<ellipse fill="#B7B19F" cx="29.433" cy="6.184" rx="5.229" ry="5.183"/>
</g>
</svg>
