<?xml version="1.0" encoding="utf-8"?>
<!-- Generator: Adobe Illustrator 16.0.0, SVG Export Plug-In . SVG Version: 6.00 Build 0)  -->
<!DOCTYPE svg PUBLIC "-//W3C//DTD SVG 1.1//EN" "http://www.w3.org/Graphics/SVG/1.1/DTD/svg11.dtd">
<svg version="1.1" id="Layer_1" xmlns="http://www.w3.org/2000/svg" xmlns:xlink="http://www.w3.org/1999/xlink" x="0px" y="0px"
	 width="130px" height="130px" viewBox="0 0 130 130" enable-background="new 0 0 130 130" xml:space="preserve">
<rect fill="none" width="130" height="130"/>
<g>
	<path fill="#4BA7C4" d="M21.47,62.769c1.873,0.996,4.022,1.213,6.051,0.599s3.706-1.987,4.702-3.855
		c1.262-2.369,0.828-9.605,0.531-14.395c-0.069-1.115-0.129-2.152-0.17-3.117c-0.842,0.5-1.737,1.022-2.702,1.59
		C25.737,46,19.475,49.66,18.213,52.018C16.148,55.878,17.609,60.699,21.47,62.769z M64.415,59.6
		c-3.543,2.225-7.716,4.681-12.555,7.494c-13.117,7.644-29.429,17.16-33.371,24.53c-6.601,12.35-1.933,27.76,10.417,34.371
		c5.977,3.189,12.852,3.87,19.336,1.894c6.495-1.961,11.835-6.332,15.024-12.312c3.948-7.381,2.802-26.239,1.878-41.376
		C64.807,68.61,64.528,63.78,64.415,59.6z M99.362,21.769c1.882,1.001,4.026,1.213,6.055,0.599c2.036-0.614,3.703-1.987,4.699-3.85
		c1.264-2.369,0.83-9.6,0.539-14.394c-0.075-1.12-0.137-2.152-0.184-3.123c-0.828,0.501-1.724,1.032-2.694,1.595
		c-4.144,2.41-10.409,6.064-11.671,8.423C94.044,14.884,95.502,19.705,99.362,21.769z M113.945,48.57
		c-0.116-1.977-0.225-3.814-0.312-5.522c-1.466,0.882-3.053,1.816-4.769,2.808c-7.337,4.278-18.417,10.74-20.649,14.92
		c-3.656,6.838-1.071,15.364,5.768,19.028c3.313,1.76,7.112,2.147,10.701,1.059c3.603-1.089,6.552-3.521,8.325-6.834
		C115.24,69.854,114.459,57.045,113.945,48.57z M73.511,11.979c-1.133,0.676-2.361,1.394-3.669,2.168
		c-5.659,3.288-14.195,8.273-15.92,11.494c-2.822,5.264-0.82,11.85,4.446,14.663c2.55,1.362,5.481,1.657,8.25,0.815
		c2.774-0.836,5.048-2.71,6.413-5.259c1.724-3.221,1.128-13.094,0.725-19.627C73.661,14.704,73.578,13.3,73.511,11.979z
		 M93.99,100.521c-0.828,0.5-1.724,1.026-2.687,1.589c-4.154,2.411-10.41,6.06-11.672,8.423c-2.069,3.861-0.611,8.686,3.257,10.755
		c1.873,1.001,4.023,1.213,6.054,0.594c2.028-0.614,3.703-1.982,4.702-3.85c1.262-2.368,0.828-9.604,0.528-14.394
		C94.104,102.523,94.044,101.486,93.99,100.521z"/>
</g>
</svg>
