<?xml version="1.0" encoding="utf-8"?>
<!-- Generator: Adobe Illustrator 16.0.0, SVG Export Plug-In . SVG Version: 6.00 Build 0)  -->
<!DOCTYPE svg PUBLIC "-//W3C//DTD SVG 1.1//EN" "http://www.w3.org/Graphics/SVG/1.1/DTD/svg11.dtd">
<svg version="1.1" id="Layer_1" xmlns="http://www.w3.org/2000/svg" xmlns:xlink="http://www.w3.org/1999/xlink" x="0px" y="0px"
	 width="130px" height="130px" viewBox="0 0 130 130" enable-background="new 0 0 130 130" xml:space="preserve">
<rect fill="none" width="130" height="130"/>
<g>
	<path fill="#FDB813" d="M110.815,19.525l10.941-0.703c3.396-0.215,5.97-3.139,5.749-6.526c-0.215-3.393-3.175-5.942-6.526-5.75
		L94.593,8.23c-3.374,0.221-5.932,3.106-5.755,6.472l1.422,26.39c0.177,3.283,2.895,5.821,6.141,5.821l0.336-0.006
		c3.396-0.188,5.998-3.087,5.811-6.477l-0.667-12.403c9.415,9.588,14.822,22.471,14.822,36.312c0,20.373-12,38.963-30.571,47.366
		c-3.098,1.395-4.476,5.038-3.07,8.136c1.025,2.277,3.27,3.619,5.606,3.619c0.849,0,1.714-0.182,2.53-0.554
		C114.167,112.524,129,89.536,129,64.34C129,47.269,122.38,31.363,110.815,19.525z"/>
	<path fill="#FDB813" d="M46.939,10.154c-1.39-3.104-5.055-4.468-8.137-3.07C15.845,17.472,1,40.461,1,65.654
		c0,17.074,6.62,32.977,18.196,44.817l-10.948,0.697c-3.401,0.218-5.97,3.145-5.749,6.534c0.198,3.255,2.91,5.761,6.129,5.761
		l0.402-0.014l26.382-1.687c3.368-0.213,5.937-3.104,5.749-6.472L39.74,88.896c-0.182-3.385-3.032-5.929-6.477-5.807
		c-3.385,0.185-5.986,3.084-5.811,6.474l0.667,12.402c-9.409-9.589-14.816-22.471-14.816-36.312c0-20.373,12-38.963,30.576-47.364
		C46.972,16.896,48.345,13.252,46.939,10.154z"/>
</g>
</svg>
