<?xml version="1.0" encoding="utf-8"?>
<!-- Generator: Adobe Illustrator 16.0.0, SVG Export Plug-In . SVG Version: 6.00 Build 0)  -->
<!DOCTYPE svg PUBLIC "-//W3C//DTD SVG 1.1//EN" "http://www.w3.org/Graphics/SVG/1.1/DTD/svg11.dtd">
<svg version="1.1" id="Layer_1" xmlns="http://www.w3.org/2000/svg" xmlns:xlink="http://www.w3.org/1999/xlink" x="0px" y="0px"
	 width="130px" height="130px" viewBox="0 0 130 130" enable-background="new 0 0 130 130" xml:space="preserve">
<rect fill="none" width="130" height="130"/>
<g>
	<path fill="#FDB813" d="M122.27,68.091c-3.718,0-6.741,3.016-6.741,6.732v12.591c0,3.231-2.693,5.859-5.992,5.859H23.85
		l9.025-9.127c2.621-2.643,2.591-6.902-0.052-9.521c-2.644-2.612-6.912-2.598-9.522,0.058L2.947,95.251
		c-2.596,2.619-2.596,6.845,0,9.469l20.354,20.579c1.32,1.329,3.057,1.996,4.793,1.996c1.711,0,3.429-0.65,4.729-1.946
		c2.643-2.615,2.673-6.875,0.058-9.522l-8.993-9.088h85.648c10.727,0,19.464-8.671,19.464-19.324V74.823
		C129,71.106,125.981,68.091,122.27,68.091z"/>
	<path fill="#FDB813" d="M127.049,25.256L106.689,4.698c-2.616-2.637-6.88-2.665-9.522-0.041c-2.646,2.608-2.665,6.875-0.047,9.517
		l8.982,9.07H20.457c-10.729,0-19.455,8.667-19.455,19.32v12.593c0,3.716,3.013,6.731,6.73,6.731c3.718,0,6.738-3.015,6.738-6.731
		V42.564c0-3.228,2.685-5.855,5.986-5.855h85.681l-9.018,9.112c-2.618,2.643-2.599,6.91,0.047,9.526
		c1.312,1.298,3.021,1.949,4.737,1.949c1.739,0,3.465-0.67,4.785-1.991l20.361-20.573C129.647,32.109,129.647,27.88,127.049,25.256z
		"/>
</g>
</svg>
