<?xml version="1.0" encoding="utf-8"?>
<!-- Generator: Adobe Illustrator 16.0.0, SVG Export Plug-In . SVG Version: 6.00 Build 0)  -->
<!DOCTYPE svg PUBLIC "-//W3C//DTD SVG 1.1//EN" "http://www.w3.org/Graphics/SVG/1.1/DTD/svg11.dtd">
<svg version="1.1" id="Layer_1" xmlns="http://www.w3.org/2000/svg" xmlns:xlink="http://www.w3.org/1999/xlink" x="0px" y="0px"
	 width="130px" height="130px" viewBox="0 0 130 130" enable-background="new 0 0 130 130" xml:space="preserve">
<rect fill="none" width="130" height="130"/>
<g id="Shape_147_2_">
	<path fill="#FF8E2E" d="M61.681,66.307C42.314,48.126,7.69,43.854,7.69,43.854c-3.892,0-7.06,2.709-7.06,6.611v12.371
		c0,3.896,3.168,6.618,7.06,6.632c0,0,22.257,0.583,35.619,12.975c17.641,16.363,17.165,39.056,17.165,39.056
		c0,3.908,1.842,7.077,5.747,7.077h13.685c3.898,0,4.852-3.169,4.852-7.077C84.757,121.498,81.496,84.877,61.681,66.307z
		 M18.95,93.971c-9.666,0-17.508,7.845-17.508,17.508c0,9.69,7.842,17.521,17.508,17.521c9.676,0,17.525-7.831,17.525-17.521
		C36.475,101.815,28.633,93.971,18.95,93.971z M96.347,41.728C65.878,4.978,7.69,1,7.69,1C3.798,1,0.63,3.729,0.63,7.638v12.358
		c0,3.909,3.168,6.618,7.06,6.618c0,0,41.582,1.344,65.029,29.049c32.142,33.068,29.704,66.123,29.704,66.123
		c0,3.901,3.154,7.062,7.07,7.062h13.685c3.909,0,6.192-3.161,6.192-7.062C129.37,121.786,126.477,69.79,96.347,41.728z"/>
</g>
</svg>
