<?xml version="1.0" encoding="utf-8"?>
<!-- Generator: Adobe Illustrator 16.0.0, SVG Export Plug-In . SVG Version: 6.00 Build 0)  -->
<!DOCTYPE svg PUBLIC "-//W3C//DTD SVG 1.1//EN" "http://www.w3.org/Graphics/SVG/1.1/DTD/svg11.dtd">
<svg version="1.1" id="Layer_1" xmlns="http://www.w3.org/2000/svg" xmlns:xlink="http://www.w3.org/1999/xlink" x="0px" y="0px"
	 width="130px" height="130px" viewBox="0 0 130 130" enable-background="new 0 0 130 130" xml:space="preserve">
<rect fill="none" width="130" height="130"/>
<g>
	<path fill="#E0D6C2" d="M115.666,109.366L17.535,14.349c-1.984-1.923-3.927-1.272-4.313,1.447c0,0-8.376,58.664,15.994,82.251
		c24.375,23.603,85.06,15.48,85.06,15.48C117.033,113.156,117.661,111.284,115.666,109.366z"/>
	<path fill="#7C6A51" d="M97.25,32.176c-3.526-3.412-9.253-3.412-12.779,0c-3.31,3.196-3.521,8.264-0.584,11.705L50.098,65.263
		l8.503,8.227l26.699-28.26c3.516,2.682,8.678,2.475,11.949-0.688C100.771,41.119,100.771,35.58,97.25,32.176z"/>
	<path fill="#3FAA96" d="M51.899,126.729l-5.063-11.813c-0.584-1.249-2.083-2.754-3.332-3.353c0,0-14.076-4.615-23.339-17.332
		c-0.806-1.113-2.432-0.378-2.875,0.923l-14.91,31.48C1.928,127.935,2.701,129,4.082,129h46.342
		C51.819,129,52.474,127.972,51.899,126.729z"/>
	<path fill="#E0D6C2" d="M94.035,15.452c-1.599-0.165-3.225-0.161-4.817,0.038c-1.456,0.179-2.513,1.49-2.329,2.941
		c0.18,1.447,1.514,2.479,2.965,2.3c1.202-0.142,2.423-0.15,3.63-0.033c4.162,0.452,7.905,2.475,10.517,5.699
		c2.602,3.233,3.785,7.292,3.319,11.413c-0.143,1.221-0.43,2.432-0.845,3.578c-0.504,1.372,0.208,2.885,1.603,3.375
		c0.901,0.325,1.872,0.136,2.564-0.419c0.377-0.302,0.665-0.688,0.849-1.169c0.556-1.532,0.924-3.13,1.122-4.761
		c0.632-5.539-0.947-10.979-4.45-15.315C104.646,18.766,99.64,16.046,94.035,15.452z M120.116,14.014
		C114.05,6.524,105.24,1.942,95.304,1.103c-1.282-0.094-2.574-0.127-4.103-0.084c-1.466,0.028-2.635,1.244-2.592,2.701
		c0.033,1.456,1.264,2.611,2.729,2.569c1.325-0.028,2.438-0.005,3.512,0.089c8.461,0.707,15.961,4.591,21.095,10.936
		c5.133,6.35,7.324,14.443,6.175,22.777c-0.146,1.028-0.354,2.088-0.599,3.14c-0.349,1.423,0.532,2.852,1.961,3.187
		c0.834,0.203,1.664-0.009,2.296-0.5c0.438-0.358,0.777-0.858,0.919-1.447c0.302-1.226,0.527-2.46,0.707-3.658
		C128.742,31.026,126.159,21.505,120.116,14.014z"/>
	<path fill="#3FAA96" d="M14.594,15.132l-1.476,1.471c-0.881,7.009-6.623,59.455,16.098,81.445
		c24.375,23.603,85.06,15.48,85.06,15.48c0.306-0.043,0.575-0.108,0.83-0.184l1.093-0.896
		C45.111,83.388,14.594,15.132,14.594,15.132z"/>
</g>
</svg>
