<?xml version="1.0" encoding="utf-8"?>
<!-- Generator: Adobe Illustrator 16.0.0, SVG Export Plug-In . SVG Version: 6.00 Build 0)  -->
<!DOCTYPE svg PUBLIC "-//W3C//DTD SVG 1.1//EN" "http://www.w3.org/Graphics/SVG/1.1/DTD/svg11.dtd">
<svg version="1.1" id="Layer_1" xmlns="http://www.w3.org/2000/svg" xmlns:xlink="http://www.w3.org/1999/xlink" x="0px" y="0px"
	 width="130px" height="130px" viewBox="0 0 130 130" enable-background="new 0 0 130 130" xml:space="preserve">
<rect fill="none" width="130" height="130"/>
<g>
	<path fill="#7C6A51" d="M113.558,122.971l-2.894-1.818c-3.177-1.99-6.199-3.896-8.853-6.165
		c-8.056-6.897-13.736-16.218-18.633-25.411c-5.244-9.825-10.836-27.869-13.745-44.916c4.229-1.399,7.275-5.348,7.275-10.01
		c0-5.827-4.757-10.552-10.608-10.552c-5.867,0-10.61,4.725-10.61,10.552c0,4.64,2.999,8.553,7.178,9.974
		c-2.899,17.083-8.166,34.973-14.092,44.948c-6.233,10.452-12.137,18.432-20.261,25.374c-2.676,2.284-5.716,4.184-8.899,6.22
		l-2.812,1.787c-1.657,0.009-3.014,1.358-3.014,3.023s1.359,3.024,3.026,3.024h28.881c1.665,0,3.023-1.359,3.023-3.024
		c0-1.553-1.174-2.82-2.674-2.997l-0.12-0.821c-0.145-1.078-0.219-2.112-0.219-3.096c0.007-5.764,2.363-10.188,5.17-13.396
		c3.268-3.71,8.282-6.95,15.054-6.95c3.489,0,6.346,0.885,8.801,2.152c2.489,1.286,4.534,2.907,6.215,4.839
		c2.897,3.344,5.251,7.731,5.263,13.631c0,0.921-0.055,1.887-0.183,2.889l-0.091,0.727c-1.663,0.009-3.015,1.358-3.015,3.023
		s1.361,3.024,3.024,3.024h27.634c1.673,0,3.028-1.359,3.028-3.024C116.409,124.361,115.148,123.062,113.558,122.971z
		 M65.956,93.002c-2.24,0-4.066-1.819-4.066-4.066c0-2.248,1.826-4.066,4.066-4.066c2.238,0,4.062,1.818,4.062,4.066
		C70.018,91.183,68.194,93.002,65.956,93.002z M65.956,79.331c-2.24,0-4.066-1.818-4.066-4.066c0-2.247,1.826-4.075,4.066-4.075
		c2.238,0,4.062,1.828,4.062,4.075C70.018,77.513,68.194,79.331,65.956,79.331z M65.956,65.652c-2.24,0-4.066-1.819-4.066-4.062
		c0-2.252,1.826-4.071,4.066-4.071c2.238,0,4.062,1.819,4.062,4.071C70.018,63.833,68.194,65.652,65.956,65.652z"/>
	<path fill="#FDB813" d="M56.057,50.664c-1.246-0.776-2.406-1.684-3.455-2.712c-3.514-3.516-5.456-8.169-5.461-13.125
		c0.005-4.947,1.947-9.609,5.466-13.111c1.018-1.011,2.15-1.904,3.369-2.649c1.479-0.921,1.942-2.875,1.028-4.355
		c-0.918-1.485-2.868-1.94-4.346-1.029c-1.625,1.006-3.142,2.193-4.5,3.547c-4.726,4.707-7.329,10.954-7.329,17.597
		c0,6.652,2.604,12.898,7.329,17.606c1.396,1.386,2.94,2.595,4.608,3.615c0.51,0.311,1.078,0.46,1.643,0.46
		c1.067,0,2.099-0.537,2.696-1.512C58.013,53.516,57.544,51.57,56.057,50.664z M43.534,63.535c-1.026-0.794-2.011-1.634-2.899-2.487
		c-7.305-6.928-11.326-16.112-11.33-25.847c0.004-9.726,4.03-18.911,11.33-25.852c0.923-0.88,1.938-1.729,3.18-2.681
		c1.388-1.052,1.656-3.033,0.603-4.423s-3.028-1.656-4.421-0.601c-1.439,1.088-2.615,2.081-3.712,3.128
		c-8.571,8.137-13.289,18.946-13.289,30.428c0,11.491,4.718,22.295,13.286,30.437c1.052,0.998,2.196,1.963,3.39,2.888
		c0.578,0.451,1.246,0.663,1.925,0.663c0.948,0,1.878-0.419,2.491-1.223C45.164,66.586,44.911,64.609,43.534,63.535z M84.756,17.229
		c-1.356-1.345-2.875-2.537-4.488-3.547c-1.491-0.912-3.435-0.456-4.353,1.029c-0.921,1.48-0.456,3.435,1.02,4.355
		c1.226,0.745,2.358,1.638,3.374,2.649c3.52,3.502,5.463,8.165,5.472,13.12c-0.009,4.942-1.952,9.6-5.475,13.116
		c-1.04,1.029-2.197,1.936-3.452,2.712c-1.487,0.907-1.952,2.852-1.04,4.333c0.589,0.975,1.631,1.512,2.696,1.512
		c0.56,0,1.131-0.149,1.641-0.46c1.67-1.025,3.216-2.239,4.602-3.611c4.728-4.712,7.336-10.958,7.336-17.602
		C92.088,28.183,89.479,21.937,84.756,17.229z M96.633,4.773c-1.11-1.052-2.288-2.049-3.719-3.128
		C91.53,0.589,89.542,0.86,88.49,2.246c-1.056,1.39-0.78,3.376,0.614,4.432c1.234,0.939,2.25,1.792,3.182,2.677
		c7.294,6.937,11.314,16.121,11.314,25.856c0,9.726-4.021,18.911-11.314,25.843c-0.897,0.849-1.873,1.688-2.897,2.482
		c-1.381,1.074-1.641,3.051-0.564,4.432c0.612,0.804,1.549,1.223,2.494,1.223c0.675,0,1.356-0.212,1.923-0.663
		c1.2-0.925,2.338-1.891,3.387-2.888c8.562-8.142,13.289-18.946,13.294-30.428C109.917,23.719,105.198,12.91,96.633,4.773z"/>
</g>
</svg>
