<?xml version="1.0" encoding="utf-8"?>
<!-- Generator: Adobe Illustrator 16.0.0, SVG Export Plug-In . SVG Version: 6.00 Build 0)  -->
<!DOCTYPE svg PUBLIC "-//W3C//DTD SVG 1.1//EN" "http://www.w3.org/Graphics/SVG/1.1/DTD/svg11.dtd">
<svg version="1.1" id="Layer_1" xmlns="http://www.w3.org/2000/svg" xmlns:xlink="http://www.w3.org/1999/xlink" x="0px" y="0px"
	 width="130px" height="130px" viewBox="0 0 130 130" enable-background="new 0 0 130 130" xml:space="preserve">
<rect fill="none" width="130" height="130"/>
<g>
	<path fill="#F15A22" d="M46.86,72.002l-30.1,30.099l-0.006-17.36c0-4.349-3.528-7.878-7.879-7.878
		c-4.345,0-7.879,3.529-7.879,7.878l0.012,36.375c0,0.516,0.053,1.036,0.153,1.545c0.047,0.232,0.141,0.453,0.2,0.681
		c0.077,0.265,0.135,0.529,0.247,0.788c0.118,0.269,0.265,0.513,0.406,0.768c0.105,0.198,0.194,0.4,0.312,0.585
		c0.582,0.865,1.329,1.607,2.188,2.184c0.182,0.127,0.394,0.212,0.582,0.321c0.259,0.138,0.5,0.291,0.776,0.408
		c0.259,0.1,0.523,0.165,0.788,0.241c0.224,0.064,0.447,0.152,0.676,0.206c0.512,0.097,1.035,0.152,1.546,0.152L45.261,129
		c4.346,0,7.873-3.524,7.873-7.878c0-4.348-3.521-7.874-7.873-7.874l-17.369-0.003l30.105-30.106c3.075-3.076,3.075-8.059,0-11.137
		C54.922,68.928,49.936,68.928,46.86,72.002z M8.875,53.134c4.345,0,7.879-3.528,7.879-7.876V27.904l30.094,30.092
		c1.54,1.536,3.558,2.306,5.574,2.306s4.027-0.77,5.568-2.306c3.075-3.08,3.075-8.063,0-11.14L27.897,16.772h17.352
		c4.357,0,7.879-3.53,7.879-7.878c0-4.353-3.521-7.877-7.879-7.877L8.881,1.018c-0.512,0-1.029,0.056-1.546,0.154
		C7.105,1.224,6.882,1.308,6.659,1.376c-0.265,0.077-0.529,0.14-0.788,0.246C5.595,1.734,5.354,1.885,5.095,2.026
		c-0.188,0.109-0.4,0.194-0.582,0.32C3.654,2.924,2.907,3.666,2.325,4.531C2.208,4.715,2.119,4.919,2.014,5.116
		C1.873,5.371,1.726,5.615,1.608,5.885c-0.112,0.258-0.17,0.523-0.247,0.788c-0.059,0.227-0.153,0.447-0.2,0.679
		c-0.1,0.51-0.153,1.029-0.153,1.543L0.996,45.257C0.996,49.605,4.524,53.134,8.875,53.134z M77.577,60.294
		c2.011,0,4.028-0.767,5.562-2.306l30.111-30.097v17.357c0,4.35,3.528,7.876,7.873,7.876c4.357,0,7.88-3.527,7.88-7.876
		l-0.012-36.365c0-0.515-0.047-1.033-0.147-1.541c-0.047-0.235-0.135-0.454-0.206-0.681c-0.076-0.268-0.135-0.532-0.246-0.788
		c-0.112-0.271-0.253-0.516-0.406-0.77c-0.105-0.195-0.188-0.398-0.312-0.586c-0.582-0.864-1.323-1.607-2.188-2.182
		c-0.183-0.129-0.394-0.213-0.582-0.319c-0.253-0.141-0.5-0.295-0.771-0.41c-0.265-0.103-0.523-0.165-0.788-0.243
		c-0.229-0.064-0.452-0.153-0.682-0.201c-0.512-0.103-1.023-0.156-1.547-0.156L84.745,1c-4.346,0-7.879,3.528-7.879,7.878
		c0,4.347,3.521,7.875,7.879,7.875l17.363,0.004L72.003,46.851c-3.075,3.075-3.075,8.062,0,11.137
		C73.544,59.527,75.561,60.294,77.577,60.294z M121.219,77.492c-4.293,0-7.779,3.484-7.779,7.783v17.146L83.692,72.689
		c-1.517-1.52-3.504-2.28-5.498-2.28c-1.993,0-3.986,0.761-5.503,2.28c-3.04,3.038-3.04,7.964,0,11.006l29.729,29.725l-17.146,0.003
		c-4.299,0-7.779,3.485-7.779,7.783c0,4.299,3.48,7.782,7.779,7.782l35.938-0.003c0.512,0,1.017-0.053,1.528-0.152
		c0.229-0.051,0.447-0.133,0.665-0.2c0.271-0.076,0.529-0.139,0.787-0.244c0.265-0.111,0.506-0.259,0.759-0.399
		c0.188-0.106,0.395-0.188,0.576-0.315c0.853-0.57,1.594-1.302,2.158-2.159c0.123-0.181,0.206-0.384,0.312-0.577
		c0.142-0.25,0.294-0.494,0.4-0.759c0.111-0.254,0.17-0.518,0.246-0.779c0.065-0.227,0.153-0.439,0.2-0.673
		c0.101-0.502,0.147-1.013,0.147-1.524l0.012-35.927C129.004,80.977,125.522,77.492,121.219,77.492z"/>
</g>
</svg>
