<?xml version="1.0" encoding="utf-8"?>
<!-- Generator: Adobe Illustrator 16.0.0, SVG Export Plug-In . SVG Version: 6.00 Build 0)  -->
<!DOCTYPE svg PUBLIC "-//W3C//DTD SVG 1.1//EN" "http://www.w3.org/Graphics/SVG/1.1/DTD/svg11.dtd">
<svg version="1.1" id="Layer_1" xmlns="http://www.w3.org/2000/svg" xmlns:xlink="http://www.w3.org/1999/xlink" x="0px" y="0px"
	 width="130px" height="130px" viewBox="0 0 130 130" enable-background="new 0 0 130 130" xml:space="preserve">
<rect fill="none" width="130" height="130"/>
<g>
	<path fill="#F15A22" d="M82.441,60.159c2.087,2.088,3.086,0.357,3.086,0.357c5.06-5.051,17.465-17.447,24.281-24.261
		c2.385-2.395,3.923-3.935,3.923-3.935s6.396,6.382,9.051,9.025c2.638,2.655,2.518-2.057,2.518-2.057l3.327-35.436
		c0,0,0.238-2.854-2.537-2.854c-3.8,0-35.535,4.459-35.535,4.459s-4.839-0.02-1.627,3.193c3.225,3.226,8.344,8.351,8.344,8.351
		s-1.385,1.389-3.533,3.522c-6.581,6.61-19.417,19.419-24.335,24.333c0,0-1.159,1.098,0.312,2.603
		C71.21,48.949,80.354,58.074,82.441,60.159z M47.019,69.805c-2.074-2.077-3.092-0.372-3.092-0.372
		c-5.057,5.07-17.468,17.465-24.275,24.284c-2.376,2.391-3.923,3.954-3.923,3.954s-6.41-6.419-9.045-9.056
		c-2.65-2.638-2.5,2.091-2.5,2.091l-3.339,35.432c0,0-0.242,2.862,2.522,2.862c3.808,0,35.552-4.483,35.552-4.483
		s4.818,0.022,1.604-3.212c-3.207-3.201-8.344-8.329-8.344-8.329s1.409-1.396,3.546-3.518c6.587-6.613,19.398-19.448,24.314-24.348
		c0,0,1.196-1.111-0.307-2.588C58.254,81.04,49.097,71.894,47.019,69.805z M60.688,44.229c-5.039-5.052-17.438-17.438-24.246-24.262
		c-2.408-2.378-3.958-3.941-3.958-3.941s6.387-6.406,9.039-9.039c2.635-2.623-2.081-2.48-2.081-2.48L4.028,1.14
		c0,0-2.871-0.221-2.871,2.507c0,3.83,4.48,35.557,4.48,35.557S5.628,44.05,8.835,40.83c3.221-3.213,8.344-8.341,8.344-8.341
		s1.405,1.388,3.536,3.542c6.578,6.595,19.416,19.395,24.317,24.312c0,0,1.126,1.177,2.579-0.3
		c1.5-1.501,10.651-10.628,12.734-12.722C62.421,45.249,60.688,44.229,60.688,44.229z M124.698,90.824c0,0,0-4.835-3.197-1.622
		c-3.216,3.221-8.35,8.359-8.35,8.359s-1.412-1.405-3.531-3.541c-6.587-6.59-19.434-19.423-24.326-24.324
		c0,0-1.108-1.187-2.594,0.308c-1.491,1.476-10.636,10.629-12.726,12.718c-2.084,2.089-0.339,3.081-0.339,3.081
		c5.046,5.053,17.441,17.462,24.265,24.299c2.375,2.359,3.932,3.919,3.932,3.919s-6.393,6.404-9.033,9.033
		c-2.629,2.639,2.101,2.498,2.101,2.498l35.399,3.365c0,0,2.861,0.215,2.861-2.54C129.16,122.594,124.698,90.824,124.698,90.824z"/>
</g>
</svg>
