<?xml version="1.0" encoding="utf-8"?>
<!-- Generator: Adobe Illustrator 16.0.0, SVG Export Plug-In . SVG Version: 6.00 Build 0)  -->
<!DOCTYPE svg PUBLIC "-//W3C//DTD SVG 1.1//EN" "http://www.w3.org/Graphics/SVG/1.1/DTD/svg11.dtd">
<svg version="1.1" id="Layer_1" xmlns="http://www.w3.org/2000/svg" xmlns:xlink="http://www.w3.org/1999/xlink" x="0px" y="0px"
	 width="130px" height="130px" viewBox="0 0 130 130" enable-background="new 0 0 130 130" xml:space="preserve">
<rect fill="none" width="130" height="130"/>
<g>
	<g>
		<path fill="#D1C9B4" d="M102.963,10.925c-4.474-3.128-11.226-1.246-15,4.192L64.905,48.188L41.869,15.118
			c-3.788-5.438-10.544-8.735-15.014-5.606c-4.479,3.11-5.039,11.508-1.256,16.929l27.215,39.086L42.146,80.854l11.737,17.828
			l11.022-15.823h0.19l8.939,12.836l13.819-14.841L76.99,65.526l27.246-39.086C108.011,21.02,107.433,14.035,102.963,10.925z"/>
	</g>
	<g>
		<path fill="#F15A22" d="M104.982,73.651c-6.703,0-12.773,2.77-17.129,7.203l-10.35-14.61l-6.778,9.731l-5.534,6.853l22.939,33.105
			c4.379,6.22,16.852,5.761,16.852,5.761c13.231,0,24.018-10.771,24.018-24.016C129,84.433,118.214,73.651,104.982,73.651z
			 M55.729,96.032l4.592-6.589l-4.724,6.111L55.729,96.032z"/>
	</g>
	<g>
		<path fill="#F15A22" d="M70.225,89.288L52.359,66.177L42.146,80.854c-4.355-4.434-10.426-7.203-17.128-7.203
			C11.786,73.651,1,84.433,1,97.679c0,13.245,10.786,24.016,24.018,24.016c0,0,12.469,0.459,16.852-5.761l23.036-33.074h0.19
			l5.475,7.861L70.225,89.288z"/>
	</g>
	<g>
		<path fill="#FFFFFF" d="M105.546,87.774c-5.456,0-9.894,4.442-9.894,9.904c0,5.456,4.438,9.889,9.894,9.889
			c5.447,0,9.904-4.433,9.904-9.889C115.45,92.217,110.993,87.774,105.546,87.774z M25.018,87.774c-5.456,0-9.89,4.442-9.89,9.904
			c0,5.456,4.434,9.889,9.89,9.889c5.453,0,9.904-4.433,9.904-9.889C34.922,92.217,30.47,87.774,25.018,87.774z"/>
	</g>
	<path fill="#8E8776" d="M64.646,59.606c-3.111,0-5.629,2.528-5.629,5.629c0,3.109,2.519,5.625,5.629,5.625
		c3.101,0,5.629-2.516,5.629-5.625C70.274,62.134,67.746,59.606,64.646,59.606z"/>
	<polygon fill="#B2A890" points="78.25,63.739 66.028,46.679 64.905,48.188 76.99,65.526 	"/>
	<polygon fill="#D83F0F" points="65.113,82.618 52.891,65.558 51.768,67.067 63.854,84.405 	"/>
</g>
</svg>
