<?xml version="1.0" encoding="utf-8"?>
<!-- Generator: Adobe Illustrator 16.0.0, SVG Export Plug-In . SVG Version: 6.00 Build 0)  -->
<!DOCTYPE svg PUBLIC "-//W3C//DTD SVG 1.1//EN" "http://www.w3.org/Graphics/SVG/1.1/DTD/svg11.dtd">
<svg version="1.1" id="Layer_1" xmlns="http://www.w3.org/2000/svg" xmlns:xlink="http://www.w3.org/1999/xlink" x="0px" y="0px"
	 width="130px" height="130px" viewBox="0 0 130 130" enable-background="new 0 0 130 130" xml:space="preserve">
<rect fill="none" width="130" height="130"/>
<g>
	<path fill="#7C6A51" d="M22.516,68.46c-10.086,0-18.261,8.175-18.261,18.26c0,10.081,8.175,18.26,18.261,18.26
		c10.083,0,18.258-8.179,18.258-18.26C40.774,76.635,32.6,68.46,22.516,68.46z M22.333,94.206c-4.033,0-7.305-3.27-7.305-7.307
		c0-4.033,3.271-7.303,7.305-7.303c4.034,0,7.303,3.27,7.303,7.303C29.636,90.937,26.366,94.206,22.333,94.206z"/>
	<path fill="#7C6A51" d="M109.103,70.524c-9.4,0-17.02,7.621-17.02,17.021c0,9.397,7.619,17.018,17.02,17.018
		s17.02-7.62,17.02-17.018C126.122,78.146,118.503,70.524,109.103,70.524z M108.932,94.521c-3.759,0-6.808-3.047-6.808-6.805
		c0-3.762,3.049-6.809,6.808-6.809c3.76,0,6.809,3.047,6.809,6.809C115.74,91.474,112.691,94.521,108.932,94.521z"/>
	<path fill="#F15A22" d="M18.975,69.85l21.302-12.727l21.938,0.416c0,0-10.79,4.564-13.694,14.941
		c-2.904,10.373,7.331,14.524,22.271,12.863c14.939-1.661,29-10.829,14.061-51.916l1.66,0.829c0,0,12.223,14.014,13.882,25.635
		c0,0,10.839-0.199,11.204,0c9.13,4.98,10.375,19.643,10.375,19.643s-23.142,3.385-30.294,7.471
		c-0.969,0.554-18.812,1.382-27.529,1.382c-8.713,0-25.451-1.382-25.451-1.382L18.975,69.85z"/>
	<path fill="#F15A22" d="M1,87.417c0-13.407,14.965-22.84,27.242-22.84c12.28,0,17.219,9.433,17.219,22.84H1z"/>
	<path fill="#D1421C" d="M1.984,88.78c3.509-10.871,14.122-19.685,23.704-19.685c9.582,0,14.503,8.813,10.994,19.685H1.984z"/>
	<path fill="#FFFFFF" d="M109.063,88.318l19.535-3.109c2.086-5.426-3.889-22.201-19.58-19.145
		C90.434,69.688,87.768,92.05,87.768,92.05L109.063,88.318z"/>
	<path fill="#D1421C" d="M109.751,89.013l18.63-2.965c1.987-5.174-3.709-21.172-18.671-18.256
		c-17.722,3.456-20.263,24.776-20.263,24.776L109.751,89.013z"/>
	<path fill="#7C6A51" d="M84.323,29.339l-2.555-0.134c-0.285-0.174-0.615-0.279-0.975-0.279c-1.03,0-1.866,0.836-1.866,1.868
		c0,1.028,0.836,1.864,1.866,1.864c0.353,0,0.677-0.102,0.96-0.272l2.569-0.141C86.396,30.932,84.323,29.339,84.323,29.339z"/>
	<path fill="#F15A22" d="M83.605,30.463c0-2.038,0.927-3.152,0.927-3.152s4.103-0.743,8.182-2.228l-0.37,10.76l-7.624-2.041
		C84.72,33.802,83.605,32.504,83.605,30.463z"/>
	<path fill="#D1421C" d="M39.945,57.319l-3.241,1.937c5.893,0.597,15.868,1.737,17.914,2.838l2.668-1.612
		c2.204-1.632,4.086-2.559,4.705-2.844l0.166-0.102l-12.924-0.242L39.945,57.319z"/>
	<path fill="#7C6A51" d="M63.873,56.579c0,0.567-0.442,1.025-0.988,1.025H30.003c-0.545,0-0.99-0.458-0.99-1.025v-5.554
		c0-0.569,0.444-1.028,0.99-1.028h32.882c0.546,0,0.988,0.459,0.988,1.028V56.579z"/>
	<g>
		<g>
			<path fill="#8E2611" d="M20.646,85.101H7.595c-0.395,0-0.716-0.317-0.716-0.714s0.321-0.718,0.716-0.718h13.05
				c0.396,0,0.716,0.321,0.716,0.718S21.042,85.101,20.646,85.101z"/>
		</g>
		<g>
			<path fill="#8E2611" d="M22.793,82.955H9.743c-0.396,0-0.716-0.321-0.716-0.718s0.319-0.718,0.716-0.718h13.05
				c0.396,0,0.716,0.321,0.716,0.718S23.189,82.955,22.793,82.955z"/>
		</g>
		<g>
			<path fill="#8E2611" d="M24.942,80.806h-13.05c-0.396,0-0.716-0.321-0.716-0.718c0-0.394,0.32-0.714,0.716-0.714h13.05
				c0.396,0,0.716,0.32,0.716,0.714C25.658,80.484,25.339,80.806,24.942,80.806z"/>
		</g>
	</g>
	<g>
		<path fill="#FFFFFF" d="M95.946,30.525c-0.046,2.824-1.385,5.088-2.985,5.062c-1.604-0.029-2.863-2.336-2.814-5.157
			c0.048-2.824,1.385-5.091,2.986-5.064C94.735,25.395,95.995,27.704,95.946,30.525z"/>
		<path fill="#D1421C" d="M92.989,35.932h-0.035c-0.903-0.014-1.729-0.623-2.322-1.711c-0.561-1.025-0.855-2.375-0.831-3.797
			c0.051-3.027,1.504-5.403,3.305-5.403c0.938,0.017,1.765,0.626,2.357,1.711c0.559,1.028,0.854,2.375,0.83,3.8
			C96.241,33.56,94.791,35.932,92.989,35.932z M93.128,25.712c-1.396,0-2.593,2.163-2.638,4.722
			c-0.021,1.307,0.243,2.532,0.747,3.456c0.469,0.858,1.083,1.341,1.729,1.354l0.023,0.344v-0.344c1.374,0,2.57-2.162,2.612-4.725
			c0.023-1.304-0.242-2.532-0.745-3.457C94.387,26.203,93.772,25.722,93.128,25.712z"/>
	</g>
</g>
</svg>
