<?xml version="1.0" encoding="utf-8"?>
<!-- Generator: Adobe Illustrator 16.0.0, SVG Export Plug-In . SVG Version: 6.00 Build 0)  -->
<!DOCTYPE svg PUBLIC "-//W3C//DTD SVG 1.1//EN" "http://www.w3.org/Graphics/SVG/1.1/DTD/svg11.dtd">
<svg version="1.1" id="Layer_1" xmlns="http://www.w3.org/2000/svg" xmlns:xlink="http://www.w3.org/1999/xlink" x="0px" y="0px"
	 width="130px" height="130px" viewBox="0 0 130 130" enable-background="new 0 0 130 130" xml:space="preserve">
<rect fill="none" width="130" height="130"/>
<g>
	<g>
		<g>
			<path fill-rule="evenodd" clip-rule="evenodd" fill="#CFD1D1" d="M85.715,118.044c0.667,0,0.646-0.766,0.629-1.24
				c-0.006-0.077-0.009-0.121-0.009-0.121l-1.03-0.386l-19.494,0.364l-1.866-0.056l-20.304-0.099c0,0-0.226,1.51,0.587,1.537H85.715
				z"/>
		</g>
		<g>
			<path fill-rule="evenodd" clip-rule="evenodd" fill="#E4E7E7" d="M84.987,117.201c1.384,0.104,1.689-0.568,1.152-1.003
				c-0.54-0.436-3.344-2.619-5.231-4.686c-1.37-1.5-1.742-13.957-1.742-13.957c0-0.431-0.353-0.783-0.785-0.783H51.566
				c-0.433,0-0.783,0.353-0.783,0.783c0,0-0.375,12.457-1.742,13.957c-1.888,2.066-4.691,4.25-5.231,4.686
				c-0.541,0.435,0.281,1.003,1.149,1.003H84.987z"/>
		</g>
		<path fill-rule="evenodd" clip-rule="evenodd" fill="#CFD1D1" d="M78.381,96.772H51.566c-0.433,0-0.783,0.353-0.783,0.783
			c0,0-0.093,2.977-0.347,6.195h29.069c-0.251-3.219-0.34-6.195-0.34-6.195C79.166,97.125,78.813,96.772,78.381,96.772z"/>
	</g>
	<g>
		<g>
			<path fill-rule="evenodd" clip-rule="evenodd" fill="#324D5B" d="M1,13.687c0-0.948,0.777-1.73,1.731-1.73H127.27
				c0.953,0,1.73,0.782,1.73,1.73v84.53c0,0.954-0.777,1.736-1.73,1.736H2.731C1.777,99.953,1,99.171,1,98.217V13.687z"/>
		</g>
	</g>
	<g>
		<g>
			<rect x="4.784" y="16.459" fill="#576E78" width="120.432" height="79.267"/>
		</g>
	</g>
</g>
</svg>
