<?xml version="1.0" encoding="utf-8"?>
<!-- Generator: Adobe Illustrator 16.0.0, SVG Export Plug-In . SVG Version: 6.00 Build 0)  -->
<!DOCTYPE svg PUBLIC "-//W3C//DTD SVG 1.1//EN" "http://www.w3.org/Graphics/SVG/1.1/DTD/svg11.dtd">
<svg version="1.1" id="Layer_1" xmlns="http://www.w3.org/2000/svg" xmlns:xlink="http://www.w3.org/1999/xlink" x="0px" y="0px"
	 width="130px" height="130px" viewBox="0 0 130 130" enable-background="new 0 0 130 130" xml:space="preserve">
<rect fill="none" width="130" height="130"/>
<g>
	<g id="group">
		<path fill="#CFD1D1" d="M85.633,123.829c-0.7,0-22.198,0.739-29.157,0.739c-0.896,0-2.384-0.05-3.691-0.552
			c-0.104-0.044-7.414-2.574-8.673-3.136c-1.524-0.689-1.138-2.861-0.923-4.802c0.017-0.154,2.028-8.34,2.028-8.34l-1.527,0.077
			c0,0-1.058,4.597-1.637,7.447c-0.031,0.154-1.218,6.345,1.259,7.039c2.478,0.7,7.717,2.635,8.682,2.883
			c0.965,0.254,2.13,0.755,4.909,0.755c1.698,0,24.482-1.03,27.512-1.124c2.896-0.089,3.401-0.375,3.401-0.375v-0.629
			C87.815,123.812,87.016,123.829,85.633,123.829z"/>
		<path fill="#E4E7E7" d="M87.308,123.564c-4.17-0.716-14.444-3.252-15.809-3.521c-3.211-0.635-3.037-4.389-3.021-5.408
			c0.021-1.477,0.377-6.818,0.377-6.818H44.312c0,0-1.094,5.071-1.701,7.894c-0.275,1.301-0.887,5.236,0.943,5.947
			c2.015,0.777,7.384,2.542,7.384,2.542s2.778,1.03,4.955,1.113c3.793,0.148,26.346-1.048,29.653-1.119
			c2.276-0.056,2.269-0.254,2.269-0.254S87.826,123.647,87.308,123.564z"/>
		<path fill="#CFD1D1" d="M44.312,107.816c0,0-0.24,1.107-0.554,2.563l24.929,0.082c0.089-1.428,0.168-2.646,0.168-2.646H44.312z"/>
	</g>
	<path fill="#20363F" d="M8.075,107.695H7.857c-2.271-0.077-3.848-1.643-3.9-3.517L2.406,7.383c0,0,0.46-1.974,0.182-2.585
		C1.119,5.619,1,8.364,1,8.392c0.044,6.389,1.819,93.609,1.987,96.04c0.215,3.12,3.39,3.439,5.088,3.385V107.695z"/>
	<path fill="#324D5B" d="M128.245,96.759l-6.921-72.254c-0.193-1.819-1.163-2.812-3.018-3.269L6.443,4.219
		C3.919,3.767,2.455,4.252,1.865,5.966C1.521,6.595,1.667,8.309,1.667,8.309l2.026,84.806h-0.02l0.207,11.102
		c0.052,1.874,1.802,3.528,4.073,3.605l118.781,0.374c1.733-0.165,2.266-1.009,2.266-2.26L128.245,96.759z"/>
	<polygon fill="#576E78" points="123.303,101.268 116.239,25.717 8.069,10.63 8.224,17.537 10.261,99.691 	"/>
</g>
</svg>
