<?xml version="1.0" encoding="utf-8"?>
<!-- Generator: Adobe Illustrator 16.0.0, SVG Export Plug-In . SVG Version: 6.00 Build 0)  -->
<!DOCTYPE svg PUBLIC "-//W3C//DTD SVG 1.1//EN" "http://www.w3.org/Graphics/SVG/1.1/DTD/svg11.dtd">
<svg version="1.1" id="Layer_1" xmlns="http://www.w3.org/2000/svg" xmlns:xlink="http://www.w3.org/1999/xlink" x="0px" y="0px"
	 width="130px" height="130px" viewBox="0 0 130 130" enable-background="new 0 0 130 130" xml:space="preserve">
<rect fill="none" width="130" height="130"/>
<g>
	<g>
		<path fill-rule="evenodd" clip-rule="evenodd" fill="#CFD1D1" d="M85.473,117.901c0.65,0,0.628-0.733,0.611-1.196
			c-0.005-0.077-0.008-0.121-0.008-0.121l-1.001-0.37l-18.896,0.354l-1.811-0.061l-19.688-0.094c0,0-0.218,1.466,0.573,1.488H85.473
			z"/>
	</g>
	<g>
		<path fill-rule="evenodd" clip-rule="evenodd" fill="#E4E7E7" d="M84.77,117.091c1.343,0.1,1.638-0.557,1.116-0.981
			c-0.523-0.419-3.241-2.535-5.071-4.542c-1.328-1.449-1.692-13.527-1.692-13.527c0-0.419-0.336-0.761-0.758-0.761H52.369
			c-0.419,0-0.761,0.342-0.761,0.761c0,0-0.361,12.078-1.687,13.527c-1.83,2.007-4.55,4.123-5.071,4.542
			c-0.524,0.425,0.273,0.981,1.111,0.981H84.77z"/>
	</g>
	<path fill-rule="evenodd" clip-rule="evenodd" fill="#CFD1D1" d="M78.364,97.279H52.369c-0.419,0-0.761,0.342-0.761,0.761
		c0,0-0.088,2.889-0.333,6.009h28.179c-0.242-3.12-0.331-6.009-0.331-6.009C79.122,97.621,78.786,97.279,78.364,97.279z"/>
	<path fill-rule="evenodd" clip-rule="evenodd" fill="#324D5B" d="M129,90.219V15.891c0-2.089-1.698-3.792-3.795-3.792H4.795
		C2.701,12.099,1,13.802,1,15.891v74.328H129z"/>
	<g>
		<rect x="5.553" y="16.591" fill-rule="evenodd" clip-rule="evenodd" fill="#576E78" width="119.07" height="69.339"/>
	</g>
	<path fill-rule="evenodd" clip-rule="evenodd" fill="#E4E7E7" d="M1,89.844v6.708c0,2.095,1.701,3.793,3.795,3.793h120.41
		c2.097,0,3.795-1.698,3.795-3.793v-6.708H1z"/>
</g>
</svg>
