<?xml version="1.0" encoding="utf-8"?>
<!-- Generator: Adobe Illustrator 16.0.0, SVG Export Plug-In . SVG Version: 6.00 Build 0)  -->
<!DOCTYPE svg PUBLIC "-//W3C//DTD SVG 1.1//EN" "http://www.w3.org/Graphics/SVG/1.1/DTD/svg11.dtd">
<svg version="1.1" id="Layer_1" xmlns="http://www.w3.org/2000/svg" xmlns:xlink="http://www.w3.org/1999/xlink" x="0px" y="0px"
	 width="130px" height="130px" viewBox="0 0 130 130" enable-background="new 0 0 130 130" xml:space="preserve">
<rect fill="none" width="130" height="130"/>
<g>
	<g>
		<path fill="#324D5B" d="M104.642,111.606c0,0-23.224-2.2-41.045-2.2c-2.981,0-31.739,0.144-37.984,2.343l-0.711,0.783
			c0,0,16.333,3.715,40.184,3.715c0,0,29.684-0.021,40.19-3.644L104.642,111.606z"/>
		<g>
			<path fill="#324D5B" d="M72.29,110.035l1.405-0.237c0.006-0.005,0.006-0.005,0.006-0.005c-0.777-0.635-1.169-1.296-1.361-1.83
				c-0.171-0.491-0.188-5.271-0.177-8.076H58.035c0,0-0.006,0.033-0.021,0.094c0.011,2.806-0.006,7.475-0.171,7.966
				c-0.193,0.54-0.585,1.207-1.367,1.847c0,0,0,0,0.011,0.005C58.229,110.189,64.573,111.347,72.29,110.035z"/>
		</g>
	</g>
	<g>
		<path fill-rule="evenodd" clip-rule="evenodd" fill="#324D5B" d="M4.792,13.753h120.416c2.094,0,3.792,1.697,3.792,3.792v80.661
			c0,2.095-1.698,3.792-3.792,3.792H4.792c-2.095,0-3.792-1.697-3.792-3.792V17.545C1,15.45,2.698,13.753,4.792,13.753z"/>
	</g>
	<g>
		<path fill-rule="evenodd" clip-rule="evenodd" fill="#576E78" d="M5.382,19.441h119.065v77.171H5.382V19.441z"/>
	</g>
</g>
</svg>
