<?xml version="1.0" encoding="utf-8"?>
<!-- Generator: Adobe Illustrator 16.0.0, SVG Export Plug-In . SVG Version: 6.00 Build 0)  -->
<!DOCTYPE svg PUBLIC "-//W3C//DTD SVG 1.1//EN" "http://www.w3.org/Graphics/SVG/1.1/DTD/svg11.dtd">
<svg version="1.1" id="Layer_1" xmlns="http://www.w3.org/2000/svg" xmlns:xlink="http://www.w3.org/1999/xlink" x="0px" y="0px"
	 width="130px" height="130px" viewBox="0 0 130 130" enable-background="new 0 0 130 130" xml:space="preserve">
<rect fill="none" width="130" height="130"/>
<g>
	<path fill="#A4C553" d="M107.742,58.118c-3.651,0-6.62,2.965-6.62,6.625v45.545H14.253V22.873h72.976
		c3.663,0,6.633-2.969,6.633-6.626c0-3.653-2.97-6.617-6.633-6.617H7.621C3.97,9.629,1,12.594,1,16.247v100.665
		c0,3.655,2.97,6.621,6.621,6.621h100.121c3.663,0,6.626-2.966,6.626-6.621V64.742C114.368,61.083,111.405,58.118,107.742,58.118z"
		/>
	<path fill="#7C6A51" d="M127.703,26.262L109.2,7.76c-1.723-1.723-4.516-1.723-6.243,0c-1.724,1.726-1.724,4.521,0,6.239
		l10.959,10.957c-33.091,0.099-55.238,8.634-70.278,51.35c-0.811,2.299,0.395,4.816,2.693,5.625
		c0.488,0.172,0.987,0.252,1.476,0.252c1.817,0,3.527-1.129,4.163-2.945c13.446-38.207,31.461-45.371,61.97-45.452l-10.982,10.976
		c-1.724,1.727-1.724,4.523,0,6.243c0.864,0.864,1.998,1.295,3.121,1.295c1.135,0,2.252-0.431,3.122-1.295l18.503-18.497
		C129.432,30.776,129.432,27.987,127.703,26.262z"/>
</g>
</svg>
