<?xml version="1.0" encoding="utf-8"?>
<!-- Generator: Adobe Illustrator 16.0.0, SVG Export Plug-In . SVG Version: 6.00 Build 0)  -->
<!DOCTYPE svg PUBLIC "-//W3C//DTD SVG 1.1//EN" "http://www.w3.org/Graphics/SVG/1.1/DTD/svg11.dtd">
<svg version="1.1" id="Layer_1" xmlns="http://www.w3.org/2000/svg" xmlns:xlink="http://www.w3.org/1999/xlink" x="0px" y="0px"
	 width="130px" height="130px" viewBox="0 0 130 130" enable-background="new 0 0 130 130" xml:space="preserve">
<rect fill="none" width="130" height="130"/>
<g>
	<path fill="#A4C553" d="M104.448,39.566H79.876c-2.948,0-5.337,2.387-5.337,5.335c0,2.949,2.389,5.339,5.337,5.339h19.23v68.089
		H29.091V50.241h19.139c2.948,0,5.332-2.39,5.332-5.339c0-2.948-2.384-5.335-5.332-5.335H23.754c-2.948,0-5.338,2.387-5.338,5.335
		v78.766c0,2.948,2.39,5.332,5.338,5.332h80.694c2.944,0,5.337-2.384,5.337-5.332V44.901
		C109.785,41.953,107.393,39.566,104.448,39.566z"/>
	<path fill="#7C6A51" d="M110.569,16.206L96.507,2.032c-1.353-1.365-3.572-1.376-4.957-0.024c-1.37,1.361-1.384,3.575-0.018,4.946
		l8.047,8.111H71.091c-6.759,0-12.261,5.531-12.261,12.333v40.399c0,1.934,1.568,3.497,3.508,3.497c1.935,0,3.499-1.563,3.499-3.497
		V27.398c0-2.947,2.356-5.339,5.254-5.339h28.694l-8.253,8.325c-1.366,1.375-1.353,3.59,0.022,4.949
		c0.684,0.669,1.577,1.009,2.472,1.009c0.894,0,1.797-0.343,2.48-1.038l14.062-14.181C111.922,19.762,111.922,17.568,110.569,16.206
		z"/>
</g>
</svg>
