<?xml version="1.0" encoding="utf-8"?>
<!-- Generator: Adobe Illustrator 16.0.0, SVG Export Plug-In . SVG Version: 6.00 Build 0)  -->
<!DOCTYPE svg PUBLIC "-//W3C//DTD SVG 1.1//EN" "http://www.w3.org/Graphics/SVG/1.1/DTD/svg11.dtd">
<svg version="1.1" id="Layer_1" xmlns="http://www.w3.org/2000/svg" xmlns:xlink="http://www.w3.org/1999/xlink" x="0px" y="0px"
	 width="130px" height="130px" viewBox="0 0 130 130" enable-background="new 0 0 130 130" xml:space="preserve">
<rect fill="none" width="130" height="130"/>
<g>
	<path fill="#DD4414" d="M111.979,111.456v10.207H8.347V18.014H18.55v-7.34H4.675c-2.025,0-3.668,1.643-3.668,3.668v110.985
		c0,2.032,1.644,3.673,3.668,3.673h110.972c2.025,0,3.672-1.641,3.672-3.673v-13.871H111.979z"/>
	<rect x="17.892" y="1" fill="#F15A22" width="111.102" height="111.121"/>
	<path fill="#FFFFFF" d="M92.787,32.353l-27.493-0.041c-2.674,0-4.853,2.163-4.853,4.841v0.016c0,2.68,2.164,4.854,4.835,4.854
		l15.829,0.033L50.899,72.263c-1.892,1.896-1.892,4.977,0,6.866c1.899,1.897,4.968,1.897,6.867,0l30.156-30.163v15.736
		c0,2.688,2.17,4.862,4.859,4.862c2.685,0,4.855-2.175,4.855-4.862V37.217C97.637,34.539,95.466,32.363,92.787,32.353z"/>
</g>
</svg>
