<?xml version="1.0" encoding="utf-8"?>
<!-- Generator: Adobe Illustrator 16.0.0, SVG Export Plug-In . SVG Version: 6.00 Build 0)  -->
<!DOCTYPE svg PUBLIC "-//W3C//DTD SVG 1.1//EN" "http://www.w3.org/Graphics/SVG/1.1/DTD/svg11.dtd">
<svg version="1.1" id="Layer_1" xmlns="http://www.w3.org/2000/svg" xmlns:xlink="http://www.w3.org/1999/xlink" x="0px" y="0px"
	 width="130px" height="130px" viewBox="0 0 130 130" enable-background="new 0 0 130 130" xml:space="preserve">
<rect fill="none" width="130" height="130"/>
<g>
	<path fill="#7C6A51" d="M18.137,7.089c-1.827,0-3.305,1.545-3.305,3.447v28.565c1.095-0.253,2.225-0.408,3.388-0.408
		c1.1,0,2.179,0.127,3.222,0.355V10.536C21.441,8.634,19.958,7.089,18.137,7.089z M111.863,7.089c-1.831,0-3.31,1.551-3.31,3.46
		v43.964c1.095-0.265,2.22-0.438,3.388-0.438c1.11,0,2.179,0.144,3.222,0.384v-43.91C115.163,8.64,113.68,7.089,111.863,7.089z
		 M64.445,7.089c-1.832,0-3.311,1.547-3.311,3.45v18.608c1.09-0.261,2.221-0.435,3.394-0.435c1.115,0,2.194,0.146,3.242,0.385
		V10.539C67.771,8.636,66.281,7.089,64.445,7.089z"/>
	<path fill="#7C6A51" d="M14.832,82.094v37.422c0,1.875,1.479,3.396,3.305,3.396c1.821,0,3.305-1.521,3.305-3.396V82.146
		c-1.042,0.226-2.122,0.352-3.222,0.352C17.057,82.498,15.927,82.346,14.832,82.094z M61.135,72.165v47.296
		c0,1.904,1.479,3.45,3.311,3.45c1.836,0,3.325-1.546,3.325-3.45V72.215c-1.048,0.238-2.127,0.387-3.242,0.387
		C63.355,72.602,62.225,72.426,61.135,72.165z M111.941,97.957c-1.168,0-2.293-0.172-3.388-0.436v21.953
		c0,1.897,1.479,3.437,3.31,3.437c1.816,0,3.3-1.539,3.3-3.437V97.579C114.12,97.814,113.052,97.957,111.941,97.957z"/>
	<path fill="#FDB813" d="M112.087,58.949c-9.334,0-16.903,7.55-16.903,16.863c0,9.314,7.569,16.864,16.903,16.864
		c9.344,0,16.913-7.55,16.913-16.864C129,66.499,121.431,58.949,112.087,58.949z"/>
	<path fill="#FDB813" d="M65.005,33.863c-9.338,0-16.913,7.549-16.913,16.866c0,9.313,7.575,16.864,16.913,16.864
		c9.333,0,16.903-7.551,16.903-16.864C81.908,41.412,74.339,33.863,65.005,33.863z"/>
	<path fill="#FDB813" d="M17.908,43.384C8.569,43.384,1,50.937,1,60.247c0,9.317,7.569,16.871,16.908,16.871
		c9.334,0,16.903-7.554,16.903-16.871C34.811,50.937,27.242,43.384,17.908,43.384z"/>
</g>
</svg>
