<?xml version="1.0" encoding="utf-8"?>
<!-- Generator: Adobe Illustrator 16.0.0, SVG Export Plug-In . SVG Version: 6.00 Build 0)  -->
<!DOCTYPE svg PUBLIC "-//W3C//DTD SVG 1.1//EN" "http://www.w3.org/Graphics/SVG/1.1/DTD/svg11.dtd">
<svg version="1.1" id="Layer_1" xmlns="http://www.w3.org/2000/svg" xmlns:xlink="http://www.w3.org/1999/xlink" x="0px" y="0px"
	 width="130px" height="130px" viewBox="0 0 130 130" enable-background="new 0 0 130 130" xml:space="preserve">
<rect fill="none" width="130" height="130"/>
<path fill="#FDB813" d="M125.373,56.297h-8.751c-2.042,0-4.171-1.591-4.747-3.537l-5.038-12.246
	c-0.977-1.763-0.608-4.392,0.831-5.819l6.181-6.184c1.433-1.434,1.433-3.769,0-5.204l-7.11-7.126c-1.434-1.411-3.771-1.411-5.199,0
	l-6.202,6.207c-1.433,1.424-4.056,1.807-5.843,0.824L77.231,18.17c-1.927-0.57-3.517-2.707-3.517-4.731V4.687
	c0-2.03-1.667-3.687-3.692-3.687H59.951c-2.02,0-3.666,1.656-3.666,3.687v8.752c0,2.024-1.61,4.161-3.543,4.731l-12.257,5.042
	c-1.771,0.982-4.399,0.6-5.833-0.824l-6.191-6.194c-1.434-1.424-3.781-1.424-5.209,0l-7.126,7.113c-1.444,1.436-1.444,3.771,0,5.204
	l6.186,6.184c1.444,1.428,1.818,4.057,0.836,5.819L18.12,52.76c-0.587,1.946-2.727,3.537-4.742,3.537H4.601
	c-2.01,0-3.672,1.663-3.672,3.687v10.049c0,2.019,1.662,3.678,3.672,3.678h8.777c2.016,0,4.155,1.586,4.742,3.531l5.027,12.243
	c0.982,1.771,0.608,4.388-0.825,5.822l-6.196,6.185c-1.444,1.43-1.444,3.777,0,5.204l7.121,7.125c1.433,1.41,3.78,1.41,5.214-0.016
	l6.191-6.191c1.434-1.427,4.062-1.796,5.833-0.817l12.257,5.031c1.933,0.568,3.543,2.706,3.543,4.735v8.75
	c0,2.026,1.646,3.688,3.666,3.688h10.071c2.025,0,3.692-1.661,3.692-3.688v-8.75c0-2.029,1.59-4.167,3.517-4.735l12.263-5.031
	c1.787-0.979,4.41-0.609,5.843,0.817l6.202,6.207c1.428,1.426,3.766,1.426,5.199,0l7.11-7.125c1.433-1.427,1.433-3.774,0-5.204
	l-6.207-6.185c-1.413-1.435-1.781-4.058-0.805-5.822l5.038-12.243c0.576-1.945,2.705-3.531,4.747-3.531h8.751
	c2.036,0,3.698-1.659,3.698-3.678V59.983C129.071,57.96,127.409,56.297,125.373,56.297z M64.995,81.001
	c-8.846,0-16.008-7.163-16.008-15.999c0-8.839,7.162-16.001,16.008-16.001c8.845,0,16.022,7.162,16.022,16.001
	C81.018,73.838,73.84,81.001,64.995,81.001z"/>
</svg>
