<?xml version="1.0" encoding="utf-8"?>
<!-- Generator: Adobe Illustrator 16.0.0, SVG Export Plug-In . SVG Version: 6.00 Build 0)  -->
<!DOCTYPE svg PUBLIC "-//W3C//DTD SVG 1.1//EN" "http://www.w3.org/Graphics/SVG/1.1/DTD/svg11.dtd">
<svg version="1.1" id="Layer_1" xmlns="http://www.w3.org/2000/svg" xmlns:xlink="http://www.w3.org/1999/xlink" x="0px" y="0px"
	 width="130px" height="130px" viewBox="0 0 130 130" enable-background="new 0 0 130 130" xml:space="preserve">
<rect fill="none" width="130" height="130"/>
<g>
	<path fill="#A4C553" d="M127.514,35.95h-3.541c-0.824,0-1.685-0.644-1.913-1.429l-2.033-4.943c-0.396-0.712-0.251-1.773,0.34-2.352
		l2.491-2.495c0.586-0.578,0.586-1.523,0-2.101l-2.871-2.875c-0.577-0.57-1.525-0.57-2.099,0l-2.505,2.505
		c-0.577,0.575-1.636,0.728-2.354,0.334l-4.952-2.036c-0.78-0.231-1.42-1.093-1.42-1.91v-3.534c0-0.82-0.675-1.489-1.495-1.489
		h-4.057c-0.82,0-1.486,0.669-1.486,1.489v3.534c0,0.817-0.652,1.678-1.429,1.91l-4.952,2.036c-0.719,0.394-1.777,0.241-2.351-0.334
		l-2.504-2.5c-0.578-0.574-1.521-0.574-2.1,0l-2.879,2.871c-0.583,0.578-0.583,1.523,0,2.101l2.5,2.495
		c0.586,0.579,0.731,1.639,0.335,2.352l-2.028,4.943c-0.233,0.785-1.103,1.429-1.914,1.429h-3.541c-0.815,0-1.49,0.671-1.49,1.486
		v4.059c0,0.814,0.675,1.485,1.49,1.485h3.541c0.812,0,1.681,0.642,1.914,1.424l2.028,4.942c0.396,0.718,0.251,1.773-0.335,2.354
		l-2.5,2.495c-0.583,0.578-0.583,1.527,0,2.101l2.875,2.876c0.582,0.57,1.525,0.57,2.104-0.006l2.504-2.498
		c0.573-0.577,1.632-0.726,2.351-0.332l4.952,2.032c0.776,0.231,1.429,1.094,1.429,1.911v3.534c0,0.816,0.666,1.488,1.486,1.488
		h4.057c0.82,0,1.495-0.672,1.495-1.488v-3.534c0-0.817,0.64-1.679,1.42-1.911l4.952-2.032c0.719-0.394,1.777-0.245,2.354,0.332
		l2.505,2.504c0.573,0.576,1.521,0.576,2.099,0l2.871-2.876c0.586-0.574,0.586-1.523,0-2.101l-2.505-2.495
		c-0.577-0.581-0.723-1.64-0.326-2.354l2.033-4.942c0.229-0.783,1.089-1.424,1.913-1.424h3.541c0.825,0,1.486-0.671,1.486-1.485
		v-4.059C129,36.622,128.339,35.95,127.514,35.95z M103.137,45.922c-3.571,0-6.469-2.889-6.469-6.46
		c0-3.565,2.897-6.458,6.469-6.458c3.572,0,6.465,2.893,6.465,6.458C109.602,43.033,106.709,45.922,103.137,45.922z"/>
	<path fill="#FDB813" d="M79.818,70.327h-5.543c-1.292,0-2.641-1.009-3.007-2.24L68.08,60.33c-0.617-1.117-0.384-2.779,0.524-3.687
		l3.912-3.916c0.912-0.908,0.912-2.387,0-3.295l-4.498-4.514c-0.913-0.894-2.395-0.894-3.299,0l-3.925,3.931
		c-0.908,0.903-2.57,1.143-3.704,0.522l-7.765-3.194c-1.222-0.361-2.228-1.713-2.228-2.998v-5.544c0-1.283-1.058-2.333-2.337-2.333
		h-6.381c-1.278,0-2.319,1.049-2.319,2.333v5.544c0,1.285-1.023,2.636-2.244,2.998l-7.766,3.194c-1.12,0.621-2.787,0.38-3.691-0.522
		l-3.92-3.922c-0.913-0.903-2.399-0.903-3.303,0l-4.511,4.505c-0.913,0.909-0.913,2.388,0,3.295l3.916,3.916
		c0.913,0.907,1.151,2.57,0.534,3.687l-3.188,7.757c-0.371,1.231-1.725,2.24-2.999,2.24H3.324C2.049,70.327,1,71.38,1,72.66v6.365
		c0,1.278,1.049,2.331,2.324,2.331h5.565c1.274,0,2.628,1.005,2.999,2.235l3.188,7.753c0.617,1.124,0.379,2.781-0.525,3.69
		l-3.924,3.915c-0.913,0.906-0.913,2.395,0,3.299l4.506,4.51c0.908,0.895,2.395,0.895,3.308-0.009l3.92-3.92
		c0.904-0.905,2.571-1.138,3.691-0.521l7.766,3.188c1.221,0.361,2.244,1.715,2.244,3v5.541c0,1.283,1.041,2.337,2.319,2.337h6.381
		c1.279,0,2.337-1.054,2.337-2.337v-5.541c0-1.285,1.006-2.639,2.228-3l7.765-3.188c1.134-0.617,2.796-0.385,3.704,0.521
		l3.925,3.929c0.904,0.902,2.386,0.902,3.299,0l4.498-4.51c0.912-0.904,0.912-2.393,0-3.299l-3.93-3.915
		c-0.891-0.909-1.124-2.571-0.507-3.69l3.188-7.753c0.366-1.23,1.715-2.235,3.007-2.235h5.543c1.288,0,2.342-1.053,2.342-2.331
		V72.66C82.16,71.38,81.106,70.327,79.818,70.327z M41.578,85.974c-5.604,0-10.143-4.538-10.143-10.134
		c0-5.598,4.538-10.134,10.143-10.134c5.601,0,10.146,4.537,10.146,10.134C51.725,81.436,47.179,85.974,41.578,85.974z"/>
</g>
</svg>
