<?xml version="1.0" encoding="utf-8"?>
<!-- Generator: Adobe Illustrator 16.0.0, SVG Export Plug-In . SVG Version: 6.00 Build 0)  -->
<!DOCTYPE svg PUBLIC "-//W3C//DTD SVG 1.1//EN" "http://www.w3.org/Graphics/SVG/1.1/DTD/svg11.dtd">
<svg version="1.1" id="Layer_1" xmlns="http://www.w3.org/2000/svg" xmlns:xlink="http://www.w3.org/1999/xlink" x="0px" y="0px"
	 width="130px" height="130px" viewBox="0 0 130 130" enable-background="new 0 0 130 130" xml:space="preserve">
<rect fill="none" width="130" height="130"/>
<g id="ShareThis_icon_2_">
	<path fill="#25A774" d="M106.083,83.225c-5.777,0-10.996,2.208-15.026,5.736L46.319,66.774c0.152-1.062,0.322-2.118,0.326-3.223
		l44.602-22.436c4.007,3.423,9.146,5.562,14.836,5.562c12.659,0,22.919-10.222,22.919-22.839c0-12.61-10.26-22.839-22.919-22.839
		C93.428,1,83.164,11.229,83.164,23.839c0,0.465,0.111,0.896,0.14,1.354l-43.71,21.88c-4.101-3.937-9.639-6.388-15.771-6.388
		c-12.606,0-22.825,10.222-22.825,22.839s10.219,22.839,22.825,22.839c5.06,0,9.69-1.701,13.476-4.492l45.983,23.103
		c-0.021,0.382-0.118,0.75-0.118,1.139c0,12.639,10.264,22.888,22.919,22.888c12.659,0,22.919-10.249,22.919-22.888
		C129.002,93.475,118.742,83.225,106.083,83.225z"/>
</g>
</svg>
