<?xml version="1.0" encoding="utf-8"?>
<!-- Generator: Adobe Illustrator 16.0.0, SVG Export Plug-In . SVG Version: 6.00 Build 0)  -->
<!DOCTYPE svg PUBLIC "-//W3C//DTD SVG 1.1//EN" "http://www.w3.org/Graphics/SVG/1.1/DTD/svg11.dtd">
<svg version="1.1" id="Layer_1" xmlns="http://www.w3.org/2000/svg" xmlns:xlink="http://www.w3.org/1999/xlink" x="0px" y="0px"
	 width="130px" height="130px" viewBox="0 0 130 130" enable-background="new 0 0 130 130" xml:space="preserve">
<rect fill="none" width="130" height="130"/>
<g>
	<g>
		<path fill="#D1C9B4" d="M66.688,2.69c0,0.934-0.76,1.689-1.689,1.689c-0.935,0-1.69-0.755-1.69-1.689
			c0-0.935,0.756-1.69,1.69-1.69C65.928,1,66.688,1.755,66.688,2.69z"/>
	</g>
	<path fill="#D1C9B4" d="M64.998,15.898c0,0-5.829,0.358-5.829,0.454c0,0.101,5.829,0.458,5.829,0.458s5.833-0.358,5.833-0.458
		C70.831,16.256,64.998,15.898,64.998,15.898z"/>
	<path fill="#D1C9B4" d="M64.998,9.637c0,0-3.751,0.231-3.751,0.292s3.751,0.292,3.751,0.292s3.755-0.231,3.755-0.292
		S64.998,9.637,64.998,9.637z"/>
	<path fill="#D1C9B4" d="M64.998,2.533c-0.293,0-1.38,17.618-1.38,17.618h1.38h1.384C66.382,20.151,65.29,2.533,64.998,2.533z"/>
	<polygon fill="#B7B19F" points="95.732,39.228 65.002,39.228 34.264,39.228 31.778,48.606 32.936,62.605 65.002,53.318 
		97.06,62.605 98.217,48.606 	"/>
	<polygon fill="#D1C9B4" points="84.145,25.299 65.002,25.299 45.852,25.299 42.991,31.281 42.991,32.94 65.002,32.94 87.009,32.94 
		87.009,31.281 	"/>
	<rect x="56.859" y="19.601" fill="#D1C9B4" width="16.277" height="11.815"/>
	<polygon fill="#B7B19F" points="65.002,32.94 44.162,32.94 44.162,35.809 65.002,35.809 85.839,35.809 85.839,32.94 	"/>
	<polygon fill="#D1C9B4" points="93.122,35.809 65.002,35.809 36.874,35.809 35.717,39.367 65.002,39.367 94.278,39.367 	"/>
	<g>
		<polygon fill="#9B9380" points="95.326,44.24 65.002,44.24 34.674,44.24 34.28,45.908 65.002,45.908 95.715,45.908 		"/>
		<polygon fill="#9B9380" points="42.712,43.123 38.699,43.123 40.114,40.485 44.127,40.485 		"/>
		<polygon fill="#9B9380" points="46.799,43.123 47.742,40.485 51.755,40.485 50.812,43.123 		"/>
		<polygon fill="#9B9380" points="54.894,43.123 55.365,40.485 59.378,40.485 58.907,43.123 		"/>
		<rect x="62.991" y="40.485" fill="#9B9380" width="4.014" height="2.638"/>
		<polygon fill="#9B9380" points="71.089,43.123 70.622,40.485 74.63,40.485 75.102,43.123 		"/>
		<polygon fill="#9B9380" points="79.188,43.123 78.245,40.485 82.258,40.485 83.201,43.123 		"/>
		<polygon fill="#9B9380" points="87.284,43.123 91.301,43.123 89.886,40.485 85.873,40.485 		"/>
	</g>
	<g>
		<polygon fill="#CCCCCC" points="48.244,29.189 45.231,29.189 46.293,27.207 49.31,27.207 		"/>
		<polygon fill="#CCCCCC" points="51.318,29.189 52.025,27.207 55.043,27.207 54.331,29.189 		"/>
		<polygon fill="#CCCCCC" points="57.404,29.189 57.759,27.207 60.775,27.207 60.418,29.189 		"/>
		<rect x="63.489" y="27.207" fill="#CCCCCC" width="3.013" height="1.982"/>
		<polygon fill="#CCCCCC" points="69.574,29.189 69.225,27.207 72.237,27.207 72.591,29.189 		"/>
		<polygon fill="#CCCCCC" points="75.66,29.189 74.953,27.207 77.971,27.207 78.682,29.189 		"/>
		<polygon fill="#CCCCCC" points="81.747,29.189 84.769,29.189 83.703,27.207 80.69,27.207 		"/>
	</g>
	<path fill="#F15A22" d="M65.002,51.135c-15.779-0.21-41.786,15.553-41.786,15.553l14.702,58.75h54.164l14.702-58.75
		C106.784,66.688,80.778,50.925,65.002,51.135z"/>
	<path fill="#E55123" d="M22.945,66.705l14.706,58.749h27.08V51.152C48.952,50.942,22.945,66.705,22.945,66.705z"/>
	<path fill="#4BA7C4" d="M99.326,129c-3.318,0-5.052-0.938-6.58-1.769c-1.375-0.746-2.458-1.336-4.864-1.336
		c-2.397,0-3.484,0.59-4.855,1.332c-1.532,0.834-3.266,1.772-6.584,1.772c-3.323,0-5.057-0.938-6.585-1.772
		c-1.375-0.742-2.458-1.332-4.859-1.332s-3.484,0.59-4.86,1.332c-1.528,0.834-3.266,1.772-6.584,1.772
		c-3.322,0-5.052-0.938-6.584-1.769c-1.376-0.746-2.459-1.336-4.855-1.336c-2.406,0-3.489,0.59-4.86,1.332
		C35.722,128.062,33.988,129,30.67,129c-3.323,0-5.057-0.938-6.585-1.772c-1.375-0.742-2.454-1.332-4.859-1.332
		c-0.996,0-1.808-0.812-1.808-1.812c0-0.999,0.812-1.808,1.808-1.808c3.322,0,5.056,0.943,6.589,1.773
		c1.371,0.742,2.454,1.331,4.855,1.331s3.484-0.589,4.855-1.331c1.532-0.83,3.266-1.773,6.589-1.773c3.318,0,5.052,0.943,6.58,1.773
		c1.375,0.742,2.458,1.331,4.859,1.331s3.488-0.589,4.855-1.331c1.532-0.83,3.271-1.773,6.589-1.773s5.052,0.943,6.584,1.773
		c1.376,0.742,2.459,1.331,4.86,1.331s3.484-0.589,4.855-1.331c1.532-0.83,3.266-1.773,6.584-1.773c3.323,0,5.061,0.943,6.589,1.773
		c1.371,0.742,2.458,1.331,4.855,1.331c2.406,0,3.488-0.589,4.864-1.331c1.528-0.83,3.266-1.773,6.584-1.773
		c1,0,1.808,0.809,1.808,1.808c0,1-0.808,1.812-1.808,1.812c-2.401,0-3.488,0.59-4.859,1.336
		C104.383,128.062,102.649,129,99.326,129z"/>
</g>
</svg>
