<?xml version="1.0" encoding="utf-8"?>
<!-- Generator: Adobe Illustrator 16.0.0, SVG Export Plug-In . SVG Version: 6.00 Build 0)  -->
<!DOCTYPE svg PUBLIC "-//W3C//DTD SVG 1.1//EN" "http://www.w3.org/Graphics/SVG/1.1/DTD/svg11.dtd">
<svg version="1.1" id="Layer_1" xmlns="http://www.w3.org/2000/svg" xmlns:xlink="http://www.w3.org/1999/xlink" x="0px" y="0px"
	 width="130px" height="130px" viewBox="0 0 130 130" enable-background="new 0 0 130 130" xml:space="preserve">
<rect fill="none" width="130" height="130"/>
<g>
	<path fill="#A4C553" d="M42.638,76.887l-0.265,0.279C32.064,87.887,25.259,94.972,16.724,94.972H6.713
		C3.558,94.972,1,97.529,1,100.68c0,3.155,2.558,5.718,5.713,5.718h10.01c13.4,0,22.44-9.407,33.886-21.318l0.274-0.279
		c2.181-2.278,2.111-5.895-0.162-8.074C48.453,74.54,44.823,74.608,42.638,76.887z M127.167,32.589l-17.458-16.154
		c-2.308-2.141-5.929-2.004-8.074,0.318c-2.142,2.312-2.004,5.924,0.313,8.065l6.996,6.473h-3.875
		c-9.761,0-21.417,5.973-35.621,18.256c-2.386,2.063-2.655,5.674-0.588,8.055c1.127,1.313,2.72,1.979,4.327,1.979
		c1.327,0,2.65-0.456,3.729-1.392c14.792-12.788,23.479-15.473,28.153-15.473h4.199l-7.526,7.531c-2.229,2.234-2.229,5.845,0,8.08
		c1.112,1.112,2.572,1.671,4.037,1.671c1.46,0,2.926-0.559,4.038-1.671l17.506-17.506c1.103-1.103,1.705-2.597,1.676-4.15
		C128.97,35.122,128.309,33.637,127.167,32.589z"/>
	<path fill="#FDB813" d="M123.012,89.181L105.51,71.674c-2.233-2.229-5.85-2.229-8.084,0c-2.225,2.229-2.225,5.84,0,8.079
		l7.535,7.531h-4.208c-4.988,0-16.659-3.293-38.674-25.317c-2.548-2.548-4.914-5.008-7.158-7.345
		C43.476,42.716,34.44,33.314,21.04,33.314H11.025c-3.155,0-5.713,2.558-5.713,5.708s2.558,5.708,5.713,5.708H21.04
		c8.53,0,15.341,7.09,25.645,17.806c2.298,2.391,4.719,4.915,7.315,7.511c19.28,19.285,34.572,28.658,46.753,28.658h3.87
		l-6.986,6.478c-2.317,2.137-2.455,5.757-0.313,8.065c1.132,1.215,2.655,1.837,4.188,1.837c1.392,0,2.783-0.505,3.881-1.528
		l17.463-16.149c1.137-1.054,1.798-2.528,1.832-4.082C124.717,91.772,124.114,90.273,123.012,89.181z"/>
</g>
</svg>
