<?xml version="1.0" encoding="utf-8"?>
<!-- Generator: Adobe Illustrator 16.0.0, SVG Export Plug-In . SVG Version: 6.00 Build 0)  -->
<!DOCTYPE svg PUBLIC "-//W3C//DTD SVG 1.1//EN" "http://www.w3.org/Graphics/SVG/1.1/DTD/svg11.dtd">
<svg version="1.1" id="Layer_1" xmlns="http://www.w3.org/2000/svg" xmlns:xlink="http://www.w3.org/1999/xlink" x="0px" y="0px"
	 width="130px" height="130px" viewBox="0 0 130 130" enable-background="new 0 0 130 130" xml:space="preserve">
<rect fill="none" width="130" height="130"/>
<g id="Shape_5_copy_2_">
	<path fill="#29AECB" d="M122.913,73.242c0.349-2.604,0.552-5.244,0.552-7.94c0-32.283-26.318-58.464-58.773-58.464
		c-3.227,0-6.393,0.268-9.466,0.772c-5.518-3.6-12.084-5.692-19.156-5.692C16.687,1.918,1,17.618,1,36.991
		c0,7.05,2.073,13.602,5.646,19.101c-0.483,3.001-0.723,6.077-0.723,9.21c0,32.296,26.299,58.471,58.77,58.471
		c3.659,0,7.233-0.355,10.699-0.978c5.384,3.338,11.729,5.287,18.54,5.287c19.373,0,35.069-15.706,35.069-35.079
		C129,85.679,126.755,78.865,122.913,73.242z M68.896,97.647C54.849,98.376,48.27,95.27,42.251,89.62
		c-6.732-6.314-4.029-13.52,1.455-13.881c5.477-0.368,8.768,6.209,11.685,8.033c2.918,1.825,14.034,5.973,19.9-0.734
		c6.393-7.299-4.254-11.079-12.048-12.225C52.108,69.17,38.048,63.141,39.14,51.271c1.096-11.863,10.076-17.941,19.533-18.801
		c12.053-1.097,19.9,1.824,26.102,7.118c7.177,6.121,3.294,12.959-1.276,13.507c-4.559,0.549-9.672-10.063-19.714-10.219
		c-10.343-0.162-17.34,10.768-4.562,13.874C72,59.858,85.694,61.135,90.62,72.818C95.556,84.501,82.953,96.913,68.896,97.647z"/>
</g>
</svg>
