<?xml version="1.0" encoding="utf-8"?>
<!-- Generator: Adobe Illustrator 16.0.0, SVG Export Plug-In . SVG Version: 6.00 Build 0)  -->
<!DOCTYPE svg PUBLIC "-//W3C//DTD SVG 1.1//EN" "http://www.w3.org/Graphics/SVG/1.1/DTD/svg11.dtd">
<svg version="1.1" id="Layer_1" xmlns="http://www.w3.org/2000/svg" xmlns:xlink="http://www.w3.org/1999/xlink" x="0px" y="0px"
	 width="130px" height="130px" viewBox="0 0 130 130" enable-background="new 0 0 130 130" xml:space="preserve">
<rect fill="none" width="130" height="130"/>
<g>
	<g id="Base_7_">
		<path fill="#2B3038" d="M1,45.709c-0.011-0.954,0.829-2.124,2.043-2.863c0.896-0.542,25.256-15.162,26.146-15.659
			c0.882-0.501,5.784-3.405,5.784-3.405c4.971-2.316,9.599-0.072,9.599-0.072l79.796,45.624c0,0,2.177,1.21,3.47,2.59
			c1.212,1.29,1.16,2.724,1.16,2.724v5.654c0,1.792-2.654,3.679-2.654,3.679s-26.395,18.724-27.846,19.745
			c-1.456,1.021-4.653,3.539-9.124,3.539c-4.472,0-8.717-2.992-8.717-2.992S4.177,54.809,2.701,53.676
			c-1.472-1.138-1.429-2.926-1.429-2.926l-0.137-2.047C1.135,48.703,1.016,46.821,1,45.709z"/>
	</g>
	<g id="Highlight_1_">
		<path fill="#363D49" d="M1.953,44.379c0.992-1.335,3.259-2.433,3.772-2.737c1.023-0.605,14.113-8.356,14.113-8.356l-0.021-0.009
			l14.017-8.297c0,0,5.125-4.109,11.974-0.175c3.194,1.837,76.511,43.738,76.511,43.738s3.452,2.069,4.458,2.948
			c2.021,1.77,2.554,3.768,0.305,5.354c-4.131,2.922-11.364,7.957-14.763,10.318c-2.07,1.438-3.443,2.389-3.443,2.389
			c-3.443,2.393-8.852,6.146-13.213,9.171c-6.49,4.391-11.747,1.089-13.864,0.014c-0.061,0.014-75.533-48.227-78.418-50.1
			C0.958,47.081,1.249,45.32,1.953,44.379z"/>
	</g>
	<g id="Surface_xA0_Clipping_Path_1_">
		<path fill="none" d="M1,45.709c0-1.111,2.043-2.863,2.043-2.863s25.256-15.162,26.146-15.659c0.882-0.501,5.784-3.405,5.784-3.405
			c4.971-2.316,9.599-0.072,9.599-0.072s78.886,45.149,79.796,45.624c0.909,0.479,2.225,1.34,3.47,2.59
			c1.25,1.25,1.16,2.724,1.16,2.724v5.654c0,1.792-2.654,3.679-2.654,3.679s-26.395,18.724-27.846,19.745
			c-1.456,1.021-4.653,3.539-9.124,3.539c-4.472,0-8.717-2.992-8.717-2.992S4.177,54.809,2.701,53.676
			c-1.472-1.138-1.429-2.926-1.429-2.926l-0.137-2.047C1.135,48.703,1,46.821,1,45.709z"/>
	</g>
	<g id="Shape_16_3_">
		<path fill="#444C56" d="M122.132,82.48c0.227-0.081,0.408,0.062,0.403,0.313c0,0.251-0.186,0.516-0.412,0.596
			c-0.227,0.076-0.405-0.062-0.403-0.313C121.723,82.821,121.903,82.557,122.132,82.48z M122.269,83.843
			c0.227-0.081,0.408,0.062,0.405,0.313c-0.004,0.251-0.188,0.52-0.416,0.596c-0.227,0.076-0.403-0.062-0.401-0.318
			C121.858,84.183,122.04,83.919,122.269,83.843z M123.29,81.593c0.225-0.076,0.406,0.063,0.403,0.314
			c-0.002,0.25-0.186,0.52-0.412,0.596c-0.227,0.08-0.407-0.062-0.405-0.313S123.066,81.669,123.29,81.593z M121.178,84.658
			c0.227-0.076,0.408,0.062,0.405,0.313c0,0.251-0.188,0.52-0.414,0.596c-0.227,0.08-0.405-0.062-0.403-0.313
			S120.954,84.734,121.178,84.658z M123.427,82.955c0.225-0.076,0.405,0.067,0.403,0.313c-0.002,0.256-0.188,0.521-0.412,0.596
			c-0.229,0.076-0.407-0.062-0.405-0.313S123.201,83.031,123.427,82.955z M118.727,85.133c0.225-0.076,0.408,0.062,0.406,0.318
			c-0.005,0.251-0.188,0.515-0.415,0.591c-0.224,0.081-0.405-0.062-0.405-0.313C118.317,85.478,118.503,85.213,118.727,85.133z
			 M118.863,86.499c0.227-0.08,0.408,0.062,0.403,0.313c-0.002,0.247-0.186,0.516-0.412,0.592c-0.226,0.081-0.407-0.062-0.405-0.313
			S118.638,86.575,118.863,86.499z M120.021,85.545c0.225-0.081,0.408,0.062,0.403,0.313c-0.004,0.251-0.188,0.516-0.414,0.592
			c-0.224,0.08-0.405-0.062-0.401-0.31C119.612,85.886,119.796,85.621,120.021,85.545z M121.043,83.296
			c0.225-0.076,0.408,0.062,0.403,0.313c0,0.251-0.188,0.52-0.412,0.596c-0.229,0.076-0.407-0.062-0.405-0.313
			C120.631,83.637,120.817,83.372,121.043,83.296z M119.885,84.183c0.227-0.08,0.406,0.062,0.403,0.313
			c-0.002,0.251-0.186,0.521-0.414,0.592c-0.224,0.081-0.405-0.062-0.403-0.313C119.476,84.523,119.659,84.259,119.885,84.183z"/>
	</g>
	<g id="Shape_16_2_">
		<path fill="#444C56" d="M102.726,97.664c0.226-0.076,0.405,0.063,0.405,0.313c-0.005,0.256-0.19,0.521-0.414,0.597
			c-0.227,0.076-0.408-0.063-0.406-0.313C102.313,98.01,102.499,97.74,102.726,97.664z M103.814,95.348
			c0.224-0.076,0.407,0.063,0.405,0.318c-0.005,0.251-0.188,0.516-0.415,0.596c-0.226,0.072-0.405-0.067-0.403-0.317
			C103.404,95.693,103.59,95.424,103.814,95.348z M102.589,96.303c0.224-0.076,0.405,0.066,0.405,0.313
			c-0.002,0.251-0.19,0.52-0.414,0.596c-0.227,0.076-0.408-0.062-0.406-0.313C102.179,96.647,102.362,96.379,102.589,96.303z
			 M105.243,95.756c0.227-0.076,0.408,0.067,0.405,0.318c-0.002,0.251-0.188,0.515-0.414,0.596
			c-0.224,0.076-0.405-0.067-0.403-0.318S105.02,95.836,105.243,95.756z M103.95,96.71c0.225-0.076,0.408,0.067,0.406,0.318
			c-0.005,0.251-0.188,0.515-0.415,0.591c-0.224,0.081-0.407-0.062-0.403-0.313C103.541,97.055,103.727,96.786,103.95,96.71z
			 M101.433,98.619c0.224-0.081,0.405,0.062,0.403,0.313s-0.188,0.515-0.412,0.596c-0.229,0.076-0.408-0.062-0.405-0.313
			C101.021,98.959,101.206,98.695,101.433,98.619z M105.106,94.398c0.229-0.081,0.408,0.062,0.405,0.313
			c-0.004,0.251-0.188,0.52-0.414,0.596c-0.224,0.076-0.405-0.062-0.403-0.318C104.696,94.738,104.883,94.475,105.106,94.398z
			 M97.481,101.478c0.226-0.076,0.405,0.062,0.402,0.317c-0.002,0.247-0.188,0.516-0.412,0.592
			c-0.224,0.081-0.407-0.062-0.405-0.313S97.255,101.554,97.481,101.478z M98.706,99.094c0.229-0.076,0.408,0.067,0.406,0.318
			c-0.003,0.251-0.188,0.515-0.415,0.596c-0.227,0.071-0.405-0.067-0.403-0.318C98.297,99.438,98.48,99.17,98.706,99.094z
			 M101.296,97.257c0.225-0.081,0.405,0.062,0.403,0.313s-0.188,0.52-0.412,0.596c-0.229,0.076-0.408-0.062-0.405-0.313
			C100.886,97.602,101.069,97.333,101.296,97.257z M97.347,100.048c0.227-0.08,0.407,0.062,0.401,0.313
			c-0.003,0.251-0.187,0.52-0.413,0.596c-0.224,0.076-0.407-0.062-0.4-0.313C96.935,100.393,97.118,100.124,97.347,100.048z
			 M100.138,99.501c0.227-0.076,0.408,0.067,0.403,0.318s-0.186,0.516-0.414,0.596c-0.225,0.076-0.406-0.066-0.401-0.317
			C99.726,99.847,99.911,99.577,100.138,99.501z M100.001,98.14c0.227-0.076,0.405,0.066,0.405,0.317
			c-0.004,0.251-0.188,0.516-0.416,0.597c-0.225,0.076-0.403-0.067-0.403-0.318C99.591,98.484,99.775,98.22,100.001,98.14z
			 M98.843,100.456c0.225-0.076,0.408,0.062,0.405,0.317c-0.004,0.251-0.188,0.516-0.414,0.592s-0.405-0.062-0.403-0.313
			C98.431,100.801,98.617,100.532,98.843,100.456z"/>
	</g>
	<g id="Charger_1_">
		<path fill="#444C56" d="M108.07,92.382c0,0,6.423-4.673,7.543-5.452c0.983-0.694,1.302,0.385,1.302,0.385
			c0.137,1.6-0.822,2.119-0.822,2.119s-5.746,4.297-7.209,5.363c-1.459,1.062-1.842-0.094-1.842-0.094
			C106.585,93.22,108.07,92.382,108.07,92.382z"/>
	</g>
	<g id="Screen_3_">
		<path fill="#576E78" d="M12.291,50.602l36.018-21.21c0.39-0.229,1.019-0.229,1.411-0.004l66.227,37.993
			c0.39,0.225,0.409,0.614,0.038,0.874L79.83,93.444c-0.369,0.26-0.979,0.272-1.357,0.031L12.277,51.454
			C11.897,51.211,11.903,50.831,12.291,50.602z"/>
	</g>
	<g id="Shape_12_1_">
		<path fill="#444C56" d="M23.147,36.529c0.95-0.511,2.303-0.654,3.159-0.273c0.86,0.381,0.717,1.062-0.213,1.582
			c-0.943,0.529-2.334,0.69-3.214,0.3C22.002,37.744,22.182,37.049,23.147,36.529z"/>
	</g>
	<g>
		<path fill-rule="evenodd" clip-rule="evenodd" fill="#444C56" d="M99.849,83.775c0.038-0.175,0.092-0.346,0.177-0.507
			c0.043-0.094,0.095-0.175,0.152-0.26c0.074-0.103,0.148-0.206,0.233-0.3c0.135-0.148,0.275-0.282,0.435-0.399
			c0.197-0.147,0.398-0.282,0.618-0.394c0.083-0.041,0.164-0.081,0.249-0.117c0.175-0.071,0.35-0.147,0.53-0.206
			c0.185-0.062,0.377-0.111,0.569-0.152c0.204-0.044,0.412-0.08,0.618-0.107c0.135-0.022,0.27-0.031,0.406-0.04
			c0.143-0.009,0.286-0.014,0.432-0.014c0.088-0.004,0.175-0.004,0.263,0c0.107,0.005,0.21,0.019,0.317,0.022
			c0.067,0.005,0.14,0.009,0.209,0.014c0.114,0.018,0.226,0.036,0.338,0.049c0.199,0.027,0.396,0.072,0.594,0.117
			c0.101,0.026,0.204,0.062,0.305,0.089c0.244,0.067,0.481,0.152,0.712,0.261c0.296,0.134,0.578,0.291,0.838,0.483
			c0.099,0.071,0.193,0.147,0.285,0.229c0.083,0.071,0.163,0.152,0.239,0.237c0.081,0.085,0.159,0.175,0.229,0.27
			c0.146,0.201,0.258,0.421,0.336,0.658c0.045,0.147,0.079,0.296,0.088,0.448c0.009,0.116,0.011,0.232-0.007,0.35
			c-0.018,0.156-0.052,0.305-0.105,0.447c-0.105,0.305-0.277,0.564-0.493,0.803c-0.073,0.085-0.165,0.156-0.246,0.237
			c-0.119,0.116-0.255,0.21-0.392,0.3c-0.099,0.067-0.2,0.121-0.303,0.184c-0.161,0.099-0.334,0.175-0.513,0.242
			c-0.157,0.059-0.312,0.116-0.473,0.166c-0.204,0.058-0.408,0.107-0.612,0.152c-0.116,0.026-0.232,0.045-0.35,0.062
			c-0.078,0.014-0.161,0.022-0.239,0.027c-0.065,0.009-0.132,0.009-0.197,0.013c-0.114,0.009-0.232,0.019-0.35,0.027
			c-0.062,0-0.132,0-0.197,0v0.004c-0.109-0.004-0.219-0.013-0.329-0.018c-0.078-0.005-0.159-0.005-0.237-0.014
			c-0.087-0.004-0.179-0.013-0.267-0.026c-0.154-0.019-0.313-0.036-0.471-0.062c-0.271-0.055-0.54-0.121-0.8-0.202
			c-0.237-0.076-0.463-0.17-0.688-0.273c-0.192-0.09-0.376-0.192-0.556-0.309c-0.19-0.121-0.374-0.26-0.544-0.412
			c-0.112-0.104-0.213-0.216-0.31-0.332c-0.147-0.188-0.277-0.386-0.369-0.609c-0.102-0.242-0.157-0.493-0.155-0.757
			C99.822,84.03,99.822,83.905,99.849,83.775z"/>
	</g>
</g>
</svg>
