<?xml version="1.0" encoding="utf-8"?>
<!-- Generator: Adobe Illustrator 16.0.0, SVG Export Plug-In . SVG Version: 6.00 Build 0)  -->
<!DOCTYPE svg PUBLIC "-//W3C//DTD SVG 1.1//EN" "http://www.w3.org/Graphics/SVG/1.1/DTD/svg11.dtd">
<svg version="1.1" id="Layer_1" xmlns="http://www.w3.org/2000/svg" xmlns:xlink="http://www.w3.org/1999/xlink" x="0px" y="0px"
	 width="130px" height="130px" viewBox="0 0 130 130" enable-background="new 0 0 130 130" xml:space="preserve">
<rect fill="none" width="130" height="130"/>
<g id="SoundCloud_icon_1_">
	<path fill="#FF7E30" d="M28.442,48.186c-0.974,0-1.763,0.54-1.8,1.221l-1.314,29.126l1.314,14.201
		c0.037,0.677,0.826,1.211,1.8,1.211c0.966,0,1.755-0.534,1.794-1.216l1.483-14.196l-1.483-29.126
		C30.198,48.726,29.408,48.186,28.442,48.186z M4.069,69.491c-0.649,0-1.177,0.206-1.226,0.476L1,78.999l1.844,8.738
		c0.049,0.274,0.576,0.476,1.226,0.476c0.643,0,1.17-0.201,1.226-0.476l2.094-8.738l-2.094-9.037
		C5.239,69.697,4.712,69.491,4.069,69.491z M16.115,55.826c-0.812,0-1.478,0.437-1.52,0.99l-1.574,21.782l1.574,14.367
		c0.042,0.549,0.708,0.985,1.52,0.985c0.807,0,1.469-0.432,1.523-0.985l1.775-14.367l-1.775-21.782
		C17.583,56.262,16.921,55.826,16.115,55.826z M40.671,48.191c-1.123,0-2.022,0.627-2.049,1.432l-1.082,29.063l1.086,13.848
		c0.022,0.794,0.922,1.427,2.044,1.427c1.116,0,2.016-0.623,2.045-1.427l1.216-13.848l-1.216-29.063
		C42.687,48.818,41.787,48.191,40.671,48.191z M110.455,61.892c-2.256,0-4.408,0.539-6.372,1.333
		c-1.31-14.352-14.809-27.233-29.994-27.233c-3.715,0-7.341,0.706-10.538,1.902c-1.245,0.466-1.576,0.941-1.586,1.873v52.276
		c0.012,0.976,0.794,1.789,1.777,1.883c0.042,0,40.885-0.069,46.713-0.069c9.405,0,18.545-6.061,18.545-16.029
		C129,66.466,119.556,61.892,110.455,61.892z M52.707,43.621c-1.24,0-2.263,0.75-2.282,1.662l-0.863,33.368
		c0,0.02,0.863,13.705,0.863,13.705c0.02,0.907,1.042,1.652,2.282,1.652s2.266-0.735,2.285-1.652l0.961-13.695l-0.961-33.378
		C54.973,44.366,53.947,43.621,52.707,43.621z"/>
</g>
</svg>
