<?xml version="1.0" encoding="utf-8"?>
<!-- Generator: Adobe Illustrator 16.0.0, SVG Export Plug-In . SVG Version: 6.00 Build 0)  -->
<!DOCTYPE svg PUBLIC "-//W3C//DTD SVG 1.1//EN" "http://www.w3.org/Graphics/SVG/1.1/DTD/svg11.dtd">
<svg version="1.1" id="Layer_1" xmlns="http://www.w3.org/2000/svg" xmlns:xlink="http://www.w3.org/1999/xlink" x="0px" y="0px"
	 width="130px" height="130px" viewBox="0 0 130 130" enable-background="new 0 0 130 130" xml:space="preserve">
<rect fill="none" width="130" height="130"/>
<g>
	<path fill="#FDB813" d="M103.807,1c5.011,0,9.107,4.1,9.107,9.108v109.784c0,5.009-4.097,9.108-9.107,9.108H26.193
		c-5.01,0-9.107-4.1-9.107-9.108V10.108C17.086,5.1,21.183,1,26.193,1H103.807z"/>
	<path fill="#FFF6E4" d="M99.694,83.854c0,19.164-15.535,34.699-34.696,34.699c-19.162,0-34.694-15.535-34.694-34.699
		c0-19.158,15.532-34.693,34.694-34.693C84.159,49.16,99.694,64.695,99.694,83.854z"/>
	<path fill="#7C6A51" d="M92.696,83.854c0,15.303-12.401,27.701-27.698,27.701C49.7,111.555,37.3,99.156,37.3,83.854
		c0-15.297,12.4-27.695,27.698-27.695C80.295,56.158,92.696,68.557,92.696,83.854z"/>
	<path fill="#FFF6E4" d="M78.585,26.006c0,7.5-6.08,13.59-13.587,13.59c-7.503,0-13.588-6.09-13.588-13.59
		c0-7.504,6.085-13.59,13.588-13.59C72.505,12.416,78.585,18.501,78.585,26.006z"/>
	<circle fill="#7C6A51" cx="64.999" cy="26.006" r="8.985"/>
	<path fill="#514435" d="M77.483,83.854c0,6.899-5.589,12.489-12.485,12.489c-6.895,0-12.486-5.59-12.486-12.489
		c0-6.888,5.592-12.482,12.486-12.482C71.895,71.371,77.483,76.966,77.483,83.854z"/>
</g>
</svg>
