<?xml version="1.0" encoding="utf-8"?>
<!-- Generator: Adobe Illustrator 16.0.0, SVG Export Plug-In . SVG Version: 6.00 Build 0)  -->
<!DOCTYPE svg PUBLIC "-//W3C//DTD SVG 1.1//EN" "http://www.w3.org/Graphics/SVG/1.1/DTD/svg11.dtd">
<svg version="1.1" id="Layer_1" xmlns="http://www.w3.org/2000/svg" xmlns:xlink="http://www.w3.org/1999/xlink" x="0px" y="0px"
	 width="130px" height="130px" viewBox="0 0 130 130" enable-background="new 0 0 130 130" xml:space="preserve">
<rect fill="none" width="130" height="130"/>
<g>
	<path fill="#A4CB45" d="M42.176,92.074c-8.048,0-14.566,5.267-14.566,11.77c0,6.519,6.519,11.779,14.566,11.779
		c8.049,0,14.572-5.261,14.572-11.779C56.748,97.341,50.225,92.074,42.176,92.074z M16.708,115.74c-4.533,0-8.204,2.966-8.204,6.629
		c0,3.668,3.671,6.63,8.204,6.63c4.532,0,8.205-2.962,8.205-6.63C24.913,118.706,21.24,115.74,16.708,115.74z M65.702,1.001
		c-30.806,0-55.785,20.21-55.785,45.098c0,24.894,24.979,45.124,55.785,45.124c30.817,0,55.794-20.23,55.794-45.124
		C121.496,21.211,96.52,1.001,65.702,1.001z"/>
</g>
</svg>
