<?xml version="1.0" encoding="utf-8"?>
<!-- Generator: Adobe Illustrator 16.0.0, SVG Export Plug-In . SVG Version: 6.00 Build 0)  -->
<!DOCTYPE svg PUBLIC "-//W3C//DTD SVG 1.1//EN" "http://www.w3.org/Graphics/SVG/1.1/DTD/svg11.dtd">
<svg version="1.1" id="Layer_1" xmlns="http://www.w3.org/2000/svg" xmlns:xlink="http://www.w3.org/1999/xlink" x="0px" y="0px"
	 width="130px" height="130px" viewBox="0 0 130 130" enable-background="new 0 0 130 130" xml:space="preserve">
<rect fill="none" width="130" height="130"/>
<g>
	<path fill="#F15A22" d="M121.839,4.146L7.956,4.158C4.092,4.272,1,7.415,1,11.29v76.889c0,3.87,3.092,7.022,6.956,7.139h35.23
		l21.812,30.536L86.81,95.317h35.029c3.947,0,7.161-3.197,7.161-7.139V11.29C129,7.35,125.786,4.146,121.839,4.146z"/>
	<g>
		<path fill="#FFFFFF" d="M34.155,43.834c-5.184,0-9.388,4.206-9.388,9.393c0,5.182,4.204,9.381,9.388,9.381
			s9.387-4.199,9.387-9.381C43.542,48.04,39.339,43.834,34.155,43.834z"/>
		<path fill="#FFFFFF" d="M64.998,43.834c-5.184,0-9.387,4.206-9.387,9.393c0,5.182,4.203,9.381,9.387,9.381
			c5.185,0,9.387-4.199,9.387-9.381C74.385,48.04,70.183,43.834,64.998,43.834z"/>
		<path fill="#FFFFFF" d="M95.844,43.834c-5.187,0-9.39,4.206-9.39,9.393c0,5.182,4.203,9.381,9.39,9.381
			c5.185,0,9.388-4.199,9.388-9.381C105.231,48.04,101.028,43.834,95.844,43.834z"/>
	</g>
</g>
</svg>
