<?xml version="1.0" encoding="utf-8"?>
<!-- Generator: Adobe Illustrator 16.0.0, SVG Export Plug-In . SVG Version: 6.00 Build 0)  -->
<!DOCTYPE svg PUBLIC "-//W3C//DTD SVG 1.1//EN" "http://www.w3.org/Graphics/SVG/1.1/DTD/svg11.dtd">
<svg version="1.1" id="Layer_1" xmlns="http://www.w3.org/2000/svg" xmlns:xlink="http://www.w3.org/1999/xlink" x="0px" y="0px"
	 width="130px" height="130px" viewBox="0 0 130 130" enable-background="new 0 0 130 130" xml:space="preserve">
<rect fill="none" width="130" height="130"/>
<g>
	<g>
		<path fill="#A4CB45" d="M42.176,92.074c-8.048,0-14.566,5.267-14.566,11.77c0,6.519,6.519,11.779,14.566,11.779
			c8.051,0,14.572-5.261,14.572-11.779C56.748,97.341,50.227,92.074,42.176,92.074z M16.707,115.74c-4.53,0-8.203,2.966-8.203,6.629
			c0,3.668,3.673,6.63,8.203,6.63c4.536,0,8.206-2.962,8.206-6.63C24.913,118.706,21.243,115.74,16.707,115.74z M65.704,1.001
			c-30.808,0-55.787,20.21-55.787,45.098c0,24.894,24.979,45.124,55.787,45.124c30.815,0,55.792-20.23,55.792-45.124
			C121.496,21.211,96.52,1.001,65.704,1.001z"/>
	</g>
	<g>
		<path fill="#FFFFFF" d="M40.429,39.307c-4.559,0-8.257,3.698-8.257,8.253c0,4.561,3.698,8.259,8.257,8.259
			c4.561,0,8.256-3.698,8.256-8.259C48.685,43.005,44.989,39.307,40.429,39.307z"/>
		<path fill="#FFFFFF" d="M67.559,39.307c-4.561,0-8.256,3.698-8.256,8.253c0,4.561,3.695,8.259,8.256,8.259
			s8.256-3.698,8.256-8.259C75.814,43.005,72.119,39.307,67.559,39.307z"/>
		<path fill="#FFFFFF" d="M94.688,39.307c-4.561,0-8.256,3.698-8.256,8.253c0,4.561,3.695,8.259,8.256,8.259
			s8.259-3.698,8.259-8.259C102.947,43.005,99.249,39.307,94.688,39.307z"/>
	</g>
</g>
</svg>
