<?xml version="1.0" encoding="utf-8"?>
<!-- Generator: Adobe Illustrator 16.0.0, SVG Export Plug-In . SVG Version: 6.00 Build 0)  -->
<!DOCTYPE svg PUBLIC "-//W3C//DTD SVG 1.1//EN" "http://www.w3.org/Graphics/SVG/1.1/DTD/svg11.dtd">
<svg version="1.1" id="Layer_1" xmlns="http://www.w3.org/2000/svg" xmlns:xlink="http://www.w3.org/1999/xlink" x="0px" y="0px"
	 width="130px" height="130px" viewBox="0 0 130 130" enable-background="new 0 0 130 130" xml:space="preserve">
<rect fill="none" width="130" height="130"/>
<g>
	<path fill="#A4CB45" d="M75.053,89.229c-8.668,0-15.69,5.67-15.69,12.675c0,7.019,7.022,12.684,15.69,12.684
		c8.67,0,15.697-5.665,15.697-12.684C90.75,94.898,83.723,89.229,75.053,89.229z"/>
	<path fill="#A4CB45" d="M47.622,114.719c-4.881,0-8.836,3.194-8.836,7.135c0,3.955,3.955,7.146,8.836,7.146
		c4.883,0,8.838-3.19,8.838-7.146C56.459,117.913,52.504,114.719,47.622,114.719z"/>
	<g>
		<path fill="#A4CB45" d="M68.129,81.416l47.1-0.029c3.488,0,6.328-2.82,6.328-6.298V7.304c0-3.478-2.84-6.303-6.328-6.303
			L14.591,1.011C11.177,1.112,8.444,3.89,8.444,7.299v67.79c0,3.414,2.733,6.195,6.147,6.293l15.173,0.151L68.129,81.416z"/>
	</g>
</g>
</svg>
