<?xml version="1.0" encoding="utf-8"?>
<!-- Generator: Adobe Illustrator 16.0.0, SVG Export Plug-In . SVG Version: 6.00 Build 0)  -->
<!DOCTYPE svg PUBLIC "-//W3C//DTD SVG 1.1//EN" "http://www.w3.org/Graphics/SVG/1.1/DTD/svg11.dtd">
<svg version="1.1" id="Layer_1" xmlns="http://www.w3.org/2000/svg" xmlns:xlink="http://www.w3.org/1999/xlink" x="0px" y="0px"
	 width="130px" height="130px" viewBox="0 0 130 130" enable-background="new 0 0 130 130" xml:space="preserve">
<rect fill="none" width="130" height="130"/>
<g>
	<path fill="#A6C55B" d="M113.76,87.844C123.273,82.249,129,73.74,129,64.204c0-16.841-18.511-30.492-41.891-30.492
		c-1.485,0-2.924,0.058-4.336,0.165c6.825,6.595,10.587,15.261,10.587,24.783c0,14.406-8.542,26.772-23.435,32.935
		c4.966,1.852,10.708,2.914,17.184,2.914c2.855,0,5.637-0.82,8.323-1.208c10.883,13.754,28.052,11.052,28.052,11.052
		C111.357,98.614,111.604,89.109,113.76,87.844z"/>
	<path fill="#FDB813" d="M47.127,25.433C21.381,25.433,1,40.468,1,59.012c0,10.507,6.302,19.879,16.785,26.037
		c2.372,1.398,2.645,11.863-10.706,18.183c0,0,18.9,2.979,30.885-12.171c2.964,0.422,6.025,1.335,9.162,1.335
		c25.751,0,41.443-14.836,41.443-33.384C88.57,40.468,72.878,25.433,47.127,25.433z"/>
</g>
</svg>
