<?xml version="1.0" encoding="utf-8"?>
<!-- Generator: Adobe Illustrator 16.0.0, SVG Export Plug-In . SVG Version: 6.00 Build 0)  -->
<!DOCTYPE svg PUBLIC "-//W3C//DTD SVG 1.1//EN" "http://www.w3.org/Graphics/SVG/1.1/DTD/svg11.dtd">
<svg version="1.1" id="Layer_1" xmlns="http://www.w3.org/2000/svg" xmlns:xlink="http://www.w3.org/1999/xlink" x="0px" y="0px"
	 width="130px" height="130px" viewBox="0 0 130 130" enable-background="new 0 0 130 130" xml:space="preserve">
<rect fill="none" width="130" height="130"/>
<g>
	<path fill="#4BA7C4" d="M68.425,7.966C30.79,7.966,1,29.941,1,57.052c0,15.355,9.211,29.056,24.533,38.062
		c3.471,2.038,3.865,17.335-15.647,26.574c0,0,27.627,4.352,45.144-17.789c4.331,0.617,8.81,1.945,13.396,1.945
		c37.635,0,60.575-21.682,60.575-48.792S106.06,7.966,68.425,7.966z"/>
	<g>
		<path fill="#FFFFFF" d="M36.314,48.075c-4.938,0-8.944,4.008-8.944,8.947c0,4.938,4.006,8.947,8.944,8.947
			c4.941,0,8.947-4.008,8.947-8.947C45.262,52.083,41.256,48.075,36.314,48.075z"/>
		<path fill="#FFFFFF" d="M65.71,48.075c-4.94,0-8.946,4.008-8.946,8.947c0,4.938,4.006,8.947,8.946,8.947
			c4.939,0,8.945-4.008,8.945-8.947C74.655,52.083,70.649,48.075,65.71,48.075z"/>
		<path fill="#FFFFFF" d="M95.104,48.075c-4.941,0-8.946,4.008-8.946,8.947c0,4.938,4.005,8.947,8.946,8.947
			s8.947-4.008,8.947-8.947C104.051,52.083,100.045,48.075,95.104,48.075z"/>
	</g>
</g>
</svg>
