<?xml version="1.0" encoding="utf-8"?>
<!-- Generator: Adobe Illustrator 16.0.0, SVG Export Plug-In . SVG Version: 6.00 Build 0)  -->
<!DOCTYPE svg PUBLIC "-//W3C//DTD SVG 1.1//EN" "http://www.w3.org/Graphics/SVG/1.1/DTD/svg11.dtd">
<svg version="1.1" id="Layer_1" xmlns="http://www.w3.org/2000/svg" xmlns:xlink="http://www.w3.org/1999/xlink" x="0px" y="0px"
	 width="130px" height="130px" viewBox="0 0 130 130" enable-background="new 0 0 130 130" xml:space="preserve">
<rect fill="none" width="130" height="130"/>
<g>
	<path fill="#F15A22" d="M121.093,1.001L8.7,1.012C4.893,1.126,1.841,4.221,1.841,8.034v75.707c0,3.808,3.052,6.914,6.859,7.028
		h16.684v38.229l43.111-38.197l52.598-0.032c3.896,0,7.066-3.145,7.066-7.028V8.034C128.159,4.156,124.988,1.001,121.093,1.001z"/>
	<g>
		<circle fill="#FFFFFF" cx="35.426" cy="49.432" r="9.264"/>
		<path fill="#FFFFFF" d="M65.862,40.168c-5.113,0-9.265,4.145-9.265,9.264s4.151,9.265,9.265,9.265
			c5.119,0,9.264-4.146,9.264-9.265S70.981,40.168,65.862,40.168z"/>
		<path fill="#FFFFFF" d="M96.304,40.168c-5.119,0-9.264,4.145-9.264,9.264s4.145,9.265,9.264,9.265
			c5.113,0,9.264-4.146,9.264-9.265S101.417,40.168,96.304,40.168z"/>
	</g>
</g>
</svg>
