<?xml version="1.0" encoding="utf-8"?>
<!-- Generator: Adobe Illustrator 16.0.0, SVG Export Plug-In . SVG Version: 6.00 Build 0)  -->
<!DOCTYPE svg PUBLIC "-//W3C//DTD SVG 1.1//EN" "http://www.w3.org/Graphics/SVG/1.1/DTD/svg11.dtd">
<svg version="1.1" id="Layer_1" xmlns="http://www.w3.org/2000/svg" xmlns:xlink="http://www.w3.org/1999/xlink" x="0px" y="0px"
	 width="130px" height="130px" viewBox="0 0 130 130" enable-background="new 0 0 130 130" xml:space="preserve">
<rect fill="none" width="130" height="130"/>
<path fill="#CB5A7C" d="M115.484,38.055c8.968-18.168-34.645-31.801-44.516-13.229C64.932,9.248,25.511,8.714,29.099,24.7
	C16.009,14.623-5.285,31.426,5.396,49.186C-5.44,59.556,4.862,85.174,24.184,77.004c5.855,19.403,40.595,22.197,49.259,15.197
	c4.851,6.661-7.973,20.335-15.189,24.856c11.116,0.604,26.835-14.486,32.663-24.388c12.663-0.223,24.075-5.728,22.27-18.386
	C133.188,74.822,134.507,36.504,115.484,38.055z"/>
</svg>
