<?xml version="1.0" encoding="utf-8"?>
<!-- Generator: Adobe Illustrator 16.0.0, SVG Export Plug-In . SVG Version: 6.00 Build 0)  -->
<!DOCTYPE svg PUBLIC "-//W3C//DTD SVG 1.1//EN" "http://www.w3.org/Graphics/SVG/1.1/DTD/svg11.dtd">
<svg version="1.1" id="Layer_1" xmlns="http://www.w3.org/2000/svg" xmlns:xlink="http://www.w3.org/1999/xlink" x="0px" y="0px"
	 width="130px" height="130px" viewBox="0 0 130 130" enable-background="new 0 0 130 130" xml:space="preserve">
<rect fill="none" width="130" height="130"/>
<g>
	<g>
		<path fill="#4BA7C4" d="M127.54,56.037c2.561-2.7,1.664-5.448-1.988-6.16l-31.805-6.065c-3.642-0.665-8.053-3.889-9.852-7.109
			L65.033,2.676l-18.91,34.026c-1.798,3.22-6.21,6.445-9.865,7.109L4.414,49.877c-3.605,0.712-4.499,3.459-1.988,6.16l22.13,23.461
			c2.562,2.698,4.222,7.917,3.794,11.563l-4.026,31.853c-0.48,3.645,1.891,5.406,5.256,3.834l29.342-13.647
			c3.367-1.562,8.808-1.562,12.172,0l29.345,13.647c3.364,1.572,5.73-0.189,5.258-3.834l-4.031-31.853
			c-0.467-3.646,1.231-8.865,3.797-11.563L127.54,56.037z"/>
	</g>
</g>
</svg>
