<?xml version="1.0" encoding="utf-8"?>
<!-- Generator: Adobe Illustrator 16.0.0, SVG Export Plug-In . SVG Version: 6.00 Build 0)  -->
<!DOCTYPE svg PUBLIC "-//W3C//DTD SVG 1.1//EN" "http://www.w3.org/Graphics/SVG/1.1/DTD/svg11.dtd">
<svg version="1.1" id="Layer_1" xmlns="http://www.w3.org/2000/svg" xmlns:xlink="http://www.w3.org/1999/xlink" x="0px" y="0px"
	 width="130px" height="130px" viewBox="0 0 130 130" enable-background="new 0 0 130 130" xml:space="preserve">
<rect fill="none" width="130" height="130"/>
<g>
	<g>
		<path fill="#FDB813" d="M27.876,8.919l2.146-2.143c0.828-0.825,0.828-2.159,0.008-2.982L27.854,1.62
			c-0.826-0.827-2.165-0.827-2.984,0l-9.177,9.172c-0.828,0.825-0.828,2.164,0,2.988l2.17,2.171c0.823,0.824,2.17,0.824,2.99,0
			l2.153-2.153l0.331,0.5l7.437,7.392l6.609-3.482l-9.019-8.968L27.876,8.919z"/>
		<path fill="#FDB813" d="M114.316,10.792l-9.174-9.172c-0.828-0.827-2.158-0.827-2.986,0L99.98,3.794
			c-0.825,0.824-0.825,2.157,0,2.982l2.146,2.143l-0.494,0.33l-8.953,8.979l6.601,3.488l7.407-7.425l0.325-0.489l2.146,2.149
			c0.828,0.824,2.167,0.824,2.995,0l2.164-2.171C115.145,12.956,115.145,11.617,114.316,10.792z"/>
	</g>
	<path fill="#7C6A51" d="M65.009,1.814c-2.631,0-4.762,2.128-4.762,4.756v5.794l9.516-0.041V6.571
		C69.763,3.943,67.635,1.814,65.009,1.814z"/>
	<path fill="#7C6A51" d="M64.998,8.814C31.859,8.814,4.9,35.771,4.9,68.907C4.9,102.04,31.859,129,64.998,129
		c33.136,0,60.102-26.96,60.102-60.093C125.1,35.771,98.134,8.814,64.998,8.814z"/>
	<path fill="#FFF6E4" d="M64.998,16.023c-29.163,0-52.885,23.723-52.885,52.882c0,29.157,23.722,52.881,52.885,52.881
		c29.16,0,52.888-23.724,52.888-52.881C117.886,39.747,94.158,16.023,64.998,16.023z"/>
	<g>
		<path fill="#F15A22" d="M65.012,29.522c-0.839,0-1.513,0.679-1.513,1.516v34.824c0,0.835,0.674,1.513,1.513,1.513
			c0.837,0,1.516-0.678,1.516-1.513V31.038C66.527,30.202,65.849,29.522,65.012,29.522z"/>
		<path fill="#F15A22" d="M65.007,60.198c-4.373,0-7.932,3.559-7.932,7.932c0,4.376,3.559,7.933,7.932,7.933
			c4.372,0,7.931-3.557,7.931-7.933C72.938,63.757,69.379,60.198,65.007,60.198z"/>
	</g>
</g>
</svg>
