<?xml version="1.0" encoding="utf-8"?>
<!-- Generator: Adobe Illustrator 16.0.0, SVG Export Plug-In . SVG Version: 6.00 Build 0)  -->
<!DOCTYPE svg PUBLIC "-//W3C//DTD SVG 1.1//EN" "http://www.w3.org/Graphics/SVG/1.1/DTD/svg11.dtd">
<svg version="1.1" id="Layer_1" xmlns="http://www.w3.org/2000/svg" xmlns:xlink="http://www.w3.org/1999/xlink" x="0px" y="0px"
	 width="130px" height="130px" viewBox="0 0 130 130" enable-background="new 0 0 130 130" xml:space="preserve">
<rect fill="none" width="130" height="130"/>
<g>
	<g id="Shape_6">
		<path fill="#FFF6E4" d="M107.665,30.069H28.53c-2.834,0-10.618,0.121-13.002-0.168c-0.812-0.095-2.963-0.346-3.254-1.291v80.328
			c0.235,1.559,6.758,1.459,7.778,1.459h86.199c0.993,0,8.956,0.255,9.22-1.459V28.61C114.96,30.221,108.917,30.069,107.665,30.069z
			"/>
	</g>
	<g id="Shape_11">
		<path fill="#CFC8B1" d="M46.38,43.401H18.222c-0.758,0-1.377,0.647-1.377,1.438v64.519h30.914V44.839
			C47.759,44.049,47.139,43.401,46.38,43.401z"/>
	</g>
	<g id="Shape_11_copy">
		<path fill="#4BA7C4" d="M44.393,48.423H20.213c-0.653,0-1.184,0.597-1.184,1.326v59.608h26.542V49.749
			C45.571,49.02,45.04,48.423,44.393,48.423z"/>
	</g>
	<g id="Shape_8">
		<path fill="#CFC8B1" d="M105.395,59.379H73.699c-0.432,0-0.792,0.358-0.792,0.795v43.271c0,0.436,0.36,0.794,0.792,0.794h31.695
			c0.439,0,0.793-0.358,0.793-0.794V60.174C106.188,59.737,105.834,59.379,105.395,59.379z"/>
	</g>
	<g id="Shape_8_copy_2">
		<path fill="#4BA7C4" d="M103.549,61.219H75.548c-0.389,0-0.703,0.315-0.703,0.7v39.782c0,0.389,0.314,0.703,0.703,0.703h28.001
			c0.384,0,0.701-0.314,0.701-0.703V61.919C104.25,61.534,103.933,61.219,103.549,61.219z"/>
	</g>
	<g id="Shape_3">
		<path fill="#DB4314" d="M3.049,47.435v0.496c0,3.602,2.935,6.538,6.534,6.538h0.334c3.602,0,6.539-2.937,6.539-6.538v-0.496H3.049
			z"/>
	</g>
	<g id="Shape_3_copy">
		<path fill="#DB4314" d="M29.858,47.188v0.492c0,3.602,2.935,6.538,6.534,6.538h0.339c3.597,0,6.534-2.937,6.534-6.538v-0.492
			H29.858z"/>
	</g>
	<g id="Shape_3_copy_2">
		<path fill="#DB4314" d="M56.668,47.435v0.496c0,3.602,2.934,6.538,6.534,6.538h0.336c3.6,0,6.536-2.937,6.536-6.538v-0.496H56.668
			z"/>
	</g>
	<g id="Shape_3_copy_3">
		<path fill="#DB4314" d="M83.479,47.435v0.496c0,3.602,2.935,6.538,6.533,6.538h0.337c3.601,0,6.535-2.937,6.535-6.538v-0.496
			H83.479z"/>
	</g>
	<g id="Shape_3_copy_4">
		<path fill="#DB4314" d="M110.288,47.188v0.492c0,3.602,2.937,6.538,6.533,6.538h0.337c3.6,0,6.536-2.937,6.536-6.538v-0.492
			H110.288z"/>
	</g>
	<g id="Shape_3_copy_5">
		<path fill="#CFC8B1" d="M96.758,47.188v0.492c0,3.602,2.937,6.538,6.534,6.538h0.337c3.599,0,6.533-2.937,6.533-6.538v-0.492
			H96.758z"/>
	</g>
	<g id="Shape_3_copy_6">
		<path fill="#CFC8B1" d="M69.949,47.435v0.496c0,3.602,2.932,6.538,6.533,6.538h0.335c3.6,0,6.536-2.937,6.536-6.538v-0.496H69.949
			z"/>
	</g>
	<g id="Shape_3_copy_7">
		<path fill="#CFC8B1" d="M43.14,47.188v0.492c0,3.602,2.932,6.538,6.534,6.538h0.337c3.598,0,6.534-2.937,6.534-6.538v-0.492H43.14
			z"/>
	</g>
	<g id="Shape_3_copy_8">
		<path fill="#CFC8B1" d="M16.579,47.188v0.492c0,3.602,2.934,6.538,6.534,6.538h0.337c3.599,0,6.534-2.937,6.534-6.538v-0.492
			H16.579z"/>
	</g>
	<g id="Shape_5">
		<path fill="#EEE8D5" d="M107.518,41.544l-1.688-3.584H93.696l1.204,3.584c0.635,1.879,1.294,3.831,1.977,5.864h13.404
			C109.32,45.375,108.401,43.423,107.518,41.544z M44.453,41.544c-0.38,1.879-0.773,3.831-1.188,5.864h13.404
			c0.139-2.033,0.268-3.985,0.398-5.864l0.241-3.584h-12.13L44.453,41.544z M19.229,41.544c-0.885,1.879-1.807,3.831-2.768,5.864
			h13.402c0.687-2.033,1.346-3.985,1.979-5.864l1.207-3.584H20.917L19.229,41.544z M81.567,37.96h-12.13l0.242,3.584
			c0.124,1.879,0.255,3.831,0.395,5.864h13.4c-0.41-2.033-0.804-3.985-1.184-5.864L81.567,37.96z"/>
	</g>
	<g id="Shape_4">
		<path fill="#F15A22" d="M31.821,41.608c-0.631,1.879-1.289,3.831-1.976,5.865h13.403c0.412-2.034,0.808-3.986,1.187-5.865
			l0.726-3.584H33.028L31.821,41.608z M9.771,37.117v-0.726H9.767c-1.01,1.676-2.066,3.412-3.161,5.217
			c-1.136,1.879-2.321,3.831-3.552,5.865h13.39c0.959-2.034,1.88-3.986,2.766-5.865l1.691-3.584h-3.049
			C16.792,38.024,10.013,38.085,9.771,37.117z M69.418,38.024H57.287l-0.238,3.584c-0.129,1.879-0.263,3.831-0.397,5.865h13.4
			c-0.137-2.034-0.268-3.986-0.394-5.865L69.418,38.024z M120.134,41.608c-1.093-1.805-2.146-3.541-3.161-5.217v0.726
			c-0.276,1.067-8.546,0.907-9.578,0.907h-1.585l1.688,3.584c0.885,1.879,1.805,3.826,2.764,5.865h13.429
			C122.455,45.435,121.27,43.487,120.134,41.608z M93.679,38.024H81.551l0.721,3.584c0.383,1.879,0.775,3.831,1.186,5.865h13.402
			c-0.685-2.039-1.341-3.986-1.976-5.865L93.679,38.024z"/>
	</g>
	<g id="Shape_1">
		<path fill="#E59413" d="M109.77,24.638c-0.401,1.265,1.125,1.485,1.49,1.507c-0.055,0-0.119-0.005-0.258-0.005H24.929
			c-3.084,0-1.825,0.13-4.418-0.181c-0.881-0.104-3.224,0.626-3.541-0.402l-9.725,5.459v5.648c0.258,1.693,7.354,1.585,8.461,1.585
			h93.756c1.084,0,9.745,0.28,10.032-1.585v-5.722L109.77,24.638z"/>
	</g>
	<g id="Shape_2">
		<path fill="#FAAB18" d="M119.114,30.303c-6.171-5.035-12.349-10.074-18.521-15.109c-0.635-0.519-3.735-0.934-6.89-0.934H33.021
			c-3.154,0-6.236,0.415-6.864,0.929c-6.176,5.044-12.354,10.079-18.529,15.114c-1.479,1.205,1.429,2.242,6.542,2.242h98.369
			C117.65,32.545,120.592,31.508,119.114,30.303z"/>
	</g>
	<g id="Shape_9">
		<polygon fill="#E2D6C3" points="115.395,109.443 12.338,109.568 1,115.74 129,115.74 		"/>
	</g>
	<g id="Shape_9_copy">
		<polygon fill="#CCBEA8" points="47.86,109.258 16.773,109.292 13.351,110.968 51.962,110.968 		"/>
	</g>
</g>
</svg>
