<?xml version="1.0" encoding="utf-8"?>
<!-- Generator: Adobe Illustrator 16.0.0, SVG Export Plug-In . SVG Version: 6.00 Build 0)  -->
<!DOCTYPE svg PUBLIC "-//W3C//DTD SVG 1.1//EN" "http://www.w3.org/Graphics/SVG/1.1/DTD/svg11.dtd">
<svg version="1.1" id="Layer_1" xmlns="http://www.w3.org/2000/svg" xmlns:xlink="http://www.w3.org/1999/xlink" x="0px" y="0px"
	 width="130px" height="130px" viewBox="0 0 130 130" enable-background="new 0 0 130 130" xml:space="preserve">
<rect fill="none" width="130" height="130"/>
<g id="Shape_161_1_">
	<path fill="#FF5C30" d="M107.102,67.515v18.332c0,3.737-3.032,6.771-6.775,6.771c-3.738,0-6.771-3.033-6.771-6.771V67.864
		l-13.037,3.892l-8.742-4.075v17.834c0.136,15.685,12.895,28.36,28.608,28.36c15.804,0,28.615-12.812,28.615-28.614
		c0-0.208,0-17.746,0-17.746H107.102z M71.776,52.73l8.742,4.075l13.037-3.892v-9.044C93.094,28.475,80.507,16.125,65,16.125
		c-15.453,0-28.005,12.255-28.556,27.578v41.326c0,3.737-3.033,6.771-6.77,6.771c-3.744,0-6.776-3.033-6.776-6.771V67.515H1
		c0,0,0,17.538,0,17.746c0,15.803,12.812,28.614,28.615,28.614c15.661,0,28.36-12.593,28.58-28.2l0.035-40.822
		c0-3.738,3.033-6.771,6.771-6.771c3.743,0,6.776,3.033,6.776,6.771V52.73z"/>
</g>
</svg>
