<?xml version="1.0" encoding="utf-8"?>
<!-- Generator: Adobe Illustrator 16.0.0, SVG Export Plug-In . SVG Version: 6.00 Build 0)  -->
<!DOCTYPE svg PUBLIC "-//W3C//DTD SVG 1.1//EN" "http://www.w3.org/Graphics/SVG/1.1/DTD/svg11.dtd">
<svg version="1.1" id="Layer_1" xmlns="http://www.w3.org/2000/svg" xmlns:xlink="http://www.w3.org/1999/xlink" x="0px" y="0px"
	 width="130px" height="130px" viewBox="0 0 130 130" enable-background="new 0 0 130 130" xml:space="preserve">
<rect fill="none" width="130" height="130"/>
<g>
	<path fill="#51463A" d="M80.027,10.483H49.972c-5.19,0-9.402,4.226-9.402,9.416v9.695h9.037v-9.695
		c0-0.196,0.175-0.378,0.365-0.378h30.055c0.19,0,0.364,0.182,0.364,0.378v9.695h9.04v-9.695
		C89.432,14.709,85.208,10.483,80.027,10.483z"/>
	<path fill="#7C6A51" d="M126.123,28.912H3.876C2.289,28.912,1,30.2,1,31.789v84.856c0,1.584,1.289,2.871,2.876,2.871h122.247
		c1.59,0,2.877-1.287,2.877-2.871V31.789C129,30.2,127.713,28.912,126.123,28.912z"/>
	<rect x="15.38" y="28.912" fill="#FDB813" width="11.507" height="90.605"/>
	<rect x="103.109" y="28.912" fill="#FDB813" width="11.51" height="90.605"/>
</g>
</svg>
