<?xml version="1.0" encoding="utf-8"?>
<!-- Generator: Adobe Illustrator 16.0.0, SVG Export Plug-In . SVG Version: 6.00 Build 0)  -->
<!DOCTYPE svg PUBLIC "-//W3C//DTD SVG 1.1//EN" "http://www.w3.org/Graphics/SVG/1.1/DTD/svg11.dtd">
<svg version="1.1" id="Layer_1" xmlns="http://www.w3.org/2000/svg" xmlns:xlink="http://www.w3.org/1999/xlink" x="0px" y="0px"
	 width="130px" height="130px" viewBox="0 0 130 130" enable-background="new 0 0 130 130" xml:space="preserve">
<rect fill="none" width="130" height="130"/>
<g>
	<path fill="#FDB813" d="M11.554,35.649l19.471,12.022c0.51,0.316,1.07,0.463,1.628,0.463c1.045,0,2.062-0.517,2.646-1.472
		c0.903-1.462,0.45-3.377-1.009-4.279L14.819,30.362c-1.461-0.907-3.379-0.454-4.278,1.009
		C9.644,32.833,10.092,34.748,11.554,35.649z M44.107,33.096c0.563,1.033,1.631,1.623,2.729,1.623c0.504,0,1.014-0.122,1.481-0.38
		c1.513-0.819,2.071-2.705,1.252-4.216L38.637,10.021c-0.826-1.506-2.707-2.062-4.218-1.248c-1.506,0.823-2.063,2.71-1.245,4.221
		L44.107,33.096z M30.097,65.006c0-1.721-1.39-3.109-3.107-3.109H4.108c-1.718,0-3.109,1.389-3.109,3.109
		c0,1.715,1.392,3.108,3.109,3.108H26.99C28.708,68.114,30.097,66.721,30.097,65.006z M34.341,81.682
		c-0.826-1.511-2.71-2.062-4.22-1.247l-20.103,10.93c-1.506,0.819-2.064,2.705-1.245,4.211c0.565,1.043,1.635,1.628,2.731,1.628
		c0.504,0,1.016-0.122,1.481-0.381l20.103-10.926C34.6,85.078,35.16,83.188,34.341,81.682z M95.66,48.324
		c0.566,1.038,1.633,1.623,2.732,1.623c0.504,0,1.014-0.122,1.479-0.375l20.105-10.931c1.51-0.823,2.07-2.71,1.25-4.221
		c-0.818-1.506-2.715-2.061-4.219-1.242L96.904,44.109C95.4,44.933,94.842,46.818,95.66,48.324z M83.334,35.309
		c0.51,0.312,1.074,0.463,1.635,0.463c1.035,0,2.057-0.521,2.645-1.477l12.023-19.469c0.904-1.457,0.449-3.372-1.008-4.274
		c-1.463-0.906-3.379-0.458-4.279,1.009L82.328,31.029C81.422,32.491,81.877,34.406,83.334,35.309z M64.999,30.099
		c1.716,0,3.107-1.389,3.107-3.109V4.109c0-1.72-1.391-3.108-3.107-3.108c-1.72,0-3.109,1.389-3.109,3.108v22.88
		C61.889,28.71,63.279,30.099,64.999,30.099z M118.447,94.356L98.971,82.335c-1.463-0.911-3.383-0.448-4.275,1.009
		c-0.902,1.462-0.447,3.377,1.01,4.278l19.477,12.018c0.508,0.316,1.074,0.468,1.627,0.468c1.043,0,2.064-0.526,2.643-1.477
		C120.359,97.169,119.902,95.254,118.447,94.356z M125.895,61.896h-22.883c-1.717,0-3.105,1.389-3.105,3.109
		c0,1.715,1.389,3.108,3.105,3.108h22.883c1.719,0,3.107-1.394,3.107-3.108C129.002,63.285,127.613,61.896,125.895,61.896z
		 M85.889,96.91c-0.824-1.511-2.711-2.066-4.219-1.247c-1.504,0.823-2.064,2.704-1.244,4.215l10.932,20.105
		c0.566,1.038,1.633,1.623,2.732,1.623c0.504,0,1.016-0.122,1.479-0.38c1.514-0.818,2.07-2.705,1.252-4.216L85.889,96.91z
		 M46.656,94.703c-1.464-0.907-3.377-0.458-4.273,1.009L30.358,115.18c-0.899,1.456-0.449,3.371,1.016,4.273
		c0.51,0.316,1.067,0.468,1.625,0.468c1.043,0,2.064-0.526,2.646-1.477l12.024-19.468C48.566,97.515,48.118,95.604,46.656,94.703z
		 M87.814,65.001c0-12.603-10.217-22.812-22.811-22.812c-12.6,0-22.816,10.209-22.816,22.812c0,12.597,10.217,22.812,22.816,22.812
		C77.598,87.812,87.814,77.598,87.814,65.001z M64.999,99.907c-1.72,0-3.109,1.389-3.109,3.104v22.884
		c0,1.715,1.39,3.104,3.109,3.104c1.716,0,3.107-1.389,3.107-3.104v-22.884C68.105,101.296,66.715,99.907,64.999,99.907z"/>
</g>
</svg>
