<?xml version="1.0" encoding="utf-8"?>
<!-- Generator: Adobe Illustrator 16.0.0, SVG Export Plug-In . SVG Version: 6.00 Build 0)  -->
<!DOCTYPE svg PUBLIC "-//W3C//DTD SVG 1.1//EN" "http://www.w3.org/Graphics/SVG/1.1/DTD/svg11.dtd">
<svg version="1.1" id="Layer_1" xmlns="http://www.w3.org/2000/svg" xmlns:xlink="http://www.w3.org/1999/xlink" x="0px" y="0px"
	 width="130px" height="130px" viewBox="0 0 130 130" enable-background="new 0 0 130 130" xml:space="preserve">
<rect fill="none" width="130" height="130"/>
<g>
	<g>
		<g>
			<g>
				
					<rect x="3.79" y="53.549" transform="matrix(-0.0291 -0.9996 0.9996 -0.0291 3.3518 112.7006)" fill="#B09E77" width="105.242" height="2.347"/>
				<path fill="#FDB813" d="M54.849,1c0,0-39.199,7.362-51.375,40.409c8.495,4.847,35.225,6.51,52.731,6.001
					c17.503-0.513,44.092-3.735,52.286-9.062C94.413,6.063,54.849,1,54.849,1z"/>
				<path fill="#F15A22" d="M29.717,46.722c8.813,0.994,18.688,1.083,26.481,0.824c7.79-0.259,17.632-0.801,26.377-2.374
					C74.792,8.051,55.011,1.137,55.011,1.137S35.596,9.148,29.717,46.722z"/>
			</g>
			<g>
				<g>
					<g>
						<path fill="#D1C9B4" d="M10.804,118.529c-0.568,0-1.121-0.273-1.456-0.782c-0.532-0.806-0.311-1.879,0.492-2.411
							l92.224-60.814c0.806-0.527,1.882-0.311,2.414,0.495c0.527,0.801,0.306,1.879-0.497,2.412L11.76,118.242
							C11.463,118.435,11.131,118.529,10.804,118.529z"/>
					</g>
					<g>
						<path fill="#D1C9B4" d="M33.33,100.254c-0.172,0-0.344-0.023-0.516-0.08L7.97,92.463c-0.918-0.282-1.432-1.263-1.147-2.181
							c0.285-0.919,1.263-1.432,2.179-1.145l24.844,7.71c0.918,0.288,1.432,1.263,1.146,2.182
							C34.762,99.773,34.074,100.254,33.33,100.254z"/>
					</g>
					
						<rect x="69.106" y="78.442" transform="matrix(-0.9968 0.0795 -0.0795 -0.9968 147.6025 183.7765)" fill="#D1C9B4" width="2.077" height="32.766"/>
				</g>
				<g>
					<path fill="#4BA7C4" d="M100.606,57.768c0,0-28.981,47.182-59.681,49.429c-3.415-2.261-6.743-5.337-9.536-9.528L10.971,91.45
						c2.765,3.584,5.598,6.472,8.474,8.752c19.467,16.32,42.272,13.179,42.272,13.179s-0.021,0-0.045,0.005
						c30.575-2.548,59.354-49.4,59.354-49.4L100.606,57.768z"/>
					<path fill="#2D93AA" d="M61.716,113.381c0,0-19.324,0.815-30.327-15.713L10.971,91.45c2.765,3.584,5.598,6.472,8.474,8.752
						C38.912,116.522,61.716,113.381,61.716,113.381z"/>
				</g>
				<g>
					<path fill="#1A7D8E" d="M31.453,98.44c-0.092,0.009-0.191,0-0.29-0.028l-20.419-6.223c-0.41-0.122-0.641-0.556-0.516-0.966
						c0.125-0.409,0.561-0.645,0.968-0.518l20.424,6.218c0.407,0.127,0.636,0.561,0.511,0.97
						C32.04,98.209,31.762,98.417,31.453,98.44z"/>
					<path fill="#1A7D8E" d="M121.092,64.762c-0.096,0.005-0.197,0-0.291-0.032l-20.42-6.218c-0.41-0.127-0.641-0.561-0.516-0.97
						c0.124-0.41,0.56-0.641,0.97-0.518l20.419,6.217c0.41,0.127,0.641,0.56,0.518,0.97
						C121.676,64.526,121.396,64.733,121.092,64.762z"/>
				</g>
				<g>
					
						<rect x="90.26" y="86.005" transform="matrix(-0.9975 0.07 -0.07 -0.9975 189.4454 195.3151)" fill="#D1C9B4" width="2.077" height="29.949"/>
				</g>
			</g>
		</g>
	</g>
	<g>
		<path fill="#D1C9B4" d="M34.564,129c-0.537,0-1.067-0.25-1.409-0.716c-0.565-0.777-0.396-1.865,0.379-2.436l90.225-65.872
			c0.773-0.565,1.865-0.396,2.43,0.381c0.568,0.777,0.398,1.865-0.377,2.431l-90.221,65.877C35.28,128.892,34.92,129,34.564,129z"/>
	</g>
	<g>
		<path fill="#D1C9B4" d="M98.791,119.942c-0.172,0-0.344-0.028-0.519-0.075L28.163,98.101c-0.914-0.282-1.43-1.257-1.145-2.181
			c0.283-0.913,1.26-1.427,2.181-1.145l70.107,21.762c0.916,0.287,1.43,1.262,1.146,2.181
			C100.221,119.462,99.53,119.942,98.791,119.942z"/>
	</g>
</g>
</svg>
