<?xml version="1.0" encoding="utf-8"?>
<!-- Generator: Adobe Illustrator 16.0.0, SVG Export Plug-In . SVG Version: 6.00 Build 0)  -->
<!DOCTYPE svg PUBLIC "-//W3C//DTD SVG 1.1//EN" "http://www.w3.org/Graphics/SVG/1.1/DTD/svg11.dtd">
<svg version="1.1" id="Layer_1" xmlns="http://www.w3.org/2000/svg" xmlns:xlink="http://www.w3.org/1999/xlink" x="0px" y="0px"
	 width="130px" height="130px" viewBox="0 0 130 130" enable-background="new 0 0 130 130" xml:space="preserve">
<rect fill="none" width="130" height="130"/>
<g>
	<g id="body">
		<path fill="#363D49" d="M21.105,129c-2.93,0-5.312-2.383-5.312-5.315V6.321C15.793,3.388,18.175,1,21.105,1h87.792
			c2.928,0,5.31,2.388,5.31,5.321v117.363c0,2.933-2.382,5.315-5.31,5.315H21.105z"/>
	</g>
	<g id="screen_2_">
		<rect x="26.412" y="12.188" fill="#576E78" width="77.179" height="103.358"/>
	</g>
	<g id="camera_2_">
		<path fill="#444C56" d="M65.021,5.458c-0.864,0-1.568,0.702-1.568,1.571c0,0.864,0.704,1.571,1.568,1.571
			c0.866,0,1.567-0.707,1.567-1.571C66.588,6.159,65.887,5.458,65.021,5.458z"/>
	</g>
	<g>
		<g id="button_3_">
			<path fill="#444C56" d="M65.015,119.198c-1.487,0-2.689,1.205-2.689,2.695c0,1.483,1.202,2.689,2.689,2.689
				c1.483,0,2.687-1.206,2.687-2.689C67.701,120.403,66.498,119.198,65.015,119.198z"/>
		</g>
	</g>
</g>
</svg>
