<?xml version="1.0" encoding="utf-8"?>
<!-- Generator: Adobe Illustrator 16.0.0, SVG Export Plug-In . SVG Version: 6.00 Build 0)  -->
<!DOCTYPE svg PUBLIC "-//W3C//DTD SVG 1.1//EN" "http://www.w3.org/Graphics/SVG/1.1/DTD/svg11.dtd">
<svg version="1.1" id="Layer_1" xmlns="http://www.w3.org/2000/svg" xmlns:xlink="http://www.w3.org/1999/xlink" x="0px" y="0px"
	 width="130px" height="130px" viewBox="0 0 130 130" enable-background="new 0 0 130 130" xml:space="preserve">
<rect fill="none" width="130" height="130"/>
<g>
	<g id="body_1_">
		<path fill="#363D49" d="M129,108.897c0,2.928-2.386,5.31-5.318,5.31H6.318c-2.933,0-5.318-2.382-5.318-5.31V21.103
			c0-2.927,2.385-5.31,5.318-5.31h117.363c2.933,0,5.318,2.382,5.318,5.31V108.897z"/>
	</g>
	<g id="screen_3_">
		<rect x="12.185" y="26.412" fill="#576E78" width="103.358" height="77.176"/>
	</g>
	<g id="camera_1_">
		<path fill="#444C56" d="M5.455,64.982c0,0.864,0.702,1.565,1.571,1.565c0.867,0,1.571-0.701,1.571-1.565
			c0-0.869-0.704-1.571-1.571-1.571C6.156,63.412,5.455,64.113,5.455,64.982z"/>
	</g>
	<g>
		<g id="button_1_">
			<path fill="#444C56" d="M119.198,64.988c0,1.484,1.202,2.689,2.692,2.689c1.486,0,2.692-1.205,2.692-2.689
				c0-1.484-1.206-2.689-2.692-2.689C120.4,62.299,119.198,63.504,119.198,64.988z"/>
		</g>
	</g>
</g>
</svg>
