<?xml version="1.0" encoding="utf-8"?>
<!-- Generator: Adobe Illustrator 16.0.0, SVG Export Plug-In . SVG Version: 6.00 Build 0)  -->
<!DOCTYPE svg PUBLIC "-//W3C//DTD SVG 1.1//EN" "http://www.w3.org/Graphics/SVG/1.1/DTD/svg11.dtd">
<svg version="1.1" id="Layer_1" xmlns="http://www.w3.org/2000/svg" xmlns:xlink="http://www.w3.org/1999/xlink" x="0px" y="0px"
	 width="130px" height="130px" viewBox="0 0 130 130" enable-background="new 0 0 130 130" xml:space="preserve">
<rect fill="none" width="130" height="130"/>
<g>
	<g>
		<g>
			<g>
				<g>
					<path fill="#616163" d="M127.312,102.791c0.03,0,0.057,0,0.089-0.005c0.335-0.046,0.569-0.376,0.521-0.738l-0.372-2.887
						c-3.772-29.275-17.577-48.442-28.494-59.364c-11.82-11.828-22.689-16.72-23.146-16.924l-0.708-0.311
						c-0.151-0.069-0.32-0.069-0.472,0l-0.707,0.311c-0.458,0.204-11.326,5.097-23.146,16.924
						C39.959,50.719,26.285,69.886,22.511,99.161l-0.307,2.887c-0.046,0.362,0.188,0.692,0.522,0.738
						c0.349,0.056,0.648-0.199,0.694-0.557l0.309-2.893c3.725-28.89,17.216-47.806,27.992-58.584
						c11.656-11.67,22.325-16.474,22.774-16.669l0.472-0.208l0.469,0.208c0.45,0.195,11.117,4.999,22.777,16.669
						c10.773,10.778,24.397,29.694,28.12,58.584l0.371,2.893C126.749,102.559,127.014,102.791,127.312,102.791z"/>
					<g>
						<path fill="#616163" d="M127.772,107.832c0.046,0,0.094-0.005,0.145-0.01c0.673-0.088,1.154-0.742,1.074-1.457l-0.499-4.461
							c-0.072-0.659-0.594-1.16-1.213-1.16c-0.052,0-0.105,0.004-0.158,0.009c-0.318,0.042-0.613,0.214-0.812,0.492
							c-0.206,0.273-0.295,0.617-0.259,0.965l0.5,4.466c0.065,0.608,0.534,1.091,1.104,1.146L127.772,107.832z"/>
						<path fill="#616163" d="M22.462,107.818c0.571-0.061,1.037-0.544,1.104-1.151l0.497-4.466
							c0.038-0.343-0.053-0.687-0.253-0.965c-0.204-0.274-0.494-0.446-0.821-0.488c-0.049-0.009-0.1-0.009-0.151-0.009
							c-0.62,0-1.142,0.492-1.214,1.155l-0.499,4.461c-0.04,0.348,0.051,0.692,0.253,0.971c0.204,0.269,0.497,0.445,0.822,0.487
							c0.046,0.009,0.097,0.009,0.144,0.009L22.462,107.818z"/>
					</g>
				</g>
				<g>
					<path fill="#616163" d="M3.851,80.459c0.236,0,0.459-0.144,0.564-0.386l0.866-2.079C16.068,52.148,36.244,36.023,49.176,30.29
						c14.127-6.262,25.678-6.471,25.792-6.471c0.341,0,0.612-0.292,0.612-0.654c0-0.362-0.276-0.655-0.612-0.655h-0.005
						c-0.111,0-11.681,0.107-26.26,6.573C35.566,34.904,15.109,51.225,4.155,77.466L3.289,79.54
						c-0.137,0.33,0.002,0.715,0.312,0.863C3.684,80.44,3.768,80.459,3.851,80.459z"/>
					<path fill="#616163" d="M1.922,85.092c0.515,0.098,1.035-0.205,1.237-0.72l1.472-3.787c0.116-0.293,0.116-0.618,0-0.915
						c-0.114-0.297-0.327-0.524-0.605-0.649c-0.04-0.019-0.086-0.033-0.128-0.047c-0.545-0.163-1.121,0.135-1.337,0.696
						l-1.474,3.788c-0.116,0.292-0.116,0.617,0,0.914c0.111,0.292,0.33,0.524,0.606,0.646c0.039,0.019,0.083,0.032,0.125,0.046
						L1.922,85.092z"/>
				</g>
			</g>
		</g>
	</g>
	<g>
		<path fill="#F15A22" d="M75.551,22.181c0,0,45.122,19.95,52.584,77.83c-18.045-4.879-47.253-4.675-52.584-4.675
			c-5.329,0-34.54-0.204-52.583,4.675c-0.357-4.271-5.343-18.034-19.189-22.197C29.028,20.06,75.551,22.181,75.551,22.181z"/>
		<path fill="#BC380F" d="M38.103,84.771c12.173-1.426,25.333-1.797,35.793-1.797h3.312c10.456,0,23.604,0.371,35.771,1.797
			c-8.929-28.654-28.562-43.351-37.401-48.726c-3.918,2.396-9.973,6.624-16.228,13.011C49.431,59.19,42.32,71.157,38.103,84.771z"/>
		<path fill="#E54D1F" d="M75.551,22.181c0,0-45.125,19.95-52.583,77.83c-0.357-4.271-5.343-18.034-19.189-22.197
			C27.775,19.851,75.551,22.181,75.551,22.181z"/>
	</g>
	<polygon fill="#EFA30C" points="86.69,38.376 126.134,89.023 126.524,90.722 82.956,41.12 	"/>
	<polygon fill="#FDB813" points="71.394,29.236 86.69,38.376 23.729,99.337 	"/>
</g>
</svg>
