<?xml version="1.0" encoding="utf-8"?>
<!-- Generator: Adobe Illustrator 16.0.0, SVG Export Plug-In . SVG Version: 6.00 Build 0)  -->
<!DOCTYPE svg PUBLIC "-//W3C//DTD SVG 1.1//EN" "http://www.w3.org/Graphics/SVG/1.1/DTD/svg11.dtd">
<svg version="1.1" id="Layer_1" xmlns="http://www.w3.org/2000/svg" xmlns:xlink="http://www.w3.org/1999/xlink" x="0px" y="0px"
	 width="130px" height="130px" viewBox="0 0 130 130" enable-background="new 0 0 130 130" xml:space="preserve">
<rect fill="none" width="130" height="130"/>
<g>
	<g>
		<g>
			<path fill="#E0D3BF" d="M64.427,3.375c8.903,0,16.155,7.218,16.155,16.091v50.992c9.58,4.972,14.833,14.095,14.833,25.811
				c0,17.021-13.18,30.356-30.002,30.356c-17.002,0-30.828-13.623-30.828-30.356c0-10.186,5.221-19.925,13.694-25.667V19.466
				C48.279,10.593,55.521,3.375,64.427,3.375 M64.427,1.001c-10.213,0-18.522,8.283-18.522,18.465v49.906
				C37.429,75.617,32.21,85.805,32.21,96.269c0,18.046,14.896,32.73,33.203,32.73c18.156,0,32.377-14.378,32.377-32.73
				c0-12.082-5.253-21.69-14.833-27.217V19.466C82.957,9.284,74.646,1.001,64.427,1.001L64.427,1.001z"/>
		</g>
		<g>
			<path fill="#F15A22" d="M78.087,73.189c-0.624-0.302-1.021-0.928-1.021-1.623V52.452c-1.855,0.779-3.704,1.122-5.524,1.122
				c-3.02,0-5.962-0.816-8.713-1.581c-3.747-1.044-7.3-2.004-10.721-1.03v20.604c0,0.616-0.313,1.188-0.833,1.517
				c-7.89,5-12.787,13.877-12.787,23.158c0,14.749,12.147,26.737,27.075,26.737c14.722,0,26.255-11.742,26.255-26.737
				C91.818,88.704,89.437,78.584,78.087,73.189z"/>
		</g>
		<path fill="#F15A22" d="M34.532,60.202h5.515c1.009,0,1.825-0.732,1.825-1.637c0-0.909-0.816-1.646-1.825-1.646h-5.515
			c-1.005,0-1.821,0.737-1.821,1.646C32.711,59.47,33.527,60.202,34.532,60.202z"/>
		<path fill="#F15A22" d="M40.047,68.403c1.009,0,1.825-0.738,1.825-1.647c0-0.904-0.816-1.642-1.825-1.642h-5.515
			c-1.005,0-1.821,0.737-1.821,1.642c0,0.909,0.816,1.647,1.821,1.647H40.047z"/>
		<path fill="#F15A22" d="M34.532,35.519h5.515c1.009,0,1.825-0.733,1.825-1.643c0-0.904-0.816-1.642-1.825-1.642h-5.515
			c-1.005,0-1.821,0.737-1.821,1.642C32.711,34.785,33.527,35.519,34.532,35.519z"/>
		<path fill="#F15A22" d="M34.532,27.327h5.515c1.009,0,1.825-0.737,1.825-1.642c0-0.909-0.816-1.643-1.825-1.643h-5.515
			c-1.005,0-1.821,0.733-1.821,1.643C32.711,26.59,33.527,27.327,34.532,27.327z"/>
		<path fill="#F15A22" d="M34.532,19.09h5.515c1.009,0,1.825-0.737,1.825-1.646c0-0.904-0.816-1.643-1.825-1.643h-5.515
			c-1.005,0-1.821,0.738-1.821,1.643C32.711,18.353,33.527,19.09,34.532,19.09z"/>
		<path fill="#F15A22" d="M34.532,43.77h5.515c1.009,0,1.825-0.737,1.825-1.646c0-0.904-0.816-1.642-1.825-1.642h-5.515
			c-1.005,0-1.821,0.737-1.821,1.642C32.711,43.032,33.527,43.77,34.532,43.77z"/>
		<path fill="#F15A22" d="M34.532,51.961h5.515c1.009,0,1.825-0.738,1.825-1.643c0-0.909-0.816-1.642-1.825-1.642h-5.515
			c-1.005,0-1.821,0.732-1.821,1.642C32.711,51.223,33.527,51.961,34.532,51.961z"/>
	</g>
	<path fill="#DB4112" d="M39.239,102.048c2.695,11.961,13.507,20.931,26.415,20.931c13.114,0,23.676-9.327,25.83-21.965
		C69.847,108.008,51.201,105.462,39.239,102.048z"/>
</g>
</svg>
