<?xml version="1.0" encoding="utf-8"?>
<!-- Generator: Adobe Illustrator 16.0.0, SVG Export Plug-In . SVG Version: 6.00 Build 0)  -->
<!DOCTYPE svg PUBLIC "-//W3C//DTD SVG 1.1//EN" "http://www.w3.org/Graphics/SVG/1.1/DTD/svg11.dtd">
<svg version="1.1" id="Layer_1" xmlns="http://www.w3.org/2000/svg" xmlns:xlink="http://www.w3.org/1999/xlink" x="0px" y="0px"
	 width="130px" height="130px" viewBox="0 0 130 130" enable-background="new 0 0 130 130" xml:space="preserve">
<rect fill="none" width="130" height="130"/>
<g>
	<polygon fill="#E89E0A" points="32.667,75.419 24.357,83.711 44.358,103.823 52.766,95.442 	"/>
	<polygon fill="#C1BAA7" points="112.287,10.321 97.562,23.676 99.962,26.066 41.556,84.271 43.786,86.496 102.192,28.291 
		104.592,30.683 117.999,16.009 	"/>
	<path fill="#FDB813" d="M48.939,33.067c3.666-8.43,2.512-18.048-3.743-24.28c-6.21-6.2-15.826-7.369-24.258-3.771L34.781,18.83
		l-3.816,10.296L20.6,32.952L6.747,19.164c-3.587,8.407-2.434,17.967,3.777,24.168c6.265,6.231,15.914,7.389,24.369,3.734
		l17.169,17.115l14.051-14.002L48.939,33.067z"/>
	<path fill="#FDB813" d="M123.187,86.516c-6.26-6.237-15.902-7.384-24.364-3.737L77.998,62.023L63.951,76.024l20.826,20.757
		c-3.661,8.434-2.508,18.04,3.747,24.272c6.23,6.209,15.817,7.368,24.259,3.768L98.93,111.022l3.859-10.312l10.327-3.819
		l13.843,13.798C130.581,102.278,129.418,92.721,123.187,86.516z"/>
	<path fill="#FDB813" d="M4.071,103.927c-4.093,4.074-4.093,10.737-0.01,14.81l5.242,5.212c4.083,4.078,10.778,4.078,14.856,0
		l18.599-18.535L22.752,85.301L4.071,103.927z"/>
	<path fill="#FDB813" d="M32.9,95.502L6.829,121.49l2.473,2.458c4.083,4.078,10.778,4.078,14.856,0l18.599-18.535L32.9,95.502z"/>
</g>
</svg>
