<?xml version="1.0" encoding="utf-8"?>
<!-- Generator: Adobe Illustrator 16.0.0, SVG Export Plug-In . SVG Version: 6.00 Build 0)  -->
<!DOCTYPE svg PUBLIC "-//W3C//DTD SVG 1.1//EN" "http://www.w3.org/Graphics/SVG/1.1/DTD/svg11.dtd">
<svg version="1.1" id="Layer_1" xmlns="http://www.w3.org/2000/svg" xmlns:xlink="http://www.w3.org/1999/xlink" x="0px" y="0px"
	 width="130px" height="130px" viewBox="0 0 130 130" enable-background="new 0 0 130 130" xml:space="preserve">
<rect fill="none" width="130" height="130"/>
<g>
	<g>
		<path fill="#4BA7C4" d="M32.922,91.906c-16.835,0-28.571,5.708-28.571,10.836c0,0.218,0.052,0.436,0.092,0.653
			c4.183-1.811,9.805-2.899,16.182-2.899c13.575,0,23.809,4.876,23.809,11.346c0,0.264-0.046,0.521-0.081,0.779
			c10.475-1.834,17.139-6.022,17.139-9.879C61.493,97.614,49.757,91.906,32.922,91.906z M11.165,119.509
			c-6.67,0-10.165,2.264-10.165,3.043c0,0.785,3.495,3.041,10.165,3.041s10.165-2.256,10.165-3.041
			C21.33,121.772,17.835,119.509,11.165,119.509z M57.052,50.563c-28.96,0-48.414,9.948-48.414,19.236
			c0,1.353,0.458,2.716,1.254,4.062c8.446-5.163,22.027-8.469,37.67-8.469c23.036,0,41.676,7.134,45.882,16.875
			c7.632-3.559,12.016-8.079,12.016-12.469C105.461,60.511,86.007,50.563,57.052,50.563z M67.939,4.407
			c-33.71,0-61.049,11.575-61.049,25.849c0,3.123,1.375,6.102,3.771,8.871c7.552-10.281,28.954-17.523,54.889-17.523
			c28.347,0,51.325,8.641,56.666,20.457C126.53,38.519,129,34.514,129,30.256C129,15.982,101.662,4.407,67.939,4.407z"/>
	</g>
	<g>
		<path fill="#489EBA" d="M20.625,104.879c-11.85,0-19.414,4.127-19.414,6.963c0,1.237,1.507,2.698,4.097,3.971
			c6.435-1.289,14.641-0.326,18.377,2.854c10.056-0.631,16.365-4.247,16.365-6.825C40.051,109.006,32.481,104.879,20.625,104.879z
			 M65.55,25.987c-28.983,0-53.468,9.792-53.468,21.379c0,2.653,1.341,5.203,3.672,7.581c9.598-5.375,24.388-8.761,41.298-8.761
			c22.657,0,41.515,6.085,49.136,14.881c7.953-3.748,12.83-8.543,12.83-13.701C119.019,35.779,94.533,25.987,65.55,25.987z
			 M47.563,69.776c-25.362,0-42.403,8.63-42.403,16.692c0,2.017,1.072,4.068,3.061,6.011c5.942-3.071,14.652-4.956,24.702-4.956
			c17.884,0,31.551,5.93,32.829,13.986c14.967-2.887,24.21-9.11,24.21-15.041C89.961,78.406,72.925,69.776,47.563,69.776z"/>
	</g>
</g>
</svg>
