<?xml version="1.0" encoding="utf-8"?>
<!-- Generator: Adobe Illustrator 16.0.0, SVG Export Plug-In . SVG Version: 6.00 Build 0)  -->
<!DOCTYPE svg PUBLIC "-//W3C//DTD SVG 1.1//EN" "http://www.w3.org/Graphics/SVG/1.1/DTD/svg11.dtd">
<svg version="1.1" id="Layer_1" xmlns="http://www.w3.org/2000/svg" xmlns:xlink="http://www.w3.org/1999/xlink" x="0px" y="0px"
	 width="130px" height="130px" viewBox="0 0 130 130" enable-background="new 0 0 130 130" xml:space="preserve">
<rect fill="none" width="130" height="130"/>
<g>
	<g>
		<path fill="#7C6A51" d="M49.954,108.104h30.3c0.475,0,0.67-0.337,0.433-0.748l-0.89-1.54c-0.237-0.415-0.819-0.748-1.294-0.748
			H51.709c-0.474,0-1.057,0.333-1.293,0.744l-0.89,1.548C49.288,107.768,49.483,108.104,49.954,108.104z M43.501,117.802
			c-0.237,0.412-0.042,0.744,0.437,0.744h42.306c0.471,0,0.861-0.012,0.861-0.029c0-0.017-0.195-0.365-0.433-0.777l-0.853-1.485
			c-0.237-0.412-0.819-0.744-1.298-0.744H45.686c-0.466,0-1.048,0.332-1.285,0.744L43.501,117.802z M91.848,126.708
			c-0.236-0.408-0.819-0.745-1.289-0.745H39.658c-0.466,0-1.048,0.337-1.285,0.745l-0.898,1.548
			c-0.237,0.411-0.042,0.744,0.437,0.744H92.31c0.475,0,0.67-0.333,0.433-0.744L91.848,126.708z M107.889,128.251l-15.421-26.84
			c-0.237-0.416-0.819-0.748-1.294-0.748h-5.291c-0.475,0-0.67,0.332-0.433,0.748l15.425,26.84c0.237,0.416,0.819,0.749,1.289,0.749
			h5.292C107.93,129,108.126,128.667,107.889,128.251z M43.938,100.663h-5.295c-0.466,0-1.057,0.332-1.294,0.744l-15.604,26.849
			c-0.237,0.411-0.038,0.744,0.428,0.744h5.292c0.47,0,1.057-0.333,1.293-0.744l15.604-26.849
			C44.6,100.995,44.404,100.663,43.938,100.663z"/>
	</g>
	<g>
		<path fill="#F15A22" d="M108.945,36.172c-1.082-3.715-8.021-25.33-8.021-25.33c-1.094-3.274-3.303-5.699-7.101-7.034
			C87.26,1.454,73.853,1,64.991,1c-8.839,0-22.268,0.454-28.828,2.808c-3.798,1.335-6.003,3.76-7.084,7.034
			c0,0-6.947,21.615-8.02,25.33c-0.125,0.412-0.233,0.898-0.333,1.423c0,0.008,0,0.012-0.008,0.021
			c-0.79,4.168-0.994,11.003-0.998,8.303c0,2.026,0.017,20.288,0.017,20.288c0,9.027,2.396,17.488,6.618,24.772h77.278
			c4.23-7.284,6.635-15.745,6.635-24.772c0,0,0.013-18.262,0.013-20.288C110.268,48.963,110.026,39.874,108.945,36.172z"/>
	</g>
	<g>
		<path fill="#7C6A51" d="M81.61,69.105H48.456c-0.466,0-0.861,0.388-0.861,0.857v2.233c0,0.471,0.395,0.857,0.861,0.857H81.61
			c0.475,0,0.861-0.387,0.861-0.857v-2.233C82.472,69.493,82.085,69.105,81.61,69.105z"/>
	</g>
	<g>
		<path fill="#FDB813" d="M35.802,65.67c-2.991,0-5.412,2.425-5.412,5.429c0,2.974,2.421,5.399,5.412,5.399
			c2.995,0,5.412-2.426,5.412-5.399C41.214,68.095,38.797,65.67,35.802,65.67z M94.186,65.67c-2.982,0-5.412,2.43-5.412,5.429
			c0,2.974,2.43,5.399,5.412,5.399c2.991,0,5.408-2.426,5.408-5.399C99.594,68.1,97.177,65.67,94.186,65.67z"/>
	</g>
	<g>
		<path fill="#FFF6E4" d="M33.41,12.269c-0.046,0.146-4.301,13.382-6.626,20.792h36.69V5.572
			C51.376,5.643,42.012,6.545,37.707,8.097C35.381,8.912,34.104,10.16,33.41,12.269z M96.586,12.236
			c-0.694-2.072-1.976-3.319-4.276-4.131c-4.339-1.56-13.698-2.462-25.8-2.533v27.489h36.711
			C100.888,25.643,96.641,12.402,96.586,12.236z"/>
	</g>
</g>
</svg>
