<?xml version="1.0" encoding="utf-8"?>
<!-- Generator: Adobe Illustrator 16.0.0, SVG Export Plug-In . SVG Version: 6.00 Build 0)  -->
<!DOCTYPE svg PUBLIC "-//W3C//DTD SVG 1.1//EN" "http://www.w3.org/Graphics/SVG/1.1/DTD/svg11.dtd">
<svg version="1.1" id="Layer_1" xmlns="http://www.w3.org/2000/svg" xmlns:xlink="http://www.w3.org/1999/xlink" x="0px" y="0px"
	 width="130px" height="130px" viewBox="0 0 130 130" enable-background="new 0 0 130 130" xml:space="preserve">
<rect fill="none" width="130" height="130"/>
<g>
	<path fill="#FDB813" d="M23.352,24.791l3.204,90.447c0,7.565,6.183,13.763,13.734,13.763h49.428
		c7.551,0,13.734-6.197,13.734-13.763l3.204-90.447H23.352z"/>
	<path fill="#FAAB18" d="M65,129h24.718c7.551,0,13.734-6.197,13.734-13.763l3.204-90.447H65V129z"/>
	<g>
		<path fill="#AF812F" d="M81.605,49.986c-1.316,0-2.381,0.963-2.381,2.15V96.81c0,1.188,1.064,2.152,2.381,2.152
			c1.312,0,2.379-0.964,2.379-2.152V52.136C83.984,50.949,82.918,49.986,81.605,49.986z"/>
		<path fill="#AF812F" d="M65.788,40.495c-1.301,0-2.352,0.968-2.352,2.16v65.222c0,1.191,1.051,2.156,2.352,2.156
			c1.3,0,2.352-0.965,2.352-2.156V42.655C68.14,41.462,67.088,40.495,65.788,40.495z"/>
		<path fill="#AF812F" d="M48.403,49.986c-1.313,0-2.377,0.963-2.377,2.15V96.81c0,1.188,1.064,2.152,2.377,2.152
			c1.315,0,2.38-0.964,2.38-2.152V52.136C50.783,50.949,49.718,49.986,48.403,49.986z"/>
	</g>
	<path fill="#AF812F" d="M113.935,18.39H90.541V9.699c0-4.798-3.894-8.699-8.68-8.699h-33.72c-4.786,0-8.674,3.901-8.674,8.699
		v8.691H16.075c-1.77,0-3.201,1.434-3.201,3.201c0,1.767,1.432,3.2,3.201,3.2h97.859c1.761,0,3.191-1.433,3.191-3.2
		C117.126,19.824,115.695,18.39,113.935,18.39z M84.149,18.39H45.856V9.699c0-1.269,1.028-2.3,2.285-2.3h33.72
		c1.241,0,2.288,1.053,2.288,2.3V18.39z"/>
</g>
</svg>
