<?xml version="1.0" encoding="utf-8"?>
<!-- Generator: Adobe Illustrator 16.0.0, SVG Export Plug-In . SVG Version: 6.00 Build 0)  -->
<!DOCTYPE svg PUBLIC "-//W3C//DTD SVG 1.1//EN" "http://www.w3.org/Graphics/SVG/1.1/DTD/svg11.dtd">
<svg version="1.1" id="Layer_1" xmlns="http://www.w3.org/2000/svg" xmlns:xlink="http://www.w3.org/1999/xlink" x="0px" y="0px"
	 width="130px" height="130px" viewBox="0 0 130 130" enable-background="new 0 0 130 130" xml:space="preserve">
<rect fill="none" width="130" height="130"/>
<g>
	<path fill="#FDB813" d="M129,101.182c0,4.311-3.499,7.807-7.808,7.807H8.809c-4.316,0-7.809-3.496-7.809-7.807V28.819
		c0-4.316,3.492-7.808,7.809-7.808h112.384c4.309,0,7.808,3.492,7.808,7.808V101.182z"/>
	<path fill="#93670F" d="M87.084,65.866c0,19.04-15.432,34.47-34.466,34.47c-19.037,0-34.472-15.43-34.472-34.47
		c0-19.04,15.435-34.469,34.472-34.469C71.652,31.397,87.084,46.827,87.084,65.866z"/>
	<path fill="#5B4A3C" d="M83.341,62.468c1.863,16.969-10.384,32.239-27.354,34.1C39.021,98.432,23.755,86.182,21.89,69.218
		c-1.862-16.975,10.384-32.243,27.354-34.101C66.211,33.255,81.477,45.503,83.341,62.468z"/>
	<path fill="#C19040" d="M64.213,64.559c0.706,6.402-3.919,12.171-10.324,12.867c-6.404,0.705-12.168-3.918-12.871-10.324
		c-0.7-6.408,3.922-12.166,10.327-12.872C57.749,53.524,63.513,58.152,64.213,64.559z"/>
	<path fill="#47392F" d="M61.671,64.834c0.545,4.996-3.061,9.499-8.062,10.049c-5.002,0.551-9.5-3.061-10.05-8.062
		c-0.544-4.995,3.062-9.499,8.062-10.048C56.623,56.227,61.121,59.833,61.671,64.834z"/>
	<path fill="#47392F" d="M95.154,37.997c0,4.208-3.406,7.611-7.61,7.611c-4.208,0-7.614-3.403-7.614-7.611s3.406-7.611,7.614-7.611
		C91.748,30.386,95.154,33.789,95.154,37.997z"/>
	<path fill="#C19040" d="M94.011,37.997c0,3.575-2.896,6.464-6.467,6.464c-3.575,0-6.47-2.89-6.47-6.464
		c0-3.574,2.895-6.464,6.47-6.464C91.115,31.532,94.011,34.422,94.011,37.997z"/>
	<rect x="104.158" y="27.755" fill="#47392F" width="1.645" height="75.174"/>
	<path fill="#28221E" d="M70.672,77.229c0.703-0.613,1.063-1.069,1.469-1.884l23.156-46.821c0.207-0.425,0.036-0.939-0.392-1.146
		l-3.024-1.5c-0.423-0.208-0.941-0.036-1.149,0.389L67.494,73.26L53.77,84.361c-0.371,0.291-0.436,0.836-0.14,1.209l2.099,2.641
		c0.296,0.369,0.835,0.43,1.206,0.141L70.672,77.229z"/>
	<path fill="#47392F" d="M122.975,38.609c0,2.921-2.368,5.287-5.289,5.287c-2.924,0-5.292-2.366-5.292-5.287
		c0-2.926,2.368-5.292,5.292-5.292C120.606,33.317,122.975,35.683,122.975,38.609z"/>
	<path fill="#47392F" d="M120.723,81.523c0,1.682-1.364,3.041-3.037,3.041c-1.679,0-3.04-1.359-3.04-3.041
		c0-1.676,1.361-3.035,3.04-3.035C119.358,78.488,120.723,79.848,120.723,81.523z"/>
	<path fill="#47392F" d="M120.723,92.828c0,1.682-1.364,3.041-3.037,3.041c-1.679,0-3.04-1.359-3.04-3.041
		c0-1.67,1.361-3.035,3.04-3.035C119.358,89.793,120.723,91.158,120.723,92.828z"/>
</g>
</svg>
