<?xml version="1.0" encoding="utf-8"?>
<!-- Generator: Adobe Illustrator 16.0.0, SVG Export Plug-In . SVG Version: 6.00 Build 0)  -->
<!DOCTYPE svg PUBLIC "-//W3C//DTD SVG 1.1//EN" "http://www.w3.org/Graphics/SVG/1.1/DTD/svg11.dtd">
<svg version="1.1" id="Layer_1" xmlns="http://www.w3.org/2000/svg" xmlns:xlink="http://www.w3.org/1999/xlink" x="0px" y="0px"
	 width="130px" height="130px" viewBox="0 0 130 130" enable-background="new 0 0 130 130" xml:space="preserve">
<rect fill="none" width="130" height="130"/>
<g id="Shape_164_1_">
	<path fill="#00ACF0" d="M114.631,27.68c9.219-6.024,10.034-14.279,10.034-14.279c-2.982,4.115-16.271,6.308-16.271,6.308
		C97,6.265,79.913,13.401,79.913,13.401c-20.063,7.13-17.08,30.447-17.08,30.447C27.85,43.298,8.861,16.416,8.861,16.416
		c-10.442,21.946,7.188,35.248,7.188,35.248C12.115,52.078,5.069,48.92,5.069,48.92C4.798,69.088,25.676,76.224,25.676,76.224
		c-1.896,0.272-10.85,0.272-10.85,0.272c4.613,16.459,24.139,18.103,24.139,18.103C19.982,108.864,1,106.399,1,106.399
		c18.711,14.26,37.253,12.759,49.896,10.973c31.088-4.399,47.735-27.16,47.735-27.16c21.965-28.254,14.641-52.122,18.167-53.494
		c0.059-0.026,0.116-0.052,0.181-0.078C120.608,34.984,129,24.374,129,24.374C123.035,27.661,114.631,27.68,114.631,27.68z"/>
</g>
</svg>
