<?xml version="1.0" encoding="utf-8"?>
<!-- Generator: Adobe Illustrator 16.0.0, SVG Export Plug-In . SVG Version: 6.00 Build 0)  -->
<!DOCTYPE svg PUBLIC "-//W3C//DTD SVG 1.1//EN" "http://www.w3.org/Graphics/SVG/1.1/DTD/svg11.dtd">
<svg version="1.1" id="Layer_1" xmlns="http://www.w3.org/2000/svg" xmlns:xlink="http://www.w3.org/1999/xlink" x="0px" y="0px"
	 width="130px" height="130px" viewBox="0 0 130 130" enable-background="new 0 0 130 130" xml:space="preserve">
<rect fill="none" width="130" height="130"/>
<g id="T_-_White_copy_3_2_">
	<path fill="#00ACF0" d="M96.381,95.324H52.882c-1.812,0-2.392-1.105-2.392-3.054V67.99h45.891c9.26,0,16.834-7.529,16.834-16.834
		c0-9.259-7.574-16.834-16.834-16.834H50.49v-16.48C50.49,8.575,42.916,1,33.664,1C24.359,1,16.83,8.575,16.83,17.841v72.654
		c0,0.264,0,0.489-0.045,0.707c0,21.445,12.005,37.083,36.722,37.753c0.398,0,0.797,0.045,1.241,0.045h41.633
		c9.26,0,16.834-7.574,16.834-16.842C113.215,102.861,105.641,95.324,96.381,95.324z"/>
</g>
</svg>
