<?xml version="1.0" encoding="utf-8"?>
<!-- Generator: Adobe Illustrator 16.0.0, SVG Export Plug-In . SVG Version: 6.00 Build 0)  -->
<!DOCTYPE svg PUBLIC "-//W3C//DTD SVG 1.1//EN" "http://www.w3.org/Graphics/SVG/1.1/DTD/svg11.dtd">
<svg version="1.1" id="Layer_1" xmlns="http://www.w3.org/2000/svg" xmlns:xlink="http://www.w3.org/1999/xlink" x="0px" y="0px"
	 width="130px" height="130px" viewBox="0 0 130 130" enable-background="new 0 0 130 130" xml:space="preserve">
<rect fill="none" width="130" height="130"/>
<g>
	<g>
		<path fill="#7C6A51" d="M76.764,61.617L49.9,108.151c-1.529,2.644-4.649,3.734-7.303,2.205c-1.058-0.609-2.412-0.245-3.025,0.812
			c-0.609,1.062-0.246,2.416,0.812,3.029c4.768,2.752,10.418,1.341,13.166-3.421l27.09-46.922L76.764,61.617z"/>
	</g>
	<g>
		<path fill="#A4C553" d="M102.438,21.629c0,0,0-0.004-0.005-0.004L77.585,64.671c4.103-1.412,10.871-0.916,14.912,1.416
			c5.099,2.946,7.897,8.351,7.774,13.846c0.312-0.188,0.647-0.335,0.968-0.505l21.379-37.033
			C118.105,34.021,111.289,26.737,102.438,21.629z"/>
	</g>
	<g>
		<path fill="#4BA7C4" d="M102.472,21.648l-0.108,0.104c13.406,28.101,1.774,51.855-1.789,58.024
			c4.654-2.695,10.578-2.917,15.559-0.042c4.154,2.402,6.788,6.401,7.553,10.768C135.741,65.913,126.702,35.659,102.472,21.648z"/>
	</g>
	<g>
		<path fill="#FDB813" d="M102.505,21.502c-8.823-5.088-18.5-7.34-27.979-7.062L53.208,51.369c0.015,0.363,0.053,0.727,0.043,1.09
			c4.683-2.846,10.744-3.125,15.823-0.193c4.026,2.327,7.746,7.166,8.284,12.797l0,0l25.146-43.556V21.502z"/>
	</g>
	<g>
		<path fill="#F15A22" d="M102.467,21.483C78.308,7.562,47.696,14.846,32.472,37.519c4.149-1.52,8.917-1.241,13.052,1.152
			c4.961,2.861,7.723,8.086,7.713,13.444c3.55-6.146,18.263-28.035,49.197-30.485L102.467,21.483z"/>
	</g>
	<g>
		<path fill="#4BA7C4" d="M42.012,82.613H3.134c-1.18,0-2.133,0.954-2.133,2.13c0,1.18,0.954,2.134,2.133,2.134h38.878
			c1.18,0,2.134-0.954,2.134-2.134C44.146,83.567,43.192,82.613,42.012,82.613z M13.014,65.275h33.869
			c1.176,0,2.134-0.954,2.134-2.129c0-1.18-0.958-2.133-2.134-2.133H13.014c-1.18,0-2.134,0.954-2.134,2.133
			C10.88,64.322,11.834,65.275,13.014,65.275z M54.403,71.813H27.247c-1.181,0-2.134,0.953-2.134,2.134
			c0,1.175,0.953,2.129,2.134,2.129h27.156c1.176,0,2.134-0.954,2.134-2.129C56.537,72.767,55.579,71.813,54.403,71.813z"/>
	</g>
</g>
</svg>
