<?xml version="1.0" encoding="utf-8"?>
<!-- Generator: Adobe Illustrator 16.0.0, SVG Export Plug-In . SVG Version: 6.00 Build 0)  -->
<!DOCTYPE svg PUBLIC "-//W3C//DTD SVG 1.1//EN" "http://www.w3.org/Graphics/SVG/1.1/DTD/svg11.dtd">
<svg version="1.1" id="Layer_1" xmlns="http://www.w3.org/2000/svg" xmlns:xlink="http://www.w3.org/1999/xlink" x="0px" y="0px"
	 width="130px" height="130px" viewBox="0 0 130 130" enable-background="new 0 0 130 130" xml:space="preserve">
<rect fill="none" width="130" height="130"/>
<g>
	<g>
		<path fill="#7C6A51" d="M62.313,55.734v61.779c0,3.512-2.48,6.39-5.998,6.39c-1.405,0-2.548,1.143-2.548,2.548
			c0,1.41,1.143,2.548,2.548,2.548c6.333,0,11.146-4.65,11.146-10.972V55.734H62.313z"/>
	</g>
	<g>
		<path fill="#A4C553" d="M96.925,10.238c-9.311-5.746-20.283-9.075-32.032-9.075h-0.005v57.146
			c3.271-3.765,10.296-7.162,15.665-7.162c6.768,0,12.661,3.77,15.696,9.312c0.204-0.367,0.451-0.708,0.676-1.059V10.238z"/>
	</g>
	<g>
		<path fill="#4BA7C4" d="M64.939,1.163l-0.052,0.163C94.383,21.6,96.464,51.934,96.464,60.122
			c3.083-5.353,8.854-8.976,15.466-8.976c5.516,0,10.438,2.465,13.71,6.376C123.511,26.108,97.114,1.185,64.939,1.163z"/>
	</g>
	<g>
		<path fill="#FDB813" d="M64.882,1.001c-11.701,0-22.638,3.323-31.912,9.054v49.024c0.226,0.352,0.472,0.687,0.671,1.054
			c3.03-5.525,8.902-9.29,15.645-9.29c5.348,0,11.827,2.685,15.603,7.979V1.001H64.882z"/>
	</g>
	<g>
		<path fill="#F15A22" d="M64.84,1.006C32.781,1.027,6.484,25.877,4.36,57.207c3.261-3.9,8.163-6.364,13.663-6.364
			c6.584,0,12.336,3.617,15.408,8.96c-0.006-8.163,2.065-38.419,31.456-58.634L64.84,1.006z"/>
	</g>
</g>
</svg>
