<?xml version="1.0" encoding="utf-8"?>
<!-- Generator: Adobe Illustrator 16.0.0, SVG Export Plug-In . SVG Version: 6.00 Build 0)  -->
<!DOCTYPE svg PUBLIC "-//W3C//DTD SVG 1.1//EN" "http://www.w3.org/Graphics/SVG/1.1/DTD/svg11.dtd">
<svg version="1.1" id="Layer_1" xmlns="http://www.w3.org/2000/svg" xmlns:xlink="http://www.w3.org/1999/xlink" x="0px" y="0px"
	 width="130px" height="130px" viewBox="0 0 130 130" enable-background="new 0 0 130 130" xml:space="preserve">
<rect fill="none" width="130" height="130"/>
<g>
	<g>
		<path fill="#7C6A51" d="M63.132,78.061v42.948c0,2.446-1.724,4.446-4.17,4.446c-0.978,0-1.771,0.794-1.771,1.772
			s0.794,1.771,1.771,1.771c4.402,0,7.75-3.235,7.75-7.629v-43.31H63.132z"/>
	</g>
	<g>
		<path fill="#A4C553" d="M87.194,46.429c-6.471-3.993-14.1-6.311-22.271-6.311l0,0v39.734c2.273-2.618,7.156-4.983,10.889-4.983
			c4.703,0,8.805,2.622,10.913,6.479c0.141-0.256,0.312-0.493,0.469-0.737V46.429z"/>
	</g>
	<g>
		<path fill="#4BA7C4" d="M64.956,40.118l-0.032,0.116c20.511,14.096,21.954,35.188,21.95,40.877
			c2.145-3.721,6.158-6.242,10.757-6.242c3.832,0,7.256,1.716,9.529,4.438C105.677,57.466,87.331,40.134,64.956,40.118z"/>
	</g>
	<g>
		<path fill="#FDB813" d="M64.92,40.006c-8.139,0-15.74,2.31-22.19,6.294v34.086c0.16,0.245,0.328,0.478,0.469,0.733
			c2.104-3.845,6.187-6.458,10.873-6.458c3.721,0,8.227,1.864,10.853,5.548V40.006H64.92z"/>
	</g>
	<g>
		<path fill="#F15A22" d="M64.888,40.01C42.601,40.021,24.315,57.301,22.84,79.083c2.266-2.71,5.677-4.422,9.498-4.422
			c4.578,0,8.579,2.514,10.712,6.226c0-5.673,1.436-26.709,21.874-40.765L64.888,40.01z"/>
	</g>
	<g>
		<path fill="#4BA7C4" d="M58.602,21.575c-0.285,0.462-0.59,0.963-0.914,1.496c-1.419,2.293-3.548,5.757-3.548,7.261
			c0,2.453,2.004,4.454,4.462,4.454c1.19-0.004,2.313-0.466,3.151-1.308c0.842-0.842,1.307-1.96,1.307-3.155
			c0-1.499-2.141-4.963-3.548-7.252C59.179,22.534,58.878,22.037,58.602,21.575z M41.126,28.54c-0.289,0.465-0.59,0.962-0.923,1.499
			c-1.411,2.293-3.54,5.753-3.54,7.257c0.004,2.453,2.001,4.454,4.463,4.454c1.187,0,2.309-0.466,3.15-1.308
			c0.838-0.842,1.304-1.956,1.312-3.146c-0.008-1.508-2.141-4.972-3.557-7.261C41.703,29.502,41.398,29.005,41.126,28.54z
			 M67.811,2.496c-0.329-0.541-0.638-1.034-0.918-1.495c-0.277,0.465-0.582,0.962-0.91,1.495c-1.411,2.293-3.544,5.753-3.544,7.257
			c0.004,2.457,2.004,4.454,4.462,4.454c1.19,0,2.31-0.461,3.159-1.303c0.834-0.847,1.299-1.961,1.299-3.155
			C71.358,8.249,69.226,4.785,67.811,2.496z M25.121,44.584c-0.276,0.461-0.585,0.962-0.91,1.491
			c-1.411,2.298-3.548,5.762-3.548,7.261c0.004,2.454,2.004,4.454,4.466,4.454c1.19-0.004,2.31-0.465,3.151-1.307
			s1.299-1.957,1.299-3.151c0-1.503-2.133-4.967-3.548-7.257C25.702,45.546,25.401,45.045,25.121,44.584z M105.793,46.075
			c-0.324-0.529-0.634-1.03-0.906-1.491c-0.28,0.461-0.585,0.962-0.914,1.491c-1.415,2.29-3.548,5.754-3.548,7.257
			c0,1.194,0.457,2.31,1.303,3.151c0.842,0.842,1.961,1.303,3.151,1.307c2.462,0,4.458-2,4.458-4.454
			C109.337,51.837,107.208,48.373,105.793,46.075z M75.753,21.575c-0.281,0.462-0.586,0.963-0.914,1.496
			c-1.407,2.293-3.545,5.757-3.545,7.261c0,2.453,2.005,4.454,4.463,4.454c1.19-0.004,2.313-0.466,3.146-1.308
			c0.847-0.842,1.312-1.96,1.312-3.155c0-1.499-2.137-4.963-3.552-7.252C76.334,22.534,76.033,22.037,75.753,21.575z M89.717,28.54
			c-0.285,0.465-0.586,0.962-0.914,1.495c-1.416,2.289-3.557,5.753-3.557,7.261c0,1.19,0.465,2.305,1.312,3.146
			c0.842,0.842,1.964,1.308,3.15,1.308c2.458,0,4.459-2.001,4.463-4.454c0-1.504-2.133-4.964-3.544-7.257
			C90.302,29.502,89.997,29.005,89.717,28.54z"/>
	</g>
</g>
</svg>
