<?xml version="1.0" encoding="utf-8"?>
<!-- Generator: Adobe Illustrator 16.0.0, SVG Export Plug-In . SVG Version: 6.00 Build 0)  -->
<!DOCTYPE svg PUBLIC "-//W3C//DTD SVG 1.1//EN" "http://www.w3.org/Graphics/SVG/1.1/DTD/svg11.dtd">
<svg version="1.1" id="Layer_1" xmlns="http://www.w3.org/2000/svg" xmlns:xlink="http://www.w3.org/1999/xlink" x="0px" y="0px"
	 width="130px" height="130px" viewBox="0 0 130 130" enable-background="new 0 0 130 130" xml:space="preserve">
<rect fill="none" width="130" height="130"/>
<g>
	<g>
		<path fill="#7C6A51" d="M74.674,61.481l-27.939,48.396c-1.59,2.749-4.835,3.884-7.592,2.293c-1.1-0.633-2.511-0.255-3.147,0.844
			c-0.635,1.104-0.258,2.514,0.842,3.15c4.961,2.862,10.835,1.395,13.695-3.558l28.174-48.799L74.674,61.481z"/>
	</g>
	<g>
		<path fill="#A4C553" d="M101.379,19.894l-0.005-0.005L75.528,64.658c4.267-1.468,11.307-0.952,15.509,1.473
			c5.302,3.063,8.216,8.685,8.088,14.399c0.324-0.197,0.671-0.349,1.006-0.526l22.235-38.514
			C117.672,32.781,110.584,25.206,101.379,19.894z"/>
	</g>
	<g>
		<path fill="#4BA7C4" d="M101.413,19.914l-0.113,0.108c13.94,29.226,1.847,53.93-1.86,60.347
			c4.838-2.804,11.001-3.034,16.182-0.045c4.32,2.5,7.06,6.658,7.852,11.199C136.012,65.949,126.61,34.485,101.413,19.914z"/>
	</g>
	<g>
		<path fill="#FDB813" d="M101.444,19.761c-9.173-5.292-19.236-7.634-29.095-7.344L50.177,50.823
			c0.017,0.378,0.057,0.756,0.049,1.134c4.868-2.96,11.171-3.25,16.454-0.201c4.187,2.42,8.054,7.452,8.615,13.309l0,0
			l26.152-45.298L101.444,19.761z"/>
	</g>
	<g>
		<path fill="#F15A22" d="M101.408,19.742C76.282,5.265,44.443,12.839,28.613,36.419c4.315-1.581,9.271-1.291,13.574,1.198
			c5.16,2.975,8.032,8.41,8.022,13.982c3.692-6.392,18.994-29.157,51.165-31.705L101.408,19.742z"/>
	</g>
	<g>
		<path fill="#4BA7C4" d="M36.664,74.084l-25.193,0.005C7.851,74.241,1,76.793,1,85.336c0,5.833,4.742,10.57,10.57,10.57
			c5.827,0,10.57-4.737,10.57-10.57c0-1.222-0.995-2.219-2.219-2.219s-2.219,0.997-2.219,2.219c0,3.383-2.752,6.137-6.132,6.137
			c-3.385,0-6.132-2.754-6.132-6.137c0-6.156,5.196-6.76,6.132-6.813h25.094c1.223,0,2.214-0.997,2.214-2.22
			C38.878,75.075,37.887,74.084,36.664,74.084z M56.736,64.869H11.68c-1.046-0.059-6.242-0.667-6.242-6.819
			c0-3.383,2.747-6.137,6.132-6.137c3.38,0,6.132,2.754,6.132,6.137c0,1.222,0.994,2.214,2.219,2.214s2.219-0.992,2.219-2.214
			c0-5.828-4.743-10.57-10.57-10.57C5.742,47.48,1,52.222,1,58.05c0,8.537,6.851,11.096,10.57,11.252h45.166
			c1.225,0,2.216-0.991,2.216-2.219C58.952,65.861,57.961,64.869,56.736,64.869z"/>
	</g>
</g>
</svg>
