<?xml version="1.0" encoding="utf-8"?>
<!-- Generator: Adobe Illustrator 16.0.0, SVG Export Plug-In . SVG Version: 6.00 Build 0)  -->
<!DOCTYPE svg PUBLIC "-//W3C//DTD SVG 1.1//EN" "http://www.w3.org/Graphics/SVG/1.1/DTD/svg11.dtd">
<svg version="1.1" id="Layer_1" xmlns="http://www.w3.org/2000/svg" xmlns:xlink="http://www.w3.org/1999/xlink" x="0px" y="0px"
	 width="130px" height="130px" viewBox="0 0 130 130" enable-background="new 0 0 130 130" xml:space="preserve">
<rect fill="none" width="130" height="130"/>
<g>
	<path fill="#FDB813" d="M119.429,72.498l0.176-0.002c0-0.72-0.186-1.427-0.552-2.042l-17.403-29.854
		c-0.688-1.17-1.907-1.888-3.228-1.888H50.989H40.395h-8.662c-1.31,0-2.529,0.71-3.217,1.88L10.953,70.439
		c-0.361,0.618-0.552,1.332-0.552,2.057l0.176,0.002h-0.201l0.025,52.524c0,2.2,1.686,3.978,3.769,3.978H115.83
		c2.083,0,3.774-1.777,3.774-3.978l0.021-52.524H119.429z"/>
	<path fill="#D88D09" d="M81.887,76.598L80.1,83.834c-0.502,2.021-2.534,3.672-4.516,3.672H54.406c-1.982,0-4.014-1.651-4.506-3.672
		l-1.787-7.236c-0.497-2.024-1.852-4.1-3.834-4.1H18.601l15.25-25.923h6.544h10.594H96.3l15.114,25.923H85.721
		C83.739,72.498,82.389,74.573,81.887,76.598z"/>
	<path fill="#7C6A51" d="M41.107,31.889c2.399,2.411,8.461,1.931,10.895-0.471L62.14,21.278v33.604c0,3.352,1.656,5.071,5.073,5.071
		c3.412,0,5.068-1.712,5.068-5.071V21.278l9.756,10.651c2.43,2.396,6.339,2.377,8.742-0.04c2.399-2.421,2.389-6.318-0.036-8.714
		L71.157,3.833C70.059,2.134,68.146,1,65.969,1c-2.143,0-4.035,1.09-5.144,2.749L41.147,23.175
		C38.719,25.565,38.704,29.468,41.107,31.889z"/>
</g>
</svg>
