<?xml version="1.0" encoding="utf-8"?>
<!-- Generator: Adobe Illustrator 16.0.0, SVG Export Plug-In . SVG Version: 6.00 Build 0)  -->
<!DOCTYPE svg PUBLIC "-//W3C//DTD SVG 1.1//EN" "http://www.w3.org/Graphics/SVG/1.1/DTD/svg11.dtd">
<svg version="1.1" id="Layer_1" xmlns="http://www.w3.org/2000/svg" xmlns:xlink="http://www.w3.org/1999/xlink" x="0px" y="0px"
	 width="130px" height="130px" viewBox="0 0 130 130" enable-background="new 0 0 130 130" xml:space="preserve">
<rect fill="none" width="130" height="130"/>
<g id="Shape_13_copy_1_">
	<path fill="#20B6FF" d="M74.422,39.215c14.625-8.78,22.431,3.566,14.946,17.548c-7.47,13.962-14.293,23.072-17.869,23.072
		c-3.567,0-6.312-9.348-10.396-25.68c-4.226-16.891-4.201-47.308-21.768-43.857C22.771,13.55,1,39.544,1,39.544l5.198,6.817
		c0,0,10.721-8.446,14.294-4.223c3.573,4.223,17.217,55.245,21.771,64.656c3.975,8.254,14.941,19.164,26.966,11.376
		c12.019-7.796,51.981-41.914,59.134-82.205C135.512-4.314,80.272,4.125,74.422,39.215z"/>
</g>
</svg>
