<?xml version="1.0" encoding="utf-8"?>
<!-- Generator: Adobe Illustrator 16.0.0, SVG Export Plug-In . SVG Version: 6.00 Build 0)  -->
<!DOCTYPE svg PUBLIC "-//W3C//DTD SVG 1.1//EN" "http://www.w3.org/Graphics/SVG/1.1/DTD/svg11.dtd">
<svg version="1.1" id="Layer_1" xmlns="http://www.w3.org/2000/svg" xmlns:xlink="http://www.w3.org/1999/xlink" x="0px" y="0px"
	 width="130px" height="130px" viewBox="0 0 130 130" enable-background="new 0 0 130 130" xml:space="preserve">
<rect fill="none" width="130" height="130"/>
<path fill="#A4CB45" d="M99.576,35.621c-16.4-0.173-29.883,13.025-30.055,29.426c-0.068,6.408,1.926,12.354,5.34,17.253
	l-20.081-0.211c3.516-4.825,5.633-10.73,5.7-17.137C60.654,48.551,47.456,35.073,31.058,34.9
	c-16.4-0.171-29.883,13.025-30.056,29.426c-0.168,16.17,12.67,29.479,28.755,30.016l0.204,0.02l0.199,0.002l0.272,0.018l0.273-0.011
	l67.083,0.706l0.299-0.028c0.289,0.013,0.57,0.05,0.865,0.052c16.4,0.173,29.873-13.029,30.047-29.427
	C129.17,49.272,115.977,35.794,99.576,35.621z M30.836,81.836l-0.545-0.004c-9.363-0.247-16.855-7.976-16.755-17.375
	c0.1-9.486,7.899-17.123,17.39-17.023c9.486,0.1,17.124,7.899,17.024,17.385C47.85,74.218,40.197,81.788,30.836,81.836z
	 M99.084,82.567c-9.49-0.1-17.129-7.905-17.029-17.389c0.1-9.486,7.9-17.123,17.391-17.023c9.486,0.1,17.119,7.899,17.02,17.386
	C116.365,75.025,108.57,82.667,99.084,82.567z"/>
</svg>
