<?xml version="1.0" encoding="utf-8"?>
<!-- Generator: Adobe Illustrator 16.0.0, SVG Export Plug-In . SVG Version: 6.00 Build 0)  -->
<!DOCTYPE svg PUBLIC "-//W3C//DTD SVG 1.1//EN" "http://www.w3.org/Graphics/SVG/1.1/DTD/svg11.dtd">
<svg version="1.1" id="Layer_1" xmlns="http://www.w3.org/2000/svg" xmlns:xlink="http://www.w3.org/1999/xlink" x="0px" y="0px"
	 width="130px" height="130px" viewBox="0 0 130 130" enable-background="new 0 0 130 130" xml:space="preserve">
<rect fill="none" width="130" height="130"/>
<g>
	<path fill="#FDB813" d="M54.379,17.664L30.438,39.209c-1.318,1.187-2.537,2.711-3.663,4.395H8.049C4.175,43.604,1,46.788,1,50.671
		v28.673c0,3.874,3.175,7.035,7.049,7.035h18.726c1.126,1.712,2.345,3.236,3.663,4.413l23.941,21.545
		c4.802,4.318,8.732,2.573,8.732-3.879V21.542C63.112,15.089,59.181,13.345,54.379,17.664z"/>
	<path fill="#FAAB18" d="M1,65.697v13.647c0,3.874,3.175,7.035,7.049,7.035h18.726c1.126,1.712,2.345,3.236,3.663,4.413
		l23.941,21.545c4.802,4.318,8.732,2.573,8.732-3.879V65.697H1z"/>
	<path fill="#FDB813" d="M110.887,65.842l16.977-16.977c1.36-1.36,1.586-3.349,0.207-4.727c-1.379-1.379-3.733-1.534-5.079-0.188
		l-16.944,17.081l-17.348-17.62c-1.379-1.379-3.747-1.257-5.131,0.126c-1.388,1.388-1.885,4.146-0.501,5.529l17.464,17.53
		L83.719,83.41c-1.36,1.355-1.369,3.564,0.023,4.952c1.389,1.394,3.429,1.196,4.803-0.178l16.948-16.944l17.006,16.935
		c1.374,1.374,3.625,1.365,5.013-0.028c1.389-1.383,1.529-4.159,0.155-5.538L110.887,65.842z"/>
</g>
</svg>
