<?xml version="1.0" encoding="utf-8"?>
<!-- Generator: Adobe Illustrator 16.0.0, SVG Export Plug-In . SVG Version: 6.00 Build 0)  -->
<!DOCTYPE svg PUBLIC "-//W3C//DTD SVG 1.1//EN" "http://www.w3.org/Graphics/SVG/1.1/DTD/svg11.dtd">
<svg version="1.1" id="Layer_1" xmlns="http://www.w3.org/2000/svg" xmlns:xlink="http://www.w3.org/1999/xlink" x="0px" y="0px"
	 width="130px" height="130px" viewBox="0 0 130 130" enable-background="new 0 0 130 130" xml:space="preserve">
<rect fill="none" width="130" height="130"/>
<g>
	<path fill="#FDB813" d="M93.747,4.055L62.923,31.794c-1.696,1.528-3.272,3.49-4.716,5.658H34.098c-4.988,0-9.082,4.1-9.082,9.1
		v36.917c0,4.987,4.094,9.058,9.082,9.058h24.109c1.443,2.203,3.02,4.166,4.716,5.682l30.824,27.738
		c6.177,5.56,11.237,3.313,11.237-4.993V9.049C104.984,0.74,99.924-1.506,93.747,4.055z"/>
	<path fill="#FAAB18" d="M25.016,65.897v17.571c0,4.987,4.094,9.058,9.082,9.058h24.109c1.443,2.203,3.02,4.166,4.716,5.682
		l30.824,27.738c6.177,5.56,11.237,3.313,11.237-4.993V65.897H25.016z"/>
</g>
</svg>
