<?xml version="1.0" encoding="utf-8"?>
<!-- Generator: Adobe Illustrator 16.0.0, SVG Export Plug-In . SVG Version: 6.00 Build 0)  -->
<!DOCTYPE svg PUBLIC "-//W3C//DTD SVG 1.1//EN" "http://www.w3.org/Graphics/SVG/1.1/DTD/svg11.dtd">
<svg version="1.1" id="Layer_1" xmlns="http://www.w3.org/2000/svg" xmlns:xlink="http://www.w3.org/1999/xlink" x="0px" y="0px"
	 width="130px" height="130px" viewBox="0 0 130 130" enable-background="new 0 0 130 130" xml:space="preserve">
<rect fill="none" width="130" height="130"/>
<g>
	<path fill="#FDB813" d="M56.825,15.497L31.788,38.028c-1.377,1.241-2.656,2.835-3.83,4.596H8.374C4.322,42.624,1,45.954,1,50.015
		v29.986c0,4.051,3.322,7.356,7.374,7.356h19.583c1.174,1.79,2.453,3.384,3.83,4.615l25.038,22.531
		c5.017,4.516,9.13,2.691,9.13-4.057V19.553C65.955,12.804,61.842,10.98,56.825,15.497z"/>
	<path fill="#FAAB18" d="M1,65.729v14.272c0,4.051,3.322,7.356,7.374,7.356h19.583c1.174,1.79,2.453,3.384,3.83,4.615l25.038,22.531
		c5.017,4.516,9.13,2.691,9.13-4.057V65.729H1z"/>
	<path fill="#FDB813" d="M80.965,41.481c-1.962,1.172-2.599,3.712-1.43,5.679c6.829,11.462,6.829,25.7,0,37.151
		c-1.169,1.962-0.532,4.508,1.422,5.68c0.67,0.397,1.391,0.584,2.116,0.584c1.406,0,2.771-0.721,3.547-2.017
		c8.392-14.07,8.392-31.564,0-45.65C85.447,40.946,82.907,40.304,80.965,41.481z M102.604,34.669
		c-1.173-1.967-3.707-2.6-5.662-1.428c-1.957,1.172-2.592,3.713-1.425,5.675c9.86,16.542,9.86,37.098,0,53.63
		c-1.167,1.962-0.532,4.503,1.425,5.68c0.662,0.397,1.393,0.589,2.116,0.589c1.397,0,2.773-0.726,3.546-2.011
		C114.026,77.642,114.026,53.835,102.604,34.669z M114.84,17.302c-1.228-1.923-3.784-2.481-5.698-1.246
		c-1.918,1.241-2.472,3.801-1.238,5.724c17.124,26.7,17.124,61.212,0,87.908c-1.233,1.918-0.68,4.482,1.238,5.719
		c0.691,0.441,1.461,0.657,2.231,0.657c1.354,0,2.68-0.672,3.467-1.898C133.72,84.743,133.72,46.724,114.84,17.302z"/>
</g>
</svg>
