<?xml version="1.0" encoding="utf-8"?>
<!-- Generator: Adobe Illustrator 16.0.0, SVG Export Plug-In . SVG Version: 6.00 Build 0)  -->
<!DOCTYPE svg PUBLIC "-//W3C//DTD SVG 1.1//EN" "http://www.w3.org/Graphics/SVG/1.1/DTD/svg11.dtd">
<svg version="1.1" id="Layer_1" xmlns="http://www.w3.org/2000/svg" xmlns:xlink="http://www.w3.org/1999/xlink" x="0px" y="0px"
	 width="130px" height="130px" viewBox="0 0 130 130" enable-background="new 0 0 130 130" xml:space="preserve">
<rect fill="none" width="130" height="130"/>
<g>
	<g>
		<path fill="#FDB813" d="M99.039,13.933c-0.03-0.055-0.079-0.079-0.119-0.123c-1.612-4.07-3.822-6.706-6.681-6.706
			c-0.44,0-0.855,0.06-1.257,0.168l-64.773,5.346C15.116,13.72,6.091,23.7,6.091,34.852v3.333c0,11.137,9.025,21.122,20.157,22.254
			l64.734,5.326c0.401,0.109,0.816,0.173,1.257,0.173c3.065,0,5.395-3.012,7.027-7.596l9.129-12.512V28.244L99.039,13.933z
			 M91.888,11.623l0.563-0.044c0.915,0.355,2.364,2.928,3.541,7.551l-5.559-5.559C90.968,12.538,91.478,11.87,91.888,11.623z
			 M95.404,57.393c-0.016,0.06-0.055,0.108-0.06,0.173c-0.96,2.76-1.964,4.308-2.666,4.574l-0.563-0.044
			c-0.613-0.361-1.43-1.622-2.24-3.725l6.711-5.341C96.22,54.702,95.819,56.171,95.404,57.393z M97.392,45.895l-9.109,7.25
			c-0.969-4.115-1.701-9.679-1.701-16.621c0-8.017,0.975-14.193,2.156-18.412l8.605,8.605c0.336,2.883,0.544,6.142,0.544,9.807
			C97.887,39.995,97.698,43.115,97.392,45.895z M102.13,42.121c0.113-1.864,0.173-3.738,0.173-5.598
			c0-1.657-0.045-3.328-0.139-4.985l5.88,5.875L102.13,42.121z"/>
	</g>
	<g>
		<path fill="#7C6A51" d="M108.153,15.14c0.47,0.302,0,108.622,0,108.622H97.645c-1.197,0-1.766,1.811-1.766,3.032
			c0,1.216,0.959,2.205,2.151,2.205h23.723c1.187,0,2.156-0.989,2.156-2.205c0-1.222-0.55-3.032-1.741-3.032h-10.509V15.14H108.153z
			"/>
	</g>
	<g>
		<path fill="#F15A22" d="M109.924,1.001c-3.922,0-7.122,3.194-7.122,7.15c0,3.932,3.2,7.132,7.122,7.132
			c3.946,0,7.146-3.2,7.146-7.132C117.069,4.195,113.87,1.001,109.924,1.001z"/>
	</g>
	<g>
		<path fill="#F15A22" d="M86.166,12.083l-23.777,1.964c-0.084,0.178-0.168,0.36-0.262,0.544
			c-8.956,17.659-5.148,33.697-0.084,44.379l24.123,1.983c-2.818-5.647-4.149-15.257-4.149-24.43
			C82.017,27.34,83.348,17.726,86.166,12.083z M57.33,14.457l-18.396,1.519c-0.04,0.084-0.079,0.158-0.124,0.242
			c-8.995,16.305-5.029,31.096,0.084,40.849l18.13,1.493C52.266,47.428,49.313,31.741,57.33,14.457z M33.775,16.4l-7.319,0.604
			c-8.862,0.89-16.107,8.896-16.107,17.848v3.333c0,8.946,7.245,16.958,16.152,17.862l7.27,0.599
			C29.032,46.468,26.07,32.176,33.775,16.4z"/>
	</g>
</g>
</svg>
