<?xml version="1.0" encoding="utf-8"?>
<!-- Generator: Adobe Illustrator 16.0.0, SVG Export Plug-In . SVG Version: 6.00 Build 0)  -->
<!DOCTYPE svg PUBLIC "-//W3C//DTD SVG 1.1//EN" "http://www.w3.org/Graphics/SVG/1.1/DTD/svg11.dtd">
<svg version="1.1" id="Layer_1" xmlns="http://www.w3.org/2000/svg" xmlns:xlink="http://www.w3.org/1999/xlink" x="0px" y="0px"
	 width="130px" height="130px" viewBox="0 0 130 130" enable-background="new 0 0 130 130" xml:space="preserve">
<rect fill="none" width="130" height="130"/>
<g>
	<g id="Shape_30_2_">
		<g>
			<path fill="#0481D9" d="M64.999,128.211C29.711,128.211,1,99.854,1,65C1,30.146,29.711,1.789,64.999,1.789
				C100.29,1.789,129,30.146,129,65C129,99.854,100.29,128.211,64.999,128.211z M64.999,4.753C31.344,4.753,3.965,31.779,3.965,65
				c0,33.221,27.379,60.246,61.034,60.246S126.036,98.221,126.036,65C126.036,31.779,98.654,4.753,64.999,4.753z"/>
		</g>
	</g>
	<path fill="#0481D9" d="M9.708,64.155c0,21.608,12.768,40.299,31.282,49.141L14.518,41.932C11.437,48.724,9.708,56.24,9.708,64.155
		z M66.187,68.938l-16.658,47.601c4.97,1.447,10.23,2.229,15.682,2.229c6.459,0,12.661-1.101,18.427-3.104
		c-0.147-0.226-0.284-0.474-0.394-0.74L66.187,68.938z M113.902,37.954c0.249,1.743,0.386,3.607,0.386,5.623
		c0,5.535-1.057,11.766-4.225,19.553l-16.947,48.221c16.493-9.461,27.587-27.053,27.587-47.195
		C120.703,54.659,118.237,45.736,113.902,37.954z M102.678,61.398c0-6.751-2.475-11.424-4.579-15.06
		c-2.812-4.499-5.448-8.303-5.448-12.813c0-5.014,3.858-9.687,9.321-9.687c0.24,0,0.478,0.035,0.712,0.046
		C92.814,14.985,79.66,9.548,65.21,9.548c-19.389,0-36.45,9.785-46.368,24.62c1.303,0.035,2.527,0.064,3.567,0.064
		c5.807,0,14.796-0.707,14.796-0.707c2.981-0.162,3.341,4.163,0.351,4.51c0,0-3.006,0.342-6.354,0.516l20.216,59.146l12.139-35.83
		l-8.641-23.316c-2.991-0.174-5.826-0.516-5.826-0.516c-2.987-0.179-2.637-4.672,0.357-4.51c0,0,9.157,0.707,14.613,0.707
		c5.803,0,14.797-0.707,14.797-0.707c2.982-0.162,3.338,4.163,0.348,4.51c0,0-3.002,0.342-6.349,0.516l20.057,58.694l5.538-18.192
		C101.26,71.954,102.678,66.071,102.678,61.398z"/>
</g>
</svg>
