<?xml version="1.0" encoding="utf-8"?>
<!-- Generator: Adobe Illustrator 16.0.0, SVG Export Plug-In . SVG Version: 6.00 Build 0)  -->
<!DOCTYPE svg PUBLIC "-//W3C//DTD SVG 1.1//EN" "http://www.w3.org/Graphics/SVG/1.1/DTD/svg11.dtd">
<svg version="1.1" id="Layer_1" xmlns="http://www.w3.org/2000/svg" xmlns:xlink="http://www.w3.org/1999/xlink" x="0px" y="0px"
	 width="130px" height="130px" viewBox="0 0 130 130" enable-background="new 0 0 130 130" xml:space="preserve">
<rect fill="none" width="130" height="130"/>
<g id="Shape_20_1_">
	<path fill="#AB47AC" d="M117.726,42.894c0.034-0.012,0.086-0.023,0.117-0.023l3.571-5.157c-0.051,0-0.136-0.011-0.176-0.011
		l0.375-0.558H71.581l1.927,7.873h13.656L64.184,65.76c-4.685-6.483-15.676-19.974-23.341-31.137h17.196v-5.994l0.199-1.32
		c-0.054-0.012-0.145-0.023-0.199-0.023v-0.541H1v7.878h16.914c6.563,5.134,31.678,36.487,32.72,39.612
		c0.415,2.926,0.803,20.22-0.427,21.523c-2.471,2.612-13.73,1.912-16.448,2.111l-0.937,5.356c4.958,0.143,21.104-0.41,26.125-0.41
		c9.885,0,27.206-0.039,29.654,0.148l0.305-5.624c-2.502-0.416-16.138-0.051-18.022-0.473c-0.415-2.727-0.877-20.925-0.458-22.798
		c1.884-5.441,30.542-27.573,33.676-28.416c0.709-0.148,1.762-0.376,2.96-0.638h9.229L117.726,42.894z M112.403,88.666l7.668,0.608
		L129,54.785c-1.492-0.051-15.042-1.332-16.804-1.673L112.403,88.666z M111.08,94.193l0.043,8.419l3.885,0.33l4.189,0.312
		l1.227-8.236l-4.414-0.223L111.08,94.193z"/>
</g>
</svg>
