<?xml version="1.0" encoding="utf-8"?>
<!-- Generator: Adobe Illustrator 16.0.0, SVG Export Plug-In . SVG Version: 6.00 Build 0)  -->
<!DOCTYPE svg PUBLIC "-//W3C//DTD SVG 1.1//EN" "http://www.w3.org/Graphics/SVG/1.1/DTD/svg11.dtd">
<svg version="1.1" id="Layer_1" xmlns="http://www.w3.org/2000/svg" xmlns:xlink="http://www.w3.org/1999/xlink" x="0px" y="0px"
	 width="130px" height="130px" viewBox="0 0 130 130" enable-background="new 0 0 130 130" xml:space="preserve">
<rect fill="none" width="130" height="130"/>
<g id="Shape_11_copy_2_">
	<path fill="#EB5350" d="M28.078,83.838h6.218v30.909h6.008V83.838h6.218v-5.249H28.078V83.838z M58.762,108.329
		c-0.503,0.576-1.053,1.059-1.657,1.425c-0.599,0.378-1.102,0.569-1.485,0.569c-0.503,0-0.863-0.146-1.093-0.43
		c-0.218-0.279-0.331-0.732-0.331-1.366V88.064h-5.331v22.306c0,1.593,0.316,2.772,0.936,3.575c0.625,0.796,1.55,1.191,2.788,1.191
		c1,0,2.031-0.279,3.09-0.854c1.075-0.563,2.09-1.384,3.084-2.471v2.936h5.33V88.064h-5.33V108.329z M78.236,87.744
		c-0.829,0-1.651,0.21-2.465,0.628c-0.8,0.419-1.564,1.047-2.285,1.854V78.589h-5.389v36.158h5.389v-2.046
		c0.7,0.813,1.465,1.418,2.285,1.802c0.808,0.396,1.734,0.581,2.787,0.581c1.578,0,2.787-0.499,3.625-1.505
		c0.837-1.012,1.252-2.459,1.252-4.349V94.424c0-2.18-0.444-3.843-1.34-4.981C81.209,88.314,79.922,87.744,78.236,87.744z
		 M77.939,108.498c0,0.86-0.157,1.465-0.462,1.837c-0.309,0.378-0.785,0.563-1.439,0.563c-0.447,0-0.872-0.093-1.281-0.284
		c-0.413-0.187-0.837-0.512-1.271-0.942v-16.62c0.369-0.372,0.729-0.645,1.104-0.813c0.366-0.181,0.747-0.262,1.131-0.262
		c0.712,0,1.268,0.227,1.657,0.691c0.38,0.466,0.561,1.151,0.561,2.059V108.498z M94.33,87.401c-2.384,0-4.322,0.727-5.837,2.18
		c-1.505,1.46-2.267,3.354-2.267,5.657v11.986c0,2.569,0.697,4.587,2.066,6.052s3.25,2.197,5.642,2.197
		c2.657,0,4.653-0.686,5.979-2.063c1.346-1.39,2.008-3.453,2.008-6.186v-1.372H96.44v1.221c0,1.564-0.187,2.576-0.532,3.035
		c-0.354,0.465-0.965,0.697-1.852,0.697c-0.852,0-1.456-0.268-1.808-0.813c-0.354-0.541-0.521-1.518-0.521-2.919v-5.034h10.193
		v-6.801c0-2.523-0.647-4.465-1.959-5.808C98.652,88.076,96.771,87.401,94.33,87.401z M96.44,97.889h-4.712v-2.691
		c0-1.116,0.175-1.924,0.55-2.396c0.372-0.494,0.979-0.727,1.828-0.727c0.808,0,1.412,0.232,1.772,0.727
		c0.366,0.472,0.562,1.279,0.562,2.396V97.889z M65.517,36.635c-0.735,0-1.325,0.197-1.788,0.593
		c-0.453,0.395-0.683,0.912-0.683,1.558v16.004c0,0.809,0.215,1.431,0.64,1.872c0.424,0.441,1.037,0.663,1.831,0.663
		c0.813,0,1.456-0.228,1.938-0.675c0.482-0.453,0.718-1.075,0.718-1.86V38.785c0-0.646-0.244-1.163-0.732-1.558
		C66.949,36.832,66.31,36.635,65.517,36.635z M115.621,14.526H14.38C7.017,14.526,1,20.549,1,27.908v28.438
		c0,7.359,6.017,13.377,13.38,13.377h101.241c7.362,0,13.379-6.018,13.379-13.377V27.908C129,20.549,122.983,14.526,115.621,14.526z
		 M48.513,45.145v16.527h-6.759V45.889L33.709,21.84h6.807l4.387,15.916h0.427l4.178-15.916h6.874L48.513,45.145z M74.292,54.354
		c0,2.511-0.779,4.476-2.329,5.911c-1.563,1.431-3.702,2.146-6.432,2.146c-2.622,0-4.727-0.738-6.305-2.215
		c-1.569-1.477-2.363-3.465-2.363-5.958V39.006c0-2.278,0.808-4.093,2.427-5.441c1.613-1.343,3.791-2.022,6.514-2.022
		c2.485,0,4.523,0.715,6.116,2.134c1.578,1.424,2.372,3.255,2.372,5.493V54.354z M96.292,61.672h-6.008v-3.249
		c-1.096,1.197-2.247,2.109-3.45,2.737c-1.195,0.622-2.357,0.937-3.479,0.937c-1.398,0-2.436-0.442-3.142-1.314
		c-0.698-0.878-1.053-2.186-1.053-3.941V32.286h5.996v22.526c0,0.697,0.137,1.197,0.387,1.506c0.247,0.313,0.657,0.477,1.218,0.477
		c0.439,0,1.003-0.209,1.681-0.622c0.668-0.413,1.287-0.941,1.843-1.587v-22.3h6.008V61.672z"/>
</g>
</svg>
