<?xml version="1.0" encoding="utf-8"?>
<!-- Generator: Adobe Illustrator 16.0.0, SVG Export Plug-In . SVG Version: 6.00 Build 0)  -->
<!DOCTYPE svg PUBLIC "-//W3C//DTD SVG 1.1//EN" "http://www.w3.org/Graphics/SVG/1.1/DTD/svg11.dtd">
<svg version="1.1" id="Layer_1" xmlns="http://www.w3.org/2000/svg" xmlns:xlink="http://www.w3.org/1999/xlink" x="0px" y="0px"
	 width="130px" height="130px" viewBox="0 0 130 130" enable-background="new 0 0 130 130" xml:space="preserve">
<rect fill="none" width="130" height="130"/>
<g>
	<path fill="#FDB813" d="M124.178,106.531L94.807,75.934c-4.693,7.655-11.23,14.039-19.021,18.525l29.239,30.457
		c2.606,2.72,6.09,4.085,9.579,4.085c3.304,0,6.617-1.23,9.189-3.699C129.084,120.223,129.257,111.819,124.178,106.531z"/>
	<g>
		<path fill="#C1BAA7" d="M49.195,95.154c-25.954,0-47.072-21.117-47.072-47.073c0-25.96,21.118-47.082,47.072-47.082
			c25.958,0,47.075,21.122,47.075,47.082C96.27,74.037,75.152,95.154,49.195,95.154z M49.195,11.521
			c-20.155,0-36.55,16.401-36.55,36.561c0,20.155,16.395,36.552,36.55,36.552c20.156,0,36.554-16.396,36.554-36.552
			C85.749,27.922,69.351,11.521,49.195,11.521z"/>
	</g>
	<path fill="#FDB813" d="M31.84,44.528c-1.962,0-3.55,1.589-3.55,3.55c0,1.96,1.588,3.545,3.55,3.545h34.712
		c1.965,0,3.55-1.585,3.55-3.545c0-1.961-1.585-3.55-3.55-3.55H31.84z"/>
</g>
</svg>
