<?xml version="1.0" encoding="utf-8"?>
<!-- Generator: Adobe Illustrator 16.0.0, SVG Export Plug-In . SVG Version: 6.00 Build 0)  -->
<!DOCTYPE svg PUBLIC "-//W3C//DTD SVG 1.1//EN" "http://www.w3.org/Graphics/SVG/1.1/DTD/svg11.dtd">
<svg version="1.1" id="Layer_1" xmlns="http://www.w3.org/2000/svg" xmlns:xlink="http://www.w3.org/1999/xlink" x="0px" y="0px"
	 width="130px" height="130px" viewBox="0 0 130 130" enable-background="new 0 0 130 130" xml:space="preserve">
<rect fill="none" width="130" height="130"/>
<g>
	<path fill="#FDB813" d="M124.176,106.531L94.808,75.934c-4.695,7.655-11.229,14.039-19.02,18.525l29.235,30.457
		c2.61,2.72,6.091,4.085,9.582,4.085c3.302,0,6.615-1.23,9.19-3.699C129.085,120.223,129.258,111.819,124.176,106.531z"/>
	<g>
		<path fill="#C1BAA7" d="M49.197,95.154c-25.958,0-47.075-21.117-47.075-47.073c0-25.96,21.117-47.082,47.075-47.082
			c25.957,0,47.074,21.122,47.074,47.082C96.271,74.037,75.154,95.154,49.197,95.154z M49.197,11.521
			c-20.155,0-36.554,16.401-36.554,36.561c0,20.155,16.398,36.552,36.554,36.552c20.154,0,36.553-16.396,36.553-36.552
			C85.75,27.922,69.352,11.521,49.197,11.521z"/>
	</g>
	<path fill="#FDB813" d="M66.552,44.528H52.74V30.721c0-1.961-1.59-3.55-3.543-3.55c-1.959,0-3.55,1.589-3.55,3.55v13.808H31.842
		c-1.965,0-3.549,1.589-3.549,3.55c0,1.96,1.584,3.545,3.549,3.545h13.806v13.814c0,1.96,1.591,3.545,3.55,3.545
		c1.953,0,3.543-1.585,3.543-3.545V51.623h13.812c1.965,0,3.549-1.585,3.549-3.545C70.101,46.117,68.517,44.528,66.552,44.528z"/>
</g>
</svg>
